<svg width="26" height="27" viewBox="0 0 26 27" fill="none" xmlns="http://www.w3.org/2000/svg">
<path d="M3.25 0.395996C1.45508 0.395996 0 1.85107 0 3.646V23.146C0 24.9409 1.45508 26.396 3.25 26.396H22.75C24.5449 26.396 26 24.9409 26 23.146V3.646C26 1.85107 24.5449 0.395996 22.75 0.395996H3.25ZM11.2382 8.74536L8.34937 11.6342C7.9263 12.0573 7.24036 12.0573 6.8173 11.6342L5.37286 10.1898C4.94979 9.76674 4.94979 9.0808 5.37286 8.65774C5.79592 8.23468 6.48186 8.23468 6.90492 8.65774L7.58333 9.33615L9.70619 7.2133C10.1293 6.79023 10.8151 6.79023 11.2382 7.2133C11.6613 7.63636 11.6613 8.3223 11.2382 8.74536ZM19.8611 8.34044C20.4594 8.34044 20.9444 8.82547 20.9444 9.42377C20.9444 10.0221 20.4594 10.5071 19.8611 10.5071H14.8056C14.2073 10.5071 13.7222 10.0221 13.7222 9.42377C13.7222 8.82547 14.2073 8.34044 14.8056 8.34044H19.8611ZM13.7224 17.3682C13.7224 16.7699 14.2073 16.2849 14.8057 16.2849H19.861C20.4594 16.2849 20.9443 16.7699 20.9443 17.3682C20.9443 17.9665 20.4594 18.4516 19.861 18.4516H14.8057C14.2073 18.4516 13.7224 17.9665 13.7224 17.3682ZM11.2382 15.1578C11.6613 15.5809 11.6613 16.2667 11.2382 16.6898L8.34937 19.5787C7.9263 20.0017 7.24036 20.0017 6.8173 19.5787L5.37286 18.1342C4.94979 17.7111 4.94979 17.0253 5.37286 16.6022C5.79592 16.1792 6.48186 16.1792 6.90492 16.6022L7.58333 17.2805L9.70619 15.1578C10.1293 14.7347 10.8151 14.7347 11.2382 15.1578Z" fill="white"/>
</svg>
