<svg width="28" height="29" viewBox="0 0 28 29" fill="none" xmlns="http://www.w3.org/2000/svg">
<path d="M24.5477 0.85498H2.72752C1.21375 0.85498 0 2.06873 0 3.5825V18.5839C0 20.0977 1.21375 21.3114 2.72752 21.3114H8.18257V28.1302L13.6376 25.4027L19.0927 28.1302V21.3114H24.5477C26.0615 21.3114 27.2752 20.0977 27.2752 18.5839V3.5825C27.2752 2.06873 26.0615 0.85498 24.5477 0.85498ZM24.5477 18.5839H2.72752V15.8564H24.5477V18.5839ZM24.5477 11.7651H2.72752V4.94626C2.72752 4.1962 3.34122 3.5825 4.09128 3.5825H23.1839C23.934 3.5825 24.5477 4.1962 24.5477 4.94626V11.7651Z" fill="white"/>
</svg>
