<svg width="24" height="29" viewBox="0 0 24 29" fill="none" xmlns="http://www.w3.org/2000/svg">
<path d="M23.4955 19.7116C23.3918 19.5867 23.29 19.4618 23.1901 19.3413C21.8162 17.6795 20.9851 16.6766 20.9851 11.9725C20.9851 9.53704 20.4024 7.53872 19.254 6.03999C18.4072 4.93279 17.2626 4.09288 15.7539 3.47215C15.7344 3.46135 15.7171 3.44718 15.7027 3.43031C15.16 1.61309 13.675 0.395996 12.0002 0.395996C10.3253 0.395996 8.84094 1.61309 8.29828 3.42844C8.28379 3.44469 8.2667 3.45841 8.24769 3.46903C4.72691 4.91843 3.01586 7.69921 3.01586 11.9706C3.01586 16.6766 2.18593 17.6795 0.810843 19.3394C0.710927 19.4599 0.609138 19.5823 0.505476 19.7097C0.237702 20.0326 0.0680456 20.4255 0.0165842 20.8419C-0.0348772 21.2582 0.0340108 21.6806 0.215096 22.059C0.600396 22.8708 1.42158 23.3747 2.35891 23.3747H21.6483C22.5812 23.3747 23.3968 22.8714 23.7833 22.0633C23.9652 21.6848 24.0347 21.2621 23.9837 20.8453C23.9327 20.4285 23.7633 20.035 23.4955 19.7116Z" fill="white"/>
<path d="M12.0014 28.3725C12.9037 28.3717 13.7891 28.1268 14.5636 27.6636C15.338 27.2004 15.9726 26.5363 16.4002 25.7416C16.4203 25.7035 16.4302 25.6608 16.429 25.6178C16.4278 25.5747 16.4155 25.5327 16.3932 25.4958C16.371 25.4589 16.3396 25.4284 16.3021 25.4072C16.2645 25.3861 16.2222 25.375 16.1791 25.375H7.82488C7.78175 25.3749 7.73931 25.3859 7.7017 25.407C7.66409 25.4281 7.63259 25.4586 7.61027 25.4955C7.58794 25.5324 7.57556 25.5745 7.57432 25.6176C7.57308 25.6607 7.58303 25.7034 7.6032 25.7416C8.03067 26.5362 8.66521 27.2003 9.43953 27.6634C10.2138 28.1266 11.0991 28.3716 12.0014 28.3725Z" fill="white"/>
</svg>
