<svg width="38" height="27" viewBox="0 0 38 27" fill="none" xmlns="http://www.w3.org/2000/svg">
<path d="M24.3331 15.7561C27.6909 15.7561 30.413 18.4782 30.413 21.8361V24.116C30.413 25.3752 29.3922 26.396 28.1331 26.396H9.89326C8.63406 26.396 7.61328 25.3752 7.61328 24.116V21.8361C7.61328 18.4782 10.3354 15.7561 13.6932 15.7561H24.3331ZM19.0132 0.556152C22.7908 0.556152 25.8531 3.61851 25.8531 7.39612C25.8531 11.1737 22.7908 14.2361 19.0132 14.2361C15.2356 14.2361 12.1732 11.1737 12.1732 7.39612C12.1732 3.61851 15.2356 0.556152 19.0132 0.556152Z" fill="white"/>
<path d="M4.56069 15.7565C2.04223 15.7565 0.00074482 17.7981 0.00074482 20.3164V22.5964C0.00074482 23.8558 1.02157 24.8764 2.28072 24.8764H4.56069V21.8361C4.56069 19.3502 5.75419 17.1432 7.59944 15.7565H4.56069ZM6.08068 5.11621C3.56222 5.11621 1.52073 7.15779 1.52073 9.67619C1.52073 12.1947 3.56222 14.2362 6.08068 14.2362C8.59914 14.2362 10.6406 12.1947 10.6406 9.67619C10.6406 7.15779 8.59914 5.11621 6.08068 5.11621Z" fill="white"/>
<path d="M33.4393 15.756C35.9578 15.756 37.9993 17.7976 37.9993 20.316V22.5959C37.9993 23.8553 36.9784 24.8759 35.7193 24.8759H33.4393V21.8356C33.4393 19.3497 32.2458 17.1427 30.4006 15.756H33.4393ZM31.9193 5.11572C34.4378 5.11572 36.4793 7.1573 36.4793 9.6757C36.4793 12.1942 34.4378 14.2357 31.9193 14.2357C29.4009 14.2357 27.3594 12.1942 27.3594 9.6757C27.3594 7.1573 29.4009 5.11572 31.9193 5.11572Z" fill="white"/>
</svg>
