<svg width="29" height="29" viewBox="0 0 29 29" fill="none" xmlns="http://www.w3.org/2000/svg">
<g clip-path="url(#clip0_3004_3029)">
<path d="M1.3125 4.82708C1.3125 3.71275 1.75517 2.64406 2.54312 1.85611C3.33107 1.06815 4.39976 0.625488 5.51409 0.625488H19.0885C20.2028 0.625488 21.2715 1.06815 22.0594 1.85611C22.8474 2.64406 23.2901 3.71275 23.2901 4.82708V9.67507H7.45329C7.19614 9.67507 6.94951 9.77723 6.76768 9.95906C6.58584 10.1409 6.48369 10.3875 6.48369 10.6447C6.48369 10.9018 6.58584 11.1484 6.76768 11.3303C6.94951 11.5121 7.19614 11.6143 7.45329 11.6143H11.3317C10.7009 12.4527 10.3605 13.4738 10.3621 14.5231V22.9263C10.3621 23.2585 10.3957 23.583 10.459 23.8958H5.51409C4.39976 23.8958 3.33107 23.4532 2.54312 22.6652C1.75517 21.8773 1.3125 20.8086 1.3125 19.6943V4.82708ZM6.48369 6.76628C6.48369 7.3015 6.91807 7.73588 7.45329 7.73588H17.1493C17.4064 7.73588 17.653 7.63372 17.8349 7.45189C18.0167 7.27005 18.1189 7.02343 18.1189 6.76628C18.1189 6.50912 18.0167 6.2625 17.8349 6.08067C17.653 5.89883 17.4064 5.79668 17.1493 5.79668H7.45329C7.19614 5.79668 6.94951 5.89883 6.76768 6.08067C6.58584 6.2625 6.48369 6.50912 6.48369 6.76628ZM11.6549 14.5231C11.6549 13.5802 12.0294 12.6759 12.6962 12.0092C13.3629 11.3424 14.2672 10.9679 15.2101 10.9679H23.6133C24.5562 10.9679 25.4604 11.3424 26.1272 12.0092C26.7939 12.6759 27.1685 13.5802 27.1685 14.5231V15.4927H11.6549V14.5231ZM11.6549 17.4319H27.1685V22.9263C27.1685 23.8691 26.7939 24.7734 26.1272 25.4402C25.4604 26.1069 24.5562 26.4814 23.6133 26.4814H15.2101C14.2672 26.4814 13.3629 26.1069 12.6962 25.4402C12.0294 24.7734 11.6549 23.8691 11.6549 22.9263V17.4319Z" fill="white"/>
</g>
<defs>
<clipPath id="clip0_3004_3029">
<rect width="28.4824" height="28.4824" fill="white" transform="translate(0 0.372559)"/>
</clipPath>
</defs>
</svg>
