<svg width="25" height="25" viewBox="0 0 25 25" fill="none" xmlns="http://www.w3.org/2000/svg">
<path d="M12.7253 23.6126C12.7853 23.6126 12.8453 23.6026 12.8953 23.5926C12.9553 23.5826 13.0153 23.5526 13.0753 23.5226L15.2853 22.4226C15.6553 22.2326 15.8054 21.7826 15.6254 21.4126C15.4354 21.0426 14.9854 20.8926 14.6153 21.0726L13.4753 21.6426V20.0826C13.4753 19.6726 13.1353 19.3326 12.7253 19.3326C12.3153 19.3326 11.9753 19.6726 11.9753 20.0826V21.6426L10.8353 21.0726C10.4653 20.8926 10.0153 21.0426 9.82532 21.4126C9.63532 21.7826 9.78532 22.2326 10.1653 22.4226L12.3753 23.5226C12.4353 23.5526 12.4953 23.5726 12.5553 23.5926C12.6153 23.6026 12.6653 23.6126 12.7253 23.6126ZM6.05532 20.2826C6.32532 20.2826 6.59531 20.1326 6.72532 19.8726C6.91531 19.5026 6.76532 19.0526 6.38532 18.8626L4.57532 17.9626V15.6526C4.57532 15.2426 4.23532 14.9026 3.82532 14.9026C3.41532 14.9026 3.07532 15.2426 3.07532 15.6526V18.4326C3.07532 18.7126 3.23532 18.9726 3.48532 19.1026L5.70532 20.2126C5.83532 20.2526 5.94531 20.2826 6.05532 20.2826ZM19.3954 20.2826C19.5054 20.2826 19.6254 20.2526 19.7254 20.2026L21.9454 19.0926C22.1954 18.9626 22.3553 18.7026 22.3553 18.4226V15.6426C22.3553 15.2326 22.0153 14.8926 21.6053 14.8926C21.1953 14.8926 20.8553 15.2326 20.8553 15.6426V17.9526L19.0454 18.8526C18.6754 19.0426 18.5254 19.4926 18.7054 19.8626C18.8554 20.1226 19.1154 20.2826 19.3954 20.2826ZM12.7253 15.2826C13.1353 15.2826 13.4753 14.9426 13.4753 14.5326V12.2226L15.2853 11.3226C15.6553 11.1326 15.8054 10.6826 15.6254 10.3126C15.4354 9.94259 14.9854 9.79259 14.6153 9.97259L12.7253 10.9126L10.8353 9.97259C10.4653 9.79259 10.0153 9.93259 9.82532 10.3126C9.63532 10.6926 9.78532 11.1326 10.1653 11.3226L11.9753 12.2226V14.5326C11.9753 14.9426 12.3153 15.2826 12.7253 15.2826ZM3.83532 10.8326C4.24532 10.8326 4.58532 10.4926 4.58532 10.0826V8.52259L5.72532 9.09259C6.09532 9.28259 6.54532 9.13259 6.73532 8.75259C6.92531 8.38259 6.77532 7.9326 6.39532 7.7426L5.51532 7.30259L6.39532 6.86259C6.76532 6.67259 6.91532 6.2226 6.73532 5.8526C6.54532 5.4826 6.09532 5.33258 5.72532 5.51258L3.51532 6.61259C3.49532 6.62259 3.46532 6.63258 3.44532 6.65258C3.38532 6.68258 3.33532 6.73259 3.28532 6.78259C3.25532 6.82259 3.22532 6.86258 3.19532 6.90258C3.15532 6.97258 3.12532 7.04258 3.10532 7.12258C3.09532 7.18258 3.08532 7.24258 3.08532 7.29258V7.30259V10.0626C3.08532 10.5026 3.42532 10.8326 3.83532 10.8326ZM21.6154 10.8326C22.0254 10.8326 22.3654 10.4926 22.3654 10.0826V7.3226V7.31259C22.3654 7.25259 22.3554 7.19259 22.3454 7.14259C22.3254 7.06259 22.2954 6.99259 22.2554 6.92259C22.2254 6.87259 22.1954 6.83258 22.1554 6.79258C22.1154 6.75258 22.0654 6.7126 22.0154 6.6826C21.9954 6.6726 21.9654 6.65259 21.9454 6.64259L19.7354 5.54258C19.3654 5.36258 18.9154 5.50259 18.7254 5.88259C18.5354 6.26259 18.6853 6.70259 19.0653 6.89259L19.9454 7.33259L19.0653 7.77259C18.6953 7.96259 18.5454 8.41259 18.7254 8.78259C18.9154 9.15259 19.3554 9.30258 19.7354 9.12258L20.8754 8.55259V10.1126C20.8654 10.5026 21.1954 10.8326 21.6154 10.8326ZM10.5053 4.72259C10.6153 4.72259 10.7353 4.69259 10.8353 4.64259L12.7253 3.70259L14.6153 4.64259C14.9854 4.83259 15.4354 4.68259 15.6254 4.30259C15.8154 3.93259 15.6653 3.48258 15.2853 3.29258L13.0653 2.1826C12.8553 2.0726 12.6053 2.0726 12.3953 2.1826L10.1753 3.29258C9.80532 3.48258 9.65532 3.93259 9.83532 4.30259C9.96532 4.57259 10.2253 4.72259 10.5053 4.72259Z" fill="#9E9E9E"/>
</svg>
