<svg width="16" height="23" viewBox="0 0 16 23" fill="none" xmlns="http://www.w3.org/2000/svg">
<path d="M8 1.5V5.55405M11.5 1.5V6.36486M5.375 16.6351V19.8784C5.37496 20.0913 5.4202 20.3022 5.50813 20.499C5.59606 20.6957 5.72497 20.8745 5.88748 21.0251C6.04999 21.1757 6.24292 21.2952 6.45526 21.3766C6.6676 21.4581 6.89518 21.5 7.125 21.5H8.875C9.33919 21.5 9.78427 21.3292 10.1124 21.025C10.2749 20.8744 10.4039 20.6957 10.4918 20.4989C10.5798 20.3022 10.625 20.0913 10.625 19.8784V16.6351M1 11.5V14.2027C0.999962 14.4157 1.0452 14.6266 1.13313 14.8233C1.22106 15.0201 1.34997 15.1989 1.51248 15.3494C1.67499 15.5 1.86792 15.6195 2.08026 15.701C2.2926 15.7824 2.52018 15.8244 2.75 15.8243H13.25C13.7142 15.8243 14.1593 15.6535 14.4874 15.3493C14.6499 15.1988 14.7789 15.02 14.8668 14.8233C14.9548 14.6265 15 14.4157 15 14.2027V11.5201L1 11.5ZM1 11.5V4.74324C1 3.88308 1.36875 3.05815 2.02513 2.44992C2.6815 1.8417 3.57174 1.5 4.5 1.5H15V11.5H1Z" stroke="#1BA8BB" stroke-width="1.5" stroke-linecap="round" stroke-linejoin="round"/>
</svg>
