<svg width="265" height="266" viewBox="0 0 265 266" fill="none" xmlns="http://www.w3.org/2000/svg">
<g opacity="0.4">
<path d="M218.225 196.507L223.393 238.379C224.718 249.377 212.925 257.063 203.517 251.365L157.67 224.069C154.489 222.214 153.694 218.238 155.417 215.058C162.042 202.868 165.62 189.087 165.62 175.306C165.62 126.809 124.013 87.3219 72.8654 87.3219C62.3974 87.3219 52.1944 88.9119 42.6539 92.0921C37.7511 93.6822 32.9809 89.177 34.1735 84.1417C46.2316 35.9093 92.6089 0 147.997 0C212.66 0 265 48.8949 265 109.185C265 144.962 246.582 176.631 218.225 196.507Z" fill="#1BA8BB"/>
<path d="M145.757 175.382C145.757 191.15 139.927 205.726 130.121 217.254C117.003 233.155 96.1998 243.358 72.8786 243.358L38.2944 263.896C32.4641 267.474 25.0438 262.571 25.8388 255.813L29.1515 229.71C11.3956 217.386 0 197.643 0 175.382C0 152.061 12.4556 131.522 31.5366 119.332C43.3297 111.646 57.5079 107.273 72.8786 107.273C113.161 107.273 145.757 137.75 145.757 175.382Z" fill="#1BA8BB"/>
</g>
</svg>
