<svg width="27" height="24" viewBox="0 0 27 24" fill="none" xmlns="http://www.w3.org/2000/svg">
<path d="M18.7133 15.2443L18.0418 15.8767C18.0418 15.8767 16.4459 17.3802 12.0896 13.2765C7.73345 9.17303 9.32938 7.66967 9.32938 7.66967L9.75218 7.27138C10.7938 6.2902 10.892 4.71493 9.98318 3.56493L8.12432 1.21249C6.99954 -0.210878 4.82612 -0.398903 3.53692 0.815501L1.22304 2.99517C0.583802 3.59733 0.155432 4.3779 0.207383 5.24383C0.340281 7.45913 1.39826 12.2256 7.30187 17.7867C13.5624 23.684 19.4366 23.9184 21.8387 23.7062C22.5985 23.6392 23.2593 23.2726 23.7918 22.7709L25.886 20.7984C27.2996 19.4667 26.901 17.1838 25.0923 16.2524L22.2758 14.8019C21.0882 14.1903 19.6415 14.3699 18.7133 15.2443Z" fill="#1BA8BB"/>
</svg>
