<svg width="29" height="25" viewBox="0 0 29 25" fill="none" xmlns="http://www.w3.org/2000/svg">
<path fill-rule="evenodd" clip-rule="evenodd" d="M7.76297 0.177734C5.67479 0.177734 3.78649 0.699635 2.41591 1.97231C1.03233 3.25708 0.328125 5.16497 0.328125 7.61258V16.6637C0.328125 19.1114 1.03233 21.0192 2.41591 22.304C3.78649 23.5767 5.67479 24.0985 7.76297 24.0985H20.6931C22.7814 24.0985 24.6697 23.5767 26.0402 22.304C27.4238 21.0192 28.128 19.1114 28.128 16.6637V7.61258C28.128 5.16497 27.4238 3.25708 26.0402 1.97231C24.6697 0.699635 22.7814 0.177734 20.6931 0.177734H7.76297ZM23.5746 7.43453C23.9984 7.10706 24.0764 6.49803 23.7489 6.07423C23.4215 5.65042 22.8125 5.57233 22.3887 5.89981L15.2162 11.442C14.6342 11.8918 13.8218 11.8918 13.2397 11.442L6.06731 5.89981C5.6435 5.57233 5.03447 5.65042 4.70699 6.07423C4.37951 6.49803 4.45759 7.10706 4.88141 7.43453L12.0538 12.9768C13.3345 13.9662 15.1215 13.9662 16.4021 12.9768L23.5746 7.43453Z" fill="#1BA8BB"/>
</svg>
