<svg width="20" height="25" viewBox="0 0 20 25" fill="none" xmlns="http://www.w3.org/2000/svg">
<path fill-rule="evenodd" clip-rule="evenodd" d="M9.74772 0.362305C4.4347 0.362305 0.121094 4.67591 0.121094 9.98893C0.121094 12.4201 1.56859 15.3107 3.35827 17.8819C5.93033 21.5785 9.14562 24.6267 9.14562 24.6267C9.48343 24.9461 10.012 24.9461 10.3498 24.6267C10.3498 24.6267 13.5651 21.5785 16.1372 17.8819C17.9269 15.3107 19.3744 12.4201 19.3744 9.98893C19.3744 4.67591 15.0607 0.362305 9.74772 0.362305ZM9.74772 5.17562C7.09077 5.17562 4.93441 7.33198 4.93441 9.98893C4.93441 12.6459 7.09077 14.8022 9.74772 14.8022C12.4047 14.8022 14.561 12.6459 14.561 9.98893C14.561 7.33198 12.4047 5.17562 9.74772 5.17562ZM9.74772 6.92592C11.4385 6.92592 12.8107 8.29815 12.8107 9.98893C12.8107 11.6797 11.4385 13.052 9.74772 13.052C8.05694 13.052 6.68471 11.6797 6.68471 9.98893C6.68471 8.29815 8.05694 6.92592 9.74772 6.92592Z" fill="#1BA8BB"/>
</svg>
