<svg width="26" height="32" viewBox="0 0 26 32" fill="none" xmlns="http://www.w3.org/2000/svg">
<path d="M19.0656 20.2787C17.9845 19.868 16.4078 18.6686 16.4078 17.9219C16.4078 17.4273 16.4078 16.8093 16.4078 15.9622C17.0327 15.2559 17.5078 13.8221 17.7902 12.1967C18.4488 11.9578 18.8252 11.5754 19.2953 9.90264C19.7951 8.12074 18.5427 8.18132 18.5427 8.18132C19.5557 4.77409 18.2222 1.57194 15.9886 1.80702C14.4479 -0.931514 9.2875 2.4326 7.6706 2.19812C7.6706 3.1373 8.05553 3.84146 8.05553 3.84146C7.49348 4.92575 7.71028 7.08778 7.86811 8.18132C7.77684 8.17967 6.64422 8.19167 7.12465 9.90264C7.59489 11.5754 7.9712 11.9578 8.62989 12.1967C8.91173 13.8221 9.38679 15.2559 10.0122 15.9622C10.0122 16.8093 10.0122 17.4273 10.0122 17.9219C10.0122 18.6686 8.33737 19.9264 7.35446 20.2787C5.32364 21.0052 0.333402 23.0946 0.655512 27.0086C0.732747 27.9478 5.81592 31.4528 13.21 31.4528C20.6037 31.4528 25.6873 27.9478 25.7646 27.0086C26.0866 23.0908 21.0836 21.0456 19.0656 20.2787Z" fill="#1BA8BB"/>
</svg>
