<svg width="153" height="153" viewBox="0 0 153 153" fill="none" xmlns="http://www.w3.org/2000/svg">
<g filter="url(#filter0_d_1341_13800)">
<circle cx="86" cy="59" r="58" fill="#1BA8BB"/>
<circle cx="86" cy="59" r="57.2162" stroke="white" stroke-width="1.56757"/>
</g>
<path fill-rule="evenodd" clip-rule="evenodd" d="M85.2156 37.0537C82.7049 37.0537 80.6696 39.089 80.6696 41.5997V55.2375H67.0318C64.5211 55.2375 62.4859 57.2728 62.4859 59.7834C62.4859 62.2941 64.5211 64.3294 67.0318 64.3294H80.6696V77.9672C80.6696 80.4779 82.7049 82.5132 85.2156 82.5132C87.7262 82.5132 89.7615 80.4779 89.7615 77.9672V64.3294H103.399C105.91 64.3294 107.945 62.2941 107.945 59.7834C107.945 57.2728 105.91 55.2375 103.399 55.2375H89.7615V41.5997C89.7615 39.089 87.7262 37.0537 85.2156 37.0537Z" fill="white"/>
<defs>
<filter id="filter0_d_1341_13800" x="0.567568" y="0.216217" width="152.054" height="152.054" filterUnits="userSpaceOnUse" color-interpolation-filters="sRGB">
<feFlood flood-opacity="0" result="BackgroundImageFix"/>
<feColorMatrix in="SourceAlpha" type="matrix" values="0 0 0 0 0 0 0 0 0 0 0 0 0 0 0 0 0 0 127 0" result="hardAlpha"/>
<feOffset dx="-9.40541" dy="17.2432"/>
<feGaussianBlur stdDeviation="9.01351"/>
<feComposite in2="hardAlpha" operator="out"/>
<feColorMatrix type="matrix" values="0 0 0 0 0 0 0 0 0 0 0 0 0 0 0 0 0 0 0.16 0"/>
<feBlend mode="normal" in2="BackgroundImageFix" result="effect1_dropShadow_1341_13800"/>
<feBlend mode="normal" in="SourceGraphic" in2="effect1_dropShadow_1341_13800" result="shape"/>
</filter>
</defs>
</svg>
