<svg width="1440" height="398" viewBox="0 0 1440 398" fill="none" xmlns="http://www.w3.org/2000/svg">
<g opacity="0.08" clip-path="url(#clip0_1341_14956)">
<path d="M1402.01 386.612H66.0547V418.37H1402.01V386.612Z" fill="#E0E0E0"/>
<path d="M852.437 410.589H793.277L816.329 292.185H852.437V410.589Z" fill="#1BA8BB"/>
<path d="M803.956 191.485V139.017H784.96V119.045H774.797V102.268H771.231V73.4986H770.311V102.268H766.746V119.045H756.582V139.017H737.732V191.485H733.815V286.74H704.59V395.33H733.815H763.041H807.727V191.485H803.956Z" fill="#1BA8BB"/>
<path d="M913.124 251.757H821.18V253.427H825.344V408.81H908.965V253.427H913.124V251.757Z" fill="#1BA8BB"/>
<path d="M493.866 290.461H412.352V419.9H493.866V290.461Z" fill="#1BA8BB"/>
<path d="M400.078 356.778H259.883V419.9H400.078V356.778Z" fill="#1BA8BB"/>
<path d="M365.803 215.753H335.027V370.76H365.803V215.753Z" fill="#1BA8BB"/>
<path d="M343.418 174.405H341.82V258.697H343.418V174.405Z" fill="#1BA8BB"/>
<path d="M348.618 180.794H347.02V265.086H348.618V180.794Z" fill="#1BA8BB"/>
<path d="M356.216 206.163H337.402V226.939H356.216V206.163Z" fill="#1BA8BB"/>
<path d="M448.142 313.628H394.582V419.894H448.142V313.628Z" fill="#1BA8BB"/>
<path d="M607.622 201.171H507.082V419.894H607.622V201.171Z" fill="#1BA8BB"/>
<path d="M597.743 193.657H516.961V230.085H597.743V193.657Z" fill="#1BA8BB"/>
<path d="M615.42 205.751H499.293V208.311H615.42V205.751Z" fill="#1BA8BB"/>
<path d="M536.241 309.435H488.867V419.894H536.241V309.435Z" fill="#1BA8BB"/>
<path d="M203.925 305.242H149.566V419.9H203.925V305.242Z" fill="#1BA8BB"/>
<path d="M275.471 274.077H167.152V419.894H275.471V274.077Z" fill="#1BA8BB"/>
<path d="M278.267 268.487H160.832V274.077H278.267V268.487Z" fill="#1BA8BB"/>
<path d="M219.549 253.306H171.945V282.868H219.549V253.306Z" fill="#1BA8BB"/>
<path d="M243.098 253.306H235.102V271.282H243.098V253.306Z" fill="#1BA8BB"/>
<path d="M259.881 253.306H251.086V271.282H259.881V253.306Z" fill="#1BA8BB"/>
<path d="M176.744 375.552H119.988V419.894H176.744V375.552Z" fill="#1BA8BB"/>
<path d="M125.424 356.778H98.5469V419.9H125.424V356.778Z" fill="#1BA8BB"/>
<path d="M111.987 397.726H66.0547V419.9H111.987V397.726Z" fill="#1BA8BB"/>
<path d="M1163.75 370.76H597.75V419.9H1163.75V370.76Z" fill="#1BA8BB"/>
<path d="M1118.55 234.738C1114.98 234.738 1112.06 237.479 1111.77 240.964L1103.81 240.704C1103.83 239.923 1103.84 239.143 1103.84 238.362C1103.84 228.452 1102.12 218.808 1098.84 209.756L1105.5 207.306C1106.54 209.72 1108.94 211.402 1111.74 211.402C1115.5 211.402 1118.54 208.359 1118.54 204.602C1118.54 200.844 1115.5 197.801 1111.74 197.801C1107.98 197.801 1104.93 200.844 1104.93 204.602C1104.93 205.297 1105.04 205.963 1105.23 206.592L1098.58 209.043C1094.79 198.878 1089.01 189.488 1081.43 181.35L1086.64 176.474C1087.86 177.642 1089.51 178.356 1091.34 178.356C1095.1 178.356 1098.14 175.312 1098.14 171.555C1098.14 167.798 1095.1 164.755 1091.34 164.755C1087.58 164.755 1084.53 167.798 1084.53 171.555C1084.53 173.219 1085.13 174.738 1086.12 175.917L1080.91 180.794C1080.37 180.225 1079.83 179.669 1079.28 179.112C1071.39 171.228 1062.21 165.112 1052.22 160.961L1055.08 153.991C1055.73 154.197 1056.43 154.312 1057.14 154.312C1060.9 154.312 1063.95 151.269 1063.95 147.511C1063.95 143.754 1060.9 140.711 1057.14 140.711C1053.38 140.711 1050.34 143.754 1050.34 147.511C1050.34 150.282 1052 152.66 1054.38 153.725L1051.52 160.677C1042.58 157.053 1032.99 154.996 1023.12 154.639L1023.42 145.109C1023.5 145.109 1023.57 145.115 1023.64 145.115C1027.4 145.115 1030.45 142.072 1030.45 138.315C1030.45 134.558 1027.4 131.514 1023.64 131.514C1019.88 131.514 1016.84 134.558 1016.84 138.315C1016.84 141.739 1019.37 144.571 1022.67 145.043L1022.36 154.614C1021.58 154.59 1020.8 154.584 1020.02 154.584C1010.5 154.584 1001.23 156.157 992.498 159.182L989.756 151.408C992.232 150.391 993.969 147.959 993.969 145.122C993.969 141.364 990.924 138.321 987.165 138.321C983.406 138.321 980.361 141.364 980.361 145.122C980.361 148.879 983.406 151.922 987.165 151.922C987.813 151.922 988.442 151.831 989.035 151.662L991.778 159.442C981.19 163.218 971.408 169.135 962.976 176.976L958.006 171.676C959.12 170.466 959.798 168.851 959.798 167.078C959.798 163.321 956.753 160.277 952.994 160.277C949.235 160.277 946.19 163.321 946.19 167.078C946.19 170.835 949.235 173.878 952.994 173.878C954.707 173.878 956.269 173.243 957.461 172.202L962.425 177.496C961.856 178.035 961.299 178.579 960.742 179.13C953.726 186.142 948.115 194.171 944.029 202.895L937.715 199.979C937.945 199.302 938.072 198.57 938.072 197.813C938.072 194.056 935.027 191.013 931.268 191.013C927.509 191.013 924.464 194.056 924.464 197.813C924.464 201.57 927.509 204.614 931.268 204.614C933.998 204.614 936.353 203.004 937.437 200.681L943.714 203.579C939.204 213.441 936.65 224.162 936.25 235.264L928.145 234.998C928.042 231.332 925.039 228.391 921.347 228.391C917.588 228.391 914.543 231.435 914.543 235.192C914.543 238.949 917.588 241.992 921.347 241.992C924.912 241.992 927.836 239.252 928.121 235.761L936.226 236.027C936.202 236.807 936.196 237.588 936.196 238.368C936.196 248.279 937.909 257.923 941.19 266.974L934.537 269.424C933.49 267.016 931.093 265.328 928.296 265.328C924.537 265.328 921.492 268.371 921.492 272.129C921.492 275.886 924.537 278.929 928.296 278.929C932.055 278.929 935.1 275.886 935.1 272.129C935.1 271.433 934.997 270.767 934.803 270.138L941.456 267.688C945.246 277.852 951.026 287.242 958.599 295.38L953.393 300.256C952.171 299.089 950.518 298.375 948.696 298.375C944.937 298.375 941.892 301.418 941.892 305.175C941.892 308.932 944.937 311.976 948.696 311.976C952.455 311.976 955.5 308.932 955.5 305.175C955.5 303.511 954.901 301.993 953.914 300.813L959.12 295.936C959.658 296.505 960.203 297.062 960.754 297.618C966.063 302.924 971.965 307.432 978.303 311.08L937.304 386.612H929.943V388.772H926.341V393.061H1113.73V388.772H1110.12V386.612H1102.76L1061.75 311.056C1067.21 307.91 1072.35 304.128 1077.06 299.748L1083.71 306.839C1082.28 308.085 1081.38 309.919 1081.38 311.958C1081.38 315.715 1084.42 318.758 1088.18 318.758C1091.94 318.758 1094.99 315.715 1094.99 311.958C1094.99 308.2 1091.94 305.157 1088.18 305.157C1086.74 305.157 1085.41 305.605 1084.31 306.367L1077.61 299.228C1078.18 298.689 1078.74 298.145 1079.3 297.594C1086.31 290.582 1091.92 282.553 1096.01 273.829L1103.41 277.241C1103.28 277.774 1103.21 278.33 1103.21 278.905C1103.21 282.662 1106.25 285.705 1110.01 285.705C1113.77 285.705 1116.82 282.662 1116.82 278.905C1116.82 275.148 1113.77 272.104 1110.01 272.104C1107.1 272.104 1104.61 273.938 1103.64 276.509L1096.33 273.133C1100.84 263.271 1103.4 252.55 1103.79 241.448L1111.76 241.708C1111.86 245.374 1114.87 248.321 1118.56 248.321C1122.32 248.321 1125.36 245.278 1125.36 241.52C1125.35 237.781 1122.31 234.738 1118.55 234.738ZM1101.57 238.362C1101.57 239.118 1101.56 239.875 1101.54 240.631L1078.08 239.869C1078.09 239.366 1078.1 238.864 1078.1 238.362C1078.1 231.453 1076.88 224.816 1074.65 218.662L1096.72 210.543C1099.91 219.34 1101.57 228.724 1101.57 238.362ZM1076.94 239.832L1024.59 238.132C1024.57 237.793 1024.52 237.461 1024.44 237.14L1073.58 219.056C1075.77 225.088 1076.96 231.586 1076.96 238.362C1076.96 238.852 1076.95 239.342 1076.94 239.832ZM963.115 236.886L1015.46 238.586C1015.48 238.925 1015.54 239.258 1015.62 239.578L966.475 257.662C964.289 251.63 963.097 245.132 963.097 238.356C963.097 237.866 963.103 237.376 963.115 236.886ZM1023.61 235.525L1061.81 199.749C1066.76 205.104 1070.7 211.402 1073.32 218.348L1024.18 236.432C1024.02 236.105 1023.84 235.803 1023.61 235.525ZM1023.1 234.968C1022.8 234.702 1022.47 234.472 1022.11 234.29L1042.01 185.87C1049.34 188.95 1055.9 193.518 1061.29 199.199L1023.1 234.968ZM1021.41 234C1021.14 233.915 1020.85 233.855 1020.56 233.818L1022.26 181.502C1028.96 181.762 1035.38 183.184 1041.31 185.58L1021.41 234ZM1019.8 233.794C1019.48 233.812 1019.17 233.861 1018.87 233.939L1001.46 184.569C1007.29 182.554 1013.53 181.459 1020.03 181.459C1020.52 181.459 1021.02 181.465 1021.51 181.478L1019.8 233.794ZM1018.16 234.187C1017.81 234.345 1017.49 234.544 1017.19 234.774L981.396 196.597C986.941 191.467 993.503 187.425 1000.75 184.811L1018.16 234.187ZM1016.64 235.295C1016.41 235.543 1016.21 235.815 1016.05 236.111L968.508 214.173C971.541 207.742 975.748 201.964 980.851 197.117L1016.64 235.295ZM1015.73 236.795C1015.61 237.128 1015.52 237.473 1015.49 237.836L963.145 236.136C963.436 228.573 965.209 221.385 968.188 214.857L1015.73 236.795ZM1015.88 240.286C1016 240.546 1016.15 240.8 1016.32 241.03L1016.01 241.605L978.248 276.969C973.297 271.614 969.356 265.316 966.735 258.37L1015.88 240.286ZM1014.87 243.711L991.16 287.387C986.578 284.683 982.407 281.355 978.763 277.525L1014.87 243.711ZM1017.44 242.131C1017.61 242.24 1017.77 242.343 1017.95 242.428L998.049 290.848C996.13 290.043 994.272 289.136 992.468 288.132L1017.44 242.131ZM1018.65 242.718C1018.92 242.803 1019.21 242.864 1019.5 242.9L1017.8 295.216C1011.09 294.956 1004.68 293.534 998.751 291.139L1018.65 242.718ZM1020.03 295.265C1019.54 295.265 1019.05 295.259 1018.56 295.247L1020.26 242.924C1020.58 242.906 1020.89 242.857 1021.18 242.779L1038.59 292.149C1032.78 294.164 1026.53 295.265 1020.03 295.265ZM1021.9 242.531C1022.15 242.416 1022.39 242.283 1022.61 242.131L1047.59 288.138C1044.95 289.602 1042.18 290.866 1039.31 291.901L1021.9 242.531ZM1026.1 245.393L1058.66 280.121C1055.68 282.874 1052.41 285.312 1048.9 287.387L1026.1 245.393ZM1024.68 242.767L1023.74 241.036C1023.84 240.903 1023.93 240.758 1024.01 240.613L1071.55 262.551C1068.52 268.983 1064.31 274.761 1059.21 279.607L1024.68 242.767ZM1024.33 239.929C1024.45 239.596 1024.53 239.252 1024.57 238.888L1076.91 240.589C1076.62 248.151 1074.85 255.339 1071.87 261.867L1024.33 239.929ZM997.625 291.901L988.69 313.652C985.966 312.52 983.303 311.238 980.712 309.81L991.935 289.136C993.769 290.152 995.67 291.078 997.625 291.901ZM998.321 292.185C1004.37 294.63 1010.92 296.082 1017.76 296.348L1017 319.805C1007.4 319.454 998.079 317.451 989.386 313.93L998.321 292.185ZM1018.52 296.378C1019.02 296.39 1019.53 296.396 1020.03 296.396C1026.66 296.396 1033.03 295.277 1038.98 293.22L1046.8 315.388C1038.3 318.328 1029.28 319.859 1020.03 319.859C1019.28 319.859 1018.52 319.847 1017.76 319.829L1018.52 296.378ZM1039.69 292.972C1042.62 291.913 1045.44 290.63 1048.13 289.136L1059.35 309.81C1055.55 311.909 1051.59 313.688 1047.51 315.146L1039.69 292.972ZM1096.46 209.829L1074.38 217.955C1071.71 210.87 1067.69 204.438 1062.63 198.975L1079.79 182.905C1087.15 190.819 1092.77 199.949 1096.46 209.829ZM1077.69 180.727C1078.23 181.266 1078.76 181.804 1079.28 182.355L1062.12 198.418C1056.61 192.622 1049.92 187.957 1042.44 184.817L1051.37 163.067C1061.09 167.114 1070.02 173.062 1077.69 180.727ZM1050.67 162.782L1041.74 184.533C1035.69 182.089 1029.14 180.637 1022.29 180.37L1023.06 156.913C1032.66 157.258 1041.98 159.267 1050.67 162.782ZM1020.03 156.859C1020.79 156.859 1021.54 156.871 1022.3 156.889L1021.54 180.34C1021.03 180.328 1020.53 180.322 1020.03 180.322C1013.4 180.322 1007.03 181.441 1001.08 183.498L993.261 161.33C1001.76 158.39 1010.78 156.859 1020.03 156.859ZM992.552 161.578L1000.37 183.752C992.982 186.421 986.281 190.541 980.627 195.78L964.55 178.634C972.746 171.005 982.256 165.251 992.552 161.578ZM962.37 180.727C962.909 180.189 963.448 179.662 963.999 179.142L980.07 196.289C974.865 201.232 970.573 207.131 967.473 213.695L946.111 203.839C950.088 195.357 955.548 187.546 962.37 180.727ZM945.796 204.523L967.153 214.379C964.114 221.046 962.304 228.379 962.007 236.093L938.538 235.331C938.932 224.543 941.414 214.113 945.796 204.523ZM938.484 238.362C938.484 237.606 938.496 236.85 938.514 236.093L961.977 236.856C961.965 237.358 961.959 237.86 961.959 238.362C961.959 245.272 963.175 251.909 965.403 258.062L943.333 266.181C940.149 257.378 938.484 248 938.484 238.362ZM943.599 266.889L965.676 258.764C968.345 265.848 972.371 272.28 977.425 277.743L960.27 293.813C952.909 285.899 947.286 276.769 943.599 266.889ZM962.37 295.991C961.832 295.452 961.305 294.914 960.784 294.363L977.94 278.3C981.669 282.22 985.936 285.621 990.621 288.386L979.398 309.065C973.248 305.52 967.522 301.14 962.37 295.991ZM1101.04 386.612H939.023L979.628 311.8C982.292 313.27 985.022 314.583 987.825 315.751L984.962 322.721C984.314 322.515 983.618 322.4 982.903 322.4C979.144 322.4 976.099 325.444 976.099 329.201C976.099 332.958 979.144 336.001 982.903 336.001C986.662 336.001 989.707 332.958 989.707 329.201C989.707 326.43 988.049 324.052 985.67 322.987L988.527 316.035C997.468 319.66 1007.05 321.717 1016.93 322.074L1016.7 329.201C1013.01 329.285 1010.05 332.292 1010.05 335.995C1010.05 339.752 1013.1 342.796 1016.86 342.796C1020.62 342.796 1023.66 339.752 1023.66 335.995C1023.66 332.444 1020.93 329.528 1017.46 329.225L1017.69 322.098C1018.47 322.122 1019.25 322.128 1020.03 322.128C1029.54 322.128 1038.81 320.555 1047.55 317.53L1049.99 324.463C1047.68 325.546 1046.08 327.894 1046.08 330.623C1046.08 334.38 1049.12 337.423 1052.88 337.423C1056.64 337.423 1059.68 334.38 1059.68 330.623C1059.68 326.865 1056.64 323.822 1052.88 323.822C1052.12 323.822 1051.38 323.949 1050.7 324.179L1048.27 317.282C1052.46 315.787 1056.53 313.954 1060.43 311.8L1101.04 386.612ZM1060.66 309.059L1049.44 288.38C1053.04 286.256 1056.39 283.763 1059.44 280.944L1075.51 298.09C1070.94 302.344 1065.96 306.01 1060.66 309.059ZM1077.69 295.991C1077.15 296.529 1076.62 297.056 1076.06 297.576L1059.99 280.43C1065.2 275.487 1069.49 269.588 1072.59 263.023L1093.95 272.879C1089.97 281.361 1084.51 289.172 1077.69 295.991ZM1094.26 272.195L1072.9 262.339C1075.94 255.672 1077.75 248.339 1078.05 240.625L1101.52 241.387C1101.13 252.181 1098.64 262.606 1094.26 272.195Z" fill="#1BA8BB"/>
<path d="M1222.37 291.901H1134.96V419.894H1222.37V291.901Z" fill="#1BA8BB"/>
<path d="M1296.98 341.664H1209.58V419.174H1296.98V341.664Z" fill="#1BA8BB"/>
<path d="M919.661 330.284H870.629V395.33H919.661V330.284Z" fill="#1BA8BB"/>
<path d="M1240.49 170.176H1178.67V419.894H1240.49V170.176Z" fill="#1BA8BB"/>
<path d="M1342.28 419.894H1260.74V274.077H1322.57L1342.28 419.894Z" fill="#1BA8BB"/>
<path d="M1377.98 386.612H1306.57V419.9H1377.98V386.612Z" fill="#1BA8BB"/>
<path d="M1226.63 118.01H1224.5V185.87H1226.63V118.01Z" fill="#1BA8BB"/>
<path d="M1233.83 132.567H1231.7V200.427H1233.83V132.567Z" fill="#1BA8BB"/>
<path d="M1220.11 141.939H1217.98V209.799H1220.11V141.939Z" fill="#1BA8BB"/>
<path d="M1293.11 262.291H1263.94V285.264H1293.11V262.291Z" fill="#1BA8BB"/>
<path d="M1289.92 254.105H1267.13V267.016H1289.92V254.105Z" fill="#1BA8BB"/>
<path d="M1310.3 269.025H1304.71V278.3H1310.3V269.025Z" fill="#1BA8BB"/>
<path d="M1320.28 260.561H1312.29V278.3H1320.28V260.561Z" fill="#1BA8BB"/>
<path d="M1218.42 206.036C1218.42 204.989 1217.71 204.136 1216.82 204.136C1215.94 204.136 1215.23 204.989 1215.23 206.036C1215.23 207.082 1215.94 207.935 1216.82 207.935C1217.71 207.935 1218.42 207.088 1218.42 206.036Z" fill="#0D7685"/>
<path d="M1392.35 436.962L1382.44 370.76H1362.19V315.824H1364.7V310.856H1354.87V289.457H1353.67V310.856H1346.87V293.323H1345.67V310.856H1304.71V315.824H1307.51V427.288H1260.74V377.361H1234.11V254.674H1236.55V248.654H1231.23V240.946H1225.11V238.054V229.238V221.597H1217.71V207.935H1216.83H1215.94V221.597H1211.96L1209.55 229.238H1193.44V240.946H1151.25V248.654H1145.93V254.674H1148.37V334.495H1113.07V412.93L1073.91 395.584V319.454H1080.23V313.863H1069.11V298.683H1021.5V313.863H1005.95V298.683H997.96V313.863H989.964V298.683H981.174V313.863H962.784V319.454H965.581V424.971H947.73V423.863H944.497V393.8H947.73V391.385H944.497V361.316H947.73V358.902H944.497V328.838H947.73V326.424H944.497V296.354H947.73V293.94H944.497V263.876H947.73V261.462H944.497V230.346H950.036V227.926H952.851V221.325H900.272V213.992H901.979V211.868H873.352V213.992H875.059V221.325H862.033V227.926H864.847V230.346H870.386V261.462H867.154V263.876H870.386V293.94H867.154V296.354H870.386V326.424H867.154V328.838H870.386V358.902H867.154V361.316H870.386V391.385H867.154V393.8H870.386V423.863H867.154V426.277H870.386V450.847H852.438V355.901H780.222V424.971H768.496V209.799H759.822V215.335L743.817 219.249V215.656H735.142V221.373L719.137 225.288V221.161H710.463V227.405L694.452 231.32V227.913H685.777V233.437L669.772 237.352V234.423H661.098V445.723H648.894V333.073H603.694V402.349H557.356V343.274H551.647V323.871H555.037V321.922H540.037V315.824H538.439V321.922H533.645V290.612H532.446V321.922H526.199V323.871H529.873V343.274H499.292V388.336H469.522L453.971 445.723H422.772V258.346H381.464V251.636H383.806V249.283H352.523V251.636H354.98V258.346V269.146V397.472H335.507V348.985H342.426V344.599H293.418V315.303H284.071V309.283H263.199V315.303H246.22V419.894H190.511V342.324H143.603V403.595H102.895V442.795H73.5481V393.515H34.946V435.534H0V507H34.946H46.756H66.0541H73.5481H102.895H143.603H157.284H164.609H190.511H246.22H263.199H284.071H293.418H329.98H335.507H354.98H387.644H403.74H422.772H499.292H516.962H546.793H557.356H604.487H617.151H661.098H665.438H669.772H685.777H694.452H710.463H717.709H719.137H735.142H743.817H757.576H759.822H764.162H768.496H780.222H839.914H848.437H852.438H870.386H901.979H930.901H944.497H965.581H1017.95H1073.32H1073.91H1113.07H1134.97H1148.37H1156.83H1222.37H1234.11H1248.14H1260.74H1307.51H1342.28H1349.4H1362.19H1440V436.962H1392.35Z" fill="#0D7685"/>
<g opacity="0.52">
<path d="M254.661 322.897H251.09V326.466H254.661V322.897Z" fill="white"/>
<path d="M261.841 322.897H258.27V326.466H261.841V322.897Z" fill="white"/>
<path d="M254.661 331.288H251.09V334.858H254.661V331.288Z" fill="white"/>
<path d="M261.841 331.288H258.27V334.858H261.841V331.288Z" fill="white"/>
<path d="M254.661 339.396H251.09V342.965H254.661V339.396Z" fill="white"/>
<path d="M269.818 322.897H266.246V326.466H269.818V322.897Z" fill="white"/>
</g>
<path opacity="0.5" d="M514.994 215.656H512.555V229.136H514.994V215.656Z" fill="white"/>
<path opacity="0.5" d="M523.393 215.656H520.953V229.136H523.393V215.656Z" fill="white"/>
<path opacity="0.5" d="M531.795 215.656H529.355V229.136H531.795V215.656Z" fill="white"/>
<path opacity="0.5" d="M540.19 215.656H537.75V229.136H540.19V215.656Z" fill="white"/>
<path opacity="0.5" d="M548.584 215.656H546.145V229.136H548.584V215.656Z" fill="white"/>
<path opacity="0.5" d="M556.982 215.656H554.543V229.136H556.982V215.656Z" fill="white"/>
<path opacity="0.5" d="M565.385 215.656H562.945V229.136H565.385V215.656Z" fill="white"/>
<path opacity="0.5" d="M573.779 215.656H571.34V229.136H573.779V215.656Z" fill="white"/>
<path opacity="0.5" d="M582.174 215.656H579.734V229.136H582.174V215.656Z" fill="white"/>
<path opacity="0.5" d="M590.572 215.656H588.133V229.136H590.572V215.656Z" fill="white"/>
<path opacity="0.5" d="M598.967 215.656H596.527V229.136H598.967V215.656Z" fill="white"/>
<path opacity="0.5" d="M514.994 234.423H512.555V247.903H514.994V234.423Z" fill="white"/>
<path opacity="0.5" d="M523.393 234.423H520.953V247.903H523.393V234.423Z" fill="white"/>
<path opacity="0.5" d="M531.795 234.423H529.355V247.903H531.795V234.423Z" fill="white"/>
<path opacity="0.5" d="M540.19 234.423H537.75V247.903H540.19V234.423Z" fill="white"/>
<path opacity="0.5" d="M548.584 234.423H546.145V247.903H548.584V234.423Z" fill="white"/>
<path opacity="0.5" d="M556.982 234.423H554.543V247.903H556.982V234.423Z" fill="white"/>
<path opacity="0.5" d="M565.385 234.423H562.945V247.903H565.385V234.423Z" fill="white"/>
<path opacity="0.5" d="M573.779 234.423H571.34V247.903H573.779V234.423Z" fill="white"/>
<path opacity="0.5" d="M582.174 234.423H579.734V247.903H582.174V234.423Z" fill="white"/>
<path opacity="0.5" d="M590.572 234.423H588.133V247.903H590.572V234.423Z" fill="white"/>
<path opacity="0.5" d="M598.967 234.423H596.527V247.903H598.967V234.423Z" fill="white"/>
<path opacity="0.5" d="M514.994 253.191H512.555V266.671H514.994V253.191Z" fill="white"/>
<path opacity="0.5" d="M523.393 253.191H520.953V266.671H523.393V253.191Z" fill="white"/>
<path opacity="0.5" d="M531.795 253.191H529.355V266.671H531.795V253.191Z" fill="white"/>
<path opacity="0.5" d="M540.19 253.191H537.75V266.671H540.19V253.191Z" fill="white"/>
<path opacity="0.5" d="M548.584 253.191H546.145V266.671H548.584V253.191Z" fill="white"/>
<path opacity="0.5" d="M556.982 253.191H554.543V266.671H556.982V253.191Z" fill="white"/>
<path opacity="0.5" d="M565.385 253.191H562.945V266.671H565.385V253.191Z" fill="white"/>
<path opacity="0.5" d="M573.779 253.191H571.34V266.671H573.779V253.191Z" fill="white"/>
<path opacity="0.5" d="M582.174 253.191H579.734V266.671H582.174V253.191Z" fill="white"/>
<path opacity="0.5" d="M590.572 253.191H588.133V266.671H590.572V253.191Z" fill="white"/>
<path opacity="0.5" d="M598.967 253.191H596.527V266.671H598.967V253.191Z" fill="white"/>
<path opacity="0.5" d="M540.19 271.953H537.75V285.433H540.19V271.953Z" fill="white"/>
<path opacity="0.5" d="M548.584 271.953H546.145V285.433H548.584V271.953Z" fill="white"/>
<path opacity="0.5" d="M556.982 271.953H554.543V285.433H556.982V271.953Z" fill="white"/>
<path opacity="0.5" d="M565.385 271.953H562.945V285.433H565.385V271.953Z" fill="white"/>
<path opacity="0.5" d="M573.779 271.953H571.34V285.433H573.779V271.953Z" fill="white"/>
<path opacity="0.5" d="M582.174 271.953H579.734V285.433H582.174V271.953Z" fill="white"/>
<path opacity="0.5" d="M590.572 271.953H588.133V285.433H590.572V271.953Z" fill="white"/>
<path opacity="0.5" d="M598.967 271.953H596.527V285.433H598.967V271.953Z" fill="white"/>
<path opacity="0.5" d="M548.584 291.762H546.145V305.242H548.584V291.762Z" fill="white"/>
<path opacity="0.5" d="M556.982 291.762H554.543V305.242H556.982V291.762Z" fill="white"/>
<path opacity="0.5" d="M565.385 291.762H562.945V305.242H565.385V291.762Z" fill="white"/>
<path opacity="0.5" d="M573.779 291.762H571.34V305.242H573.779V291.762Z" fill="white"/>
<path opacity="0.5" d="M582.174 291.762H579.734V305.242H582.174V291.762Z" fill="white"/>
<path opacity="0.5" d="M590.572 291.762H588.133V305.242H590.572V291.762Z" fill="white"/>
<path opacity="0.5" d="M598.967 291.762H596.527V305.242H598.967V291.762Z" fill="white"/>
<path opacity="0.33" d="M680.659 249.114H674.902V263.707H680.659V249.114Z" fill="white"/>
<path opacity="0.33" d="M680.659 277.023H674.902V291.617H680.659V277.023Z" fill="white"/>
<path opacity="0.33" d="M680.659 304.939H674.902V319.533H680.659V304.939Z" fill="white"/>
<path opacity="0.33" d="M680.659 332.849H674.902V347.442H680.659V332.849Z" fill="white"/>
<path opacity="0.33" d="M680.659 359.168H674.902V373.761H680.659V359.168Z" fill="white"/>
<path opacity="0.33" d="M680.659 387.078H674.902V401.671H680.659V387.078Z" fill="white"/>
<path opacity="0.33" d="M705.339 249.114H699.582V263.707H705.339V249.114Z" fill="white"/>
<path opacity="0.33" d="M705.339 277.023H699.582V291.617H705.339V277.023Z" fill="white"/>
<path opacity="0.33" d="M705.339 304.939H699.582V319.533H705.339V304.939Z" fill="white"/>
<path opacity="0.33" d="M705.339 332.849H699.582V347.442H705.339V332.849Z" fill="white"/>
<path opacity="0.33" d="M705.339 359.168H699.582V373.761H705.339V359.168Z" fill="white"/>
<path opacity="0.33" d="M705.339 387.078H699.582V401.671H705.339V387.078Z" fill="white"/>
<path opacity="0.33" d="M730.018 249.114H724.262V263.707H730.018V249.114Z" fill="white"/>
<path opacity="0.33" d="M730.018 277.023H724.262V291.617H730.018V277.023Z" fill="white"/>
<path opacity="0.33" d="M730.018 304.939H724.262V319.533H730.018V304.939Z" fill="white"/>
<path opacity="0.33" d="M730.018 332.849H724.262V347.442H730.018V332.849Z" fill="white"/>
<path opacity="0.33" d="M730.018 359.168H724.262V373.761H730.018V359.168Z" fill="white"/>
<path opacity="0.33" d="M730.018 387.078H724.262V401.671H730.018V387.078Z" fill="white"/>
<path opacity="0.33" d="M754.702 249.114H748.945V263.707H754.702V249.114Z" fill="white"/>
<path opacity="0.33" d="M754.702 277.023H748.945V291.617H754.702V277.023Z" fill="white"/>
<path opacity="0.33" d="M754.702 304.939H748.945V319.533H754.702V304.939Z" fill="white"/>
<path opacity="0.33" d="M754.702 332.849H748.945V347.442H754.702V332.849Z" fill="white"/>
<path opacity="0.33" d="M754.702 359.168H748.945V373.761H754.702V359.168Z" fill="white"/>
<path opacity="0.33" d="M754.702 387.078H748.945V401.671H754.702V387.078Z" fill="white"/>
<path opacity="0.4" d="M266.244 174.992H263.199V186.699H266.244V174.992Z" fill="white"/>
<path opacity="0.4" d="M276.998 174.992H273.953V186.699H276.998V174.992Z" fill="white"/>
<path opacity="0.4" d="M289.568 174.992H286.523V186.699H289.568V174.992Z" fill="white"/>
<path opacity="0.4" d="M300.314 174.992H297.27V186.699H300.314V174.992Z" fill="white"/>
<path opacity="0.4" d="M242.365 174.992H239.32V186.699H242.365V174.992Z" fill="white"/>
<path opacity="0.4" d="M253.115 174.992H250.07V186.699H253.115V174.992Z" fill="white"/>
<path opacity="0.4" d="M266.244 195.321H263.199V207.028H266.244V195.321Z" fill="white"/>
<path opacity="0.4" d="M276.998 195.321H273.953V207.028H276.998V195.321Z" fill="white"/>
<path opacity="0.4" d="M289.568 195.321H286.523V207.028H289.568V195.321Z" fill="white"/>
<path opacity="0.4" d="M300.314 195.321H297.27V207.028H300.314V195.321Z" fill="white"/>
<path opacity="0.4" d="M242.365 195.321H239.32V207.028H242.365V195.321Z" fill="white"/>
<path opacity="0.4" d="M253.115 195.321H250.07V207.028H253.115V195.321Z" fill="white"/>
<path opacity="0.4" d="M266.244 215.649H263.199V227.357H266.244V215.649Z" fill="white"/>
<path opacity="0.4" d="M276.998 215.649H273.953V227.357H276.998V215.649Z" fill="white"/>
<path opacity="0.4" d="M289.568 215.649H286.523V227.357H289.568V215.649Z" fill="white"/>
<path opacity="0.4" d="M300.314 215.649H297.27V227.357H300.314V215.649Z" fill="white"/>
<path opacity="0.4" d="M242.365 215.65H239.32V227.357H242.365V215.65Z" fill="white"/>
<path opacity="0.4" d="M253.115 215.649H250.07V227.357H253.115V215.649Z" fill="white"/>
<path opacity="0.5" d="M836.362 264.711H831.641V282.868H836.362V264.711Z" fill="white"/>
<path opacity="0.5" d="M850.8 264.711H846.078V282.868H850.8V264.711Z" fill="white"/>
<path opacity="0.5" d="M864.393 264.711H859.672V282.868H864.393V264.711Z" fill="white"/>
<path opacity="0.33" d="M1160.42 268.487H1156.83V278.699H1160.42V268.487Z" fill="white"/>
<path opacity="0.33" d="M1171.65 268.486H1168.06V278.699H1171.65V268.486Z" fill="white"/>
<path opacity="0.33" d="M1160.42 268.487H1156.83V278.699H1160.42V268.487Z" fill="white"/>
<path opacity="0.33" d="M1171.65 268.486H1168.06V278.699H1171.65V268.486Z" fill="white"/>
<path opacity="0.33" d="M1182.26 268.486H1178.67V278.699H1182.26V268.486Z" fill="white"/>
<path opacity="0.33" d="M1193.49 268.486H1189.9V278.699H1193.49V268.486Z" fill="white"/>
<path opacity="0.33" d="M1160.42 286.795H1156.83V297.007H1160.42V286.795Z" fill="white"/>
<path opacity="0.33" d="M1171.65 286.794H1168.06V297.007H1171.65V286.794Z" fill="white"/>
<path opacity="0.33" d="M1160.42 286.795H1156.83V297.007H1160.42V286.795Z" fill="white"/>
<path opacity="0.33" d="M1171.65 286.794H1168.06V297.007H1171.65V286.794Z" fill="white"/>
<path opacity="0.33" d="M1182.26 286.794H1178.67V297.007H1182.26V286.794Z" fill="white"/>
<path opacity="0.33" d="M1193.49 286.794H1189.9V297.007H1193.49V286.794Z" fill="white"/>
<path opacity="0.33" d="M1160.42 306.283H1156.83V316.495H1160.42V306.283Z" fill="white"/>
<path opacity="0.33" d="M1171.65 306.283H1168.06V316.495H1171.65V306.283Z" fill="white"/>
<path opacity="0.33" d="M1160.42 306.283H1156.83V316.495H1160.42V306.283Z" fill="white"/>
<path opacity="0.33" d="M1171.65 306.283H1168.06V316.495H1171.65V306.283Z" fill="white"/>
<path opacity="0.33" d="M1182.26 306.283H1178.67V316.495H1182.26V306.283Z" fill="white"/>
<path opacity="0.33" d="M1193.49 306.283H1189.9V316.495H1193.49V306.283Z" fill="white"/>
<path opacity="0.33" d="M1205.76 268.486H1202.18V278.699H1205.76V268.486Z" fill="white"/>
<path opacity="0.33" d="M1205.76 286.794H1202.18V297.007H1205.76V286.794Z" fill="white"/>
<path opacity="0.33" d="M1216.99 268.486H1213.41V278.699H1216.99V268.486Z" fill="white"/>
<path opacity="0.33" d="M880.909 238.187H877.059V254.105H880.909V238.187Z" fill="white"/>
<path opacity="0.33" d="M900.057 238.187H896.207V254.105H900.057V238.187Z" fill="white"/>
<path opacity="0.33" d="M919.201 238.187H915.352V254.105H919.201V238.187Z" fill="white"/>
<path opacity="0.33" d="M938.354 238.187H934.504V254.105H938.354V238.187Z" fill="white"/>
<path opacity="0.33" d="M880.909 270.949H877.059V286.867H880.909V270.949Z" fill="white"/>
<path opacity="0.33" d="M900.057 270.949H896.207V286.867H900.057V270.949Z" fill="white"/>
<path opacity="0.33" d="M919.201 270.949H915.352V286.867H919.201V270.949Z" fill="white"/>
<path opacity="0.33" d="M938.354 270.949H934.504V286.867H938.354V270.949Z" fill="white"/>
<path opacity="0.33" d="M880.909 304.528H877.059V320.446H880.909V304.528Z" fill="white"/>
<path opacity="0.33" d="M900.057 304.528H896.207V320.446H900.057V304.528Z" fill="white"/>
<path opacity="0.33" d="M919.201 304.528H915.352V320.446H919.201V304.528Z" fill="white"/>
<path opacity="0.33" d="M938.354 304.528H934.504V320.446H938.354V304.528Z" fill="white"/>
<path opacity="0.33" d="M880.909 338.107H877.059V354.025H880.909V338.107Z" fill="white"/>
<path opacity="0.33" d="M900.057 338.107H896.207V354.025H900.057V338.107Z" fill="white"/>
<path opacity="0.33" d="M919.201 338.107H915.352V354.025H919.201V338.107Z" fill="white"/>
<path opacity="0.33" d="M938.354 338.107H934.504V354.025H938.354V338.107Z" fill="white"/>
<path opacity="0.33" d="M880.909 368.606H877.059V384.524H880.909V368.606Z" fill="white"/>
<path opacity="0.33" d="M900.057 368.606H896.207V384.525H900.057V368.606Z" fill="white"/>
<path opacity="0.33" d="M919.201 368.606H915.352V384.525H919.201V368.606Z" fill="white"/>
<path opacity="0.33" d="M938.354 368.606H934.504V384.525H938.354V368.606Z" fill="white"/>
<path opacity="0.33" d="M1316.28 322.346H1312.35V331.482H1316.28V322.346Z" fill="white"/>
<path opacity="0.33" d="M1316.28 337.096H1312.35V346.232H1316.28V337.096Z" fill="white"/>
<path opacity="0.33" d="M1326.37 322.346H1322.44V331.482H1326.37V322.346Z" fill="white"/>
</g>
<defs>
<clipPath id="clip0_1341_14956">
<rect width="1440" height="507" fill="white"/>
</clipPath>
</defs>
</svg>
