<svg width="70" height="70" viewBox="0 0 70 70" fill="none" xmlns="http://www.w3.org/2000/svg">
<path d="M46.9895 55.8467C35.9307 62.2315 21.6068 58.208 15.0146 46.79C8.42238 35.3719 12.0999 20.9553 23.1587 14.5705C34.2176 8.18566 48.5414 12.2091 55.1337 23.6272C61.7259 35.0453 58.0484 49.4618 46.9895 55.8467Z" fill="#1BA8BB" stroke="white" stroke-width="1.77417"/>
<path fill-rule="evenodd" clip-rule="evenodd" d="M43.4573 26.7679C42.528 25.8385 41.0212 25.8385 40.0918 26.7679L35.0436 31.8161L29.9953 26.7679C29.066 25.8385 27.5592 25.8385 26.6298 26.7679C25.7005 27.6972 25.7005 29.204 26.6298 30.1334L31.6781 35.1816L26.6298 40.2299C25.7005 41.1593 25.7005 42.666 26.6298 43.5954C27.5592 44.5248 29.066 44.5248 29.9953 43.5954L35.0436 38.5471L40.0918 43.5954C41.0212 44.5248 42.528 44.5248 43.4573 43.5954C44.3867 42.666 44.3867 41.1593 43.4573 40.2299L38.4091 35.1816L43.4573 30.1334C44.3867 29.204 44.3867 27.6972 43.4573 26.7679Z" fill="white"/>
</svg>
