<svg width="7" height="25" viewBox="0 0 7 25" fill="none" xmlns="http://www.w3.org/2000/svg">
<path d="M6.21875 21.5625C6.21875 22.2836 5.93231 22.9751 5.42245 23.4849C4.91258 23.9948 4.22106 24.2812 3.5 24.2812C2.77894 24.2812 2.08742 23.9948 1.57755 23.4849C1.06769 22.9751 0.78125 22.2836 0.78125 21.5625C0.78125 20.8414 1.06769 20.1499 1.57755 19.6401C2.08742 19.1302 2.77894 18.8438 3.5 18.8438C4.22106 18.8438 4.91258 19.1302 5.42245 19.6401C5.93231 20.1499 6.21875 20.8414 6.21875 21.5625ZM6.21875 12.5C6.21875 13.2211 5.93231 13.9126 5.42245 14.4224C4.91258 14.9323 4.22106 15.2188 3.5 15.2188C2.77894 15.2188 2.08742 14.9323 1.57755 14.4224C1.06769 13.9126 0.78125 13.2211 0.78125 12.5C0.78125 11.7789 1.06769 11.0874 1.57755 10.5776C2.08742 10.0677 2.77894 9.78125 3.5 9.78125C4.22106 9.78125 4.91258 10.0677 5.42245 10.5776C5.93231 11.0874 6.21875 11.7789 6.21875 12.5ZM6.21875 3.4375C6.21875 4.15856 5.93231 4.85008 5.42245 5.35995C4.91258 5.86981 4.22106 6.15625 3.5 6.15625C2.77894 6.15625 2.08742 5.86981 1.57755 5.35995C1.06769 4.85008 0.78125 4.15856 0.78125 3.4375C0.78125 2.71644 1.06769 2.02492 1.57755 1.51505C2.08742 1.00519 2.77894 0.71875 3.5 0.71875C4.22106 0.71875 4.91258 1.00519 5.42245 1.51505C5.93231 2.02492 6.21875 2.71644 6.21875 3.4375Z" fill="#9D9D9D"/>
</svg>
