<svg width="45" height="45" viewBox="0 0 45 45" fill="none" xmlns="http://www.w3.org/2000/svg">
<path d="M39.8398 22.5H16.6742M8.49734 22.5H5.15234M8.49734 22.5C8.49734 21.416 8.92799 20.3763 9.69454 19.6097C10.4611 18.8432 11.5008 18.4125 12.5848 18.4125C13.6689 18.4125 14.7086 18.8432 15.4751 19.6097C16.2417 20.3763 16.6723 21.416 16.6723 22.5C16.6723 23.5841 16.2417 24.6238 15.4751 25.3903C14.7086 26.1569 13.6689 26.5875 12.5848 26.5875C11.5008 26.5875 10.4611 26.1569 9.69454 25.3903C8.92799 24.6238 8.49734 23.5841 8.49734 22.5ZM39.8398 34.8882H29.0623M29.0623 34.8882C29.0623 35.9725 28.6307 37.0133 27.8639 37.7801C27.0972 38.5468 26.0573 38.9775 24.973 38.9775C23.8889 38.9775 22.8492 38.545 22.0827 37.7785C21.3161 37.0119 20.8855 35.9722 20.8855 34.8882M29.0623 34.8882C29.0623 33.8038 28.6307 32.7649 27.8639 31.9981C27.0972 31.2314 26.0573 30.8007 24.973 30.8007C23.8889 30.8007 22.8492 31.2313 22.0827 31.9979C21.3161 32.7644 20.8855 33.8041 20.8855 34.8882M20.8855 34.8882H5.15234M39.8398 10.1119H34.018M25.8411 10.1119H5.15234M25.8411 10.1119C25.8411 9.02784 26.2717 7.98817 27.0383 7.22162C27.8048 6.45506 28.8445 6.02441 29.9286 6.02441C30.4654 6.02441 30.9969 6.13014 31.4928 6.33556C31.9887 6.54097 32.4393 6.84206 32.8189 7.22162C33.1984 7.60117 33.4995 8.05178 33.7049 8.5477C33.9104 9.04361 34.0161 9.57514 34.0161 10.1119C34.0161 10.6487 33.9104 11.1802 33.7049 11.6761C33.4995 12.1721 33.1984 12.6227 32.8189 13.0022C32.4393 13.3818 31.9887 13.6829 31.4928 13.8883C30.9969 14.0937 30.4654 14.1994 29.9286 14.1994C28.8445 14.1994 27.8048 13.7688 27.0383 13.0022C26.2717 12.2357 25.8411 11.196 25.8411 10.1119Z" stroke="#1BA8BB" stroke-width="2.10938" stroke-miterlimit="10" stroke-linecap="round"/>
</svg>
