<svg width="23" height="23" viewBox="0 0 23 23" fill="none" xmlns="http://www.w3.org/2000/svg">
<path fill-rule="evenodd" clip-rule="evenodd" d="M10.35 2.3C5.90411 2.3 2.3 5.90411 2.3 10.35C2.3 14.7959 5.9041 18.4 10.35 18.4C14.7959 18.4 18.4 14.7959 18.4 10.35C18.4 5.9041 14.7959 2.3 10.35 2.3ZM0 10.35C0 4.63385 4.63385 0 10.35 0C16.0662 0 20.7 4.63385 20.7 10.35C20.7 12.786 19.8585 15.0254 18.4502 16.7934L22.6661 21.0398C23.1136 21.4905 23.111 22.2186 22.6602 22.6661C22.2095 23.1136 21.4814 23.111 21.0339 22.6602L16.8272 18.4232C15.054 19.8477 12.8016 20.7 10.35 20.7C4.63385 20.7 0 16.0662 0 10.35Z" fill="#9E9E9E"/>
</svg>
