<svg width="427" height="467" viewBox="0 0 427 467" fill="none" xmlns="http://www.w3.org/2000/svg">
<g clip-path="url(#clip0_1341_12128)">
<path fill-rule="evenodd" clip-rule="evenodd" d="M215.285 0C265.608 0 259.863 89.024 296.192 116.159C344.277 152.075 427 134.291 427 195.931C427 304.142 319.699 343.346 202.771 343.346C85.8427 343.346 -13.9263 283.331 20.8883 175.404C55.7058 67.4811 98.3562 0 215.285 0Z" fill="#E9EEF7"/>
<path fill-rule="evenodd" clip-rule="evenodd" d="M220.428 375.347C325.75 375.347 411.648 372.366 411.648 368.712C411.648 365.058 325.75 362.077 220.428 362.077C115.105 362.077 29.207 365.058 29.207 368.712C29.207 372.366 115.105 375.347 220.428 375.347Z" fill="#D1DEED"/>
<path fill-rule="evenodd" clip-rule="evenodd" d="M117.277 95.2295H288.2C293.745 95.2295 298.266 99.7553 298.266 105.312V350.815C298.266 356.37 293.748 360.898 288.2 360.898H117.277C111.732 360.898 107.211 356.373 107.211 350.815V105.312C107.211 99.7582 111.729 95.2295 117.277 95.2295Z" fill="#11A1B6"/>
<path fill-rule="evenodd" clip-rule="evenodd" d="M117.276 97.7188H288.199C292.367 97.7188 295.78 101.138 295.78 105.312V350.815C295.78 354.99 292.367 358.409 288.199 358.409H117.276C113.109 358.409 109.695 354.99 109.695 350.815V105.312C109.695 101.138 113.109 97.7188 117.276 97.7188Z" fill="#1BA8BB"/>
<path fill-rule="evenodd" clip-rule="evenodd" d="M247.739 107.061C247.739 110.158 244.036 112.67 239.468 112.67H166.005C161.438 112.67 157.734 110.161 157.734 107.061V90.2415C157.734 87.1449 161.438 84.635 166.005 84.635H239.465C244.036 84.635 247.736 87.1449 247.736 90.2415V107.061H247.739ZM247.408 74.3604H158.065C152.509 74.3604 148.008 78.1251 148.008 82.7701V107.999C148.008 112.641 152.512 116.406 158.065 116.406H247.408C252.965 116.406 257.469 112.641 257.469 107.999V82.7701C257.469 78.1251 252.962 74.3604 247.408 74.3604Z" fill="#18D1DD"/>
<path d="M283.191 122.947H122.281V347.201H283.191V122.947Z" fill="#FDFDFD"/>
<path fill-rule="evenodd" clip-rule="evenodd" d="M248.413 122.947C248.413 127.592 244.654 131.357 240.017 131.357H165.458C160.821 131.357 157.062 127.592 157.062 122.947V97.7183C157.062 93.0763 160.821 89.3086 165.458 89.3086H240.017C244.651 89.3086 248.413 93.0763 248.413 97.7183V122.947Z" fill="#18D1DD"/>
<path fill-rule="evenodd" clip-rule="evenodd" d="M181.594 110.803C181.594 114.672 178.462 117.809 174.596 117.809C170.734 117.809 167.602 114.672 167.602 110.803C167.602 106.93 170.734 103.796 174.596 103.796C178.462 103.793 181.594 106.93 181.594 110.803Z" fill="#1BA8BB"/>
<path fill-rule="evenodd" clip-rule="evenodd" d="M239.759 110.803C239.759 114.672 236.627 117.809 232.764 117.809C228.902 117.809 225.77 114.672 225.77 110.803C225.77 106.93 228.902 103.796 232.764 103.796C236.627 103.796 239.759 106.93 239.759 110.803Z" fill="#1BA8BB"/>
<path fill-rule="evenodd" clip-rule="evenodd" d="M141.348 176.659L157.924 176.607L157.976 193.212L141.4 193.264L141.348 176.659ZM141.771 311.462L158.348 311.41L158.4 328.014L141.823 328.066L141.771 311.462ZM141.687 284.501L158.26 284.452L158.313 301.057L141.736 301.109L141.687 284.501ZM141.6 257.541L158.176 257.489L158.229 274.093L141.652 274.145L141.6 257.541ZM141.516 230.58L158.092 230.528L158.145 247.133L141.568 247.185L141.516 230.58ZM141.432 203.62L158.008 203.568L158.06 220.172L141.484 220.224L141.432 203.62Z" fill="#1BA8BB"/>
<path fill-rule="evenodd" clip-rule="evenodd" d="M170.95 177.174L260.935 176.892C262.454 176.886 263.701 178.13 263.704 179.649C263.71 181.171 262.472 182.42 260.949 182.426L170.965 182.708C169.445 182.714 168.198 181.47 168.195 179.951C168.192 178.426 169.431 177.177 170.95 177.174ZM171.371 311.973L261.355 311.692C262.875 311.686 264.122 312.929 264.125 314.448C264.128 315.971 262.889 317.22 261.37 317.226L171.388 317.507C169.869 317.51 168.622 316.27 168.619 314.748C168.613 313.228 169.851 311.979 171.371 311.973ZM171.403 321.833L225.447 321.661C226.967 321.658 228.214 322.899 228.22 324.421C228.223 325.943 226.984 327.192 225.465 327.198L171.42 327.367C169.901 327.372 168.654 326.129 168.648 324.61C168.645 323.088 169.883 321.839 171.403 321.833ZM171.287 285.013L261.271 284.731C262.791 284.728 264.038 285.969 264.043 287.491C264.049 289.013 262.811 290.262 261.291 290.265L171.307 290.547C169.787 290.553 168.54 289.312 168.535 287.79V287.787C168.529 286.268 169.767 285.019 171.287 285.013ZM171.319 294.872L225.363 294.704C226.883 294.698 228.13 295.941 228.136 297.461C228.141 298.983 226.903 300.232 225.383 300.238L171.339 300.406C169.819 300.412 168.572 299.172 168.569 297.646C168.558 296.127 169.799 294.878 171.319 294.872ZM171.203 258.052L261.187 257.771C262.707 257.765 263.954 259.008 263.956 260.527C263.962 262.05 262.721 263.299 261.204 263.305L171.223 263.586C169.703 263.589 168.456 262.349 168.451 260.827C168.445 259.307 169.683 258.058 171.203 258.052ZM171.235 267.912L225.279 267.743C226.799 267.74 228.046 268.981 228.051 270.503C228.057 272.025 226.816 273.274 225.299 273.277L171.255 273.446C169.735 273.451 168.488 272.208 168.482 270.689V270.686C168.474 269.167 169.715 267.918 171.235 267.912ZM171.119 231.092L261.1 230.81C262.62 230.804 263.867 232.048 263.872 233.567V233.57C263.878 235.092 262.637 236.341 261.12 236.347L171.136 236.629C169.616 236.635 168.369 235.391 168.364 233.872V233.869C168.361 232.347 169.599 231.098 171.119 231.092ZM171.15 240.954L225.195 240.783C226.715 240.78 227.962 242.02 227.964 243.542C227.97 245.065 226.732 246.314 225.212 246.32L171.168 246.491C169.648 246.494 168.401 245.253 168.395 243.731C168.39 242.206 169.631 240.957 171.15 240.954ZM171.034 204.134L261.019 203.85C262.538 203.847 263.785 205.087 263.791 206.609C263.797 208.132 262.556 209.381 261.039 209.386L171.055 209.671C169.535 209.674 168.288 208.434 168.282 206.911C168.277 205.386 169.515 204.137 171.034 204.134ZM171.066 213.991L225.111 213.822C226.63 213.816 227.877 215.057 227.88 216.579V216.582C227.886 218.104 226.645 219.353 225.128 219.359L171.084 219.528C169.564 219.533 168.317 218.29 168.311 216.771C168.306 215.246 169.544 213.997 171.066 213.991ZM170.982 187.033L225.027 186.862C226.546 186.859 227.793 188.099 227.799 189.621C227.802 191.144 226.564 192.393 225.044 192.399L171 192.57C169.48 192.573 168.233 191.332 168.227 189.81C168.221 188.285 169.46 187.036 170.982 187.033Z" fill="#1BA8BB"/>
<path fill-rule="evenodd" clip-rule="evenodd" d="M175.427 143.227L265.411 142.945C266.928 142.94 268.178 144.183 268.184 145.702V145.705C268.187 147.227 266.948 148.476 265.429 148.482L175.444 148.764C173.928 148.77 172.678 147.526 172.672 146.007V146.004C172.669 144.482 173.907 143.233 175.427 143.227ZM175.459 153.086L264.118 152.915C265.635 152.912 266.882 154.15 266.887 155.675C266.89 157.197 265.652 158.449 264.132 158.449L175.473 158.617C173.954 158.62 172.707 157.383 172.701 155.861C172.698 154.341 173.939 153.089 175.459 153.086Z" fill="#1BA8BB"/>
<path fill-rule="evenodd" clip-rule="evenodd" d="M187.205 105.547H218.272C218.986 105.547 219.563 106.125 219.563 106.84V107.331C219.563 108.046 218.986 108.624 218.272 108.624H187.205C186.491 108.624 185.914 108.046 185.914 107.331V106.84C185.914 106.125 186.491 105.547 187.205 105.547Z" fill="#0D7685"/>
<path fill-rule="evenodd" clip-rule="evenodd" d="M187.205 112.092H218.272C218.986 112.092 219.563 112.67 219.563 113.385V113.876C219.563 114.591 218.986 115.169 218.272 115.169H187.205C186.491 115.169 185.914 114.591 185.914 113.876V113.385C185.914 112.67 186.491 112.092 187.205 112.092Z" fill="#0D7685"/>
<path fill-rule="evenodd" clip-rule="evenodd" d="M238.323 111.218C238.323 114.523 235.649 117.202 232.349 117.202C229.052 117.202 226.375 114.523 226.375 111.218C226.375 107.912 229.049 105.233 232.349 105.233C235.649 105.233 238.323 107.912 238.323 111.218Z" fill="#0D7685"/>
<path fill-rule="evenodd" clip-rule="evenodd" d="M179.944 111.697C179.944 115.003 177.27 117.681 173.97 117.681C170.673 117.681 167.996 115.003 167.996 111.697C167.996 108.391 170.67 105.713 173.97 105.713C177.27 105.713 179.944 108.391 179.944 111.697Z" fill="#0D7685"/>
<path d="M335.876 333.587L330.34 339.133L335.876 344.679L341.413 339.133L335.876 333.587Z" fill="#BB5D59"/>
<path d="M335.878 336.722L333.5 339.105L335.879 341.488L338.257 339.105L335.878 336.722Z" fill="#E69F83"/>
<path fill-rule="evenodd" clip-rule="evenodd" d="M329.14 268.045C329.14 268.045 330.973 245.178 316 240.193C316.003 240.19 318.152 252.126 329.14 268.045Z" fill="#18D1DD"/>
<path fill-rule="evenodd" clip-rule="evenodd" d="M340.133 265.549C340.133 265.549 353.714 256.236 368.266 267.008C368.266 267.008 366.708 256.997 355.271 255.551C343.833 254.104 340.133 265.549 340.133 265.549Z" fill="#BADAF9"/>
<path fill-rule="evenodd" clip-rule="evenodd" d="M327.137 302.35C327.137 302.35 327.566 293.928 321.682 289.806C313.588 284.136 307.66 290.376 307.66 290.376C307.66 290.376 321.954 293.045 327.137 302.35Z" fill="#18D1DD"/>
<path fill-rule="evenodd" clip-rule="evenodd" d="M338.82 299.549C338.82 299.549 343.533 287.255 354.286 291.517C354.283 291.517 349.002 294.866 338.82 299.549Z" fill="#18D1DD"/>
<path fill-rule="evenodd" clip-rule="evenodd" d="M338.629 320.38C338.629 320.38 344.136 313.859 350.33 316.79C350.333 316.793 349.991 320.014 338.629 320.38Z" fill="#18D1DD"/>
<path fill-rule="evenodd" clip-rule="evenodd" d="M325.221 319.095C325.221 319.095 320.354 312.222 314.728 315.571C314.728 315.571 314.348 316.521 318.377 317.018C322.405 317.512 325.221 319.095 325.221 319.095Z" fill="#C2DEF9"/>
<path fill-rule="evenodd" clip-rule="evenodd" d="M347.352 276.742C347.352 276.742 355.158 269.25 363.821 276.521C363.824 276.521 355.277 277.384 347.352 276.742Z" fill="#18D1DD"/>
<path fill-rule="evenodd" clip-rule="evenodd" d="M339.387 278.842C339.387 278.842 339.007 271.763 345.164 270.354C345.164 270.354 344.022 276.332 339.387 278.842Z" fill="#18D1DD"/>
<path fill-rule="evenodd" clip-rule="evenodd" d="M342.625 282.102C342.625 282.102 348.242 278.54 354.666 283.449C354.663 283.449 349.736 285.474 342.625 282.102Z" fill="#C2DEF9"/>
<path fill-rule="evenodd" clip-rule="evenodd" d="M319.652 272.411C319.652 272.411 314.768 262.247 302.875 266.395C302.875 266.398 307.55 272.033 319.652 272.411Z" fill="#1BA8BB"/>
<path fill-rule="evenodd" clip-rule="evenodd" d="M326.503 276.707C326.503 276.707 329.36 271.879 325.14 266.627C325.14 266.624 322.582 272.056 326.503 276.707Z" fill="#1BA8BB"/>
<path fill-rule="evenodd" clip-rule="evenodd" d="M322.137 280.1C322.137 280.1 313.817 274.735 305.723 280.635C305.723 280.632 312.981 285.504 322.137 280.1Z" fill="#BADAF9"/>
<path fill-rule="evenodd" clip-rule="evenodd" d="M334.121 274.505C334.121 274.505 329.583 266.435 336.461 260.347C336.461 260.344 338.622 266.854 334.121 274.505Z" fill="#1BA8BB"/>
<path fill-rule="evenodd" clip-rule="evenodd" d="M332.282 260.84C332.282 260.84 331.218 244.892 344.367 240.974C344.367 240.971 341.821 252.39 332.282 260.84Z" fill="#BADAF9"/>
<path fill-rule="evenodd" clip-rule="evenodd" d="M321.961 270.833C321.961 270.833 325.105 263.124 321.648 257.262C321.645 257.262 316.843 263.661 321.961 270.833Z" fill="#C2DEF9"/>
<path fill-rule="evenodd" clip-rule="evenodd" d="M336.945 307.721C336.945 307.721 340.15 300.159 350.903 303.317C350.903 303.317 348.218 307.48 336.945 307.721Z" fill="#18D1DD"/>
<path fill-rule="evenodd" clip-rule="evenodd" d="M335.347 301.37C335.347 301.37 332.284 293.08 338.708 288.777C338.705 288.777 340.459 294.552 335.347 301.37Z" fill="#1BA8BB"/>
<path fill-rule="evenodd" clip-rule="evenodd" d="M322.402 309.542C322.402 309.542 318.267 301.338 308.578 305.143C308.575 305.143 312.667 310.515 322.402 309.542Z" fill="#1BA8BB"/>
<path fill-rule="evenodd" clip-rule="evenodd" d="M326.016 309.835C326.016 309.835 324.154 306.398 319.633 302.401C319.633 302.404 325.711 300.292 326.016 309.835Z" fill="#C2DEF9"/>
<path fill-rule="evenodd" clip-rule="evenodd" d="M334.906 319.035C334.906 319.035 334.982 311.308 343.151 310.623C343.151 310.625 342.278 315.724 334.906 319.035Z" fill="#1BA8BB"/>
<path fill-rule="evenodd" clip-rule="evenodd" d="M327.092 330.291C327.092 330.291 324.917 323.717 316.48 325.846C316.478 325.846 318.4 330.471 327.092 330.291Z" fill="#1BA8BB"/>
<path fill-rule="evenodd" clip-rule="evenodd" d="M335.629 331.215C335.629 331.215 337.415 324.935 344.863 325.737C344.863 325.734 344.37 330.948 335.629 331.215Z" fill="#1BA8BB"/>
<path fill-rule="evenodd" clip-rule="evenodd" d="M363.092 261.558C363.075 261.547 361.213 260.266 358.452 259.304C356.831 258.741 355.219 258.392 353.662 258.273C351.71 258.122 349.839 258.334 348.102 258.894C342.9 260.576 338.872 265.358 336.131 273.105C335.595 274.622 335.113 276.28 334.687 278.076C334.577 277.294 334.429 276.031 334.353 274.5C334.234 272.097 334.269 268.524 335.128 265.149C335.154 265.047 335.093 264.943 334.991 264.916C334.89 264.89 334.785 264.951 334.759 265.053C333.889 268.478 333.852 272.092 333.973 274.517C334.104 277.146 334.446 278.994 334.449 279.014L334.464 279.055C333.469 283.566 332.808 288.891 332.492 294.965C332.173 301.091 332.199 307.988 332.573 315.514C332.535 315.735 332.5 315.959 332.463 316.182C331.654 321.339 331.549 326.3 331.607 329.551C331.668 333.074 331.923 335.413 331.926 335.439C331.938 335.538 332.019 335.607 332.115 335.607L332.135 335.605C332.239 335.593 332.315 335.5 332.303 335.395C332.3 335.372 332.048 333.051 331.987 329.542C331.935 326.544 332.019 322.091 332.671 317.373C332.709 318.076 332.753 318.785 332.799 319.5C333.005 322.733 333.257 325.841 333.527 328.74C333.312 329.896 333.196 331.125 333.179 332.409C333.141 335.294 333.631 337.49 333.637 337.513C333.657 337.603 333.736 337.661 333.823 337.661L333.863 337.655C333.965 337.632 334.029 337.53 334.005 337.426C334 337.406 333.521 335.253 333.556 332.412C333.565 331.779 333.599 331.082 333.678 330.344C333.785 331.442 333.895 332.505 334.005 333.528C333.831 333.894 333.744 334.126 333.736 334.149C333.701 334.248 333.75 334.355 333.849 334.393C333.872 334.402 333.892 334.405 333.916 334.405C333.988 334.405 334.058 334.361 334.09 334.292C334.968 342.315 335.841 347.712 335.856 347.796C335.87 347.889 335.951 347.956 336.044 347.956L336.076 347.953C336.18 347.936 336.25 347.84 336.233 347.735C336.218 347.651 335.299 341.969 334.397 333.6C334.675 333.031 335.157 332.171 335.879 331.27C337.03 329.838 339.037 328.017 342.082 327.477C342.186 327.459 342.253 327.36 342.236 327.256C342.218 327.151 342.12 327.084 342.015 327.102C340.62 327.352 339.315 327.875 338.138 328.665C337.198 329.295 336.34 330.091 335.583 331.035C335.032 331.724 334.617 332.383 334.324 332.918C334.185 331.596 334.046 330.21 333.91 328.775C334.269 326.869 334.962 324.836 336.236 323.07C338.353 320.13 341.69 318.419 346.151 317.986C346.255 317.975 346.33 317.882 346.322 317.777C346.31 317.673 346.217 317.597 346.116 317.606C341.54 318.05 338.115 319.813 335.928 322.846C334.974 324.174 334.258 325.745 333.797 327.526C333.744 326.942 333.692 326.349 333.643 325.751C333.663 325.722 333.678 325.684 333.681 325.647C333.681 325.623 333.756 323.445 334.466 320.903C335.119 318.57 336.453 315.447 339.109 313.829C339.199 313.774 339.228 313.658 339.173 313.568C339.118 313.478 339.002 313.449 338.912 313.504C337.691 314.248 336.633 315.354 335.774 316.789C335.09 317.931 334.527 319.279 334.101 320.804C333.791 321.911 333.602 322.951 333.483 323.782C333.373 322.378 333.272 320.941 333.179 319.476C333.098 318.201 333.022 316.885 332.956 315.534C333.179 314.216 333.457 312.853 333.802 311.482C333.939 311.25 334.713 309.989 336.154 308.624C337.622 307.235 340.098 305.457 343.567 304.876C343.671 304.859 343.741 304.76 343.723 304.659C343.706 304.554 343.607 304.484 343.503 304.502C341.931 304.766 340.423 305.289 339.025 306.056C337.906 306.672 336.853 307.441 335.893 308.348C335.096 309.103 334.501 309.818 334.098 310.361C336.192 302.823 340.391 295.232 348.769 292.937C348.871 292.908 348.932 292.804 348.903 292.705C348.877 292.603 348.769 292.542 348.668 292.571C343.894 293.878 340.046 296.955 337.224 301.719C336.679 302.637 336.175 303.619 335.708 304.661C335.522 303.104 335.139 298.413 336.641 294.637C336.679 294.538 336.633 294.427 336.534 294.39C336.436 294.352 336.325 294.398 336.288 294.497C335.316 296.943 335.125 299.738 335.139 301.652C335.154 303.723 335.4 305.239 335.403 305.254C335.406 305.274 335.415 305.295 335.424 305.312C334.356 307.831 333.507 310.689 332.877 313.855C332.584 307.017 332.532 299.438 333.057 292.217C333.086 292.196 333.115 292.162 333.138 292.109C333.144 292.092 333.156 292.069 333.167 292.037C333.71 290.712 335.444 286.907 338.724 283.252L338.747 283.241C338.761 283.235 340.107 282.636 342.25 282.296C344.225 281.986 347.299 281.838 350.733 282.907C350.831 282.938 350.939 282.88 350.97 282.782C351.002 282.68 350.944 282.575 350.846 282.543C347.337 281.451 344.196 281.605 342.178 281.925C340.907 282.125 339.921 282.413 339.31 282.622C342.987 278.77 348.43 275.267 356.072 275.267C356.109 275.267 356.147 275.267 356.185 275.267H356.188C356.292 275.267 356.376 275.182 356.379 275.078C356.379 274.973 356.295 274.886 356.19 274.886C352.441 274.869 348.914 275.688 345.707 277.323C343.245 278.575 340.963 280.312 338.909 282.488C338.967 281.93 339.098 281.018 339.373 279.923C339.794 278.247 340.652 275.787 342.357 273.596C342.421 273.512 342.407 273.393 342.326 273.329C342.241 273.265 342.123 273.28 342.059 273.361C340.31 275.609 339.431 278.125 339.005 279.842C338.614 281.405 338.515 282.581 338.492 282.947C335.647 286.096 333.95 289.355 333.144 291.145C333.678 284.545 334.71 278.294 336.499 273.239C339.199 265.611 343.143 260.908 348.227 259.263C352.058 258.023 355.834 258.799 358.328 259.664C361.042 260.605 362.869 261.863 362.887 261.875C362.974 261.936 363.092 261.913 363.15 261.828C363.2 261.738 363.179 261.619 363.092 261.558Z" fill="#11A1B6"/>
<path fill-rule="evenodd" clip-rule="evenodd" d="M331.372 297.686C331.369 296.234 331.351 294.805 331.325 293.402C331.334 293.378 331.337 293.352 331.334 293.326C331.334 293.317 331.331 293.271 331.322 293.192C331.198 286.871 330.85 281.064 330.284 275.821C330.267 275.324 330.194 271.972 330.972 267.449C331.746 262.943 333.544 256.329 337.726 250.4C337.787 250.316 337.766 250.197 337.679 250.136C337.592 250.075 337.473 250.095 337.415 250.182C335.551 252.826 333.996 255.824 332.796 259.092C331.836 261.703 331.096 264.495 330.6 267.385C330.218 269.616 330.041 271.565 329.959 273.035C329.722 271.179 329.455 269.398 329.156 267.699C328.304 262.819 327.193 258.56 325.859 255.033C324.386 251.144 322.602 248.05 320.558 245.842C320.485 245.764 320.366 245.761 320.288 245.831C320.21 245.903 320.207 246.022 320.276 246.101C324.133 250.266 326.996 257.555 328.782 267.763C329.223 270.281 329.6 272.98 329.907 275.847C329.907 275.879 329.91 275.899 329.91 275.902C329.91 275.92 329.916 275.934 329.919 275.949C330.4 280.417 330.719 285.294 330.879 290.552C330.847 290.401 330.812 290.247 330.774 290.087C330.354 288.289 329.545 285.523 328.069 282.557C328.005 282.43 327.941 282.302 327.874 282.174C327.561 280.867 326.349 275.635 326.056 271.286C326.05 271.182 325.957 271.103 325.853 271.109C325.749 271.115 325.67 271.208 325.676 271.313C325.908 274.752 326.709 278.732 327.196 280.922C326.131 279.057 324.905 277.346 323.527 275.804C323.379 275.359 321.561 269.834 321.346 264.747C321.344 264.643 321.254 264.562 321.149 264.564C321.045 264.567 320.964 264.657 320.967 264.762C321.143 268.919 322.376 273.358 322.921 275.144C322.524 274.726 322.115 274.322 321.694 273.93C318.478 270.941 314.584 268.753 310.118 267.426C310.016 267.397 309.912 267.455 309.883 267.554C309.854 267.655 309.909 267.76 310.01 267.789C319.557 270.627 324.696 276.963 327.378 282.032C326.775 281.657 325.647 281.035 324.009 280.48C322.541 279.984 320.972 279.647 319.343 279.478C317.307 279.269 315.175 279.321 313 279.635C312.896 279.65 312.823 279.746 312.841 279.85C312.855 279.955 312.951 280.027 313.055 280.013C317.895 279.313 321.607 280.074 323.869 280.835C326.32 281.663 327.642 282.668 327.657 282.677L327.744 282.746C330.27 287.833 330.861 292.388 330.951 293.218C330.98 294.677 330.998 296.164 331.003 297.678C331.027 305.041 330.763 312.129 330.418 318.143C330.299 316.652 330.139 315.122 329.93 313.582C329.049 307.057 327.468 301.724 325.235 297.727C322.431 292.701 318.583 289.785 313.798 289.056C313.693 289.041 313.598 289.111 313.58 289.216C313.566 289.32 313.635 289.416 313.74 289.433C318.403 290.145 322.158 292.998 324.902 297.913C327.109 301.866 328.675 307.153 329.551 313.628C329.736 315.008 329.884 316.379 329.997 317.721C329.536 316.774 328.675 315.244 327.286 313.588C327.164 313.443 327.039 313.297 326.912 313.155C326.917 313.137 326.92 313.117 326.92 313.094C326.917 313.039 326.842 311.766 326.392 310.102C325.978 308.559 325.151 306.392 323.571 304.809C323.495 304.736 323.376 304.736 323.301 304.809C323.226 304.885 323.226 305.004 323.301 305.079C324.821 306.601 325.618 308.702 326.021 310.195C326.311 311.273 326.442 312.202 326.5 312.708C325.38 311.517 324.136 310.471 322.791 309.593C320.703 308.234 318.362 307.272 315.836 306.738C315.735 306.715 315.633 306.782 315.61 306.886C315.59 306.988 315.654 307.089 315.758 307.11C321.37 308.298 324.96 311.415 326.984 313.823C329.179 316.437 330.058 318.802 330.067 318.825L330.087 318.863C330.145 319.65 330.191 320.426 330.229 321.181C329.858 326.875 329.446 331.322 329.205 333.69C329.217 333.533 329.226 333.376 329.234 333.213C329.24 333.193 329.24 333.17 329.237 333.147C329.261 332.711 329.275 332.252 329.281 331.781C329.307 329.698 329.133 327.752 328.768 326.003C328.306 323.807 327.538 321.913 326.482 320.371C324.612 317.634 321.825 315.973 318.2 315.432C318.096 315.418 318 315.488 317.985 315.592C317.971 315.697 318.04 315.793 318.145 315.807C321.66 316.33 324.36 317.936 326.169 320.583C328.498 323.987 328.942 328.545 328.901 331.767C328.898 331.982 328.895 332.194 328.886 332.403C328.602 331.886 328.132 331.133 327.436 330.355C326.709 329.542 325.882 328.87 324.983 328.359C323.858 327.72 322.614 327.334 321.288 327.209C321.184 327.197 321.091 327.276 321.083 327.38C321.071 327.485 321.149 327.578 321.254 327.587C324.13 327.857 326.047 329.373 327.146 330.599C328.222 331.796 328.753 332.958 328.855 333.193C328.701 335.988 328.254 338.006 328.248 338.033C328.225 338.134 328.289 338.239 328.393 338.262L328.434 338.268C328.521 338.268 328.599 338.207 328.62 338.12C328.623 338.105 328.834 337.158 329.017 335.668C329.04 335.735 329.098 335.784 329.174 335.793H329.197C329.292 335.793 329.374 335.723 329.385 335.624C329.394 335.54 329.867 331.404 330.351 324.931C330.371 326.361 330.365 327.665 330.342 328.792C330.264 332.839 329.997 335.555 329.997 335.584C329.986 335.688 330.064 335.781 330.168 335.793H330.186C330.281 335.793 330.365 335.72 330.374 335.622C330.377 335.595 330.644 332.868 330.722 328.807C330.763 326.747 330.757 324.106 330.612 321.181C331.032 314.596 331.401 306.331 331.372 297.686Z" fill="#11A1B6"/>
<path fill-rule="evenodd" clip-rule="evenodd" d="M344.391 337.304C344.391 338.111 344.379 338.91 344.362 339.703C344.341 340.47 344.312 341.234 344.275 341.986C344.228 342.899 344.17 343.802 344.098 344.691C343.886 347.334 343.561 349.868 343.138 352.25C342.43 356.241 341.447 359.808 340.258 362.768C339.87 363.736 339.458 364.639 339.026 365.47C338.976 365.563 338.927 365.656 338.878 365.749C338.498 366.46 338.104 367.117 337.695 367.715H325.619C325.158 367.041 324.714 366.292 324.288 365.47C323.856 364.639 323.444 363.736 323.055 362.768C321.156 358.042 319.784 351.77 319.216 344.691C319.143 343.802 319.085 342.899 319.042 341.986C319.004 341.234 318.975 340.47 318.955 339.703C318.934 338.91 318.926 338.111 318.926 337.304C318.926 337.202 318.926 337.1 318.926 336.999C318.929 335.831 318.955 334.675 318.998 333.533H344.31C344.356 334.672 344.379 335.828 344.385 336.999C344.391 337.1 344.391 337.205 344.391 337.304Z" fill="#1BA8BB"/>
<path fill-rule="evenodd" clip-rule="evenodd" d="M344.392 337.304C344.392 338.112 344.38 338.91 344.36 339.704H318.959C318.938 338.91 318.93 338.112 318.93 337.304C318.93 337.202 318.93 337.101 318.93 336.999H344.389C344.389 337.101 344.392 337.205 344.392 337.304Z" fill="#18D1DD"/>
<path fill-rule="evenodd" clip-rule="evenodd" d="M344.272 341.986C344.226 342.898 344.168 343.802 344.095 344.691H319.216C319.146 343.802 319.085 342.898 319.039 341.986H344.272Z" fill="#18D1DD"/>
<path fill-rule="evenodd" clip-rule="evenodd" d="M340.259 362.769C339.87 363.736 339.458 364.639 339.026 365.47H324.291C323.859 364.639 323.447 363.736 323.059 362.769H340.259Z" fill="#0D7685"/>
<path fill-rule="evenodd" clip-rule="evenodd" d="M340.698 352.444C334.849 352.444 331.154 348.842 328.84 344.688H344.1C343.981 346.181 343.824 347.634 343.636 349.048C343.491 350.141 343.325 351.207 343.14 352.247C342.284 352.383 341.472 352.444 340.698 352.444Z" fill="#C2DEF9"/>
<path fill-rule="evenodd" clip-rule="evenodd" d="M344.271 341.987H327.535C327.216 341.217 326.935 340.447 326.691 339.704H344.355C344.361 339.5 344.367 339.294 344.37 339.091C344.367 339.294 344.361 339.5 344.358 339.704C344.338 340.471 344.309 341.235 344.271 341.987ZM344.387 337.002H325.923C325.575 335.579 325.36 334.365 325.238 333.537H344.312C344.358 334.675 344.384 335.831 344.387 337.002Z" fill="#C2DEF9"/>
<path fill-rule="evenodd" clip-rule="evenodd" d="M344.361 339.704H326.697C326.387 338.757 326.132 337.841 325.926 337.002H344.39C344.39 337.011 344.39 337.022 344.39 337.034C344.39 337.124 344.39 337.214 344.39 337.304C344.39 337.905 344.384 338.498 344.373 339.091C344.37 339.294 344.367 339.5 344.361 339.704Z" fill="#0D7685"/>
<path fill-rule="evenodd" clip-rule="evenodd" d="M344.098 344.691H328.838C328.345 343.802 327.913 342.893 327.539 341.986H344.275C344.261 342.306 344.24 342.625 344.223 342.945C344.185 343.532 344.145 344.113 344.098 344.691Z" fill="#0D7685"/>
<path fill-rule="evenodd" clip-rule="evenodd" d="M337.696 367.716H325.62C325.159 367.042 324.715 366.292 324.289 365.47H338.145C338.386 365.569 338.629 365.662 338.879 365.749C338.499 366.461 338.105 367.117 337.696 367.716ZM323.059 362.769C321.16 358.042 319.788 351.771 319.22 344.691H323.573C325.142 351.074 328.079 358.347 333.578 362.769H323.059ZM322.975 341.987H319.046C319.008 341.235 318.979 340.471 318.959 339.704H322.563C322.682 340.433 322.819 341.2 322.975 341.987ZM318.93 337.304C318.93 337.203 318.93 337.101 318.93 336.999C318.93 337.101 318.93 337.206 318.93 337.304ZM322.183 337.002H318.93C318.933 335.834 318.959 334.678 319.002 333.537H321.859C321.917 334.42 322.015 335.605 322.183 337.002Z" fill="#18D1DD"/>
<path fill-rule="evenodd" clip-rule="evenodd" d="M322.563 339.704H318.959C318.938 338.91 318.93 338.112 318.93 337.304C318.93 337.202 318.93 337.101 318.93 336.999H322.183C322.285 337.833 322.41 338.739 322.563 339.704Z" fill="#11A1B6"/>
<path fill-rule="evenodd" clip-rule="evenodd" d="M323.573 344.691H319.22C319.176 344.153 319.139 343.61 319.104 343.064C319.081 342.707 319.063 342.347 319.043 341.986H322.972C323.149 342.861 323.347 343.764 323.573 344.691Z" fill="#11A1B6"/>
<path fill-rule="evenodd" clip-rule="evenodd" d="M338.147 365.47H324.291C323.96 364.831 323.641 364.151 323.334 363.434C323.241 363.216 323.148 362.995 323.059 362.769H333.577C334.937 363.861 336.457 364.782 338.147 365.47Z" fill="#11A1B6"/>
<path fill-rule="evenodd" clip-rule="evenodd" d="M1.3804 119.192H49.3175C50.0802 119.192 50.695 118.573 50.695 117.812C50.695 117.048 50.0773 116.432 49.3175 116.432H1.3804C0.617702 116.432 0 117.051 0 117.812C0 118.573 0.614802 119.192 1.3804 119.192ZM69.8612 107.758H75.5684C76.3282 107.758 76.9459 107.139 76.9459 106.375C76.9488 105.611 76.3282 104.996 75.5655 104.996H69.8583C69.0985 104.996 68.4808 105.614 68.4808 106.375C68.4837 107.139 69.0985 107.758 69.8612 107.758ZM60.732 119.192H65.2966C66.0564 119.192 66.6741 118.573 66.6741 117.812C66.6741 117.048 66.0564 116.432 65.2937 116.432H60.7291C59.9664 116.432 59.3486 117.051 59.3486 117.812C59.3515 118.573 59.9664 119.192 60.732 119.192ZM10.5096 107.758H60.732C61.4918 107.758 62.1095 107.139 62.1095 106.375C62.1095 105.611 61.4918 104.996 60.7291 104.996H10.5067C9.74692 104.996 9.12632 105.614 9.12632 106.375C9.12922 107.139 9.74693 107.758 10.5096 107.758Z" fill="#1BA8BB"/>
<path fill-rule="evenodd" clip-rule="evenodd" d="M205.099 52.2881H253.036C253.799 52.2881 254.417 51.6693 254.417 50.9083C254.417 50.1443 253.799 49.5284 253.036 49.5284H205.099C204.336 49.5284 203.719 50.1472 203.719 50.9083C203.719 51.6693 204.334 52.2881 205.099 52.2881ZM273.58 40.8543H279.287C280.047 40.8543 280.665 40.2356 280.665 39.4716C280.668 38.7076 280.047 38.0918 279.284 38.0918L273.577 38.0889C272.817 38.0889 272.197 38.7076 272.197 39.4716C272.202 40.2385 272.82 40.8543 273.58 40.8543ZM264.451 52.2881H269.015C269.775 52.2881 270.393 51.6693 270.393 50.9083C270.393 50.1443 269.775 49.5284 269.012 49.5284H264.448C263.685 49.5284 263.067 50.1472 263.067 50.9083C263.073 51.6693 263.685 52.2881 264.451 52.2881ZM214.228 40.8543H264.451C265.211 40.8543 265.828 40.2356 265.828 39.4716C265.828 38.7076 265.211 38.0918 264.451 38.0918L214.228 38.0889C213.469 38.0889 212.848 38.7076 212.848 39.4716C212.848 40.2385 213.466 40.8543 214.228 40.8543Z" fill="#1BA8BB"/>
<path fill-rule="evenodd" clip-rule="evenodd" d="M308.298 199.105H356.236C356.998 199.105 357.616 198.487 357.616 197.726C357.616 196.962 356.998 196.346 356.236 196.346H308.298C307.536 196.346 306.918 196.965 306.918 197.726C306.921 198.487 307.536 199.105 308.298 199.105ZM376.782 187.675H382.489C383.249 187.675 383.867 187.056 383.867 186.292C383.87 185.528 383.249 184.912 382.486 184.912L376.779 184.909C376.019 184.909 375.399 185.528 375.399 186.292C375.405 187.056 376.019 187.675 376.782 187.675ZM367.653 199.105H372.217C372.977 199.105 373.595 198.487 373.595 197.726C373.595 196.962 372.977 196.346 372.215 196.346H367.65C366.887 196.346 366.27 196.965 366.27 197.726C366.272 198.487 366.887 199.105 367.653 199.105ZM317.43 187.675H367.653C368.413 187.675 369.03 187.056 369.03 186.292C369.03 185.528 368.413 184.912 367.65 184.912L317.428 184.909C316.668 184.909 316.05 185.528 316.05 186.292C316.05 187.056 316.668 187.675 317.43 187.675Z" fill="#1BA8BB"/>
<path fill-rule="evenodd" clip-rule="evenodd" d="M108.884 39.7051C108.432 45.9274 107.516 46.7873 101.594 47.2666C107.516 47.7459 108.432 48.6028 108.884 54.8281C109.337 48.6057 110.253 47.7459 116.175 47.2666C110.253 46.7844 109.337 45.9274 108.884 39.7051ZM132.96 56.1178C132.72 59.4411 132.229 59.8971 129.068 60.1528C132.229 60.4084 132.72 60.8674 132.96 64.1906C133.201 60.8674 133.691 60.4084 136.855 60.1528C133.691 59.8971 133.201 59.4382 132.96 56.1178ZM122.416 30.5459C122.172 33.9098 121.676 34.3746 118.475 34.6331C121.676 34.8916 122.172 35.3564 122.416 38.7203C122.659 35.3564 123.155 34.8916 126.36 34.6331C123.158 34.3775 122.662 33.9127 122.416 30.5459Z" fill="white"/>
<path fill-rule="evenodd" clip-rule="evenodd" d="M69.6539 233.546C69.2015 239.769 68.2851 240.629 62.3633 241.108C68.2851 241.587 69.2015 242.444 69.6539 248.669C70.1063 242.447 71.0227 241.587 76.9445 241.108C71.0227 240.629 70.1063 239.769 69.6539 233.546ZM93.7298 249.959C93.4891 253.282 92.999 253.738 89.838 253.994C92.999 254.25 93.4891 254.709 93.7298 258.032C93.9705 254.709 94.4606 254.25 97.6245 253.994C94.4606 253.738 93.9734 253.279 93.7298 249.959ZM83.1882 224.387C82.9446 227.751 82.4487 228.216 79.2471 228.474C82.4487 228.733 82.9446 229.198 83.1882 232.562C83.4318 229.198 83.9277 228.733 87.1322 228.474C83.9277 228.219 83.4318 227.754 83.1882 224.387Z" fill="white"/>
<path fill-rule="evenodd" clip-rule="evenodd" d="M325.951 215.001C325.498 221.223 324.582 222.083 318.66 222.562C324.582 223.042 325.498 223.899 325.951 230.124C326.403 223.902 327.32 223.042 333.241 222.562C327.32 222.083 326.403 221.223 325.951 215.001ZM350.027 231.414C349.786 234.737 349.296 235.193 346.135 235.449C349.296 235.704 349.786 236.163 350.027 239.487C350.267 236.163 350.757 235.704 353.921 235.449C350.757 235.193 350.267 234.734 350.027 231.414ZM339.482 205.842C339.239 209.206 338.743 209.67 335.541 209.929C338.743 210.188 339.239 210.652 339.482 214.016C339.726 210.652 340.222 210.188 343.426 209.929C340.222 209.673 339.726 209.209 339.482 205.842Z" fill="white"/>
</g>
<path d="M91.1738 452.099C91.1738 452.333 91.1328 452.532 91.0508 452.696C90.9805 452.86 90.8809 452.995 90.752 453.101C90.6348 453.206 90.5 453.282 90.3477 453.329C90.1953 453.376 90.043 453.399 89.8906 453.399H88.9238C88.6191 453.399 88.3496 453.37 88.1152 453.312C87.8926 453.241 87.6758 453.124 87.4648 452.96C87.2656 452.784 87.0605 452.55 86.8496 452.257C86.6504 451.964 86.4277 451.589 86.1816 451.132L79.0098 438.194C78.6348 437.526 78.2539 436.829 77.8672 436.103C77.4922 435.364 77.1406 434.649 76.8125 433.958H76.7773C76.8008 434.802 76.8184 435.663 76.8301 436.542C76.8418 437.421 76.8477 438.294 76.8477 439.161V452.89C76.8477 452.972 76.8242 453.054 76.7773 453.136C76.7305 453.206 76.6484 453.265 76.5312 453.312C76.4258 453.347 76.2793 453.376 76.0918 453.399C75.916 453.435 75.6875 453.452 75.4062 453.452C75.125 453.452 74.8906 453.435 74.7031 453.399C74.5273 453.376 74.3867 453.347 74.2812 453.312C74.1758 453.265 74.0996 453.206 74.0527 453.136C74.0059 453.054 73.9824 452.972 73.9824 452.89V431.901C73.9824 431.433 74.1113 431.099 74.3691 430.899C74.627 430.7 74.9082 430.601 75.2129 430.601H76.6543C76.9941 430.601 77.2754 430.63 77.498 430.688C77.7324 430.747 77.9375 430.847 78.1133 430.987C78.3008 431.116 78.4766 431.304 78.6406 431.55C78.8164 431.784 79.0039 432.083 79.2031 432.446L84.7227 442.431C85.0625 443.04 85.3906 443.638 85.707 444.224C86.0234 444.798 86.3281 445.366 86.6211 445.929C86.9141 446.491 87.2012 447.048 87.4824 447.599C87.7754 448.138 88.0625 448.683 88.3438 449.233H88.3613C88.3379 448.308 88.3203 447.347 88.3086 446.351C88.3086 445.343 88.3086 444.376 88.3086 443.45V431.11C88.3086 431.028 88.332 430.952 88.3789 430.882C88.4258 430.812 88.502 430.753 88.6074 430.706C88.7246 430.647 88.8711 430.606 89.0469 430.583C89.2344 430.56 89.4746 430.548 89.7676 430.548C90.0254 430.548 90.248 430.56 90.4355 430.583C90.623 430.606 90.7695 430.647 90.875 430.706C90.9805 430.753 91.0566 430.812 91.1035 430.882C91.1504 430.952 91.1738 431.028 91.1738 431.11V452.099ZM111.6 444.821C111.6 446.11 111.43 447.3 111.09 448.39C110.75 449.468 110.24 450.399 109.561 451.185C108.893 451.97 108.049 452.585 107.029 453.03C106.021 453.464 104.85 453.681 103.514 453.681C102.213 453.681 101.076 453.487 100.104 453.101C99.1426 452.714 98.3398 452.151 97.6953 451.413C97.0508 450.675 96.5703 449.778 96.2539 448.724C95.9375 447.669 95.7793 446.474 95.7793 445.138C95.7793 443.849 95.9434 442.665 96.2715 441.587C96.6113 440.497 97.1152 439.56 97.7832 438.774C98.4629 437.989 99.3066 437.38 100.314 436.946C101.322 436.513 102.5 436.296 103.848 436.296C105.148 436.296 106.279 436.489 107.24 436.876C108.213 437.263 109.021 437.825 109.666 438.563C110.311 439.302 110.791 440.198 111.107 441.253C111.436 442.308 111.6 443.497 111.6 444.821ZM108.541 445.015C108.541 444.159 108.459 443.351 108.295 442.589C108.143 441.827 107.885 441.159 107.521 440.585C107.158 440.011 106.666 439.56 106.045 439.231C105.424 438.892 104.65 438.722 103.725 438.722C102.869 438.722 102.131 438.874 101.51 439.179C100.9 439.483 100.396 439.917 99.998 440.479C99.5996 441.03 99.3008 441.687 99.1016 442.448C98.9141 443.21 98.8203 444.042 98.8203 444.944C98.8203 445.812 98.8965 446.626 99.0488 447.388C99.2129 448.149 99.4766 448.817 99.8398 449.392C100.215 449.954 100.713 450.405 101.334 450.745C101.955 451.073 102.729 451.237 103.654 451.237C104.498 451.237 105.23 451.085 105.852 450.78C106.473 450.476 106.982 450.048 107.381 449.497C107.779 448.946 108.072 448.29 108.26 447.528C108.447 446.767 108.541 445.929 108.541 445.015ZM137.65 452.907C137.65 453.001 137.627 453.083 137.58 453.153C137.533 453.212 137.457 453.265 137.352 453.312C137.246 453.358 137.1 453.394 136.912 453.417C136.725 453.44 136.49 453.452 136.209 453.452C135.916 453.452 135.676 453.44 135.488 453.417C135.301 453.394 135.154 453.358 135.049 453.312C134.943 453.265 134.867 453.212 134.82 453.153C134.773 453.083 134.75 453.001 134.75 452.907V443.644C134.75 442.741 134.68 442.015 134.539 441.464C134.398 440.913 134.193 440.438 133.924 440.04C133.654 439.642 133.303 439.337 132.869 439.126C132.447 438.915 131.955 438.81 131.393 438.81C130.666 438.81 129.939 439.067 129.213 439.583C128.486 440.099 127.725 440.854 126.928 441.851V452.907C126.928 453.001 126.904 453.083 126.857 453.153C126.811 453.212 126.734 453.265 126.629 453.312C126.523 453.358 126.377 453.394 126.189 453.417C126.002 453.44 125.762 453.452 125.469 453.452C125.188 453.452 124.953 453.44 124.766 453.417C124.578 453.394 124.426 453.358 124.309 453.312C124.203 453.265 124.127 453.212 124.08 453.153C124.045 453.083 124.027 453.001 124.027 452.907V437.087C124.027 436.993 124.045 436.917 124.08 436.858C124.115 436.788 124.186 436.729 124.291 436.683C124.396 436.624 124.531 436.589 124.695 436.577C124.859 436.554 125.076 436.542 125.346 436.542C125.604 436.542 125.814 436.554 125.979 436.577C126.154 436.589 126.289 436.624 126.383 436.683C126.477 436.729 126.541 436.788 126.576 436.858C126.623 436.917 126.646 436.993 126.646 437.087V439.179C127.537 438.183 128.422 437.456 129.301 436.999C130.191 436.53 131.088 436.296 131.99 436.296C133.045 436.296 133.93 436.478 134.645 436.841C135.371 437.192 135.957 437.667 136.402 438.265C136.848 438.862 137.164 439.565 137.352 440.374C137.551 441.171 137.65 442.132 137.65 443.257V452.907ZM157.654 444.821C157.654 446.11 157.484 447.3 157.145 448.39C156.805 449.468 156.295 450.399 155.615 451.185C154.947 451.97 154.104 452.585 153.084 453.03C152.076 453.464 150.904 453.681 149.568 453.681C148.268 453.681 147.131 453.487 146.158 453.101C145.197 452.714 144.395 452.151 143.75 451.413C143.105 450.675 142.625 449.778 142.309 448.724C141.992 447.669 141.834 446.474 141.834 445.138C141.834 443.849 141.998 442.665 142.326 441.587C142.666 440.497 143.17 439.56 143.838 438.774C144.518 437.989 145.361 437.38 146.369 436.946C147.377 436.513 148.555 436.296 149.902 436.296C151.203 436.296 152.334 436.489 153.295 436.876C154.268 437.263 155.076 437.825 155.721 438.563C156.365 439.302 156.846 440.198 157.162 441.253C157.49 442.308 157.654 443.497 157.654 444.821ZM154.596 445.015C154.596 444.159 154.514 443.351 154.35 442.589C154.197 441.827 153.939 441.159 153.576 440.585C153.213 440.011 152.721 439.56 152.1 439.231C151.479 438.892 150.705 438.722 149.779 438.722C148.924 438.722 148.186 438.874 147.564 439.179C146.955 439.483 146.451 439.917 146.053 440.479C145.654 441.03 145.355 441.687 145.156 442.448C144.969 443.21 144.875 444.042 144.875 444.944C144.875 445.812 144.951 446.626 145.104 447.388C145.268 448.149 145.531 448.817 145.895 449.392C146.27 449.954 146.768 450.405 147.389 450.745C148.01 451.073 148.783 451.237 149.709 451.237C150.553 451.237 151.285 451.085 151.906 450.78C152.527 450.476 153.037 450.048 153.436 449.497C153.834 448.946 154.127 448.29 154.314 447.528C154.502 446.767 154.596 445.929 154.596 445.015ZM175.689 436.63C176.041 436.63 176.281 436.712 176.41 436.876C176.539 437.028 176.604 437.257 176.604 437.562V452.907C176.604 453.001 176.58 453.083 176.533 453.153C176.486 453.212 176.404 453.265 176.287 453.312C176.182 453.358 176.035 453.394 175.848 453.417C175.66 453.44 175.432 453.452 175.162 453.452C174.869 453.452 174.629 453.44 174.441 453.417C174.254 453.394 174.102 453.358 173.984 453.312C173.879 453.265 173.803 453.212 173.756 453.153C173.709 453.083 173.686 453.001 173.686 452.907V439.038H165.512V447.862C165.512 448.952 165.67 449.778 165.986 450.341C166.314 450.892 166.895 451.167 167.727 451.167C167.996 451.167 168.236 451.144 168.447 451.097C168.658 451.038 168.846 450.979 169.01 450.921C169.174 450.862 169.314 450.81 169.432 450.763C169.549 450.704 169.654 450.675 169.748 450.675C169.807 450.675 169.859 450.692 169.906 450.728C169.965 450.751 170.006 450.804 170.029 450.886C170.064 450.968 170.094 451.079 170.117 451.22C170.141 451.36 170.152 451.536 170.152 451.747C170.152 452.087 170.129 452.356 170.082 452.556C170.035 452.743 169.965 452.89 169.871 452.995C169.777 453.089 169.637 453.177 169.449 453.259C169.262 453.341 169.045 453.405 168.799 453.452C168.564 453.511 168.312 453.558 168.043 453.593C167.773 453.628 167.504 453.646 167.234 453.646C166.414 453.646 165.711 453.54 165.125 453.329C164.539 453.106 164.059 452.778 163.684 452.345C163.309 451.899 163.033 451.343 162.857 450.675C162.693 449.995 162.611 449.198 162.611 448.284V439.038H160.396C160.221 439.038 160.08 438.944 159.975 438.757C159.869 438.569 159.816 438.265 159.816 437.843C159.816 437.62 159.828 437.433 159.852 437.28C159.887 437.128 159.928 437.005 159.975 436.911C160.021 436.806 160.08 436.735 160.15 436.7C160.232 436.653 160.32 436.63 160.414 436.63H162.611V432.868C162.611 432.786 162.629 432.71 162.664 432.64C162.711 432.569 162.787 432.511 162.893 432.464C163.01 432.405 163.162 432.364 163.35 432.341C163.537 432.317 163.771 432.306 164.053 432.306C164.346 432.306 164.586 432.317 164.773 432.341C164.961 432.364 165.107 432.405 165.213 432.464C165.318 432.511 165.395 432.569 165.441 432.64C165.488 432.71 165.512 432.786 165.512 432.868V436.63H175.689ZM176.938 431.743C176.938 432.423 176.809 432.886 176.551 433.132C176.293 433.378 175.818 433.501 175.127 433.501C174.447 433.501 173.979 433.384 173.721 433.149C173.475 432.903 173.352 432.446 173.352 431.778C173.352 431.099 173.48 430.636 173.738 430.39C173.996 430.144 174.471 430.021 175.162 430.021C175.842 430.021 176.305 430.144 176.551 430.39C176.809 430.624 176.938 431.075 176.938 431.743ZM196.01 431.761C196.01 432.089 195.98 432.364 195.922 432.587C195.875 432.81 195.787 432.991 195.658 433.132C195.529 433.261 195.348 433.354 195.113 433.413C194.891 433.472 194.604 433.501 194.252 433.501C193.912 433.501 193.625 433.472 193.391 433.413C193.168 433.354 192.986 433.261 192.846 433.132C192.717 432.991 192.623 432.81 192.564 432.587C192.506 432.364 192.477 432.089 192.477 431.761C192.477 431.433 192.506 431.163 192.564 430.952C192.623 430.729 192.717 430.548 192.846 430.407C192.986 430.255 193.168 430.155 193.391 430.108C193.625 430.05 193.912 430.021 194.252 430.021C194.604 430.021 194.891 430.05 195.113 430.108C195.348 430.155 195.529 430.255 195.658 430.407C195.787 430.548 195.875 430.729 195.922 430.952C195.98 431.163 196.01 431.433 196.01 431.761ZM195.693 452.907C195.693 453.001 195.67 453.083 195.623 453.153C195.576 453.212 195.494 453.265 195.377 453.312C195.271 453.358 195.125 453.394 194.938 453.417C194.75 453.44 194.516 453.452 194.234 453.452C193.953 453.452 193.719 453.44 193.531 453.417C193.344 453.394 193.191 453.358 193.074 453.312C192.969 453.265 192.893 453.212 192.846 453.153C192.799 453.083 192.775 453.001 192.775 452.907V439.038H185.674V452.907C185.674 453.001 185.65 453.083 185.604 453.153C185.557 453.212 185.475 453.265 185.357 453.312C185.252 453.358 185.105 453.394 184.918 453.417C184.73 453.44 184.496 453.452 184.215 453.452C183.934 453.452 183.699 453.44 183.512 453.417C183.324 453.394 183.172 453.358 183.055 453.312C182.949 453.265 182.873 453.212 182.826 453.153C182.779 453.083 182.756 453.001 182.756 452.907V439.038H180.523C180.336 439.038 180.195 438.944 180.102 438.757C180.008 438.569 179.961 438.265 179.961 437.843C179.961 437.62 179.973 437.433 179.996 437.28C180.02 437.128 180.055 437.005 180.102 436.911C180.148 436.806 180.207 436.735 180.277 436.7C180.348 436.653 180.43 436.63 180.523 436.63H182.756V434.925C182.756 433.835 182.861 432.903 183.072 432.13C183.283 431.345 183.594 430.7 184.004 430.196C184.426 429.692 184.941 429.323 185.551 429.089C186.172 428.843 186.881 428.72 187.678 428.72C187.936 428.72 188.193 428.731 188.451 428.755C188.709 428.778 188.943 428.813 189.154 428.86C189.365 428.907 189.547 428.96 189.699 429.019C189.863 429.065 189.975 429.118 190.033 429.177C190.092 429.235 190.139 429.3 190.174 429.37C190.209 429.429 190.238 429.505 190.262 429.599C190.285 429.692 190.303 429.81 190.314 429.95C190.326 430.091 190.332 430.261 190.332 430.46C190.332 430.835 190.303 431.104 190.244 431.269C190.186 431.433 190.086 431.515 189.945 431.515C189.852 431.515 189.752 431.497 189.646 431.462C189.553 431.415 189.43 431.368 189.277 431.321C189.125 431.274 188.938 431.233 188.715 431.198C188.504 431.151 188.234 431.128 187.906 431.128C187.098 431.128 186.523 431.427 186.184 432.024C185.844 432.622 185.674 433.577 185.674 434.89V436.63H194.797C195.102 436.63 195.324 436.712 195.465 436.876C195.617 437.028 195.693 437.245 195.693 437.526V452.907ZM212.428 450.499C212.428 450.698 212.422 450.874 212.41 451.026C212.398 451.167 212.375 451.29 212.34 451.396C212.316 451.489 212.281 451.577 212.234 451.659C212.199 451.729 212.105 451.841 211.953 451.993C211.812 452.134 211.566 452.315 211.215 452.538C210.863 452.749 210.465 452.942 210.02 453.118C209.586 453.282 209.111 453.417 208.596 453.522C208.08 453.628 207.547 453.681 206.996 453.681C205.859 453.681 204.852 453.493 203.973 453.118C203.094 452.743 202.355 452.198 201.758 451.483C201.172 450.757 200.721 449.872 200.404 448.829C200.1 447.774 199.947 446.562 199.947 445.19C199.947 443.632 200.135 442.296 200.51 441.183C200.896 440.058 201.418 439.138 202.074 438.423C202.742 437.708 203.521 437.181 204.412 436.841C205.314 436.489 206.287 436.313 207.33 436.313C207.834 436.313 208.32 436.36 208.789 436.454C209.27 436.548 209.709 436.671 210.107 436.823C210.506 436.976 210.857 437.151 211.162 437.351C211.479 437.55 211.707 437.72 211.848 437.86C211.988 438.001 212.082 438.112 212.129 438.194C212.188 438.276 212.234 438.376 212.27 438.493C212.305 438.599 212.328 438.722 212.34 438.862C212.352 439.003 212.357 439.179 212.357 439.39C212.357 439.847 212.305 440.169 212.199 440.356C212.094 440.532 211.965 440.62 211.812 440.62C211.637 440.62 211.432 440.526 211.197 440.339C210.975 440.14 210.688 439.923 210.336 439.688C209.984 439.454 209.557 439.243 209.053 439.056C208.561 438.856 207.975 438.757 207.295 438.757C205.9 438.757 204.828 439.296 204.078 440.374C203.34 441.44 202.971 442.993 202.971 445.032C202.971 446.052 203.064 446.948 203.252 447.722C203.451 448.483 203.738 449.122 204.113 449.638C204.488 450.153 204.945 450.54 205.484 450.798C206.035 451.044 206.662 451.167 207.365 451.167C208.033 451.167 208.619 451.062 209.123 450.851C209.627 450.64 210.061 450.411 210.424 450.165C210.799 449.907 211.109 449.679 211.355 449.479C211.613 449.269 211.812 449.163 211.953 449.163C212.035 449.163 212.105 449.187 212.164 449.233C212.223 449.28 212.27 449.362 212.305 449.479C212.352 449.585 212.381 449.726 212.393 449.901C212.416 450.065 212.428 450.265 212.428 450.499ZM227.879 452.925C227.879 453.065 227.832 453.171 227.738 453.241C227.645 453.312 227.516 453.364 227.352 453.399C227.188 453.435 226.947 453.452 226.631 453.452C226.326 453.452 226.08 453.435 225.893 453.399C225.717 453.364 225.588 453.312 225.506 453.241C225.424 453.171 225.383 453.065 225.383 452.925V451.343C224.691 452.081 223.918 452.655 223.062 453.065C222.219 453.476 221.322 453.681 220.373 453.681C219.541 453.681 218.785 453.569 218.105 453.347C217.438 453.136 216.863 452.825 216.383 452.415C215.914 452.005 215.545 451.501 215.275 450.903C215.018 450.306 214.889 449.626 214.889 448.864C214.889 447.974 215.07 447.2 215.434 446.544C215.797 445.888 216.318 445.343 216.998 444.909C217.678 444.476 218.51 444.153 219.494 443.942C220.479 443.72 221.586 443.608 222.816 443.608H224.996V442.378C224.996 441.769 224.932 441.229 224.803 440.761C224.674 440.292 224.463 439.905 224.17 439.601C223.889 439.284 223.52 439.05 223.062 438.897C222.605 438.733 222.043 438.651 221.375 438.651C220.66 438.651 220.016 438.739 219.441 438.915C218.879 439.079 218.381 439.267 217.947 439.478C217.525 439.677 217.168 439.864 216.875 440.04C216.594 440.204 216.383 440.286 216.242 440.286C216.148 440.286 216.066 440.263 215.996 440.216C215.926 440.169 215.861 440.099 215.803 440.005C215.756 439.911 215.721 439.794 215.697 439.653C215.674 439.501 215.662 439.337 215.662 439.161C215.662 438.868 215.68 438.64 215.715 438.476C215.762 438.3 215.861 438.136 216.014 437.983C216.178 437.831 216.453 437.655 216.84 437.456C217.227 437.245 217.672 437.058 218.176 436.894C218.68 436.718 219.23 436.577 219.828 436.472C220.426 436.354 221.029 436.296 221.639 436.296C222.775 436.296 223.742 436.425 224.539 436.683C225.336 436.94 225.98 437.321 226.473 437.825C226.965 438.317 227.322 438.933 227.545 439.671C227.768 440.409 227.879 441.271 227.879 442.255V452.925ZM224.996 445.7H222.518C221.721 445.7 221.029 445.771 220.443 445.911C219.857 446.04 219.371 446.239 218.984 446.509C218.598 446.767 218.311 447.083 218.123 447.458C217.947 447.821 217.859 448.243 217.859 448.724C217.859 449.544 218.117 450.2 218.633 450.692C219.16 451.173 219.893 451.413 220.83 451.413C221.592 451.413 222.295 451.22 222.939 450.833C223.596 450.446 224.281 449.854 224.996 449.058V445.7ZM246.635 436.63C246.986 436.63 247.227 436.712 247.355 436.876C247.484 437.028 247.549 437.257 247.549 437.562V452.907C247.549 453.001 247.525 453.083 247.479 453.153C247.432 453.212 247.35 453.265 247.232 453.312C247.127 453.358 246.98 453.394 246.793 453.417C246.605 453.44 246.377 453.452 246.107 453.452C245.814 453.452 245.574 453.44 245.387 453.417C245.199 453.394 245.047 453.358 244.93 453.312C244.824 453.265 244.748 453.212 244.701 453.153C244.654 453.083 244.631 453.001 244.631 452.907V439.038H236.457V447.862C236.457 448.952 236.615 449.778 236.932 450.341C237.26 450.892 237.84 451.167 238.672 451.167C238.941 451.167 239.182 451.144 239.393 451.097C239.604 451.038 239.791 450.979 239.955 450.921C240.119 450.862 240.26 450.81 240.377 450.763C240.494 450.704 240.6 450.675 240.693 450.675C240.752 450.675 240.805 450.692 240.852 450.728C240.91 450.751 240.951 450.804 240.975 450.886C241.01 450.968 241.039 451.079 241.062 451.22C241.086 451.36 241.098 451.536 241.098 451.747C241.098 452.087 241.074 452.356 241.027 452.556C240.98 452.743 240.91 452.89 240.816 452.995C240.723 453.089 240.582 453.177 240.395 453.259C240.207 453.341 239.99 453.405 239.744 453.452C239.51 453.511 239.258 453.558 238.988 453.593C238.719 453.628 238.449 453.646 238.18 453.646C237.359 453.646 236.656 453.54 236.07 453.329C235.484 453.106 235.004 452.778 234.629 452.345C234.254 451.899 233.979 451.343 233.803 450.675C233.639 449.995 233.557 449.198 233.557 448.284V439.038H231.342C231.166 439.038 231.025 438.944 230.92 438.757C230.814 438.569 230.762 438.265 230.762 437.843C230.762 437.62 230.773 437.433 230.797 437.28C230.832 437.128 230.873 437.005 230.92 436.911C230.967 436.806 231.025 436.735 231.096 436.7C231.178 436.653 231.266 436.63 231.359 436.63H233.557V432.868C233.557 432.786 233.574 432.71 233.609 432.64C233.656 432.569 233.732 432.511 233.838 432.464C233.955 432.405 234.107 432.364 234.295 432.341C234.482 432.317 234.717 432.306 234.998 432.306C235.291 432.306 235.531 432.317 235.719 432.341C235.906 432.364 236.053 432.405 236.158 432.464C236.264 432.511 236.34 432.569 236.387 432.64C236.434 432.71 236.457 432.786 236.457 432.868V436.63H246.635ZM247.883 431.743C247.883 432.423 247.754 432.886 247.496 433.132C247.238 433.378 246.764 433.501 246.072 433.501C245.393 433.501 244.924 433.384 244.666 433.149C244.42 432.903 244.297 432.446 244.297 431.778C244.297 431.099 244.426 430.636 244.684 430.39C244.941 430.144 245.416 430.021 246.107 430.021C246.787 430.021 247.25 430.144 247.496 430.39C247.754 430.624 247.883 431.075 247.883 431.743ZM267.658 444.821C267.658 446.11 267.488 447.3 267.148 448.39C266.809 449.468 266.299 450.399 265.619 451.185C264.951 451.97 264.107 452.585 263.088 453.03C262.08 453.464 260.908 453.681 259.572 453.681C258.271 453.681 257.135 453.487 256.162 453.101C255.201 452.714 254.398 452.151 253.754 451.413C253.109 450.675 252.629 449.778 252.312 448.724C251.996 447.669 251.838 446.474 251.838 445.138C251.838 443.849 252.002 442.665 252.33 441.587C252.67 440.497 253.174 439.56 253.842 438.774C254.521 437.989 255.365 437.38 256.373 436.946C257.381 436.513 258.559 436.296 259.906 436.296C261.207 436.296 262.338 436.489 263.299 436.876C264.271 437.263 265.08 437.825 265.725 438.563C266.369 439.302 266.85 440.198 267.166 441.253C267.494 442.308 267.658 443.497 267.658 444.821ZM264.6 445.015C264.6 444.159 264.518 443.351 264.354 442.589C264.201 441.827 263.943 441.159 263.58 440.585C263.217 440.011 262.725 439.56 262.104 439.231C261.482 438.892 260.709 438.722 259.783 438.722C258.928 438.722 258.189 438.874 257.568 439.179C256.959 439.483 256.455 439.917 256.057 440.479C255.658 441.03 255.359 441.687 255.16 442.448C254.973 443.21 254.879 444.042 254.879 444.944C254.879 445.812 254.955 446.626 255.107 447.388C255.271 448.149 255.535 448.817 255.898 449.392C256.273 449.954 256.771 450.405 257.393 450.745C258.014 451.073 258.787 451.237 259.713 451.237C260.557 451.237 261.289 451.085 261.91 450.78C262.531 450.476 263.041 450.048 263.439 449.497C263.838 448.946 264.131 448.29 264.318 447.528C264.506 446.767 264.6 445.929 264.6 445.015ZM285.553 452.907C285.553 453.001 285.529 453.083 285.482 453.153C285.436 453.212 285.359 453.265 285.254 453.312C285.148 453.358 285.002 453.394 284.814 453.417C284.627 453.44 284.393 453.452 284.111 453.452C283.818 453.452 283.578 453.44 283.391 453.417C283.203 453.394 283.057 453.358 282.951 453.312C282.846 453.265 282.77 453.212 282.723 453.153C282.676 453.083 282.652 453.001 282.652 452.907V443.644C282.652 442.741 282.582 442.015 282.441 441.464C282.301 440.913 282.096 440.438 281.826 440.04C281.557 439.642 281.205 439.337 280.771 439.126C280.35 438.915 279.857 438.81 279.295 438.81C278.568 438.81 277.842 439.067 277.115 439.583C276.389 440.099 275.627 440.854 274.83 441.851V452.907C274.83 453.001 274.807 453.083 274.76 453.153C274.713 453.212 274.637 453.265 274.531 453.312C274.426 453.358 274.279 453.394 274.092 453.417C273.904 453.44 273.664 453.452 273.371 453.452C273.09 453.452 272.855 453.44 272.668 453.417C272.48 453.394 272.328 453.358 272.211 453.312C272.105 453.265 272.029 453.212 271.982 453.153C271.947 453.083 271.93 453.001 271.93 452.907V437.087C271.93 436.993 271.947 436.917 271.982 436.858C272.018 436.788 272.088 436.729 272.193 436.683C272.299 436.624 272.434 436.589 272.598 436.577C272.762 436.554 272.979 436.542 273.248 436.542C273.506 436.542 273.717 436.554 273.881 436.577C274.057 436.589 274.191 436.624 274.285 436.683C274.379 436.729 274.443 436.788 274.479 436.858C274.525 436.917 274.549 436.993 274.549 437.087V439.179C275.439 438.183 276.324 437.456 277.203 436.999C278.094 436.53 278.99 436.296 279.893 436.296C280.947 436.296 281.832 436.478 282.547 436.841C283.273 437.192 283.859 437.667 284.305 438.265C284.75 438.862 285.066 439.565 285.254 440.374C285.453 441.171 285.553 442.132 285.553 443.257V452.907ZM300.775 448.601C300.775 449.409 300.623 450.13 300.318 450.763C300.025 451.396 299.604 451.929 299.053 452.362C298.502 452.796 297.846 453.124 297.084 453.347C296.322 453.569 295.484 453.681 294.57 453.681C294.008 453.681 293.469 453.634 292.953 453.54C292.449 453.458 291.992 453.353 291.582 453.224C291.184 453.083 290.844 452.942 290.562 452.802C290.281 452.649 290.076 452.515 289.947 452.397C289.818 452.28 289.725 452.116 289.666 451.905C289.607 451.694 289.578 451.407 289.578 451.044C289.578 450.821 289.59 450.634 289.613 450.481C289.637 450.329 289.666 450.206 289.701 450.112C289.736 450.019 289.783 449.954 289.842 449.919C289.912 449.872 289.988 449.849 290.07 449.849C290.199 449.849 290.387 449.931 290.633 450.095C290.891 450.247 291.201 450.417 291.564 450.604C291.939 450.792 292.379 450.968 292.883 451.132C293.387 451.284 293.967 451.36 294.623 451.36C295.115 451.36 295.561 451.308 295.959 451.202C296.357 451.097 296.703 450.944 296.996 450.745C297.289 450.534 297.512 450.271 297.664 449.954C297.828 449.638 297.91 449.263 297.91 448.829C297.91 448.384 297.793 448.009 297.559 447.704C297.336 447.399 297.037 447.13 296.662 446.896C296.287 446.661 295.865 446.456 295.396 446.28C294.928 446.093 294.441 445.899 293.938 445.7C293.445 445.501 292.959 445.278 292.479 445.032C292.01 444.774 291.588 444.464 291.213 444.101C290.838 443.737 290.533 443.304 290.299 442.8C290.076 442.296 289.965 441.692 289.965 440.989C289.965 440.368 290.082 439.776 290.316 439.214C290.562 438.64 290.926 438.142 291.406 437.72C291.887 437.286 292.484 436.94 293.199 436.683C293.926 436.425 294.77 436.296 295.73 436.296C296.152 436.296 296.574 436.331 296.996 436.401C297.418 436.472 297.799 436.56 298.139 436.665C298.479 436.771 298.766 436.888 299 437.017C299.246 437.134 299.428 437.239 299.545 437.333C299.674 437.427 299.756 437.509 299.791 437.579C299.838 437.649 299.867 437.731 299.879 437.825C299.902 437.907 299.92 438.013 299.932 438.142C299.955 438.271 299.967 438.429 299.967 438.616C299.967 438.815 299.955 438.991 299.932 439.144C299.92 439.284 299.891 439.401 299.844 439.495C299.809 439.589 299.762 439.659 299.703 439.706C299.645 439.741 299.58 439.759 299.51 439.759C299.404 439.759 299.252 439.694 299.053 439.565C298.854 439.437 298.596 439.302 298.279 439.161C297.963 439.009 297.588 438.868 297.154 438.739C296.732 438.61 296.246 438.546 295.695 438.546C295.203 438.546 294.77 438.604 294.395 438.722C294.02 438.827 293.709 438.985 293.463 439.196C293.229 439.396 293.047 439.636 292.918 439.917C292.801 440.198 292.742 440.503 292.742 440.831C292.742 441.288 292.859 441.675 293.094 441.991C293.328 442.296 293.633 442.565 294.008 442.8C294.383 443.034 294.811 443.245 295.291 443.433C295.771 443.62 296.258 443.813 296.75 444.013C297.254 444.212 297.746 444.435 298.227 444.681C298.719 444.927 299.152 445.226 299.527 445.577C299.902 445.929 300.201 446.351 300.424 446.843C300.658 447.335 300.775 447.921 300.775 448.601ZM320.305 453.347L318.195 459.165C318.125 459.353 317.943 459.493 317.65 459.587C317.369 459.692 316.936 459.745 316.35 459.745C316.045 459.745 315.799 459.728 315.611 459.692C315.424 459.669 315.277 459.622 315.172 459.552C315.078 459.481 315.025 459.388 315.014 459.271C315.002 459.153 315.031 459.013 315.102 458.849L317.281 453.347C317.176 453.3 317.076 453.224 316.982 453.118C316.889 453.013 316.824 452.901 316.789 452.784L311.146 437.667C311.053 437.421 311.006 437.228 311.006 437.087C311.006 436.946 311.053 436.835 311.146 436.753C311.24 436.671 311.393 436.618 311.604 436.595C311.814 436.56 312.096 436.542 312.447 436.542C312.799 436.542 313.074 436.554 313.273 436.577C313.473 436.589 313.631 436.618 313.748 436.665C313.865 436.712 313.947 436.782 313.994 436.876C314.053 436.958 314.111 437.075 314.17 437.228L318.688 449.919H318.74L323.1 437.157C323.17 436.935 323.252 436.794 323.346 436.735C323.451 436.665 323.604 436.618 323.803 436.595C324.002 436.56 324.289 436.542 324.664 436.542C324.992 436.542 325.262 436.56 325.473 436.595C325.684 436.618 325.836 436.671 325.93 436.753C326.035 436.835 326.088 436.946 326.088 437.087C326.088 437.228 326.053 437.403 325.982 437.614L320.305 453.347ZM342.453 444.312C342.453 444.769 342.336 445.097 342.102 445.296C341.879 445.483 341.621 445.577 341.328 445.577H330.957C330.957 446.456 331.045 447.247 331.221 447.95C331.396 448.653 331.689 449.257 332.1 449.761C332.51 450.265 333.043 450.651 333.699 450.921C334.355 451.19 335.158 451.325 336.107 451.325C336.857 451.325 337.525 451.267 338.111 451.149C338.697 451.021 339.201 450.88 339.623 450.728C340.057 450.575 340.408 450.44 340.678 450.323C340.959 450.194 341.17 450.13 341.311 450.13C341.393 450.13 341.463 450.153 341.521 450.2C341.592 450.235 341.645 450.294 341.68 450.376C341.715 450.458 341.738 450.575 341.75 450.728C341.773 450.868 341.785 451.044 341.785 451.255C341.785 451.407 341.779 451.542 341.768 451.659C341.756 451.765 341.738 451.864 341.715 451.958C341.703 452.04 341.674 452.116 341.627 452.187C341.592 452.257 341.539 452.327 341.469 452.397C341.41 452.456 341.223 452.562 340.906 452.714C340.59 452.854 340.18 452.995 339.676 453.136C339.172 453.276 338.586 453.399 337.918 453.505C337.262 453.622 336.559 453.681 335.809 453.681C334.508 453.681 333.365 453.499 332.381 453.136C331.408 452.772 330.588 452.233 329.92 451.519C329.252 450.804 328.748 449.907 328.408 448.829C328.068 447.751 327.898 446.497 327.898 445.067C327.898 443.708 328.074 442.489 328.426 441.411C328.777 440.321 329.281 439.401 329.938 438.651C330.605 437.89 331.408 437.31 332.346 436.911C333.283 436.501 334.332 436.296 335.492 436.296C336.734 436.296 337.789 436.495 338.656 436.894C339.535 437.292 340.256 437.831 340.818 438.511C341.381 439.179 341.791 439.97 342.049 440.884C342.318 441.786 342.453 442.753 342.453 443.784V444.312ZM339.535 443.45C339.57 441.927 339.23 440.731 338.516 439.864C337.812 438.997 336.764 438.563 335.369 438.563C334.654 438.563 334.027 438.698 333.488 438.968C332.949 439.237 332.498 439.595 332.135 440.04C331.771 440.485 331.49 441.007 331.291 441.604C331.092 442.19 330.98 442.806 330.957 443.45H339.535ZM354.898 451.747C354.898 452.087 354.875 452.356 354.828 452.556C354.781 452.755 354.711 452.901 354.617 452.995C354.523 453.089 354.383 453.177 354.195 453.259C354.008 453.341 353.791 453.405 353.545 453.452C353.311 453.511 353.059 453.558 352.789 453.593C352.52 453.628 352.25 453.646 351.98 453.646C351.16 453.646 350.457 453.54 349.871 453.329C349.285 453.106 348.805 452.778 348.43 452.345C348.055 451.899 347.779 451.343 347.604 450.675C347.439 449.995 347.357 449.198 347.357 448.284V439.038H345.143C344.967 439.038 344.826 438.944 344.721 438.757C344.615 438.569 344.562 438.265 344.562 437.843C344.562 437.62 344.574 437.433 344.598 437.28C344.633 437.128 344.674 437.005 344.721 436.911C344.768 436.806 344.826 436.735 344.896 436.7C344.979 436.653 345.066 436.63 345.16 436.63H347.357V432.868C347.357 432.786 347.375 432.71 347.41 432.64C347.457 432.569 347.533 432.511 347.639 432.464C347.756 432.405 347.908 432.364 348.096 432.341C348.283 432.317 348.518 432.306 348.799 432.306C349.092 432.306 349.332 432.317 349.52 432.341C349.707 432.364 349.854 432.405 349.959 432.464C350.064 432.511 350.141 432.569 350.188 432.64C350.234 432.71 350.258 432.786 350.258 432.868V436.63H354.318C354.412 436.63 354.494 436.653 354.564 436.7C354.635 436.735 354.693 436.806 354.74 436.911C354.799 437.005 354.84 437.128 354.863 437.28C354.887 437.433 354.898 437.62 354.898 437.843C354.898 438.265 354.846 438.569 354.74 438.757C354.635 438.944 354.494 439.038 354.318 439.038H350.258V447.862C350.258 448.952 350.416 449.778 350.732 450.341C351.061 450.892 351.641 451.167 352.473 451.167C352.742 451.167 352.982 451.144 353.193 451.097C353.404 451.038 353.592 450.979 353.756 450.921C353.92 450.862 354.061 450.81 354.178 450.763C354.295 450.704 354.4 450.675 354.494 450.675C354.553 450.675 354.605 450.692 354.652 450.728C354.711 450.751 354.752 450.804 354.775 450.886C354.811 450.968 354.84 451.079 354.863 451.22C354.887 451.36 354.898 451.536 354.898 451.747Z" fill="#1BA8BB"/>
<defs>
<clipPath id="clip0_1341_12128">
<rect width="427" height="375.347" fill="white"/>
</clipPath>
</defs>
</svg>
