<svg width="427" height="467" viewBox="0 0 427 467" fill="none" xmlns="http://www.w3.org/2000/svg">
<g clip-path="url(#clip0_1341_15156)">
<path fill-rule="evenodd" clip-rule="evenodd" d="M215.285 0C265.608 0 259.863 89.024 296.192 116.159C344.277 152.075 427 134.291 427 195.931C427 304.142 319.699 343.346 202.771 343.346C85.8427 343.346 -13.9263 283.331 20.8883 175.404C55.7058 67.4811 98.3562 0 215.285 0Z" fill="#E9EEF7"/>
<path fill-rule="evenodd" clip-rule="evenodd" d="M220.428 375.347C325.75 375.347 411.648 372.366 411.648 368.712C411.648 365.057 325.75 362.077 220.428 362.077C115.105 362.077 29.207 365.057 29.207 368.712C29.207 372.366 115.105 375.347 220.428 375.347Z" fill="#D1DEED"/>
<path fill-rule="evenodd" clip-rule="evenodd" d="M117.277 95.2292H288.2C293.745 95.2292 298.266 99.7551 298.266 105.312V350.815C298.266 356.369 293.748 360.898 288.2 360.898H117.277C111.732 360.898 107.211 356.372 107.211 350.815V105.312C107.211 99.758 111.729 95.2292 117.277 95.2292Z" fill="#11A1B6"/>
<path fill-rule="evenodd" clip-rule="evenodd" d="M117.276 97.7185H288.199C292.367 97.7185 295.78 101.138 295.78 105.312V350.815C295.78 354.989 292.367 358.408 288.199 358.408H117.276C113.109 358.408 109.695 354.989 109.695 350.815V105.312C109.695 101.138 113.109 97.7185 117.276 97.7185Z" fill="#1BA8BB"/>
<path fill-rule="evenodd" clip-rule="evenodd" d="M247.739 107.061C247.739 110.158 244.036 112.67 239.468 112.67H166.005C161.438 112.67 157.734 110.161 157.734 107.061V90.2415C157.734 87.1449 161.438 84.635 166.005 84.635H239.465C244.036 84.635 247.736 87.1449 247.736 90.2415V107.061H247.739ZM247.408 74.3604H158.065C152.509 74.3604 148.008 78.1251 148.008 82.7701V107.999C148.008 112.641 152.512 116.406 158.065 116.406H247.408C252.965 116.406 257.469 112.641 257.469 107.999V82.7701C257.469 78.1251 252.962 74.3604 247.408 74.3604Z" fill="#18D1DD"/>
<path d="M283.191 122.947H122.281V347.201H283.191V122.947Z" fill="#FDFDFD"/>
<path fill-rule="evenodd" clip-rule="evenodd" d="M248.413 122.948C248.413 127.593 244.654 131.357 240.017 131.357H165.458C160.821 131.357 157.062 127.593 157.062 122.948V97.7186C157.062 93.0765 160.821 89.3088 165.458 89.3088H240.017C244.651 89.3088 248.413 93.0765 248.413 97.7186V122.948Z" fill="#18D1DD"/>
<path fill-rule="evenodd" clip-rule="evenodd" d="M181.594 110.803C181.594 114.672 178.462 117.809 174.596 117.809C170.734 117.809 167.602 114.672 167.602 110.803C167.602 106.93 170.734 103.796 174.596 103.796C178.462 103.793 181.594 106.93 181.594 110.803Z" fill="#1BA8BB"/>
<path fill-rule="evenodd" clip-rule="evenodd" d="M239.759 110.803C239.759 114.672 236.627 117.809 232.764 117.809C228.902 117.809 225.77 114.672 225.77 110.803C225.77 106.93 228.902 103.796 232.764 103.796C236.627 103.796 239.759 106.93 239.759 110.803Z" fill="#1BA8BB"/>
<path fill-rule="evenodd" clip-rule="evenodd" d="M141.348 176.659L157.924 176.607L157.976 193.212L141.4 193.264L141.348 176.659ZM141.771 311.462L158.348 311.41L158.4 328.014L141.823 328.066L141.771 311.462ZM141.687 284.501L158.26 284.452L158.313 301.057L141.736 301.109L141.687 284.501ZM141.6 257.541L158.176 257.489L158.229 274.093L141.652 274.145L141.6 257.541ZM141.516 230.58L158.092 230.528L158.145 247.133L141.568 247.185L141.516 230.58ZM141.432 203.62L158.008 203.568L158.06 220.172L141.484 220.224L141.432 203.62Z" fill="#1BA8BB"/>
<path fill-rule="evenodd" clip-rule="evenodd" d="M170.95 177.174L260.935 176.892C262.454 176.886 263.701 178.13 263.704 179.649C263.71 181.171 262.472 182.42 260.949 182.426L170.965 182.708C169.445 182.714 168.198 181.47 168.195 179.951C168.192 178.426 169.431 177.177 170.95 177.174ZM171.371 311.973L261.355 311.692C262.875 311.686 264.122 312.929 264.125 314.448C264.128 315.971 262.889 317.22 261.37 317.226L171.388 317.507C169.869 317.51 168.622 316.27 168.619 314.748C168.613 313.228 169.851 311.979 171.371 311.973ZM171.403 321.833L225.447 321.661C226.967 321.658 228.214 322.899 228.22 324.421C228.223 325.943 226.984 327.192 225.465 327.198L171.42 327.367C169.901 327.372 168.654 326.129 168.648 324.61C168.645 323.088 169.883 321.839 171.403 321.833ZM171.287 285.013L261.271 284.731C262.791 284.728 264.038 285.969 264.043 287.491C264.049 289.013 262.811 290.262 261.291 290.265L171.307 290.547C169.787 290.553 168.54 289.312 168.535 287.79V287.787C168.529 286.268 169.767 285.019 171.287 285.013ZM171.319 294.872L225.363 294.704C226.883 294.698 228.13 295.941 228.136 297.461C228.141 298.983 226.903 300.232 225.383 300.238L171.339 300.406C169.819 300.412 168.572 299.172 168.569 297.646C168.558 296.127 169.799 294.878 171.319 294.872ZM171.203 258.052L261.187 257.771C262.707 257.765 263.954 259.008 263.956 260.527C263.962 262.05 262.721 263.299 261.204 263.305L171.223 263.586C169.703 263.589 168.456 262.349 168.451 260.827C168.445 259.307 169.683 258.058 171.203 258.052ZM171.235 267.912L225.279 267.743C226.799 267.74 228.046 268.981 228.051 270.503C228.057 272.025 226.816 273.274 225.299 273.277L171.255 273.446C169.735 273.451 168.488 272.208 168.482 270.689V270.686C168.474 269.167 169.715 267.918 171.235 267.912ZM171.119 231.092L261.1 230.81C262.62 230.804 263.867 232.048 263.872 233.567V233.57C263.878 235.092 262.637 236.341 261.12 236.347L171.136 236.629C169.616 236.635 168.369 235.391 168.364 233.872V233.869C168.361 232.347 169.599 231.098 171.119 231.092ZM171.15 240.954L225.195 240.783C226.715 240.78 227.962 242.02 227.964 243.542C227.97 245.065 226.732 246.314 225.212 246.32L171.168 246.491C169.648 246.494 168.401 245.253 168.395 243.731C168.39 242.206 169.631 240.957 171.15 240.954ZM171.034 204.134L261.019 203.85C262.538 203.847 263.785 205.087 263.791 206.609C263.797 208.132 262.556 209.381 261.039 209.386L171.055 209.671C169.535 209.674 168.288 208.434 168.282 206.911C168.277 205.386 169.515 204.137 171.034 204.134ZM171.066 213.991L225.111 213.822C226.63 213.816 227.877 215.057 227.88 216.579V216.582C227.886 218.104 226.645 219.353 225.128 219.359L171.084 219.528C169.564 219.533 168.317 218.29 168.311 216.771C168.306 215.246 169.544 213.997 171.066 213.991ZM170.982 187.033L225.027 186.862C226.546 186.859 227.793 188.099 227.799 189.621C227.802 191.144 226.564 192.393 225.044 192.399L171 192.57C169.48 192.573 168.233 191.332 168.227 189.81C168.221 188.285 169.46 187.036 170.982 187.033Z" fill="#1BA8BB"/>
<path fill-rule="evenodd" clip-rule="evenodd" d="M175.427 143.227L265.411 142.945C266.928 142.94 268.178 144.183 268.184 145.702V145.705C268.187 147.227 266.948 148.476 265.429 148.482L175.444 148.764C173.928 148.77 172.678 147.526 172.672 146.007V146.004C172.669 144.482 173.907 143.233 175.427 143.227ZM175.459 153.086L264.118 152.915C265.635 152.912 266.882 154.15 266.887 155.675C266.89 157.197 265.652 158.449 264.132 158.449L175.473 158.617C173.954 158.62 172.707 157.383 172.701 155.861C172.698 154.341 173.939 153.089 175.459 153.086Z" fill="#1BA8BB"/>
<path fill-rule="evenodd" clip-rule="evenodd" d="M187.205 105.547H218.272C218.986 105.547 219.563 106.125 219.563 106.84V107.331C219.563 108.046 218.986 108.624 218.272 108.624H187.205C186.491 108.624 185.914 108.046 185.914 107.331V106.84C185.914 106.125 186.491 105.547 187.205 105.547Z" fill="#0D7685"/>
<path fill-rule="evenodd" clip-rule="evenodd" d="M187.205 112.092H218.272C218.986 112.092 219.563 112.67 219.563 113.385V113.876C219.563 114.591 218.986 115.169 218.272 115.169H187.205C186.491 115.169 185.914 114.591 185.914 113.876V113.385C185.914 112.67 186.491 112.092 187.205 112.092Z" fill="#0D7685"/>
<path fill-rule="evenodd" clip-rule="evenodd" d="M238.323 111.218C238.323 114.524 235.649 117.202 232.349 117.202C229.052 117.202 226.375 114.524 226.375 111.218C226.375 107.912 229.049 105.234 232.349 105.234C235.649 105.234 238.323 107.912 238.323 111.218Z" fill="#0D7685"/>
<path fill-rule="evenodd" clip-rule="evenodd" d="M179.944 111.697C179.944 115.003 177.27 117.681 173.97 117.681C170.673 117.681 167.996 115.003 167.996 111.697C167.996 108.391 170.67 105.713 173.97 105.713C177.27 105.713 179.944 108.391 179.944 111.697Z" fill="#0D7685"/>
<path d="M335.876 333.587L330.34 339.133L335.876 344.679L341.413 339.133L335.876 333.587Z" fill="#BB5D59"/>
<path d="M335.878 336.722L333.5 339.105L335.879 341.488L338.257 339.105L335.878 336.722Z" fill="#E69F83"/>
<path fill-rule="evenodd" clip-rule="evenodd" d="M329.14 268.045C329.14 268.045 330.973 245.178 316 240.193C316.003 240.19 318.152 252.126 329.14 268.045Z" fill="#18D1DD"/>
<path fill-rule="evenodd" clip-rule="evenodd" d="M340.133 265.549C340.133 265.549 353.714 256.236 368.266 267.008C368.266 267.008 366.708 256.997 355.271 255.551C343.833 254.104 340.133 265.549 340.133 265.549Z" fill="#BADAF9"/>
<path fill-rule="evenodd" clip-rule="evenodd" d="M327.137 302.35C327.137 302.35 327.566 293.928 321.682 289.806C313.588 284.136 307.66 290.375 307.66 290.375C307.66 290.375 321.954 293.045 327.137 302.35Z" fill="#18D1DD"/>
<path fill-rule="evenodd" clip-rule="evenodd" d="M338.82 299.549C338.82 299.549 343.533 287.256 354.286 291.517C354.283 291.517 349.002 294.867 338.82 299.549Z" fill="#18D1DD"/>
<path fill-rule="evenodd" clip-rule="evenodd" d="M338.629 320.38C338.629 320.38 344.136 313.859 350.33 316.79C350.333 316.793 349.991 320.014 338.629 320.38Z" fill="#18D1DD"/>
<path fill-rule="evenodd" clip-rule="evenodd" d="M325.221 319.095C325.221 319.095 320.354 312.222 314.728 315.572C314.728 315.572 314.348 316.522 318.377 317.018C322.405 317.512 325.221 319.095 325.221 319.095Z" fill="#C2DEF9"/>
<path fill-rule="evenodd" clip-rule="evenodd" d="M347.352 276.742C347.352 276.742 355.158 269.25 363.821 276.521C363.824 276.521 355.277 277.384 347.352 276.742Z" fill="#18D1DD"/>
<path fill-rule="evenodd" clip-rule="evenodd" d="M339.387 278.842C339.387 278.842 339.007 271.763 345.164 270.354C345.164 270.354 344.022 276.332 339.387 278.842Z" fill="#18D1DD"/>
<path fill-rule="evenodd" clip-rule="evenodd" d="M342.625 282.102C342.625 282.102 348.242 278.54 354.666 283.45C354.663 283.45 349.736 285.474 342.625 282.102Z" fill="#C2DEF9"/>
<path fill-rule="evenodd" clip-rule="evenodd" d="M319.652 272.411C319.652 272.411 314.768 262.246 302.875 266.395C302.875 266.398 307.55 272.033 319.652 272.411Z" fill="#1BA8BB"/>
<path fill-rule="evenodd" clip-rule="evenodd" d="M326.503 276.707C326.503 276.707 329.36 271.879 325.14 266.627C325.14 266.624 322.582 272.056 326.503 276.707Z" fill="#1BA8BB"/>
<path fill-rule="evenodd" clip-rule="evenodd" d="M322.137 280.1C322.137 280.1 313.817 274.735 305.723 280.635C305.723 280.632 312.981 285.504 322.137 280.1Z" fill="#BADAF9"/>
<path fill-rule="evenodd" clip-rule="evenodd" d="M334.121 274.505C334.121 274.505 329.583 266.436 336.461 260.347C336.461 260.344 338.622 266.854 334.121 274.505Z" fill="#1BA8BB"/>
<path fill-rule="evenodd" clip-rule="evenodd" d="M332.282 260.84C332.282 260.84 331.218 244.892 344.367 240.974C344.367 240.971 341.821 252.39 332.282 260.84Z" fill="#BADAF9"/>
<path fill-rule="evenodd" clip-rule="evenodd" d="M321.961 270.833C321.961 270.833 325.105 263.124 321.648 257.261C321.645 257.261 316.843 263.661 321.961 270.833Z" fill="#C2DEF9"/>
<path fill-rule="evenodd" clip-rule="evenodd" d="M336.945 307.721C336.945 307.721 340.15 300.159 350.903 303.317C350.903 303.317 348.218 307.479 336.945 307.721Z" fill="#18D1DD"/>
<path fill-rule="evenodd" clip-rule="evenodd" d="M335.347 301.37C335.347 301.37 332.284 293.08 338.708 288.777C338.705 288.777 340.459 294.552 335.347 301.37Z" fill="#1BA8BB"/>
<path fill-rule="evenodd" clip-rule="evenodd" d="M322.402 309.542C322.402 309.542 318.267 301.338 308.578 305.143C308.575 305.143 312.667 310.515 322.402 309.542Z" fill="#1BA8BB"/>
<path fill-rule="evenodd" clip-rule="evenodd" d="M326.016 309.835C326.016 309.835 324.154 306.398 319.633 302.401C319.633 302.404 325.711 300.292 326.016 309.835Z" fill="#C2DEF9"/>
<path fill-rule="evenodd" clip-rule="evenodd" d="M334.906 319.035C334.906 319.035 334.982 311.308 343.151 310.622C343.151 310.625 342.278 315.723 334.906 319.035Z" fill="#1BA8BB"/>
<path fill-rule="evenodd" clip-rule="evenodd" d="M327.092 330.291C327.092 330.291 324.917 323.717 316.48 325.847C316.478 325.847 318.4 330.471 327.092 330.291Z" fill="#1BA8BB"/>
<path fill-rule="evenodd" clip-rule="evenodd" d="M335.629 331.215C335.629 331.215 337.415 324.935 344.863 325.736C344.863 325.734 344.37 330.948 335.629 331.215Z" fill="#1BA8BB"/>
<path fill-rule="evenodd" clip-rule="evenodd" d="M363.092 261.559C363.075 261.547 361.213 260.266 358.452 259.304C356.831 258.741 355.219 258.392 353.662 258.273C351.71 258.122 349.839 258.334 348.102 258.895C342.9 260.577 338.872 265.358 336.131 273.106C335.595 274.622 335.113 276.281 334.687 278.076C334.577 277.294 334.429 276.031 334.353 274.5C334.234 272.098 334.269 268.525 335.128 265.149C335.154 265.047 335.093 264.943 334.991 264.917C334.89 264.89 334.785 264.951 334.759 265.053C333.889 268.478 333.852 272.092 333.973 274.517C334.104 277.146 334.446 278.994 334.449 279.014L334.464 279.055C333.469 283.566 332.808 288.891 332.492 294.965C332.173 301.092 332.199 307.988 332.573 315.514C332.535 315.735 332.5 315.959 332.463 316.183C331.654 321.339 331.549 326.3 331.607 329.551C331.668 333.075 331.923 335.413 331.926 335.439C331.938 335.538 332.019 335.608 332.115 335.608L332.135 335.605C332.239 335.593 332.315 335.5 332.303 335.396C332.3 335.372 332.048 333.051 331.987 329.542C331.935 326.544 332.019 322.091 332.671 317.374C332.709 318.077 332.753 318.785 332.799 319.5C333.005 322.733 333.257 325.841 333.527 328.74C333.312 329.897 333.196 331.125 333.179 332.409C333.141 335.294 333.631 337.49 333.637 337.513C333.657 337.603 333.736 337.661 333.823 337.661L333.863 337.656C333.965 337.632 334.029 337.531 334.005 337.426C334 337.406 333.521 335.253 333.556 332.412C333.565 331.779 333.599 331.082 333.678 330.344C333.785 331.442 333.895 332.505 334.005 333.528C333.831 333.894 333.744 334.126 333.736 334.149C333.701 334.248 333.75 334.356 333.849 334.393C333.872 334.402 333.892 334.405 333.916 334.405C333.988 334.405 334.058 334.361 334.09 334.292C334.968 342.315 335.841 347.712 335.856 347.797C335.87 347.89 335.951 347.956 336.044 347.956L336.076 347.954C336.18 347.936 336.25 347.84 336.233 347.736C336.218 347.651 335.299 341.969 334.397 333.6C334.675 333.031 335.157 332.171 335.879 331.271C337.03 329.839 339.037 328.017 342.082 327.477C342.186 327.459 342.253 327.361 342.236 327.256C342.218 327.152 342.12 327.085 342.015 327.102C340.62 327.352 339.315 327.875 338.138 328.665C337.198 329.295 336.34 330.091 335.583 331.035C335.032 331.724 334.617 332.383 334.324 332.918C334.185 331.596 334.046 330.21 333.91 328.775C334.269 326.87 334.962 324.836 336.236 323.07C338.353 320.13 341.69 318.419 346.151 317.986C346.255 317.975 346.33 317.882 346.322 317.777C346.31 317.673 346.217 317.597 346.116 317.606C341.54 318.05 338.115 319.814 335.928 322.846C334.974 324.174 334.258 325.746 333.797 327.526C333.744 326.942 333.692 326.35 333.643 325.751C333.663 325.722 333.678 325.685 333.681 325.647C333.681 325.624 333.756 323.445 334.466 320.903C335.119 318.57 336.453 315.448 339.109 313.83C339.199 313.774 339.228 313.658 339.173 313.568C339.118 313.478 339.002 313.449 338.912 313.504C337.691 314.248 336.633 315.355 335.774 316.79C335.09 317.931 334.527 319.279 334.101 320.804C333.791 321.911 333.602 322.951 333.483 323.782C333.373 322.379 333.272 320.941 333.179 319.477C333.098 318.201 333.022 316.886 332.956 315.535C333.179 314.216 333.457 312.854 333.802 311.482C333.939 311.25 334.713 309.989 336.154 308.624C337.622 307.235 340.098 305.458 343.567 304.877C343.671 304.859 343.741 304.76 343.723 304.659C343.706 304.554 343.607 304.484 343.503 304.502C341.931 304.766 340.423 305.289 339.025 306.056C337.906 306.672 336.853 307.442 335.893 308.348C335.096 309.103 334.501 309.818 334.098 310.361C336.192 302.823 340.391 295.232 348.769 292.937C348.871 292.908 348.932 292.804 348.903 292.705C348.877 292.603 348.769 292.542 348.668 292.571C343.894 293.879 340.046 296.955 337.224 301.719C336.679 302.637 336.175 303.619 335.708 304.662C335.522 303.105 335.139 298.413 336.641 294.637C336.679 294.538 336.633 294.428 336.534 294.39C336.436 294.352 336.325 294.399 336.288 294.497C335.316 296.943 335.125 299.738 335.139 301.652C335.154 303.723 335.4 305.24 335.403 305.254C335.406 305.275 335.415 305.295 335.424 305.312C334.356 307.831 333.507 310.689 332.877 313.856C332.584 307.018 332.532 299.439 333.057 292.217C333.086 292.197 333.115 292.162 333.138 292.11C333.144 292.092 333.156 292.069 333.167 292.037C333.71 290.712 335.444 286.907 338.724 283.252L338.747 283.241C338.761 283.235 340.107 282.637 342.25 282.297C344.225 281.986 347.299 281.838 350.733 282.907C350.831 282.939 350.939 282.881 350.97 282.782C351.002 282.68 350.944 282.576 350.846 282.544C347.337 281.451 344.196 281.605 342.178 281.925C340.907 282.125 339.921 282.413 339.31 282.622C342.987 278.77 348.43 275.267 356.072 275.267C356.109 275.267 356.147 275.267 356.185 275.267H356.188C356.292 275.267 356.376 275.183 356.379 275.078C356.379 274.973 356.295 274.886 356.19 274.886C352.441 274.869 348.914 275.688 345.707 277.324C343.245 278.576 340.963 280.313 338.909 282.488C338.967 281.931 339.098 281.019 339.373 279.923C339.794 278.247 340.652 275.787 342.357 273.597C342.421 273.512 342.407 273.393 342.326 273.329C342.241 273.265 342.123 273.28 342.059 273.361C340.31 275.61 339.431 278.125 339.005 279.842C338.614 281.405 338.515 282.581 338.492 282.947C335.647 286.096 333.95 289.356 333.144 291.145C333.678 284.545 334.71 278.294 336.499 273.239C339.199 265.611 343.143 260.908 348.227 259.264C352.058 258.023 355.834 258.799 358.328 259.665C361.042 260.606 362.869 261.864 362.887 261.875C362.974 261.936 363.092 261.913 363.15 261.829C363.2 261.739 363.179 261.62 363.092 261.559Z" fill="#11A1B6"/>
<path fill-rule="evenodd" clip-rule="evenodd" d="M331.372 297.686C331.369 296.234 331.351 294.805 331.325 293.402C331.334 293.378 331.337 293.352 331.334 293.326C331.334 293.317 331.331 293.271 331.322 293.192C331.198 286.871 330.85 281.064 330.284 275.821C330.267 275.324 330.194 271.972 330.972 267.449C331.746 262.943 333.544 256.329 337.726 250.4C337.787 250.316 337.766 250.197 337.679 250.136C337.592 250.075 337.473 250.095 337.415 250.182C335.551 252.826 333.996 255.824 332.796 259.092C331.836 261.703 331.096 264.495 330.6 267.385C330.218 269.616 330.041 271.565 329.959 273.035C329.722 271.179 329.455 269.398 329.156 267.699C328.304 262.819 327.193 258.56 325.859 255.033C324.386 251.144 322.602 248.05 320.558 245.842C320.485 245.764 320.366 245.761 320.288 245.831C320.21 245.903 320.207 246.022 320.276 246.101C324.133 250.266 326.996 257.555 328.782 267.763C329.223 270.281 329.6 272.98 329.907 275.847C329.907 275.879 329.91 275.899 329.91 275.902C329.91 275.92 329.916 275.934 329.919 275.949C330.4 280.417 330.719 285.294 330.879 290.552C330.847 290.401 330.812 290.247 330.774 290.087C330.354 288.289 329.545 285.523 328.069 282.557C328.005 282.43 327.941 282.302 327.874 282.174C327.561 280.867 326.349 275.635 326.056 271.286C326.05 271.182 325.957 271.103 325.853 271.109C325.749 271.115 325.67 271.208 325.676 271.313C325.908 274.752 326.709 278.732 327.196 280.922C326.131 279.057 324.905 277.346 323.527 275.804C323.379 275.359 321.561 269.834 321.346 264.747C321.344 264.643 321.254 264.562 321.149 264.564C321.045 264.567 320.964 264.657 320.967 264.762C321.143 268.919 322.376 273.358 322.921 275.144C322.524 274.726 322.115 274.322 321.694 273.93C318.478 270.941 314.584 268.753 310.118 267.426C310.016 267.397 309.912 267.455 309.883 267.554C309.854 267.655 309.909 267.76 310.01 267.789C319.557 270.627 324.696 276.963 327.378 282.032C326.775 281.657 325.647 281.035 324.009 280.48C322.541 279.984 320.972 279.647 319.343 279.478C317.307 279.269 315.175 279.321 313 279.635C312.896 279.65 312.823 279.746 312.841 279.85C312.855 279.955 312.951 280.027 313.055 280.013C317.895 279.313 321.607 280.074 323.869 280.835C326.32 281.663 327.642 282.668 327.657 282.677L327.744 282.746C330.27 287.833 330.861 292.388 330.951 293.218C330.98 294.677 330.998 296.164 331.003 297.678C331.027 305.041 330.763 312.129 330.418 318.143C330.299 316.652 330.139 315.122 329.93 313.582C329.049 307.057 327.468 301.724 325.235 297.727C322.431 292.701 318.583 289.785 313.798 289.056C313.693 289.041 313.598 289.111 313.58 289.216C313.566 289.32 313.635 289.416 313.74 289.433C318.403 290.145 322.158 292.998 324.902 297.913C327.109 301.866 328.675 307.153 329.551 313.628C329.736 315.008 329.884 316.379 329.997 317.721C329.536 316.774 328.675 315.244 327.286 313.588C327.164 313.443 327.039 313.297 326.912 313.155C326.917 313.137 326.92 313.117 326.92 313.094C326.917 313.039 326.842 311.766 326.392 310.102C325.978 308.559 325.151 306.392 323.571 304.809C323.495 304.736 323.376 304.736 323.301 304.809C323.226 304.885 323.226 305.004 323.301 305.079C324.821 306.601 325.618 308.702 326.021 310.195C326.311 311.273 326.442 312.202 326.5 312.708C325.38 311.517 324.136 310.471 322.791 309.593C320.703 308.234 318.362 307.272 315.836 306.738C315.735 306.715 315.633 306.782 315.61 306.886C315.59 306.988 315.654 307.089 315.758 307.11C321.37 308.298 324.96 311.415 326.984 313.823C329.179 316.437 330.058 318.802 330.067 318.825L330.087 318.863C330.145 319.65 330.191 320.426 330.229 321.181C329.858 326.875 329.446 331.322 329.205 333.69C329.217 333.533 329.226 333.376 329.234 333.213C329.24 333.193 329.24 333.17 329.237 333.147C329.261 332.711 329.275 332.252 329.281 331.781C329.307 329.698 329.133 327.752 328.768 326.003C328.306 323.807 327.538 321.913 326.482 320.371C324.612 317.634 321.825 315.973 318.2 315.432C318.096 315.418 318 315.488 317.985 315.592C317.971 315.697 318.04 315.793 318.145 315.807C321.66 316.33 324.36 317.936 326.169 320.583C328.498 323.987 328.942 328.545 328.901 331.767C328.898 331.982 328.895 332.194 328.886 332.403C328.602 331.886 328.132 331.133 327.436 330.355C326.709 329.542 325.882 328.87 324.983 328.359C323.858 327.72 322.614 327.334 321.288 327.209C321.184 327.197 321.091 327.276 321.083 327.38C321.071 327.485 321.149 327.578 321.254 327.587C324.13 327.857 326.047 329.373 327.146 330.599C328.222 331.796 328.753 332.958 328.855 333.193C328.701 335.988 328.254 338.006 328.248 338.033C328.225 338.134 328.289 338.239 328.393 338.262L328.434 338.268C328.521 338.268 328.599 338.207 328.62 338.12C328.623 338.105 328.834 337.158 329.017 335.668C329.04 335.735 329.098 335.784 329.174 335.793H329.197C329.292 335.793 329.374 335.723 329.385 335.624C329.394 335.54 329.867 331.404 330.351 324.931C330.371 326.361 330.365 327.665 330.342 328.792C330.264 332.839 329.997 335.555 329.997 335.584C329.986 335.688 330.064 335.781 330.168 335.793H330.186C330.281 335.793 330.365 335.72 330.374 335.622C330.377 335.595 330.644 332.868 330.722 328.807C330.763 326.747 330.757 324.106 330.612 321.181C331.032 314.596 331.401 306.331 331.372 297.686Z" fill="#11A1B6"/>
<path fill-rule="evenodd" clip-rule="evenodd" d="M344.391 337.304C344.391 338.111 344.379 338.91 344.362 339.703C344.341 340.47 344.312 341.234 344.275 341.987C344.228 342.899 344.17 343.802 344.098 344.691C343.886 347.335 343.561 349.868 343.138 352.25C342.43 356.241 341.447 359.808 340.258 362.768C339.87 363.736 339.458 364.639 339.026 365.47C338.976 365.563 338.927 365.656 338.878 365.749C338.498 366.46 338.104 367.117 337.695 367.715H325.619C325.158 367.041 324.714 366.292 324.288 365.47C323.856 364.639 323.444 363.736 323.055 362.768C321.156 358.042 319.784 351.77 319.216 344.691C319.143 343.802 319.085 342.899 319.042 341.987C319.004 341.234 318.975 340.47 318.955 339.703C318.934 338.91 318.926 338.111 318.926 337.304C318.926 337.202 318.926 337.101 318.926 336.999C318.929 335.831 318.955 334.675 318.998 333.533H344.31C344.356 334.672 344.379 335.828 344.385 336.999C344.391 337.101 344.391 337.205 344.391 337.304Z" fill="#1BA8BB"/>
<path fill-rule="evenodd" clip-rule="evenodd" d="M344.392 337.304C344.392 338.111 344.38 338.91 344.36 339.703H318.959C318.938 338.91 318.93 338.111 318.93 337.304C318.93 337.202 318.93 337.1 318.93 336.999H344.389C344.389 337.1 344.392 337.205 344.392 337.304Z" fill="#18D1DD"/>
<path fill-rule="evenodd" clip-rule="evenodd" d="M344.272 341.987C344.226 342.899 344.168 343.802 344.095 344.691H319.216C319.146 343.802 319.085 342.899 319.039 341.987H344.272Z" fill="#18D1DD"/>
<path fill-rule="evenodd" clip-rule="evenodd" d="M340.259 362.768C339.87 363.736 339.458 364.639 339.026 365.47H324.291C323.859 364.639 323.447 363.736 323.059 362.768H340.259Z" fill="#0D7685"/>
<path fill-rule="evenodd" clip-rule="evenodd" d="M340.698 352.445C334.849 352.445 331.154 348.842 328.84 344.688H344.1C343.981 346.182 343.824 347.634 343.636 349.049C343.491 350.141 343.325 351.207 343.14 352.247C342.284 352.384 341.472 352.445 340.698 352.445Z" fill="#C2DEF9"/>
<path fill-rule="evenodd" clip-rule="evenodd" d="M344.271 341.987H327.535C327.216 341.217 326.935 340.447 326.691 339.704H344.355C344.361 339.5 344.367 339.294 344.37 339.091C344.367 339.294 344.361 339.5 344.358 339.704C344.338 340.471 344.309 341.235 344.271 341.987ZM344.387 337.002H325.923C325.575 335.579 325.36 334.365 325.238 333.537H344.312C344.358 334.675 344.384 335.831 344.387 337.002Z" fill="#C2DEF9"/>
<path fill-rule="evenodd" clip-rule="evenodd" d="M344.361 339.704H326.697C326.387 338.757 326.132 337.842 325.926 337.002H344.39C344.39 337.011 344.39 337.023 344.39 337.034C344.39 337.124 344.39 337.214 344.39 337.304C344.39 337.906 344.384 338.498 344.373 339.091C344.37 339.294 344.367 339.5 344.361 339.704Z" fill="#0D7685"/>
<path fill-rule="evenodd" clip-rule="evenodd" d="M344.098 344.691H328.838C328.345 343.802 327.913 342.893 327.539 341.987H344.275C344.261 342.306 344.24 342.626 344.223 342.945C344.185 343.532 344.145 344.113 344.098 344.691Z" fill="#0D7685"/>
<path fill-rule="evenodd" clip-rule="evenodd" d="M337.696 367.716H325.62C325.159 367.042 324.715 366.292 324.289 365.47H338.145C338.386 365.569 338.629 365.662 338.879 365.749C338.499 366.461 338.105 367.117 337.696 367.716ZM323.059 362.769C321.16 358.042 319.788 351.771 319.22 344.691H323.573C325.142 351.074 328.079 358.347 333.578 362.769H323.059ZM322.975 341.987H319.046C319.008 341.235 318.979 340.471 318.959 339.704H322.563C322.682 340.433 322.819 341.2 322.975 341.987ZM318.93 337.304C318.93 337.203 318.93 337.101 318.93 336.999C318.93 337.101 318.93 337.206 318.93 337.304ZM322.183 337.002H318.93C318.933 335.834 318.959 334.678 319.002 333.537H321.859C321.917 334.42 322.015 335.605 322.183 337.002Z" fill="#18D1DD"/>
<path fill-rule="evenodd" clip-rule="evenodd" d="M322.563 339.703H318.959C318.938 338.91 318.93 338.111 318.93 337.304C318.93 337.202 318.93 337.1 318.93 336.999H322.183C322.285 337.832 322.41 338.739 322.563 339.703Z" fill="#11A1B6"/>
<path fill-rule="evenodd" clip-rule="evenodd" d="M323.573 344.691H319.22C319.176 344.154 319.139 343.61 319.104 343.064C319.081 342.707 319.063 342.347 319.043 341.987H322.972C323.149 342.861 323.347 343.764 323.573 344.691Z" fill="#11A1B6"/>
<path fill-rule="evenodd" clip-rule="evenodd" d="M338.147 365.47H324.291C323.96 364.831 323.641 364.151 323.334 363.434C323.241 363.216 323.148 362.995 323.059 362.768H333.577C334.937 363.861 336.457 364.781 338.147 365.47Z" fill="#11A1B6"/>
<path fill-rule="evenodd" clip-rule="evenodd" d="M1.3804 119.192H49.3175C50.0802 119.192 50.695 118.573 50.695 117.812C50.695 117.048 50.0773 116.432 49.3175 116.432H1.3804C0.617702 116.432 0 117.051 0 117.812C0 118.573 0.614802 119.192 1.3804 119.192ZM69.8612 107.758H75.5684C76.3282 107.758 76.9459 107.139 76.9459 106.375C76.9488 105.611 76.3282 104.995 75.5655 104.995H69.8583C69.0985 104.995 68.4808 105.614 68.4808 106.375C68.4837 107.139 69.0985 107.758 69.8612 107.758ZM60.732 119.192H65.2966C66.0564 119.192 66.6741 118.573 66.6741 117.812C66.6741 117.048 66.0564 116.432 65.2937 116.432H60.7291C59.9664 116.432 59.3486 117.051 59.3486 117.812C59.3515 118.573 59.9664 119.192 60.732 119.192ZM10.5096 107.758H60.732C61.4918 107.758 62.1095 107.139 62.1095 106.375C62.1095 105.611 61.4918 104.995 60.7291 104.995H10.5067C9.74692 104.995 9.12632 105.614 9.12632 106.375C9.12922 107.139 9.74693 107.758 10.5096 107.758Z" fill="#1BA8BB"/>
<path fill-rule="evenodd" clip-rule="evenodd" d="M205.099 52.2883H253.036C253.799 52.2883 254.417 51.6696 254.417 50.9085C254.417 50.1445 253.799 49.5287 253.036 49.5287H205.099C204.336 49.5287 203.719 50.1474 203.719 50.9085C203.719 51.6696 204.334 52.2883 205.099 52.2883ZM273.58 40.8546H279.287C280.047 40.8546 280.665 40.2358 280.665 39.4719C280.668 38.7079 280.047 38.092 279.284 38.092L273.577 38.0891C272.817 38.0891 272.197 38.7079 272.197 39.4719C272.202 40.2388 272.82 40.8546 273.58 40.8546ZM264.451 52.2883H269.015C269.775 52.2883 270.393 51.6696 270.393 50.9085C270.393 50.1445 269.775 49.5287 269.012 49.5287H264.448C263.685 49.5287 263.067 50.1474 263.067 50.9085C263.073 51.6696 263.685 52.2883 264.451 52.2883ZM214.228 40.8546H264.451C265.211 40.8546 265.828 40.2358 265.828 39.4719C265.828 38.7079 265.211 38.092 264.451 38.092L214.228 38.0891C213.469 38.0891 212.848 38.7079 212.848 39.4719C212.848 40.2388 213.466 40.8546 214.228 40.8546Z" fill="#1BA8BB"/>
<path fill-rule="evenodd" clip-rule="evenodd" d="M308.298 199.105H356.236C356.998 199.105 357.616 198.487 357.616 197.726C357.616 196.962 356.998 196.346 356.236 196.346H308.298C307.536 196.346 306.918 196.965 306.918 197.726C306.921 198.487 307.536 199.105 308.298 199.105ZM376.782 187.675H382.489C383.249 187.675 383.867 187.056 383.867 186.292C383.87 185.528 383.249 184.912 382.486 184.912L376.779 184.909C376.019 184.909 375.399 185.528 375.399 186.292C375.405 187.056 376.019 187.675 376.782 187.675ZM367.653 199.105H372.217C372.977 199.105 373.595 198.487 373.595 197.726C373.595 196.962 372.977 196.346 372.215 196.346H367.65C366.887 196.346 366.27 196.965 366.27 197.726C366.272 198.487 366.887 199.105 367.653 199.105ZM317.43 187.675H367.653C368.413 187.675 369.03 187.056 369.03 186.292C369.03 185.528 368.413 184.912 367.65 184.912L317.428 184.909C316.668 184.909 316.05 185.528 316.05 186.292C316.05 187.056 316.668 187.675 317.43 187.675Z" fill="#1BA8BB"/>
<path fill-rule="evenodd" clip-rule="evenodd" d="M108.884 39.7048C108.432 45.9272 107.516 46.787 101.594 47.2663C107.516 47.7456 108.432 48.6026 108.884 54.8278C109.337 48.6055 110.253 47.7456 116.175 47.2663C110.253 46.7841 109.337 45.9272 108.884 39.7048ZM132.96 56.1176C132.72 59.4408 132.229 59.8969 129.068 60.1525C132.229 60.4082 132.72 60.8671 132.96 64.1904C133.201 60.8671 133.691 60.4082 136.855 60.1525C133.691 59.8969 133.201 59.4379 132.96 56.1176ZM122.416 30.5457C122.172 33.9095 121.676 34.3743 118.475 34.6329C121.676 34.8914 122.172 35.3562 122.416 38.7201C122.659 35.3562 123.155 34.8914 126.36 34.6329C123.158 34.3772 122.662 33.9124 122.416 30.5457Z" fill="white"/>
<path fill-rule="evenodd" clip-rule="evenodd" d="M69.6539 233.546C69.2015 239.769 68.2851 240.629 62.3633 241.108C68.2851 241.587 69.2015 242.444 69.6539 248.669C70.1063 242.447 71.0227 241.587 76.9445 241.108C71.0227 240.629 70.1063 239.769 69.6539 233.546ZM93.7298 249.959C93.4891 253.282 92.999 253.738 89.838 253.994C92.999 254.25 93.4891 254.709 93.7298 258.032C93.9705 254.709 94.4606 254.25 97.6245 253.994C94.4606 253.738 93.9734 253.279 93.7298 249.959ZM83.1882 224.387C82.9446 227.751 82.4487 228.216 79.2471 228.474C82.4487 228.733 82.9446 229.198 83.1882 232.562C83.4318 229.198 83.9277 228.733 87.1322 228.474C83.9277 228.219 83.4318 227.754 83.1882 224.387Z" fill="white"/>
<path fill-rule="evenodd" clip-rule="evenodd" d="M325.951 215.001C325.498 221.224 324.582 222.083 318.66 222.563C324.582 223.042 325.498 223.899 325.951 230.124C326.403 223.902 327.32 223.042 333.241 222.563C327.32 222.083 326.403 221.224 325.951 215.001ZM350.027 231.414C349.786 234.737 349.296 235.193 346.135 235.449C349.296 235.705 349.786 236.164 350.027 239.487C350.267 236.164 350.757 235.705 353.921 235.449C350.757 235.193 350.267 234.734 350.027 231.414ZM339.482 205.842C339.239 209.206 338.743 209.671 335.541 209.929C338.743 210.188 339.239 210.653 339.482 214.016C339.726 210.653 340.222 210.188 343.426 209.929C340.222 209.674 339.726 209.209 339.482 205.842Z" fill="white"/>
</g>
<path d="M112.479 452.099C112.479 452.333 112.438 452.532 112.355 452.696C112.285 452.86 112.186 452.995 112.057 453.101C111.939 453.206 111.805 453.282 111.652 453.329C111.5 453.376 111.348 453.4 111.195 453.4H110.229C109.924 453.4 109.654 453.37 109.42 453.312C109.197 453.241 108.98 453.124 108.77 452.96C108.57 452.784 108.365 452.55 108.154 452.257C107.955 451.964 107.732 451.589 107.486 451.132L100.314 438.194C99.9395 437.526 99.5586 436.829 99.1719 436.103C98.7969 435.364 98.4453 434.65 98.1172 433.958H98.082C98.1055 434.802 98.123 435.663 98.1348 436.542C98.1465 437.421 98.1523 438.294 98.1523 439.161V452.89C98.1523 452.972 98.1289 453.054 98.082 453.136C98.0352 453.206 97.9531 453.265 97.8359 453.312C97.7305 453.347 97.584 453.376 97.3965 453.4C97.2207 453.435 96.9922 453.452 96.7109 453.452C96.4297 453.452 96.1953 453.435 96.0078 453.4C95.832 453.376 95.6914 453.347 95.5859 453.312C95.4805 453.265 95.4043 453.206 95.3574 453.136C95.3105 453.054 95.2871 452.972 95.2871 452.89V431.901C95.2871 431.433 95.416 431.099 95.6738 430.9C95.9316 430.7 96.2129 430.601 96.5176 430.601H97.959C98.2988 430.601 98.5801 430.63 98.8027 430.689C99.0371 430.747 99.2422 430.847 99.418 430.987C99.6055 431.116 99.7812 431.304 99.9453 431.55C100.121 431.784 100.309 432.083 100.508 432.446L106.027 442.431C106.367 443.04 106.695 443.638 107.012 444.224C107.328 444.798 107.633 445.366 107.926 445.929C108.219 446.491 108.506 447.048 108.787 447.599C109.08 448.138 109.367 448.683 109.648 449.234H109.666C109.643 448.308 109.625 447.347 109.613 446.351C109.613 445.343 109.613 444.376 109.613 443.45V431.11C109.613 431.028 109.637 430.952 109.684 430.882C109.73 430.812 109.807 430.753 109.912 430.706C110.029 430.648 110.176 430.607 110.352 430.583C110.539 430.56 110.779 430.548 111.072 430.548C111.33 430.548 111.553 430.56 111.74 430.583C111.928 430.607 112.074 430.648 112.18 430.706C112.285 430.753 112.361 430.812 112.408 430.882C112.455 430.952 112.479 431.028 112.479 431.11V452.099ZM132.904 444.821C132.904 446.11 132.734 447.3 132.395 448.39C132.055 449.468 131.545 450.4 130.865 451.185C130.197 451.97 129.354 452.585 128.334 453.03C127.326 453.464 126.154 453.681 124.818 453.681C123.518 453.681 122.381 453.487 121.408 453.101C120.447 452.714 119.645 452.151 119 451.413C118.355 450.675 117.875 449.778 117.559 448.724C117.242 447.669 117.084 446.474 117.084 445.138C117.084 443.849 117.248 442.665 117.576 441.587C117.916 440.497 118.42 439.56 119.088 438.775C119.768 437.989 120.611 437.38 121.619 436.946C122.627 436.513 123.805 436.296 125.152 436.296C126.453 436.296 127.584 436.489 128.545 436.876C129.518 437.263 130.326 437.825 130.971 438.564C131.615 439.302 132.096 440.198 132.412 441.253C132.74 442.308 132.904 443.497 132.904 444.821ZM129.846 445.015C129.846 444.159 129.764 443.351 129.6 442.589C129.447 441.827 129.189 441.159 128.826 440.585C128.463 440.011 127.971 439.56 127.35 439.232C126.729 438.892 125.955 438.722 125.029 438.722C124.174 438.722 123.436 438.874 122.814 439.179C122.205 439.484 121.701 439.917 121.303 440.48C120.904 441.03 120.605 441.687 120.406 442.448C120.219 443.21 120.125 444.042 120.125 444.944C120.125 445.812 120.201 446.626 120.354 447.388C120.518 448.15 120.781 448.818 121.145 449.392C121.52 449.954 122.018 450.405 122.639 450.745C123.26 451.073 124.033 451.237 124.959 451.237C125.803 451.237 126.535 451.085 127.156 450.78C127.777 450.476 128.287 450.048 128.686 449.497C129.084 448.946 129.377 448.29 129.564 447.528C129.752 446.767 129.846 445.929 129.846 445.015ZM168.799 452.907C168.799 453.001 168.775 453.083 168.729 453.153C168.682 453.212 168.605 453.265 168.5 453.312C168.395 453.359 168.248 453.394 168.061 453.417C167.873 453.441 167.639 453.452 167.357 453.452C167.064 453.452 166.824 453.441 166.637 453.417C166.449 453.394 166.297 453.359 166.18 453.312C166.074 453.265 165.998 453.212 165.951 453.153C165.904 453.083 165.881 453.001 165.881 452.907V443.292C165.881 442.624 165.822 442.015 165.705 441.464C165.588 440.913 165.4 440.439 165.143 440.04C164.885 439.642 164.557 439.337 164.158 439.126C163.76 438.915 163.291 438.81 162.752 438.81C162.084 438.81 161.41 439.068 160.73 439.583C160.062 440.099 159.324 440.855 158.516 441.851V452.907C158.516 453.001 158.492 453.083 158.445 453.153C158.398 453.212 158.316 453.265 158.199 453.312C158.094 453.359 157.947 453.394 157.76 453.417C157.572 453.441 157.338 453.452 157.057 453.452C156.787 453.452 156.553 453.441 156.354 453.417C156.166 453.394 156.014 453.359 155.896 453.312C155.791 453.265 155.715 453.212 155.668 453.153C155.633 453.083 155.615 453.001 155.615 452.907V443.292C155.615 442.624 155.551 442.015 155.422 441.464C155.293 440.913 155.1 440.439 154.842 440.04C154.584 439.642 154.256 439.337 153.857 439.126C153.471 438.915 153.008 438.81 152.469 438.81C151.801 438.81 151.127 439.068 150.447 439.583C149.768 440.099 149.029 440.855 148.232 441.851V452.907C148.232 453.001 148.209 453.083 148.162 453.153C148.115 453.212 148.039 453.265 147.934 453.312C147.828 453.359 147.682 453.394 147.494 453.417C147.307 453.441 147.066 453.452 146.773 453.452C146.492 453.452 146.258 453.441 146.07 453.417C145.883 453.394 145.73 453.359 145.613 453.312C145.508 453.265 145.432 453.212 145.385 453.153C145.35 453.083 145.332 453.001 145.332 452.907V437.087C145.332 436.993 145.35 436.917 145.385 436.859C145.42 436.788 145.49 436.73 145.596 436.683C145.701 436.624 145.836 436.589 146 436.577C146.164 436.554 146.381 436.542 146.65 436.542C146.908 436.542 147.119 436.554 147.283 436.577C147.459 436.589 147.594 436.624 147.688 436.683C147.781 436.73 147.846 436.788 147.881 436.859C147.928 436.917 147.951 436.993 147.951 437.087V439.179C148.842 438.183 149.703 437.456 150.535 436.999C151.379 436.53 152.229 436.296 153.084 436.296C153.74 436.296 154.326 436.372 154.842 436.525C155.369 436.677 155.832 436.894 156.23 437.175C156.629 437.444 156.969 437.773 157.25 438.159C157.531 438.534 157.766 438.956 157.953 439.425C158.48 438.851 158.979 438.364 159.447 437.966C159.928 437.568 160.385 437.245 160.818 436.999C161.264 436.753 161.691 436.577 162.102 436.472C162.523 436.355 162.945 436.296 163.367 436.296C164.387 436.296 165.242 436.478 165.934 436.841C166.625 437.193 167.182 437.667 167.604 438.265C168.037 438.862 168.342 439.566 168.518 440.374C168.705 441.171 168.799 442.015 168.799 442.905V452.907ZM187.59 444.312C187.59 444.769 187.473 445.097 187.238 445.296C187.016 445.484 186.758 445.577 186.465 445.577H176.094C176.094 446.456 176.182 447.247 176.357 447.95C176.533 448.653 176.826 449.257 177.236 449.761C177.646 450.265 178.18 450.651 178.836 450.921C179.492 451.191 180.295 451.325 181.244 451.325C181.994 451.325 182.662 451.267 183.248 451.15C183.834 451.021 184.338 450.88 184.76 450.728C185.193 450.575 185.545 450.441 185.814 450.323C186.096 450.194 186.307 450.13 186.447 450.13C186.529 450.13 186.6 450.153 186.658 450.2C186.729 450.235 186.781 450.294 186.816 450.376C186.852 450.458 186.875 450.575 186.887 450.728C186.91 450.868 186.922 451.044 186.922 451.255C186.922 451.407 186.916 451.542 186.904 451.659C186.893 451.765 186.875 451.864 186.852 451.958C186.84 452.04 186.811 452.116 186.764 452.187C186.729 452.257 186.676 452.327 186.605 452.398C186.547 452.456 186.359 452.562 186.043 452.714C185.727 452.855 185.316 452.995 184.812 453.136C184.309 453.276 183.723 453.4 183.055 453.505C182.398 453.622 181.695 453.681 180.945 453.681C179.645 453.681 178.502 453.499 177.518 453.136C176.545 452.773 175.725 452.234 175.057 451.519C174.389 450.804 173.885 449.907 173.545 448.829C173.205 447.751 173.035 446.497 173.035 445.068C173.035 443.708 173.211 442.489 173.562 441.411C173.914 440.321 174.418 439.401 175.074 438.651C175.742 437.89 176.545 437.31 177.482 436.911C178.42 436.501 179.469 436.296 180.629 436.296C181.871 436.296 182.926 436.495 183.793 436.894C184.672 437.292 185.393 437.831 185.955 438.511C186.518 439.179 186.928 439.97 187.186 440.884C187.455 441.786 187.59 442.753 187.59 443.784V444.312ZM184.672 443.45C184.707 441.927 184.367 440.732 183.652 439.864C182.949 438.997 181.9 438.564 180.506 438.564C179.791 438.564 179.164 438.698 178.625 438.968C178.086 439.237 177.635 439.595 177.271 440.04C176.908 440.485 176.627 441.007 176.428 441.605C176.229 442.191 176.117 442.806 176.094 443.45H184.672ZM215.486 452.907C215.486 453.001 215.463 453.083 215.416 453.153C215.369 453.212 215.293 453.265 215.188 453.312C215.082 453.359 214.936 453.394 214.748 453.417C214.561 453.441 214.326 453.452 214.045 453.452C213.752 453.452 213.512 453.441 213.324 453.417C213.137 453.394 212.984 453.359 212.867 453.312C212.762 453.265 212.686 453.212 212.639 453.153C212.592 453.083 212.568 453.001 212.568 452.907V443.292C212.568 442.624 212.51 442.015 212.393 441.464C212.275 440.913 212.088 440.439 211.83 440.04C211.572 439.642 211.244 439.337 210.846 439.126C210.447 438.915 209.979 438.81 209.439 438.81C208.771 438.81 208.098 439.068 207.418 439.583C206.75 440.099 206.012 440.855 205.203 441.851V452.907C205.203 453.001 205.18 453.083 205.133 453.153C205.086 453.212 205.004 453.265 204.887 453.312C204.781 453.359 204.635 453.394 204.447 453.417C204.26 453.441 204.025 453.452 203.744 453.452C203.475 453.452 203.24 453.441 203.041 453.417C202.854 453.394 202.701 453.359 202.584 453.312C202.479 453.265 202.402 453.212 202.355 453.153C202.32 453.083 202.303 453.001 202.303 452.907V443.292C202.303 442.624 202.238 442.015 202.109 441.464C201.98 440.913 201.787 440.439 201.529 440.04C201.271 439.642 200.943 439.337 200.545 439.126C200.158 438.915 199.695 438.81 199.156 438.81C198.488 438.81 197.814 439.068 197.135 439.583C196.455 440.099 195.717 440.855 194.92 441.851V452.907C194.92 453.001 194.896 453.083 194.85 453.153C194.803 453.212 194.727 453.265 194.621 453.312C194.516 453.359 194.369 453.394 194.182 453.417C193.994 453.441 193.754 453.452 193.461 453.452C193.18 453.452 192.945 453.441 192.758 453.417C192.57 453.394 192.418 453.359 192.301 453.312C192.195 453.265 192.119 453.212 192.072 453.153C192.037 453.083 192.02 453.001 192.02 452.907V437.087C192.02 436.993 192.037 436.917 192.072 436.859C192.107 436.788 192.178 436.73 192.283 436.683C192.389 436.624 192.523 436.589 192.688 436.577C192.852 436.554 193.068 436.542 193.338 436.542C193.596 436.542 193.807 436.554 193.971 436.577C194.146 436.589 194.281 436.624 194.375 436.683C194.469 436.73 194.533 436.788 194.568 436.859C194.615 436.917 194.639 436.993 194.639 437.087V439.179C195.529 438.183 196.391 437.456 197.223 436.999C198.066 436.53 198.916 436.296 199.771 436.296C200.428 436.296 201.014 436.372 201.529 436.525C202.057 436.677 202.52 436.894 202.918 437.175C203.316 437.444 203.656 437.773 203.938 438.159C204.219 438.534 204.453 438.956 204.641 439.425C205.168 438.851 205.666 438.364 206.135 437.966C206.615 437.568 207.072 437.245 207.506 436.999C207.951 436.753 208.379 436.577 208.789 436.472C209.211 436.355 209.633 436.296 210.055 436.296C211.074 436.296 211.93 436.478 212.621 436.841C213.312 437.193 213.869 437.667 214.291 438.265C214.725 438.862 215.029 439.566 215.205 440.374C215.393 441.171 215.486 442.015 215.486 442.905V452.907ZM235.332 444.786C235.332 446.157 235.18 447.394 234.875 448.495C234.582 449.585 234.143 450.517 233.557 451.29C232.982 452.064 232.273 452.655 231.43 453.066C230.586 453.476 229.619 453.681 228.529 453.681C228.025 453.681 227.557 453.628 227.123 453.523C226.701 453.429 226.285 453.271 225.875 453.048C225.465 452.825 225.055 452.544 224.645 452.204C224.234 451.864 223.801 451.454 223.344 450.974V452.907C223.344 453.001 223.32 453.083 223.273 453.153C223.227 453.224 223.15 453.282 223.045 453.329C222.939 453.364 222.805 453.394 222.641 453.417C222.488 453.441 222.289 453.452 222.043 453.452C221.809 453.452 221.609 453.441 221.445 453.417C221.281 453.394 221.146 453.364 221.041 453.329C220.936 453.282 220.865 453.224 220.83 453.153C220.795 453.083 220.777 453.001 220.777 452.907V429.423C220.777 429.329 220.795 429.247 220.83 429.177C220.877 429.107 220.953 429.048 221.059 429.001C221.176 428.954 221.328 428.919 221.516 428.896C221.703 428.872 221.938 428.86 222.219 428.86C222.512 428.86 222.752 428.872 222.939 428.896C223.127 428.919 223.273 428.954 223.379 429.001C223.484 429.048 223.561 429.107 223.607 429.177C223.654 429.247 223.678 429.329 223.678 429.423V438.898C224.146 438.417 224.598 438.013 225.031 437.685C225.477 437.357 225.91 437.093 226.332 436.894C226.754 436.683 227.176 436.53 227.598 436.437C228.02 436.343 228.465 436.296 228.934 436.296C230.082 436.296 231.061 436.525 231.869 436.982C232.689 437.439 233.352 438.054 233.855 438.827C234.371 439.589 234.746 440.485 234.98 441.517C235.215 442.548 235.332 443.638 235.332 444.786ZM232.273 445.12C232.273 444.312 232.209 443.526 232.08 442.765C231.963 442.003 231.752 441.329 231.447 440.743C231.143 440.157 230.738 439.689 230.234 439.337C229.73 438.974 229.104 438.792 228.354 438.792C227.979 438.792 227.609 438.845 227.246 438.95C226.883 439.056 226.514 439.232 226.139 439.478C225.764 439.724 225.371 440.04 224.961 440.427C224.562 440.814 224.135 441.3 223.678 441.886V448.196C224.475 449.169 225.236 449.913 225.963 450.429C226.689 450.933 227.445 451.185 228.23 451.185C228.957 451.185 229.578 451.009 230.094 450.657C230.609 450.306 231.025 449.843 231.342 449.269C231.67 448.683 231.904 448.032 232.045 447.318C232.197 446.591 232.273 445.859 232.273 445.12ZM253.191 444.312C253.191 444.769 253.074 445.097 252.84 445.296C252.617 445.484 252.359 445.577 252.066 445.577H241.695C241.695 446.456 241.783 447.247 241.959 447.95C242.135 448.653 242.428 449.257 242.838 449.761C243.248 450.265 243.781 450.651 244.438 450.921C245.094 451.191 245.896 451.325 246.846 451.325C247.596 451.325 248.264 451.267 248.85 451.15C249.436 451.021 249.939 450.88 250.361 450.728C250.795 450.575 251.146 450.441 251.416 450.323C251.697 450.194 251.908 450.13 252.049 450.13C252.131 450.13 252.201 450.153 252.26 450.2C252.33 450.235 252.383 450.294 252.418 450.376C252.453 450.458 252.477 450.575 252.488 450.728C252.512 450.868 252.523 451.044 252.523 451.255C252.523 451.407 252.518 451.542 252.506 451.659C252.494 451.765 252.477 451.864 252.453 451.958C252.441 452.04 252.412 452.116 252.365 452.187C252.33 452.257 252.277 452.327 252.207 452.398C252.148 452.456 251.961 452.562 251.645 452.714C251.328 452.855 250.918 452.995 250.414 453.136C249.91 453.276 249.324 453.4 248.656 453.505C248 453.622 247.297 453.681 246.547 453.681C245.246 453.681 244.104 453.499 243.119 453.136C242.146 452.773 241.326 452.234 240.658 451.519C239.99 450.804 239.486 449.907 239.146 448.829C238.807 447.751 238.637 446.497 238.637 445.068C238.637 443.708 238.812 442.489 239.164 441.411C239.516 440.321 240.02 439.401 240.676 438.651C241.344 437.89 242.146 437.31 243.084 436.911C244.021 436.501 245.07 436.296 246.23 436.296C247.473 436.296 248.527 436.495 249.395 436.894C250.273 437.292 250.994 437.831 251.557 438.511C252.119 439.179 252.529 439.97 252.787 440.884C253.057 441.786 253.191 442.753 253.191 443.784V444.312ZM250.273 443.45C250.309 441.927 249.969 440.732 249.254 439.864C248.551 438.997 247.502 438.564 246.107 438.564C245.393 438.564 244.766 438.698 244.227 438.968C243.688 439.237 243.236 439.595 242.873 440.04C242.51 440.485 242.229 441.007 242.029 441.605C241.83 442.191 241.719 442.806 241.695 443.45H250.273ZM266.867 438.124C266.867 438.382 266.861 438.599 266.85 438.775C266.838 438.95 266.814 439.091 266.779 439.196C266.744 439.29 266.697 439.366 266.639 439.425C266.592 439.472 266.521 439.495 266.428 439.495C266.334 439.495 266.217 439.472 266.076 439.425C265.947 439.366 265.795 439.314 265.619 439.267C265.455 439.208 265.268 439.155 265.057 439.109C264.846 439.062 264.617 439.038 264.371 439.038C264.078 439.038 263.791 439.097 263.51 439.214C263.229 439.331 262.93 439.525 262.613 439.794C262.309 440.064 261.986 440.421 261.646 440.866C261.307 441.312 260.932 441.857 260.521 442.501V452.907C260.521 453.001 260.498 453.083 260.451 453.153C260.404 453.212 260.328 453.265 260.223 453.312C260.117 453.359 259.971 453.394 259.783 453.417C259.596 453.441 259.355 453.452 259.062 453.452C258.781 453.452 258.547 453.441 258.359 453.417C258.172 453.394 258.02 453.359 257.902 453.312C257.797 453.265 257.721 453.212 257.674 453.153C257.639 453.083 257.621 453.001 257.621 452.907V437.087C257.621 436.993 257.639 436.917 257.674 436.859C257.709 436.788 257.779 436.73 257.885 436.683C257.99 436.624 258.125 436.589 258.289 436.577C258.453 436.554 258.67 436.542 258.939 436.542C259.197 436.542 259.408 436.554 259.572 436.577C259.748 436.589 259.883 436.624 259.977 436.683C260.07 436.73 260.135 436.788 260.17 436.859C260.217 436.917 260.24 436.993 260.24 437.087V439.39C260.674 438.757 261.078 438.241 261.453 437.843C261.84 437.444 262.203 437.134 262.543 436.911C262.883 436.677 263.217 436.519 263.545 436.437C263.885 436.343 264.225 436.296 264.564 436.296C264.717 436.296 264.887 436.308 265.074 436.331C265.273 436.343 265.479 436.372 265.689 436.419C265.9 436.466 266.088 436.519 266.252 436.577C266.428 436.636 266.551 436.694 266.621 436.753C266.691 436.812 266.738 436.87 266.762 436.929C266.785 436.976 266.803 437.04 266.814 437.122C266.838 437.204 266.85 437.327 266.85 437.491C266.861 437.644 266.867 437.855 266.867 438.124ZM279.471 448.601C279.471 449.409 279.318 450.13 279.014 450.763C278.721 451.396 278.299 451.929 277.748 452.362C277.197 452.796 276.541 453.124 275.779 453.347C275.018 453.569 274.18 453.681 273.266 453.681C272.703 453.681 272.164 453.634 271.648 453.54C271.145 453.458 270.688 453.353 270.277 453.224C269.879 453.083 269.539 452.943 269.258 452.802C268.977 452.65 268.771 452.515 268.643 452.398C268.514 452.28 268.42 452.116 268.361 451.905C268.303 451.694 268.273 451.407 268.273 451.044C268.273 450.821 268.285 450.634 268.309 450.482C268.332 450.329 268.361 450.206 268.396 450.112C268.432 450.019 268.479 449.954 268.537 449.919C268.607 449.872 268.684 449.849 268.766 449.849C268.895 449.849 269.082 449.931 269.328 450.095C269.586 450.247 269.896 450.417 270.26 450.605C270.635 450.792 271.074 450.968 271.578 451.132C272.082 451.284 272.662 451.36 273.318 451.36C273.811 451.36 274.256 451.308 274.654 451.202C275.053 451.097 275.398 450.944 275.691 450.745C275.984 450.534 276.207 450.271 276.359 449.954C276.523 449.638 276.605 449.263 276.605 448.829C276.605 448.384 276.488 448.009 276.254 447.704C276.031 447.4 275.732 447.13 275.357 446.896C274.982 446.661 274.561 446.456 274.092 446.28C273.623 446.093 273.137 445.9 272.633 445.7C272.141 445.501 271.654 445.278 271.174 445.032C270.705 444.775 270.283 444.464 269.908 444.101C269.533 443.737 269.229 443.304 268.994 442.8C268.771 442.296 268.66 441.693 268.66 440.989C268.66 440.368 268.777 439.776 269.012 439.214C269.258 438.64 269.621 438.142 270.102 437.72C270.582 437.286 271.18 436.941 271.895 436.683C272.621 436.425 273.465 436.296 274.426 436.296C274.848 436.296 275.27 436.331 275.691 436.401C276.113 436.472 276.494 436.56 276.834 436.665C277.174 436.771 277.461 436.888 277.695 437.017C277.941 437.134 278.123 437.239 278.24 437.333C278.369 437.427 278.451 437.509 278.486 437.579C278.533 437.65 278.562 437.732 278.574 437.825C278.598 437.907 278.615 438.013 278.627 438.142C278.65 438.271 278.662 438.429 278.662 438.616C278.662 438.816 278.65 438.991 278.627 439.144C278.615 439.284 278.586 439.401 278.539 439.495C278.504 439.589 278.457 439.659 278.398 439.706C278.34 439.741 278.275 439.759 278.205 439.759C278.1 439.759 277.947 439.694 277.748 439.566C277.549 439.437 277.291 439.302 276.975 439.161C276.658 439.009 276.283 438.868 275.85 438.739C275.428 438.61 274.941 438.546 274.391 438.546C273.898 438.546 273.465 438.605 273.09 438.722C272.715 438.827 272.404 438.985 272.158 439.196C271.924 439.396 271.742 439.636 271.613 439.917C271.496 440.198 271.438 440.503 271.438 440.831C271.438 441.288 271.555 441.675 271.789 441.991C272.023 442.296 272.328 442.566 272.703 442.8C273.078 443.034 273.506 443.245 273.986 443.433C274.467 443.62 274.953 443.814 275.445 444.013C275.949 444.212 276.441 444.435 276.922 444.681C277.414 444.927 277.848 445.226 278.223 445.577C278.598 445.929 278.896 446.351 279.119 446.843C279.354 447.335 279.471 447.921 279.471 448.601ZM299 453.347L296.891 459.165C296.82 459.353 296.639 459.493 296.346 459.587C296.064 459.693 295.631 459.745 295.045 459.745C294.74 459.745 294.494 459.728 294.307 459.693C294.119 459.669 293.973 459.622 293.867 459.552C293.773 459.482 293.721 459.388 293.709 459.271C293.697 459.153 293.727 459.013 293.797 458.849L295.977 453.347C295.871 453.3 295.771 453.224 295.678 453.118C295.584 453.013 295.52 452.901 295.484 452.784L289.842 437.667C289.748 437.421 289.701 437.228 289.701 437.087C289.701 436.946 289.748 436.835 289.842 436.753C289.936 436.671 290.088 436.618 290.299 436.595C290.51 436.56 290.791 436.542 291.143 436.542C291.494 436.542 291.77 436.554 291.969 436.577C292.168 436.589 292.326 436.618 292.443 436.665C292.561 436.712 292.643 436.782 292.689 436.876C292.748 436.958 292.807 437.075 292.865 437.228L297.383 449.919H297.436L301.795 437.157C301.865 436.935 301.947 436.794 302.041 436.735C302.146 436.665 302.299 436.618 302.498 436.595C302.697 436.56 302.984 436.542 303.359 436.542C303.688 436.542 303.957 436.56 304.168 436.595C304.379 436.618 304.531 436.671 304.625 436.753C304.73 436.835 304.783 436.946 304.783 437.087C304.783 437.228 304.748 437.403 304.678 437.614L299 453.347ZM321.148 444.312C321.148 444.769 321.031 445.097 320.797 445.296C320.574 445.484 320.316 445.577 320.023 445.577H309.652C309.652 446.456 309.74 447.247 309.916 447.95C310.092 448.653 310.385 449.257 310.795 449.761C311.205 450.265 311.738 450.651 312.395 450.921C313.051 451.191 313.854 451.325 314.803 451.325C315.553 451.325 316.221 451.267 316.807 451.15C317.393 451.021 317.896 450.88 318.318 450.728C318.752 450.575 319.104 450.441 319.373 450.323C319.654 450.194 319.865 450.13 320.006 450.13C320.088 450.13 320.158 450.153 320.217 450.2C320.287 450.235 320.34 450.294 320.375 450.376C320.41 450.458 320.434 450.575 320.445 450.728C320.469 450.868 320.48 451.044 320.48 451.255C320.48 451.407 320.475 451.542 320.463 451.659C320.451 451.765 320.434 451.864 320.41 451.958C320.398 452.04 320.369 452.116 320.322 452.187C320.287 452.257 320.234 452.327 320.164 452.398C320.105 452.456 319.918 452.562 319.602 452.714C319.285 452.855 318.875 452.995 318.371 453.136C317.867 453.276 317.281 453.4 316.613 453.505C315.957 453.622 315.254 453.681 314.504 453.681C313.203 453.681 312.061 453.499 311.076 453.136C310.104 452.773 309.283 452.234 308.615 451.519C307.947 450.804 307.443 449.907 307.104 448.829C306.764 447.751 306.594 446.497 306.594 445.068C306.594 443.708 306.77 442.489 307.121 441.411C307.473 440.321 307.977 439.401 308.633 438.651C309.301 437.89 310.104 437.31 311.041 436.911C311.979 436.501 313.027 436.296 314.188 436.296C315.43 436.296 316.484 436.495 317.352 436.894C318.23 437.292 318.951 437.831 319.514 438.511C320.076 439.179 320.486 439.97 320.744 440.884C321.014 441.786 321.148 442.753 321.148 443.784V444.312ZM318.23 443.45C318.266 441.927 317.926 440.732 317.211 439.864C316.508 438.997 315.459 438.564 314.064 438.564C313.35 438.564 312.723 438.698 312.184 438.968C311.645 439.237 311.193 439.595 310.83 440.04C310.467 440.485 310.186 441.007 309.986 441.605C309.787 442.191 309.676 442.806 309.652 443.45H318.23ZM333.594 451.747C333.594 452.087 333.57 452.357 333.523 452.556C333.477 452.755 333.406 452.901 333.312 452.995C333.219 453.089 333.078 453.177 332.891 453.259C332.703 453.341 332.486 453.405 332.24 453.452C332.006 453.511 331.754 453.558 331.484 453.593C331.215 453.628 330.945 453.646 330.676 453.646C329.855 453.646 329.152 453.54 328.566 453.329C327.98 453.107 327.5 452.778 327.125 452.345C326.75 451.9 326.475 451.343 326.299 450.675C326.135 449.995 326.053 449.198 326.053 448.284V439.038H323.838C323.662 439.038 323.521 438.944 323.416 438.757C323.311 438.569 323.258 438.265 323.258 437.843C323.258 437.62 323.27 437.433 323.293 437.28C323.328 437.128 323.369 437.005 323.416 436.911C323.463 436.806 323.521 436.735 323.592 436.7C323.674 436.653 323.762 436.63 323.855 436.63H326.053V432.868C326.053 432.786 326.07 432.71 326.105 432.64C326.152 432.569 326.229 432.511 326.334 432.464C326.451 432.405 326.604 432.364 326.791 432.341C326.979 432.318 327.213 432.306 327.494 432.306C327.787 432.306 328.027 432.318 328.215 432.341C328.402 432.364 328.549 432.405 328.654 432.464C328.76 432.511 328.836 432.569 328.883 432.64C328.93 432.71 328.953 432.786 328.953 432.868V436.63H333.014C333.107 436.63 333.189 436.653 333.26 436.7C333.33 436.735 333.389 436.806 333.436 436.911C333.494 437.005 333.535 437.128 333.559 437.28C333.582 437.433 333.594 437.62 333.594 437.843C333.594 438.265 333.541 438.569 333.436 438.757C333.33 438.944 333.189 439.038 333.014 439.038H328.953V447.862C328.953 448.952 329.111 449.778 329.428 450.341C329.756 450.892 330.336 451.167 331.168 451.167C331.438 451.167 331.678 451.144 331.889 451.097C332.1 451.038 332.287 450.98 332.451 450.921C332.615 450.862 332.756 450.81 332.873 450.763C332.99 450.704 333.096 450.675 333.189 450.675C333.248 450.675 333.301 450.693 333.348 450.728C333.406 450.751 333.447 450.804 333.471 450.886C333.506 450.968 333.535 451.079 333.559 451.22C333.582 451.36 333.594 451.536 333.594 451.747Z" fill="#1BA8BB"/>
<defs>
<clipPath id="clip0_1341_15156">
<rect width="427" height="375.347" fill="white"/>
</clipPath>
</defs>
</svg>
