<svg width="32" height="40" viewBox="0 0 32 40" fill="none" xmlns="http://www.w3.org/2000/svg">
<g clip-path="url(#clip0_1744_21896)">
<path d="M26.6324 21.1974C26.6869 27.0668 31.7814 29.02 31.8378 29.0449C31.7946 29.1826 31.0237 31.8283 29.1538 34.561C27.5373 36.9237 25.8595 39.2777 23.2166 39.3264C20.6199 39.3743 19.7847 37.7865 16.8157 37.7865C13.8476 37.7865 12.9198 39.2777 10.4615 39.3743C7.91042 39.4708 5.96776 36.8195 4.33794 34.4654C1.00725 29.6504 -1.53802 20.8589 1.87965 14.9246C3.57744 11.9776 6.6117 10.1115 9.90489 10.0637C12.4099 10.0159 14.7745 11.749 16.3059 11.749C17.8363 11.749 20.7097 9.66484 23.7304 9.97089C24.9948 10.0236 28.5446 10.4816 30.8239 13.818C30.6401 13.9318 26.5883 16.2906 26.6324 21.1976M21.7519 6.78527C23.1064 5.14583 24.0179 2.86369 23.7692 0.592773C21.8169 0.67123 19.4563 1.89372 18.056 3.53217C16.801 4.98324 15.702 7.3056 15.9986 9.53149C18.1746 9.69987 20.3974 8.4257 21.7519 6.78527Z" fill="white"/>
</g>
<defs>
<clipPath id="clip0_1744_21896">
<rect width="31.5799" height="38.8581" fill="white" transform="translate(0.257812 0.592773)"/>
</clipPath>
</defs>
</svg>
