<svg width="38" height="38" viewBox="0 0 38 38" fill="none" xmlns="http://www.w3.org/2000/svg">
<g clip-path="url(#clip0_1744_21891)">
<path d="M37.7564 18.9368C37.7564 8.57652 29.3576 0.177734 18.9974 0.177734C8.63707 0.177734 0.238281 8.57652 0.238281 18.9368C0.238281 28.2999 7.09824 36.0608 16.0663 37.468V24.3594H11.3032V18.9368H16.0663V14.804C16.0663 10.1025 18.8669 7.5055 23.1519 7.5055C25.2043 7.5055 27.351 7.87189 27.351 7.87189V12.4884H24.9856C22.6552 12.4884 21.9285 13.9344 21.9285 15.418V18.9368H27.1312L26.2995 24.3594H21.9285V37.468C30.8965 36.0608 37.7564 28.3001 37.7564 18.9368Z" fill="white"/>
</g>
<defs>
<clipPath id="clip0_1744_21891">
<rect width="37.5182" height="37.5182" fill="white" transform="translate(0.238281 0.177734)"/>
</clipPath>
</defs>
</svg>
