<svg width="40" height="39" viewBox="0 0 40 39" fill="none" xmlns="http://www.w3.org/2000/svg">
<path d="M36.2231 16.266H34.9189V16.1988H20.3471V22.6751H29.4974C28.1625 26.4452 24.5754 29.1515 20.3471 29.1515C14.9823 29.1515 10.6326 24.8018 10.6326 19.437C10.6326 14.0721 14.9823 9.72244 20.3471 9.72244C22.8235 9.72244 25.0765 10.6567 26.7919 12.1826L31.3715 7.60306C28.4798 4.90809 24.6118 3.24609 20.3471 3.24609C11.4057 3.24609 4.15625 10.4956 4.15625 19.437C4.15625 28.3784 11.4057 35.6278 20.3471 35.6278C29.2885 35.6278 36.538 28.3784 36.538 19.437C36.538 18.3514 36.4263 17.2917 36.2231 16.266Z" fill="white"/>
<path d="M6.01953 11.9009L11.339 15.8021C12.7784 12.2385 16.2643 9.72244 20.3436 9.72244C22.82 9.72244 25.0729 10.6567 26.7884 12.1826L31.368 7.60306C28.4763 4.90809 24.6083 3.24609 20.3436 3.24609C14.1247 3.24609 8.7315 6.75708 6.01953 11.9009Z" fill="white"/>
<path d="M20.3475 35.6287C24.5296 35.6287 28.3296 34.0282 31.2027 31.4256L26.1916 27.1852C24.5114 28.4629 22.4584 29.154 20.3475 29.1524C16.1363 29.1524 12.5605 26.4671 11.2134 22.7197L5.93359 26.7877C8.61318 32.0311 14.0549 35.6287 20.3475 35.6287Z" fill="white"/>
<path d="M36.2236 16.2684H34.9194V16.2012H20.3477V22.6775H29.4979C28.8594 24.4718 27.7091 26.0397 26.1893 27.1875L26.1918 27.1859L31.2028 31.4263C30.8482 31.7485 36.5385 27.5348 36.5385 19.4393C36.5385 18.3537 36.4268 17.2941 36.2236 16.2684Z" fill="white"/>
</svg>
