<svg width="24" height="25" viewBox="0 0 24 25" fill="none" xmlns="http://www.w3.org/2000/svg">
<g clip-path="url(#clip0_3588_10787)">
<path d="M6.375 20.2344C6.76294 20.2344 7.07812 19.9192 7.07812 19.5312C7.07812 19.1433 6.76294 18.8281 6.375 18.8281C5.98706 18.8281 5.67188 19.1433 5.67188 19.5312C5.67188 19.9192 5.98706 20.2344 6.375 20.2344Z" fill="white"/>
<path d="M2.85938 12.8625C1.11459 14.0305 0 16.0108 0 18.125C0 21.6145 2.88548 24.5 6.375 24.5C9.86452 24.5 12.7031 21.6145 12.7031 18.125C12.7031 16.0108 11.6354 14.0305 9.89062 12.8625V4.0625L6.375 0.5L2.56823 4.35364L3.97448 5.75989L2.56823 7.16614L3.97448 8.57239L2.85938 9.6875V12.8625ZM6.375 17.4219C7.53816 17.4219 8.48438 18.3681 8.48438 19.5312C8.48438 20.6944 7.53816 21.6406 6.375 21.6406C5.21184 21.6406 4.26562 20.6944 4.26562 19.5312C4.26562 18.3681 5.21184 17.4219 6.375 17.4219Z" fill="white"/>
<path d="M14.1096 18.125C14.1096 19.3914 13.7976 20.5844 13.2557 21.6406H24.0002V14.6094H13.2554C13.8039 15.6825 14.1096 16.8805 14.1096 18.125ZM21.1408 17.4219H22.5471V18.8281H21.1408V17.4219ZM18.3283 17.4219H19.7346V18.8281H18.3283V17.4219ZM15.5158 17.4219H16.9221V18.8281H15.5158V17.4219Z" fill="white"/>
<path d="M11.2969 11.7969H22.5469V13.2031H11.2969V11.7969Z" fill="white"/>
<path d="M11.2969 8.98438H14.1094V10.3906H11.2969V8.98438Z" fill="white"/>
<path d="M15.5156 8.98438H18.3281V10.3906H15.5156V8.98438Z" fill="white"/>
<path d="M19.7344 8.98438H22.5469V10.3906H19.7344V8.98438Z" fill="white"/>
</g>
<defs>
<clipPath id="clip0_3588_10787">
<rect width="24" height="24" fill="white" transform="translate(0 0.5)"/>
</clipPath>
</defs>
</svg>
