<svg width="93" height="80" viewBox="0 0 93 80" fill="none" xmlns="http://www.w3.org/2000/svg">
<path fill-rule="evenodd" clip-rule="evenodd" d="M79.2255 79.1598V58.9658C79.2255 52.2342 79.2255 45.5026 79.2272 38.7718C79.2272 37.9682 79.3432 37.8539 80.1597 37.8539H83.6918L85.3623 37.8539H85.3738H85.3739C87.6044 37.8537 89.8345 37.8536 92.0645 37.8557L92.0833 37.8557C92.2697 37.8559 92.4774 37.8561 92.5644 37.6873C92.6599 37.5033 92.5101 37.3766 92.3794 37.2661C92.3722 37.26 92.3651 37.2539 92.358 37.2479C92.3493 37.2404 92.3407 37.2331 92.3323 37.2257C91.9424 36.8828 91.5455 36.5477 91.1486 36.2127C90.9292 36.0273 90.7114 35.84 90.4936 35.6527C89.9578 35.1919 89.4221 34.7312 88.8639 34.3001C88.1588 33.7561 87.4761 33.186 86.7934 32.616C86.4162 32.301 86.039 31.986 85.6581 31.6755C84.9063 31.0626 84.1614 30.4408 83.4166 29.8192C83.0344 29.5001 82.6522 29.1811 82.269 28.8633C81.4901 28.2172 80.7105 27.5722 79.9309 26.9271C79.4576 26.5354 78.9842 26.1438 78.511 25.7519C78.1623 25.463 77.8171 25.1694 77.4719 24.8758L77.4718 24.8757C76.6857 24.2072 75.8996 23.5387 75.0723 22.9257C74.09 22.1972 73.6381 21.3796 73.6591 20.0978C73.7162 16.601 73.7063 13.1032 73.6963 9.6052V9.60509V9.60497C73.6928 8.34875 73.6892 7.0925 73.6887 5.83625C73.6887 5.63382 73.6748 5.43052 73.6538 5.22896C73.5963 4.65832 73.5518 4.61731 72.997 4.61731C69.6542 4.61644 66.3105 4.61644 62.9677 4.61731C62.4347 4.61731 62.3082 4.74383 62.3082 5.27608C62.3074 6.14988 62.3074 7.02369 62.3073 7.8975V7.91198C62.3072 9.01051 62.3071 10.109 62.3056 11.2076C62.3054 11.2387 62.3061 11.2699 62.3067 11.301C62.3094 11.4267 62.312 11.5522 62.2602 11.6787C62.1119 12.0426 61.9654 12.1002 61.6636 11.8628C61.1995 11.4981 60.7424 11.1256 60.2861 10.7504C59.8563 10.3968 59.4275 10.0423 58.9989 9.68785L58.9962 9.68559C58.4271 9.21504 57.8582 8.74461 57.287 8.27673C56.9397 7.99251 56.5901 7.71105 56.2405 7.42965L56.2404 7.42953L56.2402 7.42941L56.2396 7.4289L56.2394 7.42871C55.8274 7.09706 55.4156 6.76548 55.0076 6.42957C54.5827 6.0801 54.1612 5.72645 53.7398 5.37281L53.7396 5.37264C53.3435 5.0403 52.9474 4.70796 52.5485 4.37911C52.0993 4.00843 51.6467 3.64132 51.1942 3.27419C50.8084 2.96121 50.4226 2.64822 50.0388 2.33302C49.7167 2.06859 49.3966 1.80183 49.0765 1.53508L49.0764 1.53503L49.0764 1.53501C48.5452 1.09234 48.0141 0.64973 47.4741 0.21799C47.1801 -0.0167216 46.846 -0.0996125 46.4858 0.160403C45.7871 0.665033 45.1264 1.21695 44.4656 1.76898L44.4655 1.76901C43.9804 2.17433 43.4951 2.57971 42.9947 2.96648C42.3386 3.47335 41.7022 4.00582 41.0658 4.53833C40.6648 4.87391 40.2637 5.20951 39.8577 5.53871C39.4096 5.90198 38.9567 6.25927 38.5038 6.61654L38.5038 6.61657L38.5037 6.61661L38.5037 6.61664C37.8493 7.13291 37.1948 7.64915 36.5551 8.18337C36.1165 8.54941 35.6702 8.90591 35.2237 9.26251L35.2236 9.26258L35.2235 9.2627L35.2234 9.26275C34.6238 9.74165 34.024 10.2207 33.4426 10.7233C32.9211 11.174 32.3725 11.5934 31.8239 12.0128C31.3125 12.4037 30.8012 12.7946 30.3117 13.2109C29.3354 14.0412 28.3373 14.844 27.3391 15.6468L27.339 15.6469L27.3389 15.647C26.6693 16.1855 25.9998 16.724 25.3368 17.2708C24.3176 18.1109 23.2879 18.9384 22.2582 19.7659L22.2576 19.7663L22.2571 19.7667C21.6637 20.2436 21.0702 20.7205 20.4787 21.1998C20.1187 21.4914 19.7578 21.782 19.397 22.0726L19.397 22.0726L19.3969 22.0726C18.6381 22.6838 17.8792 23.2949 17.1272 23.9152C16.4466 24.4766 15.7579 25.028 15.0691 25.5795L15.069 25.5796C14.4229 26.0969 13.7768 26.6143 13.1371 27.1401C12.3682 27.7721 11.5896 28.3929 10.8109 29.0138C10.4199 29.3255 10.0289 29.6373 9.63907 29.9505C8.73272 30.6791 7.82636 31.4085 6.92261 32.1406C5.59317 33.219 4.2646 34.2992 2.9369 35.3794C2.77526 35.511 2.61351 35.6424 2.45177 35.7739L2.44597 35.7786C1.81704 36.2897 1.18817 36.8007 0.56589 37.3199C0.311167 37.5328 0.367869 37.744 0.68889 37.833C0.774743 37.857 0.868167 37.8551 0.960647 37.8532H0.960684C0.98565 37.8527 1.01055 37.8522 1.03521 37.8522C1.76353 37.8535 2.49234 37.8533 3.22091 37.8532H3.22647L3.95667 37.8531C6.95053 37.8531 9.94526 37.8531 12.9391 37.8539C13.5114 37.8539 13.7199 38.0642 13.7268 38.6357C13.7274 38.7037 13.7272 38.7713 13.727 38.839V38.8391V38.8392L13.7268 38.9411L13.7269 43.9745V43.9817C13.727 55.7204 13.7271 67.4596 13.7225 79.1981C13.7225 79.8334 13.8891 79.9564 14.3837 79.9756C15.3852 80.014 16.3892 80 17.3915 79.9817C17.8905 79.973 18.003 79.7601 17.8486 79.2653C17.7422 78.925 17.641 78.583 17.5669 78.2349C17.2659 76.824 18.1356 76.2211 19.1327 76.0623C19.3693 76.0243 19.6065 75.9889 19.8437 75.9536C20.3419 75.8793 20.8402 75.805 21.3336 75.7063C22.117 75.5492 22.7835 75.1993 23.1437 74.4219C23.4246 73.8155 23.5782 73.1794 23.5782 72.5154C23.5801 66.94 23.5804 61.3649 23.5808 55.7897C23.581 51.1444 23.5813 46.4991 23.5825 41.8536C23.5825 41.0308 23.5659 40.215 23.4142 39.3992C23.2135 38.3216 22.2182 37.1463 21.1635 36.9107C20.5816 36.7812 19.9888 36.6948 19.3967 36.6086C19.2548 36.5879 19.113 36.5673 18.9713 36.546C18.2752 36.4413 17.6593 36.2415 17.4133 35.4771C17.2956 35.1107 17.2598 34.7337 17.3087 34.3629C17.4509 33.2836 17.9359 32.6562 19.1449 32.6178C19.3603 32.6107 19.5674 32.6574 19.7738 32.704C19.9452 32.7427 20.1162 32.7813 20.2912 32.7889C20.5483 32.8 20.8057 32.8119 21.0633 32.8238C22.0329 32.8685 23.0045 32.9132 23.9646 32.9215C24.4789 32.926 24.9932 32.9317 25.5076 32.9374L25.5085 32.9375L25.5093 32.9375C28.3387 32.9688 31.1698 33.0002 34.0052 32.843C36.6248 32.6972 39.2741 32.6065 41.906 32.9555C43.1002 33.1143 44.2691 33.3359 45.4006 33.7495C47.632 34.5645 49.4517 35.9169 50.8631 37.8382C51.7102 38.9908 52.3322 40.2464 52.7989 41.5875C53.2028 42.7497 53.4549 43.9373 53.6162 45.1658C53.816 46.6875 53.8204 48.1848 53.5674 49.682C53.3162 51.1697 52.777 52.5649 52.0181 53.8719C51.2958 55.1153 50.3267 56.1274 49.1717 56.9747C48.5417 57.436 47.8485 57.7787 47.1543 58.1219C47.041 58.1779 46.9277 58.2339 46.8146 58.2905C46.1543 58.6203 45.9955 59.1534 46.3584 59.7834C46.4894 60.0111 46.6199 60.2392 46.7503 60.4672L46.7509 60.4682C47.1371 61.1434 47.5234 61.8186 47.9242 62.4856C48.2315 62.9967 48.5345 63.5103 48.8374 64.0239L48.8375 64.0241C49.8112 65.6747 50.7849 67.3253 51.8986 68.8891C52.8163 70.177 53.7637 71.4404 54.9056 72.5451C55.137 72.7692 55.3633 72.999 55.5896 73.2288C55.8734 73.517 56.1572 73.8053 56.4513 74.0825C57.0829 74.6767 57.8087 75.126 58.6147 75.4602C58.7904 75.5331 58.968 75.6012 59.1456 75.6693C59.6956 75.8802 60.2457 76.0911 60.7389 76.4427C61.811 77.207 61.9444 78.378 61.0302 79.3055C60.9979 79.3382 60.9574 79.3698 60.916 79.4021L60.9159 79.4021C60.7865 79.503 60.6489 79.6102 60.7275 79.7801C60.8095 79.957 61.0427 79.9709 61.2447 79.9829L61.2954 79.9861C61.3357 79.9885 61.3764 79.9879 61.4172 79.9874H61.4172C61.4348 79.9872 61.4523 79.9869 61.4699 79.9869C67.1096 79.9878 72.7492 79.9878 78.3889 79.9869C79.0876 79.9869 79.2255 79.8482 79.2255 79.1598ZM56.033 69.955H65.0111C68.0189 69.955 71.0258 69.955 74.0319 69.9542C74.6208 69.9542 74.776 69.8023 74.776 69.2195C74.7769 63.4799 74.7769 57.7404 74.776 52.0009C74.776 51.3726 74.6042 51.1999 73.9805 51.1999C68.0093 51.199 62.039 51.199 56.0679 51.1999C55.4773 51.1999 55.3281 51.3508 55.3281 51.9389V69.2448C55.3281 69.8294 55.4529 69.955 56.033 69.955ZM33.5234 38.9149V46.1064C33.5234 48.4744 33.5234 50.8425 33.5243 53.2123C33.5243 54.1677 33.7546 54.5045 34.6653 54.7794C35.5237 55.0377 36.376 55.0132 37.2815 54.8989C39.1317 54.6651 40.5972 53.8213 41.6754 52.3834C42.7571 50.9402 43.3067 49.2606 43.2927 47.4274L43.2896 47.0758V47.0756C43.2836 46.4377 43.2777 45.7989 43.2954 45.1614C43.3372 43.6799 43.0023 42.2969 42.293 40.9968C41.0945 38.8006 39.2948 37.5913 36.7502 37.5922L36.1109 37.592H36.1108H36.1107C35.6848 37.5918 35.259 37.5916 34.8328 37.5922C33.9474 37.5931 33.5234 38.0206 33.5234 38.9149ZM39.5368 79.9873H43.4152L44.7229 79.9875H44.7481C45.6114 79.9877 46.4745 79.9879 47.3372 79.9873C47.3537 79.9872 47.3705 79.9875 47.3875 79.9881C47.4054 79.9887 47.4235 79.9896 47.4417 79.9905C47.542 79.9955 47.6441 80.0005 47.7228 79.9611C47.7703 79.9375 47.8289 79.9312 47.8868 79.925C47.996 79.9133 48.1032 79.9018 48.1311 79.7753C48.1682 79.6055 48.0142 79.4922 47.8927 79.4028L47.8807 79.394C47.4943 79.1078 47.12 78.7954 46.8391 78.4158C45.3823 76.4509 43.9473 74.4746 42.6223 72.4128C40.7834 69.5509 39.0902 66.6157 37.6107 63.5539C37.4809 63.2856 37.3636 63.0114 37.2462 62.7372L37.2461 62.7371L37.2461 62.7369L37.246 62.7369C36.9879 62.1339 36.7297 61.5305 36.3388 60.9878C35.9236 60.4111 35.4691 59.9408 34.7477 59.7785C34.0812 59.6284 33.6991 59.9111 33.6991 60.5899C33.6991 61.4318 33.6988 62.2737 33.6986 63.1155L33.6986 63.1506C33.6978 65.7113 33.6969 68.272 33.7035 70.8326C33.7041 71.0783 33.6617 71.3214 33.6193 71.5646L33.6193 71.5646C33.5485 71.9708 33.4776 72.3769 33.6075 72.795C33.666 72.9852 33.6895 73.192 33.6956 73.3918C33.7262 74.3376 34.158 75.0182 34.9989 75.4527C35.6865 75.8076 36.4332 75.8639 37.1747 75.9199L37.1751 75.9199C37.3432 75.9326 37.511 75.9453 37.6778 75.9614C38.5982 76.0504 39.1006 76.3226 39.1704 77.1227L39.1723 77.1436C39.238 77.8867 39.3062 78.6572 38.9035 79.3652C38.681 79.7561 38.7595 79.8922 39.1896 79.9768C39.2728 79.9931 39.3604 79.9909 39.4477 79.9887C39.4775 79.988 39.5073 79.9873 39.5368 79.9873ZM60.7477 67.6238C60.9702 68.4414 61.3051 68.9876 62.2054 68.9169C63.0803 68.8829 63.7625 68.4798 64.2911 67.8001C64.9227 66.9886 65.3249 66.0445 65.6764 65.0996C66.547 62.7603 67.7718 60.6069 69.0419 58.4779C70.0119 56.8524 71.221 55.4074 72.6063 54.1143C72.8427 53.8936 73.0215 53.6353 73.1 53.3256C73.1803 53.0106 73.0311 52.7462 72.7275 52.6965C71.8351 52.5508 70.9759 52.6877 70.2134 53.1982C69.3641 53.7677 68.7156 54.5482 68.0696 55.3257L68.0213 55.3839C66.9274 56.7005 66.021 58.1385 65.2673 59.675C65.1043 60.0075 64.9371 60.338 64.7699 60.6685C64.3955 61.4084 64.021 62.1486 63.6936 62.9121C63.4947 63.3763 63.1091 63.3842 62.8265 62.9688C62.6976 62.7794 62.5748 62.5864 62.452 62.3934C62.1923 61.9853 61.9325 61.5772 61.6157 61.2028C60.9379 60.4018 60.1144 59.8024 59.0772 59.7832C58.1734 59.7666 57.3377 60.1898 56.6582 60.825C56.4104 61.0562 56.3773 61.3328 56.6669 61.5658C57.0741 61.8933 57.4429 62.2607 57.8117 62.6282C57.9146 62.7307 58.0174 62.8332 58.1211 62.9348C59.4549 64.241 60.2609 65.8342 60.7477 67.6238Z" fill="url(#paint0_linear_1744_21854)"/>
<defs>
<linearGradient id="paint0_linear_1744_21854" x1="72.0862" y1="41.6224" x2="14.9168" y2="41.6224" gradientUnits="userSpaceOnUse">
<stop stop-color="#15ACBC"/>
<stop offset="1" stop-color="#80C7D1"/>
</linearGradient>
</defs>
</svg>
