<svg width="574" height="508" viewBox="0 0 574 508" fill="none" xmlns="http://www.w3.org/2000/svg">
<g opacity="0.4">
<mask id="mask0_1744_15118" style="mask-type:luminance" maskUnits="userSpaceOnUse" x="123" y="195" width="95" height="94">
<path d="M189.015 284.848C212.671 274.617 223.554 247.145 213.322 223.489C203.09 199.833 175.618 188.95 151.962 199.182C128.306 209.414 117.424 236.886 127.656 260.542C137.888 284.198 165.359 295.08 189.015 284.848Z" fill="white"/>
</mask>
<g mask="url(#mask0_1744_15118)">
<path d="M158.067 172.122L89.8125 279.26L94.0676 281.971L162.322 174.832L158.067 172.122Z" fill="white"/>
<path d="M170.815 176.149L102.561 283.287L106.816 285.998L175.07 178.86L170.815 176.149Z" fill="white"/>
<path d="M183.579 180.17L115.324 287.308L119.579 290.018L187.834 182.88L183.579 180.17Z" fill="white"/>
<path d="M196.311 184.192L128.057 291.33L132.312 294.041L200.566 186.903L196.311 184.192Z" fill="white"/>
<path d="M209.067 188.207L140.812 295.345L145.068 298.056L213.322 190.917L209.067 188.207Z" fill="white"/>
<path d="M221.815 192.234L153.561 299.372L157.816 302.083L226.07 194.945L221.815 192.234Z" fill="white"/>
<path d="M234.567 196.248L166.312 303.386L170.568 306.097L238.822 198.958L234.567 196.248Z" fill="white"/>
<path d="M247.309 200.273L179.055 307.411L183.31 310.122L251.564 202.984L247.309 200.273Z" fill="white"/>
</g>
</g>
<g opacity="0.63">
<path d="M402.718 339.315C396.934 327.268 390.964 314.905 381.755 305.054C379.525 302.675 377.095 300.492 374.491 298.53C371.498 296.338 368.335 294.39 365.031 292.702C358.638 289.32 352.081 286.308 346.232 282.002C339.858 277.265 334.314 271.504 329.824 264.953C329.432 264.377 328.486 264.953 328.889 265.508C332.844 271.289 337.604 276.477 343.024 280.915C345.717 283.096 348.566 285.076 351.549 286.841C354.691 288.689 357.953 290.32 361.204 291.973C364.561 293.609 367.828 295.424 370.99 297.41C373.867 299.291 376.554 301.447 379.014 303.847C383.696 308.555 387.765 313.834 391.127 319.559C395.096 326.083 398.445 332.987 401.75 339.881C402.055 340.511 402.99 339.957 402.696 339.337L402.718 339.315Z" fill="#92D5E4"/>
<path d="M335.868 272.997C333.694 265.951 330.867 258.155 324.669 254.654C323.51 253.9 322.132 253.556 320.754 253.676C320.083 253.776 319.466 254.1 319.002 254.596C318.538 255.091 318.255 255.729 318.199 256.405C318.236 257.344 318.534 258.255 319.058 259.036C322.831 265.636 329.66 269.453 336.107 272.899" fill="#92D5E4"/>
<path d="M344.01 280.174C340.496 278.692 336.698 278.005 332.887 278.163C330.876 278.086 328.91 278.765 327.374 280.065C326.628 280.819 326.182 281.82 326.122 282.88C326.062 283.939 326.391 284.984 327.048 285.817C328.451 287.329 330.68 287.144 332.539 286.742C337.026 285.755 341.355 284.153 345.402 281.979" fill="#92D5E4"/>
<path d="M352.995 286.656C349.029 282.133 346.587 276.476 346.015 270.488C345.61 268.666 345.793 266.763 346.537 265.051C347.417 263.496 349.592 262.724 351.005 263.964C351.887 264.942 352.405 266.193 352.473 267.508C353.452 273.804 354.148 281.742 354.441 288.07" fill="#92D5E4"/>
<path d="M365.128 293.169C362.409 291.987 359.436 291.509 356.483 291.776C353.531 292.044 350.693 293.05 348.231 294.702C346.87 295.518 345.854 296.801 345.371 298.312C344.98 299.889 345.697 301.944 347.198 302.498C348.201 302.751 349.262 302.623 350.177 302.14C355.541 300.003 360.551 297.071 365.041 293.441" fill="#92D5E4"/>
<path d="M369.486 295.266C365.891 289.563 363.942 282.978 363.854 276.238C363.808 275.916 363.828 275.588 363.912 275.274C363.996 274.96 364.143 274.667 364.343 274.411C365.311 273.508 366.822 274.889 367.529 276.151C370.791 281.924 371.683 290.634 371.074 297.06" fill="#92D5E4"/>
<path d="M377.307 302.162C375.389 301.637 373.36 301.688 371.471 302.309C369.582 302.93 367.917 304.092 366.684 305.652C365.89 306.685 365.314 308.327 366.216 309.403C366.586 309.741 367.035 309.979 367.522 310.096C368.009 310.212 368.518 310.202 369 310.067C372.653 309.534 376.677 306.087 379.362 303.543" fill="#92D5E4"/>
</g>
<g opacity="0.62">
<path d="M393.251 465.152C367.416 463.619 339.722 467.327 312.952 475.797C334.212 466.933 356.229 460.007 378.735 455.105C342.712 450.78 306.298 450.82 270.285 455.225C300.369 448.436 330.942 444.033 361.718 442.057C324.569 433.778 287.012 427.444 249.202 423.084C284.734 419.684 320.558 420.953 355.76 426.857C319.443 409.601 278.864 397.379 235.621 390.703C281.789 387.441 326.359 392.878 365.165 406.371L406.484 423.018L426.849 445.526L393.251 465.152Z" fill="#2EA8BC"/>
</g>
<path d="M439.979 447.842C432.944 443.33 424.072 440.546 415.841 443.591C406.772 446.939 398.444 457.008 389.68 454.116C385.265 452.659 382.46 447.592 383.351 442.764C383.846 440.346 385.093 438.146 386.913 436.478C388.733 434.81 391.033 433.761 393.485 433.478C391.311 427.215 383.167 426.193 376.588 427.346C370.01 428.498 361.692 430.608 355.929 427.77C350.166 424.932 350.84 413.809 357.408 412.613C359.865 412.156 362.268 413.624 364.073 411.525C364.609 410.769 364.896 409.864 364.896 408.937C364.896 408.01 364.609 407.106 364.073 406.35C362.312 403.968 358.702 404.98 355.929 404.871C348.927 404.577 343.088 403.12 336.085 402.827C330.551 402.598 324.56 402.185 320.645 398.379C316.731 394.574 317.025 386.125 322.331 384.027C326.136 382.504 331.584 384.266 333.465 380.493C335.15 377.079 331.29 373.969 327.93 372.882C319.406 370.12 310.131 369.75 301.65 366.847C292.516 363.726 283.839 356.43 284.252 345.927C284.289 343.319 285.2 340.8 286.84 338.772C291.19 333.716 297.714 335.228 302.933 337.348C312.593 341.287 321.597 346.673 329.638 353.321C333.052 356.148 338.173 351.831 336.292 347.71V347.59C334.476 343.633 334.117 337.196 338.63 336.097C339.869 335.793 344.229 334.662 345.306 335.271C357.44 342.176 352.602 362.65 357.517 375.611C358.068 377.188 358.947 378.63 360.096 379.842C361.245 381.055 362.637 382.01 364.182 382.646C367.444 384.048 369.934 381.406 371.956 378.21C374.218 374.61 366.911 356.235 375.284 354.147C382.688 352.299 386.233 360.019 389.723 377.47C398.607 421.887 400.238 377.079 400.064 390.736C399.988 396.237 393.54 412.373 398.9 413.134C404.261 413.896 410.6 407.176 407.653 402.577C409.534 400.576 412.905 401.489 414.384 403.588C415.863 405.686 416.069 408.513 416.461 411.199C417.328 417.312 419.578 423.148 423.039 428.261C426.5 433.375 431.082 437.632 436.435 440.709" fill="#92D5E4"/>
<g filter="url(#filter0_d_1744_15118)">
<path d="M147.942 202.758H38.481C31.1187 202.758 25.1504 208.726 25.1504 216.088V306.913C25.1504 314.275 31.1187 320.244 38.481 320.244H147.942C155.305 320.244 161.273 314.275 161.273 306.913V216.088C161.273 208.726 155.305 202.758 147.942 202.758Z" fill="white"/>
</g>
<g opacity="0.71">
<path d="M126.698 254.222H62.2305V299.759H126.698V254.222Z" fill="#D4F0F5"/>
<path opacity="0.52" d="M126.489 253.005H62.1953V258.039H126.489V253.005Z" fill="#9CD9DB"/>
<path d="M117.976 237.064H109.984V250.286H117.976V237.064Z" fill="#D4F0F5"/>
<path d="M118.337 237.715H109.638C109.438 237.715 109.246 237.636 109.104 237.495C108.961 237.355 108.88 237.164 108.877 236.964C108.877 236.762 108.957 236.569 109.1 236.426C109.243 236.283 109.436 236.203 109.638 236.203H118.337C118.437 236.203 118.536 236.223 118.628 236.261C118.72 236.299 118.804 236.355 118.875 236.426C118.946 236.497 119.002 236.581 119.04 236.673C119.078 236.765 119.098 236.864 119.098 236.964C119.098 237.064 119.078 237.162 119.04 237.254C119.001 237.346 118.945 237.429 118.874 237.499C118.803 237.568 118.719 237.623 118.627 237.661C118.535 237.698 118.436 237.716 118.337 237.715Z" fill="#147A7F"/>
<path d="M133.929 255.636H54.0542C53.7063 255.636 53.5867 255.103 53.8911 254.907C53.8911 254.907 94.3615 231.965 94.4267 231.965L134.103 254.907C134.17 254.954 134.22 255.019 134.249 255.094C134.278 255.17 134.283 255.252 134.265 255.331C134.246 255.41 134.204 255.481 134.144 255.535C134.084 255.59 134.009 255.625 133.929 255.636Z" fill="#2EA8BC"/>
<path d="M132.349 256.853H55.573C55.3316 256.865 55.0903 256.829 54.8629 256.747C54.6354 256.665 54.4264 256.54 54.2476 256.377C54.0688 256.214 53.9239 256.018 53.8211 255.799C53.7183 255.581 53.6596 255.344 53.6484 255.103H134.274C134.263 255.344 134.204 255.581 134.101 255.799C133.998 256.018 133.853 256.214 133.675 256.377C133.496 256.54 133.287 256.665 133.059 256.747C132.832 256.829 132.591 256.865 132.349 256.853Z" fill="#147A7F"/>
<g opacity="0.38">
<path d="M57 256.364L94.2627 231.725L94.5998 232.203L66.7968 256.038L66.5467 255.374H76.5936L76.2783 255.537L94.1322 232.617L95.611 230.725L94.9695 233.041L88.663 255.874L88.141 255.189L100.2 255.037L99.6885 255.668L94.8933 234.161L94.3497 231.747L95.6871 233.834L106.343 249.601L109.029 253.515C109.485 254.167 109.942 254.82 110.41 255.44L110.583 255.657C110.583 255.657 110.583 255.657 110.442 255.592C110.379 255.583 110.316 255.59 110.257 255.613C110.198 255.636 110.145 255.673 110.105 255.722V255.777C110.128 255.742 110.158 255.713 110.192 255.69C110.25 255.649 110.317 255.623 110.388 255.614C110.606 255.567 110.828 255.538 111.051 255.527L112.258 255.461C115.433 255.363 118.608 255.363 121.783 255.363L121.533 256.005L95.437 232.91L95.785 232.464L130.482 255.603L95.524 232.965L95.8719 232.508L122.044 255.472L122.772 256.114H121.783C118.608 256.114 115.433 256.114 112.28 256.266L111.116 256.331L110.594 256.386L110.66 256.331V256.396C110.612 256.441 110.555 256.474 110.493 256.495C110.431 256.516 110.366 256.523 110.301 256.516C110.17 256.516 110.116 256.44 110.138 256.451L109.975 256.288L109.779 256.038C109.279 255.396 108.833 254.755 108.365 254.102L105.647 250.199L94.9586 234.378L95.7958 234.019L100.711 255.505L100.852 256.135H100.21L88.1519 256.299H87.4343L87.63 255.614L94.0452 232.78L94.8825 233.204L76.909 256.038L76.7894 256.19H76.5936H66.5467H65.4594L66.2423 255.516L94.1866 231.801L94.5998 232.203L57 256.364Z" fill="#147A7F"/>
</g>
<path d="M80.127 291.353V280.001H69.2428V291.353H80.127Z" fill="#2EA8BC"/>
<path d="M79.3086 290.581V280.773H70.0555V290.581H79.3086Z" fill="#D4F0F5"/>
<path d="M68.2422 291.353V292.658H81.1053V291.353H68.2422Z" fill="#2EA8BC"/>
<g opacity="0.62">
<mask id="mask1_1744_15118" style="mask-type:luminance" maskUnits="userSpaceOnUse" x="70" y="280" width="10" height="11">
<path d="M79.3027 290.581V280.773H70.0496V290.581H79.3027Z" fill="white"/>
</mask>
<g mask="url(#mask1_1744_15118)">
<path d="M84.4531 280.339L66.697 290.745L63.8809 286.754L81.6369 276.349L84.4531 280.339Z" fill="white"/>
<path d="M88.4246 283.418L70.6794 293.823L68.918 291.344L86.674 280.938L88.4246 283.418Z" fill="white"/>
</g>
</g>
<path d="M74.3195 290.639H75.0371V280.722H74.3195V290.639Z" fill="#2EA8BC"/>
<path d="M69.2324 285.352V286.005H80.1165V285.352H69.2324Z" fill="#2EA8BC"/>
<path d="M99.707 291.342V279.99H88.8229V291.342H99.707Z" fill="#2EA8BC"/>
<path d="M98.8926 290.581V280.773H89.6394V290.581H98.8926Z" fill="#D4F0F5"/>
<path d="M87.832 291.344V292.648H100.695V291.344H87.832Z" fill="#2EA8BC"/>
<g opacity="0.62">
<mask id="mask2_1744_15118" style="mask-type:luminance" maskUnits="userSpaceOnUse" x="89" y="280" width="10" height="11">
<path d="M98.8945 290.581V280.773H89.6414V290.581H98.8945Z" fill="white"/>
</mask>
<g mask="url(#mask2_1744_15118)">
<path d="M104.043 280.339L86.2869 290.745L83.4707 286.754L101.216 276.349L104.043 280.339Z" fill="white"/>
<path d="M108 283.418L90.2545 293.823L88.5039 291.344L106.249 280.938L108 283.418Z" fill="white"/>
</g>
</g>
<path d="M93.8996 290.639H94.6172V280.722H93.8996V290.639Z" fill="#2EA8BC"/>
<path d="M88.8223 285.352V286.005H99.7064V285.352H88.8223Z" fill="#2EA8BC"/>
<path d="M119.303 291.353V280.001H108.419V291.353H119.303Z" fill="#2EA8BC"/>
<path d="M118.488 290.581V280.773H109.235V290.581H118.488Z" fill="#D4F0F5"/>
<path d="M107.418 291.353V292.658H120.281V291.353H107.418Z" fill="#2EA8BC"/>
<g opacity="0.62">
<mask id="mask3_1744_15118" style="mask-type:luminance" maskUnits="userSpaceOnUse" x="109" y="280" width="10" height="11">
<path d="M118.48 290.581V280.773H109.227V290.581H118.48Z" fill="white"/>
</mask>
<g mask="url(#mask3_1744_15118)">
<path d="M123.624 280.339L105.879 290.745L103.062 286.754L120.808 276.349L123.624 280.339Z" fill="white"/>
<path d="M127.593 283.418L109.848 293.823L108.098 291.344L125.843 280.938L127.593 283.418Z" fill="white"/>
</g>
</g>
<path d="M113.495 290.639H114.213V280.722H113.495V290.639Z" fill="#2EA8BC"/>
<path d="M108.406 285.352V286.005H119.29V285.352H108.406Z" fill="#2EA8BC"/>
<path d="M80.1152 272.705V261.354H69.2311V272.705H80.1152Z" fill="#2EA8BC"/>
<path d="M79.2969 271.937V262.129H70.0437V271.937H79.2969Z" fill="#D4F0F5"/>
<path d="M68.2422 272.707V274.012H81.1053V272.707H68.2422Z" fill="#2EA8BC"/>
<g opacity="0.62">
<mask id="mask4_1744_15118" style="mask-type:luminance" maskUnits="userSpaceOnUse" x="70" y="262" width="10" height="10">
<path d="M79.2988 271.936V262.128H70.0457V271.936H79.2988Z" fill="white"/>
</mask>
<g mask="url(#mask4_1744_15118)">
<path d="M84.4589 261.704L66.7029 272.099L63.8867 268.109L81.6428 257.714L84.4589 261.704Z" fill="white"/>
<path d="M88.4285 264.769L70.6833 275.175L68.9219 272.696L86.6779 262.301L88.4285 264.769Z" fill="white"/>
</g>
</g>
<path d="M74.3195 271.986H75.0371V262.07H74.3195V271.986Z" fill="#2EA8BC"/>
<path d="M69.2402 266.704V267.356H80.1244V266.704H69.2402Z" fill="#2EA8BC"/>
<path d="M99.707 272.705V261.354H88.8229V272.705H99.707Z" fill="#2EA8BC"/>
<path d="M98.8926 271.944V262.137H89.6394V271.944H98.8926Z" fill="#D4F0F5"/>
<path d="M87.832 272.707V274.012H100.695V272.707H87.832Z" fill="#2EA8BC"/>
<g opacity="0.62">
<mask id="mask5_1744_15118" style="mask-type:luminance" maskUnits="userSpaceOnUse" x="89" y="262" width="10" height="10">
<path d="M98.8945 271.946V262.139H89.6414V271.946H98.8945Z" fill="white"/>
</mask>
<g mask="url(#mask5_1744_15118)">
<path d="M104.043 261.704L86.2869 272.099L83.4707 268.109L101.216 257.714L104.043 261.704Z" fill="white"/>
<path d="M108.002 264.769L90.2565 275.175L88.5059 272.696L106.251 262.301L108.002 264.769Z" fill="white"/>
</g>
</g>
<path d="M93.8996 271.986H94.6172V262.07H93.8996V271.986Z" fill="#2EA8BC"/>
<path d="M88.8223 266.715V267.367H99.7064V266.715H88.8223Z" fill="#2EA8BC"/>
<path d="M119.293 272.705V261.354H108.409V272.705H119.293Z" fill="#2EA8BC"/>
<path d="M118.475 271.937V262.129H109.221V271.937H118.475Z" fill="#D4F0F5"/>
<path d="M107.426 272.707V274.012H120.289V272.707H107.426Z" fill="#2EA8BC"/>
<g opacity="0.62">
<mask id="mask6_1744_15118" style="mask-type:luminance" maskUnits="userSpaceOnUse" x="109" y="262" width="10" height="10">
<path d="M118.473 271.936V262.128H109.22V271.936H118.473Z" fill="white"/>
</mask>
<g mask="url(#mask6_1744_15118)">
<path d="M123.624 261.704L105.879 272.099L103.062 268.109L120.808 257.714L123.624 261.704Z" fill="white"/>
<path d="M127.593 264.769L109.848 275.175L108.098 272.696L125.843 262.301L127.593 264.769Z" fill="white"/>
</g>
</g>
<path d="M113.495 271.986H114.213V262.07H113.495V271.986Z" fill="#2EA8BC"/>
<path d="M108.418 266.704V267.356H119.302V266.704H108.418Z" fill="#2EA8BC"/>
<path d="M126.613 299.725H62.0254V301.508H126.613V299.725Z" fill="#2EA8BC"/>
</g>
<g filter="url(#filter1_d_1744_15118)">
<path d="M442.052 22.1641H286.51C279.148 22.1641 273.18 28.1324 273.18 35.4947V146.946C273.18 154.308 279.148 160.276 286.51 160.276H442.052C449.415 160.276 455.383 154.308 455.383 146.946V35.4947C455.383 28.1324 449.415 22.1641 442.052 22.1641Z" fill="white"/>
</g>
<path d="M410.312 111.89C409.515 103.235 409.087 94.5361 409.029 85.7939H407.17L405.865 110.585" fill="#147A7F"/>
<path d="M409.315 101.972C411.836 97.6263 413.767 92.9641 415.056 88.1084C411.81 92.2499 408.998 96.7131 406.662 101.428" fill="#147A7F"/>
<path d="M406.661 98.8839C404.435 94.5346 402.203 90.1852 399.963 85.8359L406.737 93.5995" fill="#147A7F"/>
<path d="M407.563 90.2743C409.176 91.369 411.016 92.0829 412.946 92.362C414.881 92.4816 417.034 91.4486 417.534 89.5676C420.049 89.8857 422.601 89.4088 424.831 88.2038C427.061 86.9989 428.859 85.1263 429.971 82.8484C431.084 80.5705 431.456 78.0016 431.035 75.5018C430.614 73.0019 429.422 70.6964 427.625 68.9083C427.039 68.4131 426.53 67.8342 426.113 67.1904C425.761 66.2589 425.577 65.2722 425.569 64.2763C425.266 62.2436 424.283 60.3737 422.78 58.9716C421.277 57.5696 419.344 56.7182 417.295 56.5563C416.461 56.5826 415.626 56.5207 414.805 56.3715C413.755 55.9747 412.769 55.4251 411.88 54.7405C410.212 53.7455 408.287 53.2692 406.347 53.3722C404.408 53.4751 402.544 54.1526 400.991 55.3184C399.438 56.4843 398.267 58.0858 397.627 59.9191C396.987 61.7524 396.907 63.7347 397.397 65.6137C393.917 65.2006 390.536 67.9406 389.612 71.3222C389.239 73.0371 389.273 74.8153 389.711 76.5146C390.149 78.2139 390.979 79.787 392.134 81.1082C391.445 82.1744 391.14 83.4433 391.269 84.7062C391.397 85.969 391.952 87.1505 392.841 88.0562C393.766 88.9306 394.896 89.559 396.127 89.8839C397.358 90.2087 398.651 90.2196 399.887 89.9155C400.608 89.6459 401.396 89.6116 402.138 89.8177C402.531 90.0491 402.896 90.3265 403.225 90.644C403.934 91.1597 404.815 91.38 405.684 91.2583C406.552 91.1366 407.339 90.6824 407.879 89.9916" fill="#9CD9DB"/>
<path d="M426.114 67.1466C425.762 66.2151 425.578 65.2284 425.571 64.2325C425.267 62.1998 424.284 60.3299 422.781 58.9278C421.278 57.5258 419.345 56.6744 417.296 56.5125C416.698 56.5125 416.089 56.5125 415.491 56.4473C415.491 56.4473 415.491 56.556 415.491 56.6212C418.022 57.311 420.219 58.8928 421.676 61.0749C423.133 63.2571 423.751 65.8924 423.418 68.4949C423.105 69.6232 422.973 70.7938 423.026 71.9634C423.222 72.7419 423.484 73.5022 423.809 74.2359C424.3 75.6131 424.393 77.101 424.076 78.5283C423.759 79.9557 423.045 81.2645 422.017 82.3041C420.988 83.3436 419.688 84.0717 418.264 84.4045C416.84 84.7372 415.351 84.6611 413.969 84.185C413.522 85.643 412.729 86.9713 411.657 88.0562C410.585 89.1412 409.267 89.9506 407.814 90.4154C409.358 91.4471 411.117 92.1128 412.958 92.3617C414.893 92.4813 417.046 91.4483 417.546 89.5673C420.061 89.8853 422.613 89.4085 424.843 88.2035C427.073 86.9986 428.871 85.1259 429.983 82.8481C431.096 80.5702 431.468 78.0013 431.047 75.5014C430.626 73.0016 429.434 70.6961 427.636 68.908C427.044 68.4004 426.531 67.8066 426.114 67.1466Z" fill="#7EC4C4"/>
<path d="M397.311 112.031H353.383V65.0153L375.456 47.3027L397.311 68.9732V112.031Z" fill="#D4F0F5"/>
<path d="M400.364 84.7715H360.698C360.068 84.7715 359.557 85.2826 359.557 85.9132V86.0328C359.557 86.6633 360.068 87.1745 360.698 87.1745H400.364C400.995 87.1745 401.506 86.6633 401.506 86.0328V85.9132C401.506 85.2826 400.995 84.7715 400.364 84.7715Z" fill="#147A7F"/>
<path d="M372.869 85.25H372.782C372.386 85.25 372.064 85.5713 372.064 85.9676V96.5691C372.064 96.9654 372.386 97.2867 372.782 97.2867H372.869C373.265 97.2867 373.587 96.9654 373.587 96.5691V85.9676C373.587 85.5713 373.265 85.25 372.869 85.25Z" fill="#147A7F"/>
<path d="M377.76 85.25H377.673C377.276 85.25 376.955 85.5713 376.955 85.9676V96.5691C376.955 96.9654 377.276 97.2867 377.673 97.2867H377.76C378.156 97.2867 378.477 96.9654 378.477 96.5691V85.9676C378.477 85.5713 378.156 85.25 377.76 85.25Z" fill="#147A7F"/>
<path d="M382.488 85.25H382.401C382.005 85.25 381.684 85.5713 381.684 85.9676V96.5691C381.684 96.9654 382.005 97.2867 382.401 97.2867H382.488C382.885 97.2867 383.206 96.9654 383.206 96.5691V85.9676C383.206 85.5713 382.885 85.25 382.488 85.25Z" fill="#147A7F"/>
<path d="M387.394 85.25H387.307C386.911 85.25 386.59 85.5713 386.59 85.9676V96.5691C386.59 96.9654 386.911 97.2867 387.307 97.2867H387.394C387.791 97.2867 388.112 96.9654 388.112 96.5691V85.9676C388.112 85.5713 387.791 85.25 387.394 85.25Z" fill="#147A7F"/>
<path d="M392.465 85.25H392.378C391.981 85.25 391.66 85.5713 391.66 85.9676V96.5691C391.66 96.9654 391.981 97.2867 392.378 97.2867H392.465C392.861 97.2867 393.182 96.9654 393.182 96.5691V85.9676C393.182 85.5713 392.861 85.25 392.465 85.25Z" fill="#147A7F"/>
<path d="M397.355 85.25H397.268C396.872 85.25 396.551 85.5713 396.551 85.9676V96.5691C396.551 96.9654 396.872 97.2867 397.268 97.2867H397.355C397.752 97.2867 398.073 96.9654 398.073 96.5691V85.9676C398.073 85.5713 397.752 85.25 397.355 85.25Z" fill="#147A7F"/>
<path d="M375.462 80.3019C380.074 80.3019 383.813 76.5632 383.813 71.9513C383.813 67.3393 380.074 63.6006 375.462 63.6006C370.85 63.6006 367.111 67.3393 367.111 71.9513C367.111 76.5632 370.85 80.3019 375.462 80.3019Z" fill="#2EA8BC"/>
<path d="M375.463 79.131C379.427 79.131 382.64 75.9181 382.64 71.9547C382.64 67.9913 379.427 64.7783 375.463 64.7783C371.5 64.7783 368.287 67.9913 368.287 71.9547C368.287 75.9181 371.5 79.131 375.463 79.131Z" fill="#D4F0F5"/>
<g opacity="0.51">
<mask id="mask7_1744_15118" style="mask-type:luminance" maskUnits="userSpaceOnUse" x="368" y="64" width="15" height="16">
<path d="M375.473 79.1281C379.437 79.1281 382.65 75.9151 382.65 71.9518C382.65 67.9884 379.437 64.7754 375.473 64.7754C371.51 64.7754 368.297 67.9884 368.297 71.9518C368.297 75.9151 371.51 79.1281 375.473 79.1281Z" fill="white"/>
</mask>
<g mask="url(#mask7_1744_15118)">
<path d="M381.694 66.2975L368.157 78.269L366.004 73.6805L379.541 61.709L381.694 66.2975Z" fill="white"/>
<path d="M384.715 69.8411L371.178 81.8126L369.852 78.9529L383.378 66.9814L384.715 69.8411Z" fill="white"/>
</g>
</g>
<path d="M376.151 64.1904H374.977V79.1303H376.151V64.1904Z" fill="#2EA8BC"/>
<path d="M383.035 72.4751V71.3008H368.095V72.4751H383.035Z" fill="#2EA8BC"/>
<path opacity="0.52" d="M353.383 65.0153V73.0724L375.749 53.1417L397.311 75.8777V68.9732L375.456 47.3027L353.383 65.0153Z" fill="#9CD9DB"/>
<path d="M346.607 69.6143L374.04 43.1813C374.454 42.7868 375.007 42.5712 375.579 42.5814C376.151 42.5916 376.696 42.8267 377.096 43.2357L403.974 71.1583C404.256 71.4605 404.446 71.8367 404.521 72.2427C404.597 72.6488 404.555 73.068 404.401 73.4513C404.247 73.8346 403.987 74.166 403.652 74.407C403.316 74.6479 402.919 74.7883 402.507 74.8117C402.202 74.8225 401.898 74.769 401.615 74.6547C401.332 74.5405 401.077 74.368 400.865 74.1484L376.944 49.4117C376.537 49.01 375.988 48.7847 375.416 48.7847C374.844 48.7847 374.295 49.01 373.888 49.4117L349.739 72.724C349.342 73.1009 348.818 73.3145 348.271 73.3221H348.129C347.701 73.3181 347.284 73.1881 346.93 72.9482C346.576 72.7083 346.3 72.3692 346.138 71.9734C345.975 71.5776 345.933 71.1427 346.016 70.723C346.1 70.3034 346.305 69.9177 346.607 69.6143Z" fill="#2EA8BC"/>
<path d="M319.424 136.953V101.506L339.246 81.1299L412.782 106.823V137.845L319.424 136.953Z" fill="#D4F0F5"/>
<path d="M337.064 138.028V101.353L346.785 95.4375L356.647 101.353V138.028H337.064Z" fill="#147A7F"/>
<path d="M338.834 137.084V102.985L346.782 98.125L354.883 102.985V137.084H338.834Z" fill="#2EA8BC"/>
<path d="M339.965 137.222V103.721L346.782 99.709L353.752 103.819V137.222H339.965Z" fill="#147A7F"/>
<path d="M352.088 118.793H350.707V122.294H352.088V118.793Z" fill="#2EA8BC"/>
<path d="M380.627 122.872V105.508H365.459V122.872H380.627Z" fill="#2EA8BC"/>
<path d="M379.498 121.686V106.691H366.602V121.686H379.498Z" fill="#D4F0F5"/>
<path d="M364.094 122.873V124.863H382.013V122.873H364.094Z" fill="#2EA8BC"/>
<g opacity="0.48">
<mask id="mask8_1744_15118" style="mask-type:luminance" maskUnits="userSpaceOnUse" x="366" y="106" width="14" height="16">
<path d="M379.496 121.687V106.692H366.6V121.687H379.496Z" fill="white"/>
</mask>
<g mask="url(#mask8_1744_15118)">
<path d="M382.748 99.9438L358.023 115.854L361.948 121.952L386.673 106.043L382.748 99.9438Z" fill="white"/>
<path d="M389.766 106.957L365.041 122.867L367.483 126.662L392.208 110.752L389.766 106.957Z" fill="white"/>
</g>
</g>
<path d="M372.564 121.762H373.564V106.593H372.564V121.762Z" fill="#2EA8BC"/>
<path d="M365.473 113.684V114.685H380.641V113.684H365.473Z" fill="#2EA8BC"/>
<path opacity="0.52" d="M319.424 101.506V108.248C327.144 101.441 343.193 87.0341 343.193 87.0341L412.727 113.01V106.823L339.246 81.1299L319.424 101.506Z" fill="#9CD9DB"/>
<path d="M414.272 109.53L344.9 82.9556C344.379 82.7545 343.811 82.7091 343.265 82.8249C342.718 82.9407 342.218 83.2128 341.823 83.608L317.13 105.355C316.587 105.896 315.852 106.201 315.086 106.201C314.319 106.201 313.584 105.896 313.041 105.355C312.5 104.812 312.195 104.077 312.195 103.31C312.195 102.544 312.5 101.809 313.041 101.266L340.388 76.921C340.782 76.5258 341.283 76.2537 341.829 76.1379C342.376 76.022 342.944 76.0674 343.465 76.2686L416.381 104.18C416.736 104.315 417.06 104.519 417.336 104.78C417.612 105.04 417.833 105.353 417.988 105.699C418.142 106.046 418.227 106.42 418.237 106.799C418.246 107.178 418.181 107.556 418.045 107.91C417.906 108.266 417.697 108.591 417.432 108.865C417.166 109.14 416.848 109.359 416.497 109.51C416.146 109.661 415.769 109.74 415.386 109.743C415.004 109.747 414.625 109.674 414.272 109.53Z" fill="#2EA8BC"/>
<path d="M369.377 136.301C369.51 135.726 369.759 135.185 370.109 134.709C370.458 134.234 370.9 133.834 371.409 133.535C371.918 133.236 372.482 133.044 373.067 132.97C373.652 132.896 374.247 132.941 374.814 133.104C375.452 132.146 376.25 131.304 377.173 130.614C377.622 130.282 378.152 130.079 378.708 130.025C379.263 129.971 379.823 130.07 380.326 130.31C380.642 130.541 380.976 130.745 381.327 130.919C381.662 131.004 382.004 131.062 382.349 131.093C384.36 131.451 385.187 134.05 385.611 136.203" fill="#9CD9DB"/>
<path d="M424.939 136.094C425.087 135.365 425.059 134.611 424.859 133.894C424.658 133.178 424.291 132.519 423.786 131.973C423.302 131.458 422.687 131.085 422.007 130.894C421.327 130.702 420.608 130.699 419.926 130.885C419.67 130.998 419.39 131.05 419.111 131.038C418.599 130.961 418.284 130.407 418.023 129.95C417.523 128.956 416.805 128.087 415.922 127.409C415.039 126.731 414.014 126.262 412.924 126.036C411.824 125.888 410.707 126.135 409.772 126.732C408.836 127.329 408.142 128.238 407.813 129.298C407.309 128.988 406.743 128.795 406.155 128.733C405.566 128.671 404.972 128.741 404.414 128.938C403.857 129.135 403.35 129.454 402.932 129.872C402.513 130.29 402.194 130.796 401.996 131.353C399.223 130.744 396.201 133.027 395.766 136.05" fill="#9CD9DB"/>
<path d="M400.793 136.062C400.6 135.429 400.273 134.846 399.835 134.351C399.397 133.856 398.857 133.461 398.253 133.193C397.648 132.925 396.993 132.79 396.332 132.797C395.671 132.804 395.019 132.953 394.421 133.235C393.894 131.942 392.917 130.883 391.67 130.256C391.047 129.979 390.346 129.937 389.694 130.137C389.043 130.337 388.486 130.765 388.125 131.343C388.035 131.563 387.902 131.762 387.734 131.93C387.405 132.119 387.019 132.184 386.646 132.115C384.646 132.115 383.308 134.29 382.352 136.214" fill="#7EC4C4"/>
<path d="M332.594 126.959H310.76C310.28 126.959 309.891 127.348 309.891 127.829V127.938C309.891 128.418 310.28 128.807 310.76 128.807H332.594C333.074 128.807 333.464 128.418 333.464 127.938V127.829C333.464 127.348 333.074 126.959 332.594 126.959Z" fill="#147A7F"/>
<path d="M314.459 127.329H314.372C313.976 127.329 313.654 127.65 313.654 128.047V135.832C313.654 136.228 313.976 136.55 314.372 136.55H314.459C314.855 136.55 315.177 136.228 315.177 135.832V128.047C315.177 127.65 314.855 127.329 314.459 127.329Z" fill="#147A7F"/>
<path d="M319.361 127.329H319.274C318.878 127.329 318.557 127.65 318.557 128.047V135.832C318.557 136.228 318.878 136.55 319.274 136.55H319.361C319.758 136.55 320.079 136.228 320.079 135.832V128.047C320.079 127.65 319.758 127.329 319.361 127.329Z" fill="#147A7F"/>
<path d="M324.424 127.329H324.337C323.94 127.329 323.619 127.65 323.619 128.047V135.832C323.619 136.228 323.94 136.55 324.337 136.55H324.424C324.82 136.55 325.141 136.228 325.141 135.832V128.047C325.141 127.65 324.82 127.329 324.424 127.329Z" fill="#147A7F"/>
<path d="M329.316 127.329H329.229C328.833 127.329 328.512 127.65 328.512 128.047V135.832C328.512 136.228 328.833 136.55 329.229 136.55H329.316C329.713 136.55 330.034 136.228 330.034 135.832V128.047C330.034 127.65 329.713 127.329 329.316 127.329Z" fill="#147A7F"/>
<path d="M424.886 135.94H310.26V138.55H424.886V135.94Z" fill="#2EA8BC"/>
<g filter="url(#filter2_d_1744_15118)">
<path d="M275.483 56.9482H67.2818C59.9195 56.9482 53.9512 62.9166 53.9512 70.2789V225.103C53.9512 232.466 59.9195 238.434 67.2818 238.434H275.483C282.846 238.434 288.814 232.466 288.814 225.103V70.2789C288.814 62.9166 282.846 56.9482 275.483 56.9482Z" fill="white"/>
</g>
<path d="M241.289 123.664H100.633V202.463H241.289V123.664Z" fill="#D4F0F5"/>
<path d="M130.426 184.022V164.668H113.529V184.022H130.426Z" fill="#2EA8BC"/>
<path d="M129.166 182.698V165.985H114.792V182.698H129.166Z" fill="#D4F0F5"/>
<path d="M111.994 184.023V186.241H131.957V184.023H111.994Z" fill="#2EA8BC"/>
<g opacity="0.4">
<mask id="mask9_1744_15118" style="mask-type:luminance" maskUnits="userSpaceOnUse" x="114" y="165" width="16" height="18">
<path d="M129.164 182.701V165.988H114.79V182.701H129.164Z" fill="white"/>
</mask>
<g mask="url(#mask9_1744_15118)">
<path d="M132.474 158.448L104.945 176.145L109.308 182.931L136.836 165.234L132.474 158.448Z" fill="white"/>
<path d="M140.601 166.286L113.051 184.014L115.769 188.238L143.319 170.51L140.601 166.286Z" fill="white"/>
</g>
</g>
<path d="M121.424 182.784H122.533V165.887H121.424V182.784Z" fill="#2EA8BC"/>
<path d="M229.104 184.022V164.668H212.206V184.022H229.104Z" fill="#2EA8BC"/>
<path d="M227.836 182.698V165.985H213.461V182.698H227.836Z" fill="#D4F0F5"/>
<path d="M210.678 184.023V186.241H230.641V184.023H210.678Z" fill="#2EA8BC"/>
<g opacity="0.4">
<mask id="mask10_1744_15118" style="mask-type:luminance" maskUnits="userSpaceOnUse" x="213" y="165" width="15" height="18">
<path d="M227.832 182.697V165.984H213.458V182.697H227.832Z" fill="white"/>
</mask>
<g mask="url(#mask10_1744_15118)">
<path d="M231.45 158.462L203.891 176.195L208.262 182.989L235.822 165.256L231.45 158.462Z" fill="white"/>
<path d="M238.846 166.396L211.326 184.087L214.039 188.307L241.558 170.616L238.846 166.396Z" fill="white"/>
</g>
</g>
<path d="M220.096 182.784H221.205V165.887H220.096V182.784Z" fill="#2EA8BC"/>
<path d="M228.611 155.547V136.192H211.714V155.547H228.611Z" fill="#2EA8BC"/>
<path d="M227.348 154.218V137.506H212.973V154.218H227.348Z" fill="#D4F0F5"/>
<g opacity="0.4">
<mask id="mask11_1744_15118" style="mask-type:luminance" maskUnits="userSpaceOnUse" x="212" y="137" width="16" height="18">
<path d="M227.35 154.216V137.504H212.975V154.216H227.35Z" fill="white"/>
</mask>
<g mask="url(#mask11_1744_15118)">
<path d="M230.97 129.982L203.41 147.716L207.782 154.51L235.341 136.776L230.97 129.982Z" fill="white"/>
<path d="M238.4 137.943L210.881 155.634L213.594 159.853L241.113 142.162L238.4 137.943Z" fill="white"/>
</g>
</g>
<path d="M219.617 154.32H220.727V137.423H219.617V154.32Z" fill="#2EA8BC"/>
<path d="M129.934 154.806V135.451H113.037V154.806H129.934Z" fill="#2EA8BC"/>
<path d="M128.676 153.482V136.77H114.301V153.482H128.676Z" fill="#D4F0F5"/>
<g opacity="0.4">
<mask id="mask12_1744_15118" style="mask-type:luminance" maskUnits="userSpaceOnUse" x="114" y="136" width="15" height="18">
<path d="M128.672 153.482V136.77H114.297V153.482H128.672Z" fill="white"/>
</mask>
<g mask="url(#mask12_1744_15118)">
<path d="M132.283 129.257L104.732 146.984L109.104 153.778L136.654 136.05L132.283 129.257Z" fill="white"/>
<path d="M140.089 137.069L112.539 154.797L115.257 159.021L142.808 141.294L140.089 137.069Z" fill="white"/>
</g>
</g>
<path d="M120.93 153.577H122.039V136.68H120.93V153.577Z" fill="#2EA8BC"/>
<path d="M163.314 154.806V135.451H146.417V154.806H163.314Z" fill="#2EA8BC"/>
<path d="M162.057 153.492V136.78H147.682V153.492H162.057Z" fill="#D4F0F5"/>
<g opacity="0.4">
<mask id="mask13_1744_15118" style="mask-type:luminance" maskUnits="userSpaceOnUse" x="147" y="136" width="16" height="18">
<path d="M162.059 153.493V136.781H147.684V153.493H162.059Z" fill="white"/>
</mask>
<g mask="url(#mask13_1744_15118)">
<path d="M165.679 129.257L138.129 146.984L142.501 153.778L170.051 136.05L165.679 129.257Z" fill="white"/>
<path d="M173.496 137.076L145.945 154.804L148.664 159.028L176.214 141.3L173.496 137.076Z" fill="white"/>
</g>
</g>
<path d="M154.315 153.577H155.424V136.68H154.315V153.577Z" fill="#2EA8BC"/>
<path d="M196.721 154.806V135.451H179.824V154.806H196.721Z" fill="#2EA8BC"/>
<path d="M195.457 153.492V136.78H181.083V153.492H195.457Z" fill="#D4F0F5"/>
<g opacity="0.4">
<mask id="mask14_1744_15118" style="mask-type:luminance" maskUnits="userSpaceOnUse" x="181" y="136" width="15" height="18">
<path d="M195.463 153.493V136.781H181.088V153.493H195.463Z" fill="white"/>
</mask>
<g mask="url(#mask14_1744_15118)">
<path d="M198.728 129.363L171.209 147.054L175.572 153.84L203.091 136.149L198.728 129.363Z" fill="white"/>
<path d="M206.9 137.072L179.35 154.8L182.068 159.024L209.618 141.296L206.9 137.072Z" fill="white"/>
</g>
</g>
<path d="M187.727 153.577H188.836V136.68H187.727V153.577Z" fill="#2EA8BC"/>
<path d="M148.997 160.189H145.311V202.639H148.997V160.189Z" fill="#2EA8BC"/>
<path d="M198.752 160.189H195.066V202.639H198.752V160.189Z" fill="#2EA8BC"/>
<path d="M137.44 162.471L171.148 135.712C171.334 135.576 171.558 135.503 171.789 135.503C172.02 135.503 172.244 135.576 172.431 135.712L205.877 161.895C206.021 162.038 206.122 162.219 206.168 162.416C206.215 162.613 206.206 162.82 206.141 163.012C206.077 163.204 205.96 163.375 205.803 163.504C205.647 163.633 205.458 163.716 205.257 163.744L138.136 164.309C137.931 164.292 137.735 164.218 137.571 164.094C137.406 163.971 137.28 163.803 137.207 163.61C137.134 163.418 137.118 163.209 137.159 163.007C137.2 162.806 137.298 162.62 137.44 162.471Z" fill="#2EA8BC"/>
<path d="M179.932 202.237V169.573H162.491V202.237H179.932Z" fill="#147A7F"/>
<path d="M164.089 202.138L163.98 171.095V170.986H164.089H178.54H178.67V171.128V202.171V202.247H178.594L164.089 202.138ZM164.089 202.138L178.54 202.073L178.464 202.138V171.095L178.594 171.226H164.144L164.252 171.117L164.089 202.138Z" fill="#D6D6D6"/>
<path d="M189.753 198.79H153.176V202.476H189.753V198.79Z" fill="#147A7F"/>
<path d="M184.097 195.104H158.816V198.79H184.097V195.104Z" fill="#2EA8BC"/>
<path d="M206.06 203.607C205.86 202.734 205.891 201.823 206.15 200.965C206.408 200.107 206.886 199.332 207.535 198.714C208.185 198.096 208.983 197.659 209.853 197.443C210.723 197.228 211.634 197.242 212.496 197.486C212.842 197.621 213.213 197.68 213.584 197.66C214.236 197.573 214.671 196.92 214.986 196.355C215.669 195.151 216.607 194.111 217.734 193.307C218.861 192.503 220.15 191.955 221.51 191.701C224.261 191.353 227.306 192.93 228.034 195.594C228.677 195.219 229.391 194.984 230.13 194.905C230.87 194.826 231.618 194.905 232.325 195.136C233.031 195.367 233.681 195.746 234.231 196.246C234.781 196.747 235.219 197.358 235.515 198.04C237.317 197.74 239.165 198.153 240.667 199.192C242.169 200.232 243.207 201.815 243.561 203.607" fill="#9CD9DB"/>
<path d="M237.104 203.562C237.401 202.787 237.854 202.082 238.435 201.489C239.015 200.897 239.711 200.429 240.479 200.115C241.247 199.801 242.071 199.648 242.9 199.665C243.73 199.682 244.547 199.868 245.302 200.213C246.02 198.648 247.273 197.391 248.836 196.668C249.625 196.333 250.504 196.274 251.331 196.501C252.158 196.728 252.884 197.227 253.392 197.919C253.517 198.178 253.686 198.414 253.892 198.615C254.324 198.835 254.816 198.911 255.294 198.832C257.882 198.832 259.644 201.431 260.818 203.692" fill="#9CD9DB"/>
<path d="M210.365 194.779H208.527V203.076H210.365V194.779Z" fill="#147A7F"/>
<path d="M216.912 194.779H215.074V203.076H216.912V194.779Z" fill="#147A7F"/>
<path d="M223.459 194.779H221.621V203.076H223.459V194.779Z" fill="#147A7F"/>
<path d="M230 194.779H228.162V203.076H230V194.779Z" fill="#147A7F"/>
<path d="M236.058 194.779H234.221V203.076H236.058V194.779Z" fill="#147A7F"/>
<path d="M242.607 194.779H240.77V203.076H242.607V194.779Z" fill="#147A7F"/>
<path d="M249.154 194.779H247.316V203.076H249.154V194.779Z" fill="#147A7F"/>
<path d="M255.697 194.779H253.859V203.076H255.697V194.779Z" fill="#147A7F"/>
<path d="M205.525 193.102V194.939H259.163V193.102H205.525Z" fill="#147A7F"/>
<path d="M135.565 203.562C135.765 202.689 135.734 201.778 135.475 200.92C135.216 200.062 134.739 199.286 134.089 198.669C133.44 198.051 132.641 197.613 131.771 197.398C130.901 197.183 129.99 197.197 129.128 197.441C128.782 197.574 128.412 197.637 128.041 197.625C127.377 197.527 126.953 196.875 126.627 196.31C125.946 195.105 125.009 194.065 123.881 193.263C122.754 192.461 121.464 191.916 120.103 191.667C117.363 191.308 114.308 192.885 113.579 195.549C112.937 195.173 112.223 194.939 111.483 194.86C110.744 194.781 109.996 194.86 109.289 195.091C108.582 195.322 107.932 195.7 107.382 196.201C106.832 196.702 106.395 197.313 106.098 197.995C104.303 197.701 102.463 198.118 100.969 199.157C99.4754 200.196 98.4448 201.776 98.0957 203.562" fill="#9CD9DB"/>
<path d="M104.525 203.53C104.229 202.754 103.777 202.048 103.196 201.454C102.616 200.861 101.92 200.392 101.152 200.078C100.383 199.764 99.5586 199.612 98.7286 199.629C97.8987 199.647 97.0812 199.835 96.3267 200.181C95.6153 198.609 94.3605 197.346 92.7929 196.625C92.0031 196.294 91.125 196.237 90.299 196.464C89.473 196.69 88.747 197.188 88.237 197.876C88.1121 198.135 87.9429 198.371 87.7368 198.572C87.3047 198.793 86.8129 198.869 86.3342 198.789C83.7572 198.789 81.9849 201.388 80.8105 203.66" fill="#9CD9DB"/>
<path d="M88.9333 194.779H87.0957V203.076H88.9333V194.779Z" fill="#147A7F"/>
<path d="M95.4782 194.779H93.6406V203.076H95.4782V194.779Z" fill="#147A7F"/>
<path d="M102.025 194.779H100.188V203.076H102.025V194.779Z" fill="#147A7F"/>
<path d="M108.568 194.779H106.73V203.076H108.568V194.779Z" fill="#147A7F"/>
<path d="M114.625 194.779H112.787V203.076H114.625V194.779Z" fill="#147A7F"/>
<path d="M121.172 194.779H119.334V203.076H121.172V194.779Z" fill="#147A7F"/>
<path d="M127.716 194.779H125.879V203.076H127.716V194.779Z" fill="#147A7F"/>
<path d="M134.261 194.779H132.424V203.076H134.261V194.779Z" fill="#147A7F"/>
<path d="M84.0957 193.102V194.939H137.734V193.102H84.0957Z" fill="#147A7F"/>
<path d="M261.176 202.659H80.5273V206.236H261.176V202.659Z" fill="#2EA8BC"/>
<path opacity="0.52" d="M241.3 120.229H100.557V130.298H241.3V120.229Z" fill="#9CD9DB"/>
<path d="M252.347 125.471H91.8027V128.298H252.347V125.471Z" fill="#2EA8BC"/>
<path d="M252.347 125.634H91.8027L106.155 94.46H237.994L252.347 125.634Z" fill="#2EA8BC"/>
<path d="M559.258 94.4081C573.008 86.3022 577.431 68.3242 569.136 54.2533C560.841 40.1823 542.969 35.3468 529.219 43.4527C515.469 51.5587 511.047 69.5366 519.342 83.6076C527.637 97.6785 545.508 102.514 559.258 94.4081Z" fill="#D4F0F5"/>
<path d="M547.189 42.2142C551.335 42.4245 555.387 43.5214 559.073 45.4309C562.759 47.3403 565.992 50.018 568.555 53.2832C571.802 58.3452 573.454 64.2661 573.296 70.2782C573.227 74.0938 572.394 77.8568 570.845 81.3445C569.295 84.8321 567.062 87.9734 564.277 90.5822C561.492 93.191 558.211 95.2143 554.63 96.5323C551.048 97.8503 547.239 98.4361 543.427 98.2551C538.253 98.0028 533.239 96.3778 528.9 93.547C525.344 90.6932 522.496 87.0562 520.578 82.9198C518.66 78.7835 517.723 74.2598 517.842 69.7019C517.909 65.9529 518.728 62.2555 520.25 58.8288C521.772 55.402 523.966 52.3156 526.703 49.7524C529.44 47.1891 532.663 45.2012 536.182 43.9064C539.701 42.6115 543.444 42.0361 547.189 42.2142Z" fill="#D4F0F5"/>
<g opacity="0.85">
<path d="M543.748 83.924C545.796 84.089 547.856 83.8223 549.794 83.1411C551.287 82.6282 552.588 81.6723 553.524 80.4011C554.356 79.2265 554.814 77.8281 554.839 76.3888C554.959 74.8325 554.507 73.2858 553.567 72.0395C552.691 70.9618 551.573 70.1051 550.305 69.5387C548.663 68.8284 546.973 68.2326 545.249 67.7554C543.974 67.4082 542.718 66.9944 541.487 66.5159C540.611 66.1635 539.813 65.6426 539.138 64.9828C538.827 64.6676 538.586 64.2912 538.428 63.8775C538.271 63.4637 538.202 63.0218 538.225 62.5798C538.233 61.9466 538.4 61.3256 538.712 60.7744C539.024 60.2232 539.469 59.7596 540.008 59.4265C541.577 58.5547 543.38 58.2008 545.162 58.4153C546.497 58.4863 547.815 58.7462 549.076 59.1873C550.398 59.6454 551.65 60.2858 552.795 61.0901L554.209 57.9151C552.978 57 551.599 56.3047 550.131 55.8601C548.549 55.3532 546.908 55.0535 545.249 54.9685C543.214 54.8078 541.168 55.0821 539.247 55.7731C537.781 56.3088 536.506 57.2659 535.583 58.524C534.741 59.7111 534.279 61.125 534.256 62.5798C534.144 64.1336 534.591 65.6764 535.517 66.9291C536.386 68.0232 537.504 68.8922 538.779 69.4626C540.431 70.1768 542.127 70.7834 543.857 71.2784C545.532 71.7677 546.826 72.1917 547.739 72.5614C548.6 72.8947 549.379 73.4103 550.022 74.0728C550.325 74.3946 550.559 74.7744 550.71 75.1894C550.862 75.6043 550.927 76.0457 550.903 76.4867C550.89 77.1081 550.717 77.7155 550.401 78.2507C550.084 78.7858 549.636 79.2305 549.098 79.5421C547.484 80.3716 545.659 80.701 543.857 80.4881C542.092 80.4011 540.355 80.0074 538.725 79.3246C537.218 78.724 535.841 77.8379 534.669 76.715L533.104 79.803C534.409 81.044 535.961 81.9961 537.659 82.5975C539.602 83.3711 541.66 83.8193 543.748 83.924Z" fill="white"/>
<path d="M546.659 88.2519L544.658 88.1541L545.702 49.6953L547.703 49.7932L546.659 88.2519Z" fill="white"/>
<path d="M542.399 88.0459L540.398 87.948L541.442 49.4893L543.454 49.5871L542.399 88.0459Z" fill="white"/>
</g>
<path d="M309.022 192.993H318.177C318.373 192.992 318.567 193.029 318.748 193.103C318.929 193.176 319.094 193.285 319.234 193.422C319.373 193.559 319.484 193.723 319.56 193.903C319.636 194.083 319.676 194.277 319.678 194.472V203.627C319.678 204.02 319.833 204.396 320.111 204.673C320.388 204.95 320.764 205.106 321.156 205.106H321.385C321.58 205.108 321.773 205.07 321.954 204.997C322.135 204.923 322.299 204.814 322.437 204.677C322.576 204.54 322.686 204.376 322.761 204.196C322.836 204.016 322.874 203.823 322.874 203.627V194.472C322.874 194.277 322.913 194.084 322.988 193.904C323.063 193.724 323.173 193.56 323.311 193.423C323.45 193.285 323.614 193.177 323.795 193.103C323.975 193.029 324.169 192.992 324.364 192.993H333.508C333.903 192.993 334.282 192.836 334.562 192.557C334.841 192.278 334.998 191.899 334.998 191.504V191.275C334.998 190.88 334.841 190.501 334.562 190.222C334.282 189.943 333.903 189.786 333.508 189.786H324.353C323.958 189.786 323.579 189.629 323.3 189.349C323.02 189.07 322.863 188.691 322.863 188.296V179.152C322.863 178.757 322.707 178.378 322.427 178.098C322.148 177.819 321.769 177.662 321.374 177.662H321.145C320.752 177.665 320.376 177.823 320.099 178.102C319.822 178.381 319.667 178.759 319.667 179.152V188.296C319.667 188.691 319.51 189.07 319.23 189.349C318.951 189.629 318.572 189.786 318.177 189.786H309.022C308.827 189.786 308.633 189.824 308.453 189.899C308.273 189.974 308.11 190.084 307.972 190.223C307.835 190.361 307.726 190.526 307.652 190.706C307.579 190.887 307.542 191.08 307.543 191.275V191.504C307.543 191.897 307.698 192.274 307.975 192.553C308.252 192.832 308.629 192.991 309.022 192.993Z" fill="white"/>
<path d="M334.801 209.367H340.335C340.575 209.367 340.804 209.462 340.974 209.631C341.143 209.801 341.238 210.03 341.238 210.269V215.891C341.241 216.132 341.338 216.363 341.509 216.534C341.679 216.704 341.91 216.801 342.151 216.804H342.282C342.523 216.801 342.754 216.704 342.924 216.534C343.095 216.363 343.192 216.132 343.195 215.891V210.313C343.195 210.194 343.218 210.077 343.264 209.968C343.309 209.858 343.376 209.759 343.459 209.675C343.543 209.591 343.643 209.525 343.752 209.479C343.862 209.434 343.979 209.41 344.098 209.41H349.676C349.915 209.41 350.144 209.315 350.314 209.146C350.483 208.977 350.578 208.747 350.578 208.508V208.367C350.578 208.126 350.483 207.896 350.314 207.725C350.145 207.554 349.916 207.456 349.676 207.453H344.141C343.902 207.453 343.672 207.358 343.503 207.189C343.334 207.02 343.239 206.79 343.239 206.551V200.973C343.236 200.732 343.138 200.503 342.967 200.334C342.796 200.165 342.566 200.07 342.325 200.07H342.195C341.954 200.07 341.724 200.165 341.553 200.334C341.382 200.503 341.284 200.732 341.281 200.973V206.551C341.281 206.79 341.186 207.02 341.017 207.189C340.848 207.358 340.618 207.453 340.379 207.453H334.801C334.561 207.456 334.331 207.554 334.162 207.725C333.993 207.896 333.898 208.126 333.898 208.367V208.508C333.91 208.74 334.01 208.958 334.178 209.118C334.346 209.278 334.569 209.367 334.801 209.367Z" fill="white"/>
<path d="M191.427 9.68077C193.964 6.16635 197.486 3.48324 201.547 1.97086C205.609 0.45849 210.028 0.184809 214.246 1.18444C218.463 2.18408 222.289 4.41212 225.24 7.58669C228.191 10.7613 230.134 14.7397 230.823 19.0188C231.513 23.2978 230.917 27.6852 229.113 31.6259C227.308 35.5665 224.375 38.8834 220.685 41.1569C216.995 43.4304 212.714 44.5583 208.382 44.3981C204.051 44.2378 199.865 42.7964 196.353 40.2564C191.65 36.8514 188.49 31.7196 187.566 25.9873C186.643 20.255 188.031 14.3904 191.427 9.68077Z" fill="#92D5E4"/>
<path d="M168.231 9.79004C168.894 8.86765 169.817 8.16287 170.881 7.76495C171.945 7.36703 173.104 7.29386 174.209 7.5547C175.315 7.81554 176.319 8.39867 177.093 9.23024C177.868 10.0618 178.378 11.1044 178.559 12.2261C178.74 13.3478 178.585 14.498 178.112 15.5312C177.639 16.5644 176.871 17.4341 175.903 18.0302C174.936 18.6262 173.813 18.9218 172.678 18.8796C171.543 18.8373 170.445 18.4591 169.525 17.7928C168.294 16.9017 167.467 15.5589 167.224 14.0588C166.981 12.5587 167.344 11.0236 168.231 9.79004Z" fill="#92D5E4"/>
<path d="M527.843 134.519L526.549 131.518L527.06 131.333L527.843 134.519Z" fill="#80C3DA"/>
<path d="M523.745 125.646C522.658 123.754 521.701 121.829 520.689 119.926L522.516 119.002C523.364 121.035 524.223 123.047 525.028 125.091L523.745 125.646Z" fill="#80C3DA"/>
<path d="M517.427 114.304C516.264 112.477 515.122 110.651 514.002 108.802L516.481 107.302C517.568 109.205 518.656 111.129 519.667 113.065L517.427 114.304Z" fill="#80C3DA"/>
<path d="M510.412 103.408L506.715 98.08L509.335 96.2207L513.021 101.679L510.412 103.408Z" fill="#80C3DA"/>
<path d="M502.881 92.861L498.912 87.7288L501.348 85.7607L505.447 90.9147L502.881 92.861Z" fill="#80C3DA"/>
<path d="M494.84 82.6734C493.39 81.0424 491.991 79.3933 490.643 77.726L492.513 75.9863C494.035 77.5738 495.539 79.1722 497.025 80.7814L494.84 82.6734Z" fill="#80C3DA"/>
<path d="M486.317 72.8777C484.827 71.3011 483.316 69.7462 481.848 68.1479L482.805 67.0605C484.479 68.4741 486.066 69.9311 487.774 71.4099L486.317 72.8777Z" fill="#80C3DA"/>
<path d="M477.214 63.5485L474.844 61.3086L477.562 63.1244L477.214 63.5485Z" fill="#80C3DA"/>
<path d="M521.481 9.09444L518.556 13.8787C518.497 13.9703 518.419 14.0481 518.328 14.107L513.087 17.369C512.986 17.4313 512.902 17.5185 512.844 17.6222C512.786 17.7259 512.756 17.8428 512.756 17.9616C512.756 18.0804 512.786 18.1973 512.844 18.301C512.902 18.4047 512.986 18.4919 513.087 18.5542L518.654 21.9249C518.758 21.9849 518.844 22.0712 518.904 22.175L521.557 26.6983C521.62 26.7995 521.707 26.883 521.81 26.941C521.914 26.9989 522.031 27.0293 522.15 27.0293C522.269 27.0293 522.385 26.9989 522.489 26.941C522.593 26.883 522.68 26.7995 522.742 26.6983L525.722 22.0989C525.772 22.0236 525.834 21.9574 525.907 21.9032L530.908 18.2932C531.003 18.2242 531.079 18.1322 531.129 18.0259C531.179 17.9196 531.201 17.8023 531.194 17.6851C531.186 17.5679 531.149 17.4545 531.086 17.3555C531.023 17.2565 530.935 17.1751 530.832 17.1189L525.319 14.0961C525.199 14.0228 525.101 13.9174 525.037 13.7917L522.699 9.11619C522.641 9.00632 522.554 8.91405 522.448 8.84898C522.342 8.78391 522.221 8.74842 522.096 8.7462C521.972 8.74398 521.849 8.77512 521.741 8.83636C521.633 8.8976 521.543 8.98672 521.481 9.09444Z" fill="#92D5E4"/>
<path d="M494.237 22.2516L490.04 29.1126C489.968 29.2487 489.858 29.3617 489.725 29.4388L482.201 34.1905C482.054 34.2784 481.933 34.4027 481.849 34.5514C481.765 34.7 481.721 34.8678 481.721 35.0386C481.721 35.2093 481.765 35.3772 481.849 35.5258C481.933 35.6744 482.054 35.7987 482.201 35.8867L490.16 40.6601C490.304 40.7483 490.424 40.8717 490.508 41.0189L494.335 47.5428C494.425 47.6866 494.55 47.8052 494.698 47.8874C494.847 47.9696 495.014 48.0127 495.183 48.0127C495.353 48.0127 495.52 47.9696 495.668 47.8874C495.816 47.8052 495.941 47.6866 496.031 47.5428L500.315 40.9319C500.381 40.8265 500.466 40.7344 500.565 40.6601L507.785 35.5061C507.922 35.4077 508.031 35.2764 508.104 35.1244C508.176 34.9724 508.209 34.8046 508.199 34.6366C508.189 34.4685 508.137 34.3057 508.048 34.163C507.958 34.0204 507.835 33.9027 507.687 33.8208L499.783 29.4715C499.601 29.3751 499.456 29.2225 499.369 29.0365L495.988 22.3495C495.91 22.1879 495.791 22.05 495.642 21.9504C495.493 21.8507 495.32 21.7928 495.141 21.7828C494.963 21.7728 494.784 21.811 494.625 21.8935C494.466 21.976 494.332 22.0996 494.237 22.2516Z" fill="#D4F0F5"/>
<path d="M540.21 306.583C545.127 300.768 544.399 292.069 538.585 287.152C532.771 282.235 524.072 282.963 519.155 288.777C514.238 294.591 514.965 303.291 520.78 308.208C526.594 313.124 535.293 312.397 540.21 306.583Z" fill="#92D5E4"/>
<path d="M548.119 328.181C548.113 329.354 547.759 330.498 547.102 331.469C546.445 332.44 545.514 333.195 544.428 333.637C543.343 334.079 542.15 334.189 541.001 333.953C539.853 333.717 538.8 333.146 537.976 332.312C537.153 331.477 536.595 330.417 536.374 329.266C536.153 328.115 536.278 326.923 536.734 325.843C537.191 324.763 537.957 323.843 538.936 323.198C539.916 322.554 541.064 322.214 542.237 322.223C543.015 322.227 543.784 322.385 544.501 322.687C545.217 322.988 545.867 323.429 546.414 323.982C546.96 324.536 547.392 325.191 547.685 325.912C547.977 326.632 548.125 327.404 548.119 328.181Z" fill="#92D5E4"/>
<path d="M219.357 345.545C219.357 355.418 235.809 381.71 235.809 381.71C235.809 381.71 252.564 355.614 252.619 345.708C252.673 335.803 245.258 327.789 236.081 327.735C226.903 327.68 219.412 335.661 219.357 345.545ZM227.056 344.784C227.107 343.026 227.676 341.323 228.69 339.887C229.705 338.451 231.121 337.346 232.76 336.711C234.4 336.076 236.19 335.938 237.908 336.315C239.625 336.693 241.193 337.568 242.415 338.832C243.637 340.096 244.46 341.693 244.779 343.422C245.098 345.151 244.9 346.936 244.21 348.553C243.52 350.17 242.368 351.548 240.899 352.514C239.43 353.48 237.708 353.991 235.95 353.983C234.76 353.969 233.585 353.719 232.492 353.248C231.4 352.777 230.411 352.094 229.584 351.238C228.757 350.383 228.108 349.372 227.674 348.264C227.24 347.156 227.03 345.974 227.056 344.784Z" fill="white"/>
<path d="M101.74 375.08C109.91 366.7 109.742 353.286 101.366 345.12C92.9895 336.955 79.576 337.129 71.4062 345.51C63.2363 353.891 63.4038 367.304 71.7802 375.47C80.1567 383.636 93.5701 383.461 101.74 375.08Z" fill="#92D5E4"/>
<path d="M125.695 346.492C125.719 347.592 125.415 348.675 124.822 349.602C124.23 350.53 123.375 351.261 122.366 351.702C121.358 352.143 120.241 352.274 119.158 352.08C118.075 351.885 117.073 351.373 116.281 350.609C115.489 349.844 114.942 348.862 114.71 347.786C114.477 346.71 114.569 345.589 114.974 344.566C115.379 343.542 116.079 342.662 116.985 342.037C117.891 341.412 118.962 341.07 120.063 341.055C121.528 341.038 122.941 341.598 123.996 342.616C125.05 343.634 125.661 345.027 125.695 346.492Z" fill="#92D5E4"/>
<path d="M137.538 398.629C136.226 393.25 136.009 387.661 136.899 382.196C137.789 376.731 139.769 371.5 142.721 366.816C145.672 362.131 149.535 358.087 154.081 354.924C158.626 351.761 163.76 349.545 169.179 348.405C180.261 346.07 191.817 348.141 201.399 354.179C210.981 360.217 217.836 369.748 220.512 380.753C225.948 403.587 212.563 426.704 188.87 430.966C165.808 435.12 142.974 421.398 137.538 398.629Z" fill="#92D5E4"/>
<path d="M213.02 378.066C211.465 370.993 208.036 364.468 203.093 359.174C198.15 353.881 191.874 350.015 184.923 347.98C179.694 347.15 174.356 347.294 169.179 348.404C163.76 349.543 158.626 351.76 154.081 354.923C149.535 358.085 145.672 362.129 142.721 366.814C139.769 371.499 137.789 376.73 136.899 382.195C136.009 387.66 136.226 393.248 137.538 398.628C139.039 404.848 141.899 410.659 145.91 415.644C149.922 420.63 154.986 424.666 160.741 427.464C168.07 430.465 176.464 430.921 181.781 429.758C206.072 424.408 218.609 402.912 213.02 378.066Z" fill="#92D5E4"/>
<g opacity="0.91">
<path d="M169.625 411.07C167.093 410.136 164.802 408.651 162.916 406.721L165.243 401.708C166.938 403.419 168.961 404.769 171.191 405.677C173.571 406.715 176.13 407.283 178.726 407.351C182.147 407.446 184.724 406.88 186.457 405.655C187.278 405.097 187.951 404.346 188.417 403.469C188.883 402.592 189.128 401.614 189.131 400.621C189.181 399.926 189.093 399.229 188.873 398.568C188.653 397.908 188.305 397.297 187.848 396.772C186.922 395.745 185.773 394.946 184.489 394.434C182.623 393.699 180.722 393.06 178.791 392.52C176.244 391.804 173.751 390.907 171.332 389.835C169.43 388.948 167.784 387.594 166.548 385.898C165.154 383.85 164.502 381.387 164.699 378.918C164.738 376.609 165.403 374.354 166.624 372.394C167.955 370.385 169.845 368.809 172.06 367.86C174.851 366.68 177.877 366.163 180.9 366.348C183.336 366.419 185.748 366.836 188.066 367.588C190.245 368.263 192.28 369.336 194.068 370.752L191.969 375.906C190.317 374.659 188.484 373.673 186.533 372.981C184.684 372.322 182.743 371.955 180.781 371.894C177.432 371.807 174.909 372.405 173.17 373.709C172.354 374.293 171.689 375.061 171.228 375.952C170.767 376.842 170.523 377.828 170.516 378.831C170.468 379.527 170.558 380.226 170.782 380.886C171.006 381.547 171.359 382.157 171.821 382.68C172.784 383.711 173.96 384.52 175.268 385.05C177.108 385.794 178.993 386.422 180.911 386.931C183.45 387.641 185.932 388.539 188.338 389.617C190.223 390.506 191.859 391.847 193.1 393.521C194.495 395.536 195.148 397.972 194.949 400.414C194.917 402.729 194.239 404.988 192.991 406.938C191.658 408.971 189.74 410.552 187.49 411.472C184.672 412.621 181.633 413.126 178.595 412.951C175.517 412.863 172.479 412.226 169.625 411.07Z" fill="#FBFFFF"/>
<path d="M184.533 358.012L181.588 357.93L179.853 419.655L182.798 419.737L184.533 358.012Z" fill="#FBFFFF"/>
<path d="M178.285 357.829L175.34 357.747L173.616 419.472L176.561 419.555L178.285 357.829Z" fill="#FBFFFF"/>
</g>
<path d="M216.801 445.656H115.788C115.02 445.656 114.396 446.279 114.396 447.048V469.697C114.396 470.466 115.02 471.089 115.788 471.089H216.801C217.57 471.089 218.193 470.466 218.193 469.697V447.048C218.193 446.279 217.57 445.656 216.801 445.656Z" fill="#78C9D6"/>
<path d="M215.575 447.764H211.889V469.238H215.575V447.764Z" fill="#92D5E4"/>
<path d="M210.049 447.755H206.363V469.23H210.049V447.755Z" fill="#92D5E4"/>
<path d="M204.516 447.755H200.83V469.23H204.516V447.755Z" fill="#92D5E4"/>
<path d="M198.991 447.755H195.305V469.23H198.991V447.755Z" fill="#92D5E4"/>
<path d="M193.26 447.755H189.574V469.23H193.26V447.755Z" fill="#92D5E4"/>
<path d="M187.737 447.755H184.051V469.23H187.737V447.755Z" fill="#92D5E4"/>
<path d="M182.213 447.755H178.527V469.23H182.213V447.755Z" fill="#92D5E4"/>
<path d="M176.694 447.755H173.008V469.23H176.694V447.755Z" fill="#92D5E4"/>
<path d="M171.375 447.755H167.689V469.23H171.375V447.755Z" fill="#92D5E4"/>
<path d="M165.836 447.755H162.15V469.23H165.836V447.755Z" fill="#92D5E4"/>
<path d="M160.315 447.755H156.629V469.23H160.315V447.755Z" fill="#92D5E4"/>
<path d="M154.793 447.755H151.107V469.23H154.793V447.755Z" fill="#92D5E4"/>
<path d="M149.063 447.755H145.377V469.23H149.063V447.755Z" fill="#92D5E4"/>
<path d="M143.54 447.755H139.854V469.23H143.54V447.755Z" fill="#92D5E4"/>
<path d="M138.014 447.742H134.328V469.217H138.014V447.742Z" fill="#92D5E4"/>
<path d="M132.495 447.742H128.809V469.217H132.495V447.742Z" fill="#92D5E4"/>
<path d="M127.167 447.742H123.48V469.217H127.167V447.742Z" fill="#92D5E4"/>
<path d="M121.641 447.742H117.955V469.217H121.641V447.742Z" fill="#92D5E4"/>
<path d="M224.557 420.453H123.544C122.775 420.453 122.152 421.076 122.152 421.845V444.494C122.152 445.263 122.775 445.886 123.544 445.886H224.557C225.326 445.886 225.949 445.263 225.949 444.494V421.845C225.949 421.076 225.326 420.453 224.557 420.453Z" fill="#78C9D6"/>
<path d="M223.315 422.562H219.629V444.036H223.315V422.562Z" fill="#92D5E4"/>
<path d="M217.79 422.562H214.104V444.036H217.79V422.562Z" fill="#92D5E4"/>
<path d="M212.27 422.562H208.584V444.036H212.27V422.562Z" fill="#92D5E4"/>
<path d="M206.741 422.562H203.055V444.036H206.741V422.562Z" fill="#92D5E4"/>
<path d="M201.014 422.562H197.328V444.036H201.014V422.562Z" fill="#92D5E4"/>
<path d="M195.493 422.562H191.807V444.036H195.493V422.562Z" fill="#92D5E4"/>
<path d="M189.967 422.562H186.281V444.036H189.967V422.562Z" fill="#92D5E4"/>
<path d="M184.444 422.562H180.758V444.036H184.444V422.562Z" fill="#92D5E4"/>
<path d="M179.118 422.552H175.432V444.026H179.118V422.552Z" fill="#92D5E4"/>
<path d="M173.592 422.552H169.906V444.026H173.592V422.552Z" fill="#92D5E4"/>
<path d="M168.073 422.552H164.387V444.026H168.073V422.552Z" fill="#92D5E4"/>
<path d="M162.545 422.552H158.859V444.026H162.545V422.552Z" fill="#92D5E4"/>
<path d="M156.813 422.552H153.127V444.026H156.813V422.552Z" fill="#92D5E4"/>
<path d="M151.292 422.552H147.605V444.026H151.292V422.552Z" fill="#92D5E4"/>
<path d="M145.766 422.552H142.08V444.026H145.766V422.552Z" fill="#92D5E4"/>
<path d="M140.233 422.552H136.547V444.026H140.233V422.552Z" fill="#92D5E4"/>
<path d="M134.917 422.552H131.23V444.026H134.917V422.552Z" fill="#92D5E4"/>
<path d="M129.395 422.552H125.709V444.026H129.395V422.552Z" fill="#92D5E4"/>
<mask id="mask15_1744_15118" style="mask-type:luminance" maskUnits="userSpaceOnUse" x="223" y="134" width="361" height="374">
<path d="M583.639 134.346H223.016V507.462H583.639V134.346Z" fill="white"/>
</mask>
<g mask="url(#mask15_1744_15118)">
<path d="M572.326 514.592C573.904 511.443 574.379 507.855 573.674 504.404C561.104 443.415 554.787 405.892 537.792 351.743C534.302 340.576 522.243 317.122 512.979 309.968C506.022 304.353 497.636 300.791 488.765 299.682C472.531 297.322 460.94 299.366 444.565 298.594C433.43 298.04 429.56 298.975 418.556 301.541C400.397 305.782 385.001 327.224 374.965 354.82C362.645 388.712 402.572 343.273 400.31 364.28C395.515 407.262 386.001 477.144 384.707 518.234C384.671 519.225 384.835 520.212 385.19 521.137C385.545 522.062 386.084 522.905 386.774 523.617C387.463 524.328 388.29 524.892 389.204 525.275C390.118 525.658 391.099 525.852 392.09 525.846C427.668 525.596 463.854 525.106 499.964 524.824C508.663 524.758 518.862 524.128 519.906 509.971C520.009 508.322 519.987 506.669 519.84 505.023L511.218 400.738C522.091 436.902 533.812 477.025 544.599 512.667C545.635 516.13 547.912 519.088 550.993 520.976C554.075 522.864 557.745 523.549 561.3 522.899L561.55 522.845C563.859 522.375 566.029 521.384 567.896 519.949C569.764 518.513 571.279 516.669 572.326 514.559V514.592Z" fill="#315C85"/>
<path d="M503.166 273.793C504.992 273.773 506.777 273.251 508.325 272.284C509.874 271.317 511.127 269.943 511.946 268.311C512.766 266.68 513.121 264.854 512.972 263.034C512.824 261.215 512.177 259.471 511.103 257.994C507.537 253.123 503.633 248.208 502.916 244.381C502.486 242.772 502.585 241.068 503.199 239.521C504.068 237.683 506.113 236.182 507.276 234.421C510.94 228.865 505.243 222.776 503.318 216.861C501.144 210.119 503.764 202.464 497.968 196.713C495.719 194.727 493.214 193.052 490.52 191.733L477.679 184.654C471.09 181.022 463.033 177.151 454.671 178.532C448.354 179.62 444.113 183.284 439.253 186.144C433.599 189.406 426.662 191.667 421.018 194.962C411.232 200.681 406.035 209.586 407.535 218.111C408.057 221.069 409.34 223.961 409.982 226.918C411.13 232.333 410.199 237.981 407.372 242.739C405.013 246.882 401.381 250.644 398.674 254.7C397.173 256.95 396.151 261.332 396.336 265.714C396.482 268.27 397.612 270.669 399.49 272.409C401.367 274.148 403.846 275.093 406.405 275.044C406.405 275.044 437.48 279.969 456.248 280.578C473.808 281.133 503.166 273.793 503.166 273.793Z" fill="#38303B"/>
<path d="M466.609 309.401C468.126 308.762 469.424 307.696 470.346 306.334C471.269 304.971 471.776 303.37 471.807 301.725C471.97 293.287 472.242 280.859 472.329 275.151C472.329 272.802 472.405 270.453 472.329 268.105C472.362 267.577 472.229 267.052 471.948 266.604C471.659 266.298 471.277 266.096 470.861 266.028C466.849 265.082 462.825 267.115 458.77 267.931C453.822 268.866 448.701 267.855 443.732 268.616C443.425 268.628 443.123 268.704 442.848 268.841C442.572 268.978 442.329 269.172 442.134 269.41C441.968 269.749 441.876 270.119 441.862 270.497C441.155 277.227 440.046 291.58 439.241 300.061C439.154 301.005 439.255 301.957 439.536 302.862C439.818 303.767 440.276 304.607 440.883 305.335L444.243 309.325C445.947 311.363 448.261 312.799 450.842 313.423C453.424 314.048 456.138 313.827 458.585 312.794L466.609 309.401Z" fill="#F7B094"/>
<path d="M471.954 266.583C471.664 266.277 471.282 266.074 470.867 266.006C466.854 265.061 462.831 267.094 458.776 267.909C453.828 268.844 448.707 267.833 443.738 268.594C443.43 268.606 443.129 268.683 442.854 268.82C442.578 268.957 442.335 269.15 442.14 269.388C441.974 269.728 441.881 270.098 441.868 270.475L440.693 281.773C444.803 284.471 449.534 286.073 454.437 286.426C457.832 286.614 461.223 285.991 464.329 284.608C467.435 283.226 470.168 281.125 472.302 278.478C472.302 277.391 472.302 276.249 472.302 275.14C472.302 272.791 472.378 270.443 472.302 268.094C472.348 267.566 472.226 267.038 471.954 266.583Z" fill="#E89C82"/>
<path d="M470.359 304.519C467.293 318.904 460.976 371.107 455.833 378.979C453.473 377.391 446.384 335.692 445.547 332.974C441.687 320.492 441.719 314.49 439.381 303.16C439.207 302.355 439.077 298.582 439.686 298.017C440.664 297.32 441.732 296.761 442.861 296.353C448.221 295.777 450.472 297.201 455.854 296.636C462.465 295.929 467.021 293.515 471.61 298.321" fill="#F7B094"/>
<path d="M455.879 282.547C472.639 282.547 486.226 264.598 486.226 242.457C486.226 220.316 472.639 202.367 455.879 202.367C439.118 202.367 425.531 220.316 425.531 242.457C425.531 264.598 439.118 282.547 455.879 282.547Z" fill="#F7B094"/>
<path d="M484.572 251.089C488.302 250.001 491.542 246.902 491.846 243.195C492.151 239.487 488.835 235.583 484.942 235.866" fill="#F7B094"/>
<path d="M428.128 251.089C424.398 250.001 421.158 246.902 420.853 243.195C420.549 239.487 423.865 235.583 427.758 235.866" fill="#F7B094"/>
<path d="M453.874 235.954L453.483 243.63C453.514 244.806 453.431 245.983 453.233 247.142C452.983 248.088 452.232 248.328 451.384 248.578C451.041 248.719 450.736 248.94 450.495 249.221C450.254 249.503 450.082 249.838 449.995 250.199C449.908 250.559 449.908 250.936 449.995 251.296C450.081 251.657 450.252 251.993 450.493 252.275C451.852 253.949 454.537 253.449 456.125 252.47C456.821 252.046 457.452 253.134 456.767 253.558C455.877 254.153 454.85 254.508 453.783 254.59C452.717 254.672 451.647 254.478 450.677 254.025C449.919 253.601 449.327 252.933 448.995 252.13C448.664 251.327 448.613 250.435 448.851 249.6C449.071 248.83 449.566 248.169 450.243 247.74C450.699 247.469 451.33 247.49 451.776 247.197C452.221 246.903 452.113 245.696 452.145 245.174C452.298 242.119 452.461 239.053 452.624 235.997C452.624 235.182 453.918 235.182 453.874 235.997V235.954Z" fill="#E89C82"/>
<path d="M447.144 225.951C447.372 226.124 447.144 226.429 446.818 226.472C446.501 226.495 446.183 226.439 445.893 226.309C442.195 225.053 438.186 225.053 434.487 226.309C433.95 226.546 433.377 226.693 432.791 226.744C432.182 226.744 431.508 226.472 431.486 226.038C431.497 225.838 431.578 225.649 431.715 225.505C432.39 224.789 433.247 224.271 434.194 224.004C437.529 222.885 441.143 222.916 444.458 224.091C445.579 224.425 446.563 225.111 447.263 226.048" fill="#38303B"/>
<path d="M463.085 225.951C462.857 226.124 463.085 226.429 463.411 226.472C463.728 226.495 464.046 226.439 464.336 226.309C468.038 225.053 472.051 225.053 475.753 226.309C476.29 226.548 476.863 226.695 477.449 226.744C478.047 226.744 478.721 226.472 478.743 226.038C478.737 225.839 478.66 225.65 478.525 225.505C477.843 224.793 476.984 224.275 476.035 224.004C472.7 222.885 469.086 222.916 465.771 224.091C464.654 224.427 463.674 225.113 462.977 226.048" fill="#38303B"/>
<path d="M472.85 236.629C472.85 238.804 471.838 240.609 470.577 240.609C469.316 240.609 468.305 238.825 468.305 236.629C468.305 234.433 469.316 232.66 470.577 232.66C471.838 232.66 472.85 234.443 472.85 236.629Z" fill="#15213F"/>
<path d="M440.991 236.629C440.991 238.804 439.969 240.609 438.708 240.609C437.447 240.609 436.436 238.825 436.436 236.629C436.436 234.433 437.458 232.66 438.708 232.66C439.958 232.66 440.991 234.443 440.991 236.629Z" fill="#15213F"/>
<path d="M442.196 261.744C447.98 267.822 453.33 268.8 459.723 266.876C461.713 266.267 464.888 264.092 465.813 261.374C457.984 265.723 449.818 266.06 442.076 261.298" fill="#E66E60"/>
<path d="M442.197 261.744C447.318 265.31 453.505 266.43 461.769 264.223C463.664 263.834 465.336 262.728 466.434 261.135C458.323 263.798 449.563 263.737 441.49 260.961L442.197 261.744Z" fill="white"/>
<path d="M476.697 198.604C464.226 209.477 445.959 216.806 426.561 218.719C424.717 219.014 422.832 218.921 421.026 218.448C419.937 218.031 418.981 217.327 418.261 216.409C417.541 215.492 417.084 214.396 416.938 213.239C415.492 205.628 420.113 197.854 427.713 192.515C435.314 187.176 445.589 184.121 456.06 182.859C462.04 182.131 469.543 182.49 472.315 186.382" fill="#38303B"/>
<path d="M474.763 193.06C473.1 197.224 471.382 201.497 468.37 204.901C465.358 208.304 461.161 210.337 457.072 212.12C449.114 215.515 440.678 217.657 432.064 218.47C427.436 218.96 422.766 218.883 418.157 218.242C417.07 218.068 417.505 216.361 418.625 216.524C426.627 217.72 434.934 216.72 442.818 214.904C446.785 213.988 450.681 212.786 454.474 211.305C458.334 209.783 462.444 207.978 465.575 205.216C469.348 201.954 471.284 197.137 473.089 192.581C473.513 191.494 475.263 191.994 474.807 193.06H474.763Z" fill="#423F44"/>
<path d="M498.616 269.77C500.693 269.77 501.954 267.66 502.172 265.779C502.455 263.387 501.085 261.104 499.812 259.179C497.192 255.091 494.811 250.839 494.713 245.848C494.66 243.547 495.211 241.271 496.311 239.248C497.399 237.269 499.149 235.421 499.475 233.116C500.063 229.115 496.039 225.94 494.039 222.949C490.777 218.1 491.962 212.642 493.593 207.411C493.93 206.324 495.648 206.781 495.3 207.879C494.335 210.512 493.778 213.276 493.647 216.077C493.703 218.525 494.562 220.887 496.094 222.797C498.377 225.907 501.813 229.017 501.248 233.257C500.932 235.649 499.41 237.541 498.203 239.553C496.874 241.768 496.298 244.355 496.561 246.925C496.868 249.601 497.707 252.189 499.03 254.536C500.247 256.809 501.911 258.82 502.987 261.169C503.538 262.212 503.86 263.36 503.933 264.538C504.006 265.715 503.828 266.894 503.412 267.997C503.059 269 502.415 269.874 501.563 270.51C500.711 271.145 499.689 271.512 498.627 271.564C498.409 271.54 498.208 271.436 498.061 271.272C497.915 271.109 497.834 270.897 497.834 270.678C497.834 270.458 497.915 270.246 498.061 270.083C498.208 269.919 498.409 269.816 498.627 269.791L498.616 269.77Z" fill="#423F44"/>
<path d="M487.813 268.541C489.045 267.686 490.076 266.573 490.835 265.279C491.073 264.666 491.181 264.01 491.153 263.354C491.125 262.697 490.962 262.053 490.672 261.462C489.748 259.07 488.041 256.667 488.933 253.992C489.302 252.905 491.02 253.384 490.651 254.471C490.336 255.732 490.515 257.066 491.151 258.2C491.793 259.471 492.331 260.79 492.76 262.147C493.122 263.533 492.964 265.003 492.314 266.279C491.478 267.676 490.369 268.889 489.052 269.846C488.172 270.563 486.878 269.313 487.791 268.584L487.813 268.541Z" fill="#423F44"/>
<path d="M420.852 268.844C422.113 268.398 422.526 266.875 422.516 265.658C422.516 263.918 421.613 262.265 421.124 260.623C420.308 257.938 420.591 254.393 423.592 253.24C424.679 252.827 425.125 254.545 424.07 254.958C422.82 255.437 422.439 256.992 422.461 258.22C422.461 259.96 423.385 261.602 423.875 263.255C424.679 265.93 424.342 269.518 421.319 270.594C420.232 270.986 419.775 269.268 420.852 268.876V268.844Z" fill="#423F44"/>
<path d="M410.629 267.259C407.65 264.094 407.704 259.321 409.205 255.472C411.14 250.492 414.642 246.414 416.11 241.206C416.836 238.533 417.144 235.764 417.023 232.997C416.903 230.159 416.425 227.343 416.305 224.505C416.281 222.14 416.471 219.779 416.871 217.448C417.121 215.491 417.36 213.534 417.784 211.62C418.621 207.847 420.339 204.096 424.308 202.921C424.525 202.885 424.747 202.93 424.933 203.048C425.119 203.166 425.254 203.348 425.313 203.56C425.373 203.772 425.352 203.998 425.254 204.195C425.157 204.392 424.991 204.547 424.786 204.628C421.448 205.651 420.187 208.978 419.502 212.12C419.1 213.936 418.871 215.784 418.632 217.622C418.278 219.699 418.085 221.8 418.056 223.907C418.175 229.05 419.295 233.997 418.393 239.129C417.973 241.527 417.242 243.859 416.218 246.066C415.218 248.241 413.902 250.264 412.706 252.351C410.445 256.32 408.216 262.137 411.88 266.008C412.674 266.845 411.412 268.107 410.629 267.269V267.259Z" fill="#423F44"/>
<path d="M469.085 311.449C465.747 331.141 460.386 372.089 455.83 378.983C453.471 377.396 446.382 335.697 445.544 332.978C443.415 325.939 441.858 318.739 440.891 311.449C449.942 315.059 460.033 315.059 469.085 311.449Z" fill="white"/>
<path d="M473.618 298.986C470.693 314.937 467.757 330.899 464.528 346.828C461.299 362.758 457.797 378.448 453.655 394.084C449.512 409.719 444.956 425.083 439.454 440.208C434.043 455.354 427.662 470.136 420.35 484.462C416.707 491.53 412.858 498.521 408.596 505.23C404.714 511.657 399.957 517.512 394.461 522.627C393.058 523.867 391.59 525.03 390.111 526.129C389.024 526.901 388.024 525.128 389.078 524.367C401.561 515.321 409.303 500.99 416.414 487.681C423.896 473.559 430.435 458.957 435.986 443.97C441.575 429.041 446.315 413.808 450.458 398.433C454.601 383.058 458.243 367.216 461.516 351.471C464.789 335.727 467.703 320.069 470.595 304.325C470.943 302.389 471.302 300.454 471.683 298.529C471.922 297.235 473.857 297.779 473.662 299.073L473.618 298.986Z" fill="#92D5E4"/>
<path d="M455.33 380.534C449.169 353.641 443.678 326.61 438.857 299.441L455.33 380.534Z" fill="#92D5E4"/>
<path d="M454.344 380.807C449.538 359.822 445.138 338.746 441.144 317.579C440.027 311.635 438.94 305.68 437.882 299.714C437.653 298.42 439.632 297.866 439.861 299.171C443.623 320.366 447.791 341.49 452.365 362.54C453.655 368.455 454.974 374.363 456.323 380.264C456.616 381.547 454.648 382.09 454.355 380.807H454.344Z" fill="#92D5E4"/>
<path d="M357.305 359.158C349.977 363.029 331.09 347.197 315.302 330.724C300.612 315.36 286.52 306.749 273.026 287.503C270.602 284.045 268.057 279.794 269.493 275.836C270.928 271.878 274.277 273.988 278.191 272.639C279.659 272.128 280.866 273.183 286.292 278.348C306.483 297.561 320.39 306.368 343.431 323.135" fill="#F7B094"/>
<path d="M281.946 274.434C275.737 267.91 275.063 262.474 272.889 256.515C271.198 252.346 269.081 248.364 266.571 244.631L255.078 226.146C254.676 225.505 254.11 224.765 253.393 224.863C252.382 224.993 252.306 226.44 252.556 227.462L254.948 238.792C254.961 238.834 254.959 238.879 254.944 238.92C254.928 238.961 254.899 238.995 254.862 239.018C254.824 239.04 254.78 239.05 254.736 239.044C254.693 239.039 254.652 239.019 254.622 238.987C247.684 232.768 239.171 226.146 234.778 224.135C233.169 223.569 232.712 224.972 233.506 226.309L249.816 244.152C249.851 244.192 249.871 244.243 249.872 244.296C249.872 244.349 249.853 244.4 249.818 244.44C249.784 244.48 249.735 244.506 249.683 244.513C249.63 244.52 249.577 244.508 249.533 244.478L234.767 233.29C232.96 231.76 230.914 230.536 228.711 229.669C228.545 229.61 228.367 229.596 228.194 229.63C228.022 229.663 227.862 229.743 227.73 229.859C227.599 229.976 227.502 230.126 227.448 230.293C227.395 230.461 227.388 230.64 227.427 230.811C227.873 232.681 229.254 234.073 230.689 235.53C239.04 243.924 244.705 249.828 244.499 250.252C244.118 250.557 235.8 243.674 230.363 239.314C229.209 238.253 227.761 237.567 226.21 237.346C224.883 237.346 224.437 238.433 225.22 239.575C229.251 245.384 234.142 250.546 239.725 254.884C239.765 254.916 239.791 254.961 239.799 255.011C239.808 255.061 239.798 255.112 239.771 255.155C239.744 255.198 239.703 255.229 239.654 255.243C239.605 255.258 239.553 255.254 239.508 255.232C239.508 255.232 227.253 244.957 225.873 246.936C224.785 248.502 227.34 251.144 228.928 252.753C237.627 261.56 251.229 272.999 262.407 278.61C269.355 282.089 271.377 284.709 272.639 286.221" fill="#F7B094"/>
<path d="M414.515 303.966C402.685 307.424 377.078 321.07 360.029 332.965C355.299 331.139 351.211 327.996 347.199 324.887L327.964 309.947C325.707 308.335 323.649 306.463 321.831 304.369C320.396 302.564 319.287 300.443 317.482 299.019C315.677 297.595 313.6 297.084 311.665 296.072C305.141 292.658 302.107 285.014 296.529 280.219C295.69 279.348 294.542 278.84 293.333 278.806C292.095 279.083 291.005 279.812 290.277 280.85C287.624 283.793 284.975 286.736 282.329 289.679C278.795 293.593 275.174 299.595 278.61 303.597C280.546 305.847 283.938 306.185 286.221 308.011C289.244 310.36 290.038 314.72 292.952 317.199C295.548 319.362 298.361 321.25 301.346 322.832C305.358 324.702 307.392 328.649 310.349 331.943C318.45 340.957 326.192 347.166 334.27 356.158C338.783 361.182 343.415 366.303 349.319 369.597C361.747 376.535 383.309 368.88 396.585 363.715C410.285 358.387 418.843 355.016 423.844 350.145" fill="#315C85"/>
<path d="M361.411 333.323C364.049 339.533 365.584 346.157 365.945 352.895C365.945 353.754 364.651 353.7 364.597 352.841C364.245 346.362 362.774 339.994 360.247 334.019C359.91 333.225 361.095 332.584 361.432 333.388L361.411 333.323Z" fill="#92D5E4"/>
<path d="M372.476 348.33C369.172 342.737 364.986 337.714 360.081 333.455C359.418 332.89 360.407 331.966 361.06 332.531C366.049 336.872 370.305 341.99 373.662 347.688C374.107 348.439 372.911 349.069 372.476 348.33Z" fill="#92D5E4"/>
<path d="M304.04 322.809C305.791 320.145 305.128 316.644 304.04 313.872C303.962 313.712 303.947 313.528 304 313.359C304.052 313.189 304.168 313.045 304.323 312.958C304.482 312.88 304.666 312.865 304.836 312.918C305.006 312.97 305.149 313.086 305.236 313.241C306.541 316.503 307.237 320.428 305.236 323.516C304.769 324.234 303.616 323.516 304.095 322.809H304.04Z" fill="#92D5E4"/>
<path d="M308.194 295.344C306.469 295.031 304.714 294.918 302.964 295.007C301.148 295.115 299.354 295.42 297.527 295.659C296.679 295.768 296.374 294.452 297.233 294.343C299.147 294.082 301.061 293.778 302.985 293.669C304.849 293.584 306.717 293.712 308.552 294.05C308.723 294.105 308.865 294.224 308.948 294.383C309.032 294.541 309.05 294.726 308.998 294.898C308.941 295.064 308.823 295.203 308.667 295.286C308.512 295.368 308.331 295.389 308.161 295.344H308.194Z" fill="#92D5E4"/>
</g>
<defs>
<filter id="filter0_d_1744_15118" x="6.35161" y="191.26" width="173.721" height="155.083" filterUnits="userSpaceOnUse" color-interpolation-filters="sRGB">
<feFlood flood-opacity="0" result="BackgroundImageFix"/>
<feColorMatrix in="SourceAlpha" type="matrix" values="0 0 0 0 0 0 0 0 0 0 0 0 0 0 0 0 0 0 127 0" result="hardAlpha"/>
<feOffset dy="7.3005"/>
<feGaussianBlur stdDeviation="9.39939"/>
<feComposite in2="hardAlpha" operator="out"/>
<feColorMatrix type="matrix" values="0 0 0 0 0 0 0 0 0 0 0 0 0 0 0 0 0 0 0.39 0"/>
<feBlend mode="normal" in2="BackgroundImageFix" result="effect1_dropShadow_1744_15118"/>
<feBlend mode="normal" in="SourceGraphic" in2="effect1_dropShadow_1744_15118" result="shape"/>
</filter>
<filter id="filter1_d_1744_15118" x="254.381" y="10.6658" width="219.801" height="175.71" filterUnits="userSpaceOnUse" color-interpolation-filters="sRGB">
<feFlood flood-opacity="0" result="BackgroundImageFix"/>
<feColorMatrix in="SourceAlpha" type="matrix" values="0 0 0 0 0 0 0 0 0 0 0 0 0 0 0 0 0 0 127 0" result="hardAlpha"/>
<feOffset dy="7.3005"/>
<feGaussianBlur stdDeviation="9.39939"/>
<feComposite in2="hardAlpha" operator="out"/>
<feColorMatrix type="matrix" values="0 0 0 0 0 0 0 0 0 0 0 0 0 0 0 0 0 0 0.39 0"/>
<feBlend mode="normal" in2="BackgroundImageFix" result="effect1_dropShadow_1744_15118"/>
<feBlend mode="normal" in="SourceGraphic" in2="effect1_dropShadow_1744_15118" result="shape"/>
</filter>
<filter id="filter2_d_1744_15118" x="35.1524" y="45.45" width="272.461" height="219.083" filterUnits="userSpaceOnUse" color-interpolation-filters="sRGB">
<feFlood flood-opacity="0" result="BackgroundImageFix"/>
<feColorMatrix in="SourceAlpha" type="matrix" values="0 0 0 0 0 0 0 0 0 0 0 0 0 0 0 0 0 0 127 0" result="hardAlpha"/>
<feOffset dy="7.3005"/>
<feGaussianBlur stdDeviation="9.39939"/>
<feComposite in2="hardAlpha" operator="out"/>
<feColorMatrix type="matrix" values="0 0 0 0 0 0 0 0 0 0 0 0 0 0 0 0 0 0 0.39 0"/>
<feBlend mode="normal" in2="BackgroundImageFix" result="effect1_dropShadow_1744_15118"/>
<feBlend mode="normal" in="SourceGraphic" in2="effect1_dropShadow_1744_15118" result="shape"/>
</filter>
</defs>
</svg>
