<svg width="538" height="492" viewBox="0 0 538 492" fill="none" xmlns="http://www.w3.org/2000/svg">
<path d="M537.482 262.891C537.482 390.069 422.213 414.544 280.024 414.544C137.823 414.544 22.5547 390.069 22.5547 262.891C22.5547 244.799 24.8877 227.199 29.3063 210.313C33.3581 194.732 39.1953 179.765 46.5951 165.591C87.5996 87.0303 176.697 32.5986 280.024 32.5986C301.921 32.5986 323.182 35.043 343.473 39.6519C361.978 43.8369 379.668 49.8304 396.332 57.3864C399.078 58.6256 401.79 59.9204 404.468 61.2479C411.108 64.5293 417.559 68.0675 423.82 71.8394C458.754 92.911 487.583 121.449 507.46 154.886C510.172 159.429 512.706 164.061 515.061 168.77C517.327 173.268 519.425 177.844 521.356 182.487C523.721 188.157 525.832 193.915 527.707 199.786V199.797C528.722 203 529.659 206.226 530.519 209.485C531.814 214.329 532.93 219.229 533.867 224.184C536.244 236.774 537.482 249.699 537.482 262.891Z" fill="#54BECC"/>
<path opacity="0.29" d="M374.047 107.622H340.167C337.505 107.622 335.326 109.801 335.326 112.463V113.672C335.326 116.334 337.505 118.513 340.167 118.513H374.047C376.709 118.513 378.887 116.335 378.887 113.672V112.463C378.887 109.799 376.709 107.622 374.047 107.622Z" fill="white"/>
<path opacity="0.33" d="M397.64 192.322H363.761C361.099 192.322 358.92 194.501 358.92 197.163V198.372C358.92 201.034 361.097 203.213 363.761 203.213H397.64C400.302 203.213 402.481 201.034 402.481 198.372V197.163C402.48 194.5 400.302 192.322 397.64 192.322Z" fill="white"/>
<path opacity="0.33" d="M298.365 153.846H264.485C261.823 153.846 259.645 156.024 259.645 158.686V159.896C259.645 162.558 261.823 164.736 264.485 164.736H298.365C301.027 164.736 303.206 162.558 303.206 159.896V158.686C303.204 156.023 301.027 153.846 298.365 153.846Z" fill="white"/>
<path opacity="0.33" d="M292.193 266.9H258.313C255.651 266.9 253.473 269.078 253.473 271.741V272.95C253.473 275.612 255.651 277.791 258.313 277.791H292.193C294.855 277.791 297.034 275.612 297.034 272.95V271.741C297.032 269.078 294.855 266.9 292.193 266.9Z" fill="white"/>
<path opacity="0.34" d="M338.557 192.322H330.188C327.526 192.322 325.348 194.501 325.348 197.163V198.372C325.348 201.034 327.526 203.213 330.188 203.213H338.557C341.219 203.213 343.398 201.034 343.398 198.372V197.163C343.396 194.5 341.219 192.322 338.557 192.322Z" fill="white"/>
<path opacity="0.31" d="M171.978 148.157H138.098C135.437 148.157 133.258 150.336 133.258 152.998V154.207C133.258 156.869 135.437 159.048 138.098 159.048H171.978C174.64 159.048 176.819 156.869 176.819 154.207V152.998C176.819 150.334 174.64 148.157 171.978 148.157Z" fill="white"/>
<path d="M128.317 357.323C119.972 346.853 121.519 329.743 122.796 321.918C123.188 319.514 124.406 317.303 126.271 315.734C143.684 301.099 128.452 284.703 128.452 284.703C127.429 276.928 129.688 261.87 129.688 261.87C126.702 260.805 123.853 259.955 121.183 259.28C118.142 258.516 115.323 257.982 112.749 257.611V257.61C112.684 257.601 112.624 257.593 112.558 257.585C111.404 257.421 110.302 257.291 109.253 257.19C109.165 257.181 109.077 257.172 108.99 257.165C108.471 257.116 107.966 257.073 107.475 257.038C107.424 257.035 107.375 257.031 107.325 257.028C106.841 256.994 106.369 256.966 105.912 256.944C105.884 256.942 105.856 256.941 105.828 256.939C105.35 256.916 104.89 256.9 104.442 256.888C104.4 256.886 104.357 256.886 104.314 256.885C103.407 256.863 102.569 256.86 101.8 256.873C101.788 256.873 101.775 256.873 101.763 256.873C98.46 256.932 96.5067 257.252 96.1664 257.311V257.291C96.1119 257.3 96.0692 257.308 96.0353 257.314C95.9661 257.302 95.8379 257.283 95.6435 257.253V256.997C95.5978 257 95.5639 257.004 95.5241 257.007V256.997C95.0645 257.031 94.6609 257.066 94.3059 257.103C93.9509 257.066 93.5458 257.029 93.0876 256.997V257.253C92.8401 257.289 92.6604 257.318 92.6339 257.322C92.5234 257.302 90.5082 256.935 86.9684 256.872C86.9566 256.872 86.9433 256.872 86.9315 256.872C86.164 256.858 85.3244 256.86 84.4169 256.883C84.3742 256.885 84.3315 256.885 84.2873 256.886C83.841 256.898 83.3799 256.916 82.9011 256.938C82.8731 256.939 82.8451 256.941 82.8172 256.942C82.3605 256.964 81.8891 256.992 81.4045 257.026C81.3544 257.029 81.3043 257.034 81.2542 257.037C80.7636 257.072 80.2584 257.115 79.7398 257.163C79.6529 257.171 79.5645 257.181 79.4762 257.188C78.4273 257.29 77.3254 257.421 76.172 257.583C76.1072 257.592 76.0468 257.599 75.9805 257.608V257.61C73.407 257.981 70.5875 258.514 67.547 259.279C64.8748 259.953 62.0273 260.803 59.0413 261.868C59.0413 261.868 61.301 281.558 60.2772 289.333C60.2772 289.333 45.0453 305.729 62.4589 320.364C64.3238 321.931 65.5421 324.142 65.9339 326.548C67.2096 334.373 68.7564 351.483 60.4127 361.952C49.3247 375.863 51.1734 394.023 52.5596 402.137L59.0265 452.76H95.4873H96.1664H129.703L136.171 397.506C137.556 389.393 139.405 371.233 128.317 357.323Z" fill="#0F8494"/>
<path d="M116.813 257.255C130.654 257.255 139.998 242.696 133.79 230.325C133.74 230.225 133.69 230.126 133.639 230.026C125.118 213.573 129.518 168.851 96.3677 180.744C63.217 168.853 67.6172 213.573 59.0968 230.026C59.0452 230.126 58.9951 230.225 58.9436 230.325C52.7359 242.695 62.0798 257.255 75.9211 257.255H116.813Z" fill="#3E2722"/>
<path d="M125.098 260.278L115.36 256.639L109.235 254.344L104.541 253.189H84.2552L64.3477 260.106C65.0945 267.602 78.3922 273.579 94.7333 273.579C110.948 273.579 124.166 267.694 125.098 260.278Z" fill="#F4C17D"/>
<path d="M108.315 259.692V243.072C107.094 244.302 105.718 245.332 104.214 246.144C101.652 247.528 98.7546 248.294 95.7554 248.314H95.6007C90.8426 248.277 86.3408 246.381 83.041 243.083V259.693H108.315V259.692Z" fill="#F4C17D"/>
<path d="M115.192 216.808C114.663 225.408 114.349 234.51 110.627 240.229C107.353 245.26 101.741 248.272 95.7438 248.309C95.732 248.309 95.7202 248.31 95.7084 248.31C95.6952 248.31 95.6819 248.31 95.6686 248.31C95.6554 248.31 95.6421 248.31 95.6289 248.31C95.6171 248.31 95.6053 248.31 95.5935 248.31C89.5965 248.272 83.9855 245.26 80.7108 240.229C74.0509 229.995 74.073 217.783 74.0965 214.788L96.4288 196.341C96.4302 196.341 113.73 205.113 115.192 216.808Z" fill="#F4C17D"/>
<path d="M92.1885 216.678C89.1819 214.451 85.0455 214.451 82.0389 216.678C81.4732 217.097 81.3406 217.793 81.6838 218.118C81.7207 218.154 81.759 218.193 81.7958 218.23C82.1405 218.555 82.7312 218.501 83.1555 218.19C85.4992 216.453 88.7268 216.453 91.0705 218.19C91.4947 218.501 92.0854 218.555 92.4301 218.23C92.467 218.193 92.5053 218.154 92.5421 218.118C92.8868 217.795 92.7542 217.097 92.1885 216.678Z" fill="#3E2722"/>
<path d="M86.9071 223.094C87.8126 223.094 88.5467 222.36 88.5467 221.454C88.5467 220.549 87.8126 219.814 86.9071 219.814C86.0016 219.814 85.2676 220.549 85.2676 221.454C85.2676 222.36 86.0016 223.094 86.9071 223.094Z" fill="#3E2722"/>
<path d="M109.671 216.678C106.664 214.451 102.528 214.451 99.5213 216.678C98.9556 217.097 98.823 217.793 99.1663 218.118C99.2031 218.154 99.2414 218.193 99.2782 218.23C99.6229 218.555 100.214 218.501 100.638 218.19C102.982 216.453 106.209 216.453 108.553 218.19C108.977 218.501 109.568 218.555 109.913 218.23C109.949 218.193 109.988 218.154 110.025 218.118C110.369 217.795 110.237 217.097 109.671 216.678Z" fill="#3E2722"/>
<path d="M104.311 223.094C105.217 223.094 105.951 222.36 105.951 221.454C105.951 220.549 105.217 219.814 104.311 219.814C103.406 219.814 102.672 220.549 102.672 221.454C102.672 222.36 103.406 223.094 104.311 223.094Z" fill="#3E2722"/>
<path d="M97.8675 231.12C97.8675 230.382 96.6861 229.037 95.2277 229.037C93.7693 229.037 92.5879 230.382 92.5879 231.12C92.5879 231.858 93.7693 232.001 95.2277 232.001C96.6861 232 97.8675 231.858 97.8675 231.12Z" fill="#EAA757"/>
<path d="M108.317 243.072V247.082C102.903 250.8 94.4075 254.119 83.041 251.011V243.081C86.3408 246.381 90.8426 248.277 95.6007 248.312H95.7554C98.7546 248.294 101.652 247.528 104.214 246.142C105.719 245.332 107.095 244.302 108.317 243.072Z" fill="#EAA757"/>
<path d="M92.6897 236.748C95.3869 238.172 98.7309 237.531 100.712 235.211C100.967 234.915 101.385 234.796 101.677 234.984C101.969 235.173 101.985 235.665 101.671 236.032C99.3083 238.8 95.3206 239.564 92.1019 237.864C91.6762 237.64 91.5082 237.176 91.71 236.893C91.9104 236.609 92.3435 236.566 92.6897 236.748Z" fill="#3E2722"/>
<path d="M118.834 365.055L80.1523 330.462L36.6354 379.123L75.3175 413.716L118.834 365.055Z" fill="#E0DFDE"/>
<path d="M109.235 356.479C97.0094 372.048 73.6622 391.795 42.4649 372.597L36.627 379.125L75.3091 413.719L118.828 365.058L109.235 356.479Z" fill="#CECDCC"/>
<path d="M70.5656 371.78L66.5912 375.755C64.5347 377.811 64.5347 381.176 66.5912 383.231L74.7065 391.346C76.7629 393.403 80.1275 393.403 82.1825 391.346L86.1569 387.372C88.2134 385.315 88.2134 381.951 86.1569 379.896L78.0416 371.78C75.9866 369.726 72.6221 369.726 70.5656 371.78Z" fill="#F4C17D"/>
<path d="M64.6195 259.659C64.6195 259.659 52.5592 262.461 46.711 268.065C43.7236 270.927 30.5084 308.245 24.4392 325.698C22.5212 331.212 23.654 337.32 27.4222 341.777C38.5692 354.959 61.5761 381.818 65.5785 383.731L78.6287 370.155C78.6287 370.155 45.5163 333.227 45.9789 330.683C46.4414 328.139 60.156 296.481 60.156 296.481L64.6195 259.659Z" fill="#0F8494"/>
<path d="M146.904 374.513L141.315 373.915C138.423 373.605 135.804 375.718 135.495 378.608L134.272 390.02C133.963 392.912 136.075 395.53 138.966 395.841L144.555 396.439C147.446 396.748 150.064 394.636 150.375 391.745L151.597 380.333C151.907 377.441 149.796 374.822 146.904 374.513Z" fill="#F4C17D"/>
<path d="M158.323 334.582C153.4 316.364 147.428 272.405 144.441 269.543C138.593 263.94 126.532 261.138 126.532 261.138L125.457 291.744C125.457 291.744 137.919 328.715 138.382 331.259L134.505 378.528L152.6 380.559L158.323 334.582Z" fill="#0F8494"/>
<path d="M121.793 334.28C121.776 329.383 122.305 324.951 122.8 321.918C123.192 319.514 124.41 317.303 126.275 315.735C133.868 309.354 135.252 302.639 134.401 297.093C133.448 298.812 127.997 307.982 120.165 307.87C112.166 307.757 97.3597 307.853 95.2046 307.869C93.0495 307.854 78.2433 307.757 70.2444 307.87C61.6046 307.994 55.8433 296.791 55.8433 296.791C55.7844 296.823 55.7343 296.869 55.6768 296.904C53.2285 303.031 52.4905 311.983 62.4634 320.365C64.3284 321.932 65.5466 324.144 65.9385 326.549C66.3539 329.099 66.7929 332.642 66.9137 336.612C75.2514 323.705 92.8786 322.828 95.2031 322.771C97.3804 322.824 112.97 323.594 121.793 334.28Z" fill="#129BAD"/>
<path d="M128.321 357.321C128.187 357.151 128.077 356.967 127.947 356.795C128.164 360.261 128.715 360.613 129.469 358.897C129.092 358.37 128.732 357.838 128.321 357.321Z" fill="#E89707"/>
<path d="M246.511 338.802V434.449C246.511 448.822 234.752 460.581 220.379 460.581H155.251C140.877 460.581 129.119 448.822 129.119 434.449V338.802C129.119 324.429 140.877 312.671 155.251 312.671H220.379C225.756 312.671 230.794 314.325 234.959 317.146C241.916 321.859 246.511 329.821 246.511 338.802Z" fill="#064565"/>
<path d="M246.511 338.8V434.447C246.511 448.82 234.752 460.579 220.379 460.579H155.251C140.877 460.579 129.119 448.82 129.119 434.447V425.304C198.34 413.604 226.095 346.26 234.959 317.146C241.916 321.856 246.511 329.819 246.511 338.8Z" fill="#0E4795"/>
<path d="M265.469 411.312L236.74 367.128C235.962 365.782 234.501 364.39 232.586 363.009C228.838 360.306 223.361 357.625 217.92 355.317C208.476 351.279 199.123 348.355 199.123 348.355L194.493 346.951H180.686C180.686 346.951 168.863 350.768 157.363 355.641C151.922 357.939 146.561 360.468 142.559 362.939C139.577 364.771 137.35 366.582 136.41 368.23L109.689 411.311L109.994 418.438C110.233 424.039 114.814 428.471 120.42 428.518C126.701 428.571 135.285 428.623 144.219 428.611C159.326 428.599 176.231 428.53 187.578 428.471C193.113 428.507 199.994 428.529 207.315 428.529C215.007 428.564 223.211 428.586 230.938 428.61C240.725 428.623 250.091 428.56 256.471 428.502C261.105 428.459 264.891 424.796 265.089 420.166L265.469 411.312ZM145.87 414.484L131.777 412.937L149.753 392.482L145.87 414.484ZM229.531 414.484L223.145 391.571L243.624 412.937L229.531 414.484Z" fill="#F4C17D"/>
<path d="M229.466 414.097L230.939 428.613C223.211 428.59 215.009 428.566 207.317 428.532C199.995 428.532 193.114 428.508 187.58 428.475C176.233 428.532 159.327 428.603 144.221 428.615L145.694 414.099L142.561 362.942C146.563 360.47 151.924 357.941 157.365 355.644C161.287 365.171 169.757 377.342 187.579 377.342C205.598 377.342 214.068 364.893 217.92 355.32C223.362 357.629 228.839 360.31 232.586 363.013L229.466 414.097Z" fill="#1BA8BB"/>
<path d="M187.906 273.858H187.655C171.158 273.858 157.66 287.356 157.66 303.854V339.126C157.66 341.857 159.895 344.09 162.625 344.09H212.935C215.667 344.09 217.9 341.855 217.9 339.126V303.854C217.901 287.356 204.405 273.858 187.906 273.858Z" fill="#3E2722"/>
<path d="M200.602 337.261V349.701L188.251 356.427L175.062 349.701V337.271C178.396 340.605 182.947 342.521 187.753 342.558H187.909C190.94 342.539 193.868 341.765 196.456 340.366C197.977 339.544 199.367 338.504 200.602 337.261Z" fill="#F4C17D"/>
<path d="M209.188 302.922L208.677 308.797C208.142 317.487 206.707 328.608 202.948 334.387C199.641 339.471 193.969 342.515 187.91 342.553V342.554C187.899 342.554 187.887 342.554 187.875 342.554C187.862 342.554 187.848 342.554 187.835 342.554C187.822 342.554 187.809 342.554 187.795 342.554C187.784 342.554 187.772 342.554 187.76 342.554V342.553C181.701 342.515 176.03 339.471 172.723 334.387C165.993 324.046 166.039 308.682 166.039 308.682V302.922C166.039 302.922 181.367 300.696 188.429 292.715C188.426 292.715 198.313 300.376 209.188 302.922Z" fill="#F4C17D"/>
<path d="M184.31 310.595C181.272 308.345 177.092 308.345 174.054 310.595C173.483 311.018 173.349 311.722 173.696 312.049C173.734 312.088 173.771 312.125 173.81 312.163C174.157 312.493 174.755 312.437 175.183 312.123C177.551 310.369 180.811 310.369 183.18 312.123C183.609 312.437 184.205 312.493 184.553 312.163C184.591 312.125 184.628 312.088 184.666 312.049C185.015 311.722 184.883 311.017 184.31 310.595Z" fill="#3E2722"/>
<path d="M180.627 315.415C180.627 316.33 179.885 317.072 178.97 317.072C178.055 317.072 177.312 316.33 177.312 315.415C177.312 314.5 178.055 313.758 178.97 313.758C179.886 313.758 180.627 314.5 180.627 315.415Z" fill="#3E2722"/>
<path d="M201.968 310.595C198.931 308.345 194.75 308.345 191.712 310.595C191.141 311.018 191.007 311.722 191.354 312.049C191.393 312.088 191.429 312.125 191.468 312.163C191.815 312.493 192.414 312.437 192.841 312.123C195.209 310.369 198.469 310.369 200.838 312.123C201.267 312.437 201.863 312.493 202.213 312.163C202.251 312.125 202.288 312.088 202.326 312.049C202.674 311.722 202.54 311.017 201.968 310.595Z" fill="#3E2722"/>
<path d="M198.223 315.415C198.223 316.33 197.48 317.072 196.565 317.072C195.651 317.072 194.908 316.33 194.908 315.415C194.908 314.5 195.651 313.758 196.565 313.758C197.48 313.758 198.223 314.5 198.223 315.415Z" fill="#3E2722"/>
<path d="M190.047 325.185C190.047 324.439 188.852 323.081 187.379 323.081C185.906 323.081 184.711 324.441 184.711 325.185C184.711 325.93 185.906 326.074 187.379 326.074C188.852 326.074 190.047 325.93 190.047 325.185Z" fill="#EAA757"/>
<path d="M200.602 337.261V341.313C195.131 345.071 186.548 348.424 175.062 345.283V337.271C178.396 340.605 182.947 342.521 187.753 342.558H187.909C190.94 342.539 193.868 341.765 196.456 340.366C197.977 339.544 199.367 338.504 200.602 337.261Z" fill="#EAA757"/>
<path d="M184.81 330.87C187.537 332.31 190.914 331.663 192.916 329.318C193.173 329.019 193.597 328.898 193.892 329.089C194.186 329.279 194.202 329.777 193.886 330.147C191.499 332.943 187.469 333.716 184.216 331.999C183.786 331.772 183.617 331.304 183.82 331.018C184.023 330.732 184.461 330.688 184.81 330.87Z" fill="#3E2722"/>
<path d="M120.088 428.477C131.567 428.538 151.24 428.613 167.831 428.536V417.058C167.831 417.058 110.211 410.111 109.684 411.311L110.002 418.755C110.233 424.169 114.667 428.448 120.088 428.477Z" fill="#F4C17D"/>
<path d="M155.132 415.56C138.132 413.592 110.05 410.472 109.684 411.31L109.744 412.736C116.249 412.877 140.23 415.56 155.132 417.289V415.56Z" fill="#EAA757"/>
<path d="M176.158 412.897H159.705C157.3 412.897 155.33 414.866 155.33 417.273V427.113C155.33 429.518 157.298 431.488 159.705 431.488H176.158C178.564 431.488 180.533 429.52 180.533 427.113V417.273C180.533 414.867 178.565 412.897 176.158 412.897Z" fill="#F4C17D"/>
<path d="M176.158 412.897H174.119C175.229 414.428 175.892 416.3 175.892 418.324C175.892 423.436 171.71 427.618 166.598 427.618H159.984C158.29 427.618 156.702 427.151 155.33 426.35V427.11C155.33 429.515 157.298 431.485 159.705 431.485H176.158C178.564 431.485 180.533 429.517 180.533 427.11V417.27C180.533 414.867 178.565 412.897 176.158 412.897Z" fill="#EAA757"/>
<path d="M255.189 428.475C243.71 428.536 224.037 428.611 207.445 428.534V417.056C207.445 417.056 265.066 410.109 265.593 411.309L265.275 418.753C265.042 424.167 260.608 428.446 255.189 428.475Z" fill="#F4C17D"/>
<path d="M220.146 415.56C237.145 413.592 265.228 410.472 265.595 411.31L265.534 412.736C259.029 412.877 235.048 415.56 220.146 417.289V415.56Z" fill="#EAA757"/>
<path d="M199.127 412.896H215.58C217.986 412.896 219.955 414.865 219.955 417.272V427.112C219.955 429.517 217.987 431.487 215.58 431.487H199.127C196.721 431.487 194.752 429.519 194.752 427.112V417.272C194.752 414.866 196.72 412.896 199.127 412.896Z" fill="#F4C17D"/>
<path d="M199.127 412.896H201.166C200.057 414.427 199.394 416.299 199.394 418.323C199.394 423.435 203.576 427.617 208.688 427.617H215.302C216.996 427.617 218.584 427.15 219.955 426.349V427.109C219.955 429.515 217.987 431.484 215.58 431.484H199.127C196.721 431.484 194.752 429.516 194.752 427.109V417.269C194.752 414.866 196.72 412.896 199.127 412.896Z" fill="#EAA757"/>
<path d="M231.131 425.39H146.569C144.434 425.39 142.703 423.659 142.703 421.524V374.364C142.703 372.23 144.434 370.499 146.569 370.499H231.131C233.265 370.499 234.996 372.23 234.996 374.364V421.524C234.996 423.659 233.265 425.39 231.131 425.39Z" fill="#E0DFDE"/>
<path d="M233.775 430.852H143.924C143.25 430.852 142.703 430.305 142.703 429.631V426.596C142.703 425.921 143.25 425.375 143.924 425.375H233.775C234.449 425.375 234.996 425.921 234.996 426.596V429.631C234.996 430.305 234.449 430.852 233.775 430.852Z" fill="#E0DFDE"/>
<path d="M142.703 428.821V429.631C142.703 430.306 143.25 430.853 143.924 430.853H233.775C234.449 430.853 234.996 430.306 234.996 429.631V428.821H142.703Z" fill="#CECDCC"/>
<path d="M194.093 399.231C192.041 399.231 190.378 397.568 190.378 395.516C190.378 394.237 191.025 393.11 192.007 392.442C191.037 392.029 189.97 391.801 188.848 391.801C184.381 391.801 180.762 395.422 180.762 399.887C180.762 404.353 184.383 407.972 188.848 407.972C193.313 407.972 196.933 404.352 196.933 399.887C196.933 399.281 196.861 398.693 196.735 398.125C196.061 398.808 195.127 399.231 194.093 399.231Z" fill="white"/>
<path d="M187.103 387.331C187.737 388.766 186.833 390.556 186.833 390.556C186.833 390.556 184.904 390.017 184.27 388.582C183.637 387.147 184.54 385.357 184.54 385.357C184.54 385.357 186.47 385.895 187.103 387.331Z" fill="white"/>
<path d="M231.131 370.499H219.565C219.72 387.622 213.844 433.835 142.703 410.97V421.524C142.703 423.659 144.434 425.39 146.569 425.39H231.131C233.265 425.39 234.996 423.659 234.996 421.524V374.364C234.996 372.23 233.265 370.499 231.131 370.499Z" fill="#CECDCC"/>
<path d="M401.618 338.8V434.447C401.618 448.82 389.86 460.579 375.487 460.579H310.358C295.985 460.579 284.227 448.82 284.227 434.447V338.8C284.227 324.427 295.985 312.669 310.358 312.669H375.487C380.864 312.669 385.9 314.323 390.066 317.144C397.025 321.857 401.618 329.819 401.618 338.8Z" fill="#064565"/>
<path d="M401.618 338.798V434.445C401.618 448.818 389.86 460.577 375.487 460.577H310.358C295.985 460.577 284.227 448.818 284.227 434.445V425.302C353.446 413.602 381.202 346.258 390.066 317.144C397.025 321.855 401.618 329.817 401.618 338.798Z" fill="#064565"/>
<path d="M509.713 415.029V428.409C509.713 434.526 514.671 439.483 520.786 439.483C526.903 439.483 531.86 434.524 531.86 428.409V415.029H509.713Z" fill="#F4C17D"/>
<path d="M531.86 399.52H509.713V415.03H531.86V399.52Z" fill="#EAE9E8"/>
<path d="M311.584 333.046C311.584 333.046 288.933 350.28 296.565 364.312L321.431 349.54L318.478 336.245L311.584 333.046Z" fill="#F4C17D"/>
<path d="M311.307 355.556L315.296 353.188L320.475 345.233L318.479 336.247L311.585 333.046C311.585 333.046 308.832 335.144 305.57 338.465L311.307 355.556Z" fill="white"/>
<path d="M504.44 389.425H419.736V472.15H504.44V389.425Z" fill="#129BAD"/>
<path d="M505.354 305.885C505.349 305.44 505.78 305.12 506.204 305.256C507.541 305.683 507.23 308.812 507.314 310.211L508.578 408.56H533.134L529.471 283.068C526.675 272.252 513.06 260.965 502.977 256.157L483.56 246.9L476.669 243.788L471.438 242.23H452.464L447.233 243.788L440.342 246.9L414.439 258.597L405.018 263.742L373.506 319.383L310.973 331.2L314.912 354.834L389.756 345.971L417.453 305.103V396.318L463.368 405.674L506.452 396.318L505.354 305.885Z" fill="#0F8494"/>
<path d="M483.765 246.861L462.047 314.496L440.344 246.901L447.238 243.788L462.101 254.365L476.009 243.788V243.507L476.959 243.788L483.765 246.861Z" fill="white"/>
<path d="M437.279 286.945L438.92 280.385L429.408 282.025L429.952 251.592L440.34 246.901L462.043 314.496L437.279 286.945Z" fill="#0E4795"/>
<path d="M476.006 243.789V243.508L476.956 243.789L471.732 242.23H452.459L447.234 243.789L462.098 254.366L476.006 243.789Z" fill="#0E4795"/>
<path d="M447.238 243.788L462.099 254.362V254.365L447.444 269.019L440.344 246.901L447.238 243.788Z" fill="white"/>
<path d="M483.763 246.861L476.673 268.941L462.1 254.365L476.007 243.788V243.507L476.957 243.788L483.763 246.861Z" fill="white"/>
<path d="M462.045 314.496L470.884 286.97L467.483 268.742L463.193 267.578V267.048L462.215 267.313L461.238 267.048V267.578L456.949 268.742L453.422 287.64L462.045 314.496Z" fill="#315C85"/>
<path d="M456.313 272.292L462.208 275.539L468.103 272.292L468.13 272.215L467.482 268.742L463.192 267.578V267.048L462.214 267.313L461.237 267.048V267.578L456.948 268.742L456.295 272.241L456.313 272.292Z" fill="#315C85"/>
<path d="M467.465 268.742L462.205 271.64L456.944 268.742L451.889 254.59H472.521L467.465 268.742Z" fill="#315C85"/>
<path d="M462.099 254.362V254.365L447.444 269.019L440.344 246.901L447.238 243.788L462.099 254.362Z" fill="#F2F2F2"/>
<path d="M483.763 246.861L476.673 268.941L462.1 254.365L476.007 243.788V243.507L476.957 243.788L483.763 246.861Z" fill="#F2F2F2"/>
<path d="M437.283 286.945L438.924 280.385L429.412 282.025L429.956 251.592L440.344 246.901L462.047 314.496L437.283 286.945Z" fill="#129BAD"/>
<path d="M486.806 286.945L485.165 280.385L494.677 282.025L494.133 251.592L483.745 246.901L462.043 314.496L486.806 286.945Z" fill="#129BAD"/>
<path d="M476.009 232.767V243.788L462.093 254.364L447.232 243.788V232.777C450.989 236.533 456.115 238.693 461.533 238.734H461.71C465.125 238.714 468.424 237.841 471.341 236.264C473.051 235.34 474.619 234.168 476.009 232.767Z" fill="#F4C17D"/>
<path d="M484.15 172.971C484.15 172.971 481.386 164.093 462.121 162.86V162.804C461.953 162.813 461.789 162.823 461.623 162.832C461.456 162.823 461.293 162.813 461.125 162.804V162.86C441.86 164.093 439.096 172.971 439.096 172.971C427.345 175.103 432.903 207.738 432.903 207.738L445.289 220.037H461.125H462.121H477.957L490.342 207.738C490.342 207.738 495.901 175.104 484.15 172.971Z" fill="#3E2722"/>
<path d="M444.909 208.146C444.909 204.024 441.589 200.685 437.494 200.685C433.398 200.685 430.078 204.026 430.078 208.146C430.078 212.266 433.398 215.607 437.494 215.607C441.589 215.607 444.909 212.266 444.909 208.146Z" fill="#F4C17D"/>
<path d="M437.492 212.654C439.958 212.654 441.957 210.635 441.957 208.145C441.957 205.655 439.958 203.636 437.492 203.636C435.026 203.636 433.027 205.655 433.027 208.145C433.027 210.635 435.026 212.654 437.492 212.654Z" fill="#EAA757"/>
<path d="M493.165 208.146C493.165 204.024 489.844 200.685 485.748 200.685C481.652 200.685 478.332 204.026 478.332 208.146C478.332 212.266 481.652 215.607 485.748 215.607C489.844 215.607 493.165 212.266 493.165 208.146Z" fill="#F4C17D"/>
<path d="M485.746 212.654C488.212 212.654 490.211 210.635 490.211 208.145C490.211 205.655 488.212 203.636 485.746 203.636C483.28 203.636 481.281 205.655 481.281 208.145C481.281 210.635 483.28 212.654 485.746 212.654Z" fill="#EAA757"/>
<path d="M486.182 200.562C486.182 200.562 482.862 194.782 481.057 187.894L472.384 190.539C465.423 192.662 457.989 192.662 451.028 190.539L442.354 187.894C440.551 194.782 437.059 200.562 437.059 200.562C437.057 200.562 437.007 217.876 444.589 229.529C448.316 235.257 454.706 238.686 461.534 238.73C461.548 238.73 461.561 238.732 461.574 238.732C461.589 238.732 461.604 238.732 461.62 238.73C461.634 238.73 461.649 238.732 461.665 238.732C461.679 238.732 461.692 238.732 461.705 238.732C468.533 238.689 474.923 235.257 478.65 229.529C486.234 217.876 486.184 200.562 486.182 200.562Z" fill="#F4C17D"/>
<path d="M456.672 203.072H446.667C446.051 203.072 445.549 203.576 445.549 204.19V204.397C445.549 205.012 446.053 205.515 446.667 205.515H456.672C457.288 205.515 457.79 205.011 457.79 204.397V204.19C457.79 203.576 457.288 203.072 456.672 203.072Z" fill="#3E2722"/>
<path d="M453.786 209.493C453.786 210.602 452.886 211.502 451.777 211.502C450.668 211.502 449.768 210.602 449.768 209.493C449.768 208.383 450.668 207.483 451.777 207.483C452.888 207.483 453.786 208.382 453.786 209.493Z" fill="#3E2722"/>
<path d="M476.575 203.072H466.569C465.954 203.072 465.451 203.576 465.451 204.19V204.397C465.451 205.012 465.955 205.515 466.569 205.515H476.575C477.19 205.515 477.693 205.011 477.693 204.397V204.19C477.694 203.576 477.19 203.072 476.575 203.072Z" fill="#3E2722"/>
<path d="M473.226 209.493C473.226 210.602 472.326 211.502 471.216 211.502C470.107 211.502 469.207 210.602 469.207 209.493C469.207 208.383 470.107 207.483 471.216 207.483C472.326 207.483 473.226 208.382 473.226 209.493Z" fill="#3E2722"/>
<path d="M464.121 219.673C464.121 218.834 462.774 217.302 461.114 217.302C459.454 217.302 458.107 218.834 458.107 219.673C458.107 220.513 459.454 220.675 461.114 220.675C462.774 220.675 464.121 220.513 464.121 219.673Z" fill="#EAA757"/>
<path d="M458.393 226.269C461.285 227.795 464.869 227.109 466.992 224.622C467.264 224.306 467.713 224.177 468.026 224.379C468.338 224.581 468.356 225.11 468.02 225.502C465.487 228.469 461.213 229.288 457.762 227.467C457.306 227.227 457.128 226.729 457.343 226.427C457.558 226.122 458.022 226.076 458.393 226.269Z" fill="#3E2722"/>
<path d="M476.011 232.767V237.333C469.846 241.567 460.174 245.345 447.232 241.806V232.777C450.989 236.533 456.115 238.693 461.533 238.734H461.71C465.125 238.714 468.424 237.841 471.341 236.264C473.053 235.34 474.62 234.168 476.011 232.767Z" fill="#EAA757"/>
<path d="M467.016 329.007C467.016 331.605 464.909 333.712 462.311 333.712C459.712 333.712 457.605 331.605 457.605 329.007C457.605 326.408 459.712 324.302 462.311 324.302C464.909 324.302 467.016 326.408 467.016 329.007Z" fill="#0B386D"/>
<path d="M467.016 355.043C467.016 357.642 464.909 359.748 462.311 359.748C459.712 359.748 457.605 357.642 457.605 355.043C457.605 352.444 459.712 350.338 462.311 350.338C464.909 350.338 467.016 352.444 467.016 355.043Z" fill="#0B386D"/>
<path d="M467.016 382.738C467.016 385.337 464.909 387.443 462.311 387.443C459.712 387.443 457.605 385.337 457.605 382.738C457.605 380.14 459.712 378.033 462.311 378.033C464.909 378.033 467.016 380.14 467.016 382.738Z" fill="#0B386D"/>
<path d="M416.995 401.778L399.538 371.337C394.104 361.857 385.818 354.336 375.86 349.838L365.766 345.281L359.006 342.227L353.875 340.699H345.21L344.456 342.56L344.475 340.699H335.81L330.68 342.227L323.92 345.281L313.826 349.838C303.868 354.334 295.581 361.857 290.146 371.337L272.689 401.778L316.124 412.419L315.573 413.778L337.493 417.654L343.655 419.164L343.659 418.744L346.029 419.164L416.995 401.778Z" fill="#F2F2F2"/>
<path d="M384.737 405.629H305.404V451.612H384.737V405.629Z" fill="#F2F2F2"/>
<path d="M357.652 437.702L344.956 447.374L332.688 437.702L339.976 366.566L340.384 363.369L344.151 362.35V361.883L345.007 362.116L345.861 361.883V362.35L349.628 363.369L350.057 366.555L357.652 437.702Z" fill="#315C85"/>
<path d="M349.628 363.369L345.862 362.35V361.883L345.007 362.117L344.151 361.883V362.35L340.385 363.369L339.977 366.566L345.007 369.335L350.057 366.555L349.628 363.369Z" fill="#315C85"/>
<path d="M336.156 351.522L340.388 363.371L345.002 365.912L349.616 363.371L353.848 351.522H336.156Z" fill="#315C85"/>
<path d="M363.552 410.512L416.997 401.778L418.977 404.892C421.378 408.668 422.071 413.129 420.911 417.35L420.069 420.417C418.459 426.283 412.605 430.405 405.881 430.405H363.549V410.512H363.552Z" fill="#F2F2F2"/>
<path d="M413.194 402.375L363.557 410.512V415.67L413.278 402.96L413.194 402.375Z" fill="#E0DFDE"/>
<path d="M384.297 392.904V407.117L394.295 405.489L384.297 392.904Z" fill="#E0DFDE"/>
<path d="M363.51 413.605L356.136 413.673C349.096 413.738 342.34 416.46 337.223 421.295L334.082 424.262C333.37 424.934 332.967 425.869 332.967 426.849C332.967 428.814 334.559 430.406 336.524 430.406H363.681C363.681 430.406 363.51 414.115 363.51 413.605Z" fill="#C67A28"/>
<path d="M326.141 410.512L272.695 401.778L270.715 404.892C268.314 408.668 267.622 413.129 268.781 417.35L269.624 420.417C271.234 426.283 277.088 430.405 283.811 430.405H326.144V410.512H326.141Z" fill="#F2F2F2"/>
<path d="M278.455 402.76L278.498 403.343L326.136 415.671V410.514L278.455 402.76Z" fill="#E0DFDE"/>
<path d="M305.394 392.904V407.117L295.396 405.489L305.394 392.904Z" fill="#E0DFDE"/>
<path d="M326.183 413.605L333.557 413.673C340.597 413.738 347.353 416.46 352.47 421.295L355.611 424.262C356.322 424.934 356.726 425.869 356.726 426.849C356.726 428.814 355.133 430.406 353.168 430.406H326.012C326.012 430.406 326.183 414.115 326.183 413.605Z" fill="#DD9A4A"/>
<path d="M372.492 296.75H316.457V311.292C316.457 322.049 325.178 330.77 335.934 330.77H353.015C363.772 330.77 372.492 322.049 372.492 311.292V296.75Z" fill="#3E2722"/>
<path d="M371.879 310.512C376.265 299.221 377.238 281.716 367.389 272.842C359.324 265.577 353.222 268.825 353.222 268.825C348.762 263.975 334.838 266.587 334.838 266.587C307.319 274.539 314.87 306.854 315.526 310.514H371.879V310.512Z" fill="#3E2722"/>
<path d="M358.916 342.232V341.955L359.848 342.232L354.723 340.704H335.816L330.689 342.232L345.273 352.608L358.916 342.232Z" fill="#0E4795"/>
<path d="M330.685 342.23L345.264 352.604V352.607L330.888 366.984L323.922 345.284L330.685 342.23Z" fill="white"/>
<path d="M366.522 345.247L359.565 366.907L345.27 352.608L358.912 342.231V341.954L359.844 342.231L366.522 345.247Z" fill="white"/>
<path d="M330.685 342.23L345.264 352.604V352.607L330.888 366.984L323.922 345.284L330.685 342.23Z" fill="white"/>
<path d="M366.522 345.247L359.565 366.907L345.27 352.608L358.912 342.231V341.954L359.844 342.231L366.522 345.247Z" fill="white"/>
<path d="M358.912 331.418V342.231L345.259 352.606L330.68 342.231V331.428C334.365 335.114 339.395 337.232 344.71 337.272H344.882C348.232 337.251 351.47 336.397 354.33 334.849C356.01 333.943 357.548 332.792 358.912 331.418Z" fill="#DD9A4A"/>
<path d="M328.399 307.264C328.399 303.222 325.142 299.944 321.123 299.944C317.105 299.944 313.848 303.222 313.848 307.264C313.848 311.306 317.105 314.584 321.123 314.584C325.142 314.584 328.399 311.306 328.399 307.264Z" fill="#DD9A4A"/>
<path d="M321.124 311.686C323.542 311.686 325.503 309.706 325.503 307.263C325.503 304.819 323.542 302.839 321.124 302.839C318.705 302.839 316.744 304.819 316.744 307.263C316.744 309.706 318.705 311.686 321.124 311.686Z" fill="#C67A28"/>
<path d="M375.737 307.264C375.737 303.222 372.48 299.944 368.461 299.944C364.443 299.944 361.186 303.222 361.186 307.264C361.186 311.306 364.443 314.584 368.461 314.584C372.48 314.584 375.737 311.306 375.737 307.264Z" fill="#DD9A4A"/>
<path d="M368.462 311.686C370.88 311.686 372.841 309.706 372.841 307.263C372.841 304.819 370.88 302.839 368.462 302.839C366.043 302.839 364.082 304.819 364.082 307.263C364.082 309.706 366.043 311.686 368.462 311.686Z" fill="#C67A28"/>
<path d="M368.401 293.457L367.835 299.952C367.245 309.558 365.658 321.854 361.501 328.242C357.845 333.86 351.577 337.225 344.877 337.267C344.864 337.267 344.85 337.269 344.837 337.269C344.822 337.269 344.808 337.269 344.793 337.269C344.778 337.269 344.764 337.269 344.749 337.269C344.736 337.269 344.722 337.269 344.709 337.269C338.011 337.226 331.743 333.86 328.085 328.242C320.646 316.81 320.695 299.826 320.697 299.824V293.456C320.697 293.456 346.17 290.996 353.976 282.172C353.978 282.173 362.165 292.313 368.401 293.457Z" fill="#DD9A4A"/>
<path d="M339.942 302.285H330.127C329.523 302.285 329.029 302.779 329.029 303.383V303.586C329.029 304.19 329.523 304.683 330.127 304.683H339.942C340.546 304.683 341.04 304.19 341.04 303.586V303.383C341.04 302.78 340.546 302.285 339.942 302.285Z" fill="#3E2722"/>
<path d="M337.11 308.584C337.11 309.673 336.228 310.555 335.139 310.555C334.05 310.555 333.168 309.673 333.168 308.584C333.168 307.496 334.05 306.613 335.139 306.613C336.228 306.613 337.11 307.496 337.11 308.584Z" fill="#3E2722"/>
<path d="M359.465 302.285H349.65C349.046 302.285 348.553 302.779 348.553 303.383V303.586C348.553 304.19 349.046 304.683 349.65 304.683H359.465C360.069 304.683 360.563 304.19 360.563 303.586V303.383C360.563 302.78 360.069 302.285 359.465 302.285Z" fill="#3E2722"/>
<path d="M356.178 308.584C356.178 309.673 355.296 310.555 354.207 310.555C353.119 310.555 352.236 309.673 352.236 308.584C352.236 307.496 353.119 306.613 354.207 306.613C355.296 306.613 356.178 307.496 356.178 308.584Z" fill="#3E2722"/>
<path d="M347.246 318.572C347.246 317.749 345.926 316.246 344.297 316.246C342.668 316.246 341.348 317.749 341.348 318.572C341.348 319.396 342.668 319.556 344.297 319.556C345.926 319.556 347.246 319.397 347.246 318.572Z" fill="#C67A28"/>
<path d="M358.912 331.418V335.898C352.865 340.052 343.375 343.758 330.68 340.286V331.428C334.365 335.114 339.395 337.232 344.71 337.272H344.882C348.232 337.251 351.47 336.397 354.33 334.849C356.01 333.943 357.548 332.792 358.912 331.418Z" fill="#C67A28"/>
<path d="M353.065 322.653C352.94 325.543 351.361 328.056 349.032 329.467C347.762 330.244 346.267 330.695 344.664 330.695C342.928 330.695 341.307 330.16 339.962 329.249C337.823 327.804 336.387 325.399 336.262 322.651H353.065V322.653Z" fill="#3E2722"/>
<path d="M351.973 322.653V324.515C351.973 324.832 351.714 325.091 351.397 325.091H337.985C337.666 325.091 337.416 324.832 337.416 324.515V322.653H351.973Z" fill="white"/>
<path d="M349.035 329.47C347.765 330.246 346.27 330.697 344.667 330.697C342.93 330.697 341.31 330.162 339.965 329.252C340.841 328.3 342.504 327.665 344.408 327.665C346.454 327.665 348.225 328.4 349.035 329.47Z" fill="#F27070"/>
<path d="M529.546 430.249H37.4297C33.5996 430.249 30.4648 433.384 30.4648 437.214V448.588C30.4648 452.418 33.5981 455.553 37.4297 455.553H529.546C533.376 455.553 536.511 452.418 536.511 448.588V437.214C536.511 433.384 533.378 430.249 529.546 430.249Z" fill="#1BA8BB"/>
<path d="M30.4648 444.307V448.739C30.4648 452.487 33.6688 455.552 37.5829 455.552H529.391C533.307 455.552 536.509 452.487 536.509 448.739V444.307H30.4648Z" fill="#064565"/>
<path d="M521.202 455.655H45.7773V491.319H521.202V455.655Z" fill="#064565"/>
<path d="M45.7773 481.654V491.319H521.201V455.655H461.662C440.072 489.778 353.775 482.072 45.7773 481.654Z" fill="#1BA8BB"/>
</svg>
