<svg width="573" height="498" viewBox="0 0 573 498" fill="none" xmlns="http://www.w3.org/2000/svg">
<g clip-path="url(#clip0_1744_16274)">
<path d="M22.8473 210.859H32.0344C32.2307 210.858 32.4254 210.895 32.6073 210.969C32.7892 211.043 32.9548 211.152 33.0946 211.289C33.2344 211.427 33.3457 211.591 33.4222 211.772C33.4986 211.953 33.5387 212.147 33.5401 212.343V221.53C33.5401 221.924 33.6965 222.301 33.9748 222.58C34.2531 222.858 34.6305 223.014 35.024 223.014H35.2532C35.449 223.016 35.6431 222.978 35.8244 222.904C36.0057 222.831 36.1706 222.721 36.3095 222.584C36.4485 222.446 36.5588 222.282 36.634 222.101C36.7093 221.92 36.748 221.726 36.748 221.53V212.343C36.748 212.147 36.7867 211.954 36.862 211.773C36.9372 211.592 37.0475 211.428 37.1865 211.29C37.3254 211.152 37.4903 211.043 37.6716 210.969C37.8529 210.895 38.047 210.858 38.2428 210.859H47.4191C47.8155 210.859 48.1958 210.702 48.4761 210.421C48.7564 210.141 48.9139 209.761 48.9139 209.364V209.135C48.9139 208.739 48.7564 208.359 48.4761 208.078C48.1958 207.798 47.8155 207.641 47.4191 207.641H38.2319C37.8354 207.641 37.4553 207.483 37.1749 207.203C36.8946 206.922 36.7371 206.542 36.7371 206.146V196.969C36.7371 196.573 36.5796 196.193 36.2993 195.912C36.0189 195.632 35.6387 195.475 35.2423 195.475H35.0131C34.6186 195.477 34.2412 195.636 33.9632 195.916C33.6852 196.196 33.5292 196.575 33.5292 196.969V206.146C33.5292 206.542 33.3717 206.922 33.0914 207.203C32.8111 207.483 32.4308 207.641 32.0344 207.641H22.8473C22.6515 207.641 22.4576 207.679 22.2768 207.754C22.0961 207.83 21.932 207.94 21.7941 208.079C21.6561 208.218 21.5471 208.383 21.4731 208.564C21.3992 208.745 21.3619 208.94 21.3633 209.135V209.364C21.3633 209.759 21.5193 210.138 21.7973 210.418C22.0753 210.698 22.4527 210.856 22.8473 210.859Z" fill="white"/>
<path d="M48.7201 227.292H54.2738C54.514 227.292 54.7444 227.387 54.9142 227.557C55.084 227.727 55.1795 227.957 55.1795 228.198V233.839C55.1823 234.081 55.2798 234.312 55.451 234.484C55.6223 234.655 55.8538 234.752 56.096 234.755H56.2269C56.4691 234.752 56.7006 234.655 56.8719 234.484C57.0432 234.312 57.1406 234.081 57.1435 233.839V228.241C57.1435 228.122 57.1669 228.004 57.2124 227.895C57.2579 227.785 57.3246 227.685 57.4087 227.601C57.4928 227.517 57.5926 227.45 57.7025 227.404C57.8124 227.359 57.9302 227.336 58.0491 227.336H63.6465C63.8867 227.336 64.117 227.24 64.2869 227.07C64.4567 226.9 64.5521 226.67 64.5521 226.43V226.288C64.5522 226.047 64.4571 225.815 64.2875 225.644C64.118 225.472 63.8877 225.374 63.6465 225.372H58.0927C57.8526 225.372 57.6222 225.276 57.4524 225.106C57.2825 224.936 57.1871 224.706 57.1871 224.466V218.869C57.1843 218.627 57.0864 218.397 56.9149 218.227C56.7433 218.058 56.5118 217.963 56.2706 217.963H56.1396C55.8984 217.963 55.667 218.058 55.4954 218.227C55.3238 218.397 55.226 218.627 55.2231 218.869V224.466C55.2231 224.706 55.1277 224.936 54.9579 225.106C54.788 225.276 54.5577 225.372 54.3175 225.372H48.7201C48.4789 225.374 48.2486 225.472 48.079 225.644C47.9095 225.815 47.8144 226.047 47.8145 226.288V226.43C47.8257 226.662 47.926 226.882 48.0947 227.042C48.2633 227.203 48.4873 227.292 48.7201 227.292Z" fill="white"/>
<g opacity="0.63">
<path d="M263.294 141.583C257.489 129.493 251.499 117.087 242.257 107.202C240.02 104.815 237.581 102.625 234.969 100.655C231.965 98.4564 228.791 96.5007 225.476 94.807C219.06 91.4136 212.481 88.3912 206.611 84.0704C200.215 79.3163 194.651 73.5351 190.146 66.9618C189.753 66.3835 188.804 66.9618 189.207 67.5182C193.176 73.32 197.953 78.5261 203.392 82.9793C206.094 85.1676 208.953 87.1551 211.946 88.9258C215.099 90.7807 218.373 92.4174 221.635 94.0759C225.004 95.7176 228.282 97.5387 231.455 99.5315C234.342 101.419 237.039 103.582 239.508 105.991C244.205 110.715 248.289 116.012 251.663 121.757C255.645 128.304 259.006 135.233 262.323 142.15C262.628 142.783 263.567 142.227 263.272 141.605L263.294 141.583Z" fill="#92D5E4"/>
<path d="M196.211 75.0344C194.029 67.964 191.192 60.1407 184.973 56.6274C183.809 55.8711 182.427 55.5254 181.045 55.6454C180.371 55.7463 179.752 56.0716 179.286 56.5687C178.821 57.0658 178.537 57.7055 178.48 58.3841C178.518 59.3271 178.816 60.2412 179.342 61.0245C183.129 67.6476 189.981 71.4774 196.451 74.9362" fill="#92D5E4"/>
<path d="M204.383 82.236C200.857 80.7488 197.045 80.0595 193.221 80.2174C191.203 80.1408 189.23 80.8219 187.689 82.1269C186.94 82.8834 186.493 83.8878 186.433 84.9509C186.372 86.014 186.703 87.0624 187.362 87.8988C188.769 89.4155 191.006 89.23 192.872 88.8263C197.375 87.8367 201.718 86.2284 205.78 84.0472" fill="#92D5E4"/>
<path d="M213.395 88.7393C209.415 84.2002 206.965 78.5239 206.39 72.5145C205.985 70.6863 206.168 68.7766 206.914 67.059C207.798 65.4987 209.98 64.724 211.399 65.9678C212.283 66.9495 212.803 68.2054 212.872 69.5249C213.854 75.8424 214.552 83.8075 214.846 90.1578" fill="#92D5E4"/>
<path d="M225.572 95.2758C222.843 94.09 219.86 93.6094 216.897 93.8782C213.934 94.1471 211.087 95.1567 208.616 96.8143C207.251 97.6328 206.231 98.9206 205.746 100.437C205.354 102.019 206.074 104.081 207.58 104.638C208.586 104.891 209.651 104.763 210.569 104.278C215.951 102.134 220.98 99.1911 225.485 95.5486" fill="#92D5E4"/>
<path d="M229.951 97.3804C226.344 91.658 224.388 85.05 224.299 78.2859C224.254 77.9631 224.273 77.6343 224.358 77.3193C224.442 77.0043 224.589 76.7096 224.79 76.4529C225.761 75.5473 227.278 76.933 227.987 78.1987C231.261 83.9925 232.155 92.7323 231.544 99.1807" fill="#92D5E4"/>
<path d="M237.795 104.3C235.87 103.773 233.833 103.825 231.938 104.448C230.042 105.07 228.372 106.237 227.134 107.802C226.338 108.839 225.76 110.486 226.665 111.566C227.036 111.906 227.487 112.145 227.976 112.261C228.464 112.378 228.975 112.368 229.458 112.232C233.125 111.697 237.162 108.239 239.857 105.685" fill="#92D5E4"/>
</g>
<path d="M315.28 174.803H105.596V451.932H315.28V174.803Z" fill="#92D5E4"/>
<g style="mix-blend-mode:multiply">
<path d="M324.333 174.803H105.596V193.276H324.333V174.803Z" fill="#D0D3E6"/>
</g>
<path d="M315.264 390.203H105.596V451.933H315.264V390.203Z" fill="#9DC3E6"/>
<path d="M314.958 451.933H199.729V293.097L314.958 238.805V451.933Z" fill="white"/>
<path d="M314.958 390.203H199.729V451.933H314.958V390.203Z" fill="#AAD8F8"/>
<path d="M211.112 293.096H37.1855V451.932H211.112V293.096Z" fill="#92D5E4"/>
<g style="mix-blend-mode:multiply">
<path d="M199.726 293.096H37.1855V305.914H199.726V293.096Z" fill="#D0D3E6"/>
</g>
<path d="M211.112 390.203H37.1855V451.933H211.112V390.203Z" fill="#9DC3E6"/>
<g style="mix-blend-mode:multiply">
<path d="M314.958 247.096L199.729 305.915V293.097L314.958 238.805V247.096Z" fill="#D0D3E6"/>
</g>
<path d="M324.027 226.52H134.417L16.9316 292.593H194.836L324.027 226.52Z" fill="#6BC1CF"/>
<g style="mix-blend-mode:multiply">
<path d="M289.075 244.398L324.024 226.52H134.414L102.635 244.398H289.075Z" fill="#D0D3E6"/>
</g>
<path d="M199.362 301.92H17.6925L16.1836 287.562H197.853L199.362 301.92Z" fill="white"/>
<path d="M327.044 221.49L197.854 287.564L199.362 301.922L324.027 238.805L327.044 221.49Z" fill="white"/>
<path d="M503.012 165.871V451.933H315.262V165.871L409.137 109.445L503.012 165.871Z" fill="white"/>
<path d="M503.032 390.203H315.281V451.933H503.032V390.203Z" fill="#AAD8F8"/>
<g style="mix-blend-mode:multiply">
<path d="M504.019 165.871V185.427L412.155 131.272L314.957 192.392V178.476L410.143 109.445L504.019 165.871Z" fill="#D0D3E6"/>
</g>
<path d="M533.071 174.802L419.107 100.513L305.158 174.802L312.322 189.587L419.107 119.977L525.893 189.587L533.071 174.802Z" fill="white"/>
<path d="M419.104 100.513H182.214L86.7988 174.802H305.155L419.104 100.513Z" fill="#6BC1CF"/>
<path d="M312.319 170.793H86.7988V189.586H312.319V170.793Z" fill="white"/>
<path d="M346.341 360.876H227.926V452.831H346.341V360.876Z" fill="white"/>
<path d="M341.308 365.068H232.938V452.832H341.308V365.068Z" fill="#9DC3E6"/>
<path d="M341.308 445.454H232.938V448.411H341.308V445.454Z" fill="#D5E2F2"/>
<path d="M341.308 438.978H232.938V441.934H341.308V438.978Z" fill="#D5E2F2"/>
<path d="M341.308 432.499H232.938V435.456H341.308V432.499Z" fill="#D5E2F2"/>
<path d="M341.308 426.02H232.938V428.976H341.308V426.02Z" fill="#D5E2F2"/>
<path d="M341.308 419.543H232.938V422.5H341.308V419.543Z" fill="#D5E2F2"/>
<path d="M341.308 413.08H232.938V416.037H341.308V413.08Z" fill="#D5E2F2"/>
<path d="M341.308 406.603H232.938V409.559H341.308V406.603Z" fill="#D5E2F2"/>
<path d="M341.308 400.126H232.938V403.083H341.308V400.126Z" fill="#D5E2F2"/>
<path d="M341.308 393.647H232.938V396.604H341.308V393.647Z" fill="#D5E2F2"/>
<path d="M341.308 387.17H232.938V390.127H341.308V387.17Z" fill="#D5E2F2"/>
<path d="M341.308 380.693H232.938V383.65H341.308V380.693Z" fill="#D5E2F2"/>
<path d="M341.308 374.214H232.938V377.171H341.308V374.214Z" fill="#D5E2F2"/>
<path d="M341.308 367.735H232.938V370.692H341.308V367.735Z" fill="#D5E2F2"/>
<g style="mix-blend-mode:multiply">
<path d="M436.147 186.815H387.434V249.917H436.147V186.815Z" fill="#D0D3E6"/>
</g>
<path d="M434.407 183.841H385.693V246.943H434.407V183.841Z" fill="white"/>
<path d="M430.581 187.531H389.504V243.241H430.581V187.531Z" fill="#B2C8E0"/>
<path opacity="0.49" d="M430.581 187.531H389.504V228.608H430.581V187.531Z" fill="white"/>
<path d="M385.693 228.607H434.407" stroke="white" stroke-width="0.716373" stroke-miterlimit="10"/>
<path d="M410.047 183.841V246.943" stroke="white" stroke-width="0.716373" stroke-miterlimit="10"/>
<g style="mix-blend-mode:multiply">
<path d="M312.352 282.29H263.639V345.392H312.352V282.29Z" fill="#D0D3E6"/>
</g>
<path d="M310.612 279.317H261.898V342.419H310.612V279.317Z" fill="white"/>
<path d="M306.786 283.007H265.709V338.716H306.786V283.007Z" fill="#B2C8E0"/>
<path opacity="0.49" d="M306.786 283.007H265.709V324.084H306.786V283.007Z" fill="white"/>
<path d="M261.898 324.082H310.612" stroke="white" stroke-width="0.716373" stroke-miterlimit="10"/>
<path d="M286.252 279.317V342.419" stroke="white" stroke-width="0.716373" stroke-miterlimit="10"/>
<g style="mix-blend-mode:multiply">
<path d="M112.041 363.574H63.3281V426.676H112.041V363.574Z" fill="#D0D3E6"/>
</g>
<path d="M110.288 360.604H61.5742V423.705H110.288V360.604Z" fill="white"/>
<path d="M106.481 364.306H65.4043V420.015H106.481V364.306Z" fill="#B2C8E0"/>
<path opacity="0.49" d="M106.481 364.306H65.4043V405.383H106.481V364.306Z" fill="white"/>
<path d="M61.5742 405.383H110.288" stroke="white" stroke-width="0.716373" stroke-miterlimit="10"/>
<path d="M85.9355 360.604V423.705" stroke="white" stroke-width="0.716373" stroke-miterlimit="10"/>
<g style="mix-blend-mode:multiply">
<path d="M195.7 363.574H146.986V426.676H195.7V363.574Z" fill="#D0D3E6"/>
</g>
<path d="M193.965 360.604H145.252V423.705H193.965V360.604Z" fill="white"/>
<path d="M190.142 364.306H149.064V420.015H190.142V364.306Z" fill="#B2C8E0"/>
<path opacity="0.49" d="M190.142 364.306H149.064V405.383H190.142V364.306Z" fill="white"/>
<path d="M145.252 405.383H193.965" stroke="white" stroke-width="0.716373" stroke-miterlimit="10"/>
<path d="M169.607 360.604V423.705" stroke="white" stroke-width="0.716373" stroke-miterlimit="10"/>
<path d="M527.154 337.298H426.176L357.725 302.227H458.703L527.154 337.298Z" fill="#6291BE"/>
<path d="M426.18 337.298L425.022 346.687L356.57 311.616L357.729 302.227L426.18 337.298Z" fill="white"/>
<path d="M426.178 337.296L425.02 346.685H525.998L527.156 337.296H426.178Z" fill="white"/>
<g style="mix-blend-mode:multiply">
<path d="M449.072 355.559H408.254V445.273H449.072V355.559Z" fill="#D0D3E6"/>
</g>
<path d="M444.176 441.355V359.46H408.235V441.355H444.176Z" fill="#6291BE"/>
<path d="M437.887 366.807H415.969V386.347H437.887V366.807Z" fill="#B2C8E0"/>
<path opacity="0.49" d="M437.887 366.807H415.969V376.577H437.887V366.807Z" fill="white"/>
<path d="M512.933 445.271H379.779V451.932H512.933V445.271Z" fill="#AAD8F8"/>
<g style="mix-blend-mode:multiply">
<path d="M512.933 445.271H379.779V451.932H512.933V445.271Z" fill="#D0D3E6"/>
</g>
<path d="M516.78 346.688H509.098V451.933H516.78V346.688Z" fill="white"/>
<path d="M512.934 346.688H505.252V451.933H512.934V346.688Z" fill="#DAE5E9"/>
<path d="M450.671 402.776H447.668V451.932H450.671V402.776Z" fill="white"/>
<path d="M448.661 402.776H445.658V451.932H448.661V402.776Z" fill="#DAE5E9"/>
<path d="M465.272 402.776H462.27V451.932H465.272V402.776Z" fill="white"/>
<path d="M463.262 402.776H460.26V451.932H463.262V402.776Z" fill="#DAE5E9"/>
<path d="M479.874 402.776H476.871V451.932H479.874V402.776Z" fill="white"/>
<path d="M477.864 402.776H474.861V451.932H477.864V402.776Z" fill="#DAE5E9"/>
<path d="M494.477 402.776H491.475V451.932H494.477V402.776Z" fill="white"/>
<path d="M492.468 402.776H489.465V451.932H492.468V402.776Z" fill="#DAE5E9"/>
<path d="M508.459 399.316H428.865V406.236H508.459V399.316Z" fill="white"/>
<path d="M436.547 346.688H428.865V451.933H436.547V346.688Z" fill="white"/>
<path d="M432.702 346.688H425.02V451.933H432.702V346.688Z" fill="#DAE5E9"/>
<path d="M530.297 439.327V452.374H512.51C512.51 452.374 513.074 449.997 513.821 449.677C515.942 447.846 517.938 445.876 519.795 443.778C520.222 443.244 522.448 438.047 522.448 438.047L530.297 439.327Z" fill="#133A50"/>
<path d="M509.105 439.327V452.374H504.853L503.801 449.936L502.521 452.374H485.938C485.938 452.374 486.501 449.997 487.248 449.677C487.995 449.356 498.131 444.311 498.558 443.778C498.985 443.244 501.21 438.047 501.21 438.047L509.105 439.327Z" fill="#133A50"/>
<path d="M514.687 193.124C514.601 196.144 515.179 199.146 516.379 201.919C517.186 204.114 524.67 206.659 524.67 206.659C524.67 206.659 502.036 231.809 493.287 231.656C484.538 231.504 497.113 207.94 497.113 207.94C497.113 207.94 500.771 205.714 501.563 203.367C502.204 200.805 502.632 198.195 502.844 195.563L513.086 182.455L514.687 193.124Z" fill="#FEB598"/>
<path d="M497.949 168.172C496.424 169.132 493.925 171.22 493.818 172.638C493.488 175.419 493.345 178.22 493.391 181.021C493.605 183.566 493.711 190.166 494.138 193.123C494.565 196.08 494.931 200.134 495.662 200.744C496.394 201.354 503.466 201.491 504.96 200.744C506.454 199.997 513.755 192.666 513.435 186.295C513.435 186.295 516.239 187.621 518.464 181.89C519.044 180.365 514.059 174.665 513.45 172.927C511.926 168.675 503.36 169.879 501.028 169.528C499.868 169.475 498.77 168.991 497.949 168.172Z" fill="#FEB598"/>
<path d="M493.762 172.639C493.762 172.639 494.615 170.612 496.322 171.466C498.888 172.455 501.644 172.856 504.385 172.639C506.248 172.447 508.071 171.979 509.796 171.252C509.796 171.252 509.796 175.185 510.543 176.236C511.29 177.288 512.982 178.584 513.088 179.849C513.151 180.701 513.151 181.557 513.088 182.409C513.088 182.409 514.796 180.169 516.137 180.596C517.478 181.022 517.524 183.354 516.137 184.421C515.265 185.092 514.343 185.693 513.378 186.22C513.384 187.29 513.491 188.356 513.698 189.406C514.018 190.793 514.658 193.125 514.658 193.125C514.658 193.125 517.631 185.062 520.069 181.769C522.508 178.477 523.682 171.679 518.896 169.134C518.869 167.278 518.182 165.492 516.959 164.096C515.736 162.699 514.056 161.784 512.22 161.513C505.528 160.339 490.759 164.165 492.146 167.35C492.936 169.027 493.48 170.808 493.762 172.639Z" fill="#242938"/>
<path d="M528.331 289.971C528.331 289.971 528.331 315.883 528.331 340.742C528.331 346.839 530.434 362.34 530.236 372.903C530.236 376.759 530.327 383.572 530.236 387.627C529.55 418.111 530.038 444.022 530.038 444.022L517.966 445.348C517.966 445.348 513.607 417.425 509.324 389.593C507.586 377.856 502.709 356.868 501.489 352.113C497.466 336.093 493.686 286.572 493.686 286.572L528.331 289.971Z" fill="#133A50"/>
<path d="M506.199 315.41C506.199 315.41 506.87 356.06 506.459 363.529C506.337 365.906 508.684 374.93 508.318 386.117C508.318 387.885 508.196 389.699 508.135 391.543C508.013 395.4 509.217 399.408 509.08 403.417C508.425 423.674 509.08 443.93 509.08 443.93C509.08 443.93 499.005 444.189 499.005 443.93C499.005 443.671 484.175 367.263 482.94 348.851C481.706 330.438 482.437 305.914 480.791 303.369C479.145 300.823 485.211 286.404 485.211 286.404L499.447 289.971L506.199 315.41Z" fill="#133A50"/>
<path d="M520.695 203.641L534.9 211.262C534.9 211.262 538.497 225.741 538.299 231.625C538.101 237.508 529.962 295.961 529.962 295.961C529.962 295.961 509.629 298.43 499.478 295.961C489.327 293.492 482.193 291.236 482.193 291.236C482.193 291.236 485.73 234.201 486.537 228.302C487.345 222.404 489.296 210.698 489.296 210.698L497.298 206.567L501.734 209.981L520.695 203.641Z" fill="#315C85"/>
<path d="M499.115 211.093L500.807 216.824L503.779 217.037L508.245 210.255L501.737 209.98L499.115 211.093Z" fill="#78A6D2"/>
<path d="M518.834 200.698L501.732 209.981L508.652 215.773L520.693 203.64L518.834 200.698Z" fill="#78A6D2"/>
<path d="M501.729 209.982L496.135 214.493L497.293 206.567L499.107 204.312L501.729 209.982Z" fill="#78A6D2"/>
<path d="M523.007 252.46L516.255 255.813L509.381 251.119V235.282L523.007 236.624V252.46Z" fill="#78A6D2"/>
<path d="M388.606 224.629C378.82 226.717 366.611 220.361 358.533 213.822L361.841 202.573L375.909 183.308C378.455 183.334 380.902 184.294 382.787 186.005C384.672 187.716 385.864 190.059 386.136 192.59C387.737 202.07 384.81 209.493 388.286 222.952C388.422 223.505 388.528 224.065 388.606 224.629Z" fill="#242938"/>
<path d="M401.258 316.416C401.492 316.752 401.747 317.073 402.02 317.377C404.627 317.377 407.995 313.536 408.315 313.459C409.39 313.432 410.461 313.608 411.47 313.978C412.126 314.359 412.705 314.42 412.918 313.78C413.132 313.139 411.958 312.255 411.15 311.6C409.979 310.818 408.708 310.198 407.37 309.756C406.41 309.466 405.663 308.11 405.069 307.637C403.511 306.432 402.276 304.862 401.472 303.064C400.284 303.366 399.142 303.822 398.073 304.421C396.396 305.396 396.549 305.854 396.549 305.854C398.362 308.475 400.588 315.532 401.258 316.416Z" fill="#FFBF9F"/>
<path d="M383.912 227.891C382.928 227.287 381.816 226.922 380.665 226.826C379.515 226.73 378.357 226.906 377.287 227.339C376.216 227.772 375.262 228.45 374.502 229.319C373.741 230.188 373.195 231.223 372.908 232.342C371.277 239.673 377.602 265.676 380.011 277.87C380.239 279.028 379.066 273.449 379.843 276.086C382.602 285.445 390.223 301.815 396.228 310.594C397.893 308.211 400.219 306.367 402.919 305.29C402.919 305.29 393.347 277.519 391.915 274.029C391.915 274.029 390.131 259.716 389.522 245.389C389.095 235.024 386.58 229.537 383.912 227.891Z" fill="#315C85"/>
<path d="M415.598 285.245H364.461V315.79H415.598V285.245Z" fill="#315C85"/>
<path d="M413.346 282.562H362.209V313.107H413.346V282.562Z" fill="white"/>
<path d="M411.592 285.245H360.455V315.79H411.592V285.245Z" fill="#315C85"/>
<path d="M409.9 316.888C409.9 316.034 409.214 311.69 407.369 313.153C406.958 312.193 405.281 310.897 404.55 312.345C403.193 311.66 403.208 312.345 402.218 312.757C401.227 313.168 400.693 312.757 400.312 314.281C400.204 314.828 400.247 315.395 400.438 315.919C400.629 316.443 400.96 316.904 401.395 317.253C402.807 317.723 404.303 317.89 405.784 317.741C406.866 317.65 409.29 317.97 409.9 316.888Z" fill="#FFBF9F"/>
<path d="M376.915 224.675C375.391 224.675 372.937 222.617 375.117 217.786L365.819 214.737C364.644 218.223 363.025 221.542 361.002 224.614C358.289 228.272 369.858 250.647 376.534 251.73C383.21 252.812 385.557 244.429 385.557 244.429L380.817 227.952L376.915 224.675Z" fill="#FFBF9F"/>
<path d="M378.778 215.56C376.537 217.358 374.373 223.836 374.465 227.311L360.152 230.268C361.955 224.955 363.481 219.552 364.725 214.081C366.142 207.116 364.725 204.174 364.725 204.174L378.778 215.56Z" fill="#FFBF9F"/>
<path d="M383.652 189.863C384.95 191.781 385.732 194.002 385.923 196.31C386.06 197.712 385.435 199.115 386.304 200.364C387.173 201.614 390.145 203.702 390.45 204.419C390.755 205.135 388.697 206.69 388.484 207.208C388.27 207.726 387.478 211.948 387.127 214.082C386.777 216.216 381.945 216.338 378.775 215.606C375.384 214.47 372.14 212.935 369.111 211.034C367.313 209.982 364.691 204.175 364.691 204.175L362.344 192.759C362.989 190.892 364.207 189.277 365.825 188.144C367.443 187.01 369.377 186.417 371.352 186.448C378.485 186.418 381.777 187.5 383.652 189.863Z" fill="#FFBF9F"/>
<path d="M371.797 205.272C370.272 205.608 369.038 214.616 371.538 220.606C364.069 222.892 360.457 220.606 354.939 217.801C353.034 215.042 350.366 194.496 359.1 187.18C373.595 174.987 381.811 187.896 381.811 187.896C381.811 187.896 378.884 202.3 371.797 205.272Z" fill="#242938"/>
<path d="M361.807 224.08C365.141 225.59 368.125 227.775 370.571 230.497C374.687 235.07 380.387 240.435 383.695 244.459C383.695 244.459 381.652 238.362 380.646 235.115C379.549 231.442 378.284 225.818 376.866 224.751L381.439 226.275C383.21 231.168 385.245 235.961 387.536 240.633C389.654 244.23 392.87 249.199 392.718 254.015C392.565 258.832 389.578 265.63 390.02 269.745C390.462 273.86 389.898 294.986 389.898 294.986C383.481 296.943 376.79 297.854 370.084 297.684C359.826 297.242 360.938 296.068 357.6 298.141C357.6 298.141 362.325 280.856 363.529 270.705C364.414 263.298 360.283 250.647 358.5 242.447C356.716 234.246 349.354 234.429 352.098 230.253C354.842 226.077 361.807 224.08 361.807 224.08Z" fill="#AEBFDE"/>
<path d="M373.896 436.31C373.607 434.435 374.369 426.54 377.097 415.794C377.28 415.063 377.478 414.27 377.676 413.554C374.064 413.66 370.467 413.782 366.854 413.874C366.443 424.68 367.007 435.609 364.4 440.883C366.283 443.305 368.63 445.326 371.305 446.827C372.829 447.559 377.127 450.714 379.17 450.272C379.99 450.12 380.761 449.774 381.419 449.262C382.077 448.75 382.602 448.087 382.95 447.33C382.95 447.33 374.597 440.7 373.896 436.31Z" fill="#FFBF9F"/>
<path d="M364.398 440.881C364.944 440.721 365.526 440.726 366.068 440.897C366.611 441.068 367.091 441.397 367.446 441.842C369.702 444.275 372.332 446.333 375.235 447.938C376.441 448.551 377.794 448.813 379.142 448.695C380.489 448.576 381.776 448.082 382.856 447.268C384.631 448.022 386.326 448.951 387.916 450.042C391.391 452.343 384.578 453.532 375.601 452.252C373.635 451.962 368.239 448.99 367.538 448.96C366.837 448.929 366.105 451.231 365.511 451.231C364.444 451.231 364.246 451.444 364.246 451.444L363.834 445.5L364.398 440.881Z" fill="#133A50"/>
<path d="M389.994 300.291C392.098 317.545 390.177 356.945 389.903 360.466C389.629 363.987 390.131 368.91 388.485 372.889C386.839 376.867 378.029 416.511 377.206 425.656C377.206 425.656 367.817 425.26 365.607 424.315C365.607 424.315 367.269 398.693 367.269 393.069C367.269 387.445 371.125 370.541 372.237 368.209C373.35 365.877 369.753 346.672 369.479 342.45C369.204 338.228 364.51 302.562 364.51 302.562L389.994 300.291Z" fill="#264869"/>
<path d="M343.503 431.371C343.854 429.603 346.811 423.384 352.1 415.428C348.929 414.625 345.759 413.838 342.589 413.065C339.54 420.976 336.781 428.307 333.443 431.356C334.27 434.509 335.648 437.492 337.513 440.166C338.61 441.568 341.323 446.537 343.29 447.04C344.044 447.279 344.85 447.309 345.62 447.126C346.391 446.944 347.097 446.556 347.664 446.003C347.664 446.003 342.604 435.806 343.503 431.371Z" fill="#FFBF9F"/>
<path d="M333.488 431.28C333.488 431.28 335.012 431.372 335.912 433.612C337.04 436.966 338.647 440.138 340.682 443.032C343.99 447.086 347.709 445.928 347.709 445.928C349.028 447.48 350.211 449.142 351.245 450.897C353.531 454.677 347.069 452.65 339.555 447.3C337.893 446.126 334.144 440.837 333.534 440.471C332.924 440.105 331.476 441.995 330.943 441.675C329.998 441.188 329.754 441.309 329.754 441.309L331.446 435.487L333.488 431.28Z" fill="#133A50"/>
<path d="M350.596 300.519C350.001 304.085 347.044 311.097 350.596 329.189C354.147 347.281 355.915 363.636 355.915 363.636C355.915 363.636 349.407 378.085 345.855 388.145C342.304 398.204 338.158 420.427 338.158 420.427L347.044 425.747C347.044 425.747 364.207 389.029 367.164 383.481C370.121 377.933 374.19 369.351 374.419 363.666C374.8 353.652 377.025 332.146 378.58 323.473C379.571 318.032 381.887 301.616 381.887 301.616L350.596 300.519Z" fill="#264869"/>
<path d="M392.093 301.813C391.667 297.073 391.026 291.967 390.097 289.711C388.13 284.97 385.89 279.209 385.89 279.209L357.875 290.854C354.311 293.487 351.542 297.052 349.873 301.157C363.797 303.874 378.092 304.096 392.093 301.813Z" fill="#F2EFE8"/>
<path d="M392.736 253.909C392.889 249.093 389.688 244.124 387.554 240.527C385.263 235.855 383.228 231.062 381.457 226.169L376.885 224.645C378.302 225.711 379.567 231.336 380.665 235.009C381.625 238.24 383.713 244.352 383.713 244.352C382.57 242.965 382.905 289.621 383.713 296.419C385.618 305.031 392.858 302.516 392.858 302.516C392.858 302.516 390.587 273.693 390.161 269.578C389.734 265.463 392.584 258.71 392.736 253.909Z" fill="#315C85"/>
<path d="M391.06 262.429C388.332 261.758 385.634 261.057 382.967 260.219C382.891 273.937 383.195 292.364 383.653 296.449C385.558 305.061 392.798 302.546 392.798 302.546C392.798 302.546 390.527 273.723 390.1 269.608C390.034 267.179 390.358 264.755 391.06 262.429Z" fill="#264869"/>
<path d="M386.489 272.716C386.095 263.226 385.164 253.766 383.7 244.381C382.557 242.994 382.892 289.65 383.7 296.447C384.828 301.569 387.83 302.758 390.071 302.88C388.699 289.832 386.718 285.809 386.489 272.716Z" fill="#1D374F"/>
<path d="M353.032 234.201C354.038 231.152 361.811 224.004 361.811 224.004C361.811 224.004 378.577 234.673 383.699 244.382C383.699 244.382 385.634 276.772 384.735 286.587C383.836 296.403 377.632 307.21 367.42 306.112C361.442 305.503 355.536 304.319 349.785 302.576C349.785 302.576 359.601 280.445 358.534 274.958C356.69 265.66 351.447 238.972 353.032 234.201Z" fill="#315C85"/>
<path d="M352.895 240.343C353.657 250.143 357.132 267.778 358.534 274.957C359.601 280.444 349.785 302.576 349.785 302.576C355.516 304.315 361.401 305.499 367.359 306.112C377.571 307.209 383.775 296.403 384.674 286.587C385.101 282.014 384.887 272.412 384.567 263.541C372.907 257.322 361.262 250.281 352.895 240.343Z" fill="#264869"/>
<path d="M380.891 186.63C381.853 187.951 382.389 189.535 382.427 191.169C382.465 192.803 382.003 194.41 381.104 195.775C379.248 198.476 376.419 200.355 373.209 201.018" stroke="#242938" stroke-width="0.335323" stroke-miterlimit="10"/>
<path d="M416.468 264.317C418.545 264.395 420.609 263.955 422.474 263.037C423.19 262.687 424.821 262.595 425.522 261.818C426.548 260.758 427.712 259.84 428.982 259.089C429.973 258.632 431.299 257.916 431.832 258.404C432.366 258.891 432.03 259.41 431.36 259.852C430.689 260.294 431.588 262.9 433.341 262.458C435.094 262.016 437.152 260.492 438.158 260.202C439.164 259.913 439.301 261.437 439.301 261.437C439.301 261.437 440.17 262.245 440.093 262.961C440.056 263.665 439.928 264.362 439.712 265.034C439.332 265.895 439.046 266.794 438.859 267.716C438.859 268.387 436.527 270.033 435.612 270.399C434.698 270.765 430.217 270.399 429.043 270.658C427.869 270.917 420.233 269.789 416.849 270.231C416.849 270.231 416.331 270.231 416.179 268.189C416.1 266.891 416.198 265.589 416.468 264.317Z" fill="#FFBF9F"/>
<path d="M360.057 225.604C355.484 224.506 350.698 228.042 350.18 235.892C349.662 243.742 368.882 257.84 378.256 266.757C379.155 267.611 379.78 268.129 382.569 268.586C394.489 270.619 406.514 271.982 418.586 272.671C418.586 272.671 418.845 268.769 419.287 263.968C419.287 263.968 393.147 260.462 385.679 255.813C385.679 255.813 380.39 252.414 375.741 243.742C370.65 234.261 366.382 227.128 360.057 225.604Z" fill="#315C85"/>
<path d="M535.863 300.183C535.857 301.417 535.73 302.647 535.482 303.856C534.492 307.432 532.843 310.792 530.62 313.763C529.665 315.229 528.969 316.848 528.562 318.549L530.696 318.732C530.696 318.732 531.489 317.787 532.083 317.208C532.678 316.629 533.745 316.11 533.73 316.522C533.629 318.694 533.255 320.845 532.617 322.924C531.86 324.15 530.734 325.105 529.401 325.652L532.952 326.033L536.168 325.058L537.464 324.585L538.82 322.009L540.345 321.171C540.345 321.171 541.533 316.598 542.113 313.306C542.692 310.014 542.113 308.84 542.113 303.719C542.15 302.566 542.252 301.416 542.417 300.274L535.863 300.183Z" fill="#FEB598"/>
<path d="M534.868 307.042L543.876 307.926C543.876 307.926 547.016 269.577 546.924 267.885C546.833 266.193 547.382 227.829 542.779 218.943C539.059 211.749 533.298 210.179 528.421 211.856C523.543 213.532 525.601 224.705 525.601 224.705L533.008 268.175L534.868 307.042Z" fill="#315C85"/>
<path d="M539.226 300.702C537.596 301.03 535.901 300.743 534.471 299.894L534.867 307.043L543.875 307.927L544.637 299.879C542.823 300.123 541.025 300.382 539.226 300.702Z" fill="#78A6D2"/>
<path d="M441.525 260.403L436.374 260.906L432.685 259.824C432.183 259.703 431.656 259.742 431.177 259.936C430.699 260.13 430.293 260.469 430.018 260.906L431.679 262.186L435.779 266.485C435.779 266.485 437.654 268.009 438.827 267.673L443.568 266.286L441.525 260.403Z" fill="#FEB598"/>
<path d="M437.383 260.815L440.767 268.832C440.767 268.832 479.771 260.113 481.234 258.94C482.133 258.239 490.821 247.905 497.497 239.887C501.826 234.72 505.301 230.514 505.301 230.514C505.301 230.514 503.579 217.238 498.671 214.205C495.935 212.42 492.785 211.37 489.526 211.156L470.26 246.121L437.383 260.815Z" fill="#315C85"/>
<path d="M445.354 257.263L437.383 260.814L440.767 268.831L448.388 267.109C447.29 263.847 446.299 260.555 445.354 257.263Z" fill="#78A6D2"/>
<path d="M500.801 216.824C500.801 216.824 499.948 229.384 499.003 244.26C497.997 259.898 496.884 277.868 496.564 280.277C495.924 284.941 500.801 290.031 500.801 290.031C500.801 290.031 504.84 283.935 505.054 281.968C505.191 280.734 503.285 254.091 502.859 235.328C502.708 229.217 503.013 223.103 503.773 217.038L500.801 216.824Z" fill="#78A6D2"/>
<path d="M361.812 224.08C365.81 225.697 369.593 227.801 373.076 230.345C377.649 233.957 383.746 244.459 383.746 244.459C383.746 244.459 379.783 240.526 378.045 239.2C377.253 238.606 373.625 236.746 373.625 236.746L374.921 234.887L370.5 234.658C369.214 232.731 367.82 230.879 366.324 229.11C364.627 226.992 362.273 225.501 359.633 224.873L361.812 224.08Z" fill="#78A6D2"/>
<path d="M376.23 224.537C376.49 225.253 377.877 228.79 379.142 232.036C380.407 235.283 383.714 244.382 383.714 244.382C383.714 244.382 383.181 239.55 383.059 237.752C382.937 235.953 382.876 234.201 382.876 234.201H381.077C381.135 233.446 381.393 232.72 381.824 232.097C381.302 230.597 380.687 229.13 379.98 227.707C379.278 226.601 378.504 225.542 377.663 224.537H376.23Z" fill="#78A6D2"/>
<path d="M426.605 270.279C427.81 268.129 428.13 266.986 429.288 266.864C430.446 266.742 430.431 267.535 430.431 267.535C430.431 267.535 431.773 266.925 432.291 267.352L432.809 267.794C433.255 267.759 433.704 267.759 434.15 267.794C434.37 267.829 434.579 267.911 434.763 268.034C434.947 268.158 435.102 268.321 435.217 268.51C435.217 268.51 436.741 267.565 436.741 268.51C436.654 269.03 436.421 269.514 436.071 269.908C435.72 270.302 435.266 270.588 434.76 270.736C434.089 270.797 426.605 270.279 426.605 270.279Z" fill="#FEB598"/>
<path d="M431.373 259.854C430.031 260.678 428.172 262.095 428.156 262.903C428.141 263.711 428.903 263.985 429.772 263.436C430.93 262.847 432.126 262.337 433.354 261.912L434.512 261.409L431.373 259.854Z" fill="#FEB598"/>
<path d="M45.7247 31.9351C48.2701 28.4084 51.8044 25.716 55.8803 24.1983C59.9562 22.6807 64.3907 22.406 68.6228 23.4092C72.8548 24.4123 76.6943 26.6481 79.6554 29.8337C82.6166 33.0193 84.5663 37.0116 85.2581 41.3056C85.9498 45.5995 85.3524 50.0022 83.5415 53.9565C81.7306 57.9109 78.7875 61.2393 75.0846 63.5208C71.3816 65.8022 67.0852 66.934 62.7389 66.7732C58.3926 66.6123 54.1916 65.166 50.6674 62.6171C45.948 59.2003 42.7771 54.0506 41.8504 48.2983C40.9237 42.5461 42.3171 36.6611 45.7247 31.9351Z" fill="#92D5E4"/>
<path d="M22.4475 32.0435C23.1133 31.1179 24.0388 30.4106 25.1068 30.0113C26.1748 29.612 27.3372 29.5386 28.4469 29.8003C29.5567 30.0621 30.5638 30.6473 31.3407 31.4817C32.1177 32.3162 32.6296 33.3625 32.8116 34.488C32.9936 35.6136 32.8375 36.7678 32.3631 37.8046C31.8887 38.8414 31.1172 39.7142 30.1465 40.3123C29.1758 40.9104 28.0495 41.207 26.9101 41.1646C25.7707 41.1222 24.6695 40.7427 23.746 40.0741C22.5108 39.1798 21.6806 37.8324 21.4372 36.3271C21.1938 34.8218 21.5571 33.2814 22.4475 32.0435Z" fill="#92D5E4"/>
<path d="M456.569 86.3303C470.367 78.1961 474.804 60.1556 466.48 46.0357C458.157 31.9158 440.223 27.0634 426.425 35.1975C412.627 43.3317 408.189 61.3722 416.513 75.4922C424.837 89.6121 442.771 94.4645 456.569 86.3303Z" fill="#D4F0F5"/>
<path d="M444.457 33.9565C448.617 34.1676 452.684 35.2683 456.382 37.1844C460.081 39.1005 463.326 41.7875 465.898 45.0641C469.156 50.1437 470.814 56.0852 470.655 62.1181C470.586 65.947 469.75 69.7232 468.195 73.223C466.641 76.7227 464.399 79.8749 461.605 82.4928C458.81 85.1107 455.518 87.1411 451.924 88.4637C448.33 89.7862 444.507 90.3741 440.682 90.1925C435.49 89.9393 430.458 88.3087 426.105 85.4679C422.536 82.6042 419.678 78.9545 417.753 74.8038C415.828 70.6531 414.889 66.1136 415.008 61.5399C415.075 57.7778 415.897 54.0676 417.424 50.6289C418.952 47.1902 421.154 44.0931 423.9 41.5209C426.646 38.9487 429.881 36.9539 433.412 35.6546C436.943 34.3552 440.699 33.7778 444.457 33.9565Z" fill="#D4F0F5"/>
<g opacity="0.85">
<path d="M441.004 75.8081C443.059 75.9737 445.126 75.7061 447.071 75.0226C448.569 74.5078 449.874 73.5486 450.813 72.2729C451.648 71.0943 452.109 69.6911 452.134 68.2467C452.254 66.685 451.8 65.1329 450.857 63.8823C449.978 62.8008 448.856 61.9412 447.584 61.3727C445.936 60.66 444.24 60.0621 442.51 59.5833C441.231 59.2348 439.971 58.8197 438.735 58.3394C437.856 57.9859 437.055 57.4631 436.378 56.801C436.066 56.4848 435.823 56.107 435.666 55.6918C435.508 55.2767 435.438 54.8332 435.461 54.3896C435.469 53.7542 435.637 53.1311 435.95 52.578C436.263 52.0248 436.71 51.5596 437.251 51.2254C438.825 50.3506 440.635 49.9954 442.423 50.2107C443.762 50.2819 445.085 50.5427 446.351 50.9853C447.677 51.445 448.933 52.0877 450.082 52.8948L451.501 49.7087C450.266 48.7904 448.882 48.0927 447.409 47.6465C445.822 47.1379 444.175 46.8371 442.51 46.7518C440.468 46.5906 438.415 46.8658 436.487 47.5593C435.016 48.0968 433.737 49.0572 432.81 50.3198C431.966 51.511 431.502 52.9298 431.479 54.3896C431.366 55.9489 431.815 57.497 432.745 58.7541C433.616 59.852 434.738 60.724 436.018 61.2964C437.675 62.0131 439.377 62.6218 441.113 63.1185C442.794 63.6095 444.092 64.035 445.009 64.406C445.873 64.7405 446.654 65.2578 447.3 65.9227C447.604 66.2456 447.838 66.6267 447.99 67.0431C448.142 67.4595 448.208 67.9024 448.184 68.3449C448.17 68.9685 447.997 69.5781 447.679 70.1151C447.362 70.652 446.912 71.0983 446.373 71.411C444.753 72.2434 442.922 72.5739 441.113 72.3602C439.342 72.273 437.599 71.8779 435.963 71.1927C434.451 70.59 433.069 69.7008 431.893 68.5741L430.322 71.6728C431.632 72.9181 433.19 73.8736 434.894 74.477C436.844 75.2533 438.908 75.703 441.004 75.8081Z" fill="white"/>
<path d="M443.93 80.1518L441.922 80.0536L442.969 41.4609L444.977 41.5591L443.93 80.1518Z" fill="white"/>
<path d="M439.654 79.9447L437.646 79.8465L438.694 41.2539L440.713 41.3521L439.654 79.9447Z" fill="white"/>
</g>
<path d="M425.037 126.58L423.738 123.568L424.251 123.383L425.037 126.58Z" fill="#80C3DA"/>
<path d="M420.931 117.677C419.84 115.779 418.88 113.848 417.865 111.938L419.698 111.011C420.549 113.051 421.411 115.07 422.219 117.121L420.931 117.677Z" fill="#80C3DA"/>
<path d="M414.591 106.295C413.424 104.462 412.278 102.629 411.154 100.774L413.642 99.2686C414.733 101.178 415.824 103.109 416.839 105.051L414.591 106.295Z" fill="#80C3DA"/>
<path d="M407.554 95.3626L403.844 90.0162L406.473 88.1504L410.172 93.6278L407.554 95.3626Z" fill="#80C3DA"/>
<path d="M399.988 84.7773L396.006 79.6273L398.45 77.6523L402.563 82.8242L399.988 84.7773Z" fill="#80C3DA"/>
<path d="M391.929 74.5541C390.474 72.9174 389.07 71.2626 387.717 69.5895L389.594 67.8438C391.121 69.4368 392.63 71.0407 394.122 72.6555L391.929 74.5541Z" fill="#80C3DA"/>
<path d="M383.373 64.7232C381.878 63.1411 380.362 61.5808 378.889 59.9769L379.849 58.8857C381.529 60.3042 383.122 61.7663 384.835 63.2502L383.373 64.7232Z" fill="#80C3DA"/>
<path d="M374.24 55.3639L371.861 53.1162L374.589 54.9384L374.24 55.3639Z" fill="#80C3DA"/>
<path d="M418.654 0.720656L415.719 5.52155C415.66 5.61344 415.582 5.69157 415.49 5.75068L410.231 9.02402C410.129 9.08653 410.045 9.174 409.987 9.27809C409.929 9.38218 409.898 9.49944 409.898 9.61867C409.898 9.73791 409.929 9.85516 409.987 9.95926C410.045 10.0634 410.129 10.1508 410.231 10.2133L415.817 13.5958C415.921 13.656 416.008 13.7426 416.068 13.8467L418.73 18.3858C418.793 18.4873 418.88 18.5711 418.984 18.6293C419.089 18.6874 419.206 18.718 419.325 18.718C419.444 18.718 419.562 18.6874 419.666 18.6293C419.77 18.5711 419.857 18.4873 419.92 18.3858L422.909 13.7704C422.96 13.6948 423.022 13.6284 423.095 13.574L428.114 9.95146C428.209 9.8822 428.286 9.78992 428.336 9.68321C428.386 9.57651 428.408 9.45885 428.401 9.34121C428.393 9.22357 428.356 9.10978 428.292 9.01043C428.229 8.91109 428.141 8.82943 428.038 8.77306L422.506 5.73977C422.385 5.66621 422.286 5.56043 422.222 5.43426L419.876 0.742478C419.818 0.632223 419.731 0.539634 419.624 0.47434C419.518 0.409046 419.396 0.373433 419.271 0.371205C419.147 0.368977 419.024 0.400216 418.915 0.461672C418.806 0.523128 418.716 0.612557 418.654 0.720656Z" fill="#92D5E4"/>
<path d="M391.314 13.9222L387.102 20.8071C387.029 20.9436 386.92 21.057 386.786 21.1344L379.235 25.9026C379.089 25.9908 378.967 26.1156 378.883 26.2647C378.798 26.4139 378.754 26.5823 378.754 26.7537C378.754 26.925 378.798 27.0934 378.883 27.2426C378.967 27.3917 379.089 27.5165 379.235 27.6047L387.222 32.3947C387.367 32.4833 387.487 32.6071 387.571 32.7548L391.412 39.3014C391.502 39.4457 391.628 39.5647 391.777 39.6472C391.926 39.7297 392.093 39.773 392.263 39.773C392.433 39.773 392.601 39.7297 392.75 39.6472C392.899 39.5647 393.024 39.4457 393.114 39.3014L397.413 32.6675C397.479 32.5618 397.564 32.4693 397.664 32.3947L404.909 27.2228C405.046 27.1241 405.156 26.9923 405.229 26.8398C405.301 26.6873 405.334 26.5189 405.325 26.3503C405.315 26.1816 405.263 26.0182 405.173 25.8751C405.083 25.732 404.959 25.6138 404.811 25.5316L396.879 21.1672C396.697 21.0705 396.551 20.9173 396.464 20.7307L393.071 14.0204C392.993 13.8582 392.873 13.7199 392.724 13.6199C392.574 13.5199 392.401 13.4618 392.221 13.4518C392.042 13.4417 391.863 13.4801 391.703 13.5628C391.544 13.6456 391.409 13.7697 391.314 13.9222Z" fill="#D4F0F5"/>
</g>
<defs>
<clipPath id="clip0_1744_16274">
<rect width="890.918" height="497.186" fill="white" transform="translate(-318.773 0.371094)"/>
</clipPath>
</defs>
</svg>
