<svg width="601" height="522" viewBox="0 0 601 522" fill="none" xmlns="http://www.w3.org/2000/svg">
<g clip-path="url(#clip0_1744_16825)">
<g clip-path="url(#clip1_1744_16825)">
<path d="M23.821 220.974H33.4623C33.6683 220.973 33.8726 221.012 34.0635 221.089C34.2544 221.167 34.4282 221.281 34.5749 221.426C34.7216 221.57 34.8384 221.742 34.9187 221.932C34.9989 222.122 35.0409 222.326 35.0424 222.532V232.173C35.0424 232.586 35.2065 232.982 35.4986 233.274C35.7906 233.566 36.1867 233.73 36.5997 233.73H36.8402C37.0456 233.732 37.2493 233.692 37.4396 233.615C37.6299 233.537 37.8029 233.423 37.9487 233.278C38.0946 233.133 38.2103 232.961 38.2893 232.771C38.3682 232.582 38.4089 232.378 38.4089 232.173V222.532C38.4089 222.326 38.4495 222.123 38.5285 221.933C38.6075 221.743 38.7232 221.571 38.869 221.426C39.0148 221.282 39.1879 221.167 39.3781 221.089C39.5684 221.012 39.7721 220.973 39.9776 220.974H49.6074C50.0235 220.974 50.4225 220.809 50.7167 220.515C51.0109 220.221 51.1761 219.822 51.1761 219.406V219.165C51.1761 218.749 51.0109 218.35 50.7167 218.056C50.4225 217.762 50.0235 217.596 49.6074 217.596H39.9661C39.5501 217.596 39.1511 217.431 38.8569 217.137C38.5627 216.843 38.3974 216.444 38.3974 216.028V206.398C38.3974 205.982 38.2322 205.583 37.938 205.289C37.6438 204.994 37.2448 204.829 36.8287 204.829H36.5883C36.1742 204.832 35.7781 204.999 35.4864 205.293C35.1947 205.586 35.031 205.984 35.031 206.398V216.028C35.031 216.444 34.8657 216.843 34.5715 217.137C34.2773 217.431 33.8783 217.596 33.4623 217.596H23.821C23.6155 217.596 23.4121 217.637 23.2224 217.716C23.0327 217.795 22.8605 217.911 22.7158 218.057C22.571 218.202 22.4565 218.375 22.379 218.566C22.3014 218.756 22.2622 218.96 22.2637 219.165V219.406C22.2637 219.82 22.4274 220.217 22.7191 220.511C23.0109 220.805 23.4069 220.971 23.821 220.974Z" fill="white"/>
<path d="M50.9738 238.219H56.8021C57.0542 238.219 57.2959 238.319 57.4741 238.497C57.6524 238.675 57.7525 238.917 57.7525 239.169V245.089C57.7555 245.343 57.8578 245.586 58.0375 245.766C58.2172 245.946 58.4602 246.048 58.7144 246.051H58.8518C59.1059 246.048 59.3489 245.946 59.5286 245.766C59.7083 245.586 59.8106 245.343 59.8136 245.089V239.215C59.8136 239.09 59.8382 238.967 59.8859 238.851C59.9337 238.736 60.0037 238.631 60.092 238.543C60.1802 238.455 60.285 238.385 60.4003 238.337C60.5156 238.289 60.6392 238.265 60.764 238.265H66.6381C66.8901 238.265 67.1319 238.165 67.3101 237.986C67.4884 237.808 67.5885 237.566 67.5885 237.314V237.165C67.5885 236.912 67.4887 236.669 67.3108 236.489C67.1329 236.309 66.8912 236.207 66.6381 236.204H60.8098C60.5577 236.204 60.316 236.103 60.1378 235.925C59.9596 235.747 59.8594 235.505 59.8594 235.253V229.379C59.8564 229.126 59.7537 228.884 59.5737 228.706C59.3936 228.528 59.1507 228.429 58.8976 228.429H58.7602C58.507 228.429 58.2641 228.528 58.0841 228.706C57.904 228.884 57.8013 229.126 57.7983 229.379V235.253C57.7983 235.505 57.6982 235.747 57.52 235.925C57.3417 236.103 57.1 236.204 56.8479 236.204H50.9738C50.7207 236.207 50.479 236.309 50.3011 236.489C50.1232 236.669 50.0234 236.912 50.0234 237.165V237.314C50.0352 237.558 50.1405 237.788 50.3175 237.957C50.4945 238.125 50.7295 238.219 50.9738 238.219Z" fill="white"/>
<g opacity="0.63">
<path d="M276.152 148.273C270.061 135.586 263.774 122.566 254.076 112.192C251.728 109.687 249.169 107.389 246.427 105.322C243.275 103.014 239.944 100.962 236.465 99.1845C229.732 95.6234 222.827 92.4516 216.667 87.9172C209.955 82.9281 204.116 76.8612 199.388 69.9629C198.976 69.356 197.98 69.9629 198.404 70.5469C202.569 76.6355 207.581 82.0989 213.289 86.7722C216.125 89.0687 219.126 91.1544 222.266 93.0127C225.576 94.9593 229.011 96.6768 232.434 98.4173C235.969 100.14 239.409 102.051 242.74 104.143C245.769 106.123 248.599 108.394 251.19 110.921C256.12 115.879 260.406 121.438 263.946 127.467C268.125 134.337 271.652 141.608 275.133 148.868C275.454 149.532 276.439 148.948 276.129 148.296L276.152 148.273Z" fill="#92D5E4"/>
<path d="M205.752 78.4344C203.461 71.0145 200.484 62.8045 193.958 59.1175C192.737 58.3238 191.286 57.9611 189.835 58.0869C189.129 58.1928 188.478 58.5343 187.99 59.0559C187.502 59.5776 187.204 60.2489 187.145 60.961C187.184 61.9506 187.497 62.9099 188.049 63.732C192.022 70.6825 199.213 74.7016 206.003 78.3314" fill="#92D5E4"/>
<path d="M214.327 85.9921C210.627 84.4314 206.627 83.7081 202.614 83.8738C200.496 83.7934 198.425 84.5082 196.808 85.8776C196.022 86.6716 195.553 87.7256 195.49 88.8412C195.427 89.9569 195.773 91.0571 196.465 91.9349C197.942 93.5265 200.289 93.3319 202.247 92.9082C206.972 91.8697 211.531 90.1819 215.793 87.8929" fill="#92D5E4"/>
<path d="M223.785 92.8173C219.609 88.0538 217.037 82.097 216.434 75.7905C216.008 73.8719 216.201 71.8678 216.984 70.0653C217.911 68.4279 220.201 67.6149 221.69 68.9202C222.618 69.9504 223.164 71.2683 223.236 72.6531C224.266 79.2829 224.999 87.6417 225.308 94.3059" fill="#92D5E4"/>
<path d="M236.563 99.6766C233.7 98.4322 230.569 97.9278 227.46 98.21C224.35 98.4921 221.362 99.5517 218.769 101.291C217.336 102.15 216.266 103.502 215.758 105.093C215.345 106.753 216.101 108.917 217.681 109.501C218.738 109.767 219.855 109.633 220.819 109.123C226.467 106.874 231.744 103.785 236.471 99.9629" fill="#92D5E4"/>
<path d="M241.162 101.885C237.376 95.88 235.323 88.9454 235.23 81.847C235.182 81.5082 235.203 81.1631 235.292 80.8326C235.38 80.502 235.535 80.1928 235.745 79.9233C236.765 78.9729 238.356 80.4271 239.1 81.7554C242.536 87.8356 243.475 97.0074 242.833 103.775" fill="#92D5E4"/>
<path d="M249.391 109.146C247.371 108.593 245.234 108.647 243.245 109.301C241.255 109.954 239.502 111.179 238.204 112.821C237.368 113.909 236.761 115.638 237.711 116.772C238.1 117.127 238.574 117.378 239.087 117.501C239.6 117.623 240.135 117.612 240.643 117.47C244.49 116.909 248.727 113.279 251.555 110.6" fill="#92D5E4"/>
</g>
<path d="M47.8304 33.2051C50.5017 29.5042 54.2106 26.6786 58.488 25.086C62.7655 23.4933 67.4192 23.2051 71.8604 24.2578C76.3017 25.3105 80.3309 27.6568 83.4384 30.9999C86.5459 34.343 88.5921 38.5326 89.318 43.0388C90.0439 47.5451 89.417 52.1653 87.5166 56.3152C85.6162 60.465 82.5276 63.958 78.6416 66.3522C74.7556 68.7463 70.2469 69.9342 65.6857 69.7654C61.1245 69.5965 56.7159 68.0787 53.0175 65.4039C48.0648 61.8181 44.7371 56.4139 43.7646 50.3773C42.7922 44.3407 44.2544 38.1648 47.8304 33.2051Z" fill="#92D5E4"/>
<path d="M23.3996 33.3202C24.0983 32.3488 25.0695 31.6066 26.1903 31.1876C27.311 30.7685 28.5309 30.6915 29.6955 30.9662C30.8601 31.2408 31.917 31.8549 32.7324 32.7306C33.5478 33.6064 34.0849 34.7043 34.2759 35.8855C34.4669 37.0668 34.3031 38.2781 33.8052 39.3661C33.3074 40.4542 32.4978 41.37 31.4792 41.9977C30.4605 42.6254 29.2784 42.9367 28.0827 42.8922C26.887 42.8477 25.7314 42.4494 24.7622 41.7477C23.466 40.8093 22.5947 39.3953 22.3393 37.8155C22.0838 36.2358 22.4651 34.6192 23.3996 33.3202Z" fill="#92D5E4"/>
<path d="M478.981 90.289C493.461 81.7527 498.118 62.8205 489.383 48.0026C480.648 33.1847 461.828 28.0924 447.348 36.6287C432.867 45.1649 428.21 64.0972 436.946 78.9151C445.681 93.733 464.501 98.8253 478.981 90.289Z" fill="#D4F0F5"/>
<path d="M466.271 35.3263C470.637 35.5477 474.904 36.7028 478.786 38.7137C482.667 40.7245 486.072 43.5443 488.771 46.9829C492.191 52.3135 493.93 58.5488 493.763 64.8799C493.691 68.8981 492.814 72.8609 491.182 76.5337C489.551 80.2065 487.199 83.5145 484.266 86.2618C481.333 89.0091 477.878 91.1398 474.106 92.5278C470.335 93.9157 466.323 94.5326 462.309 94.342C456.86 94.0764 451.58 92.3651 447.011 89.3839C443.266 86.3787 440.267 82.5486 438.247 78.1927C436.227 73.8368 435.241 69.0729 435.366 64.2731C435.437 60.3251 436.299 56.4314 437.902 52.8228C439.505 49.2141 441.815 45.9639 444.697 43.2645C447.579 40.5652 450.974 38.4718 454.679 37.1082C458.385 35.7447 462.327 35.1387 466.271 35.3263Z" fill="#D4F0F5"/>
<g opacity="0.85">
<path d="M462.646 79.2466C464.802 79.4204 466.971 79.1395 469.012 78.4222C470.584 77.882 471.954 76.8754 472.94 75.5367C473.816 74.2997 474.299 72.8272 474.325 71.3115C474.452 69.6725 473.975 68.0437 472.985 66.7313C472.062 65.5963 470.886 64.6942 469.55 64.0977C467.821 63.3498 466.042 62.7223 464.226 62.2198C462.883 61.8541 461.561 61.4184 460.264 60.9144C459.342 60.5434 458.501 59.9948 457.791 59.2999C457.463 58.9681 457.209 58.5717 457.043 58.136C456.877 57.7003 456.804 57.2349 456.829 56.7694C456.837 56.1026 457.013 55.4486 457.342 54.8682C457.67 54.2877 458.139 53.7995 458.707 53.4487C460.358 52.5307 462.258 52.1579 464.134 52.3838C465.54 52.4586 466.928 52.7323 468.256 53.1968C469.649 53.6792 470.967 54.3537 472.172 55.2007L473.661 51.8571C472.365 50.8934 470.912 50.1612 469.367 49.693C467.701 49.1592 465.973 48.8436 464.226 48.754C462.083 48.5848 459.928 48.8737 457.905 49.6014C456.361 50.1655 455.019 51.1734 454.046 52.4984C453.16 53.7484 452.673 55.2374 452.649 56.7694C452.531 58.4057 453.002 60.0304 453.978 61.3496C454.892 62.5018 456.07 63.4169 457.413 64.0175C459.152 64.7697 460.938 65.4085 462.76 65.9298C464.523 66.445 465.886 66.8916 466.848 67.2809C467.755 67.6319 468.575 68.1748 469.252 68.8725C469.571 69.2114 469.818 69.6114 469.977 70.0484C470.136 70.4853 470.206 70.9501 470.18 71.4145C470.166 72.0689 469.984 72.7086 469.651 73.2721C469.318 73.8357 468.846 74.304 468.279 74.6321C466.579 75.5057 464.658 75.8526 462.76 75.6283C460.901 75.5368 459.072 75.1222 457.355 74.4031C455.768 73.7706 454.318 72.8374 453.084 71.655L451.436 74.9069C452.81 76.2137 454.445 77.2164 456.233 77.8497C458.279 78.6644 460.446 79.1363 462.646 79.2466Z" fill="white"/>
<path d="M465.718 83.8055L463.611 83.7025L464.711 43.2021L466.817 43.3052L465.718 83.8055Z" fill="white"/>
<path d="M461.228 83.5877L459.121 83.4847L460.22 42.9844L462.339 43.0874L461.228 83.5877Z" fill="white"/>
</g>
<path d="M445.89 132.529L444.527 129.368L445.066 129.174L445.89 132.529Z" fill="#80C3DA"/>
<path d="M441.581 123.186C440.436 121.193 439.428 119.167 438.363 117.163L440.287 116.189C441.18 118.331 442.085 120.449 442.932 122.602L441.581 123.186Z" fill="#80C3DA"/>
<path d="M434.929 111.241C433.704 109.318 432.502 107.394 431.322 105.447L433.933 103.867C435.078 105.871 436.223 107.898 437.288 109.936L434.929 111.241Z" fill="#80C3DA"/>
<path d="M427.542 99.768L423.648 94.1572L426.408 92.1992L430.29 97.9474L427.542 99.768Z" fill="#80C3DA"/>
<path d="M419.603 88.6598L415.424 83.2551L417.989 81.1826L422.306 86.6101L419.603 88.6598Z" fill="#80C3DA"/>
<path d="M411.146 77.9317C409.62 76.2141 408.146 74.4775 406.727 72.7217L408.696 70.8896C410.299 72.5614 411.883 74.2446 413.448 75.9393L411.146 77.9317Z" fill="#80C3DA"/>
<path d="M402.169 67.6143C400.6 65.954 399.009 64.3165 397.463 62.6333L398.471 61.4883C400.234 62.9768 401.906 64.5112 403.703 66.0685L402.169 67.6143Z" fill="#80C3DA"/>
<path d="M392.582 57.7914L390.086 55.4326L392.949 57.3448L392.582 57.7914Z" fill="#80C3DA"/>
<path d="M439.192 0.447896L436.112 5.4861C436.05 5.58253 435.968 5.66453 435.872 5.72656L430.353 9.1617C430.246 9.2273 430.158 9.3191 430.097 9.42834C430.036 9.53758 430.004 9.66062 430.004 9.78575C430.004 9.91088 430.036 10.0339 430.097 10.1432C430.158 10.2524 430.246 10.3442 430.353 10.4098L436.215 13.9595C436.325 14.0227 436.415 14.1135 436.479 14.2228L439.272 18.9862C439.338 19.0928 439.43 19.1807 439.539 19.2418C439.648 19.3028 439.771 19.3348 439.896 19.3348C440.022 19.3348 440.145 19.3028 440.254 19.2418C440.363 19.1807 440.455 19.0928 440.521 18.9862L443.658 14.1427C443.711 14.0634 443.777 13.9937 443.853 13.9365L449.12 10.135C449.22 10.0623 449.3 9.96546 449.353 9.85348C449.405 9.7415 449.429 9.61803 449.421 9.49458C449.413 9.37112 449.373 9.2517 449.307 9.14745C449.24 9.04319 449.148 8.95749 449.04 8.89834L443.234 5.71511C443.107 5.63792 443.004 5.52691 442.937 5.3945L440.475 0.470797C440.413 0.355092 440.322 0.257926 440.211 0.189404C440.099 0.120883 439.971 0.0835094 439.84 0.0811715C439.709 0.0788337 439.58 0.111617 439.466 0.176111C439.352 0.240605 439.258 0.334453 439.192 0.447896Z" fill="#92D5E4"/>
<path d="M410.501 14.302L406.081 21.5272C406.005 21.6704 405.89 21.7894 405.749 21.8707L397.826 26.8746C397.671 26.9672 397.544 27.0981 397.455 27.2546C397.367 27.4111 397.32 27.5879 397.32 27.7677C397.32 27.9475 397.367 28.1243 397.455 28.2808C397.544 28.4373 397.671 28.5682 397.826 28.6608L406.207 33.6876C406.359 33.7805 406.486 33.9105 406.574 34.0655L410.604 40.9357C410.699 41.0872 410.831 41.212 410.987 41.2986C411.143 41.3852 411.319 41.4306 411.497 41.4306C411.676 41.4306 411.852 41.3852 412.008 41.2986C412.164 41.212 412.296 41.0872 412.391 40.9357L416.902 33.9739C416.971 33.8629 417.061 33.7659 417.165 33.6876L424.769 28.2601C424.912 28.1564 425.028 28.0182 425.104 27.8581C425.18 27.698 425.215 27.5213 425.204 27.3444C425.194 27.1674 425.139 26.9959 425.045 26.8457C424.951 26.6955 424.82 26.5716 424.666 26.4853L416.341 21.9051C416.15 21.8036 415.997 21.6429 415.906 21.4471L412.345 14.405C412.263 14.2348 412.138 14.0897 411.981 13.9847C411.824 13.8797 411.642 13.8188 411.454 13.8083C411.265 13.7978 411.077 13.838 410.91 13.9249C410.742 14.0117 410.601 14.1419 410.501 14.302Z" fill="#D4F0F5"/>
<g clip-path="url(#clip2_1744_16825)">
<path d="M235.003 36.4277C200.248 42.0156 166.842 54.2782 138.772 75.9837C97.6988 107.768 74.9136 155.209 72.542 206.843C70.9678 240.924 79.0842 274.143 88.8975 306.502C101.501 348.139 109.638 395.549 135.92 431.137C176.9 486.503 256.122 509.86 322.372 499.945C365.173 493.547 410.396 469.186 423.572 425.098C428.448 408.786 430.83 391.263 439.161 376.171C449.138 358.105 467.251 347.555 481 332.852C497.979 314.684 504.828 292.045 509.06 268.094C518.863 212.564 504.378 151.518 470.573 106.445C433.651 57.2105 373.728 39.237 315.135 34.1003C288.843 31.7933 261.54 32.1624 235.003 36.4277Z" fill="white" fill-opacity="0.25"/>
<path d="M474.966 412.825H422.772C417.55 412.825 413.316 417.071 413.316 422.309V483.325C413.316 488.563 417.55 492.809 422.772 492.809H474.966C480.189 492.809 484.422 488.563 484.422 483.325V422.309C484.422 417.071 480.189 412.825 474.966 412.825Z" fill="white"/>
<path d="M448.897 426.052C458.715 426.052 466.674 418.069 466.674 408.222C466.674 398.374 458.715 390.392 448.897 390.392C439.08 390.392 431.121 398.374 431.121 408.222C431.121 418.069 439.08 426.052 448.897 426.052Z" fill="#064565" stroke="#064565" stroke-width="0.842071" stroke-linecap="round" stroke-linejoin="round"/>
<path d="M445.872 432.664L421.145 445.419L431.98 488.174H467.308L477.663 445.419L451.76 432.9L445.872 432.664Z" fill="#1BA8BB" stroke="#064565" stroke-width="0.842071" stroke-linecap="round" stroke-linejoin="round"/>
<path d="M421.141 445.418L411.706 485.241C411.431 486.384 411.509 487.584 411.929 488.683C412.349 489.781 413.091 490.726 414.057 491.392L426.559 500.005H434.103L425.148 484.174L429.626 475.675L421.141 445.418Z" fill="#1BA8BB" stroke="#064565" stroke-width="0.842071" stroke-linecap="round" stroke-linejoin="round"/>
<path d="M477.659 445.418L487.104 485.241C487.378 486.384 487.301 487.584 486.881 488.683C486.461 489.781 485.719 490.726 484.753 491.392L472.251 500.005H464.707L473.662 484.174L469.184 475.623L477.659 445.418Z" fill="#1BA8BB" stroke="#064565" stroke-width="0.842071" stroke-linecap="round" stroke-linejoin="round"/>
<path d="M449.173 447.787C448.338 447.787 447.511 447.622 446.739 447.301C445.968 446.981 445.267 446.511 444.677 445.919C444.086 445.327 443.618 444.623 443.298 443.85C442.979 443.076 442.814 442.247 442.814 441.409V425.814H455.531V441.409C455.528 443.1 454.857 444.72 453.666 445.916C452.474 447.111 450.858 447.784 449.173 447.787Z" fill="white" stroke="#064565" stroke-width="0.842071" stroke-linecap="round" stroke-linejoin="round"/>
<path d="M442.857 435.782C444.184 437.131 445.876 438.061 447.723 438.458C448.358 438.529 448.996 438.56 449.635 438.55C450.334 438.56 451.034 438.529 451.73 438.458V438.396C453.213 438.013 454.55 437.2 455.574 436.059V425.806H442.857V435.782Z" fill="#064565" stroke="#064565" stroke-width="0.842071" stroke-linecap="round" stroke-linejoin="round"/>
<path d="M460.556 416.157L459.482 405.996C457.642 408.18 452.429 408.816 449.587 408.99C446.459 408.816 440.745 408.18 438.731 405.996L437.545 416.157C437.545 416.157 433.313 413.553 434.019 418.751C434.724 423.949 437.781 423.949 437.781 423.949C437.849 426.829 438.936 429.591 440.847 431.741C442.534 433.792 445.345 436.201 447.676 436.447C448.31 436.519 448.949 436.549 449.587 436.54C450.287 436.549 450.987 436.518 451.683 436.447V436.386C453.727 436.099 456.088 433.669 457.55 431.721C459.306 429.5 460.287 426.762 460.341 423.929C460.341 423.929 463.132 423.929 463.776 418.73C464.42 413.532 460.556 416.157 460.556 416.157Z" fill="white" stroke="#064565" stroke-width="0.842071" stroke-linecap="round" stroke-linejoin="round"/>
<path d="M478.365 506.834H420.436V508.721H478.365V506.834Z" fill="#92E3A9" stroke="#064565" stroke-width="0.842071" stroke-linecap="round" stroke-linejoin="round"/>
<path d="M478.377 506.834H420.438L414.652 474.947H484.163L478.377 506.834Z" fill="white" stroke="#064565" stroke-width="0.842071" stroke-linecap="round" stroke-linejoin="round"/>
<path d="M478.375 506.834L484.161 474.947L420.436 506.834H478.375Z" fill="#064565" stroke="#064565" stroke-width="0.842071" stroke-linecap="round" stroke-linejoin="round"/>
<path d="M393.59 412.825H258.78C253.558 412.825 249.324 417.071 249.324 422.309V483.325C249.324 488.563 253.558 492.809 258.78 492.809H393.59C398.812 492.809 403.045 488.563 403.045 483.325V422.309C403.045 417.071 398.812 412.825 393.59 412.825Z" fill="white"/>
<path d="M316.3 407.587C316.3 407.587 316.013 410.201 312.824 413.687C309.635 417.173 307.897 416.302 308.469 418.045C309.042 419.788 311.373 420.957 311.373 420.957C311.373 420.957 310.504 431.415 312.241 433.455C313.979 435.495 320.94 434.614 320.94 434.614C320.94 434.614 322.096 439.555 320.644 442.754C319.192 445.953 319.489 447.409 319.489 447.409C319.489 447.409 331.653 444.497 333.974 442.17C336.294 439.843 332.532 427.641 335.139 417.173C337.746 406.705 319.775 403.855 316.3 407.587Z" fill="white" stroke="#064565" stroke-width="0.842071" stroke-linecap="round" stroke-linejoin="round"/>
<path d="M364.687 482.576V442.169L369.042 431.998C369.042 431.998 371.649 424.442 371.649 422.699C371.649 420.956 370.493 421.243 369.328 423.57C368.163 425.898 368.173 427.343 367.008 428.512C365.71 429.66 364.344 430.728 362.919 431.711C362.919 431.711 363.215 426.769 363.215 425.898C363.215 425.026 361.764 424.729 360.895 426.472C360.026 428.215 361.478 427.343 359.443 431.127C357.409 434.91 358.574 441.595 358.574 441.595C358.574 441.595 352.492 467.176 351.041 471.534C349.589 475.891 350.172 481.418 356.837 484.319C363.502 487.221 364.687 482.576 364.687 482.576Z" fill="white" stroke="#064565" stroke-width="0.842071" stroke-linecap="round" stroke-linejoin="round"/>
<path d="M355.72 451.766C355.72 451.766 364.696 478.423 364.696 482.525C364.696 490.081 360.607 492.408 357.162 490.665C353.717 488.922 349.342 479.326 349.342 479.326C349.342 479.326 353.4 453.509 355.72 451.766Z" fill="#1BA8BB" stroke="#064565" stroke-width="0.842071" stroke-linecap="round" stroke-linejoin="round"/>
<path d="M281.524 474.15C281.524 474.15 283.844 475.021 288.189 473.863C292.533 472.704 307.314 469.474 307.314 469.474C307.314 469.474 305.863 475.001 307.028 477.615C308.194 480.23 313.397 487.212 313.397 487.212L309.737 508.743H352.67L348.806 491.006C348.806 491.006 356.054 452.926 355.768 451.767C355.481 450.609 347.069 441.596 343.879 440.428C340.69 439.259 329.098 439.853 329.098 439.853L304.759 447.697C304.759 447.697 284.407 459.324 280.655 461.938C276.903 464.553 275.431 471.238 281.524 474.15Z" fill="#1BA8BB" stroke="#064565" stroke-width="0.842071" stroke-linecap="round" stroke-linejoin="round"/>
<path d="M307.314 469.493L314.848 468.919" stroke="#064565" stroke-width="0.842071" stroke-linecap="round" stroke-linejoin="round"/>
<path d="M312.238 447.41C312.238 447.41 321.224 448.569 322.092 461.652" stroke="#064565" stroke-width="0.842071" stroke-linecap="round" stroke-linejoin="round"/>
<path d="M326.44 394.79C326.44 394.79 320.061 387.818 314.848 391.591C309.634 395.365 312.803 404.92 315.717 409.616C318.63 414.312 324.702 416.301 325.571 417.757C326.44 419.213 323.526 430.543 323.526 436.356C323.526 442.169 332.798 446.24 338.86 446.24C344.921 446.24 351.903 440.139 352.772 438.396C353.212 437.549 353.601 436.676 353.937 435.782C353.937 435.782 348.131 437.227 347.559 431.414C346.986 425.601 352.486 421.827 352.486 411.656C352.486 401.486 340.352 387.234 326.44 394.79Z" fill="#064565" stroke="#064565" stroke-width="0.842071" stroke-linecap="round" stroke-linejoin="round"/>
<path d="M333.132 415.849L324.086 411.254L315.445 428.368L324.491 432.963L333.132 415.849Z" fill="white" stroke="#064565" stroke-width="0.842071" stroke-linecap="round" stroke-linejoin="round"/>
<path d="M280.655 461.938C284.417 459.323 304.708 447.697 304.708 447.697L310.647 445.779C315.502 440.653 319.193 436.654 319.193 436.654C319.193 436.654 326.737 430.841 327.309 429.969C328.382 428.632 329.543 427.368 330.785 426.186C331.95 425.027 332.829 424.443 330.212 424.73C327.595 425.017 326.123 426.78 324.079 426.78C322.034 426.78 320.603 423.869 320.603 423.869C320.603 423.869 320.021 416.897 319.152 416.599C318.283 416.302 316.545 417.184 316.545 418.352C316.549 419.046 316.453 419.737 316.259 420.403C314.535 421.445 312.889 422.61 311.332 423.889C310.177 425.058 310.463 426.217 310.463 427.672V434.614C310.463 434.614 282.74 455.058 279.745 458.196C273.091 465.086 275.932 468.746 277.895 470.735C277.295 469.172 277.241 467.451 277.742 465.853C278.244 464.255 279.27 462.875 280.655 461.938Z" fill="white" stroke="#064565" stroke-width="0.842071" stroke-linecap="round" stroke-linejoin="round"/>
<path d="M230.402 412.824H95.5922C90.3701 412.824 86.1367 417.07 86.1367 422.308V483.324C86.1367 488.562 90.3701 492.808 95.5922 492.808H230.402C235.625 492.808 239.858 488.562 239.858 483.324V422.308C239.858 417.07 235.625 412.824 230.402 412.824Z" fill="white"/>
<path d="M175.273 480.494H79.9512V508.721H175.273V480.494Z" fill="#064565" stroke="#064565" stroke-width="0.842071" stroke-linecap="round" stroke-linejoin="round"/>
<path d="M134.947 468.663H123.018V481.305H134.947V468.663Z" fill="#064565" stroke="#064565" stroke-width="0.842071" stroke-linecap="round" stroke-linejoin="round"/>
<path d="M159.131 426.286H95.7539V470.374H159.131V426.286Z" fill="#064565" stroke="#064565" stroke-width="0.842071" stroke-linecap="round" stroke-linejoin="round"/>
<path d="M154.713 429.363H100.178V467.299H154.713V429.363Z" fill="white" stroke="#064565" stroke-width="0.842071" stroke-linecap="round" stroke-linejoin="round"/>
<path d="M151.105 478.383H95.875V480.772H151.105V478.383Z" fill="white" stroke="#064565" stroke-width="0.842071" stroke-linecap="round" stroke-linejoin="round"/>
<path d="M177.532 480.279H77.6914V483.694H177.532V480.279Z" fill="#064565" stroke="#064565" stroke-width="0.842071" stroke-linecap="round" stroke-linejoin="round"/>
<path d="M179.449 394.175C179.449 394.175 172.641 394.534 171.558 399.209C170.474 403.885 175.146 405.361 175.146 405.361C175.146 405.361 174.788 412.907 175.146 413.994C175.457 415.174 175.695 416.373 175.861 417.583C175.861 417.583 174.839 423.334 175.146 424.411C175.452 425.488 178.734 425.498 178.734 425.498C178.734 425.498 182.311 434.121 185.542 434.479C188.772 434.838 191.992 432.685 191.992 432.685L193.781 438.437C193.781 438.437 211.71 432.685 210.637 433.044C209.564 433.403 207.765 424.78 207.765 424.78C207.765 424.78 213.499 407.155 210.637 398.891C207.775 390.627 192.707 383.348 179.449 394.175Z" fill="white" stroke="#064565" stroke-width="0.842071" stroke-linecap="round" stroke-linejoin="round"/>
<path d="M190.918 420.422C190.527 420.498 190.159 420.668 189.847 420.919C189.536 421.169 189.29 421.491 189.13 421.857C189.13 421.857 199.157 426.533 202.745 426.174C204.475 425.945 206.17 425.508 207.795 424.872V424.739C207.795 424.739 213.53 407.114 210.668 398.85C207.805 390.586 192.707 383.347 179.449 394.174C179.449 394.174 172.641 394.533 171.558 399.209C170.474 403.884 175.146 405.36 175.146 405.36C175.146 405.36 177.66 406.796 178.734 406.437C179.759 405.961 180.72 405.359 181.596 404.643C181.596 404.643 178.376 410.795 179.449 411.471C180.522 412.148 183.395 414.711 183.395 414.711C183.395 414.711 184.826 417.941 185.899 416.505C186.973 415.07 186.462 414.844 187.33 413.265C187.639 412.808 188.076 412.452 188.586 412.242C189.096 412.033 189.656 411.98 190.196 412.09C190.736 412.199 191.232 412.467 191.62 412.859C192.009 413.25 192.273 413.749 192.38 414.291C193.096 417.182 192.401 420.063 190.918 420.422Z" fill="#064565" stroke="#064565" stroke-width="0.842071" stroke-linecap="round" stroke-linejoin="round"/>
<path d="M204.793 431.536L189.459 438.713L186.393 443.84L213.645 437.001L217.059 438.026C217.059 438.026 215.015 429.157 204.793 431.536Z" fill="#1BA8BB" stroke="#064565" stroke-width="0.842071" stroke-linecap="round" stroke-linejoin="round"/>
<path d="M177.533 477.347L176.235 508.721H229.206C230.331 501.472 236.454 460.153 232.099 452.063C231.23 450.433 217.114 438.047 217.114 438.047C217.114 438.047 212.34 435.31 207.914 436.684C203.487 438.058 190.536 442.148 190.536 442.148L170.378 454.093L156.752 479.726L133.578 476.301L130.174 481.428L160.155 497.494L177.533 477.347Z" fill="#1BA8BB" stroke="#064565" stroke-width="0.842071" stroke-linecap="round" stroke-linejoin="round"/>
<path d="M130.174 475.297L123.693 470.499C123.693 470.499 113.471 471.524 112.111 472.55C111.307 473.147 110.71 473.983 110.404 474.939L115.178 475.626L111.089 476.651V478.353L119.267 478.014L124.378 481.09L130.174 481.429L133.578 476.302L130.174 475.297Z" fill="white" stroke="#064565" stroke-width="0.842071" stroke-linecap="round" stroke-linejoin="round"/>
<path d="M235.336 508.721L240.447 482.412C240.583 481.713 240.563 480.993 240.388 480.303C240.214 479.614 239.889 478.971 239.437 478.422C238.986 477.873 238.419 477.431 237.777 477.128C237.135 476.825 236.434 476.669 235.724 476.67H199.793C198.698 476.668 197.635 477.042 196.781 477.731C195.928 478.419 195.335 479.38 195.101 480.453L188.896 508.721H235.336Z" fill="#064565" stroke="#064565" stroke-width="0.842071" stroke-linecap="round" stroke-linejoin="round"/>
<path d="M298.459 41.4424V87.222" stroke="#064565" stroke-width="0.842071" stroke-miterlimit="10" stroke-dasharray="2.53 2.53"/>
<path d="M298.667 89.8263L307.591 74.3135H289.732L298.667 89.8263Z" fill="#064565"/>
<path d="M292.523 336.995C360.715 336.995 415.996 281.547 415.996 213.149C415.996 144.75 360.715 89.3027 292.523 89.3027C224.33 89.3027 169.049 144.75 169.049 213.149C169.049 281.547 224.33 336.995 292.523 336.995Z" stroke="#064565" stroke-width="0.842071" stroke-miterlimit="10" stroke-dasharray="2.53 2.53"/>
<path d="M298.459 346.13V379.637" stroke="#064565" stroke-width="0.842071" stroke-miterlimit="10" stroke-dasharray="2.53 2.53"/>
<path d="M132.277 380.406V360.249H450.392V386.128" stroke="#064565" stroke-width="0.842071" stroke-miterlimit="10" stroke-dasharray="2.53 2.53"/>
<path d="M132.299 388.897L141.234 373.384H123.365L132.299 388.897Z" fill="#064565"/>
<path d="M298.667 388.897L307.591 373.384H289.732L298.667 388.897Z" fill="#064565"/>
<path d="M450.354 388.897L459.288 373.384H441.43L450.354 388.897Z" fill="#064565"/>
<path d="M393.781 168.691C393.781 168.691 351.921 163.267 295.076 104.559V103.759L294.677 104.159L294.289 103.759V104.559C237.443 163.267 195.573 168.691 195.573 168.691C180.659 291.635 284.25 333.764 294.289 337.578V337.865L294.677 337.722L295.076 337.865V337.578C305.145 333.795 408.736 291.635 393.781 168.691Z" fill="#064565"/>
<path d="M386.106 172.753C386.106 172.753 347.497 167.749 295.077 113.614V112.865L294.709 113.245C294.597 113.111 294.474 112.999 294.351 112.865V113.614C241.932 167.749 203.374 172.753 203.374 172.753C189.615 286.131 285.152 325 294.351 328.496V328.762L294.709 328.629L295.077 328.762V328.496C304.339 325 399.855 286.131 386.106 172.753Z" fill="white"/>
<path opacity="0.5" d="M367.206 182.697C367.206 182.697 336.591 178.719 295.007 135.79V135.226L294.721 135.523L294.435 135.226V135.82C252.861 178.75 222.245 182.728 222.245 182.728C211.318 272.616 287.085 303.446 294.424 306.215V306.42L294.711 306.317L294.997 306.42V306.215C302.347 303.446 378.103 272.616 367.206 182.697Z" fill="#1BA8BB"/>
<path d="M221.313 136.221C232.886 136.221 242.268 126.81 242.268 115.202C242.268 103.594 232.886 94.1836 221.313 94.1836C209.74 94.1836 200.357 103.594 200.357 115.202C200.357 126.81 209.74 136.221 221.313 136.221Z" fill="white" stroke="#064565" stroke-width="1.68414" stroke-miterlimit="10"/>
<path d="M223.302 109.707H218.027V103.884C218.03 103.183 218.309 102.512 218.803 102.016C219.297 101.521 219.966 101.241 220.665 101.238C221.364 101.238 222.035 101.517 222.53 102.013C223.024 102.509 223.302 103.182 223.302 103.884V109.707Z" fill="#064565"/>
<path d="M219.878 105.492C219.8 105.508 219.72 105.508 219.642 105.492L215.155 103.103C215.072 103.061 215.002 102.997 214.953 102.917C214.904 102.837 214.878 102.745 214.879 102.652V99.125C214.879 98.989 214.933 98.8586 215.029 98.7625C215.124 98.6663 215.254 98.6123 215.39 98.6123C215.526 98.6123 215.656 98.6663 215.751 98.7625C215.847 98.8586 215.901 98.989 215.901 99.125V102.201L220.113 104.467C220.173 104.498 220.226 104.541 220.269 104.593C220.313 104.645 220.345 104.705 220.365 104.77C220.385 104.835 220.392 104.903 220.386 104.971C220.379 105.039 220.359 105.104 220.327 105.164C220.293 105.257 220.232 105.338 220.152 105.396C220.072 105.455 219.976 105.488 219.878 105.492Z" fill="#064565"/>
<path d="M221.463 105.494C221.369 105.496 221.277 105.472 221.196 105.425C221.115 105.378 221.048 105.309 221.003 105.227C220.944 105.105 220.933 104.965 220.973 104.836C221.013 104.706 221.1 104.597 221.218 104.53L225.429 102.295V99.2187C225.429 99.0827 225.483 98.9523 225.579 98.8562C225.675 98.7601 225.805 98.7061 225.94 98.7061C226.076 98.7061 226.206 98.7601 226.302 98.8562C226.398 98.9523 226.452 99.0827 226.452 99.2187V102.653C226.453 102.746 226.429 102.837 226.382 102.917C226.335 102.996 226.267 103.061 226.186 103.105L221.698 105.494C221.621 105.509 221.541 105.509 221.463 105.494Z" fill="#064565"/>
<path d="M220.925 128.225C227.044 128.225 232.005 123.249 232.005 117.11C232.005 110.972 227.044 105.996 220.925 105.996C214.805 105.996 209.844 110.972 209.844 117.11C209.844 123.249 214.805 128.225 220.925 128.225Z" fill="white" stroke="#064565" stroke-width="0.842071" stroke-miterlimit="10"/>
<path d="M201.681 114.455C201.543 114.455 201.411 114.4 201.313 114.301C201.219 114.204 201.166 114.073 201.166 113.937C201.166 113.802 201.219 113.671 201.313 113.573L205.269 109.595C205.335 109.529 205.417 109.483 205.507 109.461C205.597 109.439 205.692 109.443 205.78 109.472L211.177 111.061C211.313 111.1 211.428 111.19 211.497 111.313C211.566 111.436 211.583 111.582 211.545 111.718C211.508 111.854 211.417 111.969 211.295 112.038C211.172 112.107 211.027 112.125 210.891 112.087L205.78 110.58L202.039 114.332C201.94 114.418 201.812 114.462 201.681 114.455Z" fill="#064565"/>
<path d="M202.464 121.067C202.344 121.067 202.228 121.023 202.137 120.944C202.034 120.855 201.97 120.729 201.959 120.593C201.947 120.457 201.989 120.322 202.076 120.216L204.979 116.771C205.026 116.714 205.085 116.667 205.153 116.635C205.22 116.603 205.293 116.587 205.368 116.587H209.845C209.98 116.587 210.11 116.641 210.206 116.737C210.302 116.833 210.356 116.964 210.356 117.1C210.356 117.236 210.302 117.366 210.206 117.462C210.11 117.558 209.98 117.612 209.845 117.612H205.603L202.853 120.873C202.807 120.932 202.748 120.981 202.681 121.014C202.614 121.048 202.54 121.066 202.464 121.067Z" fill="#064565"/>
<path d="M205.635 128.47H205.564C205.431 128.45 205.311 128.379 205.229 128.272C205.147 128.165 205.11 128.03 205.124 127.896L205.656 123.662C205.663 123.591 205.684 123.522 205.72 123.46C205.755 123.398 205.803 123.345 205.86 123.303L210.01 120.381C210.122 120.302 210.259 120.27 210.394 120.294C210.528 120.317 210.647 120.392 210.726 120.504C210.805 120.615 210.836 120.753 210.813 120.888C210.79 121.023 210.714 121.143 210.603 121.221L206.637 124.01L206.136 128.05C206.117 128.168 206.055 128.276 205.963 128.353C205.872 128.43 205.755 128.472 205.635 128.47Z" fill="#064565"/>
<path d="M240.184 114.453C240.046 114.452 239.913 114.397 239.816 114.299L236.074 110.546L230.963 112.105C230.898 112.125 230.83 112.132 230.762 112.126C230.694 112.119 230.628 112.099 230.568 112.067C230.508 112.034 230.455 111.99 230.412 111.937C230.37 111.883 230.338 111.822 230.319 111.756C230.3 111.692 230.295 111.624 230.302 111.557C230.309 111.49 230.33 111.425 230.362 111.366C230.394 111.307 230.438 111.255 230.49 111.213C230.542 111.171 230.602 111.139 230.667 111.121L236.085 109.48C236.173 109.451 236.267 109.447 236.358 109.469C236.448 109.491 236.53 109.537 236.596 109.603L240.552 113.571C240.646 113.669 240.699 113.799 240.699 113.935C240.699 114.071 240.646 114.201 240.552 114.299C240.504 114.348 240.446 114.387 240.383 114.413C240.32 114.44 240.252 114.453 240.184 114.453Z" fill="#064565"/>
<path d="M239.431 121.068C239.356 121.068 239.283 121.052 239.216 121.02C239.148 120.988 239.089 120.941 239.042 120.883L236.292 117.623H232.05C231.915 117.623 231.785 117.569 231.689 117.473C231.593 117.377 231.539 117.246 231.539 117.11C231.539 116.974 231.593 116.844 231.689 116.748C231.785 116.652 231.915 116.598 232.05 116.598H236.527C236.603 116.599 236.678 116.616 236.746 116.648C236.815 116.679 236.876 116.725 236.926 116.782L239.819 120.217C239.863 120.269 239.897 120.328 239.917 120.393C239.938 120.458 239.946 120.526 239.94 120.594C239.935 120.662 239.916 120.727 239.884 120.788C239.853 120.848 239.81 120.901 239.758 120.945C239.668 121.026 239.551 121.07 239.431 121.068Z" fill="#064565"/>
<path d="M236.232 128.471C236.107 128.472 235.985 128.426 235.891 128.343C235.797 128.26 235.736 128.145 235.721 128.02L235.22 124.011L231.254 121.171C231.199 121.132 231.152 121.082 231.116 121.025C231.08 120.968 231.056 120.904 231.044 120.837C231.033 120.771 231.035 120.702 231.05 120.636C231.065 120.57 231.092 120.508 231.131 120.453C231.17 120.398 231.22 120.351 231.277 120.315C231.334 120.279 231.397 120.254 231.464 120.243C231.53 120.231 231.598 120.233 231.664 120.248C231.73 120.263 231.792 120.291 231.847 120.33L235.936 123.313C235.993 123.354 236.042 123.406 236.079 123.466C236.115 123.526 236.14 123.592 236.15 123.662L236.672 127.897C236.689 128.031 236.653 128.167 236.57 128.275C236.488 128.382 236.366 128.453 236.232 128.471Z" fill="#064565"/>
<path d="M221.44 128.224H220.418V113.05L223.791 110.609L224.394 111.44L221.44 113.572V128.224Z" fill="#064565"/>
<path d="M221.42 121.273L220.971 120.36L226.491 117.592V112.619H227.513V118.228L221.42 121.273Z" fill="#064565"/>
<path d="M220.66 117.55L216.193 114.751V110.229H217.216V114.177L221.202 116.679L220.66 117.55Z" fill="#064565"/>
<path d="M220.649 125.22L214.607 121.364V117.376H215.63V120.8L221.201 124.348L220.649 125.22Z" fill="#064565"/>
<path d="M216.633 111.327C217.208 111.327 217.675 110.859 217.675 110.281C217.675 109.704 217.208 109.235 216.633 109.235C216.057 109.235 215.59 109.704 215.59 110.281C215.59 110.859 216.057 111.327 216.633 111.327Z" fill="#064565"/>
<path d="M224.295 112.004C224.87 112.004 225.337 111.536 225.337 110.958C225.337 110.38 224.87 109.912 224.295 109.912C223.719 109.912 223.252 110.38 223.252 110.958C223.252 111.536 223.719 112.004 224.295 112.004Z" fill="#064565"/>
<path d="M227.947 112.516C227.947 112.787 227.839 113.048 227.647 113.241C227.456 113.433 227.196 113.541 226.925 113.541C226.653 113.541 226.393 113.433 226.202 113.241C226.01 113.048 225.902 112.787 225.902 112.516C225.902 112.244 226.01 111.983 226.202 111.791C226.393 111.598 226.653 111.49 226.925 111.49C227.196 111.49 227.456 111.598 227.647 111.791C227.839 111.983 227.947 112.244 227.947 112.516Z" fill="#064565"/>
<path d="M216.171 117.223C216.171 117.425 216.111 117.624 215.999 117.792C215.887 117.961 215.727 118.092 215.54 118.17C215.354 118.247 215.148 118.268 214.95 118.228C214.751 118.189 214.569 118.091 214.426 117.948C214.283 117.804 214.186 117.621 214.147 117.423C214.107 117.224 214.127 117.018 214.205 116.83C214.282 116.643 214.413 116.483 214.581 116.37C214.749 116.257 214.947 116.197 215.149 116.197C215.42 116.197 215.68 116.305 215.872 116.498C216.064 116.69 216.171 116.951 216.171 117.223Z" fill="#064565"/>
<path d="M245.156 102.501C246.721 98.4517 244.717 93.8962 240.679 92.3263C236.642 90.7564 232.1 92.7666 230.535 96.8161C228.97 100.866 230.974 105.421 235.011 106.991C239.049 108.561 243.591 106.551 245.156 102.501Z" fill="white" stroke="#064565" stroke-width="1.68414" stroke-miterlimit="10"/>
<path d="M232.049 104.437L243.641 94.8711" stroke="#064565" stroke-width="1.68414" stroke-miterlimit="10"/>
<path d="M367.684 136.221C379.257 136.221 388.639 126.81 388.639 115.202C388.639 103.594 379.257 94.1836 367.684 94.1836C356.111 94.1836 346.729 103.594 346.729 115.202C346.729 126.81 356.111 136.221 367.684 136.221Z" fill="white"/>
<path d="M379.364 132.715L379.211 132.807" stroke="white" stroke-width="0.842071" stroke-miterlimit="10"/>
<path d="M356.342 132.807C359.739 135.048 363.714 136.245 367.78 136.252" stroke="white" stroke-width="0.842071" stroke-miterlimit="10"/>
<path d="M386.624 106.149C385.415 103.614 383.712 101.348 381.615 99.4844" stroke="white" stroke-width="0.842071" stroke-miterlimit="10"/>
<path d="M379.208 132.807C375.815 135.048 371.842 136.246 367.779 136.252" stroke="white" stroke-width="0.842071" stroke-miterlimit="10"/>
<path d="M379.359 132.714C381.89 131.001 384.021 128.759 385.605 126.142" stroke="white" stroke-width="0.842071" stroke-miterlimit="10"/>
<path d="M385.609 126.142C386.872 124.092 387.768 121.837 388.257 119.478" stroke="white" stroke-width="0.842071" stroke-miterlimit="10"/>
<path d="M356.34 132.806C353.73 131.089 351.53 128.813 349.9 126.142" stroke="white" stroke-width="0.842071" stroke-miterlimit="10"/>
<path d="M353.924 99.4859C357.746 96.0882 362.678 94.2133 367.785 94.2158" stroke="white" stroke-width="0.842071" stroke-miterlimit="10"/>
<path d="M381.651 99.4859C377.826 96.0858 372.89 94.2108 367.779 94.2158" stroke="white" stroke-width="0.842071" stroke-miterlimit="10"/>
<path d="M388.297 119.479C388.589 118.073 388.737 116.64 388.736 115.203C388.732 114.405 388.681 113.607 388.583 112.814" stroke="white" stroke-width="0.842071" stroke-miterlimit="10"/>
<path d="M386.629 106.148C387.641 108.245 388.291 110.498 388.551 112.813" stroke="white" stroke-width="0.842071" stroke-miterlimit="10"/>
<path d="M347.252 119.479C346.963 118.072 346.819 116.64 346.822 115.203C346.824 114.405 346.871 113.607 346.965 112.814" stroke="white" stroke-width="0.842071" stroke-miterlimit="10"/>
<path d="M353.919 99.4844C351.822 101.348 350.119 103.614 348.91 106.149" stroke="white" stroke-width="0.842071" stroke-miterlimit="10"/>
<path d="M348.887 106.148C347.879 108.247 347.23 110.499 346.965 112.813" stroke="white" stroke-width="0.842071" stroke-miterlimit="10"/>
<path d="M347.252 119.478C347.75 121.834 348.645 124.088 349.899 126.142" stroke="white" stroke-width="0.842071" stroke-miterlimit="10"/>
<path d="M367.779 99.4844H381.651" stroke="white" stroke-width="0.842071" stroke-miterlimit="10"/>
<path d="M353.902 99.4844H367.784" stroke="white" stroke-width="0.842071" stroke-miterlimit="10"/>
<path d="M386.66 106.148H348.889" stroke="white" stroke-width="0.842071" stroke-miterlimit="10"/>
<path d="M388.579 112.814H346.965" stroke="white" stroke-width="0.842071" stroke-miterlimit="10"/>
<path d="M379.359 119.478H388.294" stroke="white" stroke-width="0.842071" stroke-miterlimit="10"/>
<path d="M356.615 119.478H347.252" stroke="white" stroke-width="0.842071" stroke-miterlimit="10"/>
<path d="M379.362 119.478H356.617" stroke="white" stroke-width="0.842071" stroke-miterlimit="10"/>
<path d="M385.647 126.142H349.9" stroke="white" stroke-width="0.842071" stroke-miterlimit="10"/>
<path d="M379.211 132.807H379.364" stroke="white" stroke-width="0.842071" stroke-miterlimit="10"/>
<path d="M367.779 132.807H379.208" stroke="white" stroke-width="0.842071" stroke-miterlimit="10"/>
<path d="M356.618 132.807H356.342" stroke="white" stroke-width="0.842071" stroke-miterlimit="10"/>
<path d="M367.78 132.807H356.617" stroke="white" stroke-width="0.842071" stroke-miterlimit="10"/>
<path d="M367.779 99.4844V94.1836" stroke="white" stroke-width="0.842071" stroke-miterlimit="10"/>
<path d="M379.359 99.9971V106.149" stroke="white" stroke-width="0.842071" stroke-miterlimit="10"/>
<path d="M356.617 99.9971V106.149" stroke="white" stroke-width="0.842071" stroke-miterlimit="10"/>
<path d="M367.779 106.405V112.742" stroke="white" stroke-width="0.842071" stroke-miterlimit="10"/>
<path d="M379.359 119.478V113.347" stroke="white" stroke-width="0.842071" stroke-miterlimit="10"/>
<path d="M356.617 113.347V119.478" stroke="white" stroke-width="0.842071" stroke-miterlimit="10"/>
<path d="M367.779 119.733V126.07" stroke="white" stroke-width="0.842071" stroke-miterlimit="10"/>
<path d="M367.779 132.807V136.221" stroke="white" stroke-width="0.842071" stroke-miterlimit="10"/>
<path d="M379.359 132.715V126.676" stroke="white" stroke-width="0.842071" stroke-miterlimit="10"/>
<path d="M379.359 132.715V132.809" stroke="white" stroke-width="0.842071" stroke-miterlimit="10"/>
<path d="M356.617 126.676V132.807" stroke="white" stroke-width="0.842071" stroke-miterlimit="10"/>
<path d="M367.684 136.221C379.257 136.221 388.639 126.81 388.639 115.202C388.639 103.594 379.257 94.1836 367.684 94.1836C356.111 94.1836 346.729 103.594 346.729 115.202C346.729 126.81 356.111 136.221 367.684 136.221Z" stroke="#064565" stroke-width="1.68414" stroke-miterlimit="10"/>
<path d="M396.452 113.327C393.15 116.567 387.446 117.941 383 115.757C379.493 114.045 376.672 111.143 377.285 106.878C377.899 102.613 381.701 100.244 383.296 96.3892C385.003 92.288 385.116 85.8389 385.116 85.8389C385.116 85.8389 388.07 89.2121 388.407 91.2627C388.617 92.5064 388.733 93.7643 388.755 95.0255L390.973 89.0891C391.474 91.1397 391.852 93.2928 392.486 95.3126C393.61 98.8499 396.789 100.634 398.384 103.73C399.979 106.827 398.895 110.918 396.452 113.327Z" fill="#064565"/>
<path d="M388.092 115.367C388.092 115.367 384.749 112.886 385.393 109.43C386.037 105.975 388.194 105.329 388.194 105.329C388.915 105.979 389.482 106.782 389.855 107.679C390.228 108.577 390.397 109.546 390.351 110.517C390.267 112.37 389.454 114.113 388.092 115.367Z" fill="white" stroke="#064565" stroke-width="0.842071" stroke-linecap="round" stroke-linejoin="round"/>
<path d="M172.252 252.593C183.826 252.593 193.208 243.183 193.208 231.574C193.208 219.966 183.826 210.556 172.252 210.556C160.679 210.556 151.297 219.966 151.297 231.574C151.297 243.183 160.679 252.593 172.252 252.593Z" fill="white"/>
<path d="M172.25 252.593C181.187 252.593 188.432 243.183 188.432 231.574C188.432 219.966 181.187 210.556 172.25 210.556C163.313 210.556 156.068 219.966 156.068 231.574C156.068 243.183 163.313 252.593 172.25 252.593Z" stroke="white" stroke-width="0.842071" stroke-miterlimit="10"/>
<path d="M172.247 252.593C176.481 252.593 179.913 243.183 179.913 231.574C179.913 219.966 176.481 210.556 172.247 210.556C168.013 210.556 164.58 219.966 164.58 231.574C164.58 243.183 168.013 252.593 172.247 252.593Z" stroke="white" stroke-width="0.842071" stroke-miterlimit="10"/>
<path d="M161.33 213.631H182.827" stroke="white" stroke-width="0.842071" stroke-miterlimit="10"/>
<path d="M152.381 224.346H191.798" stroke="white" stroke-width="0.842071" stroke-miterlimit="10"/>
<path d="M151.297 235.05H192.871" stroke="white" stroke-width="0.842071" stroke-miterlimit="10"/>
<path d="M155.598 245.765H188.564" stroke="white" stroke-width="0.842071" stroke-miterlimit="10"/>
<path d="M172.252 252.593C183.826 252.593 193.208 243.183 193.208 231.574C193.208 219.966 183.826 210.556 172.252 210.556C160.679 210.556 151.297 219.966 151.297 231.574C151.297 243.183 160.679 252.593 172.252 252.593Z" stroke="#064565" stroke-width="1.68414" stroke-miterlimit="10"/>
<path d="M186.354 228.416C184.39 228.419 182.506 229.203 181.117 230.596C179.728 231.99 178.946 233.879 178.943 235.849V252.767H193.766V235.849C193.763 233.879 192.981 231.99 191.592 230.596C190.203 229.203 188.319 228.419 186.354 228.416ZM180.988 237.9V235.849C180.988 234.422 181.553 233.053 182.56 232.043C183.566 231.034 184.931 230.467 186.354 230.467C187.778 230.467 189.143 231.034 190.149 232.043C191.156 233.053 191.721 234.422 191.721 235.849V237.9H180.988Z" fill="#064565"/>
<path d="M188.317 243.56C188.314 243.193 188.211 242.833 188.022 242.519C187.832 242.204 187.562 241.947 187.239 241.774C186.916 241.6 186.553 241.517 186.187 241.532C185.821 241.548 185.466 241.661 185.159 241.862C184.851 242.062 184.604 242.341 184.441 242.67C184.278 243 184.207 243.367 184.234 243.733C184.261 244.099 184.386 244.452 184.596 244.753C184.805 245.055 185.091 245.294 185.424 245.446L184.883 249.948H187.632L187.091 245.446C187.456 245.286 187.767 245.022 187.985 244.687C188.203 244.352 188.319 243.96 188.317 243.56Z" fill="white"/>
<path d="M417.08 252.593C428.654 252.593 438.036 243.183 438.036 231.574C438.036 219.966 428.654 210.556 417.08 210.556C405.507 210.556 396.125 219.966 396.125 231.574C396.125 243.183 405.507 252.593 417.08 252.593Z" fill="white" stroke="#064565" stroke-width="1.68414" stroke-miterlimit="10"/>
<path d="M426.103 226.632H401.109V216.492H422.739L426.103 226.632Z" fill="white" stroke="#064565" stroke-width="0.842071" stroke-miterlimit="10"/>
<path d="M433.125 222.408H401.109V244.38H433.125V222.408Z" fill="white" stroke="#064565" stroke-width="0.842071" stroke-miterlimit="10"/>
<path d="M429.561 228.928C427.597 228.93 425.713 229.714 424.324 231.108C422.935 232.501 422.153 234.391 422.15 236.361V253.279H436.973V236.361C436.97 234.391 436.188 232.501 434.799 231.108C433.41 229.714 431.526 228.93 429.561 228.928ZM424.195 238.412V236.361C424.195 234.934 424.76 233.564 425.767 232.555C426.773 231.545 428.138 230.978 429.561 230.978C430.985 230.978 432.35 231.545 433.356 232.555C434.363 233.564 434.928 234.934 434.928 236.361V238.412H424.195Z" fill="#064565"/>
<path d="M431.604 244.072C431.602 243.704 431.5 243.344 431.31 243.029C431.121 242.714 430.85 242.456 430.527 242.282C430.203 242.108 429.839 242.024 429.472 242.04C429.106 242.056 428.75 242.17 428.443 242.371C428.136 242.572 427.888 242.853 427.726 243.183C427.564 243.513 427.493 243.881 427.522 244.248C427.55 244.615 427.677 244.968 427.888 245.269C428.099 245.57 428.387 245.808 428.722 245.959L428.18 250.46H430.92L430.378 245.959C430.743 245.799 431.054 245.535 431.272 245.2C431.49 244.865 431.606 244.473 431.604 244.072Z" fill="white"/>
<path d="M285.554 227.504C285.554 227.504 250.114 246.308 249.429 248.358C248.744 250.409 254.54 289.022 256.584 302.699C257.98 313.01 258.779 323.393 258.976 333.796V339.61H353.021C353.021 339.61 359.829 239.469 357.447 238.444C355.065 237.418 313.491 223.751 313.491 223.751L285.554 227.504Z" fill="white" stroke="#064565" stroke-width="0.842071" stroke-linecap="round" stroke-linejoin="round"/>
<path d="M322.556 269.94C322.556 269.94 318.784 269.459 313.663 264.168C308.552 269.459 304.77 269.94 304.77 269.94C303.42 281.024 312.753 284.828 313.663 285.166H313.735C314.563 284.828 323.906 281.024 322.556 269.94Z" fill="white"/>
<path d="M313.649 286.211H313.455C313.334 286.189 313.217 286.151 313.107 286.099C309.931 284.861 307.268 282.578 305.555 279.624C303.843 276.669 303.182 273.218 303.682 269.837C303.71 269.61 303.813 269.399 303.974 269.238C304.135 269.076 304.345 268.973 304.572 268.945C304.572 268.945 308.057 268.381 312.749 263.573C312.835 263.449 312.946 263.346 313.075 263.268C313.203 263.19 313.347 263.14 313.495 263.122C313.675 263.09 313.86 263.111 314.027 263.183C314.247 263.274 314.432 263.432 314.559 263.634C319.22 268.392 322.655 268.945 322.736 268.945C322.959 268.977 323.164 269.082 323.322 269.244C323.479 269.405 323.578 269.613 323.605 269.837C324.107 273.213 323.45 276.659 321.743 279.612C320.037 282.564 317.381 284.848 314.211 286.088C314.038 286.179 313.844 286.221 313.649 286.211ZM305.645 270.77C305.357 273.559 305.98 276.367 307.42 278.77C308.86 281.174 311.038 283.044 313.628 284.099C316.217 283.042 318.395 281.171 319.836 278.769C321.277 276.366 321.904 273.56 321.622 270.77C320.252 270.36 317.288 269.14 313.628 265.582C309.969 269.14 307.015 270.36 305.645 270.77Z" fill="#064565"/>
<path d="M287.927 247.887C287.927 247.887 287.252 281.137 287.927 298.219C288.601 315.3 290.656 339.579 290.656 339.579" stroke="#064565" stroke-width="0.842071" stroke-linecap="round" stroke-linejoin="round"/>
<path d="M291.008 261.307C291.759 261.307 292.368 260.697 292.368 259.944C292.368 259.191 291.759 258.58 291.008 258.58C290.257 258.58 289.648 259.191 289.648 259.944C289.648 260.697 290.257 261.307 291.008 261.307Z" stroke="#064565" stroke-width="0.842071" stroke-linecap="round" stroke-linejoin="round"/>
<path d="M291.008 293.091C291.759 293.091 292.368 292.48 292.368 291.727C292.368 290.974 291.759 290.363 291.008 290.363C290.257 290.363 289.648 290.974 289.648 291.727C289.648 292.48 290.257 293.091 291.008 293.091Z" fill="white" stroke="#064565" stroke-width="0.842071" stroke-linecap="round" stroke-linejoin="round"/>
<path d="M294.07 316.704C294.072 316.976 293.993 317.243 293.843 317.471C293.693 317.698 293.479 317.876 293.229 317.981C292.978 318.086 292.702 318.114 292.435 318.062C292.168 318.009 291.923 317.878 291.731 317.685C291.539 317.492 291.408 317.247 291.356 316.979C291.303 316.712 291.331 316.435 291.436 316.183C291.541 315.932 291.718 315.717 291.945 315.567C292.172 315.417 292.438 315.338 292.71 315.34C293.07 315.343 293.414 315.487 293.668 315.742C293.923 315.997 294.067 316.343 294.07 316.704Z" fill="white" stroke="#064565" stroke-width="0.842071" stroke-linecap="round" stroke-linejoin="round"/>
<path d="M330.533 325.932L319.963 331.407C319.963 331.407 306.674 322.856 302.248 322.518C297.822 322.179 292.363 322.856 289.296 325.594C286.23 328.331 284.533 330.382 281.118 330.382C277.704 330.382 273.626 330.72 275.67 333.458C277.715 336.195 284.87 336.185 287.599 335.16C290.329 334.134 294.407 333.109 294.407 333.109C295.839 335.076 297.875 336.517 300.203 337.21C302.652 337.845 305.167 338.189 307.696 338.236C307.696 338.236 314.177 342.337 318.266 341.998C320.724 341.796 323.137 341.219 325.421 340.286L338.025 336.534C338.025 336.534 334.621 328.3 330.533 325.932Z" fill="#ABABAB" stroke="#064565" stroke-width="0.842071" stroke-linecap="round" stroke-linejoin="round"/>
<path d="M299.178 319.78C299.178 319.78 295.09 317.391 293.045 319.78C291.001 322.168 290.316 334.482 291.338 335.846C292.36 337.21 293.045 334.134 294.405 333.108C295.764 332.083 299.178 319.78 299.178 319.78Z" fill="#ABABAB" stroke="#064565" stroke-width="0.842071" stroke-linecap="round" stroke-linejoin="round"/>
<path d="M306.335 321.124C306.335 321.124 301.224 318.048 299.179 319.75C297.135 321.452 293.383 335.129 294.406 336.503C295.428 337.877 298.494 336.503 298.842 334.791C299.19 333.079 304.975 324.199 304.975 324.199L306.335 321.124Z" fill="#ABABAB" stroke="#064565" stroke-width="0.842071" stroke-linecap="round" stroke-linejoin="round"/>
<path d="M314.512 326.588C314.512 326.588 308.041 320.436 306.334 321.123C304.627 321.81 295.09 336.154 297.471 337.866C299.853 339.578 308.041 329.325 308.041 329.325L311.108 331.714" fill="#ABABAB"/>
<path d="M314.512 326.588C314.512 326.588 308.041 320.436 306.334 321.123C304.627 321.81 295.09 336.154 297.471 337.866C299.853 339.578 308.041 329.325 308.041 329.325L311.108 331.714" stroke="#064565" stroke-width="0.842071" stroke-linecap="round" stroke-linejoin="round"/>
<path d="M323.381 334.453C323.381 334.453 317.247 324.538 315.203 324.538C313.158 324.538 301.566 335.16 301.566 335.16C301.566 335.16 304.981 337.898 306.003 337.211L312.811 332.771C312.811 332.771 313.833 338.236 317.585 339.261" fill="#ABABAB"/>
<path d="M323.381 334.453C323.381 334.453 317.247 324.538 315.203 324.538C313.158 324.538 301.566 335.16 301.566 335.16C301.566 335.16 304.981 337.898 306.003 337.211L312.811 332.771C312.811 332.771 313.833 338.236 317.585 339.261" stroke="#064565" stroke-width="0.842071" stroke-linecap="round" stroke-linejoin="round"/>
<path d="M351.994 237.388C351.994 237.388 359.824 237.388 360.509 240.802C361.194 244.216 361.869 251.742 361.869 251.742C361.869 251.742 391.86 322.149 390.838 325.225C389.816 328.301 344.154 343.363 342.794 343.363C341.434 343.363 330.527 325.933 330.527 325.933L352.669 311.927L341.087 280.819" fill="white"/>
<path d="M351.994 237.388C351.994 237.388 359.824 237.388 360.509 240.802C361.194 244.216 361.869 251.742 361.869 251.742C361.869 251.742 391.86 322.149 390.838 325.225C389.816 328.301 344.154 343.363 342.794 343.363C341.434 343.363 330.527 325.933 330.527 325.933L352.669 311.927L341.087 280.819" stroke="#064565" stroke-width="0.842071" stroke-linecap="round" stroke-linejoin="round"/>
<path d="M347.565 259.287C347.565 259.287 337.691 267.838 337.006 278.768" stroke="#064565" stroke-width="0.842071" stroke-linecap="round" stroke-linejoin="round"/>
<path d="M339.386 258.919C339.386 258.919 333.938 267.49 333.938 277.743" stroke="#064565" stroke-width="0.842071" stroke-linecap="round" stroke-linejoin="round"/>
<path d="M352.672 311.895C352.672 311.895 359.153 306.082 361.872 306.082C364.591 306.082 370.734 307.446 372.094 313.259" stroke="#064565" stroke-width="0.842071" stroke-linecap="round" stroke-linejoin="round"/>
<path d="M357.111 305.425C357.111 305.425 366.311 299.96 369.378 302.349C371.429 304.133 373.056 306.354 374.141 308.85" stroke="#064565" stroke-width="0.842071" stroke-linecap="round" stroke-linejoin="round"/>
<path d="M249.427 248.326L239.205 313.945C239.205 313.945 227.961 322.148 232.049 334.451C233.665 339.311 238.183 341.628 258.975 339.578C260.027 327.18 260.027 314.716 258.975 302.318C257.268 280.449 249.427 248.326 249.427 248.326Z" fill="white" stroke="#064565" stroke-width="0.842071" stroke-linecap="round" stroke-linejoin="round"/>
<path d="M247.067 322.764C247.067 322.764 254.069 322.918 254.56 323.738C255.05 324.559 255.05 335.498 253.425 336.647C251.8 337.795 250.655 338.277 250.001 336.647C249.346 335.017 248.212 331.582 248.212 331.582C248.212 331.582 243.816 336.483 239.574 335.498C235.332 334.514 234.851 332.566 233.553 332.074C232.255 331.582 230.486 332.238 227.522 331.049C224.558 329.859 221.389 325.492 221.389 325.492C221.389 325.492 213.569 332.361 211.943 331.541C210.318 330.721 212.107 328.106 214.714 325.328C217.32 322.549 219.109 319.781 221.716 319.124C224.322 318.468 234.739 317.166 238 318.099C241.261 319.032 244.031 320.55 244.348 321.042C245.181 321.724 246.094 322.303 247.067 322.764Z" fill="#ABABAB" stroke="#064565" stroke-width="0.842071" stroke-linecap="round" stroke-linejoin="round"/>
<path d="M225.731 317.043C225.731 317.043 221.336 316.222 220.845 319.165C220.355 322.108 221.499 333.519 222.634 334.544C222.997 334.782 223.41 334.932 223.84 334.985C224.27 335.037 224.706 334.991 225.116 334.848C225.525 334.706 225.897 334.471 226.202 334.163C226.507 333.854 226.738 333.48 226.876 333.068C227.52 331.11 227.357 320.816 227.357 320.816C227.357 320.816 227.847 318.027 225.731 317.043Z" fill="#ABABAB" stroke="#064565" stroke-width="0.842071" stroke-linecap="round" stroke-linejoin="round"/>
<path d="M233.883 318.836C233.883 318.836 227.361 314.735 225.705 317.042C224.049 319.349 225.869 333.211 226.728 335.005C227.586 336.799 230.632 337.456 231.287 335.497C231.941 333.539 232.104 325.367 232.258 324.885" fill="#ABABAB"/>
<path d="M233.883 318.836C233.883 318.836 227.361 314.735 225.705 317.042C224.049 319.349 225.869 333.211 226.728 335.005C227.586 336.799 230.632 337.456 231.287 335.497C231.941 333.539 232.104 325.367 232.258 324.885" stroke="#064565" stroke-width="0.842071" stroke-linecap="round" stroke-linejoin="round"/>
<path d="M237.622 321.123C237.459 321.616 237.622 335.99 235.67 336.975C233.717 337.959 230.947 338 230.947 331.417C230.947 324.835 231.274 316.879 233.063 316.222C234.852 315.566 239.902 318.345 241.701 319.985" fill="#ABABAB"/>
<path d="M237.622 321.123C237.459 321.616 237.622 335.99 235.67 336.975C233.717 337.959 230.947 338 230.947 331.417C230.947 324.835 231.274 316.879 233.063 316.222C234.852 315.566 239.902 318.345 241.701 319.985" stroke="#064565" stroke-width="0.842071" stroke-linecap="round" stroke-linejoin="round"/>
<path d="M248.212 331.582L246.74 325.051" stroke="#064565" stroke-width="0.842071" stroke-linecap="round" stroke-linejoin="round"/>
<path d="M276.625 227.358V245.998L286.05 239.242L276.625 227.358Z" fill="#BABABA" stroke="#064565" stroke-width="0.842071" stroke-linecap="round" stroke-linejoin="round"/>
<path d="M287.931 247.885L276.625 227.359L287.665 219.525L287.931 247.885Z" fill="white" stroke="#064565" stroke-width="0.842071" stroke-linecap="round" stroke-linejoin="round"/>
<path d="M284.41 214.943C284.41 214.943 286.557 233.573 287.099 238.976C287.64 244.38 287.906 247.886 287.906 247.886C287.906 247.886 304.599 228.406 307.829 224.12C311.059 219.834 311.918 218.45 311.918 218.45L312.726 198.467L284.41 214.943Z" fill="#ABABAB" stroke="#064565" stroke-width="0.842071" stroke-linecap="round" stroke-linejoin="round"/>
<path d="M284.88 218.85C286.498 220.086 288.393 220.905 290.399 221.238C292.406 221.57 294.462 221.405 296.391 220.757C303.495 218.112 305.591 213.58 307.155 212.011C308.177 210.986 310.323 209.571 312.317 207.91L312.705 198.467L284.41 214.943C284.41 214.943 284.604 216.502 284.88 218.85Z" fill="#064565" stroke="#064565" stroke-width="0.842071" stroke-linecap="round" stroke-linejoin="round"/>
<path d="M295.47 230.6L287.926 247.886L301.123 239.243L295.47 230.6Z" fill="#BABABA" stroke="#064565" stroke-width="0.842071" stroke-linecap="round" stroke-linejoin="round"/>
<path d="M295.469 230.6L301.663 247.354L319.971 223.587L314.584 212.504L295.469 230.6Z" fill="white" stroke="#064565" stroke-width="0.842071" stroke-linecap="round" stroke-linejoin="round"/>
<path d="M276.394 144.013C271.091 147.943 267.298 153.583 265.651 159.987C263.167 170.435 268.421 181.774 268.809 185.271C269.198 188.767 267.705 193.319 269.351 197.636C270.997 201.952 278.275 208.791 279.44 211.99C280.606 215.189 287.127 220.951 294.222 218.347C301.316 215.743 303.544 211.17 305.159 209.591C306.774 208.012 311.293 205.367 313.48 202.414C315.668 199.461 317.048 197.349 317.048 197.349C317.048 197.349 322.793 183.189 323.283 170.568C323.774 157.947 316.312 143.623 302.215 139.696C288.119 135.769 276.394 144.013 276.394 144.013Z" fill="#ABABAB" stroke="#064565" stroke-width="0.842071" stroke-linecap="round" stroke-linejoin="round"/>
<path opacity="0.5" d="M264.987 177.972C264.987 177.972 265.181 186.307 268.197 188.491C271.212 190.675 277.714 190.542 280.341 189.445C282.968 188.348 284.491 182.78 285.595 181.242C286.699 179.705 290.287 180.494 290.287 180.494C290.287 180.494 292.853 187.774 294.887 188.604C296.921 189.435 303.351 190.86 307.849 188.502C312.346 186.143 313.226 177.018 313.226 177.018C313.226 177.018 315.842 176.516 315.117 175.162C314.391 173.809 294.437 173.83 292.076 174.609C289.714 175.388 289.408 176.454 288.12 176.434C286.832 176.413 285.053 175.05 283.765 175.039C282.477 175.029 264.578 175.337 264.578 175.337L264.987 177.972Z" fill="white"/>
<path d="M302.22 139.77C288.123 135.832 276.399 144.014 276.399 144.014C272.043 147.253 268.679 151.65 266.688 156.707C267.25 155.375 269.56 150.453 273.843 149.346C278.821 148.064 278.893 152.637 285.179 151.099C291.466 149.561 301.238 144.588 305.552 147.059C309.866 149.53 313.28 154.677 311.522 160.019C309.764 165.361 309.59 169.401 311.358 170.764C313.127 172.128 315.274 176.455 315.447 179.141C315.58 181.356 318.514 182.863 321.581 182.463C322.488 178.58 323.049 174.624 323.257 170.641C323.789 158.03 316.316 143.696 302.22 139.77Z" fill="#064565" stroke="#064565" stroke-width="0.842071" stroke-linecap="round" stroke-linejoin="round"/>
<path d="M281.538 191.074C281.538 191.074 279.882 193.473 281.395 194.56C281.754 194.943 282.238 195.184 282.759 195.241C283.28 195.297 283.804 195.165 284.237 194.868" stroke="#064565" stroke-width="0.842071" stroke-linecap="round" stroke-linejoin="round"/>
<path d="M283.256 193.515C284.411 194.53 285.828 195.198 287.345 195.442C289.665 195.74 292.088 193.392 292.088 193.392" stroke="#064565" stroke-width="0.842071" stroke-linecap="round" stroke-linejoin="round"/>
<path d="M291.244 194.417C291.244 194.417 291.98 195.503 294.106 194.181C294.106 194.181 296.989 193.412 295.302 190.172" stroke="#064565" stroke-width="0.842071" stroke-linecap="round" stroke-linejoin="round"/>
<path d="M281.691 200.208C281.691 200.208 289.603 203.284 296.524 198.783" stroke="#064565" stroke-width="0.842071" stroke-linecap="round" stroke-linejoin="round"/>
<path d="M300.817 181.774C300.766 183.189 300.081 184.317 299.294 184.307C298.507 184.296 297.914 183.148 297.975 181.743C298.036 180.339 298.711 179.201 299.498 179.211C300.285 179.221 300.878 180.339 300.817 181.774Z" fill="#064565"/>
<path d="M280.592 181.929C280.541 183.343 279.856 184.471 279.069 184.461C278.282 184.451 277.689 183.302 277.75 181.898C277.812 180.493 278.486 179.355 279.274 179.365C280.061 179.376 280.654 180.524 280.592 181.929Z" fill="#064565"/>
<path d="M264.987 177.972C264.987 177.972 265.181 186.307 268.197 188.491C271.212 190.675 277.714 190.542 280.341 189.445C282.968 188.348 284.491 182.78 285.595 181.242C286.699 179.705 290.287 180.494 290.287 180.494C290.287 180.494 292.853 187.774 294.887 188.604C296.921 189.435 303.351 190.86 307.849 188.502C312.346 186.143 313.226 177.018 313.226 177.018C313.226 177.018 315.842 176.516 315.117 175.162C314.391 173.809 294.437 173.83 292.076 174.609C289.714 175.388 289.408 176.454 288.12 176.434C286.832 176.413 285.053 175.05 283.765 175.039C282.477 175.029 264.578 175.337 264.578 175.337L264.987 177.972Z" stroke="#064565" stroke-width="0.842071" stroke-linecap="round" stroke-linejoin="round"/>
<path d="M315.074 175.11L323.467 179.242L322.894 180.575L313.193 176.966L315.074 175.11Z" fill="#064565" stroke="#064565" stroke-width="0.842071" stroke-linecap="round" stroke-linejoin="round"/>
<path d="M292.033 174.557C289.672 175.326 289.365 176.403 288.077 176.382C286.789 176.362 285.01 174.998 283.722 174.988C282.434 174.978 264.535 175.285 264.535 175.285L264.78 176.885L283.538 176.598C283.538 176.598 286.278 176.372 285.92 178.505C285.409 181.478 285.552 181.191 285.552 181.191C286.646 179.592 290.244 180.443 290.244 180.443L290.5 181.13C290.326 179.776 290.183 177.654 290.898 176.957C291.982 175.931 296.888 176.229 301.304 176.013C305.282 176.024 309.253 176.343 313.183 176.967L314.982 175.009C313.377 173.758 294.333 173.799 292.033 174.557Z" fill="#064565" stroke="#064565" stroke-width="0.842071" stroke-linecap="round" stroke-linejoin="round"/>
<path d="M315.494 184.246C315.494 184.246 321.791 175.726 324.827 177.643C327.863 179.561 325.44 188.399 323.467 192.397C321.495 196.396 316.792 197.421 315.883 194.192" fill="#ABABAB"/>
<path d="M315.494 184.246C315.494 184.246 321.791 175.726 324.827 177.643C327.863 179.561 325.44 188.399 323.467 192.397C321.495 196.396 316.792 197.421 315.883 194.192" stroke="#064565" stroke-width="0.842071" stroke-linecap="round" stroke-linejoin="round"/>
<path d="M276.545 339.228H197.497L187.561 284.211H266.609L276.545 339.228Z" fill="#064565" stroke="#064565" stroke-width="0.842071" stroke-linecap="round" stroke-linejoin="round"/>
<path d="M273.48 339.228H194.432L184.496 284.211H263.544L273.48 339.228Z" fill="white" stroke="#064565" stroke-width="0.842071" stroke-linecap="round" stroke-linejoin="round"/>
<path d="M197.498 339.228H273.48L266.16 298.698L197.498 339.228Z" fill="#064565" stroke="#064565" stroke-width="0.842071" stroke-linecap="round" stroke-linejoin="round"/>
<path d="M318.715 339.229H194.434V342.561H318.715V339.229Z" fill="#92E3A9" stroke="#064565" stroke-width="0.842071" stroke-linecap="round" stroke-linejoin="round"/>
<path d="M318.711 339.229H274.541V342.561H318.711V339.229Z" fill="#064565" stroke="#064565" stroke-width="0.842071" stroke-linecap="round" stroke-linejoin="round"/>
</g>
</g>
</g>
<defs>
<clipPath id="clip0_1744_16825">
<rect x="0.519531" y="0.0820312" width="599.75" height="521.837" rx="25.3671" fill="white"/>
</clipPath>
<clipPath id="clip1_1744_16825">
<rect width="934.958" height="521.763" fill="white" transform="translate(-334.688 0.0810547)"/>
</clipPath>
<clipPath id="clip2_1744_16825">
<rect width="454.795" height="476.539" fill="white" transform="translate(58.502 32.6953)"/>
</clipPath>
</defs>
</svg>
