<svg width="553" height="494" viewBox="0 0 553 494" fill="none" xmlns="http://www.w3.org/2000/svg">
<g clip-path="url(#clip0_1744_17725)">
<path d="M350.627 244.626C342.526 237.043 331.591 225.943 331.635 214.16C331.65 207.815 335.528 202.255 339.978 198.053C344.981 193.224 350.842 189.578 356.125 185.215C357.729 183.748 358.929 181.893 359.612 179.828C363.565 166.863 352.005 148.829 353.623 134.958C354.125 130.061 357.17 125.116 362.101 123.683C365.432 122.807 368.793 124.195 371.499 125.961C375.404 128.5 378.684 131.888 382.097 134.937C383.205 135.95 384.365 136.904 385.574 137.794C386.713 138.588 388 139.405 389.357 139.584C400.193 141.159 391.231 85.9016 407.516 79.5627C409.732 78.6759 412.262 78.7362 414.513 79.4748C423.235 82.6182 422.599 96.9882 422.272 104.601C421.393 119.895 417.754 134.864 416.304 150.067C416.174 151.557 416.129 153.053 416.169 154.548C416.218 156.012 416.411 157.465 417.059 158.526C418.523 160.926 422.135 159.098 424.187 158.21C431.849 154.631 441.445 146.933 450.335 149.261C452.801 149.991 454.947 151.533 456.426 153.636C460.494 159.962 453.698 168.442 449.8 173.236C441.853 182.635 432.449 190.601 423.681 199.158C421.536 201.361 414.133 208.249 414.626 211.061C415.173 212.813 417.14 212.242 418.531 211.821C421.385 210.88 424.198 209.455 427.187 208.654C432.711 207.066 437.332 208.511 440.176 213.684C440.946 215.097 441.568 216.586 442.03 218.127C443.588 223.107 440.519 228.039 437.026 231.327C421.522 246.784 368.212 260.321 350.63 244.625L350.627 244.626ZM350.782 244.464C355.38 248.556 361.613 250.142 367.599 250.809C387.309 252.63 411.921 245.992 428.643 235.527C433.864 232.069 442.034 225.855 439.982 218.768C439.121 216.136 437.836 213.316 435.604 211.663C428.77 206.684 418.609 217.533 413.735 213.832C410.243 210.903 413.512 206.762 415.588 204.187C419.604 199.428 424.166 195.34 428.65 191.092C435.454 184.378 457.286 166.13 455.333 156.588C455.07 155.286 454.236 154.209 453.26 153.345C451.738 151.934 449.775 151.093 447.704 150.963C442.483 150.731 437.735 153.316 433.165 155.664C430.479 157.087 427.838 158.638 424.999 159.967C423.525 160.638 422.049 161.251 420.406 161.51C415.861 162.24 414.386 158.439 414.399 154.613C414.345 149.943 415.141 145.353 415.845 140.783C418.225 125.739 421.878 110.728 421.481 95.4295C421.156 89.5266 420.004 81.3817 413.209 79.8686C410.7 79.3105 407.923 79.6945 405.868 81.3052C398.241 87.1398 397.801 106.537 397.079 115.775C396.662 121.914 396.513 128.045 395.279 134.119C394.354 138.674 392.011 142.823 386.781 140.266C384.65 139.206 382.826 137.653 381.051 136.139C378.721 134.12 376.495 132.026 374.152 130.134C371.875 128.313 369.397 126.517 366.618 125.691C362.236 124.286 358.53 127.261 356.74 131.097C355.541 133.753 355.372 136.706 355.573 139.6C356.367 152.128 365.196 168.34 361.167 180.378C360.348 182.675 358.955 184.723 357.119 186.328C349.423 192.47 340.154 197.145 334.821 205.661C326.233 219.944 340.911 235.173 350.787 244.467L350.782 244.464Z" fill="white"/>
<path d="M377.937 225.487C377.065 221.158 377.004 216.679 377.401 212.289C377.702 207.876 379.101 203.63 380.194 199.392C381.288 195.153 382.042 190.806 383.123 186.553C384.851 180.186 387.091 173.945 390.109 168.07C391.787 164.807 393.599 161.61 395.773 158.643L395.971 158.752C393.829 164.205 391.671 169.568 389.584 174.968C387.703 179.595 385.092 186.426 383.32 191.183C382.292 193.903 381.484 196.702 380.904 199.551C380.082 203.815 379.999 208.207 379.407 212.499C379.244 213.883 379.072 215.411 378.936 216.798C378.714 218.953 378.533 221.121 378.349 223.286C378.297 224.013 378.242 224.741 378.159 225.474L377.931 225.487H377.937Z" fill="#81B9E3"/>
<path d="M183.626 376.115C179.636 360.181 172.533 345.007 162.637 331.892C141.095 303.396 104.51 281.029 68.019 282.43C50.7236 283.307 34.4566 290.865 26.367 306.813C22.3368 314.606 20.77 323.335 26.1587 330.916C35.8428 344.503 61.9713 351.198 77.6721 355.775C101.466 362.626 126.2 367.49 148.326 379.077C151.99 381.082 155.524 383.361 158.724 386.062C161.925 388.763 164.8 391.946 166.814 395.662L165.88 395.561C170.811 390.105 178.61 381.598 183.629 376.113L183.626 376.115ZM183.846 376.171C178.992 381.905 171.576 390.688 166.739 396.322L166.215 396.936C164.152 393.13 161.171 389.892 157.789 387.19C151.38 382.11 143.868 378.594 136.289 375.589C117.05 368.149 96.8874 363.774 77.0148 358.098C61.3351 353.414 41.033 347.913 28.7945 336.796C23.0511 331.513 19.9516 324.393 21.4387 316.56C22.0635 312.89 23.5246 309.484 25.246 306.221C28.0005 301.177 31.6565 296.592 36.1682 293.019C48.436 283.071 65.0529 280.546 80.4088 281.883C109.477 284.534 136.802 299.558 156.171 321.173C170.074 336.597 179.882 355.767 183.846 376.167V376.171Z" fill="white"/>
<path d="M59.2363 310.641C67.3894 309.534 75.7442 309.464 83.8842 310.732C91.9998 312.264 99.8877 314.552 107.792 316.914C112.237 318.299 116.547 320.083 120.67 322.246C125.752 324.834 130.529 327.983 134.911 331.632C139.696 335.573 144.013 340.05 147.778 344.974L147.615 345.127C142.306 340.321 136.95 335.679 131.097 331.585C125.753 327.76 120.141 324.275 114.259 321.335C108.35 318.364 102.25 315.675 95.7566 314.267C91.7704 313.369 87.6898 312.996 83.6467 312.619C78.9429 312.163 73.1458 311.631 68.4486 311.391C65.5069 311.228 62.1943 311.077 59.251 310.873L59.2428 310.645L59.2363 310.641Z" fill="white"/>
<path d="M179.948 276.312C179.503 276.319 179.063 276.404 178.646 276.562C178.23 276.735 177.818 276.922 177.42 277.13C176.699 277.506 176.016 277.952 175.383 278.461C174.191 279.43 173.209 280.631 172.495 281.99C170.788 285.186 170.38 288.853 170.126 292.411C170.039 293.636 169.978 294.865 169.919 296.092C169.888 296.726 169.86 297.361 169.831 297.994C169.815 298.332 169.799 298.669 169.784 299.007C169.768 299.38 169.823 299.753 169.947 300.106C170.061 300.47 170.672 300.641 170.851 300.224C170.988 299.963 171.083 299.682 171.134 299.391C171.167 299.066 171.175 298.753 171.191 298.435L171.279 296.759C171.336 295.68 171.395 294.603 171.466 293.526C171.592 291.656 171.792 289.803 172.044 287.948C172.459 284.942 173.297 281.871 175.461 279.634C176.063 279.014 176.737 278.468 177.468 278.007C177.856 277.763 178.256 277.539 178.664 277.334C178.889 277.221 179.152 277.138 179.362 277.008C179.572 276.878 179.787 276.683 180 276.52C180.083 276.46 180.065 276.299 179.942 276.307L179.948 276.312Z" fill="white"/>
<path d="M160.266 267.27C161.006 269.118 161.66 271.002 162.29 272.89C162.705 274.134 163.046 275.415 163.503 276.643C163.999 277.977 164.479 279.318 164.943 280.667C166.772 285.974 168.497 291.434 169.294 297.007C169.468 298.172 169.559 299.348 169.566 300.526C169.566 301.47 169.427 302.436 169.647 303.362C169.66 303.407 169.685 303.447 169.718 303.479C169.751 303.511 169.792 303.534 169.837 303.546C169.882 303.558 169.929 303.558 169.974 303.546C170.018 303.534 170.06 303.511 170.093 303.479C170.758 302.866 170.906 301.852 170.926 300.988C170.949 299.937 170.895 298.885 170.763 297.842C170.452 295.172 169.865 292.538 169.182 289.941C168.424 287.056 167.534 284.207 166.578 281.384C166.113 280.018 165.63 278.656 165.13 277.299C164.642 275.997 164.078 274.728 163.503 273.462C162.527 271.347 161.528 269.253 160.412 267.211C160.373 267.138 160.249 267.188 160.274 267.27H160.266Z" fill="white"/>
<path d="M137.527 73.3534C149.708 88.794 156.913 107.368 160.67 126.546C164.936 148.327 165.19 170.565 165.585 192.673C165.987 215.143 166.353 237.612 166.828 260.08C167.046 270.388 167.075 280.686 167.17 290.993C167.254 300.342 167.321 309.608 168.284 318.919C169.261 328.291 170.871 337.845 173.691 346.849C175.124 351.403 176.82 355.871 178.769 360.23C180.596 364.33 182.615 368.518 185.142 372.24C186.541 374.304 188.297 376.134 190.072 377.873C193.305 381.039 198.142 377.048 196.173 373.166C195.14 371.129 194.221 369.011 193.036 367.06C191.852 365.109 190.69 363.175 189.62 361.167C188.519 359.099 187.492 356.994 186.54 354.849C186.343 354.407 186.149 353.964 185.957 353.518C185.632 352.776 186.17 354.039 185.863 353.29C185.77 353.066 185.679 352.843 185.588 352.617C185.131 351.493 184.693 350.361 184.273 349.221C181.107 340.626 178.757 331.734 177.091 322.732C173.59 303.806 171.821 284.701 170.928 265.493C169.874 242.823 168.764 220.153 167.598 197.483C167.049 186.45 166.514 175.415 165.906 164.384C165.308 153.564 164.379 142.745 162.554 132.052C159.344 113.256 153.303 93.9386 141.78 78.4835C140.449 76.697 139.055 74.9615 137.597 73.277C137.555 73.2265 137.486 73.2981 137.525 73.3486L137.527 73.3534Z" fill="white"/>
<path d="M128.013 137.115C131.34 141.426 134.947 145.504 138.499 149.63C141.796 153.46 144.958 157.392 147.887 161.522C148.772 162.778 149.626 164.053 150.529 165.295C151.24 166.271 151.935 167.259 152.614 168.259C154.929 171.685 157.016 175.259 158.863 178.959C161.43 184.048 163.506 189.371 165.062 194.855C165.257 195.63 165.49 196.394 165.762 197.146C165.933 197.58 166.3 197.892 166.793 197.818C167.206 197.756 167.667 197.364 167.607 196.895C167.4 195.268 166.863 193.695 166.364 192.136C165.896 190.675 165.389 189.227 164.842 187.792C163.829 185.128 162.7 182.502 161.426 179.951C159.453 176.002 157.206 172.196 154.7 168.562C153.364 166.621 151.909 164.773 150.533 162.867C147.388 158.505 144.085 154.273 140.551 150.219C138.994 148.429 137.409 146.669 135.832 144.894C133.963 142.778 132.152 140.621 130.301 138.498C129.758 137.873 129.216 137.247 128.674 136.618C128.368 136.262 127.723 136.747 128.023 137.126L128.013 137.115Z" fill="white"/>
<path d="M145.278 135.434C144.953 136.47 144.969 137.612 144.818 138.68C144.674 139.701 144.593 140.728 144.525 141.758C144.399 143.662 144.382 145.573 144.427 147.48C144.481 150.293 144.715 153.099 145.128 155.882C145.24 156.718 145.403 157.547 145.616 158.363C145.836 159.141 147.048 158.811 146.829 158.038C146.331 156.268 146.162 154.421 145.971 152.605C145.621 149.27 145.503 145.913 145.446 142.562C145.426 141.423 145.428 140.284 145.402 139.145C145.387 138.549 145.389 137.957 145.402 137.355C145.415 136.727 145.468 136.071 145.392 135.447C145.391 135.432 145.385 135.418 145.375 135.407C145.365 135.396 145.352 135.389 145.337 135.387C145.322 135.385 145.307 135.389 145.295 135.396C145.282 135.404 145.273 135.416 145.268 135.43L145.278 135.434Z" fill="white"/>
<path d="M145.372 205.286C145.663 205.899 146.174 206.415 146.628 206.913C147.082 207.411 147.581 207.858 148.055 208.328C149.031 209.29 149.994 210.253 150.969 211.21C152.898 213.104 154.776 215.051 156.541 217.1C159.862 220.951 162.815 225.235 164.748 229.953C165.294 231.283 165.756 232.646 166.131 234.034C166.311 234.704 166.477 235.381 166.619 236.059C166.697 236.423 166.769 236.787 166.834 237.151C166.899 237.553 167.023 237.944 167.201 238.31C167.548 239.021 168.796 238.874 168.942 238.082C169.022 237.676 169.03 237.259 168.967 236.85C168.92 236.525 168.866 236.199 168.804 235.889C168.689 235.249 168.555 234.613 168.388 233.985C168.054 232.73 167.647 231.496 167.169 230.288C166.192 227.818 164.986 225.444 163.565 223.199C160.636 218.554 156.928 214.456 153.001 210.642C151.892 209.567 150.76 208.522 149.604 207.507C149.005 206.983 148.416 206.444 147.801 205.938C147.186 205.432 146.554 204.933 145.835 204.664C145.461 204.524 145.222 204.99 145.363 205.279L145.372 205.286Z" fill="white"/>
<path d="M135.278 234.55C135.766 234.325 136.326 234.213 136.842 234.018C137.33 233.832 137.81 233.609 138.29 233.403C139.354 232.945 140.405 232.465 141.448 231.977C143.602 230.972 145.746 229.929 147.956 229.049C151.846 227.514 156.416 226.109 160.534 227.391C161.571 227.714 162.542 228.22 163.4 228.886C163.868 229.253 164.304 229.661 164.701 230.105C165.158 230.607 165.526 231.191 166.024 231.655C166.102 231.733 166.2 231.789 166.307 231.818C166.413 231.846 166.526 231.846 166.633 231.818C166.739 231.792 166.835 231.736 166.909 231.655C166.988 231.577 167.044 231.479 167.072 231.372C167.101 231.265 167.101 231.152 167.072 231.045C166.665 229.906 165.682 228.907 164.778 228.116C163.958 227.402 163.033 226.817 162.036 226.382C160.024 225.516 157.806 225.293 155.644 225.497C150.774 225.954 146.143 228.071 141.871 230.336C140.686 230.964 139.525 231.633 138.387 232.343C137.837 232.688 137.279 233.025 136.734 233.38C136.22 233.705 135.758 234.148 135.224 234.444C135.164 234.476 135.224 234.561 135.278 234.533V234.55Z" fill="white"/>
<path d="M187.43 179.442C185.038 181.596 182.776 183.933 180.832 186.506C178.901 189.024 177.153 191.677 175.599 194.443C172.526 200.003 170.23 205.966 168.488 212.069C167.99 213.816 167.556 215.579 167.186 217.357C166.997 218.252 166.857 219.158 166.766 220.069C166.68 220.964 166.558 221.876 166.744 222.763C166.756 222.805 166.781 222.842 166.814 222.87C166.847 222.898 166.887 222.916 166.93 222.922C166.974 222.927 167.017 222.92 167.057 222.902C167.096 222.883 167.129 222.854 167.152 222.817C167.588 222.148 167.78 221.387 168.042 220.64C168.304 219.893 168.545 219.112 168.74 218.336C169.129 216.789 169.544 215.245 169.962 213.707C170.787 210.661 171.752 207.65 172.864 204.698C173.95 201.829 175.184 199.018 176.561 196.277C177.954 193.511 179.552 190.851 181.196 188.225C182.121 186.749 183.165 185.34 184.174 183.923C185.235 182.436 186.409 180.994 187.591 179.595C187.612 179.573 187.624 179.544 187.624 179.513C187.624 179.483 187.612 179.454 187.591 179.432C187.569 179.411 187.54 179.398 187.509 179.398C187.479 179.398 187.45 179.411 187.428 179.432L187.43 179.442Z" fill="white"/>
<path d="M189.431 224.114C187.679 225.334 186.207 226.852 184.713 228.37C182.867 230.251 181.12 232.226 179.479 234.288C175.84 238.851 172.609 243.726 169.822 248.855C169.115 250.156 168.285 251.521 167.852 252.95C167.504 254.103 167.587 256.075 169.232 255.992C169.271 255.992 169.309 255.981 169.343 255.961C169.377 255.941 169.405 255.913 169.424 255.879C169.444 255.845 169.454 255.807 169.454 255.768C169.455 255.728 169.445 255.69 169.425 255.656C169.263 255.351 169.263 254.785 169.295 254.527C169.356 254.011 169.485 253.506 169.678 253.025C170.138 251.897 170.817 250.731 171.401 249.629C172.702 247.189 174.126 244.829 175.59 242.49C178.436 237.976 181.516 233.615 184.817 229.423C186.249 227.596 187.892 225.896 189.536 224.249C189.602 224.182 189.513 224.057 189.431 224.114Z" fill="white"/>
<path d="M183.903 110.999C183.607 112.152 183.53 113.358 183.384 114.538C183.221 115.794 183.068 117.048 182.896 118.301C182.549 120.741 182.129 123.167 181.609 125.575C181.099 127.93 180.517 130.271 179.819 132.572C179.275 134.361 178.717 136.151 177.92 137.846C176.597 140.661 174.884 143.292 173.111 145.84C171.396 148.301 169.601 150.706 167.727 153.054C167.004 153.964 166.269 154.864 165.522 155.754C165.359 155.957 165.104 156.175 165.034 156.432C164.998 156.593 164.971 156.756 164.953 156.92C165 156.678 164.936 156.938 164.914 157L164.87 157.12C164.85 157.176 164.818 157.25 164.827 157.231H165.119L165.109 157.218C165.091 157.192 165.066 157.172 165.038 157.16C165.009 157.148 164.977 157.144 164.946 157.149H164.933C164.728 157.221 164.822 157.553 165.023 157.475C165.442 157.312 165.922 157.159 166.22 156.806C166.858 156.05 167.483 155.282 168.101 154.51C169.962 152.182 171.773 149.808 173.47 147.352C175.283 144.727 177.027 142.023 178.426 139.153C179.129 137.676 179.72 136.149 180.191 134.583C180.926 132.231 181.533 129.841 182.012 127.424C182.549 124.728 182.957 122.004 183.304 119.277C183.48 117.901 183.633 116.522 183.764 115.141C183.893 113.774 184.09 112.375 183.997 110.999C183.997 110.99 183.994 110.982 183.988 110.976C183.982 110.97 183.975 110.965 183.966 110.964C183.958 110.963 183.949 110.965 183.942 110.969C183.935 110.974 183.93 110.981 183.927 110.989L183.903 110.999Z" fill="white"/>
<path d="M159.755 189.434C159.608 190.444 159.514 191.461 159.474 192.48C159.412 193.477 159.405 194.477 159.454 195.475C159.571 197.521 159.853 199.554 160.299 201.554C161.163 205.578 162.493 209.483 163.979 213.314C164.825 215.498 165.72 217.66 166.634 219.822C166.896 220.441 167.991 219.985 167.731 219.36C167.555 218.894 167.277 218.473 166.917 218.127C166.895 218.105 166.866 218.089 166.835 218.08C166.805 218.072 166.772 218.072 166.741 218.08C166.71 218.088 166.682 218.104 166.659 218.126C166.636 218.148 166.619 218.176 166.61 218.207C166.488 218.686 166.473 219.186 166.566 219.671L167.723 219.346C166.149 215.587 164.568 211.83 163.266 207.968C161.965 204.153 161.018 200.226 160.439 196.237C160.276 195.137 160.149 194.031 160.066 192.923C159.98 191.769 159.983 190.616 159.972 189.459C159.972 189.335 159.768 189.296 159.747 189.428L159.755 189.434Z" fill="white"/>
<path d="M160.982 74.8495C161.102 76.3577 161.312 77.8573 161.612 79.3401C161.87 80.7329 162.141 82.1224 162.426 83.5086C162.938 86.024 163.506 88.5264 163.909 91.0613C164.329 93.5739 164.526 96.1187 164.497 98.666C164.429 101.545 164.051 104.408 163.369 107.206C162.903 109.126 162.339 111.02 161.677 112.881C161.313 113.914 160.928 114.938 160.522 115.955C160.289 116.538 160.049 117.119 159.803 117.697C159.565 118.255 159.341 118.739 159.365 119.352C159.366 119.378 159.374 119.403 159.389 119.424C159.404 119.445 159.424 119.462 159.448 119.471C159.472 119.481 159.498 119.484 159.523 119.48C159.549 119.475 159.572 119.464 159.591 119.446C160.367 118.796 160.665 117.631 161.039 116.716C161.433 115.752 161.808 114.781 162.165 113.802C162.783 112.099 163.335 110.368 163.792 108.612C164.578 105.706 165.048 102.723 165.193 99.7154C165.408 94.5431 164.38 89.4993 163.226 84.4864C162.878 82.97 162.504 81.4602 162.164 79.9421C161.784 78.2452 161.467 76.5254 161.025 74.8414C161.025 74.8137 160.969 74.8186 160.971 74.8495H160.982Z" fill="white"/>
<path d="M144.633 183.008C139.333 172.106 128.994 160.221 116.086 160.284C110.378 161.207 109.888 166.973 112.532 171.186C115.397 178.418 107.976 171.55 105.254 179.509C102.532 187.469 122.13 202.418 133.618 207.558C157.744 221.044 150.463 196.045 144.633 183.008Z" fill="#94EEFD"/>
<path d="M132.128 247.928C126.634 254.599 96.8036 267.941 107.397 248.732C96.5319 252.741 87.2887 242.521 98.1378 234.495C112.68 220.303 157.168 220.579 132.128 247.928Z" fill="#94EEFD"/>
<path d="M172.272 169.364C172.234 175.729 170.775 182.006 168.002 187.736C156.506 209.966 146.498 181.2 148.735 168.737C150.263 160.221 160.53 155.244 160.938 165.472C161.989 168.794 164.892 164.159 166.665 163.897C171.108 163.238 172.272 169.364 172.272 169.364Z" fill="#94EEFD"/>
<path d="M194.264 193.196C198.25 183.631 207.117 188.392 204.63 197.295C213.346 192.62 217.348 205.627 212.781 211.884C210.153 217.39 206.032 222.146 201.053 225.657C169.331 249.428 187.547 206.076 194.264 193.196Z" fill="#A8CFED"/>
<path d="M147.395 136.904C133.173 143.554 128.207 90.5045 144.747 91.1196C151.01 92.1739 144.747 101.511 149.895 103.038C172.179 91.7574 161.615 130.256 147.395 136.904Z" fill="#94EEFD"/>
<path d="M95.789 134.511C90.5955 129.443 87.265 120.375 94.6403 118.053C96.4073 117.498 98.4264 119.171 100.096 118.367C102.816 116.827 101.132 113.247 100.95 110.829C100.758 106.812 104.762 103.464 108.781 103.345C117.451 103.293 121.922 112.209 125.656 118.802C144.883 150.542 104.817 143.323 95.789 134.511Z" fill="#C9E7F4"/>
<path d="M186.327 119.158C174.287 127.944 177.565 86.4126 185.839 83.741C191.925 81.4745 190.006 89.4356 190.529 92.5806C210.047 87.5092 191.925 113.573 186.327 119.158Z" fill="#C9E7F4"/>
<path d="M183.754 168.034C186.357 157.255 193.944 146.66 205.038 143.775C212.103 144.192 207.201 151.679 204.986 154.875C203.522 162.11 215.547 151.408 217.887 161.912C218.609 175.078 200.608 179.673 190.582 183.063C178.419 186.021 181.754 172.722 183.754 168.034Z" fill="#94EEFD"/>
<path d="M108.008 67.6504C102.024 63.124 100.714 55.0686 108.747 52.4132C104.705 45.9051 102.789 38.9317 112.828 37.1826C126.142 38.3736 147.077 62.1966 139.69 75.5887C132.534 84.7293 113.916 72.8927 108.008 67.6504Z" fill="#94EEFD"/>
<path d="M144.222 56.6615C143.084 53.0186 143.734 50.2363 149.3 51.494C154.866 52.7517 151.912 44.2733 156.99 45.7181C175.788 53.5067 164.856 107.82 144.222 56.6615Z" fill="#C9E7F4"/>
<path d="M145.35 252.416C146.397 245.286 150.258 251.809 152.707 249.897C153.058 246.806 151.35 242.395 154.897 241.331C158.314 240.208 162.238 243.806 163.655 247.893C174.207 278.317 148.82 275.992 145.35 252.416Z" fill="#C9E7F4"/>
<path d="M190.394 260.526C193.59 257.815 200.254 257.864 199.94 263.261C200.08 272.764 193.398 269.562 201.278 278.469C209.691 287.98 152.343 286.687 190.394 260.526Z" fill="#A8CFED"/>
<path d="M339.926 459.147C339.58 459.153 339.247 459.021 338.999 458.78C338.751 458.54 338.609 458.211 338.604 457.866C338.598 457.521 338.73 457.188 338.971 456.94C339.211 456.692 339.54 456.549 339.885 456.544C431.828 453.615 478.811 403.291 502.049 282.868C502.073 282.693 502.132 282.524 502.223 282.372C502.314 282.22 502.435 282.088 502.578 281.984C502.722 281.881 502.885 281.807 503.058 281.769C503.231 281.731 503.41 281.728 503.584 281.761C503.758 281.795 503.923 281.863 504.07 281.963C504.217 282.062 504.342 282.19 504.437 282.34C504.532 282.489 504.596 282.656 504.624 282.831C504.653 283.006 504.645 283.185 504.602 283.356C498.932 312.739 492.029 337.211 483.498 358.159C474.491 380.287 463.847 398.08 450.957 412.567C437.629 427.55 422.271 438.591 404.006 446.32C385.478 454.16 364.531 458.36 339.966 459.138L339.926 459.147Z" fill="white"/>
<path d="M483.963 290.762C473.856 290.762 465.28 285.466 458.461 275.007C458.294 274.719 458.243 274.377 458.321 274.052C458.398 273.728 458.597 273.445 458.876 273.263C459.156 273.081 459.495 273.013 459.823 273.074C460.151 273.134 460.444 273.319 460.64 273.589C470.818 289.198 484.843 292.233 502.319 282.602L502.754 282.365L503.242 282.474C510.677 284.168 526.39 283.387 538.106 269.721C538.214 269.581 538.349 269.465 538.503 269.379C538.658 269.293 538.828 269.239 539.003 269.221C539.179 269.203 539.357 269.22 539.525 269.273C539.694 269.326 539.85 269.412 539.984 269.527C540.118 269.642 540.228 269.783 540.306 269.942C540.383 270.101 540.428 270.273 540.437 270.45C540.446 270.626 540.419 270.803 540.357 270.968C540.296 271.134 540.201 271.285 540.079 271.413C527.807 285.731 511.341 286.794 503.154 285.116C500.063 286.808 492.889 290.557 484.669 290.754C484.429 290.76 484.202 290.762 483.963 290.762Z" fill="white"/>
<path d="M501.977 284.813H501.703C501.469 284.813 495.898 284.639 489.797 280.394C484.245 276.532 477.174 268.4 475.023 251.596C474.991 251.422 474.995 251.243 475.035 251.071C475.075 250.898 475.149 250.736 475.254 250.593C475.358 250.45 475.491 250.33 475.643 250.24C475.796 250.151 475.965 250.093 476.141 250.071C476.316 250.049 476.494 250.063 476.664 250.112C476.835 250.161 476.993 250.244 477.13 250.356C477.266 250.468 477.379 250.608 477.46 250.765C477.541 250.922 477.59 251.094 477.602 251.271C479.2 263.747 483.886 273.05 491.155 278.177C495.934 281.545 500.418 282.111 501.511 282.202C506.547 280.116 518.152 275.225 519.529 255.538C519.553 255.193 519.713 254.872 519.975 254.645C520.236 254.418 520.576 254.304 520.922 254.328C521.267 254.352 521.588 254.512 521.815 254.773C522.042 255.035 522.156 255.375 522.132 255.721C520.637 277.101 507.421 282.567 502.445 284.633L501.977 284.813Z" fill="white"/>
<path d="M524.146 299.593C515.758 299.593 510.352 296.158 507.083 292.837C502.862 288.55 501.338 283.69 501.081 282.781C500.267 281.121 492.918 265.456 497.134 246.117C497.162 245.942 497.225 245.775 497.32 245.626C497.415 245.477 497.539 245.348 497.686 245.249C497.832 245.149 497.997 245.08 498.17 245.046C498.344 245.013 498.523 245.015 498.696 245.052C498.869 245.09 499.032 245.162 499.176 245.265C499.32 245.368 499.441 245.499 499.533 245.651C499.624 245.802 499.684 245.971 499.708 246.146C499.732 246.321 499.721 246.5 499.674 246.67C495.515 265.759 503.38 281.567 503.46 281.725L503.525 281.852L503.56 281.992C503.572 282.037 504.885 286.941 509.013 291.09C514.489 296.599 522.156 298.273 531.791 296.069C532.121 296.009 532.461 296.078 532.741 296.262C533.02 296.447 533.218 296.732 533.293 297.058C533.368 297.385 533.314 297.728 533.142 298.016C532.971 298.304 532.695 298.514 532.372 298.603C529.676 299.241 526.916 299.573 524.146 299.593Z" fill="white"/>
<path d="M471.816 305.535C471.495 305.532 471.186 305.411 470.949 305.194C470.712 304.978 470.563 304.681 470.532 304.362C470.5 304.042 470.588 303.722 470.777 303.464C470.967 303.205 471.246 303.025 471.56 302.959C486.449 299.943 493.672 294.44 497.105 290.355C500.77 285.998 501.01 282.291 501.01 282.254C501.025 281.909 501.176 281.583 501.431 281.35C501.686 281.117 502.023 280.994 502.368 281.009C502.713 281.024 503.038 281.176 503.272 281.431C503.505 281.685 503.628 282.022 503.613 282.368C503.613 282.547 503.388 286.829 499.265 291.834C493.906 298.342 484.76 302.94 472.081 305.509C471.994 305.527 471.905 305.535 471.816 305.535Z" fill="white"/>
<path d="M512.397 315.631C512.207 315.631 512.02 315.59 511.848 315.51C511.676 315.43 511.523 315.314 511.401 315.169C499.275 300.76 502.187 285.232 502.317 284.581C502.401 284.259 502.603 283.981 502.885 283.804C503.166 283.627 503.504 283.565 503.83 283.629C504.156 283.694 504.445 283.88 504.638 284.151C504.831 284.422 504.913 284.756 504.867 285.085C504.838 285.233 502.101 300.07 513.391 313.49C513.549 313.679 513.651 313.91 513.683 314.155C513.715 314.4 513.677 314.65 513.572 314.874C513.468 315.098 513.302 315.287 513.094 315.421C512.886 315.554 512.644 315.625 512.397 315.626V315.631Z" fill="white"/>
<path d="M475.058 307.823C477.367 305.963 477.732 302.583 475.872 300.274C474.012 297.964 470.631 297.6 468.322 299.46C466.013 301.32 465.649 304.7 467.509 307.01C469.369 309.319 472.749 309.683 475.058 307.823Z" fill="#1BA8BB"/>
<path d="M461.319 280.935C464.257 280.539 466.318 277.835 465.922 274.897C465.526 271.958 462.822 269.897 459.884 270.293C456.945 270.689 454.884 273.393 455.28 276.332C455.676 279.271 458.38 281.332 461.319 280.935Z" fill="#1BA8BB"/>
<path d="M471.264 253.127C471.617 254.128 472.259 255.003 473.109 255.64C473.959 256.276 474.978 256.647 476.038 256.704C477.099 256.762 478.152 256.503 479.066 255.962C479.979 255.42 480.712 254.62 481.171 253.662C481.629 252.704 481.794 251.632 481.643 250.581C481.492 249.53 481.033 248.547 480.324 247.757C479.615 246.966 478.687 246.404 477.658 246.141C476.629 245.878 475.546 245.926 474.544 246.279C473.201 246.752 472.101 247.739 471.486 249.023C470.871 250.308 470.791 251.784 471.264 253.127Z" fill="#1BA8BB"/>
<path d="M492.537 248.053C492.89 249.055 493.531 249.93 494.381 250.567C495.231 251.204 496.25 251.574 497.311 251.632C498.371 251.689 499.425 251.431 500.339 250.89C501.252 250.348 501.985 249.548 502.444 248.59C502.903 247.633 503.067 246.56 502.917 245.509C502.766 244.458 502.307 243.475 501.598 242.684C500.888 241.894 499.96 241.332 498.931 241.069C497.903 240.806 496.819 240.854 495.817 241.207C494.474 241.68 493.375 242.667 492.759 243.951C492.144 245.235 492.064 246.71 492.537 248.053Z" fill="#1BA8BB"/>
<path d="M542.338 274.325C545.085 273.208 546.407 270.076 545.29 267.329C544.174 264.582 541.041 263.26 538.294 264.377C535.547 265.493 534.225 268.625 535.342 271.372C536.459 274.12 539.591 275.441 542.338 274.325Z" fill="#1BA8BB"/>
<path d="M530.815 298.708C531.168 299.71 531.81 300.584 532.659 301.221C533.509 301.858 534.529 302.228 535.589 302.285C536.65 302.343 537.703 302.084 538.617 301.543C539.53 301.001 540.263 300.201 540.721 299.243C541.18 298.286 541.345 297.213 541.194 296.162C541.043 295.111 540.584 294.128 539.875 293.338C539.166 292.547 538.238 291.985 537.209 291.722C536.18 291.459 535.097 291.507 534.095 291.86C532.752 292.333 531.652 293.32 531.037 294.605C530.421 295.889 530.342 297.365 530.815 298.708Z" fill="#1BA8BB"/>
<path d="M516.569 317.728C518.438 315.426 518.086 312.045 515.784 310.176C513.482 308.307 510.101 308.658 508.232 310.96C506.363 313.263 506.714 316.644 509.016 318.513C511.318 320.382 514.7 320.031 516.569 317.728Z" fill="#1BA8BB"/>
<path d="M515.672 255.981C516.024 256.983 516.666 257.857 517.516 258.494C518.366 259.131 519.385 259.502 520.446 259.56C521.506 259.617 522.56 259.359 523.473 258.817C524.387 258.276 525.12 257.476 525.579 256.518C526.037 255.56 526.202 254.488 526.051 253.437C525.901 252.385 525.442 251.402 524.732 250.612C524.023 249.822 523.095 249.259 522.066 248.996C521.037 248.733 519.953 248.781 518.952 249.134C517.609 249.608 516.509 250.595 515.894 251.878C515.279 253.162 515.199 254.638 515.672 255.981Z" fill="#1BA8BB"/>
<path d="M517.453 382.271C514.642 384.467 512.029 386.756 510.474 389.934C508.999 393.064 508.641 396.484 508.929 399.986C509.016 401.136 509.234 402.322 509.727 403.372C511.098 406.463 514.362 409.042 517.712 409.04C524.625 409.135 529.526 400.58 523.872 395.546C522.108 394.13 518.597 394.026 516.772 396.034C516.756 396.055 516.733 396.07 516.707 396.074C516.681 396.079 516.654 396.073 516.633 396.057C516.611 396.042 516.596 396.019 516.592 395.993C516.588 395.967 516.594 395.94 516.609 395.918C518.195 393.165 522.226 392.65 524.811 394.291C526.975 395.904 528.514 398.453 528.405 401.216C528.291 406.112 523.864 410.291 519.059 410.539C514.658 410.711 511.033 407.335 509.167 403.619C508.466 402.259 508.105 400.718 507.791 399.226C507.291 396.785 507.179 394.208 507.878 391.789C508.845 388.455 511.207 385.606 514.118 383.782C515.141 383.12 516.223 382.552 517.349 382.087C517.37 382.082 517.392 382.083 517.411 382.092C517.431 382.1 517.447 382.114 517.458 382.132C517.469 382.15 517.474 382.172 517.472 382.193C517.47 382.214 517.461 382.234 517.447 382.25L517.453 382.271Z" fill="#75AED9"/>
<path d="M551.1 341.928C551.246 340.449 550.166 339.131 548.687 338.985C547.208 338.838 545.891 339.918 545.744 341.397C545.597 342.876 546.677 344.194 548.156 344.341C549.635 344.487 550.953 343.407 551.1 341.928Z" fill="#C9E7F4"/>
<path d="M509.332 185.124C512.122 184.466 513.85 181.671 513.192 178.881C512.533 176.091 509.738 174.363 506.948 175.022C504.158 175.68 502.43 178.475 503.089 181.265C503.747 184.055 506.543 185.783 509.332 185.124Z" fill="#C9E7F4"/>
<path d="M441.394 476.359H421.397C420.123 476.359 418.865 476.078 417.712 475.537C416.559 474.995 415.539 474.207 414.726 473.227L368.09 417.094C366.93 415.698 366.063 414.081 365.541 412.342C365.019 410.603 364.853 408.776 365.053 406.971C365.252 405.166 365.813 403.42 366.702 401.837C367.592 400.253 368.791 398.865 370.228 397.756L378.92 391.044C380.357 389.934 382.003 389.125 383.76 388.666C385.517 388.206 387.349 388.105 389.145 388.369C390.942 388.633 392.667 389.256 394.218 390.201C395.769 391.146 397.113 392.394 398.171 393.87L444.624 470.632C444.97 471.204 445.157 471.858 445.167 472.527C445.176 473.196 445.009 473.855 444.68 474.438C444.352 475.02 443.874 475.505 443.297 475.843C442.72 476.18 442.063 476.358 441.394 476.359Z" fill="#064565"/>
<path d="M139.056 476.359H159.068C160.342 476.359 161.6 476.078 162.753 475.537C163.906 474.995 164.925 474.207 165.739 473.227L212.375 417.094C213.535 415.698 214.402 414.081 214.924 412.342C215.446 410.603 215.612 408.776 215.412 406.971C215.213 405.166 214.652 403.42 213.762 401.837C212.873 400.253 211.674 398.865 210.237 397.756L201.545 391.044C200.108 389.934 198.461 389.125 196.705 388.666C194.948 388.206 193.116 388.105 191.319 388.369C189.523 388.633 187.797 389.256 186.247 390.201C184.696 391.146 183.352 392.394 182.294 393.87L135.826 470.632C135.481 471.204 135.293 471.858 135.284 472.527C135.274 473.196 135.442 473.855 135.77 474.438C136.099 475.02 136.576 475.505 137.153 475.843C137.73 476.18 138.387 476.358 139.056 476.359Z" fill="#064565"/>
<path d="M290.225 476.358C378.301 476.358 449.7 404.959 449.7 316.883C449.7 228.808 378.301 157.408 290.225 157.408C202.149 157.408 130.75 228.808 130.75 316.883C130.75 404.959 202.149 476.358 290.225 476.358Z" fill="white"/>
<path d="M290.228 453.716C365.799 453.716 427.061 392.454 427.061 316.883C427.061 241.312 365.799 180.05 290.228 180.05C214.657 180.05 153.395 241.312 153.395 316.883C153.395 392.454 214.657 453.716 290.228 453.716Z" fill="#6BC1CF"/>
<path d="M273.122 193.223C273.198 193.703 273.13 194.194 272.927 194.635C272.724 195.076 272.395 195.447 271.981 195.701C271.566 195.955 271.086 196.08 270.601 196.061C270.116 196.042 269.647 195.88 269.254 195.594C268.861 195.309 268.562 194.913 268.394 194.457C268.226 194.002 268.197 193.507 268.31 193.034C268.424 192.562 268.674 192.134 269.031 191.805C269.388 191.475 269.834 191.259 270.314 191.183C270.632 191.132 270.958 191.145 271.271 191.22C271.585 191.295 271.88 191.431 272.141 191.621C272.402 191.81 272.623 192.049 272.791 192.324C272.959 192.599 273.072 192.905 273.122 193.223Z" fill="#1BA8BB"/>
<path d="M253.987 197.425C254.138 197.887 254.147 198.383 254.015 198.85C253.884 199.318 253.616 199.736 253.247 200.051C252.877 200.366 252.423 200.565 251.94 200.622C251.458 200.679 250.97 200.592 250.537 200.371C250.104 200.15 249.747 199.806 249.51 199.382C249.273 198.958 249.167 198.474 249.205 197.99C249.243 197.505 249.425 197.043 249.726 196.662C250.027 196.281 250.434 195.998 250.896 195.848C251.515 195.649 252.188 195.702 252.767 195.998C253.347 196.293 253.785 196.806 253.987 197.425Z" fill="#1BA8BB"/>
<path d="M235.758 204.565C235.979 204.998 236.066 205.486 236.008 205.968C235.951 206.45 235.752 206.905 235.437 207.274C235.121 207.643 234.704 207.91 234.236 208.042C233.769 208.174 233.273 208.164 232.811 208.014C232.35 207.864 231.943 207.58 231.642 207.199C231.342 206.817 231.161 206.355 231.123 205.871C231.085 205.387 231.191 204.903 231.428 204.479C231.665 204.056 232.023 203.712 232.456 203.491C232.743 203.345 233.056 203.256 233.378 203.231C233.699 203.206 234.023 203.244 234.33 203.344C234.636 203.444 234.92 203.603 235.166 203.812C235.411 204.022 235.612 204.278 235.758 204.565Z" fill="#1BA8BB"/>
<path d="M218.848 214.468C219.133 214.861 219.296 215.33 219.315 215.815C219.334 216.3 219.208 216.78 218.955 217.194C218.701 217.608 218.33 217.938 217.889 218.141C217.448 218.344 216.957 218.412 216.477 218.336C215.998 218.26 215.551 218.044 215.195 217.714C214.838 217.384 214.587 216.957 214.474 216.484C214.361 216.012 214.39 215.517 214.558 215.062C214.726 214.606 215.025 214.21 215.418 213.925C215.679 213.735 215.975 213.599 216.288 213.524C216.602 213.449 216.927 213.436 217.246 213.486C217.564 213.537 217.87 213.649 218.145 213.818C218.419 213.987 218.658 214.208 218.848 214.468Z" fill="#1BA8BB"/>
<path d="M190.693 241.535C191.086 241.82 191.386 242.216 191.554 242.671C191.722 243.127 191.751 243.622 191.637 244.094C191.524 244.566 191.273 244.994 190.917 245.324C190.56 245.653 190.114 245.87 189.634 245.946C189.155 246.022 188.663 245.954 188.222 245.751C187.781 245.547 187.411 245.218 187.157 244.804C186.903 244.39 186.778 243.91 186.797 243.425C186.816 242.94 186.978 242.471 187.264 242.078C187.647 241.552 188.223 241.199 188.866 241.097C189.509 240.995 190.166 241.152 190.693 241.535Z" fill="#1BA8BB"/>
<path d="M180.133 258.035C180.566 258.255 180.923 258.599 181.16 259.023C181.397 259.447 181.503 259.931 181.465 260.415C181.427 260.899 181.246 261.361 180.945 261.742C180.645 262.124 180.238 262.407 179.776 262.557C179.314 262.707 178.818 262.717 178.351 262.585C177.883 262.453 177.466 262.185 177.15 261.816C176.835 261.447 176.636 260.992 176.579 260.51C176.522 260.028 176.61 259.539 176.83 259.107C176.977 258.82 177.178 258.564 177.424 258.355C177.669 258.145 177.953 257.986 178.26 257.887C178.566 257.787 178.89 257.749 179.211 257.774C179.533 257.8 179.846 257.888 180.133 258.035Z" fill="#1BA8BB"/>
<path d="M172.28 275.98C172.742 276.129 173.149 276.413 173.45 276.794C173.751 277.175 173.933 277.637 173.971 278.121C174.009 278.605 173.903 279.09 173.666 279.514C173.429 279.938 173.072 280.282 172.639 280.503C172.206 280.723 171.718 280.811 171.236 280.754C170.753 280.697 170.299 280.498 169.929 280.183C169.56 279.867 169.292 279.449 169.16 278.982C169.029 278.514 169.038 278.018 169.189 277.556C169.39 276.938 169.828 276.424 170.408 276.128C170.988 275.833 171.661 275.779 172.28 275.98Z" fill="#1BA8BB"/>
<path d="M167.342 294.932C167.821 295.008 168.268 295.225 168.624 295.554C168.981 295.884 169.231 296.312 169.345 296.784C169.458 297.256 169.429 297.751 169.261 298.207C169.093 298.662 168.793 299.058 168.4 299.343C168.008 299.628 167.539 299.791 167.054 299.81C166.569 299.829 166.089 299.704 165.675 299.451C165.261 299.197 164.931 298.826 164.728 298.386C164.524 297.945 164.456 297.453 164.532 296.974C164.582 296.655 164.695 296.349 164.863 296.074C165.031 295.799 165.252 295.56 165.513 295.37C165.774 295.18 166.07 295.044 166.384 294.969C166.698 294.894 167.023 294.881 167.342 294.932Z" fill="#1BA8BB"/>
<path d="M166.573 333.981C167.052 333.904 167.544 333.972 167.985 334.176C168.426 334.379 168.797 334.708 169.051 335.122C169.304 335.536 169.43 336.016 169.411 336.502C169.392 336.987 169.229 337.456 168.944 337.848C168.658 338.241 168.263 338.541 167.807 338.709C167.351 338.877 166.856 338.906 166.384 338.793C165.912 338.679 165.484 338.428 165.154 338.072C164.825 337.715 164.608 337.268 164.532 336.789C164.482 336.47 164.494 336.145 164.57 335.832C164.645 335.518 164.781 335.223 164.971 334.962C165.16 334.701 165.399 334.48 165.674 334.312C165.949 334.143 166.254 334.031 166.573 333.981Z" fill="#1BA8BB"/>
<path d="M170.764 353.114C171.225 352.964 171.722 352.954 172.189 353.086C172.657 353.218 173.074 353.486 173.39 353.855C173.705 354.224 173.904 354.679 173.961 355.161C174.018 355.644 173.931 356.132 173.71 356.565C173.489 356.997 173.145 357.355 172.721 357.592C172.297 357.829 171.813 357.935 171.328 357.897C170.844 357.858 170.382 357.677 170.001 357.376C169.62 357.075 169.337 356.668 169.187 356.206C168.987 355.587 169.041 354.914 169.337 354.334C169.632 353.755 170.145 353.316 170.764 353.114Z" fill="#1BA8BB"/>
<path d="M177.903 371.358C178.336 371.138 178.824 371.051 179.307 371.108C179.789 371.165 180.243 371.364 180.612 371.68C180.981 371.995 181.249 372.413 181.38 372.88C181.512 373.348 181.502 373.843 181.352 374.305C181.202 374.767 180.918 375.174 180.537 375.474C180.156 375.775 179.694 375.956 179.21 375.994C178.726 376.032 178.241 375.925 177.817 375.688C177.394 375.451 177.05 375.093 176.83 374.661C176.534 374.08 176.482 373.406 176.683 372.787C176.884 372.168 177.323 371.654 177.903 371.358Z" fill="#1BA8BB"/>
<path d="M187.807 388.257C188.2 387.971 188.669 387.809 189.154 387.79C189.639 387.771 190.119 387.896 190.533 388.15C190.947 388.404 191.277 388.775 191.48 389.216C191.683 389.657 191.751 390.148 191.675 390.627C191.599 391.107 191.383 391.553 191.053 391.91C190.723 392.266 190.295 392.517 189.823 392.631C189.351 392.744 188.856 392.715 188.4 392.547C187.945 392.379 187.549 392.079 187.264 391.687C187.074 391.426 186.938 391.13 186.863 390.816C186.787 390.503 186.775 390.178 186.825 389.859C186.876 389.541 186.988 389.235 187.157 388.96C187.325 388.685 187.546 388.446 187.807 388.257Z" fill="#1BA8BB"/>
<path d="M214.875 416.41C215.16 416.018 215.556 415.718 216.011 415.55C216.467 415.382 216.962 415.353 217.434 415.466C217.906 415.58 218.334 415.83 218.664 416.187C218.993 416.544 219.21 416.99 219.286 417.469C219.362 417.949 219.294 418.44 219.091 418.881C218.887 419.322 218.558 419.693 218.144 419.947C217.73 420.201 217.25 420.326 216.765 420.307C216.28 420.288 215.811 420.126 215.418 419.84C214.891 419.457 214.538 418.881 214.437 418.238C214.335 417.595 214.492 416.937 214.875 416.41Z" fill="#1BA8BB"/>
<path d="M231.375 426.972C231.596 426.539 231.94 426.182 232.364 425.944C232.787 425.707 233.272 425.601 233.756 425.639C234.24 425.678 234.702 425.859 235.083 426.159C235.464 426.46 235.748 426.867 235.898 427.329C236.048 427.791 236.057 428.287 235.925 428.754C235.794 429.221 235.526 429.639 235.157 429.954C234.787 430.27 234.333 430.468 233.851 430.525C233.369 430.582 232.88 430.495 232.448 430.274C232.16 430.128 231.905 429.926 231.695 429.681C231.486 429.436 231.327 429.152 231.227 428.845C231.128 428.538 231.09 428.215 231.115 427.894C231.14 427.572 231.229 427.259 231.375 426.972Z" fill="#1BA8BB"/>
<path d="M249.317 434.822C249.466 434.36 249.75 433.952 250.131 433.651C250.512 433.35 250.974 433.169 251.458 433.131C251.942 433.092 252.427 433.198 252.851 433.435C253.275 433.673 253.619 434.03 253.84 434.463C254.06 434.895 254.148 435.384 254.091 435.866C254.034 436.349 253.835 436.803 253.52 437.173C253.204 437.542 252.786 437.809 252.319 437.941C251.851 438.073 251.355 438.063 250.893 437.913C250.275 437.712 249.761 437.273 249.465 436.694C249.17 436.114 249.116 435.441 249.317 434.822Z" fill="#1BA8BB"/>
<path d="M268.273 439.768C268.349 439.288 268.565 438.842 268.895 438.486C269.225 438.129 269.653 437.878 270.125 437.765C270.597 437.652 271.092 437.681 271.547 437.849C272.003 438.017 272.398 438.316 272.684 438.709C272.969 439.102 273.132 439.57 273.151 440.056C273.17 440.541 273.045 441.021 272.791 441.435C272.538 441.849 272.167 442.178 271.726 442.382C271.286 442.585 270.794 442.653 270.315 442.578C269.996 442.528 269.69 442.415 269.415 442.247C269.14 442.078 268.901 441.857 268.711 441.596C268.521 441.335 268.385 441.039 268.31 440.726C268.235 440.412 268.222 440.086 268.273 439.768Z" fill="#1BA8BB"/>
<path d="M307.325 440.53C307.249 440.051 307.317 439.559 307.52 439.118C307.723 438.677 308.053 438.306 308.467 438.052C308.881 437.799 309.361 437.673 309.846 437.692C310.332 437.711 310.8 437.874 311.193 438.159C311.586 438.445 311.886 438.84 312.054 439.296C312.222 439.752 312.251 440.247 312.137 440.719C312.024 441.191 311.773 441.619 311.416 441.949C311.06 442.278 310.613 442.495 310.134 442.571C309.815 442.621 309.49 442.609 309.176 442.533C308.863 442.458 308.567 442.322 308.307 442.132C308.046 441.943 307.825 441.704 307.657 441.429C307.488 441.154 307.376 440.849 307.325 440.53Z" fill="#1BA8BB"/>
<path d="M326.458 436.341C326.308 435.879 326.298 435.383 326.43 434.916C326.562 434.448 326.829 434.03 327.199 433.715C327.568 433.4 328.023 433.201 328.505 433.144C328.987 433.087 329.476 433.174 329.909 433.395C330.341 433.616 330.699 433.96 330.936 434.384C331.173 434.808 331.279 435.292 331.241 435.776C331.202 436.261 331.021 436.722 330.72 437.104C330.419 437.485 330.012 437.768 329.55 437.918C328.931 438.117 328.258 438.064 327.678 437.768C327.099 437.473 326.66 436.96 326.458 436.341Z" fill="#1BA8BB"/>
<path d="M344.694 429.202C344.473 428.769 344.386 428.281 344.443 427.799C344.5 427.317 344.698 426.862 345.014 426.493C345.329 426.124 345.747 425.856 346.214 425.724C346.681 425.592 347.177 425.602 347.639 425.752C348.101 425.902 348.508 426.185 348.809 426.566C349.109 426.948 349.29 427.41 349.329 427.894C349.367 428.378 349.261 428.862 349.024 429.286C348.786 429.71 348.429 430.054 347.996 430.274C347.416 430.57 346.742 430.623 346.123 430.422C345.504 430.221 344.99 429.782 344.694 429.202Z" fill="#1BA8BB"/>
<path d="M361.598 419.296C361.312 418.904 361.15 418.435 361.131 417.95C361.112 417.464 361.237 416.985 361.491 416.571C361.745 416.157 362.115 415.827 362.556 415.624C362.997 415.421 363.489 415.353 363.968 415.429C364.448 415.505 364.894 415.721 365.251 416.051C365.607 416.38 365.858 416.808 365.971 417.281C366.085 417.753 366.056 418.248 365.888 418.703C365.72 419.159 365.42 419.554 365.027 419.84C364.766 420.029 364.471 420.166 364.157 420.241C363.844 420.316 363.518 420.329 363.2 420.279C362.881 420.228 362.576 420.115 362.301 419.947C362.026 419.778 361.787 419.557 361.598 419.296Z" fill="#1BA8BB"/>
<path d="M389.756 392.229C389.363 391.944 389.064 391.549 388.896 391.093C388.728 390.637 388.699 390.142 388.812 389.67C388.925 389.198 389.176 388.77 389.533 388.44C389.889 388.111 390.336 387.894 390.815 387.818C391.295 387.742 391.786 387.81 392.227 388.014C392.668 388.217 393.039 388.546 393.293 388.96C393.546 389.374 393.672 389.854 393.653 390.339C393.634 390.825 393.471 391.293 393.186 391.686C392.803 392.213 392.227 392.566 391.583 392.668C390.94 392.769 390.283 392.612 389.756 392.229Z" fill="#1BA8BB"/>
<path d="M400.31 375.733C399.878 375.513 399.52 375.169 399.283 374.745C399.046 374.321 398.94 373.837 398.978 373.353C399.017 372.869 399.197 372.407 399.498 372.025C399.799 371.644 400.206 371.361 400.668 371.211C401.13 371.061 401.626 371.051 402.093 371.183C402.56 371.315 402.978 371.583 403.293 371.952C403.608 372.321 403.807 372.776 403.864 373.258C403.921 373.74 403.834 374.228 403.613 374.661C403.467 374.948 403.265 375.204 403.02 375.413C402.775 375.623 402.491 375.782 402.184 375.881C401.877 375.981 401.554 376.019 401.232 375.994C400.911 375.968 400.598 375.88 400.31 375.733Z" fill="#1BA8BB"/>
<path d="M408.156 357.785C407.694 357.635 407.286 357.352 406.985 356.971C406.684 356.59 406.503 356.128 406.465 355.644C406.426 355.159 406.532 354.675 406.769 354.251C407.007 353.827 407.364 353.483 407.797 353.262C408.229 353.041 408.718 352.954 409.2 353.011C409.683 353.068 410.137 353.267 410.507 353.582C410.876 353.898 411.143 354.316 411.275 354.783C411.407 355.25 411.397 355.747 411.247 356.208C411.046 356.827 410.607 357.341 410.028 357.636C409.448 357.932 408.775 357.986 408.156 357.785Z" fill="#1BA8BB"/>
<path d="M413.106 338.832C412.626 338.756 412.18 338.54 411.823 338.21C411.467 337.88 411.216 337.452 411.103 336.98C410.99 336.508 411.019 336.013 411.187 335.558C411.355 335.102 411.654 334.707 412.047 334.421C412.44 334.136 412.908 333.973 413.393 333.954C413.879 333.935 414.359 334.06 414.773 334.314C415.187 334.567 415.516 334.938 415.72 335.379C415.923 335.819 415.991 336.311 415.916 336.79C415.865 337.109 415.753 337.415 415.585 337.69C415.416 337.965 415.195 338.204 414.934 338.394C414.673 338.584 414.377 338.72 414.063 338.795C413.75 338.87 413.424 338.883 413.106 338.832Z" fill="#1BA8BB"/>
<path d="M413.875 299.783C413.395 299.859 412.904 299.792 412.463 299.588C412.022 299.385 411.651 299.056 411.397 298.642C411.143 298.228 411.018 297.748 411.037 297.262C411.056 296.777 411.219 296.308 411.504 295.915C411.79 295.523 412.185 295.223 412.641 295.055C413.096 294.887 413.592 294.858 414.064 294.971C414.536 295.085 414.964 295.336 415.294 295.692C415.623 296.049 415.84 296.495 415.915 296.975C415.966 297.293 415.953 297.619 415.878 297.932C415.803 298.246 415.667 298.541 415.477 298.802C415.288 299.063 415.049 299.284 414.774 299.452C414.499 299.62 414.194 299.733 413.875 299.783Z" fill="#1BA8BB"/>
<path d="M409.679 280.65C409.217 280.801 408.721 280.81 408.254 280.679C407.786 280.547 407.368 280.279 407.053 279.91C406.738 279.541 406.539 279.086 406.482 278.604C406.425 278.121 406.512 277.633 406.733 277.2C406.954 276.767 407.298 276.41 407.721 276.173C408.145 275.936 408.63 275.83 409.114 275.868C409.598 275.906 410.06 276.088 410.442 276.389C410.823 276.69 411.106 277.097 411.256 277.559C411.456 278.178 411.402 278.851 411.107 279.431C410.811 280.01 410.298 280.449 409.679 280.65Z" fill="#1BA8BB"/>
<path d="M402.541 262.409C402.108 262.63 401.62 262.717 401.138 262.66C400.656 262.603 400.201 262.404 399.832 262.089C399.462 261.774 399.195 261.356 399.063 260.889C398.931 260.421 398.941 259.926 399.091 259.464C399.241 259.002 399.524 258.595 399.905 258.294C400.287 257.993 400.748 257.812 401.232 257.774C401.717 257.736 402.201 257.842 402.625 258.079C403.049 258.316 403.392 258.674 403.613 259.106C403.908 259.687 403.962 260.36 403.76 260.98C403.559 261.599 403.121 262.113 402.541 262.409Z" fill="#1BA8BB"/>
<path d="M392.642 245.508C392.249 245.793 391.781 245.956 391.295 245.975C390.81 245.994 390.33 245.869 389.916 245.615C389.502 245.361 389.173 244.99 388.97 244.549C388.766 244.108 388.698 243.617 388.774 243.137C388.85 242.658 389.067 242.212 389.396 241.855C389.726 241.498 390.154 241.248 390.626 241.134C391.098 241.021 391.594 241.05 392.049 241.218C392.505 241.386 392.9 241.686 393.186 242.078C393.375 242.339 393.511 242.635 393.587 242.948C393.662 243.262 393.675 243.587 393.624 243.906C393.574 244.224 393.461 244.53 393.293 244.805C393.124 245.08 392.903 245.319 392.642 245.508Z" fill="#1BA8BB"/>
<path d="M365.57 217.356C365.285 217.749 364.889 218.049 364.434 218.217C363.978 218.385 363.483 218.414 363.011 218.301C362.539 218.187 362.111 217.936 361.781 217.58C361.452 217.223 361.235 216.777 361.159 216.297C361.083 215.818 361.151 215.326 361.354 214.885C361.558 214.445 361.887 214.074 362.301 213.82C362.715 213.566 363.195 213.441 363.68 213.46C364.165 213.479 364.634 213.641 365.027 213.927C365.553 214.31 365.906 214.886 366.008 215.529C366.11 216.172 365.953 216.829 365.57 217.356Z" fill="#1BA8BB"/>
<path d="M349.068 206.794C348.848 207.227 348.504 207.584 348.08 207.821C347.656 208.058 347.172 208.165 346.688 208.126C346.204 208.088 345.742 207.907 345.36 207.606C344.979 207.306 344.696 206.899 344.546 206.437C344.396 205.975 344.386 205.479 344.518 205.012C344.65 204.545 344.918 204.127 345.287 203.812C345.656 203.496 346.111 203.298 346.593 203.241C347.075 203.184 347.563 203.271 347.996 203.491C348.283 203.638 348.539 203.839 348.748 204.085C348.958 204.33 349.117 204.614 349.216 204.921C349.316 205.227 349.354 205.551 349.329 205.872C349.303 206.194 349.215 206.507 349.068 206.794Z" fill="#1BA8BB"/>
<path d="M331.129 198.943C330.979 199.405 330.696 199.812 330.315 200.114C329.933 200.415 329.472 200.596 328.987 200.634C328.503 200.673 328.018 200.567 327.595 200.329C327.171 200.092 326.827 199.735 326.606 199.302C326.385 198.869 326.298 198.381 326.355 197.899C326.412 197.416 326.611 196.962 326.926 196.592C327.241 196.223 327.659 195.955 328.127 195.824C328.594 195.692 329.09 195.702 329.552 195.852C330.171 196.053 330.685 196.492 330.98 197.071C331.276 197.651 331.329 198.324 331.129 198.943Z" fill="#F5CBCB"/>
<path d="M312.175 193.997C312.099 194.477 311.882 194.923 311.553 195.279C311.223 195.636 310.795 195.887 310.323 196C309.851 196.113 309.356 196.084 308.9 195.916C308.445 195.748 308.049 195.449 307.764 195.056C307.479 194.663 307.316 194.194 307.297 193.709C307.278 193.224 307.403 192.744 307.656 192.33C307.91 191.916 308.281 191.587 308.721 191.383C309.162 191.18 309.653 191.112 310.133 191.187C310.452 191.237 310.757 191.35 311.033 191.518C311.308 191.687 311.547 191.908 311.737 192.169C311.926 192.43 312.063 192.726 312.138 193.039C312.213 193.353 312.226 193.679 312.175 193.997Z" fill="#F5CBCB"/>
<path d="M290.222 207.511C289.575 207.511 288.954 207.253 288.496 206.796C288.038 206.338 287.781 205.717 287.781 205.07V192.083C287.781 191.436 288.038 190.815 288.496 190.357C288.954 189.9 289.575 189.643 290.222 189.643C290.869 189.643 291.49 189.9 291.948 190.357C292.405 190.815 292.662 191.436 292.662 192.083V205.081C292.659 205.727 292.401 206.345 291.944 206.8C291.486 207.255 290.867 207.511 290.222 207.511Z" fill="#1BA8BB"/>
<path d="M211.162 240.258C210.842 240.258 210.525 240.196 210.23 240.073C209.934 239.951 209.665 239.772 209.439 239.545L200.248 230.354C200.022 230.127 199.842 229.858 199.719 229.562C199.596 229.266 199.533 228.948 199.533 228.628C199.533 228.307 199.596 227.99 199.719 227.694C199.842 227.397 200.022 227.128 200.248 226.902C200.475 226.675 200.744 226.495 201.04 226.372C201.336 226.25 201.654 226.187 201.975 226.187C202.295 226.187 202.613 226.25 202.909 226.372C203.205 226.495 203.474 226.675 203.701 226.902L212.892 236.093C213.231 236.434 213.462 236.868 213.555 237.341C213.648 237.813 213.599 238.302 213.415 238.747C213.23 239.192 212.919 239.572 212.519 239.84C212.119 240.108 211.649 240.252 211.167 240.253L211.162 240.258Z" fill="#1BA8BB"/>
<path d="M178.415 319.317H165.417C164.77 319.317 164.149 319.06 163.691 318.602C163.234 318.144 162.977 317.523 162.977 316.876C162.977 316.229 163.234 315.608 163.691 315.15C164.149 314.693 164.77 314.436 165.417 314.436H178.415C179.063 314.436 179.683 314.693 180.141 315.15C180.599 315.608 180.856 316.229 180.856 316.876C180.856 317.523 180.599 318.144 180.141 318.602C179.683 319.06 179.063 319.317 178.415 319.317Z" fill="#1BA8BB"/>
<path d="M201.971 407.573C201.489 407.572 201.019 407.428 200.619 407.16C200.219 406.892 199.907 406.511 199.723 406.066C199.539 405.621 199.49 405.132 199.583 404.659C199.677 404.187 199.908 403.753 200.248 403.411L209.439 394.22C209.661 393.976 209.93 393.78 210.231 393.643C210.531 393.506 210.856 393.431 211.186 393.424C211.516 393.416 211.844 393.475 212.151 393.598C212.457 393.721 212.736 393.904 212.969 394.138C213.202 394.371 213.386 394.649 213.509 394.956C213.632 395.262 213.691 395.59 213.683 395.92C213.675 396.25 213.601 396.576 213.464 396.876C213.327 397.176 213.13 397.446 212.886 397.668L203.7 406.853C203.474 407.081 203.205 407.263 202.908 407.386C202.611 407.51 202.292 407.574 201.971 407.573Z" fill="#1BA8BB"/>
<path d="M290.222 444.127C289.575 444.127 288.954 443.869 288.496 443.412C288.038 442.954 287.781 442.333 287.781 441.686V428.688C287.781 428.04 288.038 427.42 288.496 426.962C288.954 426.504 289.575 426.247 290.222 426.247C290.869 426.247 291.49 426.504 291.948 426.962C292.405 427.42 292.662 428.04 292.662 428.688V441.686C292.662 442.333 292.405 442.954 291.948 443.412C291.49 443.869 290.869 444.127 290.222 444.127Z" fill="#1BA8BB"/>
<path d="M378.477 407.573C378.156 407.574 377.839 407.511 377.543 407.388C377.247 407.266 376.978 407.086 376.752 406.859L367.561 397.668C367.317 397.446 367.121 397.176 366.984 396.876C366.847 396.576 366.772 396.25 366.764 395.92C366.757 395.59 366.816 395.262 366.939 394.956C367.061 394.649 367.245 394.371 367.479 394.138C367.712 393.904 367.99 393.721 368.297 393.598C368.603 393.475 368.931 393.416 369.261 393.424C369.591 393.431 369.916 393.506 370.217 393.643C370.517 393.78 370.787 393.976 371.009 394.22L380.2 403.411C380.54 403.753 380.771 404.187 380.864 404.659C380.957 405.132 380.909 405.621 380.725 406.066C380.541 406.511 380.229 406.892 379.829 407.16C379.429 407.428 378.958 407.572 378.477 407.573Z" fill="#1BA8BB"/>
<path d="M415.033 319.317H402.038C401.391 319.317 400.77 319.06 400.312 318.602C399.855 318.144 399.598 317.523 399.598 316.876C399.598 316.229 399.855 315.608 400.312 315.15C400.77 314.693 401.391 314.436 402.038 314.436H415.037C415.684 314.436 416.305 314.693 416.762 315.15C417.22 315.608 417.477 316.229 417.477 316.876C417.477 317.523 417.22 318.144 416.762 318.602C416.305 319.06 415.684 319.317 415.037 319.317H415.033Z" fill="#1BA8BB"/>
<path d="M369.291 240.26C368.81 240.258 368.339 240.115 367.939 239.847C367.54 239.579 367.228 239.199 367.043 238.754C366.859 238.309 366.81 237.82 366.903 237.348C366.996 236.875 367.227 236.441 367.566 236.1L376.757 226.904C377.221 226.481 377.83 226.254 378.458 226.268C379.085 226.283 379.683 226.539 380.126 226.982C380.57 227.426 380.826 228.024 380.84 228.651C380.855 229.278 380.628 229.887 380.205 230.351L371.014 239.542C370.788 239.77 370.52 239.95 370.224 240.073C369.928 240.196 369.611 240.26 369.291 240.26Z" fill="#1BA8BB"/>
<path d="M281.93 328.105L214.192 375.01C212.417 376.182 210.53 373.697 212.22 372.311L277.521 322.062C277.915 321.743 278.37 321.507 278.858 321.369C279.346 321.232 279.857 321.194 280.359 321.26C280.862 321.326 281.346 321.493 281.783 321.751C282.219 322.01 282.598 322.354 282.897 322.763C283.196 323.173 283.409 323.639 283.522 324.133C283.636 324.627 283.648 325.139 283.557 325.638C283.467 326.137 283.276 326.612 282.996 327.035C282.717 327.458 282.354 327.82 281.93 328.098V328.105Z" fill="#424242"/>
<path d="M304.517 317.925C305.077 310.046 299.145 303.205 291.266 302.644C283.388 302.084 276.546 308.016 275.986 315.895C275.425 323.773 281.358 330.615 289.236 331.175C297.115 331.736 303.956 325.803 304.517 317.925Z" fill="#424242"/>
<path d="M296.986 320.533C298.981 316.805 297.577 312.165 293.849 310.169C290.12 308.173 285.48 309.578 283.485 313.306C281.489 317.034 282.893 321.674 286.622 323.67C290.35 325.666 294.99 324.261 296.986 320.533Z" fill="white"/>
<path d="M334.878 424.058C337.535 422.808 332.862 382.159 296.337 325.079C295.686 325.349 294.891 325.702 294.115 326.055C293.324 326.36 292.511 326.677 291.861 326.947C306.588 393.087 332.121 425.06 334.878 424.058Z" fill="#424242"/>
<path d="M233.242 260.92C231.452 262.837 241.882 287.581 279.207 309.954C279.651 309.51 280.195 308.948 280.722 308.4C281.249 307.852 281.832 307.33 282.276 306.885C259.902 269.56 235.159 259.117 233.242 260.92Z" fill="#424242"/>
<path d="M341.27 153.829C342.53 149.997 339.847 144.161 338.341 143.045C335.861 140.683 329.229 138.242 309.217 135.099C302.802 133.821 262.101 128.555 262.101 128.555C258.572 133.436 258.743 147.941 270.362 150.668C281.981 153.395 322.101 151.864 322.396 153.538C322.69 155.212 316.355 164.725 311.848 171.284C305.063 181.153 299.888 204.391 298.072 210.054C296.256 215.718 295.168 216.092 292.54 217.05C289.912 218.009 287.599 221.305 289.331 225.132C291.064 228.959 293.376 232.789 293.331 237.712C293.298 241.484 302.527 246.869 303.402 246.049C304.277 245.229 303.727 241.609 302.1 237.263C300.473 232.917 301.033 222.081 302.379 218.702C303.724 215.323 340.009 157.661 341.27 153.829Z" fill="#F6BE9D"/>
<path d="M240.909 136.165C237.415 141.845 238.803 157.848 251.857 159.9C264.911 161.952 305.549 158.299 309.19 158.734C312.832 159.168 314.444 172.432 315.443 185.656C316.442 198.881 328.108 222.52 330.472 228.665C332.836 234.81 332.157 235.889 330.561 238.543C328.965 241.196 329.076 245.897 333.228 247.996C337.38 250.095 342.827 252.685 345.593 255.818C348.359 258.952 359.884 257.335 360.074 256.02C360.264 254.706 357.269 251.966 352.845 249.34C348.421 246.714 341.384 236.974 340.2 233.133C339.015 229.291 330.291 154.355 328.719 150.175C327.148 145.996 328.501 142.338 293.485 139.492C286.285 138.614 240.909 136.165 240.909 136.165Z" fill="#F6BE9D"/>
<path d="M275.269 118.072C277.059 122.984 278.152 129.556 281.061 130.498C283.97 131.44 315.717 134.87 329.299 138.256C342.882 141.641 343.031 147.709 342.454 151.031C341.876 154.353 339.925 158.427 336.893 162.583C333.86 166.738 305.618 214.008 305.618 214.008L297.893 210.592C297.893 210.592 302.367 189.67 308.289 176.813C309.301 174.429 318.468 160.901 319.446 158.961C320.424 157.022 322.111 154.329 321.219 153.917C316.524 151.75 274.805 154.153 267.482 150.379C262.86 147.995 260.86 144.825 259.754 138.254C258.527 130.958 265.027 116.468 265.316 116.614C265.606 116.761 275.269 118.072 275.269 118.072Z" fill="#0A6E7B"/>
<path d="M248.054 116.615C246.622 120.473 241.627 128.951 239.268 136.164C236.909 143.377 237.804 151.661 242.226 155.698C246.648 159.735 250.986 163.2 275.146 160.818C299.306 158.436 308.838 158.977 309.598 159.735C310.358 160.493 312.216 161.814 313.073 169.497C313.931 177.18 315.015 187.687 315.882 192.671C316.749 197.654 323.608 215.243 325.559 219.069C327.51 222.896 330.543 230.265 330.543 230.265L339.716 228.296C339.716 228.296 330.471 153.705 329.532 150.311C328.594 146.917 326.571 144.532 321.804 143.232C317.037 141.932 275.507 134.934 272.831 133.193C270.154 131.452 269.943 117.52 269.943 117.52L248.054 116.615Z" fill="#0B545F"/>
<path d="M331.676 236.425C329.509 238.916 327.464 242.505 329.306 245.536C331.148 248.567 337.54 250.52 339.707 252.044C341.875 253.569 344.475 256.501 347.291 257.63C350.107 258.759 358.321 258.118 360.065 257.244C361.809 256.371 359.425 253.339 356.825 250.853C354.225 248.367 349.979 247.067 349.979 247.067C349.979 247.067 351.842 250.419 348.7 250.635C345.558 250.852 342.517 248.47 339.707 246.519C336.898 244.568 335.085 243.629 334.327 240.813C333.876 239.129 332.957 237.608 331.676 236.425Z" fill="#231F20"/>
<path d="M294.902 215.956C292.074 216.584 288.655 218.699 288.322 221.802C287.988 224.905 291.389 229.621 292.087 231.824C292.785 234.027 292.422 237.356 293.777 239.618C295.133 241.88 297.9 246.94 302.191 247.328C303.883 247.481 304.216 243.498 303.736 240.381C303.256 237.264 301.245 232.723 301.245 232.723C301.245 232.723 301.372 237.016 299.076 235.528C296.781 234.039 295.941 230.772 295.022 227.924C294.103 225.077 292.44 222.746 293.411 220.36C293.996 218.923 294.493 217.453 294.902 215.956Z" fill="#231F20"/>
<path d="M260.666 38.7175C260.577 36.9115 259.633 35.2715 258.689 33.729C257.176 31.2608 255.598 29.5541 252.575 29.323C250.297 29.149 248.039 30.8248 246.555 32.4144C246.174 32.8257 245.825 33.2651 245.51 33.729C244.816 34.426 244.301 35.2815 244.01 36.2217C243.857 36.7667 243.823 37.341 243.685 37.8894C243.547 38.4377 243.306 38.9437 243.337 39.4936C243.379 40.2193 243.892 40.8685 243.874 41.5941C243.864 42.0123 243.675 42.4076 243.693 42.8339C243.711 43.2602 244.093 43.7109 244.482 43.5596C244.202 43.4245 244.106 43.0714 244.134 42.7558C244.162 42.4402 244.279 42.1489 244.297 41.8398C244.3 41.7802 244.3 41.7204 244.297 41.6608C244.358 41.8414 244.422 42.022 244.49 42.1994C244.436 42.2552 244.396 42.3226 244.372 42.3965C244.348 42.4704 244.341 42.5487 244.352 42.6256C244.41 42.8519 244.527 43.0586 244.692 43.2244C244.873 43.444 245.063 43.6962 245.04 43.9793C245.019 44.0838 245.007 44.19 245.004 44.2966C245.027 44.487 245.201 44.622 245.346 44.744C245.64 45.0065 245.856 45.344 245.972 45.7203C246.067 46.0229 246.101 46.358 246.298 46.6021C246.503 46.7884 246.759 46.9087 247.033 46.947C247.16 47.3928 247.359 47.9818 247.621 48.1315C248.46 48.6115 249.332 49.1077 250.294 49.2086C251.107 49.3013 251.976 49.1175 252.72 49.4624C252.929 49.5879 253.152 49.6873 253.385 49.7585C253.917 49.861 254.399 49.4331 254.742 49.0231C254.865 48.8419 255.033 48.6961 255.23 48.6001C255.393 48.5565 255.561 48.5341 255.73 48.5334C255.94 48.5094 256.143 48.4409 256.324 48.3323C256.506 48.2237 256.662 48.0776 256.782 47.9037C256.994 47.5946 257.083 47.209 257.319 46.9177C257.555 46.6265 257.882 46.4785 258.161 46.2523C258.502 45.9742 258.754 45.6011 258.885 45.1801C258.898 45.1378 258.909 45.0938 258.919 45.0515C258.929 45.0092 258.964 44.9881 258.985 44.9539C259.474 44.1632 259.745 43.2716 260.015 42.3865C260.377 41.1906 260.728 39.9638 260.666 38.7175Z" fill="#424242"/>
<path d="M259.523 39.2744C260.824 48.8739 256.068 55.8376 256.068 55.8376C256.068 55.8376 267.794 57.5948 270.913 57.5948C269.158 52.0629 271.45 44.4939 271.45 44.4939L259.523 39.2744Z" fill="#F6BE9D"/>
<path d="M283.138 34.8166C276.019 48.6561 268.084 52.1005 258.486 40.8366C252.661 34.0031 247.668 18.6895 256.291 10.5039C265 2.16373 273.599 4.48387 280.563 9.295C287.981 14.4234 288.181 25.0186 283.138 34.8166Z" fill="#F6BE9D"/>
<path d="M276.605 7.56736C275.423 6.34383 274.136 5.16912 272.576 4.48902C269.146 2.99215 265.17 4.16361 261.73 5.64096C259.592 6.5586 257.468 7.6178 255.79 9.23019C253.512 11.4185 252.248 14.4367 251.267 17.4418C250.649 19.334 250.115 21.2767 250.021 23.2649C249.912 25.629 250.426 27.9719 250.938 30.2823C251.467 32.6659 252.03 35.1276 253.481 37.0914C254.335 38.2466 255.457 39.1708 256.573 40.0836L259.692 42.6461C265.012 38.1246 260.759 33.2582 263.828 29.2931C265.053 27.7116 265.292 27.4122 266.685 27.2154C266.831 28.3771 266.865 29.7454 267.485 30.7948C267.621 31.055 267.818 31.2783 268.059 31.4457C268.761 31.8719 269.687 31.3708 270.175 30.7102C270.749 29.9341 270.996 28.9709 271.353 28.0712C272.568 24.9994 274.704 22.9103 277.285 19.6936C277.356 19.6399 277.428 19.5862 277.498 19.5309C278.52 18.693 280.609 17.2287 281.055 15.9401C281.971 13.2815 278.228 9.24646 276.605 7.56736ZM270.684 24.8139C270.643 24.9881 270.588 25.1589 270.521 25.3248C270.219 25.9597 269.727 26.4854 269.114 26.8298C268.978 26.9241 268.819 26.9803 268.653 26.9925C268.526 26.9844 268.401 26.9512 268.286 26.8948L268.012 26.7842C268.714 26.436 269.591 25.834 270.684 24.8139ZM273.259 23.0111C272.012 25.1263 271.406 27.1405 269.986 29.1402C269.633 29.6283 269.172 30.1652 268.564 30.1701C267.845 30.1701 267.34 29.4298 267.207 28.7236C267.14 28.3673 267.056 27.6872 266.95 27.1666C267.148 27.1228 267.343 27.0646 267.532 26.9925C267.594 27.0917 267.663 27.1863 267.739 27.2756C267.898 27.4551 268.106 27.584 268.337 27.6462C268.569 27.7084 268.813 27.7011 269.041 27.6254C269.314 27.4987 269.559 27.3164 269.758 27.0901C270.303 26.5532 270.851 26.0114 271.25 25.3589C271.491 24.9668 271.671 24.5454 271.886 24.1354C272.143 23.653 272.437 23.1917 272.766 22.7557C272.911 22.5604 273.162 22.3359 273.325 22.1049C273.802 21.7058 274.322 21.3605 274.875 21.075C274.256 21.6487 273.713 22.2994 273.259 23.0111Z" fill="#424242"/>
<path d="M266.855 28.6739C266.855 31.0868 265.47 34.2807 263.763 34.2807C262.056 34.2807 260.672 31.0868 260.672 28.6739C260.672 26.261 262.056 24.3086 263.763 24.3086C265.47 24.3086 266.855 26.2627 266.855 28.6739Z" fill="#F6BE9D"/>
<path d="M286.694 14.4828C286.427 13.9098 286.045 13.3972 285.573 12.9761C285.145 12.6247 284.628 12.3969 284.177 12.0764C283.349 11.4842 282.783 10.6121 282.142 9.81483C281.114 8.54879 279.864 7.48034 278.453 6.66164C277.736 6.24675 276.677 6.18492 275.871 5.98317C275.383 5.85789 274.693 5.83186 274.536 6.30858C274.506 6.44117 274.513 6.57937 274.556 6.70816C274.6 6.83696 274.677 6.95142 274.781 7.03911C274.991 7.21103 275.213 7.3666 275.447 7.50444C276.485 8.23823 276.818 9.64073 277.725 10.534C278.188 10.9895 278.802 11.3149 279.119 11.8844C279.313 12.2326 279.373 12.6393 279.498 13.0233C279.71 13.6597 280.106 14.2187 280.637 14.6292C280.962 14.8765 281.324 15.062 281.634 15.3223C282.373 15.9406 282.726 16.9038 282.952 17.841C283.178 18.7781 283.317 19.7527 283.754 20.6069C284.054 21.1959 284.49 21.7198 284.688 22.3495C284.981 23.2801 284.714 24.2791 284.589 25.2456C284.325 27.2647 284.719 28.1222 284.589 30.1527C284.589 30.1869 284.589 30.2243 284.581 30.2617C284.573 30.2991 284.581 30.3382 284.569 30.3756C284.433 31.7241 284.188 33.0593 283.837 34.3683C283.302 36.2524 282.399 38.0747 280.974 39.4121C282.788 38.2732 284.034 36.3907 284.773 34.383C285.336 32.7997 285.711 31.1553 285.887 29.484C286.759 27.1736 287.534 24.8128 287.84 22.3641C288.181 19.6974 287.926 16.8843 286.694 14.4828Z" fill="#424242"/>
<path d="M255.736 29.4845C255.698 29.4843 255.661 29.4708 255.632 29.4466C255.604 29.4224 255.584 29.3888 255.577 29.3517C255.57 29.3145 255.576 29.2762 255.595 29.2431C255.613 29.2101 255.642 29.1844 255.677 29.1705C256.94 28.6824 257.467 27.1823 257.935 25.8595L257.978 25.7407C258.445 24.4212 259.159 22.7861 260.545 21.8505C261.167 21.4324 261.881 21.1818 262.571 20.941L262.711 20.8922C264.242 20.3536 265.768 19.7435 267.245 19.0764C268.018 18.7282 268.828 18.3426 269.492 17.7748C270.156 17.207 270.651 16.5155 271.145 15.8224C271.409 15.453 271.684 15.0691 271.978 14.7127C272.606 13.9513 273.898 12.7017 275.493 12.8628C275.536 12.8671 275.576 12.8884 275.603 12.922C275.63 12.9555 275.643 12.9986 275.639 13.0418C275.635 13.0849 275.614 13.1246 275.58 13.1521C275.546 13.1795 275.503 13.1925 275.46 13.1882C274.011 13.0385 272.815 14.21 272.229 14.921C271.941 15.2692 271.671 15.6483 271.415 16.0127C270.911 16.7189 270.389 17.4478 269.709 18.0221C269.029 18.5965 268.179 18.9983 267.385 19.3628C265.9 20.0331 264.365 20.6481 262.83 21.1883L262.69 21.2371C262.019 21.473 261.325 21.7155 260.737 22.1108C259.436 22.9927 258.744 24.566 258.297 25.8384L258.256 25.9571C257.768 27.3466 257.21 28.92 255.815 29.4634C255.791 29.4763 255.764 29.4835 255.736 29.4845Z" fill="#231F20"/>
<path d="M253.885 19.5752C253.846 19.5758 253.808 19.5625 253.779 19.5377C253.749 19.513 253.729 19.4784 253.722 19.4402C253.49 18.0458 253.33 16.5929 254.155 15.5125C254.363 15.2558 254.597 15.0209 254.853 14.8113C255.016 14.6648 255.191 14.5152 255.341 14.3541C255.761 13.9018 256.059 13.3209 256.347 12.758C256.752 11.9689 257.17 11.1537 257.933 10.6607C258.55 10.2637 259.277 10.1547 259.98 10.049C260.444 9.99368 260.902 9.89509 261.348 9.75447C262.303 9.41767 263.035 8.7148 263.811 7.96474C264.544 7.26186 265.302 6.53458 266.252 6.15222C268.53 5.24434 270.952 6.50692 273.229 8.00867C273.264 8.03252 273.289 8.0695 273.298 8.11155C273.306 8.1536 273.298 8.19732 273.274 8.2332C273.263 8.25121 273.247 8.26673 273.23 8.27887C273.212 8.291 273.192 8.29951 273.171 8.30389C273.15 8.30828 273.128 8.30846 273.107 8.30443C273.086 8.30039 273.066 8.29222 273.048 8.28038C270.847 6.82744 268.514 5.60066 266.377 6.45485C265.478 6.8128 264.75 7.5173 264.033 8.19903C263.266 8.93445 262.474 9.69589 261.454 10.0571C260.988 10.2043 260.51 10.3072 260.025 10.3646C259.326 10.4704 258.665 10.5696 258.107 10.9292C257.416 11.375 257.035 12.1169 256.633 12.9011C256.335 13.4836 256.026 14.0856 255.575 14.5705C255.413 14.7429 255.235 14.8959 255.065 15.0586C254.826 15.2528 254.608 15.4709 254.414 15.7094C253.667 16.6856 253.822 18.0621 254.043 19.3865C254.05 19.429 254.04 19.4725 254.015 19.5076C253.99 19.5427 253.952 19.5664 253.909 19.5736L253.885 19.5752Z" fill="#231F20"/>
<path d="M256.76 17.4539C256.73 17.4537 256.7 17.4453 256.675 17.4295C256.638 17.407 256.612 17.3709 256.602 17.3291C256.592 17.2874 256.599 17.2433 256.621 17.2066C257.08 16.4533 257.575 15.7081 258.086 14.989C258.265 14.74 258.465 14.4911 258.775 14.4195C258.96 14.3887 259.15 14.3987 259.33 14.4488C259.386 14.4618 259.443 14.4732 259.493 14.4813C259.766 14.517 260.044 14.4707 260.29 14.3485C260.537 14.2263 260.742 14.0335 260.879 13.7947C260.907 13.7427 260.933 13.6884 260.957 13.632C261.01 13.51 261.076 13.3943 261.154 13.2871C261.445 12.9178 261.899 12.8527 262.339 12.7892C262.544 12.7666 262.746 12.7252 262.944 12.6656C262.984 12.655 263.026 12.66 263.063 12.6795C263.099 12.699 263.126 12.7316 263.14 12.7707C263.153 12.8097 263.151 12.8524 263.134 12.89C263.117 12.9275 263.086 12.9572 263.048 12.9731C262.831 13.0394 262.609 13.0857 262.384 13.1114C261.992 13.1683 261.621 13.222 261.408 13.4889C261.343 13.5761 261.288 13.6705 261.245 13.7703C261.218 13.8305 261.188 13.8907 261.157 13.9493C260.987 14.2454 260.733 14.4843 260.427 14.6361C260.121 14.7878 259.776 14.8455 259.438 14.8019C259.376 14.7921 259.312 14.7791 259.251 14.7661C259.122 14.731 258.989 14.7211 258.857 14.7368C258.657 14.784 258.5 14.9808 258.359 15.1793C257.848 15.892 257.358 16.6323 256.895 17.3775C256.88 17.4004 256.86 17.4195 256.837 17.4328C256.813 17.4462 256.787 17.4534 256.76 17.4539Z" fill="#231F20"/>
<path d="M257.816 41.2737C257.778 41.2734 257.742 41.2602 257.713 41.2363C257.692 41.2184 255.577 39.4709 254.64 38.633C253.664 37.7479 251.7 34.3165 250.992 31.1584C250.987 31.1371 250.987 31.115 250.991 31.0935C250.995 31.0719 251.003 31.0513 251.015 31.0329C251.026 31.0145 251.042 30.9985 251.06 30.986C251.077 30.9735 251.098 30.9646 251.119 30.9599C251.14 30.9552 251.163 30.9548 251.184 30.9586C251.206 30.9625 251.226 30.9705 251.245 30.9823C251.263 30.9941 251.279 31.0094 251.291 31.0273C251.304 31.0453 251.313 31.0655 251.318 31.0869C252.012 34.1782 253.913 37.5348 254.866 38.3906C255.82 39.2464 257.907 40.9727 257.928 40.9938C257.954 41.0152 257.973 41.044 257.981 41.0764C257.99 41.1087 257.989 41.1429 257.977 41.1744C257.966 41.206 257.945 41.2332 257.918 41.2524C257.89 41.2716 257.858 41.2819 257.824 41.2818L257.816 41.2737Z" fill="#231F20"/>
<path d="M251.268 47.0262L251.391 46.7627C251.438 46.6634 251.347 46.5186 251.229 46.4552C251.1 46.3945 250.963 46.3565 250.822 46.3429L250.679 46.3185C250.294 46.2412 249.933 46.0765 249.623 45.8373C249.312 45.5981 249.061 45.2906 248.889 44.9388L248.851 44.859C248.764 44.6719 248.689 44.4962 248.539 44.4474C248.517 44.4417 248.497 44.4316 248.48 44.4178C248.462 44.404 248.448 44.3867 248.437 44.3671C248.427 44.3474 248.42 44.3258 248.419 44.3036C248.417 44.2814 248.419 44.259 248.427 44.2379C248.434 44.2168 248.445 44.1974 248.46 44.1809C248.475 44.1644 248.493 44.1511 248.514 44.1419C248.534 44.1327 248.556 44.1278 248.578 44.1274C248.6 44.1271 248.623 44.1313 248.643 44.1399C248.918 44.2326 249.045 44.5043 249.146 44.7207L249.182 44.7988C249.333 45.105 249.552 45.3724 249.822 45.5805C250.093 45.7887 250.407 45.9321 250.742 45.9996L250.875 46.0224C251.054 46.041 251.229 46.0917 251.39 46.1721C251.476 46.2216 251.55 46.2898 251.606 46.3718C251.662 46.4537 251.7 46.5473 251.715 46.6455C252.691 46.5235 253.591 46.3348 254.146 45.6693C254.491 45.2593 254.66 44.6931 254.823 44.1513C255.042 43.411 255.272 42.6463 255.945 42.2249C255.982 42.202 256.026 42.1946 256.068 42.2044C256.11 42.2142 256.147 42.2403 256.17 42.2769C256.193 42.3136 256.2 42.3579 256.19 42.4C256.181 42.4421 256.154 42.4786 256.118 42.5015C255.548 42.8562 255.347 43.5298 255.142 44.244C254.969 44.82 254.792 45.4171 254.403 45.8792C253.733 46.6732 252.629 46.8554 251.556 46.9872L251.268 47.0262Z" fill="#231F20"/>
<path d="M245.895 40.7888C245.857 40.7898 245.821 40.7778 245.791 40.755C245.761 40.7322 245.74 40.6999 245.732 40.6635C245.579 39.9936 245.68 39.2906 246.017 38.6915C246.104 38.537 246.207 38.3889 246.308 38.2457C246.523 37.9398 246.724 37.6502 246.767 37.3134C246.781 37.1113 246.767 36.9082 246.726 36.7098C246.701 36.5731 246.684 36.4351 246.674 36.2965C246.652 35.8956 246.747 35.4969 246.947 35.149C247.148 34.801 247.445 34.5187 247.802 34.3364C248.16 34.154 248.563 34.0795 248.962 34.1219C249.362 34.1643 249.74 34.3218 250.052 34.5751C250.069 34.5882 250.084 34.6047 250.096 34.6237C250.107 34.6427 250.114 34.6637 250.117 34.6856C250.12 34.7075 250.118 34.7297 250.112 34.7509C250.106 34.7721 250.096 34.7919 250.082 34.809C250.068 34.8261 250.051 34.8402 250.031 34.8504C250.011 34.8607 249.99 34.8668 249.968 34.8685C249.946 34.8703 249.924 34.8675 249.903 34.8604C249.882 34.8533 249.863 34.8421 249.847 34.8273C249.584 34.6138 249.265 34.4811 248.928 34.4454C248.592 34.4097 248.252 34.4725 247.951 34.6262C247.649 34.7799 247.399 35.0179 247.23 35.3112C247.061 35.6046 246.981 35.9407 246.999 36.2786C247.008 36.4063 247.024 36.5334 247.047 36.6594C247.093 36.8878 247.108 37.1217 247.089 37.3541C247.037 37.769 246.801 38.1058 246.575 38.4328C246.476 38.5678 246.384 38.7079 246.3 38.8526C246.003 39.3805 245.913 39.9998 246.048 40.5903C246.057 40.6321 246.049 40.6759 246.026 40.7122C246.003 40.7484 245.967 40.7742 245.925 40.7839C245.915 40.7867 245.905 40.7883 245.895 40.7888Z" fill="#231F20"/>
<path d="M247.794 42.8517C247.78 42.8533 247.766 42.8533 247.753 42.8517C247.711 42.841 247.676 42.8143 247.654 42.7774C247.632 42.7405 247.625 42.6965 247.636 42.6549C247.681 42.529 247.764 42.4208 247.875 42.3459C247.986 42.271 248.117 42.2333 248.251 42.2383C248.379 42.239 248.508 42.2542 248.633 42.2839C248.705 42.2969 248.778 42.3116 248.851 42.3181C249.176 42.3227 249.498 42.2607 249.798 42.1358C250.208 41.9959 250.675 41.8381 250.986 41.5176C251.297 41.197 251.422 40.7887 251.552 40.4079L252.273 38.2928C252.287 38.2524 252.316 38.2192 252.355 38.2003C252.393 38.1814 252.437 38.1784 252.478 38.1919C252.498 38.1987 252.517 38.2094 252.533 38.2235C252.549 38.2376 252.562 38.2547 252.572 38.2739C252.581 38.2931 252.587 38.314 252.589 38.3354C252.59 38.3568 252.587 38.3782 252.58 38.3985L251.859 40.5137C251.718 40.9269 251.558 41.3955 251.218 41.7453C250.852 42.1228 250.348 42.2937 249.902 42.445C249.56 42.5875 249.191 42.6551 248.82 42.6435C248.737 42.6353 248.657 42.6207 248.571 42.6044C248.469 42.5784 248.363 42.5653 248.257 42.5654C248.13 42.5654 247.979 42.6288 247.951 42.7362C247.941 42.77 247.92 42.7995 247.892 42.8203C247.863 42.8412 247.829 42.8522 247.794 42.8517Z" fill="#231F20"/>
<path d="M263.304 36.5677C263.398 36.8817 263.919 38.0808 263.955 38.4062C263.998 38.7969 263.957 39.1923 263.835 39.566C263.713 39.9397 263.513 40.2831 263.248 40.5734C263.574 39.7258 263.997 38.5999 263.045 37.0835C262.6 36.4166 262.317 35.655 262.219 34.8593C262.114 34.1727 261.953 34.0995 262.572 33.7529C263.146 34.8268 262.947 35.4011 263.304 36.5677Z" fill="#A65665"/>
<path d="M293.482 132.088L258.153 135.529L258.066 138.17L299.575 144.211L331.359 138.394L293.482 132.088Z" fill="#5994C2"/>
<path d="M296.028 130.371L258.15 135.529L299.659 141.57L331.443 135.755L296.028 130.371Z" fill="#75AED9"/>
<path d="M321.978 135.785L318.808 136.363H318.802L316.852 136.721H316.846L313.663 137.307L312.272 137.56H312.266L308.968 138.164L307.421 138.447H307.414L304.674 138.952L302.73 139.308H302.727L298.404 140.099L296.122 139.763H296.116L293.897 139.441L290.184 138.903L287.968 138.581H287.958L284.309 138.047H284.302L282.094 137.722H282.088L278.848 137.251L276.64 136.929H276.637L273.982 136.542L271.75 136.218L267.615 135.616L273.518 134.811H273.528L275.793 134.502H275.796L278.978 134.069L281.246 133.76L284.621 133.303H284.627L286.883 132.993L289.941 132.577H289.945L292.203 132.269L295.709 131.791L298.579 132.227L300.758 132.557L303.143 132.922H303.146L305.314 133.25H305.32L308.48 133.73H308.486L310.466 134.033L314.223 134.609H314.233L315.077 134.736L321.978 135.785Z" fill="#5994C2"/>
<path d="M300.756 132.557L297.369 133.064H297.362L295.195 133.387L292.267 133.821L290.094 134.143H290.091L286.865 134.625H286.862L284.694 134.95H284.691L281.642 135.401H281.639L279.467 135.726L273.98 136.541L271.748 136.218L277.296 135.391L279.473 135.069H279.476L282.522 134.615L284.698 134.293H284.701L287.931 133.811H287.934L290.094 133.488H290.099L293.026 133.051H293.03L295.198 132.729L298.578 132.227L300.756 132.557Z" fill="#75AED9"/>
<path d="M305.318 133.25L301.925 133.762H301.922L299.77 134.087H299.763L296.869 134.53H296.865L294.713 134.855H294.709L291.503 135.339L289.347 135.664L286.32 136.123H286.317L284.163 136.447L278.852 137.25L276.645 136.928L282.01 136.116H282.014L284.17 135.791L287.196 135.332L289.35 135.008L292.559 134.524H292.562L294.709 134.198H294.716L297.612 133.756H297.615L299.763 133.432H299.766L303.147 132.921H303.15L305.318 133.25Z" fill="#75AED9"/>
<path d="M315.133 135.127L312.936 135.459H312.933L310.781 135.788H310.777L307.878 136.227H307.875L305.721 136.551L302.512 137.036H302.509L300.364 137.361H300.361L297.332 137.819H297.328L295.181 138.144H295.177L290.181 138.902L287.965 138.58L293.022 137.812L295.174 137.488L298.207 137.029L300.355 136.704L303.563 136.221H303.566L305.714 135.892H305.721L308.617 135.453H308.623L310.777 135.127L314.22 134.608H314.23L315.074 134.735L315.133 135.127Z" fill="#75AED9"/>
<path d="M310.472 134.088L307.22 134.58H307.213L305.069 134.908H305.064L302.163 135.346L300.004 135.672L296.8 136.156H296.797L294.648 136.48H294.644L291.618 136.939H291.615L289.47 137.268H289.464L284.306 138.047H284.3L282.092 137.722L287.306 136.932H287.31L289.461 136.607L292.487 136.15H292.49L294.641 135.824L297.85 135.34L300.004 135.016H300.007L302.906 134.577H302.913L305.057 134.248H305.061L308.477 133.73H308.484L310.464 134.033L310.472 134.088Z" fill="#75AED9"/>
<path d="M319.247 136.267L318.702 136.347L316.542 136.676L313.643 137.115L311.482 137.44L308.274 137.924L306.129 138.249L303.093 138.708L300.946 139.037L296.118 139.764H296.112L293.893 139.442L298.787 138.701L300.938 138.376L303.97 137.917L306.12 137.593L309.327 137.109L311.486 136.783L314.385 136.344L316.542 136.017L319.149 135.623L319.247 136.267Z" fill="#75AED9"/>
<path d="M304.674 138.95L302.729 139.306H302.726L300.956 139.035H300.949L298.79 138.699H298.787L295.183 138.143H295.18L293.024 137.811L289.472 137.266H289.466L287.312 136.931H287.308L284.158 136.446L282.009 136.116H282.006L279.468 135.725L277.297 135.39L273.527 134.809L275.792 134.5H275.795L279.474 135.068H279.477L281.64 135.4H281.643L284.165 135.79L286.313 136.122H286.316L289.462 136.605L291.617 136.937H291.62L295.177 137.487L297.331 137.818H297.334L300.94 138.374H300.941L303.094 138.706H303.097L304.674 138.95Z" fill="#75AED9"/>
<path d="M308.985 138.033L308.966 138.163L307.419 138.446H307.412L306.132 138.248H306.128L303.973 137.916H303.969L300.365 137.361H300.362L298.208 137.029L294.648 136.479H294.645L292.491 136.149H292.487L289.341 135.664L287.19 135.332L284.694 134.95H284.691L282.522 134.615L278.977 134.068L281.245 133.759L284.697 134.292H284.7L286.861 134.624H286.864L289.344 135.008L291.497 135.339L294.642 135.823L296.797 136.155H296.801L300.356 136.704L302.51 137.036H302.513L306.119 137.592H306.122L308.273 137.922H308.276L308.985 138.033Z" fill="#75AED9"/>
<path d="M286.883 132.994L290.096 133.489H290.101L292.268 133.822L294.705 134.2H294.712L296.861 134.532H296.864L300.006 135.017H300.01L302.165 135.347L305.717 135.894H305.724L307.878 136.229H307.881L311.49 136.783H311.493L313.647 137.115H313.651L313.693 137.122L313.664 137.307L312.272 137.561H312.266L311.487 137.441H311.483L309.331 137.109L305.724 136.552L303.569 136.222H303.566L300.006 135.672L297.852 135.34L294.709 134.857H294.705L292.558 134.525H292.554L290.096 134.144H290.093L287.935 133.813H287.932L284.628 133.303H284.621L286.883 132.994Z" fill="#75AED9"/>
<path d="M318.798 136.363L316.849 136.721H316.843L316.543 136.676L314.389 136.344H314.386L310.78 135.789H310.777L308.623 135.454H308.616L305.068 134.909H305.063L302.912 134.577H302.906L299.762 134.089H299.756L297.608 133.757H297.605L295.193 133.387L293.028 133.052H293.025L289.941 132.577L292.2 132.27L295.197 132.73L297.361 133.065H297.367L299.756 133.433H299.759L301.915 133.763H301.918L305.056 134.248H305.06L307.212 134.58H307.219L310.777 135.128L312.933 135.46H312.936L316.54 136.017H316.543L318.696 136.347H318.702L318.798 136.363Z" fill="#75AED9"/>
<path d="M285.542 129.615C286.626 130.917 291.074 129.725 292.91 129.615C294.745 129.506 298.539 133.457 300.602 134.41C303.098 135.567 301.115 136.514 298.868 134.492C300.142 135.413 302.447 136.036 302.228 136.578C301.726 137.827 298.394 136.164 298.394 136.164C298.394 136.164 300.072 136.844 300.612 136.96C301.347 137.123 301.536 139.15 296.891 137.417C297.799 137.674 298.487 138.024 298.124 138.486C297.945 138.714 296.823 138.811 295.082 137.58C293.056 136.145 292.828 136.306 291.141 135.756C290.576 135.572 286.987 136.586 285.284 135.792C283.58 134.998 281.963 133.325 281.963 133.325L285.542 129.615Z" fill="#F6BE9D"/>
<path d="M293.398 126.388C294.093 127.094 295.078 127.706 295.782 128.553C296.487 129.401 299.314 131.42 301.115 132.909C302.917 134.398 303.852 131.134 303.636 129.237C303.419 127.34 303.473 126.583 301.74 125.932C300.007 125.281 298.244 123.806 298.244 123.806L293.398 126.388Z" fill="#F6BE9D"/>
<path d="M294.488 127.166C295.03 128.554 295.412 129.073 296.429 130.368C297.518 131.754 299.358 133.236 299.683 132.971C300.093 132.646 297.75 129.138 297.75 129.138L294.488 127.166Z" fill="#F6BE9D"/>
<path d="M298.246 142.857L311.676 96.3486L341.639 97.3346L343.624 98.3352L328.587 136.993L298.246 142.857Z" fill="#5994C2"/>
<path d="M299.572 144.209L313.003 97.7002L343.621 98.3347L331.356 138.392L299.572 144.209Z" fill="#75AED9"/>
<path d="M322.545 119.356C322.627 119.193 322.72 119.035 322.822 118.883C323.233 118.165 323.472 118.006 323.651 117.405V117.392C323.693 117.267 323.743 117.146 323.801 117.028C323.901 116.824 324.029 116.635 324.182 116.467C324.537 116.079 324.974 115.874 325.357 115.931C325.449 115.944 325.539 115.973 325.622 116.017C325.947 116.195 326.133 116.587 326.139 117.054C326.141 117.218 326.123 117.382 326.087 117.542C326.046 117.823 325.949 117.936 326.193 118.795H326.181C326.232 118.995 326.26 119.2 326.263 119.407C326.262 120.005 326.12 120.595 325.848 121.128C325.16 122.503 323.861 123.224 322.949 122.737C322.512 122.506 322.242 122.041 322.153 121.47C322.065 120.742 322.202 120.004 322.545 119.356Z" fill="#A8CFED"/>
<path d="M326.124 114.537C326.089 114.233 326.162 113.926 326.33 113.67C326.498 113.415 326.752 113.226 327.045 113.139C327.587 112.957 328.436 113.045 328.436 113.045C328.436 113.045 328.164 114.668 326.124 114.537Z" fill="#A8CFED"/>
<path d="M325.564 115.409C325.696 114.884 325.841 114.27 325.527 113.771C325.51 113.748 325.485 113.732 325.456 113.728C325.428 113.723 325.399 113.73 325.376 113.747C325.353 113.764 325.338 113.789 325.333 113.818C325.329 113.846 325.336 113.875 325.353 113.898C325.642 114.293 325.541 114.911 325.45 115.378C325.446 115.393 325.448 115.41 325.456 115.423C325.464 115.437 325.477 115.447 325.492 115.451C325.507 115.455 325.523 115.453 325.537 115.445C325.55 115.437 325.56 115.424 325.564 115.409Z" fill="#A8CFED"/>
<path d="M276.452 121.781C263.954 124.3 250.024 122.137 246.205 121.456C248.288 116.716 249.981 111.672 249.76 105.825C249.272 92.6459 242.188 78.5623 239.51 68.6017L239.5 68.5626C238.661 65.442 238.255 62.7313 238.622 60.5804C238.627 60.5568 238.632 60.5329 238.635 60.5088C238.931 58.8411 239.695 57.5151 241.093 56.6039C245.899 53.4589 273.025 55.0973 277.39 59.0982C281.756 63.099 277.716 65.468 280.563 76.8637C283.492 88.5637 276.88 88.8826 275.148 110.148C274.842 113.853 274.592 117.692 276.452 121.781Z" fill="#F6BE9D"/>
<path d="M282.798 75.627C284.099 84.1494 284.086 97.6782 285.386 102.301C285.549 103.994 298.24 123.805 298.24 123.805L293.837 126.734C293.837 126.734 284.563 119.695 277.346 105.244C274.877 100.306 273.115 74.8965 273.115 74.8965L282.798 75.627Z" fill="#F6BE9D"/>
<path d="M274.79 57.5479C274.79 57.5479 279.223 59.5214 280.972 61.399C282.721 63.2766 283.444 75.5542 284.389 77.7214C282.512 79.0946 275.794 79.599 272.4 78.5886C269.006 77.5782 274.79 57.5479 274.79 57.5479Z" fill="white"/>
<path d="M276.639 121.746C276.579 121.759 276.514 121.772 276.452 121.782C263.955 124.301 250.024 122.138 246.206 121.457C245.555 121.339 245.192 121.265 245.192 121.265C245.192 121.265 249.452 115.038 249.069 105.826C248.565 93.6442 240.771 74.1767 239.507 68.6025L239.497 68.5635C238.889 65.8789 238.295 62.9893 238.619 60.5813C238.625 60.5577 238.629 60.5338 238.632 60.5097C238.993 57.9959 240.378 56.0207 243.838 55.3732C248.28 54.545 254.014 55.1047 255.594 54.4897C257.173 53.8747 258.301 49.2344 258.301 49.2344C260.631 50.8077 268.594 51.8897 271.088 51.2942C271.14 53.9463 270.525 55.1584 271.464 55.9524C272.402 56.7464 278.025 58.4287 280.3 61.1361C282.575 63.8435 279.862 69.3851 280.463 72.5839C281.063 75.7826 281.984 79.354 281.981 82.3347C281.977 85.3154 276.345 98.3121 276.237 104.379C276.13 110.446 275.72 117.251 276.639 121.746Z" fill="white"/>
<path d="M255.22 78.0479C256.18 86.4987 257.696 104.266 258.889 106.217C260.081 108.167 282.83 125.933 285.538 129.617L281.958 133.326C281.958 133.326 252.535 115.466 249.743 112.9C246.951 110.335 240.889 77.1807 240.889 77.1807L255.22 78.0479Z" fill="#F6BE9D"/>
<path d="M236.592 65.0441C236.659 71.2788 238.481 77.4827 237.485 83.7549C243.702 83.859 250.688 84.1015 255.857 80.6489C255.309 73.1532 255.677 63.0981 249.859 57.4702C244.719 52.4997 236.811 56.7234 236.592 65.0441Z" fill="white"/>
<path d="M269.666 72.7517C269.341 72.7517 268.758 72.5223 267.624 71.5868C263.588 68.2579 254.283 56.9354 255.075 54.5371C255.08 54.5152 255.09 54.4946 255.104 54.4766C255.117 54.4586 255.134 54.4436 255.154 54.4326C255.174 54.4217 255.196 54.4149 255.218 54.4128C255.241 54.4107 255.263 54.4133 255.285 54.4205C255.306 54.4276 255.326 54.4391 255.343 54.4543C255.359 54.4694 255.373 54.4879 255.382 54.5085C255.391 54.5291 255.396 54.5515 255.396 54.574C255.396 54.5966 255.391 54.6189 255.382 54.6397C254.684 56.7548 263.518 67.7763 267.831 71.3362C269.276 72.5272 269.689 72.4507 269.783 72.3987C271.537 71.4225 272.66 57.6855 272.224 56.4652C272.209 56.4246 272.211 56.3799 272.23 56.3408C272.248 56.3018 272.281 56.2716 272.321 56.2569C272.362 56.2423 272.407 56.2443 272.446 56.2626C272.485 56.2809 272.515 56.314 272.53 56.3545C273 57.6562 271.858 71.6128 269.948 72.6818C269.862 72.7306 269.765 72.7549 269.666 72.7517Z" fill="#E7B25B"/>
<path d="M271.281 73.2234C271.571 74.6877 271.107 76.0186 270.248 76.1878C269.389 76.3571 268.458 75.3044 268.167 73.8368C267.876 72.3692 268.341 71.0416 269.202 70.8723C270.062 70.7031 270.993 71.7558 271.281 73.2234Z" fill="#E7B25B"/>
<path d="M271.061 73.2005C271.256 74.1947 270.942 75.0944 270.36 75.2083C269.777 75.3222 269.146 74.6112 268.949 73.6154C268.752 72.6197 269.068 71.7216 269.65 71.6077C270.233 71.4938 270.858 72.2048 271.061 73.2005Z" fill="white"/>
<path d="M256.07 80.215C256.029 80.2151 255.989 80.1993 255.959 80.1709C255.928 80.1424 255.91 80.1035 255.908 80.0621C255.908 79.9579 255.257 69.5336 253.939 65.1015C253.931 65.0616 253.938 65.0199 253.958 64.9848C253.979 64.9497 254.013 64.9237 254.052 64.9121C254.091 64.9004 254.133 64.9039 254.17 64.9218C254.206 64.9397 254.235 64.9708 254.25 65.0088C255.574 69.4766 256.225 79.9368 256.232 80.0426C256.234 80.0855 256.22 80.1277 256.191 80.16C256.163 80.1923 256.123 80.2121 256.08 80.215H256.07Z" fill="#231F20"/>
<path d="M281.201 77.3425C281.164 77.344 281.129 77.3332 281.099 77.312C281.07 77.2908 281.048 77.2603 281.038 77.2254C280.589 75.6504 280.103 69.6987 280.124 67.5934C280.124 67.5502 280.141 67.5088 280.171 67.4783C280.202 67.4478 280.243 67.4307 280.286 67.4307C280.33 67.4307 280.371 67.4478 280.401 67.4783C280.432 67.5088 280.449 67.5502 280.449 67.5934C280.43 69.6825 280.91 75.5788 281.352 77.1326C281.364 77.1741 281.358 77.2184 281.337 77.2559C281.316 77.2934 281.281 77.321 281.24 77.3328C281.227 77.3379 281.214 77.3412 281.201 77.3425Z" fill="#231F20"/>
<path d="M258.806 55.197C258.788 55.1968 258.77 55.1934 258.753 55.1872C258.712 55.1728 258.679 55.143 258.661 55.1043C258.642 55.0656 258.639 55.0211 258.654 54.9806L260.076 50.8918C260.081 50.87 260.091 50.8495 260.105 50.8318C260.119 50.8141 260.137 50.7994 260.156 50.7888C260.176 50.7781 260.198 50.7717 260.221 50.77C260.243 50.7683 260.266 50.7712 260.287 50.7787C260.308 50.7862 260.328 50.798 260.344 50.8134C260.361 50.8288 260.374 50.8475 260.383 50.8682C260.392 50.8889 260.396 50.9113 260.396 50.9339C260.396 50.9564 260.391 50.9787 260.381 50.9992L258.959 55.0879C258.948 55.1197 258.928 55.1472 258.9 55.1667C258.873 55.1863 258.84 55.1968 258.806 55.197Z" fill="#231F20"/>
<path d="M263.826 56.1551C263.816 56.1568 263.807 56.1568 263.797 56.1551C263.755 56.1472 263.717 56.123 263.693 56.0876C263.668 56.0522 263.659 56.0087 263.667 55.9664L264.361 52.2438C264.365 52.2224 264.373 52.202 264.385 52.1838C264.397 52.1656 264.412 52.1498 264.43 52.1375C264.448 52.1252 264.468 52.1166 264.49 52.112C264.511 52.1075 264.533 52.1072 264.554 52.1112C264.576 52.1151 264.596 52.1232 264.614 52.1351C264.632 52.1469 264.648 52.1622 264.66 52.1801C264.673 52.198 264.681 52.2182 264.686 52.2394C264.69 52.2607 264.691 52.2826 264.687 52.304L263.99 56.0266C263.982 56.0639 263.962 56.0972 263.932 56.1207C263.902 56.1442 263.864 56.1564 263.826 56.1551Z" fill="#231F20"/>
<path d="M268.491 56.5213C268.448 56.5213 268.406 56.5042 268.376 56.4737C268.345 56.4432 268.328 56.4018 268.328 56.3586L268.473 52.5318C268.473 52.4887 268.49 52.4473 268.521 52.4168C268.551 52.3863 268.592 52.3691 268.636 52.3691C268.679 52.3691 268.72 52.3863 268.751 52.4168C268.781 52.4473 268.798 52.4887 268.798 52.5318L268.654 56.3602C268.653 56.4031 268.636 56.4441 268.605 56.4742C268.575 56.5044 268.534 56.5213 268.491 56.5213Z" fill="#231F20"/>
<path d="M358.758 30.595H349.048C347.244 30.5928 345.515 29.8752 344.239 28.5997C342.964 27.3241 342.246 25.5947 342.244 23.7907V14.0855C342.246 12.2816 342.964 10.5521 344.239 9.27654C345.515 8.00097 347.244 7.2834 349.048 7.28125H358.758C360.563 7.2834 362.292 8.00091 363.568 9.27644C364.844 10.552 365.562 12.2814 365.564 14.0855V23.7972C365.56 25.6002 364.841 27.3279 363.566 28.6021C362.29 29.8762 360.561 30.5928 358.758 30.595ZM349.048 8.90014C347.674 8.90187 346.357 9.44894 345.386 10.4212C344.415 11.3934 343.87 12.7114 343.87 14.0855V23.7972C343.871 25.1702 344.417 26.4865 345.388 27.4573C346.359 28.4282 347.675 28.9743 349.048 28.9761H358.758C360.132 28.9748 361.448 28.4288 362.42 27.4579C363.391 26.487 363.937 25.1705 363.939 23.7972V14.0855C363.939 12.7111 363.393 11.3929 362.422 10.4206C361.451 9.44832 360.133 8.90144 358.758 8.90014H349.048Z" fill="white"/>
<path d="M358.758 64.2506H349.048C347.244 64.2484 345.515 63.5308 344.239 62.2553C342.964 60.9797 342.246 59.2503 342.244 57.4463V47.7362C342.247 45.9327 342.965 44.2039 344.24 42.9288C345.516 41.6537 347.245 40.9362 349.048 40.9336H358.758C360.563 40.9357 362.293 41.6535 363.569 42.9294C364.844 44.2052 365.562 45.9351 365.564 47.7395V57.4496C365.561 59.2531 364.843 60.9817 363.567 62.2565C362.291 63.5313 360.562 64.2484 358.758 64.2506ZM349.048 42.5606C347.675 42.5623 346.359 43.1087 345.388 44.0799C344.417 45.0511 343.871 46.3678 343.87 47.7411V57.4512C343.871 58.8242 344.417 60.1404 345.388 61.1113C346.359 62.0821 347.675 62.6283 349.048 62.63H358.758C360.132 62.6287 361.448 62.0828 362.42 61.1119C363.391 60.141 363.937 58.8245 363.939 57.4512V47.7362C363.936 46.3635 363.39 45.0478 362.418 44.0776C361.447 43.1075 360.131 42.5619 358.758 42.5606H349.048Z" fill="white"/>
<path d="M502.812 10.6084H378.177C377.764 10.6084 377.43 10.9428 377.43 11.3552V16.4413C377.43 16.8538 377.764 17.1881 378.177 17.1881H502.812C503.224 17.1881 503.559 16.8538 503.559 16.4413V11.3552C503.559 10.9428 503.224 10.6084 502.812 10.6084Z" fill="white"/>
<path d="M472.253 20.6855H378.177C377.764 20.6855 377.43 21.0199 377.43 21.4324V26.5184C377.43 26.9309 377.764 27.2653 378.177 27.2653H472.253C472.665 27.2653 473 26.9309 473 26.5184V21.4324C473 21.0199 472.665 20.6855 472.253 20.6855Z" fill="white"/>
<path d="M427.454 42.543H378.177C377.764 42.543 377.43 42.8773 377.43 43.2898V48.3759C377.43 48.7883 377.764 49.1227 378.177 49.1227H427.454C427.867 49.1227 428.201 48.7883 428.201 48.3759V43.2898C428.201 42.8773 427.867 42.543 427.454 42.543Z" fill="white"/>
<path d="M472.253 52.6182H378.177C377.764 52.6182 377.43 52.9525 377.43 53.365V58.4511C377.43 58.8635 377.764 59.1979 378.177 59.1979H472.253C472.665 59.1979 473 58.8635 473 58.4511V53.365C473 52.9525 472.665 52.6182 472.253 52.6182Z" fill="white"/>
<path d="M345.973 18.3752C346.561 19.3921 347.309 20.2301 348.061 21.1233C348.435 21.5691 348.905 21.9563 349.307 22.3794C349.709 22.8024 350.148 23.2124 350.581 23.6094C351.014 24.0064 351.451 24.4083 351.883 24.8069C352.314 25.2055 352.742 25.6806 353.257 25.9637C354.658 26.7333 355.918 25.6562 356.396 24.379C356.76 23.4028 357.005 22.3664 357.296 21.3657C357.595 20.332 357.892 19.2989 358.187 18.2662C358.775 16.2032 359.396 14.1499 360.07 12.1128C360.451 10.9739 360.8 9.81382 361.162 8.66188C361.334 8.11032 361.476 7.56038 361.593 6.99418C361.71 6.42797 361.902 5.83898 361.973 5.24512C362.008 4.96364 361.648 4.90182 361.474 5.03849C361.125 5.34725 360.804 5.68647 360.516 6.05213C360.147 6.45757 359.805 6.88637 359.492 7.33585C358.949 8.16066 358.479 9.03178 358.088 9.9391C357.27 11.8607 356.564 13.8278 355.973 15.8306C355.39 17.7488 354.863 19.6801 354.323 21.6098C354.192 22.0795 354.058 22.5486 353.923 23.0172C353.861 23.2271 353.798 23.4369 353.733 23.6452C353.659 23.8844 353.721 23.6794 353.747 23.6306C353.716 23.6966 353.68 23.7607 353.641 23.8225C353.752 23.694 353.757 23.681 353.656 23.7867C353.798 23.6684 353.97 23.5918 354.152 23.5655L354.466 23.6419C354.394 23.6002 354.323 23.554 354.256 23.5036C354.308 23.5394 354.405 23.6192 354.162 23.4321L353.837 23.1831L352.491 22.1386C351.482 21.3576 350.444 20.6189 349.4 19.8803C348.394 19.1673 347.3 18.5871 346.146 18.154C346.017 18.1068 345.911 18.2695 345.973 18.3785V18.3752Z" fill="#1BA8BB"/>
</g>
<defs>
<clipPath id="clip0_1744_17725">
<rect width="552.375" height="493.589" fill="white" transform="translate(0 0.0927734)"/>
</clipPath>
</defs>
</svg>
