<svg width="554" height="520" viewBox="0 0 554 520" fill="none" xmlns="http://www.w3.org/2000/svg">
<path d="M553.967 271.054C553.967 402.253 435.053 427.502 288.368 427.502C141.671 427.502 22.7578 402.253 22.7578 271.054C22.7578 252.39 25.1646 234.233 29.7229 216.813C33.9029 200.739 39.9247 185.3 47.5584 170.677C89.8594 89.6323 181.774 33.4795 288.368 33.4795C310.958 33.4795 332.891 36.0012 353.824 40.7558C372.914 45.0731 391.163 51.2561 408.354 59.051C411.186 60.3294 413.984 61.6652 416.747 63.0347C423.597 66.4199 430.253 70.0699 436.712 73.9611C472.75 95.6989 502.49 125.139 522.996 159.634C525.794 164.32 528.408 169.098 530.837 173.957C533.175 178.597 535.339 183.318 537.331 188.107C539.772 193.957 541.948 199.897 543.883 205.954V205.965C544.93 209.269 545.897 212.597 546.784 215.959C548.12 220.956 549.271 226.011 550.238 231.123C552.69 244.111 553.967 257.445 553.967 271.054Z" fill="#54BECC"/>
<path opacity="0.29" d="M385.363 110.875H350.412C347.666 110.875 345.418 113.123 345.418 115.869V117.116C345.418 119.862 347.666 122.11 350.412 122.11H385.363C388.109 122.11 390.356 119.864 390.356 117.116V115.869C390.356 113.121 388.109 110.875 385.363 110.875Z" fill="white"/>
<path opacity="0.33" d="M409.703 198.255H374.752C372.005 198.255 369.758 200.502 369.758 203.249V204.496C369.758 207.242 372.004 209.49 374.752 209.49H409.703C412.449 209.49 414.696 207.242 414.696 204.496V203.249C414.695 200.501 412.449 198.255 409.703 198.255Z" fill="white"/>
<path opacity="0.33" d="M307.289 158.561H272.337C269.591 158.561 267.344 160.808 267.344 163.554V164.802C267.344 167.548 269.591 169.796 272.337 169.796H307.289C310.035 169.796 312.282 167.548 312.282 164.802V163.554C312.281 160.807 310.035 158.561 307.289 158.561Z" fill="white"/>
<path opacity="0.33" d="M300.921 275.189H265.97C263.224 275.189 260.977 277.436 260.977 280.183V281.431C260.977 284.177 263.224 286.424 265.97 286.424H300.921C303.667 286.424 305.915 284.177 305.915 281.431V280.183C305.914 277.436 303.667 275.189 300.921 275.189Z" fill="white"/>
<path opacity="0.34" d="M348.752 198.255H340.119C337.373 198.255 335.125 200.502 335.125 203.249V204.496C335.125 207.242 337.373 209.49 340.119 209.49H348.752C351.498 209.49 353.746 207.242 353.746 204.496V203.249C353.744 200.501 351.498 198.255 348.752 198.255Z" fill="white"/>
<path opacity="0.31" d="M176.906 152.693H141.955C139.209 152.693 136.961 154.941 136.961 157.687V158.935C136.961 161.681 139.209 163.928 141.955 163.928H176.906C179.652 163.928 181.899 161.681 181.899 158.935V157.687C181.899 154.939 179.652 152.693 176.906 152.693Z" fill="white"/>
<path d="M503.031 174.567V217.146H545.612V215.169L546.625 216.294V350.97H401.988V174.567H503.031Z" fill="white"/>
<path d="M545.608 217.146H503.027V174.567H509.022L545.608 215.169V217.146Z" fill="#18217D"/>
<path d="M413.938 247.223H488.028C488.845 247.223 489.508 246.56 489.508 245.743V212.206C489.508 211.389 488.845 210.726 488.028 210.726H413.938C413.121 210.726 412.458 211.389 412.458 212.206V245.743C412.458 246.56 413.121 247.223 413.938 247.223Z" fill="#2698EF"/>
<path d="M529.047 265.354H412.797V267.616H529.047V265.354Z" fill="#2698EF"/>
<path d="M529.047 276.508H412.797V278.769H529.047V276.508Z" fill="#2698EF"/>
<path d="M529.047 287.657H412.797V289.918H529.047V287.657Z" fill="#2698EF"/>
<path d="M529.047 298.811H412.797V301.072H529.047V298.811Z" fill="#2698EF"/>
<path d="M423.095 172.255C423.759 148.754 406.372 122.751 377.743 108.079C347.29 92.468 313.834 94.6626 295.728 111.615L304.064 115.61L286.252 124.828L268.211 134.159L258.348 139.248L263.496 96.218L274.366 101.408C291.062 76.7028 333.673 72.4141 372.696 92.4147C409.397 111.228 430.502 145.172 424.301 172.421C424.138 173.142 423.074 172.994 423.095 172.255Z" fill="white"/>
<g filter="url(#filter0_d_1744_19056)">
<path d="M225.392 125.688H64.0187C63.0224 125.688 62.2148 126.496 62.2148 127.492V352.544C62.2148 353.541 63.0224 354.348 64.0187 354.348H225.392C226.388 354.348 227.195 353.541 227.195 352.544V127.492C227.195 126.496 226.388 125.688 225.392 125.688Z" fill="white"/>
</g>
<path d="M219.735 135.592H69.6719V337.694H219.735V135.592Z" fill="white"/>
<path d="M206.722 158.996H82.6866C82.4886 158.996 82.3281 159.157 82.3281 159.355V166.739C82.3281 166.937 82.4886 167.098 82.6866 167.098H206.722C206.92 167.098 207.08 166.937 207.08 166.739V159.355C207.08 159.157 206.92 158.996 206.722 158.996Z" fill="#C8C9DB"/>
<path d="M206.722 183.303H82.6866C82.4886 183.303 82.3281 183.463 82.3281 183.661V191.046C82.3281 191.244 82.4886 191.404 82.6866 191.404H206.722C206.92 191.404 207.08 191.244 207.08 191.046V183.661C207.08 183.463 206.92 183.303 206.722 183.303Z" fill="#C8C9DB"/>
<path d="M206.722 207.61H82.6866C82.4886 207.61 82.3281 207.771 82.3281 207.969V215.354C82.3281 215.552 82.4886 215.712 82.6866 215.712H206.722C206.92 215.712 207.08 215.552 207.08 215.354V207.969C207.08 207.771 206.92 207.61 206.722 207.61Z" fill="#C8C9DB"/>
<path d="M206.722 231.917H82.6866C82.4886 231.917 82.3281 232.077 82.3281 232.275V239.66C82.3281 239.858 82.4886 240.019 82.6866 240.019H206.722C206.92 240.019 207.08 239.858 207.08 239.66V232.275C207.08 232.077 206.92 231.917 206.722 231.917Z" fill="#C8C9DB"/>
<path d="M206.722 256.224H82.6866C82.4886 256.224 82.3281 256.384 82.3281 256.582V263.967C82.3281 264.165 82.4886 264.325 82.6866 264.325H206.722C206.92 264.325 207.08 264.165 207.08 263.967V256.582C207.08 256.384 206.92 256.224 206.722 256.224Z" fill="#C8C9DB"/>
<path d="M206.722 280.529H82.6866C82.4886 280.529 82.3281 280.69 82.3281 280.888V288.272C82.3281 288.47 82.4886 288.631 82.6866 288.631H206.722C206.92 288.631 207.08 288.47 207.08 288.272V280.888C207.08 280.69 206.92 280.529 206.722 280.529Z" fill="#C8C9DB"/>
<path d="M206.722 304.834H82.6866C82.4886 304.834 82.3281 304.994 82.3281 305.192V312.577C82.3281 312.775 82.4886 312.936 82.6866 312.936H206.722C206.92 312.936 207.08 312.775 207.08 312.577V305.192C207.08 304.994 206.92 304.834 206.722 304.834Z" fill="#C8C9DB"/>
<path d="M347.484 265.213L352.048 282.406C359.587 285.105 366.2 284.366 372.052 280.789C372.052 280.789 365.601 267.073 367.398 261.069L347.484 265.213Z" fill="#E89082"/>
<path d="M355.743 248.337C355.283 248.607 354.738 248.202 354.793 247.628C355.716 237.837 354.368 231.256 346.261 235.582C346.306 235.669 346.347 235.755 346.395 235.844C346.395 235.844 342.581 239.691 342.381 246.546L337.875 251.554L340.167 253.744L339.458 256.303L340.19 257.339L339.746 258.839L340.753 259.915C338.09 266.114 343.013 264.914 347.839 267.14L362.709 264.13C364.42 253.491 367.409 241.439 355.743 248.337Z" fill="#FBA996"/>
<path d="M372.547 233.286C372.338 233.074 372.137 232.857 371.941 232.63C363.571 222.879 340.162 223.646 346.264 235.577C354.371 231.251 355.719 237.832 354.795 247.623C354.741 248.197 355.285 248.602 355.746 248.332C367.404 241.44 364.422 253.492 362.701 264.128L367.155 263.227C374.423 251.001 379.073 239.856 372.547 233.286Z" fill="#100259"/>
<path d="M323.057 506.538C323.057 506.538 307.779 510.569 307.051 519.449H350.601L351.429 514.608L323.057 506.538Z" fill="white"/>
<path d="M376.891 508.152C376.891 508.152 368.16 514.606 368.16 519.447H408.175V508.959L376.891 508.152Z" fill="white"/>
<path d="M334.694 387.147L317.961 446.846V509.77L352.886 519.451C352.886 519.451 365.98 475.888 351.43 450.88L379.075 389.567L334.694 387.147Z" fill="#0E4795"/>
<path d="M394.597 393.677L393.621 446.84C393.621 446.84 404.535 458.135 412.537 512.991H375.434L360.155 457.328L357.973 421.832L365.974 379.075L394.597 393.677Z" fill="#0E4795"/>
<path d="M395.806 401.662C393.624 343.578 400.9 295.981 369.613 278.24C360.881 283.081 352.15 279.047 352.15 279.047C352.15 279.047 344.147 280.66 341.964 291.954C341.964 291.954 323.05 337.132 326.687 388.762C341.807 404.574 364.541 409.314 395.806 401.662Z" fill="#195ECB"/>
<path d="M266.67 339.949L292.132 347.209L323.415 335.108L318.687 316.956L259.395 323.007L266.67 339.949Z" fill="white"/>
<path d="M263.545 337.08L316.508 318.141L303.265 282.312L245.938 298.023L263.545 337.08Z" fill="white"/>
<path d="M265.306 334.348L312.984 317.298L301.062 285.043L249.453 299.186L265.306 334.348Z" fill="#DCEFF8"/>
<path d="M321.599 324.218C321.599 324.218 309.96 340.348 280.86 331.478C280.86 331.478 268.389 323.472 269.008 333.038C269.082 334.139 269.019 335.245 268.821 336.331C268.309 339.092 268.309 343.78 276.494 337.125C276.494 337.125 278.677 344.386 285.952 345.192C310.084 356.473 331.375 362.033 338.34 338.738L321.599 324.218Z" fill="#FBA996"/>
<path d="M335.812 289.368C328.284 298.338 318.448 311.77 316.504 322.699C316.504 322.699 325.383 345.193 346.397 345.193L361.381 308.27C364.624 300.279 361.963 290.872 355.188 286.368C348.898 282.185 340.811 283.409 335.812 289.368Z" fill="#2698EF"/>
<defs>
<filter id="filter0_d_1744_19056" x="27.283" y="90.7566" width="234.844" height="298.524" filterUnits="userSpaceOnUse" color-interpolation-filters="sRGB">
<feFlood flood-opacity="0" result="BackgroundImageFix"/>
<feColorMatrix in="SourceAlpha" type="matrix" values="0 0 0 0 0 0 0 0 0 0 0 0 0 0 0 0 0 0 127 0" result="hardAlpha"/>
<feOffset/>
<feGaussianBlur stdDeviation="17.4659"/>
<feComposite in2="hardAlpha" operator="out"/>
<feColorMatrix type="matrix" values="0 0 0 0 0 0 0 0 0 0 0 0 0 0 0 0 0 0 0.25 0"/>
<feBlend mode="normal" in2="BackgroundImageFix" result="effect1_dropShadow_1744_19056"/>
<feBlend mode="normal" in="SourceGraphic" in2="effect1_dropShadow_1744_19056" result="shape"/>
</filter>
</defs>
</svg>
