<svg width="314" height="101" viewBox="0 0 314 101" fill="none" xmlns="http://www.w3.org/2000/svg">
<rect x="0.415761" y="0.415761" width="305.168" height="86.1685" rx="16.2147" fill="#E1F2FF" stroke="#1BA8BB" stroke-width="0.831522"/>
<path d="M28.404 28.5762C28.404 28.7256 28.3781 28.8588 28.3261 28.9757C28.2741 29.0926 28.2027 29.1901 28.1117 29.268C28.0273 29.346 27.9233 29.4044 27.7999 29.4434C27.683 29.4759 27.5628 29.4921 27.4393 29.4921H26.348C26.1206 29.4921 25.9225 29.4694 25.7536 29.4239C25.5912 29.3785 25.4385 29.2973 25.2956 29.1803C25.1592 29.0569 25.026 28.8945 24.8961 28.6931C24.7661 28.4852 24.62 28.2189 24.4576 27.8941L21.3199 21.9987C21.138 21.6479 20.9528 21.2711 20.7644 20.8684C20.576 20.4591 20.4071 20.0628 20.2577 19.6795H20.2382C20.2642 20.1473 20.2837 20.615 20.2967 21.0827C20.3097 21.544 20.3162 22.0214 20.3162 22.5152V29.1121C20.3162 29.1771 20.2967 29.2355 20.2577 29.2875C20.2252 29.3395 20.1635 29.385 20.0726 29.4239C19.9881 29.4564 19.8712 29.4824 19.7218 29.5019C19.5724 29.5214 19.3807 29.5311 19.1469 29.5311C18.9195 29.5311 18.7311 29.5214 18.5817 29.5019C18.4323 29.4824 18.3153 29.4564 18.2309 29.4239C18.1464 29.385 18.088 29.3395 18.0555 29.2875C18.023 29.2355 18.0068 29.1771 18.0068 29.1121V17.7794C18.0068 17.4741 18.0945 17.2467 18.2699 17.0973C18.4518 16.9414 18.6726 16.8634 18.9325 16.8634H20.3064C20.5533 16.8634 20.7612 16.8861 20.9301 16.9316C21.099 16.9706 21.2484 17.0388 21.3783 17.1363C21.5148 17.2337 21.6414 17.3701 21.7584 17.5455C21.8753 17.7144 21.9955 17.9255 22.1189 18.1789L24.5745 22.788C24.7174 23.0673 24.8571 23.3434 24.9935 23.6163C25.1364 23.8826 25.2728 24.1522 25.4028 24.4251C25.5327 24.6914 25.6594 24.9545 25.7828 25.2144C25.9062 25.4742 26.0264 25.7341 26.1433 25.9939H26.1531C26.1336 25.5392 26.1174 25.0649 26.1044 24.5712C26.0979 24.0775 26.0946 23.6065 26.0946 23.1583V17.2434C26.0946 17.1785 26.1141 17.12 26.1531 17.068C26.1921 17.0161 26.257 16.9706 26.348 16.9316C26.4389 16.8926 26.5591 16.8667 26.7085 16.8537C26.8579 16.8342 27.0496 16.8244 27.2834 16.8244C27.5043 16.8244 27.6895 16.8342 27.8389 16.8537C27.9883 16.8667 28.102 16.8926 28.1799 16.9316C28.2644 16.9706 28.3228 17.0161 28.3553 17.068C28.3878 17.12 28.404 17.1785 28.404 17.2434V28.5762ZM39.805 24.7076C39.805 25.4482 39.7075 26.1238 39.5127 26.7345C39.3178 27.3451 39.0222 27.8713 38.6259 28.3131C38.2296 28.7548 37.7327 29.0959 37.135 29.3362C36.5374 29.5766 35.839 29.6968 35.04 29.6968C34.2669 29.6968 33.5946 29.5896 33.0229 29.3752C32.4512 29.1608 31.977 28.849 31.6002 28.4398C31.2234 28.0305 30.9441 27.527 30.7622 26.9294C30.5803 26.3317 30.4893 25.6496 30.4893 24.883C30.4893 24.1425 30.5868 23.4669 30.7817 22.8562C30.9831 22.2391 31.2819 21.7129 31.6782 21.2776C32.0744 20.8359 32.5681 20.4948 33.1593 20.2545C33.757 20.0141 34.4553 19.8939 35.2544 19.8939C36.0339 19.8939 36.7095 20.0011 37.2812 20.2155C37.8529 20.4234 38.3238 20.7319 38.6941 21.1412C39.0709 21.5505 39.3502 22.0539 39.5321 22.6516C39.714 23.2492 39.805 23.9346 39.805 24.7076ZM37.2812 24.8051C37.2812 24.3763 37.2455 23.9833 37.174 23.626C37.109 23.2622 36.9954 22.9472 36.8329 22.6808C36.6705 22.4145 36.4529 22.2066 36.1801 22.0572C35.9137 21.9078 35.5759 21.8331 35.1667 21.8331C34.8029 21.8331 34.4845 21.9013 34.2117 22.0377C33.9389 22.1676 33.7147 22.3625 33.5393 22.6223C33.3639 22.8757 33.2308 23.1843 33.1398 23.5481C33.0554 23.9054 33.0131 24.3146 33.0131 24.7759C33.0131 25.2046 33.0489 25.6009 33.1203 25.9647C33.1918 26.322 33.3055 26.6338 33.4614 26.9001C33.6238 27.1665 33.8414 27.3744 34.1143 27.5238C34.3871 27.6667 34.7249 27.7382 35.1277 27.7382C35.498 27.7382 35.8195 27.6732 36.0924 27.5433C36.3652 27.4068 36.5893 27.212 36.7647 26.9586C36.9401 26.7052 37.0701 26.3999 37.1545 26.0426C37.239 25.6788 37.2812 25.2663 37.2812 24.8051ZM50.2412 20.118C50.5141 20.118 50.7025 20.1765 50.8064 20.2934C50.9168 20.4104 50.9721 20.5793 50.9721 20.8001V29.1413C50.9721 29.2063 50.9526 29.2648 50.9136 29.3167C50.8746 29.3622 50.8097 29.4012 50.7187 29.4337C50.6278 29.4662 50.5011 29.4889 50.3387 29.5019C50.1828 29.5214 49.9879 29.5311 49.754 29.5311C49.5137 29.5311 49.3123 29.5214 49.1499 29.5019C48.9939 29.4889 48.8705 29.4662 48.7796 29.4337C48.6886 29.4012 48.6237 29.3622 48.5847 29.3167C48.5457 29.2648 48.5262 29.2063 48.5262 29.1413V22.1059H44.6187V26.1888C44.6187 26.663 44.6934 27.0203 44.8428 27.2607C44.9923 27.4945 45.2586 27.6115 45.6419 27.6115C45.7718 27.6115 45.8887 27.6017 45.9927 27.5822C46.0966 27.5563 46.1876 27.5303 46.2655 27.5043C46.35 27.4718 46.4182 27.4458 46.4702 27.4263C46.5286 27.4003 46.5806 27.3874 46.6261 27.3874C46.665 27.3874 46.7008 27.4003 46.7332 27.4263C46.7722 27.4458 46.8015 27.4913 46.8209 27.5628C46.8404 27.6277 46.8567 27.7187 46.8697 27.8356C46.8892 27.9525 46.8989 28.1019 46.8989 28.2838C46.8989 28.5697 46.8827 28.7873 46.8502 28.9367C46.8177 29.0796 46.7722 29.1868 46.7138 29.2583C46.6553 29.3232 46.5676 29.3817 46.4507 29.4337C46.3337 29.4792 46.1973 29.5181 46.0414 29.5506C45.892 29.5896 45.7263 29.6188 45.5444 29.6383C45.369 29.6578 45.1904 29.6675 45.0085 29.6675C44.5213 29.6675 44.099 29.6058 43.7417 29.4824C43.3844 29.359 43.0888 29.1706 42.855 28.9172C42.6211 28.6574 42.449 28.3326 42.3385 27.9428C42.2281 27.553 42.1729 27.0918 42.1729 26.5591V22.1059H41.1302C41.0068 22.1059 40.9126 22.0312 40.8476 21.8818C40.7827 21.7259 40.7502 21.4693 40.7502 21.112C40.7502 20.9236 40.7567 20.7644 40.7697 20.6345C40.7892 20.5046 40.8152 20.4039 40.8476 20.3324C40.8801 20.2545 40.9191 20.1992 40.9646 20.1668C41.0165 20.1343 41.075 20.118 41.14 20.118H42.1729V18.1789C42.1729 18.1139 42.1891 18.0555 42.2216 18.0035C42.2606 17.9515 42.3255 17.9093 42.4165 17.8768C42.5139 17.8378 42.6406 17.8119 42.7965 17.7989C42.9589 17.7794 43.1571 17.7696 43.3909 17.7696C43.6313 17.7696 43.8294 17.7794 43.9853 17.7989C44.1477 17.8119 44.2744 17.8378 44.3654 17.8768C44.4563 17.9093 44.5213 17.9515 44.5602 18.0035C44.5992 18.0555 44.6187 18.1139 44.6187 18.1789V20.118H50.2412ZM51.1669 17.5065C51.1669 18.0003 51.0663 18.3413 50.8649 18.5297C50.6635 18.7181 50.29 18.8123 49.7443 18.8123C49.1921 18.8123 48.8186 18.7213 48.6237 18.5394C48.4353 18.3575 48.3411 18.0295 48.3411 17.5553C48.3411 17.0615 48.4385 16.7205 48.6334 16.5321C48.8348 16.3372 49.2116 16.2398 49.7638 16.2398C50.3094 16.2398 50.6797 16.334 50.8746 16.5224C51.0695 16.7043 51.1669 17.0323 51.1669 17.5065ZM62.2268 17.526C62.2268 17.7664 62.2041 17.971 62.1586 18.1399C62.1197 18.3023 62.0482 18.4355 61.9443 18.5394C61.8403 18.6369 61.6974 18.7083 61.5155 18.7538C61.3401 18.7928 61.1192 18.8123 60.8529 18.8123C60.5865 18.8123 60.3624 18.7928 60.1805 18.7538C59.9986 18.7083 59.8525 18.6369 59.742 18.5394C59.6381 18.4355 59.5634 18.3023 59.5179 18.1399C59.4789 17.971 59.4594 17.7664 59.4594 17.526C59.4594 17.2922 59.4789 17.094 59.5179 16.9316C59.5634 16.7692 59.6381 16.636 59.742 16.5321C59.8525 16.4282 59.9986 16.3535 60.1805 16.308C60.3624 16.2625 60.5865 16.2398 60.8529 16.2398C61.1192 16.2398 61.3401 16.2625 61.5155 16.308C61.6974 16.3535 61.8403 16.4282 61.9443 16.5321C62.0482 16.636 62.1197 16.7692 62.1586 16.9316C62.2041 17.094 62.2268 17.2922 62.2268 17.526ZM62.0417 29.1413C62.0417 29.2063 62.0222 29.2648 61.9832 29.3167C61.9443 29.3622 61.8793 29.4012 61.7883 29.4337C61.6974 29.4662 61.5707 29.4889 61.4083 29.5019C61.2524 29.5214 61.0575 29.5311 60.8236 29.5311C60.5833 29.5311 60.3819 29.5214 60.2195 29.5019C60.0636 29.4889 59.9402 29.4662 59.8492 29.4337C59.7583 29.4012 59.6933 29.3622 59.6543 29.3167C59.6153 29.2648 59.5959 29.2063 59.5959 29.1413V22.1059H56.3705V29.1413C56.3705 29.2063 56.351 29.2648 56.312 29.3167C56.273 29.3622 56.2081 29.4012 56.1171 29.4337C56.0262 29.4662 55.8995 29.4889 55.7371 29.5019C55.5812 29.5214 55.383 29.5311 55.1427 29.5311C54.9088 29.5311 54.7107 29.5214 54.5483 29.5019C54.3923 29.4889 54.2657 29.4662 54.1682 29.4337C54.0773 29.4012 54.0123 29.3622 53.9733 29.3167C53.9409 29.2648 53.9246 29.2063 53.9246 29.1413V22.1059H52.8332C52.7098 22.1059 52.6156 22.0312 52.5507 21.8818C52.4922 21.7259 52.463 21.4693 52.463 21.112C52.463 20.9236 52.4695 20.7644 52.4824 20.6345C52.5019 20.5046 52.5247 20.4039 52.5507 20.3324C52.5831 20.2545 52.6221 20.1992 52.6676 20.1668C52.7196 20.1343 52.778 20.118 52.843 20.118H53.9246V19.3482C53.9246 18.7571 53.9831 18.2406 54.1 17.7989C54.2234 17.3571 54.4086 16.9901 54.6554 16.6978C54.9023 16.3989 55.2141 16.1781 55.5909 16.0351C55.9677 15.8857 56.4127 15.811 56.9259 15.811C57.0688 15.811 57.2117 15.8175 57.3546 15.8305C57.5041 15.8435 57.6437 15.863 57.7737 15.889C57.9036 15.915 58.0173 15.9442 58.1147 15.9767C58.2121 16.0091 58.2771 16.0449 58.3096 16.0839C58.3486 16.1163 58.3778 16.1553 58.3973 16.2008C58.4233 16.2463 58.4428 16.3047 58.4558 16.3762C58.4752 16.4476 58.4882 16.5418 58.4947 16.6588C58.5012 16.7692 58.5045 16.9089 58.5045 17.0778C58.5045 17.3896 58.485 17.6105 58.446 17.7404C58.4135 17.8638 58.3453 17.9255 58.2414 17.9255C58.2024 17.9255 58.1569 17.9191 58.105 17.9061C58.0595 17.8931 58.001 17.8768 57.9296 17.8573C57.8646 17.8378 57.7866 17.8216 57.6957 17.8086C57.6047 17.7891 57.4911 17.7794 57.3546 17.7794C57.0103 17.7794 56.7602 17.8963 56.6043 18.1302C56.4484 18.364 56.3705 18.7506 56.3705 19.2898V20.118H61.3011C61.548 20.118 61.7331 20.1733 61.8566 20.2837C61.98 20.3876 62.0417 20.5565 62.0417 20.7904V29.1413ZM71.0942 27.7576C71.0942 27.9265 71.0877 28.0695 71.0748 28.1864C71.0683 28.2968 71.0553 28.391 71.0358 28.469C71.0228 28.5469 71.0033 28.6119 70.9773 28.6639C70.9578 28.7093 70.9091 28.7711 70.8311 28.849C70.7532 28.9205 70.62 29.0114 70.4316 29.1219C70.2432 29.2258 70.0289 29.32 69.7885 29.4044C69.5481 29.4889 69.285 29.5571 68.9992 29.6091C68.7199 29.661 68.4308 29.687 68.1319 29.687C67.4628 29.687 66.8684 29.5831 66.3487 29.3752C65.8355 29.1673 65.4035 28.862 65.0527 28.4592C64.7019 28.05 64.4356 27.553 64.2537 26.9683C64.0783 26.3837 63.9906 25.7146 63.9906 24.961C63.9906 24.0905 64.0978 23.3402 64.3121 22.71C64.533 22.0734 64.8383 21.5472 65.2281 21.1315C65.6179 20.7157 66.0791 20.4071 66.6118 20.2057C67.1445 20.0044 67.7292 19.9037 68.3658 19.9037C68.6257 19.9037 68.879 19.9264 69.1259 19.9719C69.3792 20.0173 69.6131 20.0791 69.8275 20.157C70.0483 20.235 70.2432 20.3227 70.4121 20.4201C70.5875 20.5176 70.711 20.602 70.7824 20.6735C70.8539 20.7449 70.9026 20.8066 70.9286 20.8586C70.9611 20.9041 70.9838 20.9658 70.9968 21.0438C71.0163 21.1217 71.0293 21.2192 71.0358 21.3361C71.0488 21.4465 71.0553 21.5829 71.0553 21.7454C71.0553 22.1221 71.0228 22.3885 70.9578 22.5444C70.8929 22.6938 70.8084 22.7685 70.7045 22.7685C70.594 22.7685 70.4771 22.723 70.3537 22.6321C70.2302 22.5411 70.0841 22.4405 69.9152 22.33C69.7463 22.2196 69.5449 22.1189 69.311 22.0279C69.0771 21.937 68.7978 21.8915 68.473 21.8915C67.8364 21.8915 67.3491 22.1384 67.0113 22.6321C66.6735 23.1193 66.5046 23.8371 66.5046 24.7856C66.5046 25.2533 66.5469 25.6658 66.6313 26.0231C66.7158 26.3804 66.8392 26.6793 67.0016 26.9196C67.1705 27.16 67.3784 27.3419 67.6252 27.4653C67.8786 27.5822 68.1709 27.6407 68.5022 27.6407C68.84 27.6407 69.1291 27.592 69.3695 27.4945C69.6163 27.3906 69.8307 27.2769 70.0126 27.1535C70.1945 27.0301 70.3472 26.9196 70.4706 26.8222C70.594 26.7182 70.698 26.6663 70.7824 26.6663C70.8409 26.6663 70.8896 26.6825 70.9286 26.715C70.9676 26.7475 70.9968 26.8092 71.0163 26.9001C71.0423 26.9846 71.0618 27.095 71.0748 27.2314C71.0877 27.3679 71.0942 27.5433 71.0942 27.7576ZM80.1663 29.1706C80.1663 29.2615 80.1338 29.333 80.0688 29.385C80.0039 29.4369 79.8999 29.4727 79.757 29.4921C79.6206 29.5181 79.416 29.5311 79.1431 29.5311C78.8508 29.5311 78.6364 29.5181 78.5 29.4921C78.3701 29.4727 78.2759 29.4369 78.2174 29.385C78.1654 29.333 78.1394 29.2615 78.1394 29.1706V28.4787C77.7821 28.862 77.3729 29.1608 76.9116 29.3752C76.4569 29.5896 75.9502 29.6968 75.3915 29.6968C74.9303 29.6968 74.5048 29.6351 74.115 29.5116C73.7317 29.3947 73.3972 29.2193 73.1113 28.9854C72.832 28.7451 72.6144 28.4495 72.4585 28.0987C72.3025 27.7479 72.2246 27.3386 72.2246 26.8709C72.2246 26.3642 72.322 25.9257 72.5169 25.5554C72.7183 25.1786 73.0139 24.8701 73.4037 24.6297C73.7999 24.3828 74.2904 24.2009 74.8751 24.084C75.4597 23.9671 76.1386 23.9086 76.9116 23.9086H77.7594V23.3824C77.7594 23.1096 77.7302 22.8725 77.6717 22.6711C77.6197 22.4632 77.5288 22.291 77.3989 22.1546C77.2754 22.0182 77.1065 21.9175 76.8922 21.8525C76.6843 21.7876 76.4244 21.7551 76.1126 21.7551C75.7033 21.7551 75.3363 21.8006 75.0115 21.8915C74.6932 21.9825 74.4106 22.0832 74.1637 22.1936C73.9169 22.304 73.709 22.4047 73.5401 22.4957C73.3777 22.5866 73.2445 22.6321 73.1406 22.6321C73.0691 22.6321 73.0041 22.6094 72.9457 22.5639C72.8937 22.5184 72.8482 22.4534 72.8093 22.369C72.7768 22.2845 72.7508 22.1806 72.7313 22.0572C72.7118 21.9337 72.7021 21.7973 72.7021 21.6479C72.7021 21.4465 72.7183 21.2874 72.7508 21.1704C72.7833 21.0535 72.845 20.9496 72.9359 20.8586C73.0269 20.7612 73.186 20.6572 73.4134 20.5468C73.6408 20.4299 73.9071 20.3227 74.2124 20.2252C74.5178 20.1278 74.8491 20.0498 75.2064 19.9914C75.5702 19.9264 75.9437 19.8939 76.327 19.8939C77.0091 19.8939 77.5905 19.9621 78.0712 20.0985C78.5584 20.2285 78.958 20.4331 79.2698 20.7124C79.5816 20.9853 79.809 21.3393 79.9519 21.7746C80.0948 22.2098 80.1663 22.7263 80.1663 23.3239V29.1706ZM77.7594 25.4482H76.8239C76.4277 25.4482 76.0899 25.4775 75.8105 25.5359C75.5312 25.5944 75.3038 25.6821 75.1284 25.799C74.953 25.916 74.8231 26.0589 74.7386 26.2278C74.6607 26.3902 74.6217 26.5786 74.6217 26.7929C74.6217 27.1567 74.7354 27.4426 74.9628 27.6505C75.1966 27.8583 75.5182 27.9623 75.9275 27.9623C76.2718 27.9623 76.5868 27.8746 76.8727 27.6992C77.165 27.5238 77.4606 27.2672 77.7594 26.9294V25.4482ZM90.9143 20.118C91.1872 20.118 91.3756 20.1765 91.4795 20.2934C91.5899 20.4104 91.6452 20.5793 91.6452 20.8001V29.1413C91.6452 29.2063 91.6257 29.2648 91.5867 29.3167C91.5477 29.3622 91.4828 29.4012 91.3918 29.4337C91.3009 29.4662 91.1742 29.4889 91.0118 29.5019C90.8559 29.5214 90.661 29.5311 90.4271 29.5311C90.1868 29.5311 89.9854 29.5214 89.823 29.5019C89.6671 29.4889 89.5436 29.4662 89.4527 29.4337C89.3617 29.4012 89.2968 29.3622 89.2578 29.3167C89.2188 29.2648 89.1993 29.2063 89.1993 29.1413V22.1059H85.2918V26.1888C85.2918 26.663 85.3665 27.0203 85.5159 27.2607C85.6654 27.4945 85.9317 27.6115 86.315 27.6115C86.4449 27.6115 86.5618 27.6017 86.6658 27.5822C86.7697 27.5563 86.8607 27.5303 86.9386 27.5043C87.0231 27.4718 87.0913 27.4458 87.1433 27.4263C87.2017 27.4003 87.2537 27.3874 87.2992 27.3874C87.3381 27.3874 87.3739 27.4003 87.4064 27.4263C87.4453 27.4458 87.4746 27.4913 87.4941 27.5628C87.5135 27.6277 87.5298 27.7187 87.5428 27.8356C87.5623 27.9525 87.572 28.1019 87.572 28.2838C87.572 28.5697 87.5558 28.7873 87.5233 28.9367C87.4908 29.0796 87.4453 29.1868 87.3869 29.2583C87.3284 29.3232 87.2407 29.3817 87.1238 29.4337C87.0068 29.4792 86.8704 29.5181 86.7145 29.5506C86.5651 29.5896 86.3994 29.6188 86.2175 29.6383C86.0421 29.6578 85.8635 29.6675 85.6816 29.6675C85.1944 29.6675 84.7721 29.6058 84.4148 29.4824C84.0575 29.359 83.7619 29.1706 83.5281 28.9172C83.2942 28.6574 83.1221 28.3326 83.0116 27.9428C82.9012 27.553 82.846 27.0918 82.846 26.5591V22.1059H81.8033C81.6799 22.1059 81.5857 22.0312 81.5207 21.8818C81.4558 21.7259 81.4233 21.4693 81.4233 21.112C81.4233 20.9236 81.4298 20.7644 81.4428 20.6345C81.4623 20.5046 81.4883 20.4039 81.5207 20.3324C81.5532 20.2545 81.5922 20.1992 81.6377 20.1668C81.6896 20.1343 81.7481 20.118 81.8131 20.118H82.846V18.1789C82.846 18.1139 82.8622 18.0555 82.8947 18.0035C82.9337 17.9515 82.9986 17.9093 83.0896 17.8768C83.187 17.8378 83.3137 17.8119 83.4696 17.7989C83.632 17.7794 83.8302 17.7696 84.064 17.7696C84.3044 17.7696 84.5025 17.7794 84.6584 17.7989C84.8208 17.8119 84.9475 17.8378 85.0385 17.8768C85.1294 17.9093 85.1944 17.9515 85.2334 18.0035C85.2723 18.0555 85.2918 18.1139 85.2918 18.1789V20.118H90.9143ZM91.8401 17.5065C91.8401 18.0003 91.7394 18.3413 91.538 18.5297C91.3366 18.7181 90.9631 18.8123 90.4174 18.8123C89.8652 18.8123 89.4917 18.7213 89.2968 18.5394C89.1084 18.3575 89.0142 18.0295 89.0142 17.5553C89.0142 17.0615 89.1116 16.7205 89.3065 16.5321C89.5079 16.3372 89.8847 16.2398 90.4369 16.2398C90.9825 16.2398 91.3528 16.334 91.5477 16.5224C91.7426 16.7043 91.8401 17.0323 91.8401 17.5065ZM102.91 24.7076C102.91 25.4482 102.812 26.1238 102.617 26.7345C102.422 27.3451 102.127 27.8713 101.731 28.3131C101.334 28.7548 100.837 29.0959 100.24 29.3362C99.6421 29.5766 98.9437 29.6968 98.1447 29.6968C97.3716 29.6968 96.6993 29.5896 96.1276 29.3752C95.5559 29.1608 95.0817 28.849 94.7049 28.4398C94.3281 28.0305 94.0488 27.527 93.8669 26.9294C93.685 26.3317 93.594 25.6496 93.594 24.883C93.594 24.1425 93.6915 23.4669 93.8864 22.8562C94.0878 22.2391 94.3866 21.7129 94.7829 21.2776C95.1791 20.8359 95.6728 20.4948 96.264 20.2545C96.8617 20.0141 97.56 19.8939 98.3591 19.8939C99.1386 19.8939 99.8142 20.0011 100.386 20.2155C100.958 20.4234 101.429 20.7319 101.799 21.1412C102.176 21.5505 102.455 22.0539 102.637 22.6516C102.819 23.2492 102.91 23.9346 102.91 24.7076ZM100.386 24.8051C100.386 24.3763 100.35 23.9833 100.279 23.626C100.214 23.2622 100.1 22.9472 99.9376 22.6808C99.7752 22.4145 99.5576 22.2066 99.2848 22.0572C99.0184 21.9078 98.6806 21.8331 98.2714 21.8331C97.9076 21.8331 97.5892 21.9013 97.3164 22.0377C97.0436 22.1676 96.8194 22.3625 96.644 22.6223C96.4686 22.8757 96.3355 23.1843 96.2445 23.5481C96.1601 23.9054 96.1178 24.3146 96.1178 24.7759C96.1178 25.2046 96.1536 25.6009 96.225 25.9647C96.2965 26.322 96.4102 26.6338 96.5661 26.9001C96.7285 27.1665 96.9461 27.3744 97.219 27.5238C97.4918 27.6667 97.8296 27.7382 98.2324 27.7382C98.6027 27.7382 98.9242 27.6732 99.1971 27.5433C99.4699 27.4068 99.694 27.212 99.8694 26.9586C100.045 26.7052 100.175 26.3999 100.259 26.0426C100.344 25.6788 100.386 25.2663 100.386 24.8051ZM113.161 29.1413C113.161 29.2063 113.141 29.2648 113.102 29.3167C113.063 29.3622 112.998 29.4012 112.907 29.4337C112.816 29.4662 112.69 29.4889 112.527 29.5019C112.371 29.5214 112.177 29.5311 111.943 29.5311C111.702 29.5311 111.501 29.5214 111.339 29.5019C111.183 29.4889 111.059 29.4662 110.968 29.4337C110.877 29.4012 110.812 29.3622 110.773 29.3167C110.734 29.2648 110.715 29.2063 110.715 29.1413V24.1814C110.715 23.7592 110.682 23.4279 110.618 23.1875C110.559 22.9472 110.471 22.7425 110.354 22.5736C110.237 22.3982 110.085 22.2651 109.896 22.1741C109.715 22.0767 109.5 22.0279 109.253 22.0279C108.941 22.0279 108.626 22.1416 108.308 22.369C107.99 22.5964 107.658 22.9277 107.314 23.3629V29.1413C107.314 29.2063 107.295 29.2648 107.256 29.3167C107.217 29.3622 107.149 29.4012 107.051 29.4337C106.96 29.4662 106.837 29.4889 106.681 29.5019C106.525 29.5214 106.327 29.5311 106.086 29.5311C105.846 29.5311 105.648 29.5214 105.492 29.5019C105.336 29.4889 105.209 29.4662 105.112 29.4337C105.021 29.4012 104.956 29.3622 104.917 29.3167C104.878 29.2648 104.859 29.2063 104.859 29.1413V20.4493C104.859 20.3844 104.875 20.3292 104.907 20.2837C104.94 20.2317 104.998 20.1895 105.083 20.157C105.167 20.1245 105.274 20.1018 105.404 20.0888C105.541 20.0693 105.71 20.0596 105.911 20.0596C106.119 20.0596 106.291 20.0693 106.427 20.0888C106.564 20.1018 106.668 20.1245 106.739 20.157C106.817 20.1895 106.872 20.2317 106.905 20.2837C106.937 20.3292 106.954 20.3844 106.954 20.4493V21.453C107.434 20.9333 107.922 20.5435 108.415 20.2837C108.915 20.0238 109.435 19.8939 109.974 19.8939C110.566 19.8939 111.063 19.9914 111.465 20.1862C111.875 20.3811 112.203 20.6475 112.449 20.9853C112.703 21.3166 112.885 21.7064 112.995 22.1546C113.106 22.6029 113.161 23.142 113.161 23.7722V29.1413Z" fill="#636363"/>
<rect width="248" height="12" transform="translate(17 40)" fill="#1BA8BB" fill-opacity="0.26"/>
<rect width="188" height="12" transform="translate(17 57)" fill="#1BA8BB" fill-opacity="0.26"/>
<rect x="8.41576" y="14.4158" width="305.168" height="86.1685" rx="16.2147" fill="#E1F2FF" stroke="#1BA8BB" stroke-width="0.831522"/>
<path d="M36.404 42.5762C36.404 42.7256 36.3781 42.8588 36.3261 42.9757C36.2741 43.0926 36.2027 43.1901 36.1117 43.268C36.0273 43.346 35.9233 43.4044 35.7999 43.4434C35.683 43.4759 35.5628 43.4921 35.4393 43.4921H34.348C34.1206 43.4921 33.9225 43.4694 33.7536 43.4239C33.5912 43.3785 33.4385 43.2973 33.2956 43.1803C33.1592 43.0569 33.026 42.8945 32.8961 42.6931C32.7661 42.4852 32.62 42.2189 32.4576 41.8941L29.3199 35.9987C29.138 35.6479 28.9528 35.2711 28.7644 34.8684C28.576 34.4591 28.4071 34.0628 28.2577 33.6795H28.2382C28.2642 34.1473 28.2837 34.615 28.2967 35.0827C28.3097 35.544 28.3162 36.0214 28.3162 36.5152V43.1121C28.3162 43.1771 28.2967 43.2355 28.2577 43.2875C28.2252 43.3395 28.1635 43.385 28.0726 43.4239C27.9881 43.4564 27.8712 43.4824 27.7218 43.5019C27.5724 43.5214 27.3807 43.5311 27.1469 43.5311C26.9195 43.5311 26.7311 43.5214 26.5817 43.5019C26.4323 43.4824 26.3153 43.4564 26.2309 43.4239C26.1464 43.385 26.088 43.3395 26.0555 43.2875C26.023 43.2355 26.0068 43.1771 26.0068 43.1121V31.7794C26.0068 31.4741 26.0945 31.2467 26.2699 31.0973C26.4518 30.9414 26.6726 30.8634 26.9325 30.8634H28.3064C28.5533 30.8634 28.7612 30.8861 28.9301 30.9316C29.099 30.9706 29.2484 31.0388 29.3783 31.1363C29.5148 31.2337 29.6414 31.3701 29.7584 31.5455C29.8753 31.7144 29.9955 31.9255 30.1189 32.1789L32.5745 36.788C32.7174 37.0673 32.8571 37.3434 32.9935 37.6163C33.1364 37.8826 33.2728 38.1522 33.4028 38.4251C33.5327 38.6914 33.6594 38.9545 33.7828 39.2144C33.9062 39.4742 34.0264 39.7341 34.1433 39.9939H34.1531C34.1336 39.5392 34.1174 39.0649 34.1044 38.5712C34.0979 38.0775 34.0946 37.6065 34.0946 37.1583V31.2434C34.0946 31.1785 34.1141 31.12 34.1531 31.068C34.1921 31.0161 34.257 30.9706 34.348 30.9316C34.4389 30.8926 34.5591 30.8667 34.7085 30.8537C34.8579 30.8342 35.0496 30.8244 35.2834 30.8244C35.5043 30.8244 35.6895 30.8342 35.8389 30.8537C35.9883 30.8667 36.102 30.8926 36.1799 30.9316C36.2644 30.9706 36.3228 31.0161 36.3553 31.068C36.3878 31.12 36.404 31.1785 36.404 31.2434V42.5762ZM47.805 38.7076C47.805 39.4482 47.7075 40.1238 47.5127 40.7345C47.3178 41.3451 47.0222 41.8713 46.6259 42.3131C46.2296 42.7548 45.7327 43.0959 45.135 43.3362C44.5374 43.5766 43.839 43.6968 43.04 43.6968C42.2669 43.6968 41.5946 43.5896 41.0229 43.3752C40.4512 43.1608 39.977 42.849 39.6002 42.4398C39.2234 42.0305 38.9441 41.527 38.7622 40.9294C38.5803 40.3317 38.4893 39.6496 38.4893 38.883C38.4893 38.1425 38.5868 37.4669 38.7817 36.8562C38.9831 36.2391 39.2819 35.7129 39.6782 35.2776C40.0744 34.8359 40.5681 34.4948 41.1593 34.2545C41.757 34.0141 42.4553 33.8939 43.2544 33.8939C44.0339 33.8939 44.7095 34.0011 45.2812 34.2155C45.8529 34.4234 46.3238 34.7319 46.6941 35.1412C47.0709 35.5505 47.3502 36.0539 47.5321 36.6516C47.714 37.2492 47.805 37.9346 47.805 38.7076ZM45.2812 38.8051C45.2812 38.3763 45.2455 37.9833 45.174 37.626C45.109 37.2622 44.9954 36.9472 44.8329 36.6808C44.6705 36.4145 44.4529 36.2066 44.1801 36.0572C43.9137 35.9078 43.5759 35.8331 43.1667 35.8331C42.8029 35.8331 42.4845 35.9013 42.2117 36.0377C41.9389 36.1676 41.7147 36.3625 41.5393 36.6223C41.3639 36.8757 41.2308 37.1843 41.1398 37.5481C41.0554 37.9054 41.0131 38.3146 41.0131 38.7759C41.0131 39.2046 41.0489 39.6009 41.1203 39.9647C41.1918 40.322 41.3055 40.6338 41.4614 40.9001C41.6238 41.1665 41.8414 41.3744 42.1143 41.5238C42.3871 41.6667 42.7249 41.7382 43.1277 41.7382C43.498 41.7382 43.8195 41.6732 44.0924 41.5433C44.3652 41.4068 44.5893 41.212 44.7647 40.9586C44.9401 40.7052 45.0701 40.3999 45.1545 40.0426C45.239 39.6788 45.2812 39.2663 45.2812 38.8051ZM58.2412 34.118C58.5141 34.118 58.7025 34.1765 58.8064 34.2934C58.9168 34.4104 58.9721 34.5793 58.9721 34.8001V43.1413C58.9721 43.2063 58.9526 43.2648 58.9136 43.3167C58.8746 43.3622 58.8097 43.4012 58.7187 43.4337C58.6278 43.4662 58.5011 43.4889 58.3387 43.5019C58.1828 43.5214 57.9879 43.5311 57.754 43.5311C57.5137 43.5311 57.3123 43.5214 57.1499 43.5019C56.9939 43.4889 56.8705 43.4662 56.7796 43.4337C56.6886 43.4012 56.6237 43.3622 56.5847 43.3167C56.5457 43.2648 56.5262 43.2063 56.5262 43.1413V36.1059H52.6187V40.1888C52.6187 40.663 52.6934 41.0203 52.8428 41.2607C52.9923 41.4945 53.2586 41.6115 53.6419 41.6115C53.7718 41.6115 53.8887 41.6017 53.9927 41.5822C54.0966 41.5563 54.1876 41.5303 54.2655 41.5043C54.35 41.4718 54.4182 41.4458 54.4702 41.4263C54.5286 41.4003 54.5806 41.3874 54.6261 41.3874C54.665 41.3874 54.7008 41.4003 54.7332 41.4263C54.7722 41.4458 54.8015 41.4913 54.8209 41.5628C54.8404 41.6277 54.8567 41.7187 54.8697 41.8356C54.8892 41.9525 54.8989 42.1019 54.8989 42.2838C54.8989 42.5697 54.8827 42.7873 54.8502 42.9367C54.8177 43.0796 54.7722 43.1868 54.7138 43.2583C54.6553 43.3232 54.5676 43.3817 54.4507 43.4337C54.3337 43.4792 54.1973 43.5181 54.0414 43.5506C53.892 43.5896 53.7263 43.6188 53.5444 43.6383C53.369 43.6578 53.1904 43.6675 53.0085 43.6675C52.5213 43.6675 52.099 43.6058 51.7417 43.4824C51.3844 43.359 51.0888 43.1706 50.855 42.9172C50.6211 42.6574 50.449 42.3326 50.3385 41.9428C50.2281 41.553 50.1729 41.0918 50.1729 40.5591V36.1059H49.1302C49.0068 36.1059 48.9126 36.0312 48.8476 35.8818C48.7827 35.7259 48.7502 35.4693 48.7502 35.112C48.7502 34.9236 48.7567 34.7644 48.7697 34.6345C48.7892 34.5046 48.8152 34.4039 48.8476 34.3324C48.8801 34.2545 48.9191 34.1992 48.9646 34.1668C49.0165 34.1343 49.075 34.118 49.14 34.118H50.1729V32.1789C50.1729 32.1139 50.1891 32.0555 50.2216 32.0035C50.2606 31.9515 50.3255 31.9093 50.4165 31.8768C50.5139 31.8378 50.6406 31.8119 50.7965 31.7989C50.9589 31.7794 51.1571 31.7696 51.3909 31.7696C51.6313 31.7696 51.8294 31.7794 51.9853 31.7989C52.1477 31.8119 52.2744 31.8378 52.3654 31.8768C52.4563 31.9093 52.5213 31.9515 52.5602 32.0035C52.5992 32.0555 52.6187 32.1139 52.6187 32.1789V34.118H58.2412ZM59.1669 31.5065C59.1669 32.0003 59.0663 32.3413 58.8649 32.5297C58.6635 32.7181 58.29 32.8123 57.7443 32.8123C57.1921 32.8123 56.8186 32.7213 56.6237 32.5394C56.4353 32.3575 56.3411 32.0295 56.3411 31.5553C56.3411 31.0615 56.4385 30.7205 56.6334 30.5321C56.8348 30.3372 57.2116 30.2398 57.7638 30.2398C58.3094 30.2398 58.6797 30.334 58.8746 30.5224C59.0695 30.7043 59.1669 31.0323 59.1669 31.5065ZM70.2268 31.526C70.2268 31.7664 70.2041 31.971 70.1586 32.1399C70.1197 32.3023 70.0482 32.4355 69.9443 32.5394C69.8403 32.6369 69.6974 32.7083 69.5155 32.7538C69.3401 32.7928 69.1192 32.8123 68.8529 32.8123C68.5865 32.8123 68.3624 32.7928 68.1805 32.7538C67.9986 32.7083 67.8525 32.6369 67.742 32.5394C67.6381 32.4355 67.5634 32.3023 67.5179 32.1399C67.4789 31.971 67.4594 31.7664 67.4594 31.526C67.4594 31.2922 67.4789 31.094 67.5179 30.9316C67.5634 30.7692 67.6381 30.636 67.742 30.5321C67.8525 30.4282 67.9986 30.3535 68.1805 30.308C68.3624 30.2625 68.5865 30.2398 68.8529 30.2398C69.1192 30.2398 69.3401 30.2625 69.5155 30.308C69.6974 30.3535 69.8403 30.4282 69.9443 30.5321C70.0482 30.636 70.1197 30.7692 70.1586 30.9316C70.2041 31.094 70.2268 31.2922 70.2268 31.526ZM70.0417 43.1413C70.0417 43.2063 70.0222 43.2648 69.9832 43.3167C69.9443 43.3622 69.8793 43.4012 69.7883 43.4337C69.6974 43.4662 69.5707 43.4889 69.4083 43.5019C69.2524 43.5214 69.0575 43.5311 68.8236 43.5311C68.5833 43.5311 68.3819 43.5214 68.2195 43.5019C68.0636 43.4889 67.9402 43.4662 67.8492 43.4337C67.7583 43.4012 67.6933 43.3622 67.6543 43.3167C67.6153 43.2648 67.5959 43.2063 67.5959 43.1413V36.1059H64.3705V43.1413C64.3705 43.2063 64.351 43.2648 64.312 43.3167C64.273 43.3622 64.2081 43.4012 64.1171 43.4337C64.0262 43.4662 63.8995 43.4889 63.7371 43.5019C63.5812 43.5214 63.383 43.5311 63.1427 43.5311C62.9088 43.5311 62.7107 43.5214 62.5483 43.5019C62.3923 43.4889 62.2657 43.4662 62.1682 43.4337C62.0773 43.4012 62.0123 43.3622 61.9733 43.3167C61.9409 43.2648 61.9246 43.2063 61.9246 43.1413V36.1059H60.8332C60.7098 36.1059 60.6156 36.0312 60.5507 35.8818C60.4922 35.7259 60.463 35.4693 60.463 35.112C60.463 34.9236 60.4695 34.7644 60.4824 34.6345C60.5019 34.5046 60.5247 34.4039 60.5507 34.3324C60.5831 34.2545 60.6221 34.1992 60.6676 34.1668C60.7196 34.1343 60.778 34.118 60.843 34.118H61.9246V33.3482C61.9246 32.7571 61.9831 32.2406 62.1 31.7989C62.2234 31.3571 62.4086 30.9901 62.6554 30.6978C62.9023 30.3989 63.2141 30.1781 63.5909 30.0351C63.9677 29.8857 64.4127 29.811 64.9259 29.811C65.0688 29.811 65.2117 29.8175 65.3546 29.8305C65.5041 29.8435 65.6437 29.863 65.7737 29.889C65.9036 29.915 66.0173 29.9442 66.1147 29.9767C66.2121 30.0091 66.2771 30.0449 66.3096 30.0839C66.3486 30.1163 66.3778 30.1553 66.3973 30.2008C66.4233 30.2463 66.4428 30.3047 66.4558 30.3762C66.4752 30.4476 66.4882 30.5418 66.4947 30.6588C66.5012 30.7692 66.5045 30.9089 66.5045 31.0778C66.5045 31.3896 66.485 31.6105 66.446 31.7404C66.4135 31.8638 66.3453 31.9255 66.2414 31.9255C66.2024 31.9255 66.1569 31.9191 66.105 31.9061C66.0595 31.8931 66.001 31.8768 65.9296 31.8573C65.8646 31.8378 65.7866 31.8216 65.6957 31.8086C65.6047 31.7891 65.4911 31.7794 65.3546 31.7794C65.0103 31.7794 64.7602 31.8963 64.6043 32.1302C64.4484 32.364 64.3705 32.7506 64.3705 33.2898V34.118H69.3011C69.548 34.118 69.7331 34.1733 69.8566 34.2837C69.98 34.3876 70.0417 34.5565 70.0417 34.7904V43.1413ZM79.0942 41.7576C79.0942 41.9265 79.0877 42.0695 79.0748 42.1864C79.0683 42.2968 79.0553 42.391 79.0358 42.469C79.0228 42.5469 79.0033 42.6119 78.9773 42.6639C78.9578 42.7093 78.9091 42.7711 78.8311 42.849C78.7532 42.9205 78.62 43.0114 78.4316 43.1219C78.2432 43.2258 78.0289 43.32 77.7885 43.4044C77.5481 43.4889 77.285 43.5571 76.9992 43.6091C76.7199 43.661 76.4308 43.687 76.1319 43.687C75.4628 43.687 74.8684 43.5831 74.3487 43.3752C73.8355 43.1673 73.4035 42.862 73.0527 42.4592C72.7019 42.05 72.4356 41.553 72.2537 40.9683C72.0783 40.3837 71.9906 39.7146 71.9906 38.961C71.9906 38.0905 72.0978 37.3402 72.3121 36.71C72.533 36.0734 72.8383 35.5472 73.2281 35.1315C73.6179 34.7157 74.0791 34.4071 74.6118 34.2057C75.1445 34.0044 75.7292 33.9037 76.3658 33.9037C76.6257 33.9037 76.879 33.9264 77.1259 33.9719C77.3792 34.0173 77.6131 34.0791 77.8275 34.157C78.0483 34.235 78.2432 34.3227 78.4121 34.4201C78.5875 34.5176 78.711 34.602 78.7824 34.6735C78.8539 34.7449 78.9026 34.8066 78.9286 34.8586C78.9611 34.9041 78.9838 34.9658 78.9968 35.0438C79.0163 35.1217 79.0293 35.2192 79.0358 35.3361C79.0488 35.4465 79.0553 35.5829 79.0553 35.7454C79.0553 36.1221 79.0228 36.3885 78.9578 36.5444C78.8929 36.6938 78.8084 36.7685 78.7045 36.7685C78.594 36.7685 78.4771 36.723 78.3537 36.6321C78.2302 36.5411 78.0841 36.4405 77.9152 36.33C77.7463 36.2196 77.5449 36.1189 77.311 36.0279C77.0771 35.937 76.7978 35.8915 76.473 35.8915C75.8364 35.8915 75.3491 36.1384 75.0113 36.6321C74.6735 37.1193 74.5046 37.8371 74.5046 38.7856C74.5046 39.2533 74.5469 39.6658 74.6313 40.0231C74.7158 40.3804 74.8392 40.6793 75.0016 40.9196C75.1705 41.16 75.3784 41.3419 75.6252 41.4653C75.8786 41.5822 76.1709 41.6407 76.5022 41.6407C76.84 41.6407 77.1291 41.592 77.3695 41.4945C77.6163 41.3906 77.8307 41.2769 78.0126 41.1535C78.1945 41.0301 78.3472 40.9196 78.4706 40.8222C78.594 40.7182 78.698 40.6663 78.7824 40.6663C78.8409 40.6663 78.8896 40.6825 78.9286 40.715C78.9676 40.7475 78.9968 40.8092 79.0163 40.9001C79.0423 40.9846 79.0618 41.095 79.0748 41.2314C79.0877 41.3679 79.0942 41.5433 79.0942 41.7576ZM88.1663 43.1706C88.1663 43.2615 88.1338 43.333 88.0688 43.385C88.0039 43.4369 87.8999 43.4727 87.757 43.4921C87.6206 43.5181 87.416 43.5311 87.1431 43.5311C86.8508 43.5311 86.6364 43.5181 86.5 43.4921C86.3701 43.4727 86.2759 43.4369 86.2174 43.385C86.1654 43.333 86.1394 43.2615 86.1394 43.1706V42.4787C85.7821 42.862 85.3729 43.1608 84.9116 43.3752C84.4569 43.5896 83.9502 43.6968 83.3915 43.6968C82.9303 43.6968 82.5048 43.6351 82.115 43.5116C81.7317 43.3947 81.3972 43.2193 81.1113 42.9854C80.832 42.7451 80.6144 42.4495 80.4585 42.0987C80.3025 41.7479 80.2246 41.3386 80.2246 40.8709C80.2246 40.3642 80.322 39.9257 80.5169 39.5554C80.7183 39.1786 81.0139 38.8701 81.4037 38.6297C81.7999 38.3828 82.2904 38.2009 82.8751 38.084C83.4597 37.9671 84.1386 37.9086 84.9116 37.9086H85.7594V37.3824C85.7594 37.1096 85.7302 36.8725 85.6717 36.6711C85.6197 36.4632 85.5288 36.291 85.3989 36.1546C85.2754 36.0182 85.1065 35.9175 84.8922 35.8525C84.6843 35.7876 84.4244 35.7551 84.1126 35.7551C83.7033 35.7551 83.3363 35.8006 83.0115 35.8915C82.6932 35.9825 82.4106 36.0832 82.1637 36.1936C81.9169 36.304 81.709 36.4047 81.5401 36.4957C81.3777 36.5866 81.2445 36.6321 81.1406 36.6321C81.0691 36.6321 81.0041 36.6094 80.9457 36.5639C80.8937 36.5184 80.8482 36.4534 80.8093 36.369C80.7768 36.2845 80.7508 36.1806 80.7313 36.0572C80.7118 35.9337 80.7021 35.7973 80.7021 35.6479C80.7021 35.4465 80.7183 35.2874 80.7508 35.1704C80.7833 35.0535 80.845 34.9496 80.9359 34.8586C81.0269 34.7612 81.186 34.6572 81.4134 34.5468C81.6408 34.4299 81.9071 34.3227 82.2124 34.2252C82.5178 34.1278 82.8491 34.0498 83.2064 33.9914C83.5702 33.9264 83.9437 33.8939 84.327 33.8939C85.0091 33.8939 85.5905 33.9621 86.0712 34.0985C86.5584 34.2285 86.958 34.4331 87.2698 34.7124C87.5816 34.9853 87.809 35.3393 87.9519 35.7746C88.0948 36.2098 88.1663 36.7263 88.1663 37.3239V43.1706ZM85.7594 39.4482H84.8239C84.4277 39.4482 84.0899 39.4775 83.8105 39.5359C83.5312 39.5944 83.3038 39.6821 83.1284 39.799C82.953 39.916 82.8231 40.0589 82.7386 40.2278C82.6607 40.3902 82.6217 40.5786 82.6217 40.7929C82.6217 41.1567 82.7354 41.4426 82.9628 41.6505C83.1966 41.8583 83.5182 41.9623 83.9275 41.9623C84.2718 41.9623 84.5868 41.8746 84.8727 41.6992C85.165 41.5238 85.4606 41.2672 85.7594 40.9294V39.4482ZM98.9143 34.118C99.1872 34.118 99.3756 34.1765 99.4795 34.2934C99.5899 34.4104 99.6452 34.5793 99.6452 34.8001V43.1413C99.6452 43.2063 99.6257 43.2648 99.5867 43.3167C99.5477 43.3622 99.4828 43.4012 99.3918 43.4337C99.3009 43.4662 99.1742 43.4889 99.0118 43.5019C98.8559 43.5214 98.661 43.5311 98.4271 43.5311C98.1868 43.5311 97.9854 43.5214 97.823 43.5019C97.6671 43.4889 97.5436 43.4662 97.4527 43.4337C97.3617 43.4012 97.2968 43.3622 97.2578 43.3167C97.2188 43.2648 97.1993 43.2063 97.1993 43.1413V36.1059H93.2918V40.1888C93.2918 40.663 93.3665 41.0203 93.5159 41.2607C93.6654 41.4945 93.9317 41.6115 94.315 41.6115C94.4449 41.6115 94.5618 41.6017 94.6658 41.5822C94.7697 41.5563 94.8607 41.5303 94.9386 41.5043C95.0231 41.4718 95.0913 41.4458 95.1433 41.4263C95.2017 41.4003 95.2537 41.3874 95.2992 41.3874C95.3381 41.3874 95.3739 41.4003 95.4064 41.4263C95.4453 41.4458 95.4746 41.4913 95.4941 41.5628C95.5135 41.6277 95.5298 41.7187 95.5428 41.8356C95.5623 41.9525 95.572 42.1019 95.572 42.2838C95.572 42.5697 95.5558 42.7873 95.5233 42.9367C95.4908 43.0796 95.4453 43.1868 95.3869 43.2583C95.3284 43.3232 95.2407 43.3817 95.1238 43.4337C95.0068 43.4792 94.8704 43.5181 94.7145 43.5506C94.5651 43.5896 94.3994 43.6188 94.2175 43.6383C94.0421 43.6578 93.8635 43.6675 93.6816 43.6675C93.1944 43.6675 92.7721 43.6058 92.4148 43.4824C92.0575 43.359 91.7619 43.1706 91.5281 42.9172C91.2942 42.6574 91.1221 42.3326 91.0116 41.9428C90.9012 41.553 90.846 41.0918 90.846 40.5591V36.1059H89.8033C89.6799 36.1059 89.5857 36.0312 89.5207 35.8818C89.4558 35.7259 89.4233 35.4693 89.4233 35.112C89.4233 34.9236 89.4298 34.7644 89.4428 34.6345C89.4623 34.5046 89.4883 34.4039 89.5207 34.3324C89.5532 34.2545 89.5922 34.1992 89.6377 34.1668C89.6896 34.1343 89.7481 34.118 89.8131 34.118H90.846V32.1789C90.846 32.1139 90.8622 32.0555 90.8947 32.0035C90.9337 31.9515 90.9986 31.9093 91.0896 31.8768C91.187 31.8378 91.3137 31.8119 91.4696 31.7989C91.632 31.7794 91.8302 31.7696 92.064 31.7696C92.3044 31.7696 92.5025 31.7794 92.6584 31.7989C92.8208 31.8119 92.9475 31.8378 93.0385 31.8768C93.1294 31.9093 93.1944 31.9515 93.2334 32.0035C93.2723 32.0555 93.2918 32.1139 93.2918 32.1789V34.118H98.9143ZM99.8401 31.5065C99.8401 32.0003 99.7394 32.3413 99.538 32.5297C99.3366 32.7181 98.9631 32.8123 98.4174 32.8123C97.8652 32.8123 97.4917 32.7213 97.2968 32.5394C97.1084 32.3575 97.0142 32.0295 97.0142 31.5553C97.0142 31.0615 97.1116 30.7205 97.3065 30.5321C97.5079 30.3372 97.8847 30.2398 98.4369 30.2398C98.9825 30.2398 99.3528 30.334 99.5477 30.5224C99.7426 30.7043 99.8401 31.0323 99.8401 31.5065ZM110.91 38.7076C110.91 39.4482 110.812 40.1238 110.617 40.7345C110.422 41.3451 110.127 41.8713 109.731 42.3131C109.334 42.7548 108.837 43.0959 108.24 43.3362C107.642 43.5766 106.944 43.6968 106.145 43.6968C105.372 43.6968 104.699 43.5896 104.128 43.3752C103.556 43.1608 103.082 42.849 102.705 42.4398C102.328 42.0305 102.049 41.527 101.867 40.9294C101.685 40.3317 101.594 39.6496 101.594 38.883C101.594 38.1425 101.691 37.4669 101.886 36.8562C102.088 36.2391 102.387 35.7129 102.783 35.2776C103.179 34.8359 103.673 34.4948 104.264 34.2545C104.862 34.0141 105.56 33.8939 106.359 33.8939C107.139 33.8939 107.814 34.0011 108.386 34.2155C108.958 34.4234 109.429 34.7319 109.799 35.1412C110.176 35.5505 110.455 36.0539 110.637 36.6516C110.819 37.2492 110.91 37.9346 110.91 38.7076ZM108.386 38.8051C108.386 38.3763 108.35 37.9833 108.279 37.626C108.214 37.2622 108.1 36.9472 107.938 36.6808C107.775 36.4145 107.558 36.2066 107.285 36.0572C107.018 35.9078 106.681 35.8331 106.271 35.8331C105.908 35.8331 105.589 35.9013 105.316 36.0377C105.044 36.1676 104.819 36.3625 104.644 36.6223C104.469 36.8757 104.335 37.1843 104.245 37.5481C104.16 37.9054 104.118 38.3146 104.118 38.7759C104.118 39.2046 104.154 39.6009 104.225 39.9647C104.296 40.322 104.41 40.6338 104.566 40.9001C104.728 41.1665 104.946 41.3744 105.219 41.5238C105.492 41.6667 105.83 41.7382 106.232 41.7382C106.603 41.7382 106.924 41.6732 107.197 41.5433C107.47 41.4068 107.694 41.212 107.869 40.9586C108.045 40.7052 108.175 40.3999 108.259 40.0426C108.344 39.6788 108.386 39.2663 108.386 38.8051ZM121.161 43.1413C121.161 43.2063 121.141 43.2648 121.102 43.3167C121.063 43.3622 120.998 43.4012 120.907 43.4337C120.816 43.4662 120.69 43.4889 120.527 43.5019C120.371 43.5214 120.177 43.5311 119.943 43.5311C119.702 43.5311 119.501 43.5214 119.339 43.5019C119.183 43.4889 119.059 43.4662 118.968 43.4337C118.877 43.4012 118.812 43.3622 118.773 43.3167C118.734 43.2648 118.715 43.2063 118.715 43.1413V38.1814C118.715 37.7592 118.682 37.4279 118.618 37.1875C118.559 36.9472 118.471 36.7425 118.354 36.5736C118.237 36.3982 118.085 36.2651 117.896 36.1741C117.715 36.0767 117.5 36.0279 117.253 36.0279C116.941 36.0279 116.626 36.1416 116.308 36.369C115.99 36.5964 115.658 36.9277 115.314 37.3629V43.1413C115.314 43.2063 115.295 43.2648 115.256 43.3167C115.217 43.3622 115.149 43.4012 115.051 43.4337C114.96 43.4662 114.837 43.4889 114.681 43.5019C114.525 43.5214 114.327 43.5311 114.086 43.5311C113.846 43.5311 113.648 43.5214 113.492 43.5019C113.336 43.4889 113.209 43.4662 113.112 43.4337C113.021 43.4012 112.956 43.3622 112.917 43.3167C112.878 43.2648 112.859 43.2063 112.859 43.1413V34.4493C112.859 34.3844 112.875 34.3292 112.907 34.2837C112.94 34.2317 112.998 34.1895 113.083 34.157C113.167 34.1245 113.274 34.1018 113.404 34.0888C113.541 34.0693 113.71 34.0596 113.911 34.0596C114.119 34.0596 114.291 34.0693 114.427 34.0888C114.564 34.1018 114.668 34.1245 114.739 34.157C114.817 34.1895 114.872 34.2317 114.905 34.2837C114.937 34.3292 114.954 34.3844 114.954 34.4493V35.453C115.434 34.9333 115.922 34.5435 116.415 34.2837C116.915 34.0238 117.435 33.8939 117.974 33.8939C118.566 33.8939 119.063 33.9914 119.465 34.1862C119.875 34.3811 120.203 34.6475 120.449 34.9853C120.703 35.3166 120.885 35.7064 120.995 36.1546C121.106 36.6029 121.161 37.142 121.161 37.7722V43.1413Z" fill="#636363"/>
<rect width="248" height="12" transform="translate(25 54)" fill="#1BA8BB" fill-opacity="0.26"/>
<rect width="188" height="12" transform="translate(25 71)" fill="#1BA8BB" fill-opacity="0.26"/>
</svg>
