<svg width="250" height="217" viewBox="0 0 250 217" fill="none" xmlns="http://www.w3.org/2000/svg">
<rect x="0.410478" y="0.410478" width="138.386" height="137.021" rx="12.7248" fill="#E1F2FF" stroke="#1BA8BB" stroke-width="0.820956"/>
<path d="M49.4983 106.755C49.4983 106.876 49.4923 106.978 49.4803 107.062C49.4723 107.142 49.4562 107.206 49.4322 107.255C49.4121 107.303 49.3881 107.339 49.36 107.363C49.332 107.387 49.2999 107.399 49.2638 107.399H46.7204V109.491H49.1075C49.1435 109.491 49.1756 109.501 49.2037 109.521C49.2317 109.541 49.2558 109.575 49.2758 109.624C49.2999 109.672 49.3159 109.736 49.3239 109.816C49.336 109.896 49.342 109.996 49.342 110.117C49.342 110.237 49.336 110.337 49.3239 110.417C49.3159 110.497 49.2999 110.564 49.2758 110.616C49.2558 110.668 49.2317 110.706 49.2037 110.73C49.1756 110.75 49.1435 110.76 49.1075 110.76H46.7204V113.658C46.7204 113.702 46.7083 113.74 46.6843 113.772C46.6602 113.805 46.6161 113.833 46.552 113.857C46.4919 113.877 46.4117 113.893 46.3115 113.905C46.2113 113.917 46.083 113.923 45.9267 113.923C45.7743 113.923 45.6461 113.917 45.5418 113.905C45.4416 113.893 45.3615 113.877 45.3013 113.857C45.2412 113.833 45.1971 113.805 45.169 113.772C45.145 113.74 45.133 113.702 45.133 113.658V106.605C45.133 106.429 45.1771 106.302 45.2653 106.226C45.3575 106.146 45.4697 106.106 45.602 106.106H49.2638C49.2999 106.106 49.332 106.118 49.36 106.142C49.3881 106.162 49.4121 106.198 49.4322 106.25C49.4562 106.298 49.4723 106.365 49.4803 106.449C49.4923 106.533 49.4983 106.635 49.4983 106.755ZM55.7818 113.682C55.7818 113.722 55.7717 113.758 55.7517 113.791C55.7316 113.819 55.6956 113.843 55.6435 113.863C55.5954 113.883 55.5292 113.897 55.445 113.905C55.3649 113.917 55.2626 113.923 55.1384 113.923C55.0061 113.923 54.8979 113.917 54.8137 113.905C54.7335 113.897 54.6694 113.883 54.6213 113.863C54.5732 113.843 54.5391 113.819 54.519 113.791C54.499 113.758 54.489 113.722 54.489 113.682V113.063C54.1924 113.384 53.8897 113.624 53.581 113.785C53.2764 113.945 52.9597 114.025 52.631 114.025C52.2622 114.025 51.9516 113.965 51.699 113.845C51.4505 113.724 51.2481 113.56 51.0917 113.352C50.9394 113.143 50.8292 112.903 50.761 112.63C50.6969 112.353 50.6648 112.011 50.6648 111.602V108.319C50.6648 108.279 50.6748 108.245 50.6949 108.217C50.7189 108.185 50.759 108.158 50.8151 108.138C50.8753 108.118 50.9534 108.104 51.0496 108.096C51.1498 108.084 51.2721 108.078 51.4164 108.078C51.5647 108.078 51.687 108.084 51.7832 108.096C51.8794 108.104 51.9556 108.118 52.0117 108.138C52.0718 108.158 52.1139 108.185 52.138 108.217C52.162 108.245 52.174 108.279 52.174 108.319V111.349C52.174 111.63 52.1921 111.844 52.2281 111.993C52.2642 112.141 52.3183 112.269 52.3905 112.377C52.4667 112.482 52.5609 112.564 52.6731 112.624C52.7893 112.68 52.9236 112.708 53.076 112.708C53.2684 112.708 53.4608 112.638 53.6532 112.498C53.8496 112.357 54.0581 112.153 54.2785 111.884V108.319C54.2785 108.279 54.2886 108.245 54.3086 108.217C54.3327 108.185 54.3727 108.158 54.4289 108.138C54.489 108.118 54.5672 108.104 54.6634 108.096C54.7596 108.084 54.8818 108.078 55.0301 108.078C55.1785 108.078 55.3007 108.084 55.3969 108.096C55.4931 108.104 55.5693 108.118 55.6254 108.138C55.6815 108.158 55.7216 108.185 55.7457 108.217C55.7697 108.245 55.7818 108.279 55.7818 108.319V113.682ZM58.8243 113.682C58.8243 113.722 58.8122 113.758 58.7882 113.791C58.7641 113.819 58.722 113.843 58.6619 113.863C58.6058 113.883 58.5296 113.897 58.4334 113.905C58.3372 113.917 58.215 113.923 58.0666 113.923C57.9183 113.923 57.7961 113.917 57.6999 113.905C57.6036 113.897 57.5255 113.883 57.4654 113.863C57.4092 113.843 57.3691 113.819 57.3451 113.791C57.321 113.758 57.309 113.722 57.309 113.682V105.775C57.309 105.735 57.321 105.699 57.3451 105.667C57.3691 105.635 57.4092 105.609 57.4654 105.589C57.5255 105.565 57.6036 105.547 57.6999 105.535C57.7961 105.523 57.9183 105.517 58.0666 105.517C58.215 105.517 58.3372 105.523 58.4334 105.535C58.5296 105.547 58.6058 105.565 58.6619 105.589C58.722 105.609 58.7641 105.635 58.7882 105.667C58.8122 105.699 58.8243 105.735 58.8243 105.775V113.682ZM61.8547 113.682C61.8547 113.722 61.8427 113.758 61.8187 113.791C61.7946 113.819 61.7525 113.843 61.6924 113.863C61.6363 113.883 61.5601 113.897 61.4639 113.905C61.3677 113.917 61.2454 113.923 61.0971 113.923C60.9488 113.923 60.8265 113.917 60.7303 113.905C60.6341 113.897 60.556 113.883 60.4958 113.863C60.4397 113.843 60.3996 113.819 60.3756 113.791C60.3515 113.758 60.3395 113.722 60.3395 113.682V105.775C60.3395 105.735 60.3515 105.699 60.3756 105.667C60.3996 105.635 60.4397 105.609 60.4958 105.589C60.556 105.565 60.6341 105.547 60.7303 105.535C60.8265 105.523 60.9488 105.517 61.0971 105.517C61.2454 105.517 61.3677 105.523 61.4639 105.535C61.5601 105.547 61.6363 105.565 61.6924 105.589C61.7525 105.609 61.7946 105.635 61.8187 105.667C61.8427 105.699 61.8547 105.735 61.8547 105.775V113.682ZM72.6659 113.334C72.6659 113.426 72.6498 113.508 72.6178 113.58C72.5857 113.652 72.5416 113.712 72.4855 113.76C72.4334 113.809 72.3692 113.845 72.2931 113.869C72.2209 113.889 72.1468 113.899 72.0706 113.899H71.3972C71.2569 113.899 71.1346 113.885 71.0304 113.857C70.9302 113.829 70.836 113.778 70.7478 113.706C70.6636 113.63 70.5814 113.53 70.5012 113.406C70.4211 113.277 70.3309 113.113 70.2307 112.913L68.2945 109.275C68.1823 109.058 68.068 108.826 67.9518 108.577C67.8355 108.325 67.7313 108.08 67.6391 107.844H67.6271C67.6431 108.132 67.6552 108.421 67.6632 108.71C67.6712 108.994 67.6752 109.289 67.6752 109.594V113.664C67.6752 113.704 67.6632 113.74 67.6391 113.772C67.6191 113.805 67.581 113.833 67.5249 113.857C67.4728 113.877 67.4006 113.893 67.3084 113.905C67.2162 113.917 67.098 113.923 66.9537 113.923C66.8134 113.923 66.6971 113.917 66.6049 113.905C66.5127 113.893 66.4406 113.877 66.3884 113.857C66.3363 113.833 66.3003 113.805 66.2802 113.772C66.2602 113.74 66.2501 113.704 66.2501 113.664V106.671C66.2501 106.483 66.3043 106.343 66.4125 106.25C66.5247 106.154 66.661 106.106 66.8214 106.106H67.6692C67.8215 106.106 67.9498 106.12 68.054 106.148C68.1582 106.172 68.2504 106.214 68.3306 106.274C68.4148 106.335 68.4929 106.419 68.5651 106.527C68.6373 106.631 68.7114 106.761 68.7876 106.918L70.3028 109.762C70.391 109.934 70.4772 110.105 70.5614 110.273C70.6496 110.437 70.7337 110.604 70.8139 110.772C70.8941 110.936 70.9722 111.099 71.0484 111.259C71.1246 111.419 71.1987 111.58 71.2709 111.74H71.2769C71.2649 111.46 71.2549 111.167 71.2468 110.862C71.2428 110.558 71.2408 110.267 71.2408 109.99V106.341C71.2408 106.3 71.2528 106.264 71.2769 106.232C71.301 106.2 71.341 106.172 71.3972 106.148C71.4533 106.124 71.5274 106.108 71.6196 106.1C71.7118 106.088 71.8301 106.082 71.9744 106.082C72.1107 106.082 72.2249 106.088 72.3171 106.1C72.4093 106.108 72.4795 106.124 72.5276 106.148C72.5797 106.172 72.6158 106.2 72.6358 106.232C72.6558 106.264 72.6659 106.3 72.6659 106.341V113.334ZM78.8471 113.7C78.8471 113.756 78.8271 113.801 78.787 113.833C78.7469 113.865 78.6827 113.887 78.5946 113.899C78.5104 113.915 78.3841 113.923 78.2157 113.923C78.0354 113.923 77.9031 113.915 77.8189 113.899C77.7387 113.887 77.6806 113.865 77.6445 113.833C77.6125 113.801 77.5964 113.756 77.5964 113.7V113.273C77.3759 113.51 77.1234 113.694 76.8388 113.827C76.5582 113.959 76.2455 114.025 75.9008 114.025C75.6162 114.025 75.3536 113.987 75.1131 113.911C74.8766 113.839 74.6702 113.73 74.4938 113.586C74.3214 113.438 74.1871 113.255 74.0909 113.039C73.9947 112.822 73.9466 112.57 73.9466 112.281C73.9466 111.969 74.0067 111.698 74.127 111.47C74.2513 111.237 74.4337 111.047 74.6742 110.898C74.9187 110.746 75.2213 110.634 75.5821 110.562C75.9429 110.489 76.3618 110.453 76.8388 110.453H77.3619V110.129C77.3619 109.96 77.3439 109.814 77.3078 109.69C77.2757 109.561 77.2196 109.455 77.1394 109.371C77.0633 109.287 76.9591 109.225 76.8268 109.185C76.6985 109.145 76.5382 109.125 76.3457 109.125C76.0932 109.125 75.8667 109.153 75.6663 109.209C75.4699 109.265 75.2955 109.327 75.1432 109.395C74.9908 109.463 74.8626 109.525 74.7583 109.582C74.6581 109.638 74.576 109.666 74.5118 109.666C74.4677 109.666 74.4276 109.652 74.3916 109.624C74.3595 109.596 74.3314 109.555 74.3074 109.503C74.2873 109.451 74.2713 109.387 74.2593 109.311C74.2473 109.235 74.2412 109.151 74.2412 109.058C74.2412 108.934 74.2513 108.836 74.2713 108.764C74.2913 108.692 74.3294 108.627 74.3856 108.571C74.4417 108.511 74.5399 108.447 74.6802 108.379C74.8205 108.307 74.9848 108.241 75.1732 108.181C75.3616 108.12 75.5661 108.072 75.7865 108.036C76.011 107.996 76.2415 107.976 76.478 107.976C76.8989 107.976 77.2577 108.018 77.5543 108.102C77.855 108.183 78.1015 108.309 78.2939 108.481C78.4863 108.65 78.6266 108.868 78.7148 109.137C78.803 109.405 78.8471 109.724 78.8471 110.093V113.7ZM77.3619 111.403H76.7847C76.5402 111.403 76.3317 111.421 76.1593 111.458C75.987 111.494 75.8467 111.548 75.7384 111.62C75.6302 111.692 75.55 111.78 75.4979 111.884C75.4498 111.985 75.4258 112.101 75.4258 112.233C75.4258 112.458 75.4959 112.634 75.6362 112.762C75.7805 112.891 75.979 112.955 76.2315 112.955C76.444 112.955 76.6384 112.901 76.8147 112.792C76.9951 112.684 77.1775 112.526 77.3619 112.317V111.403ZM88.8946 113.682C88.8946 113.722 88.8826 113.758 88.8585 113.791C88.8345 113.819 88.7944 113.843 88.7383 113.863C88.6821 113.883 88.606 113.897 88.5098 113.905C88.4136 113.917 88.2913 113.923 88.143 113.923C87.9907 113.923 87.8664 113.917 87.7702 113.905C87.674 113.897 87.5958 113.883 87.5357 113.863C87.4796 113.843 87.4395 113.819 87.4154 113.791C87.3954 113.758 87.3854 113.722 87.3854 113.682V110.501C87.3854 110.321 87.3673 110.157 87.3312 110.008C87.2992 109.86 87.2471 109.734 87.1749 109.63C87.1068 109.521 87.0186 109.439 86.9103 109.383C86.8061 109.323 86.6799 109.293 86.5315 109.293C86.3512 109.293 86.1688 109.363 85.9844 109.503C85.8 109.644 85.5995 109.848 85.3831 110.117V113.682C85.3831 113.722 85.3711 113.758 85.347 113.791C85.323 113.819 85.2809 113.843 85.2207 113.863C85.1646 113.883 85.0884 113.897 84.9922 113.905C84.896 113.917 84.7758 113.923 84.6315 113.923C84.4832 113.923 84.3609 113.917 84.2647 113.905C84.1685 113.897 84.0903 113.883 84.0302 113.863C83.9741 113.843 83.934 113.819 83.9099 113.791C83.8859 113.758 83.8739 113.722 83.8739 113.682V110.501C83.8739 110.321 83.8558 110.157 83.8197 110.008C83.7877 109.86 83.7376 109.734 83.6694 109.63C83.6013 109.521 83.5131 109.439 83.4048 109.383C83.2966 109.323 83.1703 109.293 83.026 109.293C82.8416 109.293 82.6572 109.363 82.4729 109.503C82.2885 109.644 82.09 109.848 81.8776 110.117V113.682C81.8776 113.722 81.8656 113.758 81.8415 113.791C81.8175 113.819 81.7754 113.843 81.7152 113.863C81.6591 113.883 81.5829 113.897 81.4867 113.905C81.3905 113.917 81.2683 113.923 81.12 113.923C80.9716 113.923 80.8494 113.917 80.7532 113.905C80.657 113.897 80.5788 113.883 80.5187 113.863C80.4626 113.843 80.4225 113.819 80.3984 113.791C80.3744 113.758 80.3623 113.722 80.3623 113.682V108.319C80.3623 108.279 80.3724 108.245 80.3924 108.217C80.4124 108.185 80.4485 108.158 80.5006 108.138C80.5527 108.118 80.6189 108.104 80.6991 108.096C80.7832 108.084 80.8875 108.078 81.0117 108.078C81.14 108.078 81.2462 108.084 81.3304 108.096C81.4146 108.104 81.4787 108.118 81.5228 108.138C81.5709 108.158 81.605 108.185 81.625 108.217C81.6451 108.245 81.6551 108.279 81.6551 108.319V108.938C81.9517 108.617 82.2464 108.377 82.539 108.217C82.8356 108.056 83.1443 107.976 83.465 107.976C83.6854 107.976 83.8839 108 84.0602 108.048C84.2366 108.092 84.393 108.158 84.5293 108.247C84.6696 108.331 84.7898 108.433 84.89 108.553C84.9902 108.674 85.0744 108.808 85.1426 108.956C85.3029 108.784 85.4592 108.635 85.6116 108.511C85.7679 108.387 85.9202 108.287 86.0685 108.211C86.2209 108.13 86.3712 108.072 86.5195 108.036C86.6718 107.996 86.8262 107.976 86.9825 107.976C87.3393 107.976 87.6399 108.036 87.8844 108.156C88.129 108.277 88.3254 108.441 88.4737 108.65C88.626 108.854 88.7342 109.094 88.7984 109.371C88.8625 109.648 88.8946 109.94 88.8946 110.249V113.682ZM95.3344 110.844C95.3344 111.029 95.2923 111.165 95.2081 111.253C95.1279 111.341 95.0157 111.385 94.8714 111.385H91.6064C91.6064 111.614 91.6324 111.822 91.6846 112.011C91.7407 112.195 91.8269 112.353 91.9431 112.486C92.0634 112.614 92.2157 112.712 92.4001 112.78C92.5885 112.848 92.813 112.883 93.0735 112.883C93.3381 112.883 93.5706 112.865 93.771 112.828C93.9715 112.788 94.1438 112.746 94.2881 112.702C94.4364 112.654 94.5587 112.612 94.6549 112.576C94.7511 112.536 94.8293 112.516 94.8894 112.516C94.9255 112.516 94.9556 112.524 94.9796 112.54C95.0037 112.552 95.0237 112.576 95.0397 112.612C95.0558 112.648 95.0658 112.7 95.0698 112.768C95.0778 112.832 95.0818 112.915 95.0818 113.015C95.0818 113.103 95.0798 113.179 95.0758 113.243C95.0718 113.303 95.0658 113.356 95.0578 113.4C95.0498 113.444 95.0377 113.482 95.0217 113.514C95.0057 113.542 94.9836 113.57 94.9556 113.598C94.9315 113.626 94.8614 113.664 94.7451 113.712C94.6289 113.76 94.4805 113.809 94.3002 113.857C94.1198 113.901 93.9133 113.939 93.6808 113.971C93.4483 114.007 93.1998 114.025 92.9352 114.025C92.4582 114.025 92.0393 113.965 91.6785 113.845C91.3218 113.724 91.0231 113.542 90.7826 113.297C90.5421 113.053 90.3617 112.744 90.2415 112.371C90.1252 111.999 90.0671 111.562 90.0671 111.061C90.0671 110.584 90.1292 110.155 90.2535 109.774C90.3778 109.389 90.5581 109.064 90.7947 108.8C91.0312 108.531 91.3178 108.327 91.6545 108.187C91.9952 108.046 92.378 107.976 92.803 107.976C93.2519 107.976 93.6347 108.042 93.9514 108.174C94.2721 108.307 94.5347 108.491 94.7391 108.728C94.9435 108.96 95.0939 109.237 95.1901 109.557C95.2863 109.878 95.3344 110.227 95.3344 110.604V110.844ZM93.8672 110.411C93.8793 109.986 93.7931 109.654 93.6087 109.413C93.4283 109.169 93.1477 109.046 92.7669 109.046C92.5745 109.046 92.4061 109.082 92.2618 109.155C92.1215 109.227 92.0032 109.325 91.907 109.449C91.8148 109.569 91.7427 109.714 91.6906 109.882C91.6425 110.047 91.6144 110.223 91.6064 110.411H93.8672Z" fill="#1BA8BB"/>
<path d="M65.2504 128.72C65.2504 128.754 65.244 128.784 65.2311 128.81C65.2183 128.835 65.1905 128.857 65.1478 128.874C65.105 128.891 65.0451 128.904 64.9682 128.912C64.8912 128.921 64.7886 128.925 64.6603 128.925C64.5492 128.925 64.4572 128.921 64.3845 128.912C64.3161 128.904 64.2605 128.891 64.2178 128.874C64.175 128.853 64.1408 128.825 64.1152 128.791C64.0938 128.756 64.0745 128.714 64.0574 128.662L63.2942 126.706C63.2044 126.484 63.1103 126.281 63.012 126.097C62.9179 125.909 62.8046 125.748 62.6721 125.616C62.5395 125.479 62.3835 125.374 62.2039 125.301C62.0243 125.224 61.8084 125.186 61.5561 125.186H60.8185V128.72C60.8185 128.754 60.8078 128.784 60.7864 128.81C60.7693 128.835 60.7394 128.857 60.6966 128.874C60.6582 128.887 60.6026 128.897 60.5299 128.906C60.4615 128.919 60.3738 128.925 60.2669 128.925C60.16 128.925 60.0702 128.919 59.9975 128.906C59.9291 128.897 59.8735 128.887 59.8308 128.874C59.788 128.857 59.7581 128.835 59.741 128.81C59.7239 128.784 59.7153 128.754 59.7153 128.72V121.036C59.7153 120.87 59.7581 120.754 59.8436 120.69C59.9334 120.622 60.0275 120.587 60.1258 120.587H61.8896C62.0991 120.587 62.2723 120.594 62.4091 120.607C62.5502 120.615 62.6763 120.626 62.7875 120.639C63.1082 120.694 63.3904 120.782 63.6341 120.902C63.8821 121.021 64.0895 121.173 64.2563 121.357C64.423 121.541 64.547 121.753 64.6283 121.992C64.7138 122.227 64.7565 122.488 64.7565 122.774C64.7565 123.052 64.718 123.303 64.6411 123.525C64.5684 123.743 64.4615 123.937 64.3204 124.108C64.1793 124.275 64.0104 124.421 63.8137 124.545C63.617 124.669 63.3968 124.773 63.1531 124.859C63.2899 124.919 63.4139 124.996 63.5251 125.09C63.6363 125.18 63.7389 125.289 63.833 125.417C63.9313 125.545 64.0232 125.693 64.1087 125.859C64.1943 126.026 64.2798 126.214 64.3653 126.424L65.1093 128.252C65.1691 128.406 65.2076 128.515 65.2247 128.579C65.2418 128.639 65.2504 128.686 65.2504 128.72ZM63.5892 122.89C63.5892 122.565 63.5165 122.291 63.3712 122.069C63.2258 121.842 62.9821 121.68 62.64 121.581C62.5331 121.552 62.4112 121.53 62.2744 121.517C62.1419 121.505 61.9666 121.498 61.7485 121.498H60.8185V124.294H61.896C62.1868 124.294 62.4369 124.26 62.6464 124.192C62.8602 124.119 63.0377 124.021 63.1788 123.897C63.3199 123.769 63.4225 123.619 63.4866 123.448C63.555 123.277 63.5892 123.091 63.5892 122.89ZM71.8244 125.776C71.8244 126.246 71.7624 126.68 71.6385 127.078C71.5145 127.471 71.3285 127.811 71.0805 128.098C70.8367 128.384 70.5289 128.609 70.1569 128.771C69.7892 128.929 69.3616 129.009 68.8741 129.009C68.3995 129.009 67.9848 128.938 67.6299 128.797C67.2793 128.656 66.9864 128.451 66.7512 128.181C66.516 127.912 66.3407 127.585 66.2253 127.2C66.1098 126.815 66.0521 126.379 66.0521 125.892C66.0521 125.421 66.112 124.989 66.2317 124.596C66.3557 124.198 66.5395 123.856 66.7833 123.57C67.0313 123.283 67.3391 123.061 67.7068 122.903C68.0746 122.745 68.5043 122.665 68.996 122.665C69.4706 122.665 69.8832 122.736 70.2338 122.877C70.5887 123.018 70.8838 123.223 71.1189 123.493C71.3541 123.762 71.5294 124.089 71.6449 124.474C71.7646 124.859 71.8244 125.293 71.8244 125.776ZM70.7085 125.847C70.7085 125.534 70.6785 125.239 70.6187 124.962C70.5631 124.684 70.469 124.44 70.3365 124.23C70.2039 124.021 70.0243 123.856 69.7977 123.737C69.5711 123.613 69.2889 123.551 68.9511 123.551C68.639 123.551 68.3696 123.606 68.143 123.717C67.9206 123.828 67.7368 123.987 67.5914 124.192C67.446 124.393 67.337 124.632 67.2643 124.91C67.1959 125.188 67.1617 125.492 67.1617 125.821C67.1617 126.137 67.1895 126.435 67.2451 126.712C67.3049 126.99 67.4011 127.234 67.5337 127.444C67.6705 127.649 67.8522 127.813 68.0788 127.937C68.3055 128.057 68.5877 128.117 68.9254 128.117C69.2333 128.117 69.5005 128.061 69.7272 127.95C69.9538 127.839 70.1398 127.683 70.2852 127.482C70.4305 127.281 70.5374 127.042 70.6058 126.764C70.6743 126.486 70.7085 126.18 70.7085 125.847ZM74.4412 128.726C74.4412 128.761 74.4327 128.791 74.4156 128.816C74.3985 128.838 74.3707 128.857 74.3322 128.874C74.2937 128.891 74.2403 128.904 74.1719 128.912C74.1035 128.921 74.0158 128.925 73.9089 128.925C73.8063 128.925 73.7208 128.921 73.6524 128.912C73.5839 128.904 73.5284 128.891 73.4856 128.874C73.4471 128.857 73.4193 128.838 73.4022 128.816C73.3894 128.791 73.383 128.761 73.383 128.726V120.158C73.383 120.123 73.3894 120.094 73.4022 120.068C73.4193 120.042 73.4471 120.021 73.4856 120.004C73.5284 119.987 73.5839 119.974 73.6524 119.965C73.7208 119.957 73.8063 119.952 73.9089 119.952C74.0158 119.952 74.1035 119.957 74.1719 119.965C74.2403 119.974 74.2937 119.987 74.3322 120.004C74.3707 120.021 74.3985 120.042 74.4156 120.068C74.4327 120.094 74.4412 120.123 74.4412 120.158V128.726ZM81.3232 125.59C81.3232 125.757 81.2804 125.877 81.1949 125.949C81.1137 126.018 81.0196 126.052 80.9127 126.052H77.1286C77.1286 126.373 77.1607 126.661 77.2248 126.918C77.2889 127.174 77.3958 127.394 77.5455 127.578C77.6951 127.762 77.8897 127.903 78.1291 128.002C78.3686 128.1 78.6615 128.149 79.0078 128.149C79.2815 128.149 79.5252 128.128 79.739 128.085C79.9528 128.038 80.1366 127.987 80.2906 127.931C80.4488 127.875 80.577 127.826 80.6754 127.784C80.778 127.737 80.855 127.713 80.9063 127.713C80.9362 127.713 80.9619 127.722 80.9832 127.739C81.0089 127.751 81.0281 127.773 81.041 127.803C81.0538 127.833 81.0623 127.875 81.0666 127.931C81.0752 127.982 81.0794 128.047 81.0794 128.123C81.0794 128.179 81.0773 128.228 81.073 128.271C81.0688 128.309 81.0623 128.346 81.0538 128.38C81.0495 128.41 81.0388 128.438 81.0217 128.463C81.0089 128.489 80.9897 128.515 80.964 128.54C80.9426 128.562 80.8742 128.6 80.7588 128.656C80.6433 128.707 80.4937 128.758 80.3098 128.81C80.1259 128.861 79.9122 128.906 79.6684 128.944C79.429 128.987 79.1724 129.009 78.8988 129.009C78.4242 129.009 78.0073 128.942 77.6481 128.81C77.2932 128.677 76.9939 128.481 76.7502 128.22C76.5065 127.959 76.3226 127.632 76.1986 127.238C76.0746 126.845 76.0126 126.388 76.0126 125.866C76.0126 125.37 76.0767 124.925 76.205 124.532C76.3333 124.134 76.5172 123.799 76.7566 123.525C77.0003 123.247 77.2932 123.035 77.6353 122.89C77.9773 122.74 78.36 122.665 78.7833 122.665C79.2366 122.665 79.6214 122.738 79.9378 122.883C80.2585 123.029 80.5215 123.226 80.7267 123.474C80.9319 123.717 81.0816 124.006 81.1757 124.339C81.274 124.669 81.3232 125.021 81.3232 125.398V125.59ZM80.2585 125.276C80.2713 124.72 80.1473 124.284 79.8865 123.967C79.6299 123.651 79.2473 123.493 78.7384 123.493C78.4776 123.493 78.2489 123.542 78.0522 123.64C77.8555 123.739 77.6909 123.869 77.5583 124.032C77.4258 124.194 77.3231 124.384 77.2505 124.602C77.1778 124.816 77.1371 125.041 77.1286 125.276H80.2585Z" fill="#1BA8BB"/>
<circle cx="70.2822" cy="58.5547" r="37.3535" fill="white" stroke="#1BA8BB" stroke-width="2.46287"/>
<rect x="110.922" y="81.9515" width="137.921" height="134.637" rx="12.7248" fill="#E1F2FF" stroke="#1BA8BB" stroke-width="0.820956"/>
<path d="M153.924 192.036C153.924 192.156 153.918 192.258 153.906 192.343C153.898 192.423 153.884 192.491 153.864 192.547C153.844 192.599 153.818 192.637 153.785 192.661C153.757 192.685 153.723 192.697 153.683 192.697H150.118C149.985 192.697 149.873 192.659 149.781 192.583C149.693 192.503 149.649 192.375 149.649 192.198V185.133C149.649 185.093 149.661 185.057 149.685 185.025C149.713 184.993 149.757 184.967 149.817 184.947C149.877 184.927 149.957 184.911 150.057 184.899C150.162 184.887 150.29 184.881 150.442 184.881C150.599 184.881 150.727 184.887 150.827 184.899C150.927 184.911 151.008 184.927 151.068 184.947C151.128 184.967 151.17 184.993 151.194 185.025C151.222 185.057 151.236 185.093 151.236 185.133V191.392H153.683C153.723 191.392 153.757 191.404 153.785 191.429C153.818 191.449 153.844 191.485 153.864 191.537C153.884 191.585 153.898 191.651 153.906 191.735C153.918 191.815 153.924 191.916 153.924 192.036ZM159.72 189.655C159.72 189.839 159.678 189.975 159.594 190.064C159.514 190.152 159.401 190.196 159.257 190.196H155.992C155.992 190.424 156.018 190.633 156.07 190.821C156.126 191.006 156.213 191.164 156.329 191.296C156.449 191.425 156.601 191.523 156.786 191.591C156.974 191.659 157.199 191.693 157.459 191.693C157.724 191.693 157.956 191.675 158.157 191.639C158.357 191.599 158.53 191.557 158.674 191.513C158.822 191.465 158.944 191.423 159.041 191.386C159.137 191.346 159.215 191.326 159.275 191.326C159.311 191.326 159.341 191.334 159.365 191.35C159.389 191.362 159.409 191.386 159.426 191.423C159.442 191.459 159.452 191.511 159.456 191.579C159.464 191.643 159.468 191.725 159.468 191.825C159.468 191.914 159.466 191.99 159.462 192.054C159.458 192.114 159.452 192.166 159.444 192.21C159.436 192.254 159.424 192.292 159.407 192.324C159.391 192.353 159.369 192.381 159.341 192.409C159.317 192.437 159.247 192.475 159.131 192.523C159.015 192.571 158.866 192.619 158.686 192.667C158.506 192.711 158.299 192.749 158.067 192.781C157.834 192.818 157.586 192.836 157.321 192.836C156.844 192.836 156.425 192.775 156.064 192.655C155.708 192.535 155.409 192.353 155.168 192.108C154.928 191.863 154.748 191.555 154.627 191.182C154.511 190.809 154.453 190.372 154.453 189.871C154.453 189.394 154.515 188.965 154.639 188.584C154.764 188.2 154.944 187.875 155.18 187.61C155.417 187.342 155.704 187.137 156.04 186.997C156.381 186.857 156.764 186.787 157.189 186.787C157.638 186.787 158.021 186.853 158.337 186.985C158.658 187.117 158.92 187.302 159.125 187.538C159.329 187.771 159.48 188.047 159.576 188.368C159.672 188.689 159.72 189.037 159.72 189.414V189.655ZM158.253 189.222C158.265 188.797 158.179 188.464 157.994 188.224C157.814 187.979 157.533 187.857 157.153 187.857C156.96 187.857 156.792 187.893 156.648 187.965C156.507 188.037 156.389 188.136 156.293 188.26C156.201 188.38 156.128 188.524 156.076 188.693C156.028 188.857 156 189.033 155.992 189.222H158.253ZM166.094 192.493C166.094 192.533 166.082 192.569 166.058 192.601C166.034 192.629 165.994 192.653 165.937 192.673C165.881 192.693 165.803 192.707 165.703 192.715C165.607 192.727 165.486 192.733 165.342 192.733C165.194 192.733 165.07 192.727 164.969 192.715C164.873 192.707 164.797 192.693 164.741 192.673C164.685 192.653 164.645 192.629 164.621 192.601C164.597 192.569 164.585 192.533 164.585 192.493V189.432C164.585 189.172 164.565 188.967 164.524 188.819C164.488 188.671 164.434 188.544 164.362 188.44C164.29 188.332 164.196 188.25 164.079 188.194C163.967 188.134 163.835 188.103 163.683 188.103C163.49 188.103 163.296 188.174 163.099 188.314C162.903 188.454 162.699 188.659 162.486 188.927V192.493C162.486 192.533 162.474 192.569 162.45 192.601C162.426 192.629 162.384 192.653 162.324 192.673C162.268 192.693 162.191 192.707 162.095 192.715C161.999 192.727 161.877 192.733 161.728 192.733C161.58 192.733 161.458 192.727 161.362 192.715C161.265 192.707 161.187 192.693 161.127 192.673C161.071 192.653 161.031 192.629 161.007 192.601C160.983 192.569 160.971 192.533 160.971 192.493V187.129C160.971 187.089 160.981 187.055 161.001 187.027C161.021 186.995 161.057 186.969 161.109 186.949C161.161 186.929 161.227 186.915 161.308 186.907C161.392 186.895 161.496 186.889 161.62 186.889C161.748 186.889 161.855 186.895 161.939 186.907C162.023 186.915 162.087 186.929 162.131 186.949C162.179 186.969 162.213 186.995 162.234 187.027C162.254 187.055 162.264 187.089 162.264 187.129V187.749C162.56 187.428 162.861 187.187 163.166 187.027C163.474 186.867 163.795 186.787 164.128 186.787C164.492 186.787 164.799 186.847 165.048 186.967C165.3 187.087 165.503 187.252 165.655 187.46C165.811 187.664 165.923 187.905 165.992 188.182C166.06 188.458 166.094 188.791 166.094 189.18V192.493ZM172.155 192.511C172.155 192.567 172.135 192.611 172.095 192.643C172.055 192.675 171.99 192.697 171.902 192.709C171.818 192.725 171.692 192.733 171.523 192.733C171.343 192.733 171.211 192.725 171.127 192.709C171.046 192.697 170.988 192.675 170.952 192.643C170.92 192.611 170.904 192.567 170.904 192.511V192.084C170.684 192.32 170.431 192.505 170.146 192.637C169.866 192.769 169.553 192.836 169.208 192.836C168.924 192.836 168.661 192.797 168.421 192.721C168.184 192.649 167.978 192.541 167.801 192.397C167.629 192.248 167.495 192.066 167.399 191.849C167.302 191.633 167.254 191.38 167.254 191.092C167.254 190.779 167.314 190.509 167.435 190.28C167.559 190.048 167.741 189.857 167.982 189.709C168.226 189.557 168.529 189.444 168.89 189.372C169.251 189.3 169.669 189.264 170.146 189.264H170.67V188.939C170.67 188.771 170.652 188.625 170.615 188.5C170.583 188.372 170.527 188.266 170.447 188.182C170.371 188.097 170.267 188.035 170.134 187.995C170.006 187.955 169.846 187.935 169.653 187.935C169.401 187.935 169.174 187.963 168.974 188.019C168.778 188.075 168.603 188.138 168.451 188.206C168.298 188.274 168.17 188.336 168.066 188.392C167.966 188.448 167.884 188.476 167.819 188.476C167.775 188.476 167.735 188.462 167.699 188.434C167.667 188.406 167.639 188.366 167.615 188.314C167.595 188.262 167.579 188.198 167.567 188.121C167.555 188.045 167.549 187.961 167.549 187.869C167.549 187.745 167.559 187.646 167.579 187.574C167.599 187.502 167.637 187.438 167.693 187.382C167.749 187.322 167.848 187.258 167.988 187.189C168.128 187.117 168.292 187.051 168.481 186.991C168.669 186.931 168.874 186.883 169.094 186.847C169.319 186.807 169.549 186.787 169.786 186.787C170.207 186.787 170.565 186.829 170.862 186.913C171.163 186.993 171.409 187.119 171.602 187.292C171.794 187.46 171.934 187.679 172.022 187.947C172.111 188.216 172.155 188.534 172.155 188.903V192.511ZM170.67 190.214H170.092C169.848 190.214 169.639 190.232 169.467 190.268C169.295 190.304 169.154 190.358 169.046 190.43C168.938 190.503 168.858 190.591 168.806 190.695C168.757 190.795 168.733 190.911 168.733 191.044C168.733 191.268 168.804 191.445 168.944 191.573C169.088 191.701 169.287 191.765 169.539 191.765C169.752 191.765 169.946 191.711 170.122 191.603C170.303 191.495 170.485 191.336 170.67 191.128V190.214ZM184.74 192.294C184.716 192.391 184.682 192.469 184.637 192.529C184.597 192.585 184.535 192.629 184.451 192.661C184.367 192.689 184.259 192.707 184.126 192.715C183.994 192.727 183.826 192.733 183.621 192.733C183.393 192.733 183.208 192.727 183.068 192.715C182.932 192.707 182.824 192.689 182.743 192.661C182.663 192.629 182.605 192.585 182.569 192.529C182.533 192.469 182.505 192.391 182.485 192.294L181.24 187.364H181.228L180.05 192.294C180.03 192.387 180.002 192.463 179.965 192.523C179.929 192.579 179.871 192.623 179.791 192.655C179.715 192.687 179.609 192.707 179.472 192.715C179.34 192.727 179.164 192.733 178.943 192.733C178.711 192.733 178.524 192.727 178.384 192.715C178.248 192.707 178.14 192.689 178.059 192.661C177.979 192.629 177.921 192.585 177.885 192.529C177.849 192.469 177.819 192.391 177.795 192.294L176.027 185.506C175.991 185.362 175.971 185.249 175.967 185.169C175.963 185.085 175.985 185.021 176.033 184.977C176.085 184.933 176.167 184.907 176.28 184.899C176.396 184.887 176.556 184.881 176.761 184.881C176.949 184.881 177.097 184.885 177.206 184.893C177.318 184.897 177.402 184.911 177.458 184.935C177.514 184.955 177.552 184.987 177.572 185.031C177.592 185.071 177.608 185.129 177.62 185.205L178.985 191.164H178.991L180.41 185.247C180.426 185.171 180.446 185.109 180.471 185.061C180.499 185.013 180.543 184.977 180.603 184.953C180.667 184.925 180.753 184.907 180.861 184.899C180.97 184.887 181.114 184.881 181.294 184.881C181.487 184.881 181.639 184.885 181.751 184.893C181.868 184.901 181.956 184.919 182.016 184.947C182.08 184.971 182.126 185.007 182.154 185.055C182.182 185.103 182.204 185.167 182.22 185.247L183.687 191.164H183.699L185.064 185.223C185.076 185.159 185.092 185.105 185.112 185.061C185.133 185.013 185.171 184.977 185.227 184.953C185.283 184.925 185.363 184.907 185.467 184.899C185.571 184.887 185.718 184.881 185.906 184.881C186.083 184.881 186.219 184.887 186.315 184.899C186.415 184.907 186.487 184.933 186.532 184.977C186.576 185.021 186.594 185.087 186.586 185.175C186.582 185.259 186.562 185.376 186.525 185.524L184.74 192.294ZM192.562 189.757C192.562 190.214 192.502 190.631 192.382 191.008C192.262 191.384 192.079 191.709 191.835 191.982C191.59 192.254 191.284 192.465 190.915 192.613C190.546 192.761 190.115 192.836 189.622 192.836C189.145 192.836 188.73 192.769 188.377 192.637C188.025 192.505 187.732 192.312 187.5 192.06C187.267 191.807 187.095 191.497 186.982 191.128C186.87 190.759 186.814 190.338 186.814 189.865C186.814 189.408 186.874 188.991 186.994 188.615C187.119 188.234 187.303 187.909 187.548 187.64C187.792 187.368 188.097 187.157 188.462 187.009C188.83 186.861 189.261 186.787 189.754 186.787C190.235 186.787 190.652 186.853 191.005 186.985C191.358 187.113 191.648 187.304 191.877 187.556C192.109 187.809 192.282 188.119 192.394 188.488C192.506 188.857 192.562 189.28 192.562 189.757ZM191.005 189.817C191.005 189.553 190.983 189.31 190.939 189.09C190.899 188.865 190.829 188.671 190.728 188.506C190.628 188.342 190.494 188.214 190.326 188.121C190.161 188.029 189.953 187.983 189.7 187.983C189.476 187.983 189.279 188.025 189.111 188.109C188.943 188.19 188.804 188.31 188.696 188.47C188.588 188.627 188.506 188.817 188.45 189.041C188.397 189.262 188.371 189.514 188.371 189.799C188.371 190.064 188.393 190.308 188.438 190.533C188.482 190.753 188.552 190.946 188.648 191.11C188.748 191.274 188.883 191.402 189.051 191.495C189.219 191.583 189.428 191.627 189.676 191.627C189.905 191.627 190.103 191.587 190.272 191.507C190.44 191.423 190.578 191.302 190.686 191.146C190.795 190.99 190.875 190.801 190.927 190.581C190.979 190.356 191.005 190.102 191.005 189.817ZM199.189 189.757C199.189 190.214 199.128 190.631 199.008 191.008C198.888 191.384 198.706 191.709 198.461 191.982C198.216 192.254 197.91 192.465 197.541 192.613C197.172 192.761 196.741 192.836 196.248 192.836C195.771 192.836 195.356 192.769 195.004 192.637C194.651 192.505 194.358 192.312 194.126 192.06C193.893 191.807 193.721 191.497 193.609 191.128C193.496 190.759 193.44 190.338 193.44 189.865C193.44 189.408 193.5 188.991 193.621 188.615C193.745 188.234 193.929 187.909 194.174 187.64C194.418 187.368 194.723 187.157 195.088 187.009C195.457 186.861 195.888 186.787 196.381 186.787C196.862 186.787 197.278 186.853 197.631 186.985C197.984 187.113 198.275 187.304 198.503 187.556C198.736 187.809 198.908 188.119 199.02 188.488C199.132 188.857 199.189 189.28 199.189 189.757ZM197.631 189.817C197.631 189.553 197.609 189.31 197.565 189.09C197.525 188.865 197.455 188.671 197.355 188.506C197.254 188.342 197.12 188.214 196.952 188.121C196.787 188.029 196.579 187.983 196.326 187.983C196.102 187.983 195.906 188.025 195.737 188.109C195.569 188.19 195.431 188.31 195.322 188.47C195.214 188.627 195.132 188.817 195.076 189.041C195.024 189.262 194.998 189.514 194.998 189.799C194.998 190.064 195.02 190.308 195.064 190.533C195.108 190.753 195.178 190.946 195.274 191.11C195.374 191.274 195.509 191.402 195.677 191.495C195.845 191.583 196.054 191.627 196.302 191.627C196.531 191.627 196.729 191.587 196.898 191.507C197.066 191.423 197.204 191.302 197.313 191.146C197.421 190.99 197.501 190.801 197.553 190.581C197.605 190.356 197.631 190.102 197.631 189.817ZM205.478 192.493C205.478 192.537 205.468 192.575 205.448 192.607C205.428 192.635 205.394 192.659 205.346 192.679C205.298 192.699 205.232 192.713 205.147 192.721C205.067 192.729 204.967 192.733 204.847 192.733C204.718 192.733 204.614 192.729 204.534 192.721C204.454 192.713 204.388 192.699 204.336 192.679C204.287 192.659 204.251 192.635 204.227 192.607C204.207 192.575 204.197 192.537 204.197 192.493V191.898C203.921 192.194 203.63 192.425 203.325 192.589C203.025 192.753 202.69 192.836 202.321 192.836C201.912 192.836 201.566 192.757 201.281 192.601C201 192.441 200.77 192.226 200.59 191.958C200.413 191.689 200.285 191.376 200.205 191.02C200.125 190.659 200.084 190.28 200.084 189.883C200.084 189.406 200.135 188.977 200.235 188.596C200.339 188.216 200.489 187.891 200.686 187.622C200.882 187.354 201.127 187.147 201.419 187.003C201.712 186.859 202.049 186.787 202.43 186.787C202.73 186.787 203.003 186.849 203.247 186.973C203.492 187.093 203.734 187.272 203.975 187.508V184.604C203.975 184.564 203.985 184.528 204.005 184.496C204.029 184.464 204.069 184.438 204.125 184.418C204.185 184.394 204.263 184.375 204.36 184.363C204.456 184.351 204.578 184.345 204.726 184.345C204.875 184.345 204.997 184.351 205.093 184.363C205.189 184.375 205.266 184.394 205.322 184.418C205.378 184.438 205.418 184.464 205.442 184.496C205.466 184.528 205.478 184.564 205.478 184.604V192.493ZM203.975 188.909C203.758 188.637 203.55 188.428 203.349 188.284C203.153 188.14 202.947 188.067 202.73 188.067C202.534 188.067 202.363 188.117 202.219 188.218C202.079 188.314 201.965 188.444 201.876 188.609C201.792 188.773 201.728 188.957 201.684 189.162C201.644 189.362 201.624 189.569 201.624 189.781C201.624 190.006 201.642 190.224 201.678 190.436C201.714 190.649 201.772 190.839 201.852 191.008C201.936 191.172 202.047 191.304 202.183 191.404C202.319 191.505 202.492 191.555 202.7 191.555C202.804 191.555 202.905 191.541 203.001 191.513C203.101 191.481 203.201 191.431 203.301 191.362C203.406 191.294 203.512 191.206 203.62 191.098C203.728 190.986 203.847 190.849 203.975 190.689V188.909ZM210.781 190.978C210.781 191.282 210.723 191.551 210.607 191.783C210.495 192.016 210.334 192.21 210.126 192.367C209.918 192.523 209.671 192.639 209.386 192.715C209.102 192.795 208.793 192.836 208.46 192.836C208.26 192.836 208.068 192.82 207.883 192.787C207.703 192.759 207.54 192.723 207.396 192.679C207.252 192.631 207.132 192.583 207.035 192.535C206.939 192.487 206.869 192.443 206.825 192.403C206.781 192.359 206.747 192.292 206.723 192.204C206.699 192.112 206.687 191.978 206.687 191.801C206.687 191.685 206.691 191.593 206.699 191.525C206.707 191.453 206.719 191.396 206.735 191.356C206.751 191.312 206.771 191.284 206.795 191.272C206.819 191.256 206.849 191.248 206.885 191.248C206.929 191.248 206.993 191.274 207.077 191.326C207.166 191.374 207.274 191.429 207.402 191.489C207.53 191.549 207.679 191.605 207.847 191.657C208.019 191.709 208.214 191.735 208.43 191.735C208.567 191.735 208.687 191.721 208.791 191.693C208.899 191.665 208.992 191.625 209.068 191.573C209.148 191.521 209.208 191.455 209.248 191.374C209.288 191.294 209.308 191.202 209.308 191.098C209.308 190.978 209.27 190.875 209.194 190.791C209.122 190.703 209.024 190.627 208.899 190.563C208.779 190.499 208.641 190.438 208.484 190.382C208.332 190.326 208.174 190.264 208.009 190.196C207.849 190.128 207.691 190.05 207.534 189.961C207.382 189.873 207.244 189.765 207.12 189.637C206.999 189.508 206.901 189.354 206.825 189.174C206.753 188.993 206.717 188.777 206.717 188.524C206.717 188.268 206.767 188.033 206.867 187.821C206.967 187.604 207.112 187.42 207.3 187.268C207.488 187.115 207.717 186.997 207.985 186.913C208.258 186.829 208.563 186.787 208.899 186.787C209.068 186.787 209.23 186.799 209.386 186.823C209.547 186.847 209.691 186.877 209.819 186.913C209.948 186.949 210.056 186.989 210.144 187.033C210.232 187.073 210.294 187.109 210.33 187.141C210.371 187.169 210.399 187.2 210.415 187.232C210.431 187.26 210.443 187.296 210.451 187.34C210.459 187.38 210.465 187.432 210.469 187.496C210.477 187.556 210.481 187.632 210.481 187.725C210.481 187.833 210.477 187.921 210.469 187.989C210.465 188.057 210.455 188.111 210.439 188.152C210.427 188.192 210.409 188.22 210.385 188.236C210.36 188.248 210.332 188.254 210.3 188.254C210.264 188.254 210.208 188.234 210.132 188.194C210.056 188.15 209.96 188.103 209.843 188.055C209.731 188.007 209.599 187.963 209.447 187.923C209.298 187.879 209.128 187.857 208.935 187.857C208.799 187.857 208.681 187.871 208.581 187.899C208.48 187.927 208.398 187.967 208.334 188.019C208.27 188.071 208.222 188.134 208.19 188.206C208.158 188.274 208.142 188.348 208.142 188.428C208.142 188.552 208.18 188.657 208.256 188.741C208.332 188.825 208.432 188.899 208.557 188.963C208.681 189.027 208.821 189.088 208.978 189.144C209.138 189.2 209.298 189.262 209.459 189.33C209.623 189.394 209.783 189.47 209.94 189.559C210.1 189.647 210.242 189.755 210.366 189.883C210.491 190.012 210.591 190.166 210.667 190.346C210.743 190.523 210.781 190.733 210.781 190.978Z" fill="#1BA8BB"/>
<path d="M167.672 207.531C167.672 207.565 167.666 207.595 167.653 207.62C167.64 207.646 167.612 207.667 167.57 207.684C167.527 207.702 167.467 207.714 167.39 207.723C167.313 207.731 167.21 207.736 167.082 207.736C166.971 207.736 166.879 207.731 166.806 207.723C166.738 207.714 166.682 207.702 166.64 207.684C166.597 207.663 166.563 207.635 166.537 207.601C166.516 207.567 166.496 207.524 166.479 207.473L165.716 205.517C165.626 205.294 165.532 205.091 165.434 204.907C165.34 204.719 165.226 204.559 165.094 204.426C164.961 204.289 164.805 204.185 164.626 204.112C164.446 204.035 164.23 203.997 163.978 203.997H163.24V207.531C163.24 207.565 163.23 207.595 163.208 207.62C163.191 207.646 163.161 207.667 163.118 207.684C163.08 207.697 163.024 207.708 162.952 207.717C162.883 207.729 162.796 207.736 162.689 207.736C162.582 207.736 162.492 207.729 162.419 207.717C162.351 207.708 162.295 207.697 162.253 207.684C162.21 207.667 162.18 207.646 162.163 207.62C162.146 207.595 162.137 207.565 162.137 207.531V199.847C162.137 199.68 162.18 199.565 162.265 199.501C162.355 199.432 162.449 199.398 162.548 199.398H164.311C164.521 199.398 164.694 199.404 164.831 199.417C164.972 199.426 165.098 199.436 165.209 199.449C165.53 199.505 165.812 199.592 166.056 199.712C166.304 199.832 166.511 199.984 166.678 200.168C166.845 200.351 166.969 200.563 167.05 200.803C167.136 201.038 167.178 201.299 167.178 201.585C167.178 201.863 167.14 202.113 167.063 202.335C166.99 202.553 166.883 202.748 166.742 202.919C166.601 203.086 166.432 203.231 166.235 203.355C166.039 203.479 165.819 203.584 165.575 203.669C165.712 203.729 165.836 203.806 165.947 203.9C166.058 203.99 166.161 204.099 166.255 204.227C166.353 204.356 166.445 204.503 166.531 204.67C166.616 204.837 166.702 205.025 166.787 205.234L167.531 207.062C167.591 207.216 167.629 207.325 167.647 207.389C167.664 207.449 167.672 207.496 167.672 207.531ZM166.011 201.7C166.011 201.375 165.938 201.102 165.793 200.879C165.648 200.653 165.404 200.49 165.062 200.392C164.955 200.362 164.833 200.341 164.696 200.328C164.564 200.315 164.388 200.309 164.17 200.309H163.24V203.105H164.318C164.609 203.105 164.859 203.071 165.068 203.002C165.282 202.93 165.459 202.831 165.601 202.707C165.742 202.579 165.844 202.429 165.908 202.258C165.977 202.087 166.011 201.901 166.011 201.7ZM173.842 204.401C173.842 204.567 173.799 204.687 173.714 204.76C173.633 204.828 173.539 204.862 173.432 204.862H169.648C169.648 205.183 169.68 205.472 169.744 205.728C169.808 205.985 169.915 206.205 170.064 206.389C170.214 206.573 170.409 206.714 170.648 206.812C170.888 206.911 171.18 206.96 171.527 206.96C171.8 206.96 172.044 206.938 172.258 206.896C172.472 206.849 172.656 206.797 172.81 206.742C172.968 206.686 173.096 206.637 173.194 206.594C173.297 206.547 173.374 206.524 173.425 206.524C173.455 206.524 173.481 206.532 173.502 206.549C173.528 206.562 173.547 206.583 173.56 206.613C173.573 206.643 173.581 206.686 173.586 206.742C173.594 206.793 173.598 206.857 173.598 206.934C173.598 206.99 173.596 207.039 173.592 207.082C173.588 207.12 173.581 207.156 173.573 207.191C173.569 207.221 173.558 207.248 173.541 207.274C173.528 207.3 173.509 207.325 173.483 207.351C173.462 207.372 173.393 207.411 173.278 207.466C173.162 207.518 173.013 207.569 172.829 207.62C172.645 207.672 172.431 207.717 172.187 207.755C171.948 207.798 171.691 207.819 171.418 207.819C170.943 207.819 170.526 207.753 170.167 207.62C169.812 207.488 169.513 207.291 169.269 207.03C169.025 206.769 168.842 206.442 168.718 206.049C168.594 205.656 168.532 205.198 168.532 204.676C168.532 204.18 168.596 203.736 168.724 203.342C168.852 202.945 169.036 202.609 169.276 202.335C169.519 202.057 169.812 201.846 170.154 201.7C170.496 201.551 170.879 201.476 171.302 201.476C171.756 201.476 172.14 201.549 172.457 201.694C172.777 201.839 173.04 202.036 173.246 202.284C173.451 202.528 173.601 202.816 173.695 203.15C173.793 203.479 173.842 203.832 173.842 204.208V204.401ZM172.777 204.086C172.79 203.53 172.666 203.094 172.405 202.778C172.149 202.462 171.766 202.303 171.257 202.303C170.997 202.303 170.768 202.352 170.571 202.451C170.374 202.549 170.21 202.68 170.077 202.842C169.945 203.005 169.842 203.195 169.769 203.413C169.697 203.627 169.656 203.851 169.648 204.086H172.777ZM179.807 207.543C179.807 207.595 179.79 207.633 179.756 207.659C179.721 207.684 179.674 207.704 179.615 207.717C179.555 207.729 179.467 207.736 179.352 207.736C179.24 207.736 179.151 207.729 179.082 207.717C179.018 207.704 178.971 207.684 178.941 207.659C178.911 207.633 178.896 207.595 178.896 207.543V206.966C178.644 207.235 178.362 207.445 178.05 207.595C177.742 207.744 177.415 207.819 177.068 207.819C176.765 207.819 176.489 207.779 176.241 207.697C175.997 207.62 175.788 207.507 175.612 207.357C175.441 207.208 175.307 207.024 175.208 206.806C175.114 206.588 175.067 206.34 175.067 206.062C175.067 205.737 175.133 205.455 175.266 205.215C175.399 204.976 175.589 204.777 175.837 204.619C176.085 204.46 176.388 204.343 176.748 204.266C177.107 204.185 177.511 204.144 177.96 204.144H178.755V203.695C178.755 203.473 178.732 203.276 178.685 203.105C178.637 202.934 178.561 202.793 178.454 202.682C178.351 202.566 178.216 202.481 178.05 202.425C177.883 202.365 177.678 202.335 177.434 202.335C177.173 202.335 176.938 202.367 176.728 202.432C176.523 202.491 176.341 202.56 176.183 202.637C176.029 202.71 175.899 202.778 175.792 202.842C175.689 202.902 175.612 202.932 175.561 202.932C175.527 202.932 175.497 202.923 175.471 202.906C175.446 202.889 175.422 202.863 175.401 202.829C175.384 202.795 175.371 202.752 175.362 202.701C175.354 202.645 175.349 202.586 175.349 202.521C175.349 202.414 175.356 202.331 175.369 202.271C175.386 202.207 175.422 202.147 175.478 202.092C175.538 202.036 175.638 201.972 175.779 201.899C175.92 201.822 176.083 201.754 176.267 201.694C176.45 201.63 176.651 201.579 176.869 201.54C177.088 201.497 177.308 201.476 177.53 201.476C177.945 201.476 178.298 201.523 178.588 201.617C178.879 201.711 179.114 201.85 179.294 202.034C179.473 202.214 179.604 202.438 179.685 202.707C179.766 202.977 179.807 203.291 179.807 203.65V207.543ZM178.755 204.907H177.851C177.56 204.907 177.308 204.933 177.094 204.984C176.88 205.031 176.703 205.104 176.562 205.202C176.42 205.296 176.316 205.412 176.247 205.549C176.183 205.681 176.151 205.835 176.151 206.01C176.151 206.31 176.245 206.549 176.433 206.729C176.626 206.904 176.893 206.992 177.235 206.992C177.513 206.992 177.77 206.921 178.005 206.78C178.244 206.639 178.494 206.423 178.755 206.132V204.907ZM182.815 207.537C182.815 207.571 182.806 207.601 182.789 207.627C182.772 207.648 182.744 207.667 182.706 207.684C182.667 207.702 182.614 207.714 182.546 207.723C182.477 207.731 182.39 207.736 182.283 207.736C182.18 207.736 182.094 207.731 182.026 207.723C181.958 207.714 181.902 207.702 181.859 207.684C181.821 207.667 181.793 207.648 181.776 207.627C181.763 207.601 181.757 207.571 181.757 207.537V198.968C181.757 198.934 181.763 198.904 181.776 198.878C181.793 198.853 181.821 198.831 181.859 198.814C181.902 198.797 181.958 198.784 182.026 198.776C182.094 198.767 182.18 198.763 182.283 198.763C182.39 198.763 182.477 198.767 182.546 198.776C182.614 198.784 182.667 198.797 182.706 198.814C182.744 198.831 182.772 198.853 182.789 198.878C182.806 198.904 182.815 198.934 182.815 198.968V207.537ZM187.773 207.114C187.773 207.238 187.764 207.336 187.747 207.409C187.73 207.481 187.704 207.535 187.67 207.569C187.636 207.603 187.585 207.635 187.516 207.665C187.448 207.695 187.369 207.719 187.279 207.736C187.193 207.757 187.101 207.774 187.003 207.787C186.905 207.8 186.806 207.806 186.708 207.806C186.409 207.806 186.152 207.768 185.938 207.691C185.725 207.61 185.549 207.49 185.413 207.332C185.276 207.169 185.175 206.966 185.111 206.722C185.051 206.474 185.021 206.184 185.021 205.85V202.476H184.213C184.149 202.476 184.098 202.442 184.059 202.374C184.021 202.305 184.001 202.194 184.001 202.04C184.001 201.959 184.006 201.891 184.014 201.835C184.027 201.78 184.042 201.735 184.059 201.7C184.076 201.662 184.098 201.636 184.123 201.623C184.153 201.606 184.185 201.598 184.22 201.598H185.021V200.225C185.021 200.195 185.028 200.168 185.041 200.142C185.058 200.116 185.085 200.095 185.124 200.078C185.167 200.056 185.222 200.041 185.291 200.033C185.359 200.024 185.445 200.02 185.547 200.02C185.654 200.02 185.742 200.024 185.81 200.033C185.879 200.041 185.932 200.056 185.971 200.078C186.009 200.095 186.037 200.116 186.054 200.142C186.071 200.168 186.08 200.195 186.08 200.225V201.598H187.561C187.595 201.598 187.625 201.606 187.651 201.623C187.677 201.636 187.698 201.662 187.715 201.7C187.736 201.735 187.751 201.78 187.76 201.835C187.768 201.891 187.773 201.959 187.773 202.04C187.773 202.194 187.754 202.305 187.715 202.374C187.677 202.442 187.625 202.476 187.561 202.476H186.08V205.696C186.08 206.094 186.137 206.395 186.253 206.601C186.372 206.801 186.584 206.902 186.888 206.902C186.986 206.902 187.074 206.893 187.151 206.876C187.228 206.855 187.296 206.834 187.356 206.812C187.416 206.791 187.467 206.772 187.51 206.754C187.553 206.733 187.591 206.722 187.625 206.722C187.647 206.722 187.666 206.729 187.683 206.742C187.704 206.75 187.719 206.769 187.728 206.799C187.741 206.829 187.751 206.87 187.76 206.921C187.768 206.973 187.773 207.037 187.773 207.114ZM194.411 204.587C194.411 205.057 194.349 205.491 194.225 205.889C194.101 206.282 193.915 206.622 193.667 206.908C193.423 207.195 193.115 207.419 192.743 207.582C192.376 207.74 191.948 207.819 191.461 207.819C190.986 207.819 190.571 207.749 190.216 207.607C189.866 207.466 189.573 207.261 189.338 206.992C189.103 206.722 188.927 206.395 188.812 206.01C188.696 205.626 188.639 205.19 188.639 204.702C188.639 204.232 188.698 203.8 188.818 203.406C188.942 203.009 189.126 202.667 189.37 202.38C189.618 202.094 189.926 201.871 190.293 201.713C190.661 201.555 191.091 201.476 191.583 201.476C192.057 201.476 192.47 201.547 192.82 201.688C193.175 201.829 193.47 202.034 193.705 202.303C193.941 202.573 194.116 202.9 194.231 203.285C194.351 203.669 194.411 204.103 194.411 204.587ZM193.295 204.657C193.295 204.345 193.265 204.05 193.205 203.772C193.15 203.494 193.056 203.25 192.923 203.041C192.79 202.831 192.611 202.667 192.384 202.547C192.158 202.423 191.875 202.361 191.538 202.361C191.225 202.361 190.956 202.417 190.729 202.528C190.507 202.639 190.323 202.797 190.178 203.002C190.033 203.203 189.924 203.443 189.851 203.721C189.782 203.999 189.748 204.302 189.748 204.632C189.748 204.948 189.776 205.245 189.832 205.523C189.891 205.801 189.988 206.045 190.12 206.254C190.257 206.459 190.439 206.624 190.665 206.748C190.892 206.868 191.174 206.928 191.512 206.928C191.82 206.928 192.087 206.872 192.314 206.761C192.54 206.65 192.726 206.494 192.872 206.293C193.017 206.092 193.124 205.852 193.192 205.574C193.261 205.296 193.295 204.991 193.295 204.657ZM199.343 202.143C199.343 202.237 199.341 202.316 199.337 202.38C199.332 202.444 199.324 202.496 199.311 202.534C199.298 202.568 199.281 202.596 199.26 202.618C199.243 202.635 199.217 202.643 199.183 202.643C199.149 202.643 199.106 202.635 199.055 202.618C199.007 202.596 198.952 202.577 198.888 202.56C198.828 202.538 198.759 202.519 198.683 202.502C198.606 202.485 198.522 202.476 198.432 202.476C198.325 202.476 198.221 202.498 198.118 202.541C198.015 202.583 197.906 202.654 197.791 202.752C197.68 202.851 197.562 202.981 197.438 203.144C197.314 203.306 197.177 203.505 197.028 203.74V207.537C197.028 207.571 197.019 207.601 197.002 207.627C196.985 207.648 196.957 207.667 196.919 207.684C196.88 207.702 196.827 207.714 196.758 207.723C196.69 207.731 196.602 207.736 196.495 207.736C196.393 207.736 196.307 207.731 196.239 207.723C196.17 207.714 196.115 207.702 196.072 207.684C196.034 207.667 196.006 207.648 195.989 207.627C195.976 207.601 195.97 207.571 195.97 207.537V201.765C195.97 201.73 195.976 201.703 195.989 201.681C196.002 201.656 196.027 201.634 196.066 201.617C196.104 201.596 196.153 201.583 196.213 201.579C196.273 201.57 196.352 201.566 196.451 201.566C196.545 201.566 196.622 201.57 196.681 201.579C196.746 201.583 196.795 201.596 196.829 201.617C196.863 201.634 196.887 201.656 196.899 201.681C196.917 201.703 196.925 201.73 196.925 201.765V202.605C197.083 202.374 197.231 202.186 197.368 202.04C197.509 201.895 197.641 201.782 197.765 201.7C197.889 201.615 198.011 201.557 198.131 201.527C198.255 201.493 198.379 201.476 198.503 201.476C198.559 201.476 198.621 201.48 198.689 201.489C198.762 201.493 198.836 201.504 198.913 201.521C198.99 201.538 199.059 201.557 199.119 201.579C199.183 201.6 199.228 201.621 199.253 201.643C199.279 201.664 199.296 201.685 199.305 201.707C199.313 201.724 199.32 201.747 199.324 201.777C199.332 201.807 199.337 201.852 199.337 201.912C199.341 201.968 199.343 202.045 199.343 202.143Z" fill="#1BA8BB"/>
<circle cx="180.298" cy="137.365" r="37.3535" fill="white" stroke="#1BA8BB" stroke-width="2.46287"/>
<g clip-path="url(#clip0_1749_26617)">
<rect x="43.1914" y="29" width="54.1831" height="54.1831" rx="27.0916" fill="white"/>
<path d="M97.1449 82.4052L98.097 81.2956L97.6782 79.889C96.6304 76.3809 94.4785 73.3046 91.5425 71.1173C88.6065 68.9299 85.0431 67.7484 81.3819 67.7482H59.9065C56.2452 67.7484 52.6818 68.9299 49.7458 71.1173C46.8098 73.3046 44.658 76.3809 43.6102 79.889L43.1914 81.292L44.1471 82.4016C47.4201 86.2277 51.4839 89.3022 56.0584 91.4062C60.6328 93.5102 65.6091 94.5973 70.6442 94.5925C75.6793 94.5973 80.6556 93.5102 85.23 91.4062C89.8044 89.3022 93.8718 86.2313 97.1449 82.4052ZM97.1449 82.4052L95.1047 80.6549L95.1045 80.655L97.1449 82.4052ZM75.1182 48.9572C75.1182 51.4268 73.1139 53.4312 70.6442 53.4312C68.1745 53.4312 66.1701 51.4268 66.1701 48.9572C66.1701 46.4875 68.1745 44.4831 70.6442 44.4831C73.1139 44.4831 75.1182 46.4875 75.1182 48.9572ZM70.6442 58.8001C73.2547 58.8001 75.7583 57.7631 77.6042 55.9172C79.4501 54.0713 80.4871 51.5677 80.4871 48.9572C80.4871 46.3467 79.4501 43.8431 77.6042 41.9972C75.7583 40.1513 73.2547 39.1143 70.6442 39.1143C68.0337 39.1143 65.5301 40.1513 63.6842 41.9972C61.8383 43.8431 60.8013 46.3467 60.8013 48.9572C60.8013 51.5677 61.8383 54.0713 63.6842 55.9172C65.5301 57.7631 68.0337 58.8001 70.6442 58.8001ZM81.3819 73.1171C86.1321 73.1171 90.2259 75.9703 92.0302 80.0595C89.4575 82.7665 86.39 84.9632 82.9887 86.5279C79.1173 88.3088 74.9056 89.2285 70.6442 89.2236C66.3828 89.2285 62.1711 88.3088 58.2997 86.5279C54.8985 84.9633 51.8312 82.7668 49.2585 80.06C50.0664 78.228 51.3371 76.6274 52.956 75.4217C54.9645 73.9257 57.402 73.1175 59.9065 73.1171H81.3819Z" fill="#DEDEDE"/>
<path d="M97.1449 82.4052L98.097 81.2956L97.6782 79.889C96.6304 76.3809 94.4785 73.3046 91.5425 71.1173C88.6065 68.9299 85.0431 67.7484 81.3819 67.7482H59.9065C56.2452 67.7484 52.6818 68.9299 49.7458 71.1173C46.8098 73.3046 44.658 76.3809 43.6102 79.889L43.1914 81.292L44.1471 82.4016C47.4201 86.2277 51.4839 89.3022 56.0584 91.4062C60.6328 93.5102 65.6091 94.5973 70.6442 94.5925C75.6793 94.5973 80.6556 93.5102 85.23 91.4062C89.8044 89.3022 93.8718 86.2313 97.1449 82.4052ZM97.1449 82.4052L95.1047 80.6549L95.1045 80.655L97.1449 82.4052ZM75.1182 48.9572C75.1182 51.4268 73.1139 53.4312 70.6442 53.4312C68.1745 53.4312 66.1701 51.4268 66.1701 48.9572C66.1701 46.4875 68.1745 44.4831 70.6442 44.4831C73.1139 44.4831 75.1182 46.4875 75.1182 48.9572ZM70.6442 58.8001C73.2547 58.8001 75.7583 57.7631 77.6042 55.9172C79.4501 54.0713 80.4871 51.5677 80.4871 48.9572C80.4871 46.3467 79.4501 43.8431 77.6042 41.9972C75.7583 40.1513 73.2547 39.1143 70.6442 39.1143C68.0337 39.1143 65.5301 40.1513 63.6842 41.9972C61.8383 43.8431 60.8013 46.3467 60.8013 48.9572C60.8013 51.5677 61.8383 54.0713 63.6842 55.9172C65.5301 57.7631 68.0337 58.8001 70.6442 58.8001ZM81.3819 73.1171C86.1321 73.1171 90.2259 75.9703 92.0302 80.0595C89.4575 82.7665 86.39 84.9632 82.9887 86.5279C79.1173 88.3088 74.9056 89.2285 70.6442 89.2236C66.3828 89.2285 62.1711 88.3088 58.2997 86.5279C54.8985 84.9633 51.8312 82.7668 49.2585 80.06C50.0664 78.228 51.3371 76.6274 52.956 75.4217C54.9645 73.9257 57.402 73.1175 59.9065 73.1171H81.3819Z" stroke="white"/>
</g>
<g clip-path="url(#clip1_1749_26617)">
<rect x="154.02" y="106.991" width="54.1831" height="54.1831" rx="27.0916" fill="white"/>
<path d="M207.973 160.395L208.925 159.286L208.506 157.879C207.458 154.371 205.307 151.295 202.371 149.107C199.435 146.92 195.871 145.739 192.21 145.738H170.735C167.073 145.739 163.51 146.92 160.574 149.107C157.638 151.295 155.486 154.371 154.438 157.879L154.02 159.282L154.975 160.392C158.248 164.218 162.312 167.292 166.887 169.396C171.461 171.5 176.437 172.588 181.472 172.583C186.507 172.588 191.484 171.5 196.058 169.396C200.633 167.292 204.7 164.222 207.973 160.395ZM207.973 160.395L205.933 158.645L205.933 158.645L207.973 160.395ZM185.946 126.947C185.946 129.417 183.942 131.421 181.472 131.421C179.003 131.421 176.998 129.417 176.998 126.947C176.998 124.478 179.003 122.473 181.472 122.473C183.942 122.473 185.946 124.478 185.946 126.947ZM181.472 136.79C184.083 136.79 186.586 135.753 188.432 133.907C190.278 132.061 191.315 129.558 191.315 126.947C191.315 124.337 190.278 121.833 188.432 119.987C186.586 118.142 184.083 117.104 181.472 117.104C178.862 117.104 176.358 118.142 174.512 119.987C172.666 121.833 171.629 124.337 171.629 126.947C171.629 129.558 172.666 132.061 174.512 133.907C176.358 135.753 178.862 136.79 181.472 136.79ZM192.21 151.107C196.96 151.107 201.054 153.961 202.858 158.05C200.286 160.757 197.218 162.953 193.817 164.518C189.945 166.299 185.734 167.219 181.472 167.214C177.211 167.219 172.999 166.299 169.128 164.518C165.727 162.954 162.659 160.757 160.087 158.05C160.895 156.218 162.165 154.618 163.784 153.412C165.793 151.916 168.23 151.108 170.735 151.107H192.21Z" fill="#D1D1D1"/>
<path d="M207.973 160.395L208.925 159.286L208.506 157.879C207.458 154.371 205.307 151.295 202.371 149.107C199.435 146.92 195.871 145.739 192.21 145.738H170.735C167.073 145.739 163.51 146.92 160.574 149.107C157.638 151.295 155.486 154.371 154.438 157.879L154.02 159.282L154.975 160.392C158.248 164.218 162.312 167.292 166.887 169.396C171.461 171.5 176.437 172.588 181.472 172.583C186.507 172.588 191.484 171.5 196.058 169.396C200.633 167.292 204.7 164.222 207.973 160.395ZM207.973 160.395L205.933 158.645L205.933 158.645L207.973 160.395ZM185.946 126.947C185.946 129.417 183.942 131.421 181.472 131.421C179.003 131.421 176.998 129.417 176.998 126.947C176.998 124.478 179.003 122.473 181.472 122.473C183.942 122.473 185.946 124.478 185.946 126.947ZM181.472 136.79C184.083 136.79 186.586 135.753 188.432 133.907C190.278 132.061 191.315 129.558 191.315 126.947C191.315 124.337 190.278 121.833 188.432 119.987C186.586 118.142 184.083 117.104 181.472 117.104C178.862 117.104 176.358 118.142 174.512 119.987C172.666 121.833 171.629 124.337 171.629 126.947C171.629 129.558 172.666 132.061 174.512 133.907C176.358 135.753 178.862 136.79 181.472 136.79ZM192.21 151.107C196.96 151.107 201.054 153.961 202.858 158.05C200.286 160.757 197.218 162.953 193.817 164.518C189.945 166.299 185.734 167.219 181.472 167.214C177.211 167.219 172.999 166.299 169.128 164.518C165.727 162.954 162.659 160.757 160.087 158.05C160.895 156.218 162.165 154.618 163.784 153.412C165.793 151.916 168.23 151.108 170.735 151.107H192.21Z" stroke="white"/>
</g>
<defs>
<clipPath id="clip0_1749_26617">
<rect x="43.1914" y="29" width="54.1831" height="54.1831" rx="27.0916" fill="white"/>
</clipPath>
<clipPath id="clip1_1749_26617">
<rect x="154.02" y="106.991" width="54.1831" height="54.1831" rx="27.0916" fill="white"/>
</clipPath>
</defs>
</svg>
