<svg width="22" height="21" viewBox="0 0 22 21" fill="none" xmlns="http://www.w3.org/2000/svg">
<path d="M20.7804 16.6897C20.7804 17.0406 20.7025 17.4012 20.5368 17.7521C20.445 17.9465 20.3382 18.1349 20.2132 18.3174C20.1696 18.3808 20.1239 18.4436 20.0758 18.5056C20.0128 18.5871 19.9455 18.6673 19.874 18.7462C19.6892 18.9498 19.4972 19.1316 19.2966 19.292C18.979 19.5462 18.6401 19.7469 18.2755 19.8963C17.6907 20.14 17.0572 20.2667 16.375 20.2667C15.3808 20.2667 14.3184 20.0328 13.1975 19.5552C12.0767 19.0776 10.9558 18.4343 9.84471 17.6254C8.72385 16.8066 7.66146 15.9002 6.64781 14.8963C5.64391 13.8827 4.73747 12.8203 3.9285 11.7092C3.12928 10.598 2.486 9.48693 2.01816 8.38556C1.55033 7.27444 1.31641 6.21206 1.31641 5.19841C1.31641 4.53564 1.43337 3.90211 1.66728 3.31731C1.9012 2.72276 2.27158 2.17695 2.78815 1.68962C3.41193 1.07558 4.0942 0.773438 4.81545 0.773438C5.08835 0.773438 5.36126 0.831917 5.60492 0.948877C5.85834 1.06584 6.08251 1.24128 6.25795 1.49469L8.51917 4.68184C8.69461 4.9255 8.82131 5.14967 8.90903 5.3641C8.99675 5.56878 9.04549 5.77346 9.04549 5.95865C9.04549 6.19256 8.97726 6.42648 8.84081 6.65066C8.7141 6.87483 8.52891 7.10875 8.29499 7.34267L7.55425 8.11265C7.44704 8.21986 7.3983 8.34657 7.3983 8.50252C7.3983 8.58049 7.40805 8.64872 7.42755 8.72669C7.45678 8.80466 7.48602 8.86314 7.50552 8.92162C7.68096 9.24326 7.9831 9.66237 8.41195 10.1692C8.85055 10.676 9.31839 11.1926 9.82522 11.7092C10.3515 12.2257 10.8584 12.7033 11.3749 13.1419C11.8818 13.5708 12.3009 13.8632 12.6322 14.0386C12.681 14.0581 12.7395 14.0873 12.8077 14.1166C12.8857 14.1458 12.9636 14.1556 13.0514 14.1556C13.217 14.1556 13.3438 14.0971 13.451 13.9899L14.1917 13.2589C14.4354 13.0152 14.6693 12.83 14.8935 12.7131C15.1176 12.5766 15.3418 12.5084 15.5855 12.5084C15.7707 12.5084 15.9656 12.5474 16.18 12.6351C16.3944 12.7228 16.6186 12.8495 16.8623 13.0152L20.0884 15.3057C20.3418 15.4811 20.5173 15.6858 20.6245 15.9294C20.722 16.1731 20.7804 16.4168 20.7804 16.6897Z" fill="#1BA8BB"/>
<path fill-rule="evenodd" clip-rule="evenodd" d="M2.28144 1.16324C3.01434 0.444022 3.87113 0.0424805 4.81598 0.0424805C5.18945 0.0424805 5.5695 0.121799 5.91677 0.287511C6.27558 0.454071 6.60262 0.709082 6.85688 1.07486L9.11453 4.25692C9.31434 4.53476 9.47067 4.80659 9.58383 5.08183C9.69875 5.35157 9.77701 5.65307 9.77701 5.95869C9.77701 6.33575 9.66717 6.69615 9.47194 7.02047C9.30605 7.31136 9.07942 7.5919 8.81758 7.85443L8.14628 8.55223C8.15308 8.56828 8.1622 8.58998 8.17206 8.61513C8.31794 8.87088 8.57625 9.23082 8.96793 9.69398C9.39689 10.1896 9.85187 10.6917 10.3427 11.1923C10.8611 11.701 11.3522 12.1632 11.848 12.5843C12.3168 12.9808 12.6821 13.2337 12.9476 13.378C12.969 13.3873 12.9888 13.3962 13.0049 13.4036L13.6771 12.7402C13.9437 12.4739 14.2295 12.2392 14.5345 12.0763C14.8533 11.8865 15.2007 11.7774 15.586 11.7774C15.8783 11.7774 16.1671 11.8398 16.4574 11.9585C16.7331 12.0714 17.0031 12.2266 17.2738 12.4108L17.28 12.415L20.5089 14.7074C20.8545 14.9475 21.1254 15.2516 21.2941 15.635L21.2991 15.6464L21.3038 15.658C21.4279 15.9685 21.512 16.3048 21.512 16.6897C21.512 17.1503 21.4093 17.6173 21.1983 18.0643C21.0908 18.2919 20.9649 18.5144 20.8166 18.7307C20.7652 18.8058 20.7111 18.8801 20.6543 18.9534C20.5796 19.0498 20.5003 19.1443 20.4161 19.2371C20.2074 19.4672 19.987 19.6764 19.7539 19.8628C19.3843 20.1586 18.9859 20.3952 18.5553 20.5719C17.8786 20.8536 17.1499 20.9977 16.3755 20.9977C15.2657 20.9977 14.1058 20.7366 12.9115 20.2278C11.7346 19.7263 10.566 19.0544 9.41502 18.2163L9.41405 18.2157C8.26308 17.375 7.17295 16.4447 6.13395 15.4157L6.12893 15.4108C5.10006 14.3719 4.16955 13.2815 3.33807 12.1394L3.3356 12.1361C2.51064 10.9892 1.83848 9.83102 1.34588 8.67137L1.34498 8.66922C0.846358 7.48506 0.585938 6.32614 0.585938 5.19845C0.585938 4.44975 0.718102 3.72409 0.988337 3.04778C1.2632 2.35002 1.69494 1.71797 2.28144 1.16324Z" fill="#1BA8BB"/>
</svg>
