<svg width="25" height="27" viewBox="0 0 25 27" fill="none" xmlns="http://www.w3.org/2000/svg">
<path d="M9.73103 4.64244H15.2667C15.2667 3.90836 14.9751 3.20434 14.4561 2.68527C13.937 2.16619 13.233 1.87458 12.4989 1.87458C11.7648 1.87458 11.0608 2.16619 10.5417 2.68527C10.0226 3.20434 9.73103 3.90836 9.73103 4.64244ZM8.07031 4.64244C8.07031 3.46791 8.53689 2.34148 9.36741 1.51097C10.1979 0.680448 11.3244 0.213867 12.4989 0.213867C13.6734 0.213867 14.7998 0.680448 15.6304 1.51097C16.4609 2.34148 16.9275 3.46791 16.9275 4.64244H23.8471C24.0673 4.64244 24.2785 4.72992 24.4343 4.88564C24.59 5.04137 24.6775 5.25257 24.6775 5.4728C24.6775 5.69302 24.59 5.90422 24.4343 6.05995C24.2785 6.21567 24.0673 6.30315 23.8471 6.30315H22.3967L21.0493 22.4708C20.9513 23.6469 20.4149 24.7433 19.5464 25.5424C18.6779 26.3416 17.5408 26.7852 16.3606 26.7853H8.63717C7.45695 26.7852 6.31985 26.3416 5.45137 25.5424C4.58289 24.7433 4.04645 23.6469 3.94842 22.4708L2.60103 6.30315H1.15067C0.930445 6.30315 0.719241 6.21567 0.563518 6.05995C0.407796 5.90422 0.320312 5.69302 0.320312 5.4728C0.320312 5.25257 0.407796 5.04137 0.563518 4.88564C0.719241 4.72992 0.930445 4.64244 1.15067 4.64244H8.07031ZM5.6036 22.3324C5.66692 23.0934 6.01393 23.8029 6.57583 24.3201C7.13773 24.8373 7.87348 25.1244 8.63717 25.1246H16.3606C17.1243 25.1244 17.86 24.8373 18.4219 24.3201C18.9838 23.8029 19.3309 23.0934 19.3942 22.3324L20.7316 6.30315H4.26728L5.6036 22.3324ZM10.0078 10.1782C10.228 10.1782 10.4392 10.2656 10.595 10.4214C10.7507 10.5771 10.8382 10.7883 10.8382 11.0085V20.4192C10.8382 20.6394 10.7507 20.8507 10.595 21.0064C10.4392 21.1621 10.228 21.2496 10.0078 21.2496C9.78759 21.2496 9.57638 21.1621 9.42066 21.0064C9.26494 20.8507 9.17746 20.6394 9.17746 20.4192V11.0085C9.17746 10.7883 9.26494 10.5771 9.42066 10.4214C9.57638 10.2656 9.78759 10.1782 10.0078 10.1782ZM15.8203 11.0085C15.8203 10.7883 15.7328 10.5771 15.5771 10.4214C15.4214 10.2656 15.2102 10.1782 14.99 10.1782C14.7697 10.1782 14.5585 10.2656 14.4028 10.4214C14.2471 10.5771 14.1596 10.7883 14.1596 11.0085V20.4192C14.1596 20.6394 14.2471 20.8507 14.4028 21.0064C14.5585 21.1621 14.7697 21.2496 14.99 21.2496C15.2102 21.2496 15.4214 21.1621 15.5771 21.0064C15.7328 20.8507 15.8203 20.6394 15.8203 20.4192V11.0085Z" fill="#9D9D9D"/>
</svg>
