<svg width="28" height="28" viewBox="0 0 28 28" fill="none" xmlns="http://www.w3.org/2000/svg">
<path d="M27.6086 13.1097L23.8567 9.29422C23.6315 9.07389 23.3356 8.94028 23.0214 8.917C22.7072 8.89373 22.3949 8.98229 22.1397 9.16704C21.9865 9.26997 21.8588 9.40665 21.7666 9.56659C21.6744 9.72653 21.6201 9.90548 21.6078 10.0897C21.5955 10.2739 21.6256 10.4585 21.6958 10.6292C21.7659 10.8 21.8743 10.9524 22.0125 11.0748L23.6659 12.7282H15.2718V4.33407L16.9252 5.98745C17.0476 6.1257 17.2 6.23406 17.3708 6.30422C17.5415 6.37438 17.7261 6.40448 17.9103 6.3922C18.0945 6.37992 18.2735 6.32559 18.4334 6.23338C18.5933 6.14117 18.73 6.01353 18.833 5.86027C19.0177 5.60506 19.1063 5.29275 19.083 4.97855C19.0597 4.66435 18.9261 4.3685 18.7058 4.1433L14.8903 0.391392C14.7771 0.268034 14.6395 0.169544 14.4863 0.102168C14.333 0.0347914 14.1674 0 14 0C13.8326 0 13.667 0.0347914 13.5137 0.102168C13.3605 0.169544 13.2229 0.268034 13.1097 0.391392L9.29422 4.1433C9.07389 4.3685 8.94028 4.66435 8.917 4.97855C8.89373 5.29275 8.98229 5.60506 9.16704 5.86027C9.26997 6.01353 9.40665 6.14117 9.56659 6.23338C9.72653 6.32559 9.90548 6.37992 10.0897 6.3922C10.2739 6.40448 10.4585 6.37438 10.6292 6.30422C10.8 6.23406 10.9524 6.1257 11.0748 5.98745L12.7282 4.33407V12.7282H4.33407L5.98745 11.0748C6.1257 10.9524 6.23406 10.8 6.30422 10.6292C6.37438 10.4585 6.40448 10.2739 6.3922 10.0897C6.37992 9.90548 6.32559 9.72653 6.23338 9.56659C6.14117 9.40665 6.01353 9.26997 5.86027 9.16704C5.60506 8.98229 5.29275 8.89373 4.97855 8.917C4.66435 8.94028 4.3685 9.07389 4.1433 9.29422L0.391392 13.1097C0.268034 13.2229 0.169544 13.3605 0.102168 13.5137C0.0347914 13.667 0 13.8326 0 14C0 14.1674 0.0347914 14.333 0.102168 14.4863C0.169544 14.6395 0.268034 14.7771 0.391392 14.8903L4.1433 18.7058C4.3685 18.9261 4.66435 19.0597 4.97855 19.083C5.29275 19.1063 5.60506 19.0177 5.86027 18.833C6.01353 18.73 6.14117 18.5933 6.23338 18.4334C6.32559 18.2735 6.37992 18.0945 6.3922 17.9103C6.40448 17.7261 6.37438 17.5415 6.30422 17.3708C6.23406 17.2 6.1257 17.0476 5.98745 16.9252L4.33407 15.2718H12.7282V23.6659L11.0748 22.0125C10.9524 21.8743 10.8 21.7659 10.6292 21.6958C10.4585 21.6256 10.2739 21.5955 10.0897 21.6078C9.90548 21.6201 9.72653 21.6744 9.56659 21.7666C9.40665 21.8588 9.26997 21.9865 9.16704 22.1397C8.98229 22.3949 8.89373 22.7072 8.917 23.0214C8.94028 23.3356 9.07389 23.6315 9.29422 23.8567L13.1097 27.6086C13.2229 27.732 13.3605 27.8305 13.5137 27.8978C13.667 27.9652 13.8326 28 14 28C14.1674 28 14.333 27.9652 14.4863 27.8978C14.6395 27.8305 14.7771 27.732 14.8903 27.6086L18.7058 23.8567C18.9261 23.6315 19.0597 23.3356 19.083 23.0214C19.1063 22.7072 19.0177 22.3949 18.833 22.1397C18.73 21.9865 18.5933 21.8588 18.4334 21.7666C18.2735 21.6744 18.0945 21.6201 17.9103 21.6078C17.7261 21.5955 17.5415 21.6256 17.3708 21.6958C17.2 21.7659 17.0476 21.8743 16.9252 22.0125L15.2718 23.6659V15.2718H23.6659L22.0125 16.9252C21.8743 17.0476 21.7659 17.2 21.6958 17.3708C21.6256 17.5415 21.5955 17.7261 21.6078 17.9103C21.6201 18.0945 21.6744 18.2735 21.7666 18.4334C21.8588 18.5933 21.9865 18.73 22.1397 18.833C22.3949 19.0177 22.7072 19.1063 23.0214 19.083C23.3356 19.0597 23.6315 18.9261 23.8567 18.7058L27.6086 14.8903C27.732 14.7771 27.8305 14.6395 27.8978 14.4863C27.9652 14.333 28 14.1674 28 14C28 13.8326 27.9652 13.667 27.8978 13.5137C27.8305 13.3605 27.732 13.2229 27.6086 13.1097Z" fill="#9D9D9D"/>
</svg>
