<svg width="20" height="25" viewBox="0 0 20 25" fill="none" xmlns="http://www.w3.org/2000/svg">
<path fill-rule="evenodd" clip-rule="evenodd" d="M10.1926 0.0400391C4.78063 0.0400391 0.386719 4.43395 0.386719 9.84589C0.386719 12.3223 1.86116 15.2667 3.68416 17.8858C6.3041 21.6512 9.57926 24.7561 9.57926 24.7561C9.92336 25.0815 10.4618 25.0815 10.8059 24.7561C10.8059 24.7561 14.081 21.6512 16.701 17.8858C18.524 15.2667 19.9984 12.3223 19.9984 9.84589C19.9984 4.43395 15.6045 0.0400391 10.1926 0.0400391ZM10.1926 4.94296C7.48615 4.94296 5.28964 7.13947 5.28964 9.84589C5.28964 12.5523 7.48615 14.7488 10.1926 14.7488C12.899 14.7488 15.0955 12.5523 15.0955 9.84589C15.0955 7.13947 12.899 4.94296 10.1926 4.94296ZM10.1926 6.72585C11.9148 6.72585 13.3126 8.12363 13.3126 9.84589C13.3126 11.5682 11.9148 12.9659 10.1926 12.9659C8.47031 12.9659 7.07253 11.5682 7.07253 9.84589C7.07253 8.12363 8.47031 6.72585 10.1926 6.72585Z" fill="#1BA8BB"/>
</svg>
