<svg width="26" height="23" viewBox="0 0 26 23" fill="none" xmlns="http://www.w3.org/2000/svg">
<path fill-rule="evenodd" clip-rule="evenodd" d="M6.93445 0.389648C4.9912 0.389648 3.23396 0.875326 1.9585 2.05967C0.670952 3.25527 0.015625 5.03074 0.015625 7.30847V15.7314C0.015625 18.0092 0.670952 19.7846 1.9585 20.9802C3.23396 22.1646 4.9912 22.6502 6.93445 22.6502H18.9672C20.9105 22.6502 22.6677 22.1646 23.9431 20.9802C25.2307 19.7846 25.886 18.0092 25.886 15.7314V7.30847C25.886 5.03074 25.2307 3.25527 23.9431 2.05967C22.6677 0.875326 20.9105 0.389648 18.9672 0.389648H6.93445ZM21.6487 7.14278C22.043 6.83804 22.1157 6.27128 21.8109 5.87689C21.5062 5.48249 20.9395 5.40983 20.545 5.71458L13.8704 10.8721C13.3288 11.2907 12.5728 11.2907 12.031 10.8721L5.35648 5.71458C4.96208 5.40983 4.39533 5.48249 4.09057 5.87689C3.78582 6.27128 3.85849 6.83804 4.25288 7.14278L10.9275 12.3004C12.1192 13.2211 13.7823 13.2211 14.974 12.3004L21.6487 7.14278Z" fill="#1BA8BB"/>
</svg>
