<svg width="51" height="55" viewBox="0 0 51 55" fill="none" xmlns="http://www.w3.org/2000/svg">
<rect width="51" height="54.8804" rx="6.95606" fill="#1BA8BB"/>
<path fill-rule="evenodd" clip-rule="evenodd" d="M25.9146 12.5052C26.6094 13.2707 26.6094 14.5117 25.9146 15.2771L16.4982 25.6513L25.9146 36.0254C26.6094 36.7908 26.6094 38.0319 25.9146 38.7973C25.2198 39.5627 24.0934 39.5627 23.3986 38.7973L12.7242 27.0372C12.0294 26.2718 12.0294 25.0308 12.7242 24.2653L23.3986 12.5052C24.0934 11.7398 25.2198 11.7398 25.9146 12.5052Z" fill="white"/>
<path fill-rule="evenodd" clip-rule="evenodd" d="M13.3906 25.6515C13.3906 24.4179 14.2153 23.418 15.2325 23.418H37.6418C38.659 23.418 39.4836 24.4179 39.4836 25.6515C39.4836 26.885 38.659 27.885 37.6418 27.885H15.2325C14.2153 27.885 13.3906 26.885 13.3906 25.6515Z" fill="white"/>
</svg>
