<svg width="13" height="13" viewBox="0 0 13 13" fill="none" xmlns="http://www.w3.org/2000/svg">
<path d="M5.16099 2.21317H7.83957C7.83957 1.85797 7.69846 1.51732 7.4473 1.26615C7.19613 1.01499 6.85548 0.873884 6.50028 0.873884C6.14508 0.873884 5.80443 1.01499 5.55326 1.26615C5.3021 1.51732 5.16099 1.85797 5.16099 2.21317ZM4.35742 2.21317C4.35742 1.64485 4.58319 1.0998 4.98505 0.697941C5.38691 0.296077 5.93196 0.0703125 6.50028 0.0703125C7.0686 0.0703125 7.61364 0.296077 8.01551 0.697941C8.41737 1.0998 8.64314 1.64485 8.64314 2.21317H11.9914C12.0979 2.21317 12.2001 2.2555 12.2755 2.33085C12.3508 2.4062 12.3931 2.5084 12.3931 2.61496C12.3931 2.72152 12.3508 2.82371 12.2755 2.89906C12.2001 2.97441 12.0979 3.01674 11.9914 3.01674H11.2896L10.6376 10.8398C10.5902 11.4089 10.3306 11.9394 9.91037 12.3261C9.49013 12.7128 8.93993 12.9274 8.36885 12.9275H4.63171C4.06063 12.9274 3.51043 12.7128 3.09019 12.3261C2.66996 11.9394 2.41039 11.4089 2.36296 10.8398L1.71099 3.01674H1.00921C0.902647 3.01674 0.800452 2.97441 0.725102 2.89906C0.649753 2.82371 0.607422 2.72152 0.607422 2.61496C0.607422 2.5084 0.649753 2.4062 0.725102 2.33085C0.800452 2.2555 0.902647 2.21317 1.00921 2.21317H4.35742ZM3.16385 10.7728C3.19449 11.1411 3.3624 11.4844 3.63429 11.7346C3.90617 11.9849 4.26218 12.1238 4.63171 12.1239H8.36885C8.73838 12.1238 9.09439 11.9849 9.36627 11.7346C9.63816 11.4844 9.80607 11.1411 9.83671 10.7728L10.4839 3.01674H2.51724L3.16385 10.7728ZM5.29492 4.89174C5.40148 4.89174 5.50368 4.93407 5.57903 5.00942C5.65438 5.08477 5.69671 5.18697 5.69671 5.29353V9.8471C5.69671 9.95366 5.65438 10.0559 5.57903 10.1312C5.50368 10.2066 5.40148 10.2489 5.29492 10.2489C5.18836 10.2489 5.08617 10.2066 5.01082 10.1312C4.93547 10.0559 4.89314 9.95366 4.89314 9.8471V5.29353C4.89314 5.18697 4.93547 5.08477 5.01082 5.00942C5.08617 4.93407 5.18836 4.89174 5.29492 4.89174ZM8.10742 5.29353C8.10742 5.18697 8.06509 5.08477 7.98974 5.00942C7.91439 4.93407 7.8122 4.89174 7.70564 4.89174C7.59908 4.89174 7.49688 4.93407 7.42153 5.00942C7.34618 5.08477 7.30385 5.18697 7.30385 5.29353V9.8471C7.30385 9.95366 7.34618 10.0559 7.42153 10.1312C7.49688 10.2066 7.59908 10.2489 7.70564 10.2489C7.8122 10.2489 7.91439 10.2066 7.98974 10.1312C8.06509 10.0559 8.10742 9.95366 8.10742 9.8471V5.29353Z" fill="#9D9D9D"/>
</svg>
