<svg width="25" height="25" viewBox="0 0 25 25" fill="none" xmlns="http://www.w3.org/2000/svg">
<path d="M12.1967 0.648621C9.80525 0.648621 7.46754 1.35776 5.47916 2.68635C3.49077 4.01495 1.94101 5.90334 1.02586 8.11271C0.110708 10.3221 -0.128738 12.7532 0.337803 15.0987C0.804344 17.4441 1.95592 19.5986 3.6469 21.2896C5.33789 22.9806 7.49233 24.1321 9.83779 24.5987C12.1833 25.0652 14.6144 24.8258 16.8238 23.9106C19.0331 22.9955 20.9215 21.4457 22.2501 19.4573C23.5787 17.4689 24.2879 15.1312 24.2879 12.7398C24.2842 9.53414 23.0092 6.46081 20.7424 4.19406C18.4757 1.9273 15.4023 0.652249 12.1967 0.648621ZM12.1967 22.9708C10.1732 22.9708 8.1951 22.3708 6.51262 21.2466C4.83014 20.1224 3.51881 18.5245 2.74445 16.655C1.97009 14.7856 1.76748 12.7285 2.16224 10.7438C2.55701 8.75922 3.53142 6.93623 4.96225 5.5054C6.39308 4.07456 8.21607 3.10016 10.2007 2.70539C12.1853 2.31062 14.2424 2.51323 16.1119 3.28759C17.9814 4.06195 19.5792 5.37329 20.7034 7.05577C21.8276 8.73825 22.4277 10.7163 22.4277 12.7398C22.4246 15.4523 21.3457 18.0528 19.4277 19.9708C17.5097 21.8889 14.9092 22.9678 12.1967 22.9708ZM13.5918 12.7398C13.5918 13.0157 13.51 13.2855 13.3567 13.5149C13.2034 13.7443 12.9855 13.9232 12.7306 14.0287C12.4756 14.1343 12.1951 14.162 11.9245 14.1081C11.6539 14.0543 11.4053 13.9214 11.2102 13.7263C11.015 13.5312 10.8822 13.2826 10.8283 13.012C10.7745 12.7414 10.8021 12.4608 10.9077 12.2059C11.0133 11.951 11.1921 11.7331 11.4216 11.5798C11.651 11.4265 11.9207 11.3447 12.1967 11.3447C12.5665 11.3451 12.9212 11.4922 13.1827 11.7538C13.4443 12.0153 13.5914 12.3699 13.5918 12.7398ZM19.1723 12.7398C19.1723 13.0157 19.0905 13.2855 18.9372 13.5149C18.7839 13.7443 18.566 13.9232 18.3111 14.0287C18.0562 14.1343 17.7757 14.162 17.505 14.1081C17.2344 14.0543 16.9858 13.9214 16.7907 13.7263C16.5956 13.5312 16.4627 13.2826 16.4089 13.012C16.3551 12.7414 16.3827 12.4608 16.4883 12.2059C16.5939 11.951 16.7727 11.7331 17.0021 11.5798C17.2315 11.4265 17.5013 11.3447 17.7772 11.3447C18.1471 11.3451 18.5017 11.4922 18.7633 11.7538C19.0248 12.0153 19.1719 12.3699 19.1723 12.7398ZM8.01125 12.7398C8.01125 13.0157 7.92943 13.2855 7.77613 13.5149C7.62283 13.7443 7.40494 13.9232 7.15001 14.0287C6.89508 14.1343 6.61457 14.162 6.34394 14.1081C6.07331 14.0543 5.82472 13.9214 5.6296 13.7263C5.43449 13.5312 5.30162 13.2826 5.24778 13.012C5.19395 12.7414 5.22158 12.4608 5.32718 12.2059C5.43277 11.951 5.61159 11.7331 5.84102 11.5798C6.07045 11.4265 6.34018 11.3447 6.61611 11.3447C6.986 11.3451 7.34061 11.4922 7.60216 11.7538C7.86371 12.0153 8.01083 12.3699 8.01125 12.7398Z" fill="#1BA8BB"/>
</svg>
