<svg width="14" height="14" viewBox="0 0 14 14" fill="none" xmlns="http://www.w3.org/2000/svg">
<path d="M13.5673 6.44234L11.7236 4.56734C11.6129 4.45906 11.4675 4.3934 11.3131 4.38196C11.1587 4.37053 11.0052 4.41405 10.8798 4.50484C10.8045 4.55542 10.7418 4.62259 10.6965 4.70119C10.6512 4.77978 10.6245 4.86772 10.6184 4.95824C10.6124 5.04877 10.6272 5.13947 10.6617 5.22339C10.6962 5.3073 10.7494 5.3822 10.8173 5.44234L11.6298 6.25484H7.50484V2.12984L8.31734 2.94234C8.37747 3.01027 8.45237 3.06352 8.53629 3.098C8.6202 3.13248 8.71091 3.14727 8.80143 3.14123C8.89195 3.1352 8.97989 3.1085 9.05849 3.06319C9.13708 3.01787 9.20425 2.95515 9.25484 2.87984C9.34562 2.75442 9.38914 2.60095 9.37771 2.44654C9.36627 2.29214 9.30061 2.14676 9.19234 2.03609L7.31734 0.192336C7.26172 0.131716 7.19411 0.0833166 7.11879 0.0502069C7.04348 0.0170971 6.96211 0 6.87984 0C6.79757 0 6.71619 0.0170971 6.64088 0.0502069C6.56557 0.0833166 6.49796 0.131716 6.44234 0.192336L4.56734 2.03609C4.45906 2.14676 4.3934 2.29214 4.38196 2.44654C4.37053 2.60095 4.41405 2.75442 4.50484 2.87984C4.55542 2.95515 4.62259 3.01787 4.70119 3.06319C4.77978 3.1085 4.86772 3.1352 4.95824 3.14123C5.04877 3.14727 5.13947 3.13248 5.22339 3.098C5.3073 3.06352 5.3822 3.01027 5.44234 2.94234L6.25484 2.12984V6.25484H2.12984L2.94234 5.44234C3.01027 5.3822 3.06352 5.3073 3.098 5.22339C3.13248 5.13947 3.14727 5.04877 3.14123 4.95824C3.1352 4.86772 3.1085 4.77978 3.06319 4.70119C3.01787 4.62259 2.95515 4.55542 2.87984 4.50484C2.75442 4.41405 2.60095 4.37053 2.44654 4.38196C2.29214 4.3934 2.14676 4.45906 2.03609 4.56734L0.192336 6.44234C0.131716 6.49796 0.0833166 6.56557 0.0502069 6.64088C0.0170971 6.71619 0 6.79757 0 6.87984C0 6.96211 0.0170971 7.04348 0.0502069 7.11879C0.0833166 7.19411 0.131716 7.26172 0.192336 7.31734L2.03609 9.19234C2.14676 9.30061 2.29214 9.36627 2.44654 9.37771C2.60095 9.38914 2.75442 9.34562 2.87984 9.25484C2.95515 9.20425 3.01787 9.13708 3.06319 9.05849C3.1085 8.97989 3.1352 8.89195 3.14123 8.80143C3.14727 8.71091 3.13248 8.6202 3.098 8.53629C3.06352 8.45237 3.01027 8.37747 2.94234 8.31734L2.12984 7.50484H6.25484V11.6298L5.44234 10.8173C5.3822 10.7494 5.3073 10.6962 5.22339 10.6617C5.13947 10.6272 5.04877 10.6124 4.95824 10.6184C4.86772 10.6245 4.77978 10.6512 4.70119 10.6965C4.62259 10.7418 4.55542 10.8045 4.50484 10.8798C4.41405 11.0052 4.37053 11.1587 4.38196 11.3131C4.3934 11.4675 4.45906 11.6129 4.56734 11.7236L6.44234 13.5673C6.49796 13.628 6.56557 13.6764 6.64088 13.7095C6.71619 13.7426 6.79757 13.7597 6.87984 13.7597C6.96211 13.7597 7.04348 13.7426 7.11879 13.7095C7.19411 13.6764 7.26172 13.628 7.31734 13.5673L9.19234 11.7236C9.30061 11.6129 9.36627 11.4675 9.37771 11.3131C9.38914 11.1587 9.34562 11.0052 9.25484 10.8798C9.20425 10.8045 9.13708 10.7418 9.05849 10.6965C8.97989 10.6512 8.89195 10.6245 8.80143 10.6184C8.71091 10.6124 8.6202 10.6272 8.53629 10.6617C8.45237 10.6962 8.37747 10.7494 8.31734 10.8173L7.50484 11.6298V7.50484H11.6298L10.8173 8.31734C10.7494 8.37747 10.6962 8.45237 10.6617 8.53629C10.6272 8.6202 10.6124 8.71091 10.6184 8.80143C10.6245 8.89195 10.6512 8.97989 10.6965 9.05849C10.7418 9.13708 10.8045 9.20425 10.8798 9.25484C11.0052 9.34562 11.1587 9.38914 11.3131 9.37771C11.4675 9.36627 11.6129 9.30061 11.7236 9.19234L13.5673 7.31734C13.628 7.26172 13.6764 7.19411 13.7095 7.11879C13.7426 7.04348 13.7597 6.96211 13.7597 6.87984C13.7597 6.79757 13.7426 6.71619 13.7095 6.64088C13.6764 6.56557 13.628 6.49796 13.5673 6.44234Z" fill="#9D9D9D"/>
</svg>
