<svg width="427" height="466" viewBox="0 0 427 466" fill="none" xmlns="http://www.w3.org/2000/svg">
<g clip-path="url(#clip0_1341_12128)">
<path fill-rule="evenodd" clip-rule="evenodd" d="M215.285 0.5C265.608 0.5 259.863 89.524 296.192 116.659C344.277 152.575 427 134.791 427 196.431C427 304.642 319.699 343.846 202.771 343.846C85.8427 343.846 -13.9263 283.831 20.8883 175.904C55.7058 67.9811 98.3562 0.5 215.285 0.5Z" fill="#E9EEF7"/>
<path fill-rule="evenodd" clip-rule="evenodd" d="M220.428 375.847C325.75 375.847 411.648 372.866 411.648 369.212C411.648 365.558 325.75 362.577 220.428 362.577C115.105 362.577 29.207 365.558 29.207 369.212C29.207 372.866 115.105 375.847 220.428 375.847Z" fill="#D1DEED"/>
<path fill-rule="evenodd" clip-rule="evenodd" d="M117.277 95.7295H288.2C293.745 95.7295 298.266 100.255 298.266 105.812V351.315C298.266 356.87 293.748 361.398 288.2 361.398H117.277C111.732 361.398 107.211 356.873 107.211 351.315V105.812C107.211 100.258 111.729 95.7295 117.277 95.7295Z" fill="#11A1B6"/>
<path fill-rule="evenodd" clip-rule="evenodd" d="M117.276 98.2188H288.199C292.367 98.2188 295.78 101.638 295.78 105.812V351.315C295.78 355.49 292.367 358.909 288.199 358.909H117.276C113.109 358.909 109.695 355.49 109.695 351.315V105.812C109.695 101.638 113.109 98.2188 117.276 98.2188Z" fill="#1BA8BB"/>
<path fill-rule="evenodd" clip-rule="evenodd" d="M247.739 107.561C247.739 110.658 244.036 113.17 239.468 113.17H166.005C161.438 113.17 157.734 110.661 157.734 107.561V90.7415C157.734 87.6449 161.438 85.135 166.005 85.135H239.465C244.036 85.135 247.736 87.6449 247.736 90.7415V107.561H247.739ZM247.408 74.8604H158.065C152.509 74.8604 148.008 78.6251 148.008 83.2701V108.499C148.008 113.141 152.512 116.906 158.065 116.906H247.408C252.965 116.906 257.469 113.141 257.469 108.499V83.2701C257.469 78.6251 252.962 74.8604 247.408 74.8604Z" fill="#18D1DD"/>
<path d="M283.191 123.447H122.281V347.701H283.191V123.447Z" fill="#FDFDFD"/>
<path fill-rule="evenodd" clip-rule="evenodd" d="M248.413 123.447C248.413 128.092 244.654 131.857 240.017 131.857H165.458C160.821 131.857 157.062 128.092 157.062 123.447V98.2183C157.062 93.5763 160.821 89.8086 165.458 89.8086H240.017C244.651 89.8086 248.413 93.5763 248.413 98.2183V123.447Z" fill="#18D1DD"/>
<path fill-rule="evenodd" clip-rule="evenodd" d="M181.594 111.303C181.594 115.172 178.462 118.309 174.596 118.309C170.734 118.309 167.602 115.172 167.602 111.303C167.602 107.43 170.734 104.296 174.596 104.296C178.462 104.293 181.594 107.43 181.594 111.303Z" fill="#1BA8BB"/>
<path fill-rule="evenodd" clip-rule="evenodd" d="M239.759 111.303C239.759 115.172 236.627 118.309 232.764 118.309C228.902 118.309 225.77 115.172 225.77 111.303C225.77 107.43 228.902 104.296 232.764 104.296C236.627 104.296 239.759 107.43 239.759 111.303Z" fill="#1BA8BB"/>
<path fill-rule="evenodd" clip-rule="evenodd" d="M141.348 177.159L157.924 177.107L157.976 193.712L141.4 193.764L141.348 177.159ZM141.771 311.962L158.348 311.91L158.4 328.514L141.823 328.566L141.771 311.962ZM141.687 285.001L158.26 284.952L158.313 301.557L141.736 301.609L141.687 285.001ZM141.6 258.041L158.176 257.989L158.229 274.593L141.652 274.645L141.6 258.041ZM141.516 231.08L158.092 231.028L158.145 247.633L141.568 247.685L141.516 231.08ZM141.432 204.12L158.008 204.068L158.06 220.672L141.484 220.724L141.432 204.12Z" fill="#1BA8BB"/>
<path fill-rule="evenodd" clip-rule="evenodd" d="M170.95 177.674L260.935 177.392C262.454 177.386 263.701 178.63 263.704 180.149C263.71 181.671 262.472 182.92 260.949 182.926L170.965 183.208C169.445 183.214 168.198 181.97 168.195 180.451C168.192 178.926 169.431 177.677 170.95 177.674ZM171.371 312.473L261.355 312.192C262.875 312.186 264.122 313.429 264.125 314.948C264.128 316.471 262.889 317.72 261.37 317.726L171.388 318.007C169.869 318.01 168.622 316.77 168.619 315.248C168.613 313.728 169.851 312.479 171.371 312.473ZM171.403 322.333L225.447 322.161C226.967 322.158 228.214 323.399 228.22 324.921C228.223 326.443 226.984 327.692 225.465 327.698L171.42 327.867C169.901 327.872 168.654 326.629 168.648 325.11C168.645 323.588 169.883 322.339 171.403 322.333ZM171.287 285.513L261.271 285.231C262.791 285.228 264.038 286.469 264.043 287.991C264.049 289.513 262.811 290.762 261.291 290.765L171.307 291.047C169.787 291.053 168.54 289.812 168.535 288.29V288.287C168.529 286.768 169.767 285.519 171.287 285.513ZM171.319 295.372L225.363 295.204C226.883 295.198 228.13 296.441 228.136 297.961C228.141 299.483 226.903 300.732 225.383 300.738L171.339 300.906C169.819 300.912 168.572 299.672 168.569 298.146C168.558 296.627 169.799 295.378 171.319 295.372ZM171.203 258.552L261.187 258.271C262.707 258.265 263.954 259.508 263.956 261.027C263.962 262.55 262.721 263.799 261.204 263.805L171.223 264.086C169.703 264.089 168.456 262.849 168.451 261.327C168.445 259.807 169.683 258.558 171.203 258.552ZM171.235 268.412L225.279 268.243C226.799 268.24 228.046 269.481 228.051 271.003C228.057 272.525 226.816 273.774 225.299 273.777L171.255 273.946C169.735 273.951 168.488 272.708 168.482 271.189V271.186C168.474 269.667 169.715 268.418 171.235 268.412ZM171.119 231.592L261.1 231.31C262.62 231.304 263.867 232.548 263.872 234.067V234.07C263.878 235.592 262.637 236.841 261.12 236.847L171.136 237.129C169.616 237.135 168.369 235.891 168.364 234.372V234.369C168.361 232.847 169.599 231.598 171.119 231.592ZM171.15 241.454L225.195 241.283C226.715 241.28 227.962 242.52 227.964 244.042C227.97 245.565 226.732 246.814 225.212 246.82L171.168 246.991C169.648 246.994 168.401 245.753 168.395 244.231C168.39 242.706 169.631 241.457 171.15 241.454ZM171.034 204.634L261.019 204.35C262.538 204.347 263.785 205.587 263.791 207.109C263.797 208.632 262.556 209.881 261.039 209.886L171.055 210.171C169.535 210.174 168.288 208.934 168.282 207.411C168.277 205.886 169.515 204.637 171.034 204.634ZM171.066 214.491L225.111 214.322C226.63 214.316 227.877 215.557 227.88 217.079V217.082C227.886 218.604 226.645 219.853 225.128 219.859L171.084 220.028C169.564 220.033 168.317 218.79 168.311 217.271C168.306 215.746 169.544 214.497 171.066 214.491ZM170.982 187.533L225.027 187.362C226.546 187.359 227.793 188.599 227.799 190.121C227.802 191.644 226.564 192.893 225.044 192.899L171 193.07C169.48 193.073 168.233 191.832 168.227 190.31C168.221 188.785 169.46 187.536 170.982 187.533Z" fill="#1BA8BB"/>
<path fill-rule="evenodd" clip-rule="evenodd" d="M175.427 143.727L265.411 143.445C266.928 143.44 268.178 144.683 268.184 146.202V146.205C268.187 147.727 266.948 148.976 265.429 148.982L175.444 149.264C173.928 149.27 172.678 148.026 172.672 146.507V146.504C172.669 144.982 173.907 143.733 175.427 143.727ZM175.459 153.586L264.118 153.415C265.635 153.412 266.882 154.65 266.887 156.175C266.89 157.697 265.652 158.949 264.132 158.949L175.473 159.117C173.954 159.12 172.707 157.883 172.701 156.361C172.698 154.841 173.939 153.589 175.459 153.586Z" fill="#1BA8BB"/>
<path fill-rule="evenodd" clip-rule="evenodd" d="M187.205 106.047H218.272C218.986 106.047 219.563 106.625 219.563 107.34V107.831C219.563 108.546 218.986 109.124 218.272 109.124H187.205C186.491 109.124 185.914 108.546 185.914 107.831V107.34C185.914 106.625 186.491 106.047 187.205 106.047Z" fill="#0D7685"/>
<path fill-rule="evenodd" clip-rule="evenodd" d="M187.205 112.592H218.272C218.986 112.592 219.563 113.17 219.563 113.885V114.376C219.563 115.091 218.986 115.669 218.272 115.669H187.205C186.491 115.669 185.914 115.091 185.914 114.376V113.885C185.914 113.17 186.491 112.592 187.205 112.592Z" fill="#0D7685"/>
<path fill-rule="evenodd" clip-rule="evenodd" d="M238.323 111.718C238.323 115.023 235.649 117.702 232.349 117.702C229.052 117.702 226.375 115.023 226.375 111.718C226.375 108.412 229.049 105.733 232.349 105.733C235.649 105.733 238.323 108.412 238.323 111.718Z" fill="#0D7685"/>
<path fill-rule="evenodd" clip-rule="evenodd" d="M179.944 112.197C179.944 115.503 177.27 118.181 173.97 118.181C170.673 118.181 167.996 115.503 167.996 112.197C167.996 108.891 170.67 106.213 173.97 106.213C177.27 106.213 179.944 108.891 179.944 112.197Z" fill="#0D7685"/>
<path d="M335.876 334.087L330.34 339.633L335.876 345.179L341.413 339.633L335.876 334.087Z" fill="#BB5D59"/>
<path d="M335.878 337.222L333.5 339.605L335.879 341.988L338.257 339.605L335.878 337.222Z" fill="#E69F83"/>
<path fill-rule="evenodd" clip-rule="evenodd" d="M329.14 268.545C329.14 268.545 330.973 245.678 316 240.693C316.003 240.69 318.152 252.626 329.14 268.545Z" fill="#18D1DD"/>
<path fill-rule="evenodd" clip-rule="evenodd" d="M340.133 266.049C340.133 266.049 353.714 256.736 368.266 267.508C368.266 267.508 366.708 257.497 355.271 256.051C343.833 254.604 340.133 266.049 340.133 266.049Z" fill="#BADAF9"/>
<path fill-rule="evenodd" clip-rule="evenodd" d="M327.137 302.85C327.137 302.85 327.566 294.428 321.682 290.306C313.588 284.636 307.66 290.876 307.66 290.876C307.66 290.876 321.954 293.545 327.137 302.85Z" fill="#18D1DD"/>
<path fill-rule="evenodd" clip-rule="evenodd" d="M338.82 300.049C338.82 300.049 343.533 287.755 354.286 292.017C354.283 292.017 349.002 295.366 338.82 300.049Z" fill="#18D1DD"/>
<path fill-rule="evenodd" clip-rule="evenodd" d="M338.629 320.88C338.629 320.88 344.136 314.359 350.33 317.29C350.333 317.293 349.991 320.514 338.629 320.88Z" fill="#18D1DD"/>
<path fill-rule="evenodd" clip-rule="evenodd" d="M325.221 319.595C325.221 319.595 320.354 312.722 314.728 316.071C314.728 316.071 314.348 317.021 318.377 317.518C322.405 318.012 325.221 319.595 325.221 319.595Z" fill="#C2DEF9"/>
<path fill-rule="evenodd" clip-rule="evenodd" d="M347.352 277.242C347.352 277.242 355.158 269.75 363.821 277.021C363.824 277.021 355.277 277.884 347.352 277.242Z" fill="#18D1DD"/>
<path fill-rule="evenodd" clip-rule="evenodd" d="M339.387 279.342C339.387 279.342 339.007 272.263 345.164 270.854C345.164 270.854 344.022 276.832 339.387 279.342Z" fill="#18D1DD"/>
<path fill-rule="evenodd" clip-rule="evenodd" d="M342.625 282.602C342.625 282.602 348.242 279.04 354.666 283.949C354.663 283.949 349.736 285.974 342.625 282.602Z" fill="#C2DEF9"/>
<path fill-rule="evenodd" clip-rule="evenodd" d="M319.652 272.911C319.652 272.911 314.768 262.747 302.875 266.895C302.875 266.898 307.55 272.533 319.652 272.911Z" fill="#1BA8BB"/>
<path fill-rule="evenodd" clip-rule="evenodd" d="M326.503 277.207C326.503 277.207 329.36 272.379 325.14 267.127C325.14 267.124 322.582 272.556 326.503 277.207Z" fill="#1BA8BB"/>
<path fill-rule="evenodd" clip-rule="evenodd" d="M322.137 280.6C322.137 280.6 313.817 275.235 305.723 281.135C305.723 281.132 312.981 286.004 322.137 280.6Z" fill="#BADAF9"/>
<path fill-rule="evenodd" clip-rule="evenodd" d="M334.121 275.005C334.121 275.005 329.583 266.935 336.461 260.847C336.461 260.844 338.622 267.354 334.121 275.005Z" fill="#1BA8BB"/>
<path fill-rule="evenodd" clip-rule="evenodd" d="M332.282 261.34C332.282 261.34 331.218 245.392 344.367 241.474C344.367 241.471 341.821 252.89 332.282 261.34Z" fill="#BADAF9"/>
<path fill-rule="evenodd" clip-rule="evenodd" d="M321.961 271.333C321.961 271.333 325.105 263.624 321.648 257.762C321.645 257.762 316.843 264.161 321.961 271.333Z" fill="#C2DEF9"/>
<path fill-rule="evenodd" clip-rule="evenodd" d="M336.945 308.221C336.945 308.221 340.15 300.659 350.903 303.817C350.903 303.817 348.218 307.98 336.945 308.221Z" fill="#18D1DD"/>
<path fill-rule="evenodd" clip-rule="evenodd" d="M335.347 301.87C335.347 301.87 332.284 293.58 338.708 289.277C338.705 289.277 340.459 295.052 335.347 301.87Z" fill="#1BA8BB"/>
<path fill-rule="evenodd" clip-rule="evenodd" d="M322.402 310.042C322.402 310.042 318.267 301.838 308.578 305.643C308.575 305.643 312.667 311.015 322.402 310.042Z" fill="#1BA8BB"/>
<path fill-rule="evenodd" clip-rule="evenodd" d="M326.016 310.335C326.016 310.335 324.154 306.898 319.633 302.901C319.633 302.904 325.711 300.792 326.016 310.335Z" fill="#C2DEF9"/>
<path fill-rule="evenodd" clip-rule="evenodd" d="M334.906 319.535C334.906 319.535 334.982 311.808 343.151 311.123C343.151 311.125 342.278 316.224 334.906 319.535Z" fill="#1BA8BB"/>
<path fill-rule="evenodd" clip-rule="evenodd" d="M327.092 330.791C327.092 330.791 324.917 324.217 316.48 326.346C316.478 326.346 318.4 330.971 327.092 330.791Z" fill="#1BA8BB"/>
<path fill-rule="evenodd" clip-rule="evenodd" d="M335.629 331.715C335.629 331.715 337.415 325.435 344.863 326.237C344.863 326.234 344.37 331.448 335.629 331.715Z" fill="#1BA8BB"/>
<path fill-rule="evenodd" clip-rule="evenodd" d="M363.092 262.058C363.075 262.047 361.213 260.766 358.452 259.804C356.831 259.241 355.219 258.892 353.662 258.773C351.71 258.622 349.839 258.834 348.102 259.394C342.9 261.076 338.872 265.858 336.131 273.605C335.595 275.122 335.113 276.78 334.687 278.576C334.577 277.794 334.429 276.531 334.353 275C334.234 272.597 334.269 269.024 335.128 265.649C335.154 265.547 335.093 265.443 334.991 265.416C334.89 265.39 334.785 265.451 334.759 265.553C333.889 268.978 333.852 272.592 333.973 275.017C334.104 277.646 334.446 279.494 334.449 279.514L334.464 279.555C333.469 284.066 332.808 289.391 332.492 295.465C332.173 301.591 332.199 308.488 332.573 316.014C332.535 316.235 332.5 316.459 332.463 316.682C331.654 321.839 331.549 326.8 331.607 330.051C331.668 333.574 331.923 335.913 331.926 335.939C331.938 336.038 332.019 336.107 332.115 336.107L332.135 336.105C332.239 336.093 332.315 336 332.303 335.895C332.3 335.872 332.048 333.551 331.987 330.042C331.935 327.044 332.019 322.591 332.671 317.873C332.709 318.576 332.753 319.285 332.799 320C333.005 323.233 333.257 326.341 333.527 329.24C333.312 330.396 333.196 331.625 333.179 332.909C333.141 335.794 333.631 337.99 333.637 338.013C333.657 338.103 333.736 338.161 333.823 338.161L333.863 338.155C333.965 338.132 334.029 338.03 334.005 337.926C334 337.906 333.521 335.753 333.556 332.912C333.565 332.279 333.599 331.582 333.678 330.844C333.785 331.942 333.895 333.005 334.005 334.028C333.831 334.394 333.744 334.626 333.736 334.649C333.701 334.748 333.75 334.855 333.849 334.893C333.872 334.902 333.892 334.905 333.916 334.905C333.988 334.905 334.058 334.861 334.09 334.792C334.968 342.815 335.841 348.212 335.856 348.296C335.87 348.389 335.951 348.456 336.044 348.456L336.076 348.453C336.18 348.436 336.25 348.34 336.233 348.235C336.218 348.151 335.299 342.469 334.397 334.1C334.675 333.531 335.157 332.671 335.879 331.77C337.03 330.338 339.037 328.517 342.082 327.977C342.186 327.959 342.253 327.86 342.236 327.756C342.218 327.651 342.12 327.584 342.015 327.602C340.62 327.852 339.315 328.375 338.138 329.165C337.198 329.795 336.34 330.591 335.583 331.535C335.032 332.224 334.617 332.883 334.324 333.418C334.185 332.096 334.046 330.71 333.91 329.275C334.269 327.369 334.962 325.336 336.236 323.57C338.353 320.63 341.69 318.919 346.151 318.486C346.255 318.475 346.33 318.382 346.322 318.277C346.31 318.173 346.217 318.097 346.116 318.106C341.54 318.55 338.115 320.313 335.928 323.346C334.974 324.674 334.258 326.245 333.797 328.026C333.744 327.442 333.692 326.849 333.643 326.251C333.663 326.222 333.678 326.184 333.681 326.147C333.681 326.123 333.756 323.945 334.466 321.403C335.119 319.07 336.453 315.947 339.109 314.329C339.199 314.274 339.228 314.158 339.173 314.068C339.118 313.978 339.002 313.949 338.912 314.004C337.691 314.748 336.633 315.854 335.774 317.289C335.09 318.431 334.527 319.779 334.101 321.304C333.791 322.411 333.602 323.451 333.483 324.282C333.373 322.878 333.272 321.441 333.179 319.976C333.098 318.701 333.022 317.385 332.956 316.034C333.179 314.716 333.457 313.353 333.802 311.982C333.939 311.75 334.713 310.489 336.154 309.124C337.622 307.735 340.098 305.957 343.567 305.376C343.671 305.359 343.741 305.26 343.723 305.159C343.706 305.054 343.607 304.984 343.503 305.002C341.931 305.266 340.423 305.789 339.025 306.556C337.906 307.172 336.853 307.941 335.893 308.848C335.096 309.603 334.501 310.318 334.098 310.861C336.192 303.323 340.391 295.732 348.769 293.437C348.871 293.408 348.932 293.304 348.903 293.205C348.877 293.103 348.769 293.042 348.668 293.071C343.894 294.378 340.046 297.455 337.224 302.219C336.679 303.137 336.175 304.119 335.708 305.161C335.522 303.604 335.139 298.913 336.641 295.137C336.679 295.038 336.633 294.927 336.534 294.89C336.436 294.852 336.325 294.898 336.288 294.997C335.316 297.443 335.125 300.238 335.139 302.152C335.154 304.223 335.4 305.739 335.403 305.754C335.406 305.774 335.415 305.795 335.424 305.812C334.356 308.331 333.507 311.189 332.877 314.355C332.584 307.517 332.532 299.938 333.057 292.717C333.086 292.696 333.115 292.662 333.138 292.609C333.144 292.592 333.156 292.569 333.167 292.537C333.71 291.212 335.444 287.407 338.724 283.752L338.747 283.741C338.761 283.735 340.107 283.136 342.25 282.796C344.225 282.486 347.299 282.338 350.733 283.407C350.831 283.438 350.939 283.38 350.97 283.282C351.002 283.18 350.944 283.075 350.846 283.043C347.337 281.951 344.196 282.105 342.178 282.425C340.907 282.625 339.921 282.913 339.31 283.122C342.987 279.27 348.43 275.767 356.072 275.767C356.109 275.767 356.147 275.767 356.185 275.767H356.188C356.292 275.767 356.376 275.682 356.379 275.578C356.379 275.473 356.295 275.386 356.19 275.386C352.441 275.369 348.914 276.188 345.707 277.823C343.245 279.075 340.963 280.812 338.909 282.988C338.967 282.43 339.098 281.518 339.373 280.423C339.794 278.747 340.652 276.287 342.357 274.096C342.421 274.012 342.407 273.893 342.326 273.829C342.241 273.765 342.123 273.78 342.059 273.861C340.31 276.109 339.431 278.625 339.005 280.342C338.614 281.905 338.515 283.081 338.492 283.447C335.647 286.596 333.95 289.855 333.144 291.645C333.678 285.045 334.71 278.794 336.499 273.739C339.199 266.111 343.143 261.408 348.227 259.763C352.058 258.523 355.834 259.299 358.328 260.164C361.042 261.105 362.869 262.363 362.887 262.375C362.974 262.436 363.092 262.413 363.15 262.328C363.2 262.238 363.179 262.119 363.092 262.058Z" fill="#11A1B6"/>
<path fill-rule="evenodd" clip-rule="evenodd" d="M331.372 298.186C331.369 296.734 331.351 295.305 331.325 293.902C331.334 293.878 331.337 293.852 331.334 293.826C331.334 293.817 331.331 293.771 331.322 293.692C331.198 287.371 330.85 281.564 330.284 276.321C330.267 275.824 330.194 272.472 330.972 267.949C331.746 263.443 333.544 256.829 337.726 250.9C337.787 250.816 337.766 250.697 337.679 250.636C337.592 250.575 337.473 250.595 337.415 250.682C335.551 253.326 333.996 256.324 332.796 259.592C331.836 262.203 331.096 264.995 330.6 267.885C330.218 270.116 330.041 272.065 329.959 273.535C329.722 271.679 329.455 269.898 329.156 268.199C328.304 263.319 327.193 259.06 325.859 255.533C324.386 251.644 322.602 248.55 320.558 246.342C320.485 246.264 320.366 246.261 320.288 246.331C320.21 246.403 320.207 246.522 320.276 246.601C324.133 250.766 326.996 258.055 328.782 268.263C329.223 270.781 329.6 273.48 329.907 276.347C329.907 276.379 329.91 276.399 329.91 276.402C329.91 276.42 329.916 276.434 329.919 276.449C330.4 280.917 330.719 285.794 330.879 291.052C330.847 290.901 330.812 290.747 330.774 290.587C330.354 288.789 329.545 286.023 328.069 283.057C328.005 282.93 327.941 282.802 327.874 282.674C327.561 281.367 326.349 276.135 326.056 271.786C326.05 271.682 325.957 271.603 325.853 271.609C325.749 271.615 325.67 271.708 325.676 271.813C325.908 275.252 326.709 279.232 327.196 281.422C326.131 279.557 324.905 277.846 323.527 276.304C323.379 275.859 321.561 270.334 321.346 265.247C321.344 265.143 321.254 265.062 321.149 265.064C321.045 265.067 320.964 265.157 320.967 265.262C321.143 269.419 322.376 273.858 322.921 275.644C322.524 275.226 322.115 274.822 321.694 274.43C318.478 271.441 314.584 269.253 310.118 267.926C310.016 267.897 309.912 267.955 309.883 268.054C309.854 268.155 309.909 268.26 310.01 268.289C319.557 271.127 324.696 277.463 327.378 282.532C326.775 282.157 325.647 281.535 324.009 280.98C322.541 280.484 320.972 280.147 319.343 279.978C317.307 279.769 315.175 279.821 313 280.135C312.896 280.15 312.823 280.246 312.841 280.35C312.855 280.455 312.951 280.527 313.055 280.513C317.895 279.813 321.607 280.574 323.869 281.335C326.32 282.163 327.642 283.168 327.657 283.177L327.744 283.246C330.27 288.333 330.861 292.888 330.951 293.718C330.98 295.177 330.998 296.664 331.003 298.178C331.027 305.541 330.763 312.629 330.418 318.643C330.299 317.152 330.139 315.622 329.93 314.082C329.049 307.557 327.468 302.224 325.235 298.227C322.431 293.201 318.583 290.285 313.798 289.556C313.693 289.541 313.598 289.611 313.58 289.716C313.566 289.82 313.635 289.916 313.74 289.933C318.403 290.645 322.158 293.498 324.902 298.413C327.109 302.366 328.675 307.653 329.551 314.128C329.736 315.508 329.884 316.879 329.997 318.221C329.536 317.274 328.675 315.744 327.286 314.088C327.164 313.943 327.039 313.797 326.912 313.655C326.917 313.637 326.92 313.617 326.92 313.594C326.917 313.539 326.842 312.266 326.392 310.602C325.978 309.059 325.151 306.892 323.571 305.309C323.495 305.236 323.376 305.236 323.301 305.309C323.226 305.385 323.226 305.504 323.301 305.579C324.821 307.101 325.618 309.202 326.021 310.695C326.311 311.773 326.442 312.702 326.5 313.208C325.38 312.017 324.136 310.971 322.791 310.093C320.703 308.734 318.362 307.772 315.836 307.238C315.735 307.215 315.633 307.282 315.61 307.386C315.59 307.488 315.654 307.589 315.758 307.61C321.37 308.798 324.96 311.915 326.984 314.323C329.179 316.937 330.058 319.302 330.067 319.325L330.087 319.363C330.145 320.15 330.191 320.926 330.229 321.681C329.858 327.375 329.446 331.822 329.205 334.19C329.217 334.033 329.226 333.876 329.234 333.713C329.24 333.693 329.24 333.67 329.237 333.647C329.261 333.211 329.275 332.752 329.281 332.281C329.307 330.198 329.133 328.252 328.768 326.503C328.306 324.307 327.538 322.413 326.482 320.871C324.612 318.134 321.825 316.473 318.2 315.932C318.096 315.918 318 315.988 317.985 316.092C317.971 316.197 318.04 316.293 318.145 316.307C321.66 316.83 324.36 318.436 326.169 321.083C328.498 324.487 328.942 329.045 328.901 332.267C328.898 332.482 328.895 332.694 328.886 332.903C328.602 332.386 328.132 331.633 327.436 330.855C326.709 330.042 325.882 329.37 324.983 328.859C323.858 328.22 322.614 327.834 321.288 327.709C321.184 327.697 321.091 327.776 321.083 327.88C321.071 327.985 321.149 328.078 321.254 328.087C324.13 328.357 326.047 329.873 327.146 331.099C328.222 332.296 328.753 333.458 328.855 333.693C328.701 336.488 328.254 338.506 328.248 338.533C328.225 338.634 328.289 338.739 328.393 338.762L328.434 338.768C328.521 338.768 328.599 338.707 328.62 338.62C328.623 338.605 328.834 337.658 329.017 336.168C329.04 336.235 329.098 336.284 329.174 336.293H329.197C329.292 336.293 329.374 336.223 329.385 336.124C329.394 336.04 329.867 331.904 330.351 325.431C330.371 326.861 330.365 328.165 330.342 329.292C330.264 333.339 329.997 336.055 329.997 336.084C329.986 336.188 330.064 336.281 330.168 336.293H330.186C330.281 336.293 330.365 336.22 330.374 336.122C330.377 336.095 330.644 333.368 330.722 329.307C330.763 327.247 330.757 324.606 330.612 321.681C331.032 315.096 331.401 306.831 331.372 298.186Z" fill="#11A1B6"/>
<path fill-rule="evenodd" clip-rule="evenodd" d="M344.391 337.804C344.391 338.611 344.379 339.41 344.362 340.203C344.341 340.97 344.312 341.734 344.275 342.486C344.228 343.399 344.17 344.302 344.098 345.191C343.886 347.834 343.561 350.368 343.138 352.75C342.43 356.741 341.447 360.308 340.258 363.268C339.87 364.236 339.458 365.139 339.026 365.97C338.976 366.063 338.927 366.156 338.878 366.249C338.498 366.96 338.104 367.617 337.695 368.215H325.619C325.158 367.541 324.714 366.792 324.288 365.97C323.856 365.139 323.444 364.236 323.055 363.268C321.156 358.542 319.784 352.27 319.216 345.191C319.143 344.302 319.085 343.399 319.042 342.486C319.004 341.734 318.975 340.97 318.955 340.203C318.934 339.41 318.926 338.611 318.926 337.804C318.926 337.702 318.926 337.6 318.926 337.499C318.929 336.331 318.955 335.175 318.998 334.033H344.31C344.356 335.172 344.379 336.328 344.385 337.499C344.391 337.6 344.391 337.705 344.391 337.804Z" fill="#1BA8BB"/>
<path fill-rule="evenodd" clip-rule="evenodd" d="M344.392 337.804C344.392 338.612 344.38 339.41 344.36 340.204H318.959C318.938 339.41 318.93 338.612 318.93 337.804C318.93 337.702 318.93 337.601 318.93 337.499H344.389C344.389 337.601 344.392 337.705 344.392 337.804Z" fill="#18D1DD"/>
<path fill-rule="evenodd" clip-rule="evenodd" d="M344.272 342.486C344.226 343.398 344.168 344.302 344.095 345.191H319.216C319.146 344.302 319.085 343.398 319.039 342.486H344.272Z" fill="#18D1DD"/>
<path fill-rule="evenodd" clip-rule="evenodd" d="M340.259 363.269C339.87 364.236 339.458 365.139 339.026 365.97H324.291C323.859 365.139 323.447 364.236 323.059 363.269H340.259Z" fill="#0D7685"/>
<path fill-rule="evenodd" clip-rule="evenodd" d="M340.698 352.944C334.849 352.944 331.154 349.342 328.84 345.188H344.1C343.981 346.681 343.824 348.134 343.636 349.548C343.491 350.641 343.325 351.707 343.14 352.747C342.284 352.883 341.472 352.944 340.698 352.944Z" fill="#C2DEF9"/>
<path fill-rule="evenodd" clip-rule="evenodd" d="M344.271 342.487H327.535C327.216 341.717 326.935 340.947 326.691 340.204H344.355C344.361 340 344.367 339.794 344.37 339.591C344.367 339.794 344.361 340 344.358 340.204C344.338 340.971 344.309 341.735 344.271 342.487ZM344.387 337.502H325.923C325.575 336.079 325.36 334.865 325.238 334.037H344.312C344.358 335.175 344.384 336.331 344.387 337.502Z" fill="#C2DEF9"/>
<path fill-rule="evenodd" clip-rule="evenodd" d="M344.361 340.204H326.697C326.387 339.257 326.132 338.341 325.926 337.502H344.39C344.39 337.511 344.39 337.522 344.39 337.534C344.39 337.624 344.39 337.714 344.39 337.804C344.39 338.405 344.384 338.998 344.373 339.591C344.37 339.794 344.367 340 344.361 340.204Z" fill="#0D7685"/>
<path fill-rule="evenodd" clip-rule="evenodd" d="M344.098 345.191H328.838C328.345 344.302 327.913 343.393 327.539 342.486H344.275C344.261 342.806 344.24 343.125 344.223 343.445C344.185 344.032 344.145 344.613 344.098 345.191Z" fill="#0D7685"/>
<path fill-rule="evenodd" clip-rule="evenodd" d="M337.696 368.216H325.62C325.159 367.542 324.715 366.792 324.289 365.97H338.145C338.386 366.069 338.629 366.162 338.879 366.249C338.499 366.961 338.105 367.617 337.696 368.216ZM323.059 363.269C321.16 358.542 319.788 352.271 319.22 345.191H323.573C325.142 351.574 328.079 358.847 333.578 363.269H323.059ZM322.975 342.487H319.046C319.008 341.735 318.979 340.971 318.959 340.204H322.563C322.682 340.933 322.819 341.7 322.975 342.487ZM318.93 337.804C318.93 337.703 318.93 337.601 318.93 337.499C318.93 337.601 318.93 337.706 318.93 337.804ZM322.183 337.502H318.93C318.933 336.334 318.959 335.178 319.002 334.037H321.859C321.917 334.92 322.015 336.105 322.183 337.502Z" fill="#18D1DD"/>
<path fill-rule="evenodd" clip-rule="evenodd" d="M322.563 340.204H318.959C318.938 339.41 318.93 338.612 318.93 337.804C318.93 337.702 318.93 337.601 318.93 337.499H322.183C322.285 338.333 322.41 339.239 322.563 340.204Z" fill="#11A1B6"/>
<path fill-rule="evenodd" clip-rule="evenodd" d="M323.573 345.191H319.22C319.176 344.653 319.139 344.11 319.104 343.564C319.081 343.207 319.063 342.847 319.043 342.486H322.972C323.149 343.361 323.347 344.264 323.573 345.191Z" fill="#11A1B6"/>
<path fill-rule="evenodd" clip-rule="evenodd" d="M338.147 365.97H324.291C323.96 365.331 323.641 364.651 323.334 363.934C323.241 363.716 323.148 363.495 323.059 363.269H333.577C334.937 364.361 336.457 365.282 338.147 365.97Z" fill="#11A1B6"/>
<path fill-rule="evenodd" clip-rule="evenodd" d="M1.3804 119.692H49.3175C50.0802 119.692 50.695 119.073 50.695 118.312C50.695 117.548 50.0773 116.932 49.3175 116.932H1.3804C0.617702 116.932 0 117.551 0 118.312C0 119.073 0.614802 119.692 1.3804 119.692ZM69.8612 108.258H75.5684C76.3282 108.258 76.9459 107.639 76.9459 106.875C76.9488 106.111 76.3282 105.496 75.5655 105.496H69.8583C69.0985 105.496 68.4808 106.114 68.4808 106.875C68.4837 107.639 69.0985 108.258 69.8612 108.258ZM60.732 119.692H65.2966C66.0564 119.692 66.6741 119.073 66.6741 118.312C66.6741 117.548 66.0564 116.932 65.2937 116.932H60.7291C59.9664 116.932 59.3486 117.551 59.3486 118.312C59.3515 119.073 59.9664 119.692 60.732 119.692ZM10.5096 108.258H60.732C61.4918 108.258 62.1095 107.639 62.1095 106.875C62.1095 106.111 61.4918 105.496 60.7291 105.496H10.5067C9.74692 105.496 9.12632 106.114 9.12632 106.875C9.12922 107.639 9.74693 108.258 10.5096 108.258Z" fill="#1BA8BB"/>
<path fill-rule="evenodd" clip-rule="evenodd" d="M205.099 52.7881H253.036C253.799 52.7881 254.417 52.1693 254.417 51.4083C254.417 50.6443 253.799 50.0284 253.036 50.0284H205.099C204.336 50.0284 203.719 50.6472 203.719 51.4083C203.719 52.1693 204.334 52.7881 205.099 52.7881ZM273.58 41.3543H279.287C280.047 41.3543 280.665 40.7356 280.665 39.9716C280.668 39.2076 280.047 38.5918 279.284 38.5918L273.577 38.5889C272.817 38.5889 272.197 39.2076 272.197 39.9716C272.202 40.7385 272.82 41.3543 273.58 41.3543ZM264.451 52.7881H269.015C269.775 52.7881 270.393 52.1693 270.393 51.4083C270.393 50.6443 269.775 50.0284 269.012 50.0284H264.448C263.685 50.0284 263.067 50.6472 263.067 51.4083C263.073 52.1693 263.685 52.7881 264.451 52.7881ZM214.228 41.3543H264.451C265.211 41.3543 265.828 40.7356 265.828 39.9716C265.828 39.2076 265.211 38.5918 264.451 38.5918L214.228 38.5889C213.469 38.5889 212.848 39.2076 212.848 39.9716C212.848 40.7385 213.466 41.3543 214.228 41.3543Z" fill="#1BA8BB"/>
<path fill-rule="evenodd" clip-rule="evenodd" d="M308.298 199.605H356.236C356.998 199.605 357.616 198.987 357.616 198.226C357.616 197.462 356.998 196.846 356.236 196.846H308.298C307.536 196.846 306.918 197.465 306.918 198.226C306.921 198.987 307.536 199.605 308.298 199.605ZM376.782 188.175H382.489C383.249 188.175 383.867 187.556 383.867 186.792C383.87 186.028 383.249 185.412 382.486 185.412L376.779 185.409C376.019 185.409 375.399 186.028 375.399 186.792C375.405 187.556 376.019 188.175 376.782 188.175ZM367.653 199.605H372.217C372.977 199.605 373.595 198.987 373.595 198.226C373.595 197.462 372.977 196.846 372.215 196.846H367.65C366.887 196.846 366.27 197.465 366.27 198.226C366.272 198.987 366.887 199.605 367.653 199.605ZM317.43 188.175H367.653C368.413 188.175 369.03 187.556 369.03 186.792C369.03 186.028 368.413 185.412 367.65 185.412L317.428 185.409C316.668 185.409 316.05 186.028 316.05 186.792C316.05 187.556 316.668 188.175 317.43 188.175Z" fill="#1BA8BB"/>
<path fill-rule="evenodd" clip-rule="evenodd" d="M108.884 40.2051C108.432 46.4274 107.516 47.2873 101.594 47.7666C107.516 48.2459 108.432 49.1028 108.884 55.3281C109.337 49.1057 110.253 48.2459 116.175 47.7666C110.253 47.2844 109.337 46.4274 108.884 40.2051ZM132.96 56.6178C132.72 59.9411 132.229 60.3971 129.068 60.6528C132.229 60.9084 132.72 61.3674 132.96 64.6906C133.201 61.3674 133.691 60.9084 136.855 60.6528C133.691 60.3971 133.201 59.9382 132.96 56.6178ZM122.416 31.0459C122.172 34.4098 121.676 34.8746 118.475 35.1331C121.676 35.3916 122.172 35.8564 122.416 39.2203C122.659 35.8564 123.155 35.3916 126.36 35.1331C123.158 34.8775 122.662 34.4127 122.416 31.0459Z" fill="white"/>
<path fill-rule="evenodd" clip-rule="evenodd" d="M69.6539 234.046C69.2015 240.269 68.2851 241.129 62.3633 241.608C68.2851 242.087 69.2015 242.944 69.6539 249.169C70.1063 242.947 71.0227 242.087 76.9445 241.608C71.0227 241.129 70.1063 240.269 69.6539 234.046ZM93.7298 250.459C93.4891 253.782 92.999 254.238 89.838 254.494C92.999 254.75 93.4891 255.209 93.7298 258.532C93.9705 255.209 94.4606 254.75 97.6245 254.494C94.4606 254.238 93.9734 253.779 93.7298 250.459ZM83.1882 224.887C82.9446 228.251 82.4487 228.716 79.2471 228.974C82.4487 229.233 82.9446 229.698 83.1882 233.062C83.4318 229.698 83.9277 229.233 87.1322 228.974C83.9277 228.719 83.4318 228.254 83.1882 224.887Z" fill="white"/>
<path fill-rule="evenodd" clip-rule="evenodd" d="M325.951 215.501C325.498 221.723 324.582 222.583 318.66 223.062C324.582 223.542 325.498 224.399 325.951 230.624C326.403 224.402 327.32 223.542 333.241 223.062C327.32 222.583 326.403 221.723 325.951 215.501ZM350.027 231.914C349.786 235.237 349.296 235.693 346.135 235.949C349.296 236.204 349.786 236.663 350.027 239.987C350.267 236.663 350.757 236.204 353.921 235.949C350.757 235.693 350.267 235.234 350.027 231.914ZM339.482 206.342C339.239 209.706 338.743 210.17 335.541 210.429C338.743 210.688 339.239 211.152 339.482 214.516C339.726 211.152 340.222 210.688 343.426 210.429C340.222 210.173 339.726 209.709 339.482 206.342Z" fill="white"/>
</g>
<path d="M98.9642 454.955C98.7962 454.955 98.6402 454.931 98.4962 454.883C97.8002 455.003 97.2242 454.799 96.7682 454.271C96.1202 453.479 95.4362 452.591 94.7162 451.607C94.0202 450.599 93.4442 449.735 92.9882 449.015L91.1882 446.171L89.5322 443.579C87.9002 441.059 86.0282 438.407 83.9162 435.623C83.8922 437.639 83.9282 440.591 84.0242 444.479C84.1442 448.367 84.2042 451.235 84.2042 453.083C84.2042 453.587 84.0242 454.019 83.6642 454.379C83.3282 454.715 82.9082 454.883 82.4042 454.883C81.9002 454.883 81.4682 454.715 81.1082 454.379C80.7722 454.019 80.6042 453.587 80.6042 453.083C80.6042 451.643 80.5442 448.391 80.4242 443.327C80.3042 438.239 80.2922 434.327 80.3882 431.591C80.4122 431.231 80.4962 430.859 80.6402 430.475C80.7602 430.139 81.0002 429.803 81.3602 429.467C81.7442 429.203 82.1882 429.095 82.6922 429.143C83.1962 429.191 83.6042 429.407 83.9162 429.791C87.3242 434.039 90.2042 437.987 92.5562 441.635L94.0322 443.975L95.7242 446.639L97.2002 448.835C97.3202 440.843 97.3442 434.879 97.2722 430.943C97.2722 430.439 97.4402 430.007 97.7762 429.647C98.1122 429.287 98.5322 429.107 99.0362 429.107C99.5402 429.107 99.9722 429.275 100.332 429.611C100.692 429.947 100.872 430.367 100.872 430.871C100.92 433.871 100.884 441.311 100.764 453.191C100.764 453.671 100.584 454.091 100.224 454.451C99.8642 454.787 99.4442 454.955 98.9642 454.955ZM116.278 454.595C113.11 455.363 110.578 454.727 108.682 452.687C107.17 451.127 106.234 449.123 105.874 446.675C105.61 444.755 105.838 442.931 106.558 441.203C107.422 438.995 108.79 437.363 110.662 436.307C111.046 436.091 111.526 435.935 112.102 435.839C112.126 435.839 112.294 435.827 112.606 435.803C112.726 435.779 112.822 435.755 112.894 435.731C113.254 435.659 113.614 435.695 113.974 435.839C114.07 435.839 114.298 435.851 114.658 435.875C115.018 435.875 115.258 435.887 115.378 435.911C115.498 435.911 115.702 435.935 115.99 435.983C116.302 436.007 116.554 436.043 116.746 436.091L117.43 436.343C117.718 436.439 117.994 436.559 118.258 436.703C118.522 436.847 118.81 437.015 119.122 437.207C120.682 438.263 121.762 439.751 122.362 441.671C122.962 443.567 123.118 445.103 122.83 446.279C122.614 447.575 122.23 448.787 121.678 449.915C121.126 451.019 120.358 452.003 119.374 452.867C118.414 453.731 117.382 454.307 116.278 454.595ZM115.162 450.851C116.194 450.707 117.07 450.179 117.79 449.267C118.534 448.331 119.014 447.347 119.23 446.315C119.47 445.283 119.386 444.155 118.978 442.931C118.594 441.683 117.97 440.783 117.106 440.231C116.842 440.039 116.626 439.907 116.458 439.835C116.29 439.739 116.086 439.667 115.846 439.619C115.63 439.547 115.45 439.511 115.306 439.511C115.186 439.511 114.91 439.499 114.478 439.475C114.046 439.451 113.662 439.427 113.326 439.403C113.254 439.403 113.17 439.391 113.074 439.367C112.81 439.391 112.666 439.403 112.642 439.403L112.39 439.475C111.334 440.051 110.518 440.975 109.942 442.247C109.39 443.495 109.234 444.791 109.474 446.135C109.738 447.767 110.326 449.003 111.238 449.843C112.222 450.755 113.53 451.091 115.162 450.851ZM142.627 454.739C142.483 454.691 142.183 454.619 141.727 454.523C141.295 454.427 140.911 454.319 140.575 454.199C140.263 454.079 139.891 453.911 139.459 453.695C139.051 453.455 138.679 453.143 138.343 452.759C138.007 452.351 137.719 451.871 137.479 451.319C137.215 450.671 137.047 449.399 136.975 447.503C136.903 446.039 136.891 444.155 136.939 441.851C136.939 441.419 136.951 440.699 136.975 439.691L136.687 439.727C136.183 439.775 135.739 439.643 135.355 439.331C134.971 439.019 134.743 438.623 134.671 438.143C134.623 437.639 134.755 437.195 135.067 436.811C135.379 436.427 135.775 436.199 136.255 436.127L137.083 436.055C137.107 434.783 137.143 433.499 137.191 432.203C137.215 431.699 137.407 431.279 137.767 430.943C138.127 430.607 138.559 430.451 139.063 430.475C139.567 430.499 139.987 430.691 140.323 431.051C140.659 431.411 140.815 431.843 140.791 432.347L140.683 435.767L141.871 435.695C142.375 435.671 142.807 435.815 143.167 436.127C143.551 436.439 143.755 436.847 143.779 437.351C143.827 437.855 143.695 438.299 143.383 438.683C143.071 439.043 142.663 439.247 142.159 439.295L140.575 439.367C140.551 440.519 140.539 441.359 140.539 441.887C140.491 444.143 140.503 445.979 140.575 447.395C140.623 448.835 140.695 449.663 140.791 449.879C140.887 450.095 140.959 450.251 141.007 450.347C141.055 450.419 141.139 450.503 141.259 450.599C141.403 450.671 141.547 450.719 141.691 450.743C141.835 450.767 142.099 450.839 142.483 450.959C142.891 451.055 143.323 451.187 143.779 451.355C144.235 451.499 144.571 451.799 144.787 452.255C145.027 452.687 145.063 453.143 144.895 453.623C144.751 454.079 144.451 454.427 143.995 454.667C143.563 454.883 143.107 454.907 142.627 454.739ZM156.23 455.027C154.454 454.907 152.906 454.547 151.586 453.947C150.266 453.347 149.258 452.591 148.562 451.679C147.866 450.767 147.362 449.927 147.05 449.159C146.738 448.391 146.546 447.635 146.474 446.891C146.402 446.123 146.438 445.139 146.582 443.939C146.75 442.931 147.098 441.935 147.626 440.951C148.178 439.967 148.898 439.091 149.786 438.323C150.698 437.531 151.79 436.931 153.062 436.523C154.334 436.091 155.69 435.959 157.13 436.127C158.522 436.295 159.71 436.679 160.694 437.279C161.678 437.855 162.518 438.599 163.214 439.511C163.814 440.279 164.174 440.855 164.294 441.239C164.438 441.623 164.558 441.983 164.654 442.319C164.774 442.655 164.87 442.943 164.942 443.183C165.014 443.423 165.074 443.675 165.122 443.939C165.194 444.179 165.242 444.467 165.266 444.803C165.29 445.259 165.206 445.679 165.014 446.063C164.822 446.447 164.534 446.747 164.15 446.963C163.838 447.083 163.502 447.143 163.142 447.143L156.986 447.251C152.666 447.275 150.506 447.323 150.506 447.395H150.398C150.71 448.619 151.358 449.579 152.342 450.275C153.35 450.971 154.718 451.379 156.446 451.499C157.382 451.547 158.162 451.499 158.786 451.355C159.482 451.163 159.986 450.995 160.298 450.851C160.61 450.683 160.994 450.467 161.45 450.203C161.906 450.035 162.362 450.059 162.818 450.275C163.274 450.491 163.586 450.827 163.754 451.283C163.922 451.739 163.898 452.183 163.682 452.615C163.49 453.047 163.178 453.383 162.746 453.623C162.362 453.839 161.966 454.031 161.558 454.199C161.15 454.343 160.55 454.523 159.758 454.739C158.966 454.955 157.79 455.051 156.23 455.027ZM150.47 443.867C151.862 443.795 155.474 443.723 161.306 443.651C161.09 442.931 160.742 442.247 160.262 441.599C159.302 440.495 158.114 439.859 156.698 439.691C155.21 439.499 153.902 439.823 152.774 440.663C151.646 441.479 150.878 442.547 150.47 443.867ZM190.53 453.263C190.506 452.831 190.47 452.435 190.422 452.075C190.398 451.691 190.374 451.415 190.35 451.247C190.35 451.055 190.338 450.899 190.314 450.779C190.314 450.635 190.314 450.479 190.314 450.311V448.259C190.314 447.875 190.326 447.203 190.35 446.243C190.398 445.259 190.41 444.431 190.386 443.759C190.386 443.087 190.326 442.451 190.206 441.851C190.062 441.011 189.81 440.411 189.45 440.051C189.09 439.667 188.538 439.475 187.794 439.475C186.138 439.499 184.482 440.507 182.826 442.499C182.898 443.219 182.934 444.611 182.934 446.675C182.934 448.187 182.97 450.299 183.042 453.011C183.066 453.491 182.898 453.911 182.538 454.271C182.202 454.631 181.782 454.823 181.278 454.847C180.798 454.871 180.378 454.715 180.018 454.379C179.658 454.019 179.466 453.587 179.442 453.083C179.37 450.371 179.334 448.235 179.334 446.675V444.875C179.334 444.755 179.322 444.503 179.298 444.119C179.298 443.735 179.286 443.459 179.262 443.291C179.262 443.099 179.238 442.859 179.19 442.571C179.166 442.259 179.13 441.995 179.082 441.779C179.058 441.539 179.01 441.311 178.938 441.095C178.746 440.423 178.482 439.955 178.146 439.691C177.786 439.403 177.246 439.295 176.526 439.367C175.734 439.439 175.05 439.655 174.474 440.015C173.922 440.375 173.358 440.951 172.782 441.743C172.662 441.887 172.53 442.019 172.386 442.139C172.482 446.939 172.482 450.599 172.386 453.119C172.362 453.623 172.17 454.043 171.81 454.379C171.45 454.715 171.018 454.871 170.514 454.847C170.01 454.823 169.59 454.631 169.254 454.271C168.918 453.911 168.762 453.479 168.786 452.975C168.834 450.311 168.858 448.607 168.858 447.863C168.858 447.095 168.822 445.355 168.75 442.643C168.702 439.907 168.678 438.155 168.678 437.387C168.678 437.027 168.846 436.667 169.182 436.307C169.542 435.947 169.962 435.767 170.442 435.767C170.922 435.767 171.354 435.923 171.738 436.235C172.122 436.523 172.302 437.075 172.278 437.891C173.358 436.619 174.678 435.911 176.238 435.767C177.894 435.623 179.274 435.995 180.378 436.883C180.954 437.339 181.47 437.975 181.926 438.791C183.414 436.919 185.37 435.911 187.794 435.767C189.57 435.743 190.998 436.295 192.078 437.423C192.918 438.407 193.482 439.667 193.77 441.203C193.89 441.923 193.962 442.715 193.986 443.579C194.01 444.419 193.998 445.379 193.95 446.459C193.926 447.515 193.914 448.115 193.914 448.259V450.239C193.914 450.359 193.914 450.479 193.914 450.599C193.938 450.719 193.95 450.863 193.95 451.031C193.974 451.175 193.998 451.427 194.022 451.787C194.046 452.147 194.082 452.543 194.13 452.975C194.154 453.479 193.998 453.923 193.662 454.307C193.35 454.667 192.942 454.859 192.438 454.883C191.958 454.931 191.526 454.799 191.142 454.487C190.782 454.151 190.578 453.743 190.53 453.263ZM202.055 460.283C202.055 460.787 201.875 461.207 201.515 461.543C201.155 461.879 200.723 462.047 200.219 462.047C199.715 462.047 199.295 461.867 198.959 461.507C198.623 461.147 198.455 460.715 198.455 460.211C198.551 455.483 198.599 447.935 198.599 437.567C198.599 437.063 198.767 436.643 199.103 436.307C199.463 435.947 199.895 435.767 200.399 435.767C200.759 435.767 201.083 435.935 201.371 436.271C201.683 436.583 201.911 436.979 202.055 437.459L202.559 437.135C203.999 436.271 205.427 435.803 206.843 435.731C208.259 435.659 209.531 435.971 210.659 436.667C211.715 437.267 212.603 438.107 213.323 439.187C214.067 440.267 214.607 441.443 214.943 442.715C215.207 443.627 215.351 444.599 215.375 445.631C215.399 446.663 215.267 447.623 214.979 448.511C214.691 449.399 214.271 450.275 213.719 451.139C213.167 452.003 212.387 452.759 211.379 453.407C210.395 454.055 209.255 454.499 207.959 454.739C205.727 455.147 203.795 454.763 202.163 453.587C202.139 455.819 202.103 458.051 202.055 460.283ZM207.311 451.211C209.135 450.875 210.407 450.011 211.127 448.619C211.871 447.203 211.991 445.547 211.487 443.651C210.983 441.779 210.107 440.495 208.859 439.799C207.587 439.055 206.111 439.199 204.431 440.231C203.663 440.687 203.219 440.987 203.099 441.131C203.027 441.203 202.967 441.275 202.919 441.347C202.871 441.395 202.787 441.527 202.667 441.743L202.199 442.391V448.295C202.319 448.415 202.415 448.547 202.487 448.691C203.159 449.747 203.867 450.479 204.611 450.887C205.355 451.295 206.255 451.403 207.311 451.211ZM222.758 453.119C222.734 453.623 222.542 454.043 222.182 454.379C221.822 454.715 221.39 454.871 220.886 454.847C220.382 454.823 219.962 454.631 219.626 454.271C219.29 453.911 219.134 453.479 219.158 452.975C219.254 449.783 219.302 447.359 219.302 445.703C219.302 444.047 219.278 441.575 219.23 438.287C219.182 434.999 219.158 432.527 219.158 430.871C219.158 430.367 219.326 429.947 219.662 429.611C220.022 429.251 220.454 429.071 220.958 429.071C221.462 429.071 221.882 429.251 222.218 429.611C222.578 429.947 222.758 430.367 222.758 430.871C222.758 432.527 222.782 434.879 222.83 437.927C222.878 440.975 222.89 443.747 222.866 446.243C222.866 448.715 222.83 451.007 222.758 453.119ZM237.116 454.271C236.252 454.607 235.268 454.799 234.164 454.847C233.084 454.895 232.076 454.775 231.14 454.487C230.204 454.175 229.376 453.707 228.656 453.083C227.408 452.051 226.604 450.767 226.244 449.231C225.884 447.695 225.872 446.315 226.208 445.091C226.544 443.867 227.048 442.679 227.72 441.527C228.416 440.351 229.16 439.367 229.952 438.575C230.768 437.759 231.704 437.075 232.76 436.523C233.816 435.971 234.92 435.707 236.072 435.731C237.224 435.731 238.436 436.043 239.708 436.667C239.9 436.763 240.104 436.907 240.32 437.099C240.56 437.291 240.764 437.459 240.932 437.603L241.4 438.071C241.544 438.215 241.616 438.299 241.616 438.323C242 438.659 242.204 439.091 242.228 439.619C242.54 441.059 242.744 442.571 242.84 444.155C242.936 445.739 242.96 447.227 242.912 448.619C242.888 450.011 242.912 451.487 242.984 453.047C243.008 453.527 242.852 453.947 242.516 454.307C242.18 454.667 241.76 454.859 241.256 454.883C240.752 454.907 240.32 454.751 239.96 454.415C239.6 454.079 239.408 453.671 239.384 453.191V452.651C238.664 453.395 237.908 453.935 237.116 454.271ZM235.496 451.031C235.856 450.935 236.144 450.839 236.36 450.743C236.576 450.647 236.84 450.503 237.152 450.311C237.488 450.119 237.836 449.879 238.196 449.591C238.556 449.303 238.88 448.943 239.168 448.511C239.216 448.463 239.276 448.415 239.348 448.367C239.348 445.127 239.144 442.523 238.736 440.555C238.664 440.459 238.58 440.375 238.484 440.303C238.412 440.207 238.352 440.135 238.304 440.087C238.28 440.039 238.232 440.003 238.16 439.979C238.112 439.931 238.052 439.883 237.98 439.835C236.828 439.211 235.616 439.199 234.344 439.799C233.072 440.375 231.956 441.467 230.996 443.075C230.036 444.707 229.556 446.135 229.556 447.359C229.58 448.559 230.048 449.555 230.96 450.347C231.512 450.803 232.196 451.091 233.012 451.211C233.828 451.331 234.656 451.271 235.496 451.031ZM253.474 454.739C253.33 454.691 253.03 454.619 252.574 454.523C252.142 454.427 251.758 454.319 251.422 454.199C251.11 454.079 250.738 453.911 250.306 453.695C249.898 453.455 249.526 453.143 249.19 452.759C248.854 452.351 248.566 451.871 248.326 451.319C248.062 450.671 247.894 449.399 247.822 447.503C247.75 446.039 247.738 444.155 247.786 441.851C247.786 441.419 247.798 440.699 247.822 439.691L247.534 439.727C247.03 439.775 246.586 439.643 246.202 439.331C245.818 439.019 245.59 438.623 245.518 438.143C245.47 437.639 245.602 437.195 245.914 436.811C246.226 436.427 246.622 436.199 247.102 436.127L247.93 436.055C247.954 434.783 247.99 433.499 248.038 432.203C248.062 431.699 248.254 431.279 248.614 430.943C248.974 430.607 249.406 430.451 249.91 430.475C250.414 430.499 250.834 430.691 251.17 431.051C251.506 431.411 251.662 431.843 251.638 432.347L251.53 435.767L252.718 435.695C253.222 435.671 253.654 435.815 254.014 436.127C254.398 436.439 254.602 436.847 254.626 437.351C254.674 437.855 254.542 438.299 254.23 438.683C253.918 439.043 253.51 439.247 253.006 439.295L251.422 439.367C251.398 440.519 251.386 441.359 251.386 441.887C251.338 444.143 251.35 445.979 251.422 447.395C251.47 448.835 251.542 449.663 251.638 449.879C251.734 450.095 251.806 450.251 251.854 450.347C251.902 450.419 251.986 450.503 252.106 450.599C252.25 450.671 252.394 450.719 252.538 450.743C252.682 450.767 252.946 450.839 253.33 450.959C253.738 451.055 254.17 451.187 254.626 451.355C255.082 451.499 255.418 451.799 255.634 452.255C255.874 452.687 255.91 453.143 255.742 453.623C255.598 454.079 255.298 454.427 254.842 454.667C254.41 454.883 253.954 454.907 253.474 454.739ZM267.078 455.027C265.302 454.907 263.754 454.547 262.434 453.947C261.114 453.347 260.106 452.591 259.41 451.679C258.714 450.767 258.21 449.927 257.898 449.159C257.586 448.391 257.394 447.635 257.322 446.891C257.25 446.123 257.286 445.139 257.43 443.939C257.598 442.931 257.946 441.935 258.474 440.951C259.026 439.967 259.746 439.091 260.634 438.323C261.546 437.531 262.638 436.931 263.91 436.523C265.182 436.091 266.538 435.959 267.978 436.127C269.37 436.295 270.558 436.679 271.542 437.279C272.526 437.855 273.366 438.599 274.062 439.511C274.662 440.279 275.022 440.855 275.142 441.239C275.286 441.623 275.406 441.983 275.502 442.319C275.622 442.655 275.718 442.943 275.79 443.183C275.862 443.423 275.922 443.675 275.97 443.939C276.042 444.179 276.09 444.467 276.114 444.803C276.138 445.259 276.054 445.679 275.862 446.063C275.67 446.447 275.382 446.747 274.998 446.963C274.686 447.083 274.35 447.143 273.99 447.143L267.834 447.251C263.514 447.275 261.354 447.323 261.354 447.395H261.246C261.558 448.619 262.206 449.579 263.19 450.275C264.198 450.971 265.566 451.379 267.294 451.499C268.23 451.547 269.01 451.499 269.634 451.355C270.33 451.163 270.834 450.995 271.146 450.851C271.458 450.683 271.842 450.467 272.298 450.203C272.754 450.035 273.21 450.059 273.666 450.275C274.122 450.491 274.434 450.827 274.602 451.283C274.77 451.739 274.746 452.183 274.53 452.615C274.338 453.047 274.026 453.383 273.594 453.623C273.21 453.839 272.814 454.031 272.406 454.199C271.998 454.343 271.398 454.523 270.606 454.739C269.814 454.955 268.638 455.051 267.078 455.027ZM261.318 443.867C262.71 443.795 266.322 443.723 272.154 443.651C271.938 442.931 271.59 442.247 271.11 441.599C270.15 440.495 268.962 439.859 267.546 439.691C266.058 439.499 264.75 439.823 263.622 440.663C262.494 441.479 261.726 442.547 261.318 443.867ZM283.378 454.847C281.602 454.535 280.318 453.815 279.526 452.687C279.142 452.183 278.866 451.511 278.698 450.671L278.554 449.879C278.506 449.639 278.458 449.447 278.41 449.303C278.266 448.847 278.314 448.403 278.554 447.971C278.794 447.539 279.154 447.263 279.634 447.143C280.114 447.023 280.57 447.071 281.002 447.287C281.434 447.503 281.722 447.851 281.866 448.331C281.938 448.595 282.01 448.895 282.082 449.231C282.106 449.351 282.118 449.471 282.118 449.591C282.142 449.687 282.19 449.867 282.262 450.131C282.334 450.443 282.502 450.707 282.766 450.923C283.054 451.187 283.486 451.355 284.062 451.427C285.022 451.619 286.054 451.595 287.158 451.355C288.238 451.115 289.078 450.767 289.678 450.311C290.11 449.927 290.29 449.531 290.218 449.123C290.146 448.451 289.726 447.947 288.958 447.611C288.478 447.395 287.23 447.107 285.214 446.747C283.126 446.339 281.65 445.811 280.786 445.163C279.202 443.987 278.686 442.235 279.238 439.907C279.574 438.563 280.258 437.579 281.29 436.955C282.346 436.307 283.51 435.947 284.782 435.875C285.862 435.827 286.954 435.959 288.058 436.271C289.186 436.559 290.146 436.967 290.938 437.495C291.202 437.687 291.478 437.915 291.766 438.179C292.054 438.443 292.33 438.731 292.594 439.043C292.882 439.355 293.05 439.523 293.098 439.547C293.458 439.907 293.638 440.327 293.638 440.807C293.638 441.263 293.458 441.671 293.098 442.031C292.762 442.367 292.342 442.535 291.838 442.535C291.358 442.535 290.938 442.367 290.578 442.031C290.338 441.815 290.098 441.587 289.858 441.347L289.354 440.735C289.21 440.615 289.042 440.495 288.85 440.375C288.394 440.087 287.806 439.847 287.086 439.655C286.366 439.439 285.658 439.343 284.962 439.367C283.69 439.439 282.958 439.883 282.766 440.699C282.55 441.563 282.622 442.127 282.982 442.391C283.414 442.703 284.386 443.015 285.898 443.327C288.13 443.711 289.654 444.083 290.47 444.443C292.438 445.331 293.554 446.759 293.818 448.727C294.034 450.335 293.434 451.727 292.018 452.903C290.938 453.791 289.57 454.403 287.914 454.739C286.33 455.099 284.818 455.135 283.378 454.847ZM305.355 462.083C304.851 462.131 304.407 461.987 304.023 461.651C303.639 461.339 303.423 460.931 303.375 460.427C303.327 459.947 303.459 459.515 303.771 459.131C304.107 458.747 304.515 458.531 304.995 458.483C305.235 458.459 305.523 458.435 305.859 458.411C306.195 458.387 306.411 458.363 306.507 458.339C306.627 458.339 306.771 458.315 306.939 458.267C307.107 458.243 307.239 458.195 307.335 458.123L307.695 457.907C308.271 457.619 308.787 456.815 309.243 455.495C309.387 455.087 309.531 454.799 309.675 454.631C309.507 454.439 309.375 454.211 309.279 453.947C308.847 452.099 307.959 449.363 306.615 445.739C305.415 442.547 304.527 439.991 303.951 438.071C303.807 437.591 303.855 437.135 304.095 436.703C304.335 436.271 304.695 435.983 305.175 435.839C305.655 435.695 306.111 435.743 306.543 435.983C306.975 436.223 307.263 436.583 307.407 437.063C307.863 438.599 308.727 441.071 309.999 444.479L311.367 448.223C313.047 443.087 314.583 439.235 315.975 436.667C316.215 436.235 316.575 435.947 317.055 435.803C317.535 435.659 317.991 435.707 318.423 435.947C318.855 436.187 319.143 436.547 319.287 437.027C319.431 437.507 319.383 437.963 319.143 438.395C318.519 439.547 317.871 440.951 317.199 442.607C316.527 444.263 315.999 445.655 315.615 446.783C315.231 447.911 314.727 449.483 314.103 451.499C313.959 451.979 313.863 452.315 313.815 452.507C313.695 452.819 313.527 453.443 313.311 454.379C313.047 455.267 312.831 455.987 312.663 456.539C311.991 458.411 311.079 459.803 309.927 460.715C309.591 460.979 309.255 461.195 308.919 461.363C308.583 461.555 308.223 461.687 307.839 461.759C307.479 461.855 307.191 461.915 306.975 461.939C306.759 461.987 306.447 462.011 306.039 462.011C305.655 462.035 305.427 462.059 305.355 462.083ZM328.777 455.027C327.001 454.907 325.453 454.547 324.133 453.947C322.813 453.347 321.805 452.591 321.109 451.679C320.413 450.767 319.909 449.927 319.597 449.159C319.285 448.391 319.093 447.635 319.021 446.891C318.949 446.123 318.985 445.139 319.129 443.939C319.297 442.931 319.645 441.935 320.173 440.951C320.725 439.967 321.445 439.091 322.333 438.323C323.245 437.531 324.337 436.931 325.609 436.523C326.881 436.091 328.237 435.959 329.677 436.127C331.069 436.295 332.257 436.679 333.241 437.279C334.225 437.855 335.065 438.599 335.761 439.511C336.361 440.279 336.721 440.855 336.841 441.239C336.985 441.623 337.105 441.983 337.201 442.319C337.321 442.655 337.417 442.943 337.489 443.183C337.561 443.423 337.621 443.675 337.669 443.939C337.741 444.179 337.789 444.467 337.813 444.803C337.837 445.259 337.753 445.679 337.561 446.063C337.369 446.447 337.081 446.747 336.697 446.963C336.385 447.083 336.049 447.143 335.689 447.143L329.533 447.251C325.213 447.275 323.053 447.323 323.053 447.395H322.945C323.257 448.619 323.905 449.579 324.889 450.275C325.897 450.971 327.265 451.379 328.993 451.499C329.929 451.547 330.709 451.499 331.333 451.355C332.029 451.163 332.533 450.995 332.845 450.851C333.157 450.683 333.541 450.467 333.997 450.203C334.453 450.035 334.909 450.059 335.365 450.275C335.821 450.491 336.133 450.827 336.301 451.283C336.469 451.739 336.445 452.183 336.229 452.615C336.037 453.047 335.725 453.383 335.293 453.623C334.909 453.839 334.513 454.031 334.105 454.199C333.697 454.343 333.097 454.523 332.305 454.739C331.513 454.955 330.337 455.051 328.777 455.027ZM323.017 443.867C324.409 443.795 328.021 443.723 333.853 443.651C333.637 442.931 333.289 442.247 332.809 441.599C331.849 440.495 330.661 439.859 329.245 439.691C327.757 439.499 326.449 439.823 325.321 440.663C324.193 441.479 323.425 442.547 323.017 443.867ZM347.201 454.739C347.057 454.691 346.757 454.619 346.301 454.523C345.869 454.427 345.485 454.319 345.149 454.199C344.837 454.079 344.465 453.911 344.033 453.695C343.625 453.455 343.253 453.143 342.917 452.759C342.581 452.351 342.293 451.871 342.053 451.319C341.789 450.671 341.621 449.399 341.549 447.503C341.477 446.039 341.465 444.155 341.513 441.851C341.513 441.419 341.525 440.699 341.549 439.691L341.261 439.727C340.757 439.775 340.313 439.643 339.929 439.331C339.545 439.019 339.317 438.623 339.245 438.143C339.197 437.639 339.329 437.195 339.641 436.811C339.953 436.427 340.349 436.199 340.829 436.127L341.657 436.055C341.681 434.783 341.717 433.499 341.765 432.203C341.789 431.699 341.981 431.279 342.341 430.943C342.701 430.607 343.133 430.451 343.637 430.475C344.141 430.499 344.561 430.691 344.897 431.051C345.233 431.411 345.389 431.843 345.365 432.347L345.257 435.767L346.445 435.695C346.949 435.671 347.381 435.815 347.741 436.127C348.125 436.439 348.329 436.847 348.353 437.351C348.401 437.855 348.269 438.299 347.957 438.683C347.645 439.043 347.237 439.247 346.733 439.295L345.149 439.367C345.125 440.519 345.113 441.359 345.113 441.887C345.065 444.143 345.077 445.979 345.149 447.395C345.197 448.835 345.269 449.663 345.365 449.879C345.461 450.095 345.533 450.251 345.581 450.347C345.629 450.419 345.713 450.503 345.833 450.599C345.977 450.671 346.121 450.719 346.265 450.743C346.409 450.767 346.673 450.839 347.057 450.959C347.465 451.055 347.897 451.187 348.353 451.355C348.809 451.499 349.145 451.799 349.361 452.255C349.601 452.687 349.637 453.143 349.469 453.623C349.325 454.079 349.025 454.427 348.569 454.667C348.137 454.883 347.681 454.907 347.201 454.739Z" fill="#1BA8BB"/>
<defs>
<clipPath id="clip0_1341_12128">
<rect width="427" height="375.347" fill="white" transform="translate(0 0.5)"/>
</clipPath>
</defs>
</svg>
