<svg width="61" height="50" viewBox="0 0 61 50" fill="none" xmlns="http://www.w3.org/2000/svg">
<g filter="url(#filter0_d_1336_5129)">
<rect x="5.39062" y="0.120117" width="49.4521" height="38.7598" rx="6.68272" fill="#1BA8BB"/>
<path d="M21.1692 8.9834C20.1173 8.9834 19.1085 9.40125 18.3648 10.145C17.621 10.8888 17.2031 11.8976 17.2031 12.9495V15.0118H42.586V12.9495C42.586 11.8976 42.1682 10.8888 41.4244 10.145C40.6806 9.40125 39.6718 8.9834 38.6199 8.9834H21.1692ZM17.2031 24.0545V16.5983H42.586V24.0545C42.586 25.1064 42.1682 26.1151 41.4244 26.8589C40.6806 27.6027 39.6718 28.0206 38.6199 28.0206H21.1692C20.1173 28.0206 19.1085 27.6027 18.3648 26.8589C17.621 26.1151 17.2031 25.1064 17.2031 24.0545ZM34.4952 21.9921C34.2848 21.9921 34.0831 22.0757 33.9343 22.2245C33.7856 22.3732 33.702 22.575 33.702 22.7853C33.702 22.9957 33.7856 23.1975 33.9343 23.3462C34.0831 23.495 34.2848 23.5786 34.4952 23.5786H37.9854C38.1957 23.5786 38.3975 23.495 38.5463 23.3462C38.695 23.1975 38.7786 22.9957 38.7786 22.7853C38.7786 22.575 38.695 22.3732 38.5463 22.2245C38.3975 22.0757 38.1957 21.9921 37.9854 21.9921H34.4952Z" fill="white"/>
</g>
<defs>
<filter id="filter0_d_1336_5129" x="0.0444512" y="0.120117" width="60.1455" height="49.4521" filterUnits="userSpaceOnUse" color-interpolation-filters="sRGB">
<feFlood flood-opacity="0" result="BackgroundImageFix"/>
<feColorMatrix in="SourceAlpha" type="matrix" values="0 0 0 0 0 0 0 0 0 0 0 0 0 0 0 0 0 0 127 0" result="hardAlpha"/>
<feOffset dy="5.34617"/>
<feGaussianBlur stdDeviation="2.67309"/>
<feComposite in2="hardAlpha" operator="out"/>
<feColorMatrix type="matrix" values="0 0 0 0 0 0 0 0 0 0 0 0 0 0 0 0 0 0 0.25 0"/>
<feBlend mode="normal" in2="BackgroundImageFix" result="effect1_dropShadow_1336_5129"/>
<feBlend mode="normal" in="SourceGraphic" in2="effect1_dropShadow_1336_5129" result="shape"/>
</filter>
</defs>
</svg>
