<svg width="61" height="50" viewBox="0 0 61 50" fill="none" xmlns="http://www.w3.org/2000/svg">
<g filter="url(#filter0_d_1336_4861)">
<rect x="6" y="0.120117" width="49.4521" height="38.7598" rx="6.68272" fill="#1BA8BB"/>
<path fill-rule="evenodd" clip-rule="evenodd" d="M26.0499 12.1489C26.0499 10.731 26.6132 9.37119 27.6158 8.36859C28.6184 7.36599 29.9782 6.80273 31.3961 6.80273C32.814 6.80273 34.1738 7.36599 35.1764 8.36859C36.179 9.37119 36.7423 10.731 36.7423 12.1489C36.7423 13.5668 36.179 14.9266 35.1764 15.9292C34.1738 16.9318 32.814 17.4951 31.3961 17.4951C29.9782 17.4951 28.6184 16.9318 27.6158 15.9292C26.6132 14.9266 26.0499 13.5668 26.0499 12.1489ZM26.0499 20.1682C24.2775 20.1682 22.5778 20.8722 21.3245 22.1255C20.0713 23.3787 19.3672 25.0785 19.3672 26.8509C19.3672 27.9143 19.7896 28.9342 20.5416 29.6861C21.2935 30.4381 22.3134 30.8605 23.3768 30.8605H39.4153C40.4788 30.8605 41.4986 30.4381 42.2506 29.6861C43.0025 28.9342 43.425 27.9143 43.425 26.8509C43.425 25.0785 42.7209 23.3787 41.4676 22.1255C40.2144 20.8722 38.5146 20.1682 36.7423 20.1682H26.0499Z" fill="white"/>
</g>
<defs>
<filter id="filter0_d_1336_4861" x="0.653826" y="0.120117" width="60.1455" height="49.4521" filterUnits="userSpaceOnUse" color-interpolation-filters="sRGB">
<feFlood flood-opacity="0" result="BackgroundImageFix"/>
<feColorMatrix in="SourceAlpha" type="matrix" values="0 0 0 0 0 0 0 0 0 0 0 0 0 0 0 0 0 0 127 0" result="hardAlpha"/>
<feOffset dy="5.34617"/>
<feGaussianBlur stdDeviation="2.67309"/>
<feComposite in2="hardAlpha" operator="out"/>
<feColorMatrix type="matrix" values="0 0 0 0 0 0 0 0 0 0 0 0 0 0 0 0 0 0 0.25 0"/>
<feBlend mode="normal" in2="BackgroundImageFix" result="effect1_dropShadow_1336_4861"/>
<feBlend mode="normal" in="SourceGraphic" in2="effect1_dropShadow_1336_4861" result="shape"/>
</filter>
</defs>
</svg>
