<svg width="28" height="27" viewBox="0 0 28 27" fill="none" xmlns="http://www.w3.org/2000/svg">
<path fill-rule="evenodd" clip-rule="evenodd" d="M23.2574 7.65079C23.4671 7.86059 23.585 8.14509 23.585 8.44174C23.585 8.73838 23.4671 9.02289 23.2574 9.23268L12.6295 19.8607C12.4197 20.0704 12.1352 20.1882 11.8385 20.1882C11.5419 20.1882 11.2574 20.0704 11.0476 19.8607L6.01326 14.8263C5.80947 14.6154 5.69671 14.3328 5.69926 14.0394C5.70181 13.7461 5.81947 13.4655 6.02689 13.2581C6.23431 13.0507 6.5149 12.933 6.80823 12.9305C7.10156 12.9279 7.38415 13.0407 7.59515 13.2445L11.8385 17.4878L21.6755 7.65079C21.8853 7.44106 22.1698 7.32324 22.4665 7.32324C22.7631 7.32324 23.0476 7.44106 23.2574 7.65079Z" fill="red"/>
</svg>
