<svg width="152" height="154" viewBox="0 0 152 154" fill="none" xmlns="http://www.w3.org/2000/svg">
<path d="M102.47 101.383C97.8582 99.6848 91.1329 94.7245 91.1329 91.6365C91.1329 89.5906 91.1329 87.0349 91.1329 83.5317C93.7981 80.6106 95.8248 74.6806 97.0294 67.9584C99.8389 66.9705 101.444 65.3892 103.45 58.471C105.582 51.1016 100.24 51.3521 100.24 51.3521C104.561 37.2608 98.8725 24.0176 89.3443 24.9898C82.7722 13.664 60.7598 27.577 53.8626 26.6073C53.8626 30.4915 55.5046 33.4037 55.5046 33.4037C53.1071 37.888 54.0319 46.8295 54.7051 51.3521C54.3158 51.3453 49.4844 51.3949 51.5337 58.471C53.5396 65.389 55.1449 66.9705 57.9546 67.9584C59.1569 74.6806 61.1833 80.6106 63.8511 83.5317C63.8511 87.0349 63.8511 89.5906 63.8511 91.6365C63.8511 94.7245 56.7068 99.9262 52.514 101.383C43.8512 104.388 22.5645 113.029 23.9385 129.216C24.268 133.101 45.9511 147.596 77.492 147.596C109.031 147.596 130.716 133.101 131.046 129.216C132.42 113.014 111.078 104.555 102.47 101.383Z" fill="#1BA8BB"/>
<path d="M76 149.232C116.165 149.232 148.707 116.553 148.707 76.2626C148.707 35.9721 116.165 3.29293 76 3.29293C35.8354 3.29293 3.29293 35.9721 3.29293 76.2626C3.29293 116.553 35.8354 149.232 76 149.232Z" stroke="#1BA8BB" stroke-width="5.41414"/>
</svg>
