<svg width="61" height="50" viewBox="0 0 61 50" fill="none" xmlns="http://www.w3.org/2000/svg">
<g filter="url(#filter0_d_1336_5137)">
<rect x="6.20312" y="0.296875" width="49" height="38.4054" rx="6.62162" fill="white"/>
<path fill-rule="evenodd" clip-rule="evenodd" d="M26.4852 11.7161C26.4852 10.3501 27.0279 9.03998 27.9938 8.07403C28.9598 7.10809 30.2699 6.56543 31.6359 6.56543C33.002 6.56543 34.3121 7.10809 35.278 8.07403C36.244 9.03998 36.7866 10.3501 36.7866 11.7161C36.7866 13.0822 36.244 14.3923 35.278 15.3582C34.3121 16.3242 33.002 16.8668 31.6359 16.8668C30.2699 16.8668 28.9598 16.3242 27.9938 15.3582C27.0279 14.3923 26.4852 13.0822 26.4852 11.7161ZM26.4852 19.4422C24.7777 19.4422 23.1401 20.1205 21.9326 21.3279C20.7252 22.5354 20.0469 24.173 20.0469 25.8805C20.0469 26.9051 20.4539 27.8877 21.1783 28.6121C21.9028 29.3366 22.8854 29.7436 23.9099 29.7436H39.362C40.3865 29.7436 41.3691 29.3366 42.0936 28.6121C42.818 27.8877 43.225 26.9051 43.225 25.8805C43.225 24.173 42.5467 22.5354 41.3393 21.3279C40.1318 20.1205 38.4942 19.4422 36.7866 19.4422H26.4852Z" fill="#1BA8BB"/>
</g>
<defs>
<filter id="filter0_d_1336_5137" x="0.905828" y="0.296875" width="59.5946" height="48.9999" filterUnits="userSpaceOnUse" color-interpolation-filters="sRGB">
<feFlood flood-opacity="0" result="BackgroundImageFix"/>
<feColorMatrix in="SourceAlpha" type="matrix" values="0 0 0 0 0 0 0 0 0 0 0 0 0 0 0 0 0 0 127 0" result="hardAlpha"/>
<feOffset dy="5.2973"/>
<feGaussianBlur stdDeviation="2.64865"/>
<feComposite in2="hardAlpha" operator="out"/>
<feColorMatrix type="matrix" values="0 0 0 0 0 0 0 0 0 0 0 0 0 0 0 0 0 0 0.25 0"/>
<feBlend mode="normal" in2="BackgroundImageFix" result="effect1_dropShadow_1336_5137"/>
<feBlend mode="normal" in="SourceGraphic" in2="effect1_dropShadow_1336_5137" result="shape"/>
</filter>
</defs>
</svg>
