<svg width="44" height="48" viewBox="0 0 44 48" fill="none" xmlns="http://www.w3.org/2000/svg">
<rect width="43.9904" height="47.3375" rx="6" fill="white"/>
<path fill-rule="evenodd" clip-rule="evenodd" d="M22.3504 10.7862C22.9496 11.4464 22.9496 12.5169 22.3504 13.1771L14.2282 22.1254L22.3504 31.0737C22.9496 31.7339 22.9496 32.8044 22.3504 33.4646C21.7511 34.1248 20.7795 34.1248 20.1802 33.4646L10.9729 23.3208C10.3736 22.6606 10.3736 21.5902 10.9729 20.9299L20.1802 10.7862C20.7795 10.126 21.7511 10.126 22.3504 10.7862Z" fill="#1BA8BB"/>
<path fill-rule="evenodd" clip-rule="evenodd" d="M11.5469 22.1257C11.5469 21.0618 12.2582 20.1992 13.1356 20.1992H32.4649C33.3423 20.1992 34.0536 21.0618 34.0536 22.1257C34.0536 23.1897 33.3423 24.0523 32.4649 24.0523H13.1356C12.2582 24.0523 11.5469 23.1897 11.5469 22.1257Z" fill="#1BA8BB"/>
</svg>
